solid OpenSCAD_Model
  facet normal -1 -0 0
    outer loop
      vertex -10 -9.94522 8.95471
      vertex -10 -10 0
      vertex -10 -9.94522 11.0453
    endloop
  endfacet
  facet normal -1 -0 0
    outer loop
      vertex -10 -9.51056 6.90983
      vertex -10 -10 0
      vertex -10 -9.94522 8.95471
    endloop
  endfacet
  facet normal -1 -0 0
    outer loop
      vertex -10 -8.96036 5.67406
      vertex -10 -10 0
      vertex -10 -9.51056 6.90983
    endloop
  endfacet
  facet normal -1 -0 0
    outer loop
      vertex -10 -8.66025 5
      vertex -10 -10 0
      vertex -10 -8.96036 5.67406
    endloop
  endfacet
  facet normal -1 -0 0
    outer loop
      vertex -10 -8.22656 4.40307
      vertex -10 -10 0
      vertex -10 -8.66025 5
    endloop
  endfacet
  facet normal -1 -0 0
    outer loop
      vertex -10 -7.43145 3.30869
      vertex -10 -10 0
      vertex -10 -8.22656 4.40307
    endloop
  endfacet
  facet normal -1 -0 0
    outer loop
      vertex -10 -5.87785 1.90983
      vertex -10 -10 0
      vertex -10 -7.43145 3.30869
    endloop
  endfacet
  facet normal -1 -0 0
    outer loop
      vertex -10 -4.06737 0.864545
      vertex -10 -10 0
      vertex -10 -5.87785 1.90983
    endloop
  endfacet
  facet normal -1 -0 0
    outer loop
      vertex -10 -2.07912 0.218524
      vertex -10 -10 0
      vertex -10 -4.06737 0.864545
    endloop
  endfacet
  facet normal -1 0 0
    outer loop
      vertex -10 -10 0
      vertex -10 -2.07912 0.218524
      vertex -10 0 0
    endloop
  endfacet
  facet normal -1 0 0
    outer loop
      vertex -10 10 0
      vertex -10 9.94522 8.95471
      vertex -10 10 20
    endloop
  endfacet
  facet normal -1 0 0
    outer loop
      vertex -10 10 0
      vertex -10 9.51056 6.90983
      vertex -10 9.94522 8.95471
    endloop
  endfacet
  facet normal -1 0 0
    outer loop
      vertex -10 10 0
      vertex -10 8.96036 5.67406
      vertex -10 9.51056 6.90983
    endloop
  endfacet
  facet normal -1 0 0
    outer loop
      vertex -10 10 0
      vertex -10 8.66025 5
      vertex -10 8.96036 5.67406
    endloop
  endfacet
  facet normal -1 0 0
    outer loop
      vertex -10 10 0
      vertex -10 8.22656 4.40307
      vertex -10 8.66025 5
    endloop
  endfacet
  facet normal -1 0 0
    outer loop
      vertex -10 10 0
      vertex -10 7.43145 3.30869
      vertex -10 8.22656 4.40307
    endloop
  endfacet
  facet normal -1 0 0
    outer loop
      vertex -10 10 0
      vertex -10 5.87785 1.90983
      vertex -10 7.43145 3.30869
    endloop
  endfacet
  facet normal -1 0 0
    outer loop
      vertex -10 10 0
      vertex -10 4.06737 0.864545
      vertex -10 5.87785 1.90983
    endloop
  endfacet
  facet normal -1 0 0
    outer loop
      vertex -10 10 0
      vertex -10 2.07912 0.218524
      vertex -10 4.06737 0.864545
    endloop
  endfacet
  facet normal -1 0 -0
    outer loop
      vertex -10 2.07912 0.218524
      vertex -10 10 0
      vertex -10 0 0
    endloop
  endfacet
  facet normal -1 0 0
    outer loop
      vertex -10 9.94522 11.0453
      vertex -10 10 20
      vertex -10 9.94522 8.95471
    endloop
  endfacet
  facet normal -1 0 0
    outer loop
      vertex -10 9.51056 13.0902
      vertex -10 10 20
      vertex -10 9.94522 11.0453
    endloop
  endfacet
  facet normal -1 0 0
    outer loop
      vertex -10 9.21045 13.7642
      vertex -10 10 20
      vertex -10 9.51056 13.0902
    endloop
  endfacet
  facet normal -1 0 0
    outer loop
      vertex -10 8.66025 15
      vertex -10 10 20
      vertex -10 9.21045 13.7642
    endloop
  endfacet
  facet normal -1 0 0
    outer loop
      vertex -10 7.86514 16.0944
      vertex -10 10 20
      vertex -10 8.66025 15
    endloop
  endfacet
  facet normal -1 0 0
    outer loop
      vertex -10 7.43145 16.6913
      vertex -10 10 20
      vertex -10 7.86514 16.0944
    endloop
  endfacet
  facet normal -1 0 0
    outer loop
      vertex -10 5.87785 18.0902
      vertex -10 10 20
      vertex -10 7.43145 16.6913
    endloop
  endfacet
  facet normal -1 0 0
    outer loop
      vertex -10 4.06737 19.1355
      vertex -10 10 20
      vertex -10 5.87785 18.0902
    endloop
  endfacet
  facet normal -1 0 0
    outer loop
      vertex -10 2.07912 19.7815
      vertex -10 10 20
      vertex -10 4.06737 19.1355
    endloop
  endfacet
  facet normal -1 0 0
    outer loop
      vertex -10 1.34531 19.8586
      vertex -10 10 20
      vertex -10 2.07912 19.7815
    endloop
  endfacet
  facet normal -1 -0 0
    outer loop
      vertex -10 10 20
      vertex -10 1.34531 19.8586
      vertex -10 0 20
    endloop
  endfacet
  facet normal -1 0 0
    outer loop
      vertex -10 -10 20
      vertex -10 -1.34531 19.8586
      vertex -10 -2.07912 19.7815
    endloop
  endfacet
  facet normal -1 0 0
    outer loop
      vertex -10 -1.34531 19.8586
      vertex -10 -10 20
      vertex -10 0 20
    endloop
  endfacet
  facet normal -1 0 0
    outer loop
      vertex -10 -4.06737 19.1355
      vertex -10 -10 20
      vertex -10 -2.07912 19.7815
    endloop
  endfacet
  facet normal -1 0 0
    outer loop
      vertex -10 -5.87785 18.0902
      vertex -10 -10 20
      vertex -10 -4.06737 19.1355
    endloop
  endfacet
  facet normal -1 0 0
    outer loop
      vertex -10 -7.43145 16.6913
      vertex -10 -10 20
      vertex -10 -5.87785 18.0902
    endloop
  endfacet
  facet normal -1 0 0
    outer loop
      vertex -10 -7.86514 16.0944
      vertex -10 -10 20
      vertex -10 -7.43145 16.6913
    endloop
  endfacet
  facet normal -1 0 0
    outer loop
      vertex -10 -8.66025 15
      vertex -10 -10 20
      vertex -10 -7.86514 16.0944
    endloop
  endfacet
  facet normal -1 0 0
    outer loop
      vertex -10 -9.21045 13.7642
      vertex -10 -10 20
      vertex -10 -8.66025 15
    endloop
  endfacet
  facet normal -1 0 0
    outer loop
      vertex -10 -9.51056 13.0902
      vertex -10 -10 20
      vertex -10 -9.21045 13.7642
    endloop
  endfacet
  facet normal -1 0 0
    outer loop
      vertex -10 -9.94522 11.0453
      vertex -10 -10 20
      vertex -10 -9.51056 13.0902
    endloop
  endfacet
  facet normal -1 0 0
    outer loop
      vertex -10 -10 20
      vertex -10 -9.94522 11.0453
      vertex -10 -10 0
    endloop
  endfacet
  facet normal -0 0 0
    outer loop
      vertex -10 0 20
      vertex -10 -10 20
      vertex -10 10 20
    endloop
  endfacet
  facet normal 0 0 1
    outer loop
      vertex 10 10 20
      vertex 5 0 20
      vertex 10 -10 20
    endloop
  endfacet
  facet normal 0 0 1
    outer loop
      vertex 10 10 20
      vertex 4.6194 1.91342 20
      vertex 5 0 20
    endloop
  endfacet
  facet normal 0 0 1
    outer loop
      vertex 10 10 20
      vertex 3.53553 3.53553 20
      vertex 4.6194 1.91342 20
    endloop
  endfacet
  facet normal 0 0 1
    outer loop
      vertex 10 10 20
      vertex 1.91342 4.6194 20
      vertex 3.53553 3.53553 20
    endloop
  endfacet
  facet normal 0 0 1
    outer loop
      vertex 10 10 20
      vertex 0 5 20
      vertex 1.91342 4.6194 20
    endloop
  endfacet
  facet normal -0 0 1
    outer loop
      vertex -10 10 20
      vertex 0 5 20
      vertex 10 10 20
    endloop
  endfacet
  facet normal 0 0 1
    outer loop
      vertex -4.6194 1.91342 20
      vertex -10 10 20
      vertex -5 0 20
    endloop
  endfacet
  facet normal 0 0 1
    outer loop
      vertex -3.53553 3.53553 20
      vertex -10 10 20
      vertex -4.6194 1.91342 20
    endloop
  endfacet
  facet normal 0 0 1
    outer loop
      vertex -1.91342 4.6194 20
      vertex -10 10 20
      vertex -3.53553 3.53553 20
    endloop
  endfacet
  facet normal 0 0 1
    outer loop
      vertex 0 5 20
      vertex -10 10 20
      vertex -1.91342 4.6194 20
    endloop
  endfacet
  facet normal -0 0 1
    outer loop
      vertex 4.6194 -1.91342 20
      vertex 10 -10 20
      vertex 5 0 20
    endloop
  endfacet
  facet normal -0 0 1
    outer loop
      vertex 3.53553 -3.53553 20
      vertex 10 -10 20
      vertex 4.6194 -1.91342 20
    endloop
  endfacet
  facet normal -0 0 1
    outer loop
      vertex 1.91342 -4.6194 20
      vertex 10 -10 20
      vertex 3.53553 -3.53553 20
    endloop
  endfacet
  facet normal -0 0 1
    outer loop
      vertex 0 -5 20
      vertex 10 -10 20
      vertex 1.91342 -4.6194 20
    endloop
  endfacet
  facet normal 0 0 1
    outer loop
      vertex -10 -10 20
      vertex 0 -5 20
      vertex -1.91342 -4.6194 20
    endloop
  endfacet
  facet normal 0 0 1
    outer loop
      vertex -10 -10 20
      vertex -5 0 20
      vertex -10 10 20
    endloop
  endfacet
  facet normal 0 0 1
    outer loop
      vertex 0 -5 20
      vertex -10 -10 20
      vertex 10 -10 20
    endloop
  endfacet
  facet normal 0 0 1
    outer loop
      vertex -3.53553 -3.53553 20
      vertex -10 -10 20
      vertex -1.91342 -4.6194 20
    endloop
  endfacet
  facet normal 0 0 1
    outer loop
      vertex -4.6194 -1.91342 20
      vertex -10 -10 20
      vertex -3.53553 -3.53553 20
    endloop
  endfacet
  facet normal 0 0 1
    outer loop
      vertex -5 0 20
      vertex -10 -10 20
      vertex -4.6194 -1.91342 20
    endloop
  endfacet
  facet normal 1 0 0
    outer loop
      vertex 10 -10 20
      vertex 10 -8.96036 14.3259
      vertex 10 -8.66025 15
    endloop
  endfacet
  facet normal 1 0 0
    outer loop
      vertex 10 -9.94522 11.0453
      vertex 10 -10 20
      vertex 10 -9.94522 8.95471
    endloop
  endfacet
  facet normal 1 0 0
    outer loop
      vertex 10 -9.51056 13.0902
      vertex 10 -10 20
      vertex 10 -9.94522 11.0453
    endloop
  endfacet
  facet normal 1 0 0
    outer loop
      vertex 10 -8.96036 14.3259
      vertex 10 -10 20
      vertex 10 -9.51056 13.0902
    endloop
  endfacet
  facet normal 1 0 0
    outer loop
      vertex 10 -8.22656 15.5969
      vertex 10 -10 20
      vertex 10 -8.66025 15
    endloop
  endfacet
  facet normal 1 0 0
    outer loop
      vertex 10 -7.43145 16.6913
      vertex 10 -10 20
      vertex 10 -8.22656 15.5969
    endloop
  endfacet
  facet normal 1 0 0
    outer loop
      vertex 10 -5.87785 18.0902
      vertex 10 -10 20
      vertex 10 -7.43145 16.6913
    endloop
  endfacet
  facet normal 1 0 0
    outer loop
      vertex 10 -4.06737 19.1355
      vertex 10 -10 20
      vertex 10 -5.87785 18.0902
    endloop
  endfacet
  facet normal 1 0 0
    outer loop
      vertex 10 -2.07912 19.7815
      vertex 10 -10 20
      vertex 10 -4.06737 19.1355
    endloop
  endfacet
  facet normal 1 0 0
    outer loop
      vertex 10 -0.733806 19.9229
      vertex 10 -10 20
      vertex 10 -2.07912 19.7815
    endloop
  endfacet
  facet normal 1 -0 0
    outer loop
      vertex 10 -10 20
      vertex 10 -0.733806 19.9229
      vertex 10 0 20
    endloop
  endfacet
  facet normal 1 0 0
    outer loop
      vertex 10 10 20
      vertex 10 9.94522 11.0453
      vertex 10 10 0
    endloop
  endfacet
  facet normal 1 0 0
    outer loop
      vertex 10 10 20
      vertex 10 9.51056 13.0902
      vertex 10 9.94522 11.0453
    endloop
  endfacet
  facet normal 1 0 0
    outer loop
      vertex 10 10 20
      vertex 10 8.96036 14.3259
      vertex 10 9.51056 13.0902
    endloop
  endfacet
  facet normal 1 0 0
    outer loop
      vertex 10 10 20
      vertex 10 8.66025 15
      vertex 10 8.96036 14.3259
    endloop
  endfacet
  facet normal 1 0 0
    outer loop
      vertex 10 10 20
      vertex 10 8.22656 15.5969
      vertex 10 8.66025 15
    endloop
  endfacet
  facet normal 1 0 0
    outer loop
      vertex 10 10 20
      vertex 10 7.43145 16.6913
      vertex 10 8.22656 15.5969
    endloop
  endfacet
  facet normal 1 0 0
    outer loop
      vertex 10 10 20
      vertex 10 5.87785 18.0902
      vertex 10 7.43145 16.6913
    endloop
  endfacet
  facet normal 1 0 0
    outer loop
      vertex 10 10 20
      vertex 10 4.06737 19.1355
      vertex 10 5.87785 18.0902
    endloop
  endfacet
  facet normal 1 0 0
    outer loop
      vertex 10 10 20
      vertex 10 2.07912 19.7815
      vertex 10 4.06737 19.1355
    endloop
  endfacet
  facet normal 1 0 0
    outer loop
      vertex 10 10 20
      vertex 10 0.733806 19.9229
      vertex 10 2.07912 19.7815
    endloop
  endfacet
  facet normal 1 0 -0
    outer loop
      vertex 10 0.733806 19.9229
      vertex 10 10 20
      vertex 10 0 20
    endloop
  endfacet
  facet normal 1 -0 0
    outer loop
      vertex 10 9.94522 8.95471
      vertex 10 10 0
      vertex 10 9.94522 11.0453
    endloop
  endfacet
  facet normal 1 -0 0
    outer loop
      vertex 10 9.51056 6.90983
      vertex 10 10 0
      vertex 10 9.94522 8.95471
    endloop
  endfacet
  facet normal 1 -0 0
    outer loop
      vertex 10 9.21045 6.23577
      vertex 10 10 0
      vertex 10 9.51056 6.90983
    endloop
  endfacet
  facet normal 1 -0 0
    outer loop
      vertex 10 8.66025 5
      vertex 10 10 0
      vertex 10 9.21045 6.23577
    endloop
  endfacet
  facet normal 1 -0 0
    outer loop
      vertex 10 7.86514 3.90563
      vertex 10 10 0
      vertex 10 8.66025 5
    endloop
  endfacet
  facet normal 1 -0 0
    outer loop
      vertex 10 7.43145 3.30869
      vertex 10 10 0
      vertex 10 7.86514 3.90563
    endloop
  endfacet
  facet normal 1 -0 0
    outer loop
      vertex 10 5.87785 1.90983
      vertex 10 10 0
      vertex 10 7.43145 3.30869
    endloop
  endfacet
  facet normal 1 -0 0
    outer loop
      vertex 10 4.06737 0.864545
      vertex 10 10 0
      vertex 10 5.87785 1.90983
    endloop
  endfacet
  facet normal 1 -0 0
    outer loop
      vertex 10 2.07912 0.218524
      vertex 10 10 0
      vertex 10 4.06737 0.864545
    endloop
  endfacet
  facet normal 1 0 0
    outer loop
      vertex 10 10 0
      vertex 10 2.07912 0.218524
      vertex 10 0 0
    endloop
  endfacet
  facet normal 1 0 0
    outer loop
      vertex 10 -10 0
      vertex 10 -9.21045 6.23577
      vertex 10 -9.51056 6.90983
    endloop
  endfacet
  facet normal 1 0 0
    outer loop
      vertex 10 -2.07912 0.218524
      vertex 10 -10 0
      vertex 10 0 0
    endloop
  endfacet
  facet normal 1 0 0
    outer loop
      vertex 10 -4.06737 0.864545
      vertex 10 -10 0
      vertex 10 -2.07912 0.218524
    endloop
  endfacet
  facet normal 1 0 0
    outer loop
      vertex 10 -5.87785 1.90983
      vertex 10 -10 0
      vertex 10 -4.06737 0.864545
    endloop
  endfacet
  facet normal 1 0 0
    outer loop
      vertex 10 -7.43145 3.30869
      vertex 10 -10 0
      vertex 10 -5.87785 1.90983
    endloop
  endfacet
  facet normal 1 0 0
    outer loop
      vertex 10 -7.86514 3.90563
      vertex 10 -10 0
      vertex 10 -7.43145 3.30869
    endloop
  endfacet
  facet normal 1 0 0
    outer loop
      vertex 10 -8.66025 5
      vertex 10 -10 0
      vertex 10 -7.86514 3.90563
    endloop
  endfacet
  facet normal 1 0 0
    outer loop
      vertex 10 -9.21045 6.23577
      vertex 10 -10 0
      vertex 10 -8.66025 5
    endloop
  endfacet
  facet normal 1 0 0
    outer loop
      vertex 10 -9.94522 8.95471
      vertex 10 -10 0
      vertex 10 -9.51056 6.90983
    endloop
  endfacet
  facet normal 1 0 0
    outer loop
      vertex 10 -10 0
      vertex 10 -9.94522 8.95471
      vertex 10 -10 20
    endloop
  endfacet
  facet normal 0 0 -0
    outer loop
      vertex 10 0 20
      vertex 10 10 20
      vertex 10 -10 20
    endloop
  endfacet
  facet normal 0 1 -0
    outer loop
      vertex 10 10 0
      vertex -10 10 20
      vertex 10 10 20
    endloop
  endfacet
  facet normal 0 1 0
    outer loop
      vertex -10 10 20
      vertex 10 10 0
      vertex -10 10 0
    endloop
  endfacet
  facet normal 0 0 -1
    outer loop
      vertex -10 0 0
      vertex 10 0 0
      vertex 10 -10 0
    endloop
  endfacet
  facet normal 0 0 -1
    outer loop
      vertex -10 0 0
      vertex 10 -10 0
      vertex -10 -10 0
    endloop
  endfacet
  facet normal 0 0 -1
    outer loop
      vertex 10 0 0
      vertex -10 0 0
      vertex 10 10 0
    endloop
  endfacet
  facet normal -0 0 -1
    outer loop
      vertex 10 10 0
      vertex -10 0 0
      vertex -10 10 0
    endloop
  endfacet
  facet normal 0 -1 0
    outer loop
      vertex -10 -10 0
      vertex 10 -10 20
      vertex -10 -10 20
    endloop
  endfacet
  facet normal 0 -1 -0
    outer loop
      vertex 10 -10 20
      vertex -10 -10 0
      vertex 10 -10 0
    endloop
  endfacet
  facet normal 0 0.104528 -0.994522
    outer loop
      vertex -34 0 0
      vertex -10 2.07912 0.218524
      vertex -10 0 0
    endloop
  endfacet
  facet normal 0 0.104528 -0.994522
    outer loop
      vertex -10 2.07912 0.218524
      vertex -34 0 0
      vertex -34 2.07912 0.218524
    endloop
  endfacet
  facet normal 0 0.104528 -0.994522
    outer loop
      vertex 10 0 0
      vertex 34 2.07912 0.218524
      vertex 34 0 0
    endloop
  endfacet
  facet normal 0 0.104528 -0.994522
    outer loop
      vertex 34 2.07912 0.218524
      vertex 10 0 0
      vertex 10 2.07912 0.218524
    endloop
  endfacet
  facet normal 0 1 -0
    outer loop
      vertex -10 9.94522 8.95471
      vertex -34 9.94522 11.0453
      vertex -10 9.94522 11.0453
    endloop
  endfacet
  facet normal 0 1 0
    outer loop
      vertex -34 9.94522 11.0453
      vertex -10 9.94522 8.95471
      vertex -34 9.94522 8.95471
    endloop
  endfacet
  facet normal 0 1 -0
    outer loop
      vertex 34 9.94522 8.95471
      vertex 10 9.94522 11.0453
      vertex 34 9.94522 11.0453
    endloop
  endfacet
  facet normal 0 1 0
    outer loop
      vertex 10 9.94522 11.0453
      vertex 34 9.94522 8.95471
      vertex 10 9.94522 8.95471
    endloop
  endfacet
  facet normal 0 -0.104528 0.994522
    outer loop
      vertex 10 0 20
      vertex 10 -0.733806 19.9229
      vertex 34 0 20
    endloop
  endfacet
  facet normal 0 -0.10453 0.994522
    outer loop
      vertex -34 0 20
      vertex -10 -1.34531 19.8586
      vertex -10 0 20
    endloop
  endfacet
  facet normal 3.70109e-08 -0.104529 0.994522
    outer loop
      vertex -10 -1.34531 19.8586
      vertex -34 0 20
      vertex -34 -2.07912 19.7815
    endloop
  endfacet
  facet normal 8.08114e-09 0.913545 -0.406737
    outer loop
      vertex -10 8.66025 5
      vertex -34 8.66025 5
      vertex -10 8.96036 5.67406
    endloop
  endfacet
  facet normal 2.3768e-09 0.913545 -0.406737
    outer loop
      vertex 34 8.66025 5
      vertex 10 9.21045 6.23577
      vertex 34 9.51056 6.90983
    endloop
  endfacet
  facet normal 8.08113e-09 0.913545 -0.406737
    outer loop
      vertex 10 9.21045 6.23577
      vertex 34 8.66025 5
      vertex 10 8.66025 5
    endloop
  endfacet
  facet normal 0 0.809017 -0.587786
    outer loop
      vertex -34 7.43145 3.30869
      vertex -10 8.22656 4.40307
      vertex -10 7.43145 3.30869
    endloop
  endfacet
  facet normal -1.49508e-08 0.809017 -0.587785
    outer loop
      vertex -10 8.22656 4.40307
      vertex -34 7.43145 3.30869
      vertex -34 8.66025 5
    endloop
  endfacet
  facet normal 0 0.809017 -0.587786
    outer loop
      vertex 34 7.43145 3.30869
      vertex 10 7.43145 3.30869
      vertex 10 7.86514 3.90563
    endloop
  endfacet
  facet normal 0 -0.669131 -0.743145
    outer loop
      vertex -34 -7.43145 3.30869
      vertex -10 -5.87785 1.90983
      vertex -10 -7.43145 3.30869
    endloop
  endfacet
  facet normal -0 -0.669131 -0.743145
    outer loop
      vertex -10 -5.87785 1.90983
      vertex -34 -7.43145 3.30869
      vertex -34 -5.87785 1.90983
    endloop
  endfacet
  facet normal 0 -0.669131 -0.743145
    outer loop
      vertex 10 -7.43145 3.30869
      vertex 34 -5.87785 1.90983
      vertex 34 -7.43145 3.30869
    endloop
  endfacet
  facet normal -0 -0.669131 -0.743145
    outer loop
      vertex 34 -5.87785 1.90983
      vertex 10 -7.43145 3.30869
      vertex 10 -5.87785 1.90983
    endloop
  endfacet
  facet normal -1 0 0
    outer loop
      vertex -34 9.51056 6.90983
      vertex -34 9.94522 11.0453
      vertex -34 9.94522 8.95471
    endloop
  endfacet
  facet normal -1 0 0
    outer loop
      vertex -34 9.51056 6.90983
      vertex -34 9.51056 13.0902
      vertex -34 9.94522 11.0453
    endloop
  endfacet
  facet normal -1 0 0
    outer loop
      vertex -34 8.66025 5
      vertex -34 9.51056 13.0902
      vertex -34 9.51056 6.90983
    endloop
  endfacet
  facet normal -1 0 0
    outer loop
      vertex -34 8.66025 5
      vertex -34 8.66025 15
      vertex -34 9.51056 13.0902
    endloop
  endfacet
  facet normal -1 0 0
    outer loop
      vertex -34 7.43145 3.30869
      vertex -34 8.66025 15
      vertex -34 8.66025 5
    endloop
  endfacet
  facet normal -1 0 0
    outer loop
      vertex -34 7.43145 3.30869
      vertex -34 7.43145 16.6913
      vertex -34 8.66025 15
    endloop
  endfacet
  facet normal -1 0 0
    outer loop
      vertex -34 5.87785 1.90983
      vertex -34 7.43145 16.6913
      vertex -34 7.43145 3.30869
    endloop
  endfacet
  facet normal -1 0 0
    outer loop
      vertex -34 5.87785 1.90983
      vertex -34 5.87785 18.0902
      vertex -34 7.43145 16.6913
    endloop
  endfacet
  facet normal -1 0 0
    outer loop
      vertex -34 4.06737 0.864545
      vertex -34 5.87785 18.0902
      vertex -34 5.87785 1.90983
    endloop
  endfacet
  facet normal -1 0 0
    outer loop
      vertex -34 4.06737 0.864545
      vertex -34 4.06737 19.1355
      vertex -34 5.87785 18.0902
    endloop
  endfacet
  facet normal -1 0 0
    outer loop
      vertex -34 2.07912 0.218524
      vertex -34 4.06737 19.1355
      vertex -34 4.06737 0.864545
    endloop
  endfacet
  facet normal -1 0 0
    outer loop
      vertex -34 2.07912 0.218524
      vertex -34 2.07912 19.7815
      vertex -34 4.06737 19.1355
    endloop
  endfacet
  facet normal -1 0 0
    outer loop
      vertex -34 0 0
      vertex -34 2.07912 19.7815
      vertex -34 2.07912 0.218524
    endloop
  endfacet
  facet normal -1 0 0
    outer loop
      vertex -34 0 0
      vertex -34 0 20
      vertex -34 2.07912 19.7815
    endloop
  endfacet
  facet normal -1 0 0
    outer loop
      vertex -34 -2.07912 0.218524
      vertex -34 0 20
      vertex -34 0 0
    endloop
  endfacet
  facet normal -1 0 0
    outer loop
      vertex -34 -2.07912 0.218524
      vertex -34 -2.07912 19.7815
      vertex -34 0 20
    endloop
  endfacet
  facet normal -1 0 0
    outer loop
      vertex -34 -4.06737 0.864545
      vertex -34 -2.07912 19.7815
      vertex -34 -2.07912 0.218524
    endloop
  endfacet
  facet normal -1 0 0
    outer loop
      vertex -34 -4.06737 0.864545
      vertex -34 -4.06737 19.1355
      vertex -34 -2.07912 19.7815
    endloop
  endfacet
  facet normal -1 0 0
    outer loop
      vertex -34 -5.87785 1.90983
      vertex -34 -4.06737 19.1355
      vertex -34 -4.06737 0.864545
    endloop
  endfacet
  facet normal -1 0 0
    outer loop
      vertex -34 -5.87785 1.90983
      vertex -34 -5.87785 18.0902
      vertex -34 -4.06737 19.1355
    endloop
  endfacet
  facet normal -1 0 0
    outer loop
      vertex -34 -7.43145 3.30869
      vertex -34 -5.87785 18.0902
      vertex -34 -5.87785 1.90983
    endloop
  endfacet
  facet normal -1 0 0
    outer loop
      vertex -34 -7.43145 3.30869
      vertex -34 -7.43145 16.6913
      vertex -34 -5.87785 18.0902
    endloop
  endfacet
  facet normal -1 0 0
    outer loop
      vertex -34 -8.66025 5
      vertex -34 -7.43145 16.6913
      vertex -34 -7.43145 3.30869
    endloop
  endfacet
  facet normal -1 0 0
    outer loop
      vertex -34 -8.66025 5
      vertex -34 -8.66025 15
      vertex -34 -7.43145 16.6913
    endloop
  endfacet
  facet normal -1 0 0
    outer loop
      vertex -34 -9.51056 6.90983
      vertex -34 -8.66025 15
      vertex -34 -8.66025 5
    endloop
  endfacet
  facet normal -1 0 0
    outer loop
      vertex -34 -9.51056 6.90983
      vertex -34 -9.51056 13.0902
      vertex -34 -8.66025 15
    endloop
  endfacet
  facet normal -1 0 0
    outer loop
      vertex -34 -9.94522 8.95471
      vertex -34 -9.51056 13.0902
      vertex -34 -9.51056 6.90983
    endloop
  endfacet
  facet normal -1 0 0
    outer loop
      vertex -34 -9.51056 13.0902
      vertex -34 -9.94522 8.95471
      vertex -34 -9.94522 11.0453
    endloop
  endfacet
  facet normal -0 0.5 0.866026
    outer loop
      vertex -34 5.87785 18.0902
      vertex -10 4.06737 19.1355
      vertex -10 5.87785 18.0902
    endloop
  endfacet
  facet normal 0 0.5 0.866026
    outer loop
      vertex -10 4.06737 19.1355
      vertex -34 5.87785 18.0902
      vertex -34 4.06737 19.1355
    endloop
  endfacet
  facet normal -0 0.5 0.866026
    outer loop
      vertex 10 5.87785 18.0902
      vertex 34 4.06737 19.1355
      vertex 34 5.87785 18.0902
    endloop
  endfacet
  facet normal 0 0.5 0.866026
    outer loop
      vertex 34 4.06737 19.1355
      vertex 10 5.87785 18.0902
      vertex 10 4.06737 19.1355
    endloop
  endfacet
  facet normal 0 0.913545 -0.406737
    outer loop
      vertex -10 8.96036 5.67406
      vertex -34 9.51056 6.90983
      vertex -10 9.51056 6.90983
    endloop
  endfacet
  facet normal -3.32752e-09 0.913545 -0.406737
    outer loop
      vertex -34 9.51056 6.90983
      vertex -10 8.96036 5.67406
      vertex -34 8.66025 5
    endloop
  endfacet
  facet normal 0 0.913545 -0.406737
    outer loop
      vertex 34 9.51056 6.90983
      vertex 10 9.21045 6.23577
      vertex 10 9.51056 6.90983
    endloop
  endfacet
  facet normal 0 0.978148 -0.207911
    outer loop
      vertex -10 9.51056 6.90983
      vertex -34 9.94522 8.95471
      vertex -10 9.94522 8.95471
    endloop
  endfacet
  facet normal 0 0.978148 -0.207911
    outer loop
      vertex -34 9.94522 8.95471
      vertex -10 9.51056 6.90983
      vertex -34 9.51056 6.90983
    endloop
  endfacet
  facet normal 0 0.978148 -0.207911
    outer loop
      vertex 34 9.51056 6.90983
      vertex 10 9.94522 8.95471
      vertex 34 9.94522 8.95471
    endloop
  endfacet
  facet normal 0 0.978148 -0.207911
    outer loop
      vertex 10 9.94522 8.95471
      vertex 34 9.51056 6.90983
      vertex 10 9.51056 6.90983
    endloop
  endfacet
  facet normal 0 -0.104528 -0.994522
    outer loop
      vertex 10 -2.07912 0.218524
      vertex 34 0 0
      vertex 34 -2.07912 0.218524
    endloop
  endfacet
  facet normal -0 -0.104528 -0.994522
    outer loop
      vertex 34 0 0
      vertex 10 -2.07912 0.218524
      vertex 10 0 0
    endloop
  endfacet
  facet normal 0 -0.104528 -0.994522
    outer loop
      vertex -34 -2.07912 0.218524
      vertex -10 0 0
      vertex -10 -2.07912 0.218524
    endloop
  endfacet
  facet normal -0 -0.104528 -0.994522
    outer loop
      vertex -10 0 0
      vertex -34 -2.07912 0.218524
      vertex -34 0 0
    endloop
  endfacet
  facet normal 3.72705e-08 -0.104529 0.994522
    outer loop
      vertex 10 -0.733806 19.9229
      vertex 34 -2.07912 19.7815
      vertex 34 0 20
    endloop
  endfacet
  facet normal 0 -0.10453 0.994522
    outer loop
      vertex 34 -2.07912 19.7815
      vertex 10 -0.733806 19.9229
      vertex 10 -2.07912 19.7815
    endloop
  endfacet
  facet normal 0 -0.104528 0.994522
    outer loop
      vertex -10 -1.34531 19.8586
      vertex -34 -2.07912 19.7815
      vertex -10 -2.07912 19.7815
    endloop
  endfacet
  facet normal 0 -0.978148 0.207911
    outer loop
      vertex 10 -9.94522 11.0453
      vertex 34 -9.51056 13.0902
      vertex 10 -9.51056 13.0902
    endloop
  endfacet
  facet normal 0 -0.978148 0.207911
    outer loop
      vertex 34 -9.51056 13.0902
      vertex 10 -9.94522 11.0453
      vertex 34 -9.94522 11.0453
    endloop
  endfacet
  facet normal 0 -0.978148 0.207911
    outer loop
      vertex -34 -9.94522 11.0453
      vertex -10 -9.51056 13.0902
      vertex -34 -9.51056 13.0902
    endloop
  endfacet
  facet normal 0 -0.978148 0.207911
    outer loop
      vertex -10 -9.51056 13.0902
      vertex -34 -9.94522 11.0453
      vertex -10 -9.94522 11.0453
    endloop
  endfacet
  facet normal 0 -0.913545 0.406737
    outer loop
      vertex 34 -9.51056 13.0902
      vertex 10 -8.96036 14.3259
      vertex 10 -9.51056 13.0902
    endloop
  endfacet
  facet normal -4.75361e-09 -0.913545 0.406737
    outer loop
      vertex 10 -8.96036 14.3259
      vertex 34 -9.51056 13.0902
      vertex 34 -8.66025 15
    endloop
  endfacet
  facet normal 0 -0.913545 0.406737
    outer loop
      vertex -10 -9.21045 13.7642
      vertex -34 -9.51056 13.0902
      vertex -10 -9.51056 13.0902
    endloop
  endfacet
  facet normal 0 -1 0
    outer loop
      vertex 10 -9.94522 8.95471
      vertex 34 -9.94522 11.0453
      vertex 10 -9.94522 11.0453
    endloop
  endfacet
  facet normal 0 -1 -0
    outer loop
      vertex 34 -9.94522 11.0453
      vertex 10 -9.94522 8.95471
      vertex 34 -9.94522 8.95471
    endloop
  endfacet
  facet normal 0 -1 0
    outer loop
      vertex -34 -9.94522 8.95471
      vertex -10 -9.94522 11.0453
      vertex -34 -9.94522 11.0453
    endloop
  endfacet
  facet normal 0 -1 -0
    outer loop
      vertex -10 -9.94522 11.0453
      vertex -34 -9.94522 8.95471
      vertex -10 -9.94522 8.95471
    endloop
  endfacet
  facet normal 0 -0.913545 -0.406737
    outer loop
      vertex -34 -9.51056 6.90983
      vertex -10 -8.96036 5.67406
      vertex -10 -9.51056 6.90983
    endloop
  endfacet
  facet normal -3.32752e-09 -0.913545 -0.406737
    outer loop
      vertex -10 -8.96036 5.67406
      vertex -34 -9.51056 6.90983
      vertex -34 -8.66025 5
    endloop
  endfacet
  facet normal -0 -0.913545 -0.406737
    outer loop
      vertex 34 -9.51056 6.90983
      vertex 10 -9.51056 6.90983
      vertex 10 -9.21045 6.23577
    endloop
  endfacet
  facet normal -0 0.809017 0.587785
    outer loop
      vertex -34 8.66025 15
      vertex -10 7.86514 16.0944
      vertex -10 8.66025 15
    endloop
  endfacet
  facet normal -9.36641e-09 0.809017 0.587785
    outer loop
      vertex -10 7.86514 16.0944
      vertex -34 8.66025 15
      vertex -34 7.43145 16.6913
    endloop
  endfacet
  facet normal -0 0.809017 0.587785
    outer loop
      vertex 10 8.66025 15
      vertex 10 8.22656 15.5969
      vertex 34 8.66025 15
    endloop
  endfacet
  facet normal 0 0.913545 0.406737
    outer loop
      vertex -10 9.21045 13.7642
      vertex -34 8.66025 15
      vertex -10 8.66025 15
    endloop
  endfacet
  facet normal -1.04579e-08 0.913545 0.406737
    outer loop
      vertex -34 8.66025 15
      vertex -10 9.21045 13.7642
      vertex -34 9.51056 13.0902
    endloop
  endfacet
  facet normal 0 0.913545 0.406737
    outer loop
      vertex 10 8.96036 14.3259
      vertex 10 8.66025 15
      vertex 34 8.66025 15
    endloop
  endfacet
  facet normal 0 0.669131 -0.743145
    outer loop
      vertex -34 5.87785 1.90983
      vertex -10 7.43145 3.30869
      vertex -10 5.87785 1.90983
    endloop
  endfacet
  facet normal 0 0.669131 -0.743145
    outer loop
      vertex -10 7.43145 3.30869
      vertex -34 5.87785 1.90983
      vertex -34 7.43145 3.30869
    endloop
  endfacet
  facet normal 0 0.669131 -0.743145
    outer loop
      vertex 10 5.87785 1.90983
      vertex 34 7.43145 3.30869
      vertex 34 5.87785 1.90983
    endloop
  endfacet
  facet normal 0 0.669131 -0.743145
    outer loop
      vertex 34 7.43145 3.30869
      vertex 10 5.87785 1.90983
      vertex 10 7.43145 3.30869
    endloop
  endfacet
  facet normal 0 0.309017 -0.951057
    outer loop
      vertex -34 2.07912 0.218524
      vertex -10 4.06737 0.864545
      vertex -10 2.07912 0.218524
    endloop
  endfacet
  facet normal 0 0.309017 -0.951057
    outer loop
      vertex -10 4.06737 0.864545
      vertex -34 2.07912 0.218524
      vertex -34 4.06737 0.864545
    endloop
  endfacet
  facet normal 0 0.309017 -0.951057
    outer loop
      vertex 10 2.07912 0.218524
      vertex 34 4.06737 0.864545
      vertex 34 2.07912 0.218524
    endloop
  endfacet
  facet normal 0 0.309017 -0.951057
    outer loop
      vertex 34 4.06737 0.864545
      vertex 10 2.07912 0.218524
      vertex 10 4.06737 0.864545
    endloop
  endfacet
  facet normal 1.16782e-08 0.809017 -0.587785
    outer loop
      vertex -10 8.22656 4.40307
      vertex -34 8.66025 5
      vertex -10 8.66025 5
    endloop
  endfacet
  facet normal 1.16782e-08 0.809017 -0.587785
    outer loop
      vertex 34 8.66025 5
      vertex 10 7.86514 3.90563
      vertex 10 8.66025 5
    endloop
  endfacet
  facet normal 1.52055e-08 0.809017 -0.587785
    outer loop
      vertex 10 7.86514 3.90563
      vertex 34 8.66025 5
      vertex 34 7.43145 3.30869
    endloop
  endfacet
  facet normal 0 -0.309017 0.951057
    outer loop
      vertex -34 -2.07912 19.7815
      vertex -10 -4.06737 19.1355
      vertex -10 -2.07912 19.7815
    endloop
  endfacet
  facet normal 0 -0.309017 0.951057
    outer loop
      vertex -10 -4.06737 19.1355
      vertex -34 -2.07912 19.7815
      vertex -34 -4.06737 19.1355
    endloop
  endfacet
  facet normal 0 -0.309017 0.951057
    outer loop
      vertex 10 -2.07912 19.7815
      vertex 34 -4.06737 19.1355
      vertex 34 -2.07912 19.7815
    endloop
  endfacet
  facet normal 0 -0.309017 0.951057
    outer loop
      vertex 34 -4.06737 19.1355
      vertex 10 -2.07912 19.7815
      vertex 10 -4.06737 19.1355
    endloop
  endfacet
  facet normal 0 -0.669131 0.743145
    outer loop
      vertex 10 -5.87785 18.0902
      vertex 34 -7.43145 16.6913
      vertex 34 -5.87785 18.0902
    endloop
  endfacet
  facet normal 0 -0.669131 0.743145
    outer loop
      vertex 34 -7.43145 16.6913
      vertex 10 -5.87785 18.0902
      vertex 10 -7.43145 16.6913
    endloop
  endfacet
  facet normal 0 -0.669131 0.743145
    outer loop
      vertex -34 -5.87785 18.0902
      vertex -10 -7.43145 16.6913
      vertex -10 -5.87785 18.0902
    endloop
  endfacet
  facet normal 0 -0.669131 0.743145
    outer loop
      vertex -10 -7.43145 16.6913
      vertex -34 -5.87785 18.0902
      vertex -34 -7.43145 16.6913
    endloop
  endfacet
  facet normal 0 -0.5 0.866026
    outer loop
      vertex -34 -4.06737 19.1355
      vertex -10 -5.87785 18.0902
      vertex -10 -4.06737 19.1355
    endloop
  endfacet
  facet normal 0 -0.5 0.866026
    outer loop
      vertex -10 -5.87785 18.0902
      vertex -34 -4.06737 19.1355
      vertex -34 -5.87785 18.0902
    endloop
  endfacet
  facet normal 0 -0.5 0.866026
    outer loop
      vertex 10 -4.06737 19.1355
      vertex 34 -5.87785 18.0902
      vertex 34 -4.06737 19.1355
    endloop
  endfacet
  facet normal 0 -0.5 0.866026
    outer loop
      vertex 34 -5.87785 18.0902
      vertex 10 -4.06737 19.1355
      vertex 10 -5.87785 18.0902
    endloop
  endfacet
  facet normal 0 -0.978148 -0.207911
    outer loop
      vertex -34 -9.51056 6.90983
      vertex -10 -9.94522 8.95471
      vertex -34 -9.94522 8.95471
    endloop
  endfacet
  facet normal 0 -0.978148 -0.207911
    outer loop
      vertex -10 -9.94522 8.95471
      vertex -34 -9.51056 6.90983
      vertex -10 -9.51056 6.90983
    endloop
  endfacet
  facet normal 0 -0.978148 -0.207911
    outer loop
      vertex 10 -9.51056 6.90983
      vertex 34 -9.94522 8.95471
      vertex 10 -9.94522 8.95471
    endloop
  endfacet
  facet normal 0 -0.978148 -0.207911
    outer loop
      vertex 34 -9.94522 8.95471
      vertex 10 -9.51056 6.90983
      vertex 34 -9.51056 6.90983
    endloop
  endfacet
  facet normal 1 0 0
    outer loop
      vertex 34 9.51056 13.0902
      vertex 34 9.94522 8.95471
      vertex 34 9.94522 11.0453
    endloop
  endfacet
  facet normal 1 0 0
    outer loop
      vertex 34 9.51056 13.0902
      vertex 34 9.51056 6.90983
      vertex 34 9.94522 8.95471
    endloop
  endfacet
  facet normal 1 0 0
    outer loop
      vertex 34 8.66025 15
      vertex 34 9.51056 6.90983
      vertex 34 9.51056 13.0902
    endloop
  endfacet
  facet normal 1 0 0
    outer loop
      vertex 34 8.66025 15
      vertex 34 8.66025 5
      vertex 34 9.51056 6.90983
    endloop
  endfacet
  facet normal 1 0 0
    outer loop
      vertex 34 7.43145 16.6913
      vertex 34 8.66025 5
      vertex 34 8.66025 15
    endloop
  endfacet
  facet normal 1 0 0
    outer loop
      vertex 34 7.43145 16.6913
      vertex 34 7.43145 3.30869
      vertex 34 8.66025 5
    endloop
  endfacet
  facet normal 1 0 0
    outer loop
      vertex 34 5.87785 18.0902
      vertex 34 7.43145 3.30869
      vertex 34 7.43145 16.6913
    endloop
  endfacet
  facet normal 1 0 0
    outer loop
      vertex 34 5.87785 18.0902
      vertex 34 5.87785 1.90983
      vertex 34 7.43145 3.30869
    endloop
  endfacet
  facet normal 1 0 0
    outer loop
      vertex 34 4.06737 19.1355
      vertex 34 5.87785 1.90983
      vertex 34 5.87785 18.0902
    endloop
  endfacet
  facet normal 1 0 0
    outer loop
      vertex 34 4.06737 19.1355
      vertex 34 4.06737 0.864545
      vertex 34 5.87785 1.90983
    endloop
  endfacet
  facet normal 1 0 0
    outer loop
      vertex 34 2.07912 19.7815
      vertex 34 4.06737 0.864545
      vertex 34 4.06737 19.1355
    endloop
  endfacet
  facet normal 1 0 0
    outer loop
      vertex 34 2.07912 19.7815
      vertex 34 2.07912 0.218524
      vertex 34 4.06737 0.864545
    endloop
  endfacet
  facet normal 1 0 0
    outer loop
      vertex 34 0 20
      vertex 34 2.07912 0.218524
      vertex 34 2.07912 19.7815
    endloop
  endfacet
  facet normal 1 0 0
    outer loop
      vertex 34 0 20
      vertex 34 0 0
      vertex 34 2.07912 0.218524
    endloop
  endfacet
  facet normal 1 -0 0
    outer loop
      vertex 34 -2.07912 19.7815
      vertex 34 0 0
      vertex 34 0 20
    endloop
  endfacet
  facet normal 1 0 0
    outer loop
      vertex 34 -2.07912 19.7815
      vertex 34 -2.07912 0.218524
      vertex 34 0 0
    endloop
  endfacet
  facet normal 1 -0 0
    outer loop
      vertex 34 -4.06737 19.1355
      vertex 34 -2.07912 0.218524
      vertex 34 -2.07912 19.7815
    endloop
  endfacet
  facet normal 1 0 0
    outer loop
      vertex 34 -4.06737 19.1355
      vertex 34 -4.06737 0.864545
      vertex 34 -2.07912 0.218524
    endloop
  endfacet
  facet normal 1 -0 0
    outer loop
      vertex 34 -5.87785 18.0902
      vertex 34 -4.06737 0.864545
      vertex 34 -4.06737 19.1355
    endloop
  endfacet
  facet normal 1 0 0
    outer loop
      vertex 34 -5.87785 18.0902
      vertex 34 -5.87785 1.90983
      vertex 34 -4.06737 0.864545
    endloop
  endfacet
  facet normal 1 -0 0
    outer loop
      vertex 34 -7.43145 16.6913
      vertex 34 -5.87785 1.90983
      vertex 34 -5.87785 18.0902
    endloop
  endfacet
  facet normal 1 0 0
    outer loop
      vertex 34 -7.43145 16.6913
      vertex 34 -7.43145 3.30869
      vertex 34 -5.87785 1.90983
    endloop
  endfacet
  facet normal 1 -0 0
    outer loop
      vertex 34 -8.66025 15
      vertex 34 -7.43145 3.30869
      vertex 34 -7.43145 16.6913
    endloop
  endfacet
  facet normal 1 0 0
    outer loop
      vertex 34 -8.66025 15
      vertex 34 -8.66025 5
      vertex 34 -7.43145 3.30869
    endloop
  endfacet
  facet normal 1 -0 0
    outer loop
      vertex 34 -9.51056 13.0902
      vertex 34 -8.66025 5
      vertex 34 -8.66025 15
    endloop
  endfacet
  facet normal 1 0 0
    outer loop
      vertex 34 -9.51056 13.0902
      vertex 34 -9.51056 6.90983
      vertex 34 -8.66025 5
    endloop
  endfacet
  facet normal 1 -0 0
    outer loop
      vertex 34 -9.94522 11.0453
      vertex 34 -9.51056 6.90983
      vertex 34 -9.51056 13.0902
    endloop
  endfacet
  facet normal 1 0 0
    outer loop
      vertex 34 -9.51056 6.90983
      vertex 34 -9.94522 11.0453
      vertex 34 -9.94522 8.95471
    endloop
  endfacet
  facet normal 2.3768e-09 -0.913545 -0.406737
    outer loop
      vertex 10 -9.21045 6.23577
      vertex 34 -8.66025 5
      vertex 34 -9.51056 6.90983
    endloop
  endfacet
  facet normal 8.08113e-09 -0.913545 -0.406737
    outer loop
      vertex 34 -8.66025 5
      vertex 10 -9.21045 6.23577
      vertex 10 -8.66025 5
    endloop
  endfacet
  facet normal 8.08114e-09 -0.913545 -0.406737
    outer loop
      vertex -10 -8.96036 5.67406
      vertex -34 -8.66025 5
      vertex -10 -8.66025 5
    endloop
  endfacet
  facet normal 1.16782e-08 -0.809017 -0.587785
    outer loop
      vertex 10 -7.86514 3.90563
      vertex 34 -8.66025 5
      vertex 10 -8.66025 5
    endloop
  endfacet
  facet normal 1.52055e-08 -0.809017 -0.587785
    outer loop
      vertex 34 -8.66025 5
      vertex 10 -7.86514 3.90563
      vertex 34 -7.43145 3.30869
    endloop
  endfacet
  facet normal 1.16782e-08 -0.809017 -0.587785
    outer loop
      vertex -10 -8.66025 5
      vertex -34 -8.66025 5
      vertex -10 -8.22656 4.40307
    endloop
  endfacet
  facet normal 0 -0.309017 -0.951057
    outer loop
      vertex -34 -4.06737 0.864545
      vertex -10 -2.07912 0.218524
      vertex -10 -4.06737 0.864545
    endloop
  endfacet
  facet normal -0 -0.309017 -0.951057
    outer loop
      vertex -10 -2.07912 0.218524
      vertex -34 -4.06737 0.864545
      vertex -34 -2.07912 0.218524
    endloop
  endfacet
  facet normal 0 -0.309017 -0.951057
    outer loop
      vertex 10 -4.06737 0.864545
      vertex 34 -2.07912 0.218524
      vertex 34 -4.06737 0.864545
    endloop
  endfacet
  facet normal -0 -0.309017 -0.951057
    outer loop
      vertex 34 -2.07912 0.218524
      vertex 10 -4.06737 0.864545
      vertex 10 -2.07912 0.218524
    endloop
  endfacet
  facet normal 0 -0.5 -0.866026
    outer loop
      vertex -34 -5.87785 1.90983
      vertex -10 -4.06737 0.864545
      vertex -10 -5.87785 1.90983
    endloop
  endfacet
  facet normal -0 -0.5 -0.866026
    outer loop
      vertex -10 -4.06737 0.864545
      vertex -34 -5.87785 1.90983
      vertex -34 -4.06737 0.864545
    endloop
  endfacet
  facet normal 0 -0.5 -0.866026
    outer loop
      vertex 10 -5.87785 1.90983
      vertex 34 -4.06737 0.864545
      vertex 34 -5.87785 1.90983
    endloop
  endfacet
  facet normal -0 -0.5 -0.866026
    outer loop
      vertex 34 -4.06737 0.864545
      vertex 10 -5.87785 1.90983
      vertex 10 -4.06737 0.864545
    endloop
  endfacet
  facet normal -0 0.309017 0.951057
    outer loop
      vertex 10 4.06737 19.1355
      vertex 34 2.07912 19.7815
      vertex 34 4.06737 19.1355
    endloop
  endfacet
  facet normal 0 0.309017 0.951057
    outer loop
      vertex 34 2.07912 19.7815
      vertex 10 4.06737 19.1355
      vertex 10 2.07912 19.7815
    endloop
  endfacet
  facet normal -0 0.309017 0.951057
    outer loop
      vertex -34 4.06737 19.1355
      vertex -10 2.07912 19.7815
      vertex -10 4.06737 19.1355
    endloop
  endfacet
  facet normal 0 0.309017 0.951057
    outer loop
      vertex -10 2.07912 19.7815
      vertex -34 4.06737 19.1355
      vertex -34 2.07912 19.7815
    endloop
  endfacet
  facet normal 0 0.104528 0.994522
    outer loop
      vertex 10 0.733806 19.9229
      vertex 10 0 20
      vertex 34 0 20
    endloop
  endfacet
  facet normal 3.70109e-08 0.104529 0.994522
    outer loop
      vertex -34 0 20
      vertex -10 1.34531 19.8586
      vertex -34 2.07912 19.7815
    endloop
  endfacet
  facet normal 0 0.10453 0.994522
    outer loop
      vertex -10 1.34531 19.8586
      vertex -34 0 20
      vertex -10 0 20
    endloop
  endfacet
  facet normal -0 0.669131 0.743145
    outer loop
      vertex -34 7.43145 16.6913
      vertex -10 5.87785 18.0902
      vertex -10 7.43145 16.6913
    endloop
  endfacet
  facet normal 0 0.669131 0.743145
    outer loop
      vertex -10 5.87785 18.0902
      vertex -34 7.43145 16.6913
      vertex -34 5.87785 18.0902
    endloop
  endfacet
  facet normal -0 0.669131 0.743145
    outer loop
      vertex 10 7.43145 16.6913
      vertex 34 5.87785 18.0902
      vertex 34 7.43145 16.6913
    endloop
  endfacet
  facet normal 0 0.669131 0.743145
    outer loop
      vertex 34 5.87785 18.0902
      vertex 10 7.43145 16.6913
      vertex 10 5.87785 18.0902
    endloop
  endfacet
  facet normal 0 0.809017 0.587786
    outer loop
      vertex 34 7.43145 16.6913
      vertex 10 8.22656 15.5969
      vertex 10 7.43145 16.6913
    endloop
  endfacet
  facet normal 1.49508e-08 0.809017 0.587785
    outer loop
      vertex 10 8.22656 15.5969
      vertex 34 7.43145 16.6913
      vertex 34 8.66025 15
    endloop
  endfacet
  facet normal 0 0.809017 0.587785
    outer loop
      vertex -10 7.86514 16.0944
      vertex -34 7.43145 16.6913
      vertex -10 7.43145 16.6913
    endloop
  endfacet
  facet normal -4.75361e-09 0.913545 0.406737
    outer loop
      vertex 34 9.51056 13.0902
      vertex 10 8.96036 14.3259
      vertex 34 8.66025 15
    endloop
  endfacet
  facet normal 0 0.913545 0.406737
    outer loop
      vertex 10 8.96036 14.3259
      vertex 34 9.51056 13.0902
      vertex 10 9.51056 13.0902
    endloop
  endfacet
  facet normal 0 0.913545 0.406737
    outer loop
      vertex -10 9.51056 13.0902
      vertex -34 9.51056 13.0902
      vertex -10 9.21045 13.7642
    endloop
  endfacet
  facet normal 0 0.978148 0.207911
    outer loop
      vertex -10 9.94522 11.0453
      vertex -34 9.51056 13.0902
      vertex -10 9.51056 13.0902
    endloop
  endfacet
  facet normal 0 0.978148 0.207911
    outer loop
      vertex -34 9.51056 13.0902
      vertex -10 9.94522 11.0453
      vertex -34 9.94522 11.0453
    endloop
  endfacet
  facet normal 0 0.978148 0.207911
    outer loop
      vertex 34 9.94522 11.0453
      vertex 10 9.51056 13.0902
      vertex 34 9.51056 13.0902
    endloop
  endfacet
  facet normal 0 0.978148 0.207911
    outer loop
      vertex 10 9.51056 13.0902
      vertex 34 9.94522 11.0453
      vertex 10 9.94522 11.0453
    endloop
  endfacet
  facet normal 0 0.5 -0.866026
    outer loop
      vertex -34 4.06737 0.864545
      vertex -10 5.87785 1.90983
      vertex -10 4.06737 0.864545
    endloop
  endfacet
  facet normal 0 0.5 -0.866026
    outer loop
      vertex -10 5.87785 1.90983
      vertex -34 4.06737 0.864545
      vertex -34 5.87785 1.90983
    endloop
  endfacet
  facet normal 0 0.5 -0.866026
    outer loop
      vertex 10 4.06737 0.864545
      vertex 34 5.87785 1.90983
      vertex 34 4.06737 0.864545
    endloop
  endfacet
  facet normal 0 0.5 -0.866026
    outer loop
      vertex 34 5.87785 1.90983
      vertex 10 4.06737 0.864545
      vertex 10 5.87785 1.90983
    endloop
  endfacet
  facet normal 0 -0.809017 0.587785
    outer loop
      vertex 10 -8.22656 15.5969
      vertex 10 -8.66025 15
      vertex 34 -8.66025 15
    endloop
  endfacet
  facet normal -9.36641e-09 -0.809017 0.587785
    outer loop
      vertex -34 -8.66025 15
      vertex -10 -7.86514 16.0944
      vertex -34 -7.43145 16.6913
    endloop
  endfacet
  facet normal 0 -0.809017 0.587785
    outer loop
      vertex -10 -7.86514 16.0944
      vertex -34 -8.66025 15
      vertex -10 -8.66025 15
    endloop
  endfacet
  facet normal 0 -0.809017 0.587786
    outer loop
      vertex 10 -8.22656 15.5969
      vertex 34 -7.43145 16.6913
      vertex 10 -7.43145 16.6913
    endloop
  endfacet
  facet normal 1.49508e-08 -0.809017 0.587785
    outer loop
      vertex 34 -7.43145 16.6913
      vertex 10 -8.22656 15.5969
      vertex 34 -8.66025 15
    endloop
  endfacet
  facet normal 0 -0.809017 0.587785
    outer loop
      vertex -10 -7.43145 16.6913
      vertex -34 -7.43145 16.6913
      vertex -10 -7.86514 16.0944
    endloop
  endfacet
  facet normal -1.49508e-08 -0.809017 -0.587785
    outer loop
      vertex -34 -7.43145 3.30869
      vertex -10 -8.22656 4.40307
      vertex -34 -8.66025 5
    endloop
  endfacet
  facet normal 0 -0.809017 -0.587786
    outer loop
      vertex -10 -8.22656 4.40307
      vertex -34 -7.43145 3.30869
      vertex -10 -7.43145 3.30869
    endloop
  endfacet
  facet normal -0 -0.809017 -0.587786
    outer loop
      vertex 34 -7.43145 3.30869
      vertex 10 -7.86514 3.90563
      vertex 10 -7.43145 3.30869
    endloop
  endfacet
  facet normal 0 0.10453 0.994522
    outer loop
      vertex 10 0.733806 19.9229
      vertex 34 2.07912 19.7815
      vertex 10 2.07912 19.7815
    endloop
  endfacet
  facet normal 3.72705e-08 0.104529 0.994522
    outer loop
      vertex 34 2.07912 19.7815
      vertex 10 0.733806 19.9229
      vertex 34 0 20
    endloop
  endfacet
  facet normal 0 0.104528 0.994522
    outer loop
      vertex -10 2.07912 19.7815
      vertex -34 2.07912 19.7815
      vertex -10 1.34531 19.8586
    endloop
  endfacet
  facet normal 0 -0.913545 0.406737
    outer loop
      vertex 10 -8.66025 15
      vertex 10 -8.96036 14.3259
      vertex 34 -8.66025 15
    endloop
  endfacet
  facet normal 0 -0.913545 0.406737
    outer loop
      vertex -34 -8.66025 15
      vertex -10 -9.21045 13.7642
      vertex -10 -8.66025 15
    endloop
  endfacet
  facet normal -1.04579e-08 -0.913545 0.406737
    outer loop
      vertex -10 -9.21045 13.7642
      vertex -34 -8.66025 15
      vertex -34 -9.51056 13.0902
    endloop
  endfacet
  facet normal -0.980785 -0.195091 0
    outer loop
      vertex 5 0 15
      vertex 4.6194 1.91342 20
      vertex 4.6194 1.91342 15
    endloop
  endfacet
  facet normal -0.980785 -0.195091 0
    outer loop
      vertex 4.6194 1.91342 20
      vertex 5 0 15
      vertex 5 0 20
    endloop
  endfacet
  facet normal 0.980785 -0.195091 0
    outer loop
      vertex -5 0 20
      vertex -4.6194 1.91342 15
      vertex -4.6194 1.91342 20
    endloop
  endfacet
  facet normal 0.980785 -0.195091 0
    outer loop
      vertex -4.6194 1.91342 15
      vertex -5 0 20
      vertex -5 0 15
    endloop
  endfacet
  facet normal -0.195091 -0.980785 0
    outer loop
      vertex 0 5 15
      vertex 1.91342 4.6194 20
      vertex 0 5 20
    endloop
  endfacet
  facet normal -0.195091 -0.980785 -0
    outer loop
      vertex 1.91342 4.6194 20
      vertex 0 5 15
      vertex 1.91342 4.6194 15
    endloop
  endfacet
  facet normal -0.83147 -0.55557 0
    outer loop
      vertex 4.6194 1.91342 15
      vertex 3.53553 3.53553 20
      vertex 3.53553 3.53553 15
    endloop
  endfacet
  facet normal -0.83147 -0.55557 0
    outer loop
      vertex 3.53553 3.53553 20
      vertex 4.6194 1.91342 15
      vertex 4.6194 1.91342 20
    endloop
  endfacet
  facet normal -0.195091 0.980785 0
    outer loop
      vertex 1.91342 -4.6194 15
      vertex 0 -5 20
      vertex 1.91342 -4.6194 20
    endloop
  endfacet
  facet normal -0.195091 0.980785 0
    outer loop
      vertex 0 -5 20
      vertex 1.91342 -4.6194 15
      vertex 0 -5 15
    endloop
  endfacet
  facet normal 0.195091 0.980785 -0
    outer loop
      vertex 0 -5 15
      vertex -1.91342 -4.6194 20
      vertex 0 -5 20
    endloop
  endfacet
  facet normal 0.195091 0.980785 0
    outer loop
      vertex -1.91342 -4.6194 20
      vertex 0 -5 15
      vertex -1.91342 -4.6194 15
    endloop
  endfacet
  facet normal -0.55557 -0.83147 0
    outer loop
      vertex 1.91342 4.6194 15
      vertex 3.53553 3.53553 20
      vertex 1.91342 4.6194 20
    endloop
  endfacet
  facet normal -0.55557 -0.83147 -0
    outer loop
      vertex 3.53553 3.53553 20
      vertex 1.91342 4.6194 15
      vertex 3.53553 3.53553 15
    endloop
  endfacet
  facet normal 0.195091 -0.980785 0
    outer loop
      vertex -1.91342 4.6194 15
      vertex 0 5 20
      vertex -1.91342 4.6194 20
    endloop
  endfacet
  facet normal 0.195091 -0.980785 0
    outer loop
      vertex 0 5 20
      vertex -1.91342 4.6194 15
      vertex 0 5 15
    endloop
  endfacet
  facet normal 0.55557 -0.83147 0
    outer loop
      vertex -3.53553 3.53553 15
      vertex -1.91342 4.6194 20
      vertex -3.53553 3.53553 20
    endloop
  endfacet
  facet normal 0.55557 -0.83147 0
    outer loop
      vertex -1.91342 4.6194 20
      vertex -3.53553 3.53553 15
      vertex -1.91342 4.6194 15
    endloop
  endfacet
  facet normal 0.980785 0.195091 0
    outer loop
      vertex -4.6194 -1.91342 20
      vertex -5 0 15
      vertex -5 0 20
    endloop
  endfacet
  facet normal 0.980785 0.195091 0
    outer loop
      vertex -5 0 15
      vertex -4.6194 -1.91342 20
      vertex -4.6194 -1.91342 15
    endloop
  endfacet
  facet normal 0.55557 0.83147 -0
    outer loop
      vertex -1.91342 -4.6194 15
      vertex -3.53553 -3.53553 20
      vertex -1.91342 -4.6194 20
    endloop
  endfacet
  facet normal 0.55557 0.83147 0
    outer loop
      vertex -3.53553 -3.53553 20
      vertex -1.91342 -4.6194 15
      vertex -3.53553 -3.53553 15
    endloop
  endfacet
  facet normal 0 0 1
    outer loop
      vertex 4.6194 1.91342 15
      vertex 4.6194 -1.91342 15
      vertex 5 0 15
    endloop
  endfacet
  facet normal 0 0 1
    outer loop
      vertex 3.53553 3.53553 15
      vertex 4.6194 -1.91342 15
      vertex 4.6194 1.91342 15
    endloop
  endfacet
  facet normal 0 0 1
    outer loop
      vertex 3.53553 3.53553 15
      vertex 3.53553 -3.53553 15
      vertex 4.6194 -1.91342 15
    endloop
  endfacet
  facet normal 0 0 1
    outer loop
      vertex 1.91342 4.6194 15
      vertex 3.53553 -3.53553 15
      vertex 3.53553 3.53553 15
    endloop
  endfacet
  facet normal 0 0 1
    outer loop
      vertex 1.91342 4.6194 15
      vertex 1.91342 -4.6194 15
      vertex 3.53553 -3.53553 15
    endloop
  endfacet
  facet normal 0 0 1
    outer loop
      vertex 0 5 15
      vertex 1.91342 -4.6194 15
      vertex 1.91342 4.6194 15
    endloop
  endfacet
  facet normal 0 0 1
    outer loop
      vertex 0 5 15
      vertex 0 -5 15
      vertex 1.91342 -4.6194 15
    endloop
  endfacet
  facet normal -0 0 1
    outer loop
      vertex -1.91342 4.6194 15
      vertex 0 -5 15
      vertex 0 5 15
    endloop
  endfacet
  facet normal 0 0 1
    outer loop
      vertex -1.91342 4.6194 15
      vertex -1.91342 -4.6194 15
      vertex 0 -5 15
    endloop
  endfacet
  facet normal -0 0 1
    outer loop
      vertex -3.53553 3.53553 15
      vertex -1.91342 -4.6194 15
      vertex -1.91342 4.6194 15
    endloop
  endfacet
  facet normal 0 0 1
    outer loop
      vertex -3.53553 3.53553 15
      vertex -3.53553 -3.53553 15
      vertex -1.91342 -4.6194 15
    endloop
  endfacet
  facet normal -0 0 1
    outer loop
      vertex -4.6194 1.91342 15
      vertex -3.53553 -3.53553 15
      vertex -3.53553 3.53553 15
    endloop
  endfacet
  facet normal 0 0 1
    outer loop
      vertex -4.6194 1.91342 15
      vertex -4.6194 -1.91342 15
      vertex -3.53553 -3.53553 15
    endloop
  endfacet
  facet normal 0 -0 1
    outer loop
      vertex -4.6194 -1.91342 15
      vertex -4.6194 1.91342 15
      vertex -5 0 15
    endloop
  endfacet
  facet normal 0.83147 0.55557 0
    outer loop
      vertex -3.53553 -3.53553 20
      vertex -4.6194 -1.91342 15
      vertex -4.6194 -1.91342 20
    endloop
  endfacet
  facet normal 0.83147 0.55557 0
    outer loop
      vertex -4.6194 -1.91342 15
      vertex -3.53553 -3.53553 20
      vertex -3.53553 -3.53553 15
    endloop
  endfacet
  facet normal 0.83147 -0.55557 0
    outer loop
      vertex -4.6194 1.91342 20
      vertex -3.53553 3.53553 15
      vertex -3.53553 3.53553 20
    endloop
  endfacet
  facet normal 0.83147 -0.55557 0
    outer loop
      vertex -3.53553 3.53553 15
      vertex -4.6194 1.91342 20
      vertex -4.6194 1.91342 15
    endloop
  endfacet
  facet normal -0.83147 0.55557 0
    outer loop
      vertex 3.53553 -3.53553 15
      vertex 4.6194 -1.91342 20
      vertex 4.6194 -1.91342 15
    endloop
  endfacet
  facet normal -0.83147 0.55557 0
    outer loop
      vertex 4.6194 -1.91342 20
      vertex 3.53553 -3.53553 15
      vertex 3.53553 -3.53553 20
    endloop
  endfacet
  facet normal -0.55557 0.83147 0
    outer loop
      vertex 3.53553 -3.53553 15
      vertex 1.91342 -4.6194 20
      vertex 3.53553 -3.53553 20
    endloop
  endfacet
  facet normal -0.55557 0.83147 0
    outer loop
      vertex 1.91342 -4.6194 20
      vertex 3.53553 -3.53553 15
      vertex 1.91342 -4.6194 15
    endloop
  endfacet
  facet normal -0.980785 0.195091 0
    outer loop
      vertex 4.6194 -1.91342 15
      vertex 5 0 20
      vertex 5 0 15
    endloop
  endfacet
  facet normal -0.980785 0.195091 0
    outer loop
      vertex 5 0 20
      vertex 4.6194 -1.91342 15
      vertex 4.6194 -1.91342 20
    endloop
  endfacet
endsolid OpenSCAD_Model
