solid OpenSCAD_Model
  facet normal -1 -0 0
    outer loop
      vertex -15 -14.9178 13.4321
      vertex -15 -15 0
      vertex -15 -14.9178 16.5679
    endloop
  endfacet
  facet normal -1 -0 0
    outer loop
      vertex -15 -14.2658 10.3647
      vertex -15 -15 0
      vertex -15 -14.9178 13.4321
    endloop
  endfacet
  facet normal -1 -0 0
    outer loop
      vertex -15 -13.4155 8.45491
      vertex -15 -15 0
      vertex -15 -14.2658 10.3647
    endloop
  endfacet
  facet normal -1 -0 0
    outer loop
      vertex -15 -12.9904 7.5
      vertex -15 -15 0
      vertex -15 -13.4155 8.45491
    endloop
  endfacet
  facet normal -1 -0 0
    outer loop
      vertex -15 -12.376 6.65435
      vertex -15 -15 0
      vertex -15 -12.9904 7.5
    endloop
  endfacet
  facet normal -1 -0 0
    outer loop
      vertex -15 -11.1472 4.96304
      vertex -15 -15 0
      vertex -15 -12.376 6.65435
    endloop
  endfacet
  facet normal -1 -0 0
    outer loop
      vertex -15 -8.81678 2.86474
      vertex -15 -15 0
      vertex -15 -11.1472 4.96304
    endloop
  endfacet
  facet normal -1 -0 0
    outer loop
      vertex -15 -6.10105 1.29682
      vertex -15 -15 0
      vertex -15 -8.81678 2.86474
    endloop
  endfacet
  facet normal -1 -0 0
    outer loop
      vertex -15 -3.11868 0.327785
      vertex -15 -15 0
      vertex -15 -6.10105 1.29682
    endloop
  endfacet
  facet normal -1 0 0
    outer loop
      vertex -15 -15 0
      vertex -15 -3.11868 0.327785
      vertex -15 0 0
    endloop
  endfacet
  facet normal -1 0 0
    outer loop
      vertex -15 15 0
      vertex -15 14.9178 13.4321
      vertex -15 15 30
    endloop
  endfacet
  facet normal -1 0 0
    outer loop
      vertex -15 15 0
      vertex -15 14.2658 10.3647
      vertex -15 14.9178 13.4321
    endloop
  endfacet
  facet normal -1 0 0
    outer loop
      vertex -15 15 0
      vertex -15 13.4155 8.45491
      vertex -15 14.2658 10.3647
    endloop
  endfacet
  facet normal -1 0 0
    outer loop
      vertex -15 15 0
      vertex -15 12.9904 7.5
      vertex -15 13.4155 8.45491
    endloop
  endfacet
  facet normal -1 0 0
    outer loop
      vertex -15 15 0
      vertex -15 12.376 6.65435
      vertex -15 12.9904 7.5
    endloop
  endfacet
  facet normal -1 0 0
    outer loop
      vertex -15 15 0
      vertex -15 11.1472 4.96304
      vertex -15 12.376 6.65435
    endloop
  endfacet
  facet normal -1 0 0
    outer loop
      vertex -15 15 0
      vertex -15 8.81678 2.86474
      vertex -15 11.1472 4.96304
    endloop
  endfacet
  facet normal -1 0 0
    outer loop
      vertex -15 15 0
      vertex -15 6.10105 1.29682
      vertex -15 8.81678 2.86474
    endloop
  endfacet
  facet normal -1 0 0
    outer loop
      vertex -15 15 0
      vertex -15 3.11868 0.327785
      vertex -15 6.10105 1.29682
    endloop
  endfacet
  facet normal -1 0 -0
    outer loop
      vertex -15 3.11868 0.327785
      vertex -15 15 0
      vertex -15 0 0
    endloop
  endfacet
  facet normal -1 0 0
    outer loop
      vertex -15 14.9178 16.5679
      vertex -15 15 30
      vertex -15 14.9178 13.4321
    endloop
  endfacet
  facet normal -1 0 0
    outer loop
      vertex -15 14.2658 19.6353
      vertex -15 15 30
      vertex -15 14.9178 16.5679
    endloop
  endfacet
  facet normal -1 0 0
    outer loop
      vertex -15 13.8407 20.5902
      vertex -15 15 30
      vertex -15 14.2658 19.6353
    endloop
  endfacet
  facet normal -1 0 0
    outer loop
      vertex -15 12.9904 22.5
      vertex -15 15 30
      vertex -15 13.8407 20.5902
    endloop
  endfacet
  facet normal -1 0 0
    outer loop
      vertex -15 11.7616 24.1913
      vertex -15 15 30
      vertex -15 12.9904 22.5
    endloop
  endfacet
  facet normal -1 0 0
    outer loop
      vertex -15 11.1472 25.037
      vertex -15 15 30
      vertex -15 11.7616 24.1913
    endloop
  endfacet
  facet normal -1 0 0
    outer loop
      vertex -15 8.81678 27.1353
      vertex -15 15 30
      vertex -15 11.1472 25.037
    endloop
  endfacet
  facet normal -1 0 0
    outer loop
      vertex -15 6.10105 28.7032
      vertex -15 15 30
      vertex -15 8.81678 27.1353
    endloop
  endfacet
  facet normal -1 0 0
    outer loop
      vertex -15 3.11868 29.6722
      vertex -15 15 30
      vertex -15 6.10105 28.7032
    endloop
  endfacet
  facet normal -1 0 0
    outer loop
      vertex -15 2.07912 29.7815
      vertex -15 15 30
      vertex -15 3.11868 29.6722
    endloop
  endfacet
  facet normal -1 -0 0
    outer loop
      vertex -15 15 30
      vertex -15 2.07912 29.7815
      vertex -15 0 30
    endloop
  endfacet
  facet normal -1 0 0
    outer loop
      vertex -15 -15 30
      vertex -15 -2.07912 29.7815
      vertex -15 -3.11868 29.6722
    endloop
  endfacet
  facet normal -1 0 0
    outer loop
      vertex -15 -15 30
      vertex -15 -11.7616 24.1913
      vertex -15 -12.9904 22.5
    endloop
  endfacet
  facet normal -1 0 0
    outer loop
      vertex -15 -2.07912 29.7815
      vertex -15 -15 30
      vertex -15 0 30
    endloop
  endfacet
  facet normal -1 0 0
    outer loop
      vertex -15 -6.10105 28.7032
      vertex -15 -15 30
      vertex -15 -3.11868 29.6722
    endloop
  endfacet
  facet normal -1 0 0
    outer loop
      vertex -15 -8.81678 27.1353
      vertex -15 -15 30
      vertex -15 -6.10105 28.7032
    endloop
  endfacet
  facet normal -1 0 0
    outer loop
      vertex -15 -11.1472 25.037
      vertex -15 -15 30
      vertex -15 -8.81678 27.1353
    endloop
  endfacet
  facet normal -1 0 0
    outer loop
      vertex -15 -11.7616 24.1913
      vertex -15 -15 30
      vertex -15 -11.1472 25.037
    endloop
  endfacet
  facet normal -1 0 0
    outer loop
      vertex -15 -13.8407 20.5902
      vertex -15 -15 30
      vertex -15 -12.9904 22.5
    endloop
  endfacet
  facet normal -1 0 0
    outer loop
      vertex -15 -14.2658 19.6353
      vertex -15 -15 30
      vertex -15 -13.8407 20.5902
    endloop
  endfacet
  facet normal -1 0 0
    outer loop
      vertex -15 -14.9178 16.5679
      vertex -15 -15 30
      vertex -15 -14.2658 19.6353
    endloop
  endfacet
  facet normal -1 0 0
    outer loop
      vertex -15 -15 30
      vertex -15 -14.9178 16.5679
      vertex -15 -15 0
    endloop
  endfacet
  facet normal -0 0 0
    outer loop
      vertex -15 0 30
      vertex -15 -15 30
      vertex -15 15 30
    endloop
  endfacet
  facet normal 0 0 1
    outer loop
      vertex 15 15 30
      vertex 1.25 0 30
      vertex 15 -15 30
    endloop
  endfacet
  facet normal 0 0 1
    outer loop
      vertex 15 15 30
      vertex 0.386271 1.18882 30
      vertex 1.25 0 30
    endloop
  endfacet
  facet normal -0 0 1
    outer loop
      vertex -15 15 30
      vertex 0.386271 1.18882 30
      vertex 15 15 30
    endloop
  endfacet
  facet normal 0 0 1
    outer loop
      vertex -1.01127 0.734731 30
      vertex -15 15 30
      vertex -1.01127 -0.734731 30
    endloop
  endfacet
  facet normal 0 0 1
    outer loop
      vertex 0.386271 1.18882 30
      vertex -15 15 30
      vertex -1.01127 0.734731 30
    endloop
  endfacet
  facet normal -0 0 1
    outer loop
      vertex 0.386271 -1.18882 30
      vertex 15 -15 30
      vertex 1.25 0 30
    endloop
  endfacet
  facet normal 0 0 1
    outer loop
      vertex -15 -15 30
      vertex 0.386271 -1.18882 30
      vertex -1.01127 -0.734731 30
    endloop
  endfacet
  facet normal 0 0 1
    outer loop
      vertex 0.386271 -1.18882 30
      vertex -15 -15 30
      vertex 15 -15 30
    endloop
  endfacet
  facet normal 0 0 1
    outer loop
      vertex -15 -15 30
      vertex -1.01127 -0.734731 30
      vertex -15 15 30
    endloop
  endfacet
  facet normal 1 -0 0
    outer loop
      vertex 15 -15 30
      vertex 15 -1.03956 29.8907
      vertex 15 0 30
    endloop
  endfacet
  facet normal 1 0 0
    outer loop
      vertex 15 -14.9178 16.5679
      vertex 15 -15 30
      vertex 15 -14.9178 13.4321
    endloop
  endfacet
  facet normal 1 0 0
    outer loop
      vertex 15 -14.2658 19.6353
      vertex 15 -15 30
      vertex 15 -14.9178 16.5679
    endloop
  endfacet
  facet normal 1 0 0
    outer loop
      vertex 15 -13.4155 21.5451
      vertex 15 -15 30
      vertex 15 -14.2658 19.6353
    endloop
  endfacet
  facet normal 1 0 0
    outer loop
      vertex 15 -12.9904 22.5
      vertex 15 -15 30
      vertex 15 -13.4155 21.5451
    endloop
  endfacet
  facet normal 1 0 0
    outer loop
      vertex 15 -12.376 23.3457
      vertex 15 -15 30
      vertex 15 -12.9904 22.5
    endloop
  endfacet
  facet normal 1 0 0
    outer loop
      vertex 15 -11.1472 25.037
      vertex 15 -15 30
      vertex 15 -12.376 23.3457
    endloop
  endfacet
  facet normal 1 0 0
    outer loop
      vertex 15 -8.81678 27.1353
      vertex 15 -15 30
      vertex 15 -11.1472 25.037
    endloop
  endfacet
  facet normal 1 0 0
    outer loop
      vertex 15 -6.10105 28.7032
      vertex 15 -15 30
      vertex 15 -8.81678 27.1353
    endloop
  endfacet
  facet normal 1 0 0
    outer loop
      vertex 15 -3.11868 29.6722
      vertex 15 -15 30
      vertex 15 -6.10105 28.7032
    endloop
  endfacet
  facet normal 1 0 0
    outer loop
      vertex 15 -1.03956 29.8907
      vertex 15 -15 30
      vertex 15 -3.11868 29.6722
    endloop
  endfacet
  facet normal 1 0 0
    outer loop
      vertex 15 15 30
      vertex 15 14.9178 16.5679
      vertex 15 15 0
    endloop
  endfacet
  facet normal 1 0 0
    outer loop
      vertex 15 15 30
      vertex 15 14.2658 19.6353
      vertex 15 14.9178 16.5679
    endloop
  endfacet
  facet normal 1 0 0
    outer loop
      vertex 15 15 30
      vertex 15 13.4155 21.5451
      vertex 15 14.2658 19.6353
    endloop
  endfacet
  facet normal 1 0 0
    outer loop
      vertex 15 15 30
      vertex 15 12.9904 22.5
      vertex 15 13.4155 21.5451
    endloop
  endfacet
  facet normal 1 0 0
    outer loop
      vertex 15 15 30
      vertex 15 12.376 23.3457
      vertex 15 12.9904 22.5
    endloop
  endfacet
  facet normal 1 0 0
    outer loop
      vertex 15 15 30
      vertex 15 11.1472 25.037
      vertex 15 12.376 23.3457
    endloop
  endfacet
  facet normal 1 0 0
    outer loop
      vertex 15 15 30
      vertex 15 8.81678 27.1353
      vertex 15 11.1472 25.037
    endloop
  endfacet
  facet normal 1 0 0
    outer loop
      vertex 15 15 30
      vertex 15 6.10105 28.7032
      vertex 15 8.81678 27.1353
    endloop
  endfacet
  facet normal 1 0 0
    outer loop
      vertex 15 15 30
      vertex 15 3.11868 29.6722
      vertex 15 6.10105 28.7032
    endloop
  endfacet
  facet normal 1 0 0
    outer loop
      vertex 15 15 30
      vertex 15 1.03956 29.8907
      vertex 15 3.11868 29.6722
    endloop
  endfacet
  facet normal 1 0 -0
    outer loop
      vertex 15 1.03956 29.8907
      vertex 15 15 30
      vertex 15 0 30
    endloop
  endfacet
  facet normal 1 -0 0
    outer loop
      vertex 15 14.9178 13.4321
      vertex 15 15 0
      vertex 15 14.9178 16.5679
    endloop
  endfacet
  facet normal 1 -0 0
    outer loop
      vertex 15 14.2658 10.3647
      vertex 15 15 0
      vertex 15 14.9178 13.4321
    endloop
  endfacet
  facet normal 1 -0 0
    outer loop
      vertex 15 13.8407 9.40983
      vertex 15 15 0
      vertex 15 14.2658 10.3647
    endloop
  endfacet
  facet normal 1 -0 0
    outer loop
      vertex 15 12.9904 7.5
      vertex 15 15 0
      vertex 15 13.8407 9.40983
    endloop
  endfacet
  facet normal 1 -0 0
    outer loop
      vertex 15 11.7616 5.80869
      vertex 15 15 0
      vertex 15 12.9904 7.5
    endloop
  endfacet
  facet normal 1 -0 0
    outer loop
      vertex 15 11.1472 4.96304
      vertex 15 15 0
      vertex 15 11.7616 5.80869
    endloop
  endfacet
  facet normal 1 -0 0
    outer loop
      vertex 15 8.81678 2.86474
      vertex 15 15 0
      vertex 15 11.1472 4.96304
    endloop
  endfacet
  facet normal 1 -0 0
    outer loop
      vertex 15 6.10105 1.29682
      vertex 15 15 0
      vertex 15 8.81678 2.86474
    endloop
  endfacet
  facet normal 1 -0 0
    outer loop
      vertex 15 3.11868 0.327785
      vertex 15 15 0
      vertex 15 6.10105 1.29682
    endloop
  endfacet
  facet normal 1 0 0
    outer loop
      vertex 15 15 0
      vertex 15 3.11868 0.327785
      vertex 15 0 0
    endloop
  endfacet
  facet normal 1 0 0
    outer loop
      vertex 15 -15 0
      vertex 15 -11.7616 5.80869
      vertex 15 -12.9904 7.5
    endloop
  endfacet
  facet normal 1 0 0
    outer loop
      vertex 15 -3.11868 0.327785
      vertex 15 -15 0
      vertex 15 0 0
    endloop
  endfacet
  facet normal 1 0 0
    outer loop
      vertex 15 -6.10105 1.29682
      vertex 15 -15 0
      vertex 15 -3.11868 0.327785
    endloop
  endfacet
  facet normal 1 0 0
    outer loop
      vertex 15 -8.81678 2.86474
      vertex 15 -15 0
      vertex 15 -6.10105 1.29682
    endloop
  endfacet
  facet normal 1 0 0
    outer loop
      vertex 15 -11.1472 4.96304
      vertex 15 -15 0
      vertex 15 -8.81678 2.86474
    endloop
  endfacet
  facet normal 1 0 0
    outer loop
      vertex 15 -11.7616 5.80869
      vertex 15 -15 0
      vertex 15 -11.1472 4.96304
    endloop
  endfacet
  facet normal 1 0 0
    outer loop
      vertex 15 -13.8407 9.40983
      vertex 15 -15 0
      vertex 15 -12.9904 7.5
    endloop
  endfacet
  facet normal 1 0 0
    outer loop
      vertex 15 -14.2658 10.3647
      vertex 15 -15 0
      vertex 15 -13.8407 9.40983
    endloop
  endfacet
  facet normal 1 0 0
    outer loop
      vertex 15 -14.9178 13.4321
      vertex 15 -15 0
      vertex 15 -14.2658 10.3647
    endloop
  endfacet
  facet normal 1 0 0
    outer loop
      vertex 15 -15 0
      vertex 15 -14.9178 13.4321
      vertex 15 -15 30
    endloop
  endfacet
  facet normal 0 0 -0
    outer loop
      vertex 15 0 30
      vertex 15 15 30
      vertex 15 -15 30
    endloop
  endfacet
  facet normal 0 1 -0
    outer loop
      vertex 15 15 0
      vertex -15 15 30
      vertex 15 15 30
    endloop
  endfacet
  facet normal 0 1 0
    outer loop
      vertex -15 15 30
      vertex 15 15 0
      vertex -15 15 0
    endloop
  endfacet
  facet normal 0 0 -1
    outer loop
      vertex -15 0 0
      vertex 15 0 0
      vertex 15 -15 0
    endloop
  endfacet
  facet normal 0 0 -1
    outer loop
      vertex -15 0 0
      vertex 15 -15 0
      vertex -15 -15 0
    endloop
  endfacet
  facet normal 0 0 -1
    outer loop
      vertex 15 0 0
      vertex -15 0 0
      vertex 15 15 0
    endloop
  endfacet
  facet normal -0 0 -1
    outer loop
      vertex 15 15 0
      vertex -15 0 0
      vertex -15 15 0
    endloop
  endfacet
  facet normal 0 -1 0
    outer loop
      vertex -15 -15 0
      vertex 15 -15 30
      vertex -15 -15 30
    endloop
  endfacet
  facet normal 0 -1 -0
    outer loop
      vertex 15 -15 30
      vertex -15 -15 0
      vertex 15 -15 0
    endloop
  endfacet
  facet normal 0 0.104528 -0.994522
    outer loop
      vertex -45 0 0
      vertex -15 3.11868 0.327785
      vertex -15 0 0
    endloop
  endfacet
  facet normal 0 0.104528 -0.994522
    outer loop
      vertex -15 3.11868 0.327785
      vertex -45 0 0
      vertex -45 3.11868 0.327785
    endloop
  endfacet
  facet normal 0 0.104528 -0.994522
    outer loop
      vertex 15 0 0
      vertex 45 3.11868 0.327785
      vertex 45 0 0
    endloop
  endfacet
  facet normal 0 0.104528 -0.994522
    outer loop
      vertex 45 3.11868 0.327785
      vertex 15 0 0
      vertex 15 3.11868 0.327785
    endloop
  endfacet
  facet normal 0 1 -0
    outer loop
      vertex -15 14.9178 13.4321
      vertex -45 14.9178 16.5679
      vertex -15 14.9178 16.5679
    endloop
  endfacet
  facet normal 0 1 0
    outer loop
      vertex -45 14.9178 16.5679
      vertex -15 14.9178 13.4321
      vertex -45 14.9178 13.4321
    endloop
  endfacet
  facet normal 0 1 -0
    outer loop
      vertex 45 14.9178 13.4321
      vertex 15 14.9178 16.5679
      vertex 45 14.9178 16.5679
    endloop
  endfacet
  facet normal 0 1 0
    outer loop
      vertex 15 14.9178 16.5679
      vertex 45 14.9178 13.4321
      vertex 15 14.9178 13.4321
    endloop
  endfacet
  facet normal 0 0.913545 0.406737
    outer loop
      vertex -15 13.8407 20.5902
      vertex -45 12.9904 22.5
      vertex -15 12.9904 22.5
    endloop
  endfacet
  facet normal -8.61987e-09 0.913545 0.406737
    outer loop
      vertex -45 12.9904 22.5
      vertex -15 13.8407 20.5902
      vertex -45 14.2658 19.6353
    endloop
  endfacet
  facet normal 0 0.913545 0.406737
    outer loop
      vertex 15 13.4155 21.5451
      vertex 15 12.9904 22.5
      vertex 45 12.9904 22.5
    endloop
  endfacet
  facet normal 0 -0.104529 0.994522
    outer loop
      vertex 15 0 30
      vertex 15 -1.03956 29.8907
      vertex 45 0 30
    endloop
  endfacet
  facet normal 0 -0.104529 0.994522
    outer loop
      vertex -45 0 30
      vertex -15 -2.07912 29.7815
      vertex -15 0 30
    endloop
  endfacet
  facet normal 4.21533e-08 -0.104528 0.994522
    outer loop
      vertex -15 -2.07912 29.7815
      vertex -45 0 30
      vertex -45 -3.11868 29.6722
    endloop
  endfacet
  facet normal 6.46491e-09 0.913545 -0.406737
    outer loop
      vertex -15 12.9904 7.5
      vertex -45 12.9904 7.5
      vertex -15 13.4155 8.45491
    endloop
  endfacet
  facet normal 4.30994e-09 0.913545 -0.406737
    outer loop
      vertex 45 12.9904 7.5
      vertex 15 13.8407 9.40983
      vertex 45 14.2658 10.3647
    endloop
  endfacet
  facet normal 6.46491e-09 0.913545 -0.406737
    outer loop
      vertex 15 13.8407 9.40983
      vertex 45 12.9904 7.5
      vertex 15 12.9904 7.5
    endloop
  endfacet
  facet normal 0 0.809017 -0.587785
    outer loop
      vertex -45 11.1472 4.96304
      vertex -15 12.376 6.65435
      vertex -15 11.1472 4.96304
    endloop
  endfacet
  facet normal -3.1142e-09 0.809017 -0.587785
    outer loop
      vertex -15 12.376 6.65435
      vertex -45 11.1472 4.96304
      vertex -45 12.9904 7.5
    endloop
  endfacet
  facet normal 0 0.809017 -0.587785
    outer loop
      vertex 45 11.1472 4.96304
      vertex 15 11.1472 4.96304
      vertex 15 11.7616 5.80869
    endloop
  endfacet
  facet normal -1 0 0
    outer loop
      vertex -45 14.2658 10.3647
      vertex -45 14.9178 16.5679
      vertex -45 14.9178 13.4321
    endloop
  endfacet
  facet normal -1 0 0
    outer loop
      vertex -45 14.2658 10.3647
      vertex -45 14.2658 19.6353
      vertex -45 14.9178 16.5679
    endloop
  endfacet
  facet normal -1 0 0
    outer loop
      vertex -45 12.9904 7.5
      vertex -45 14.2658 19.6353
      vertex -45 14.2658 10.3647
    endloop
  endfacet
  facet normal -1 0 0
    outer loop
      vertex -45 12.9904 7.5
      vertex -45 12.9904 22.5
      vertex -45 14.2658 19.6353
    endloop
  endfacet
  facet normal -1 0 0
    outer loop
      vertex -45 11.1472 4.96304
      vertex -45 12.9904 22.5
      vertex -45 12.9904 7.5
    endloop
  endfacet
  facet normal -1 0 0
    outer loop
      vertex -45 11.1472 4.96304
      vertex -45 11.1472 25.037
      vertex -45 12.9904 22.5
    endloop
  endfacet
  facet normal -1 0 0
    outer loop
      vertex -45 8.81678 2.86474
      vertex -45 11.1472 25.037
      vertex -45 11.1472 4.96304
    endloop
  endfacet
  facet normal -1 0 0
    outer loop
      vertex -45 8.81678 2.86474
      vertex -45 8.81678 27.1353
      vertex -45 11.1472 25.037
    endloop
  endfacet
  facet normal -1 0 0
    outer loop
      vertex -45 6.10105 1.29682
      vertex -45 8.81678 27.1353
      vertex -45 8.81678 2.86474
    endloop
  endfacet
  facet normal -1 0 0
    outer loop
      vertex -45 6.10105 1.29682
      vertex -45 6.10105 28.7032
      vertex -45 8.81678 27.1353
    endloop
  endfacet
  facet normal -1 0 0
    outer loop
      vertex -45 3.11868 0.327785
      vertex -45 6.10105 28.7032
      vertex -45 6.10105 1.29682
    endloop
  endfacet
  facet normal -1 0 0
    outer loop
      vertex -45 3.11868 0.327785
      vertex -45 3.11868 29.6722
      vertex -45 6.10105 28.7032
    endloop
  endfacet
  facet normal -1 0 0
    outer loop
      vertex -45 0 0
      vertex -45 3.11868 29.6722
      vertex -45 3.11868 0.327785
    endloop
  endfacet
  facet normal -1 0 0
    outer loop
      vertex -45 0 0
      vertex -45 0 30
      vertex -45 3.11868 29.6722
    endloop
  endfacet
  facet normal -1 0 0
    outer loop
      vertex -45 -3.11868 0.327785
      vertex -45 0 30
      vertex -45 0 0
    endloop
  endfacet
  facet normal -1 0 0
    outer loop
      vertex -45 -3.11868 0.327785
      vertex -45 -3.11868 29.6722
      vertex -45 0 30
    endloop
  endfacet
  facet normal -1 0 0
    outer loop
      vertex -45 -6.10105 1.29682
      vertex -45 -3.11868 29.6722
      vertex -45 -3.11868 0.327785
    endloop
  endfacet
  facet normal -1 0 0
    outer loop
      vertex -45 -6.10105 1.29682
      vertex -45 -6.10105 28.7032
      vertex -45 -3.11868 29.6722
    endloop
  endfacet
  facet normal -1 0 0
    outer loop
      vertex -45 -8.81678 2.86474
      vertex -45 -6.10105 28.7032
      vertex -45 -6.10105 1.29682
    endloop
  endfacet
  facet normal -1 0 0
    outer loop
      vertex -45 -8.81678 2.86474
      vertex -45 -8.81678 27.1353
      vertex -45 -6.10105 28.7032
    endloop
  endfacet
  facet normal -1 0 0
    outer loop
      vertex -45 -11.1472 4.96304
      vertex -45 -8.81678 27.1353
      vertex -45 -8.81678 2.86474
    endloop
  endfacet
  facet normal -1 0 0
    outer loop
      vertex -45 -11.1472 4.96304
      vertex -45 -11.1472 25.037
      vertex -45 -8.81678 27.1353
    endloop
  endfacet
  facet normal -1 0 0
    outer loop
      vertex -45 -12.9904 7.5
      vertex -45 -11.1472 25.037
      vertex -45 -11.1472 4.96304
    endloop
  endfacet
  facet normal -1 0 0
    outer loop
      vertex -45 -12.9904 7.5
      vertex -45 -12.9904 22.5
      vertex -45 -11.1472 25.037
    endloop
  endfacet
  facet normal -1 0 0
    outer loop
      vertex -45 -14.2658 10.3647
      vertex -45 -12.9904 22.5
      vertex -45 -12.9904 7.5
    endloop
  endfacet
  facet normal -1 0 0
    outer loop
      vertex -45 -14.2658 10.3647
      vertex -45 -14.2658 19.6353
      vertex -45 -12.9904 22.5
    endloop
  endfacet
  facet normal -1 0 0
    outer loop
      vertex -45 -14.9178 13.4321
      vertex -45 -14.2658 19.6353
      vertex -45 -14.2658 10.3647
    endloop
  endfacet
  facet normal -1 0 0
    outer loop
      vertex -45 -14.2658 19.6353
      vertex -45 -14.9178 13.4321
      vertex -45 -14.9178 16.5679
    endloop
  endfacet
  facet normal 0 0.913545 -0.406737
    outer loop
      vertex -15 13.4155 8.45491
      vertex -45 14.2658 10.3647
      vertex -15 14.2658 10.3647
    endloop
  endfacet
  facet normal 0 0.913545 -0.406737
    outer loop
      vertex -45 14.2658 10.3647
      vertex -15 13.4155 8.45491
      vertex -45 12.9904 7.5
    endloop
  endfacet
  facet normal 0 0.913545 -0.406737
    outer loop
      vertex 45 14.2658 10.3647
      vertex 15 13.8407 9.40983
      vertex 15 14.2658 10.3647
    endloop
  endfacet
  facet normal 0 0.978148 -0.207912
    outer loop
      vertex -15 14.2658 10.3647
      vertex -45 14.9178 13.4321
      vertex -15 14.9178 13.4321
    endloop
  endfacet
  facet normal 0 0.978148 -0.207912
    outer loop
      vertex -45 14.9178 13.4321
      vertex -15 14.2658 10.3647
      vertex -45 14.2658 10.3647
    endloop
  endfacet
  facet normal 0 0.978148 -0.207912
    outer loop
      vertex 45 14.2658 10.3647
      vertex 15 14.9178 13.4321
      vertex 45 14.9178 13.4321
    endloop
  endfacet
  facet normal 0 0.978148 -0.207912
    outer loop
      vertex 15 14.9178 13.4321
      vertex 45 14.2658 10.3647
      vertex 15 14.2658 10.3647
    endloop
  endfacet
  facet normal 0 -0.104528 -0.994522
    outer loop
      vertex 15 -3.11868 0.327785
      vertex 45 0 0
      vertex 45 -3.11868 0.327785
    endloop
  endfacet
  facet normal -0 -0.104528 -0.994522
    outer loop
      vertex 45 0 0
      vertex 15 -3.11868 0.327785
      vertex 15 0 0
    endloop
  endfacet
  facet normal 0 -0.104528 -0.994522
    outer loop
      vertex -45 -3.11868 0.327785
      vertex -15 0 0
      vertex -15 -3.11868 0.327785
    endloop
  endfacet
  facet normal -0 -0.104528 -0.994522
    outer loop
      vertex -15 0 0
      vertex -45 -3.11868 0.327785
      vertex -45 0 0
    endloop
  endfacet
  facet normal 0 -0.978148 0.207912
    outer loop
      vertex 15 -14.9178 16.5679
      vertex 45 -14.2658 19.6353
      vertex 15 -14.2658 19.6353
    endloop
  endfacet
  facet normal 0 -0.978148 0.207912
    outer loop
      vertex 45 -14.2658 19.6353
      vertex 15 -14.9178 16.5679
      vertex 45 -14.9178 16.5679
    endloop
  endfacet
  facet normal 0 -0.978148 0.207912
    outer loop
      vertex -45 -14.9178 16.5679
      vertex -15 -14.2658 19.6353
      vertex -45 -14.2658 19.6353
    endloop
  endfacet
  facet normal 0 -0.978148 0.207912
    outer loop
      vertex -15 -14.2658 19.6353
      vertex -45 -14.9178 16.5679
      vertex -15 -14.9178 16.5679
    endloop
  endfacet
  facet normal -2.10767e-08 -0.104528 0.994522
    outer loop
      vertex 15 -1.03956 29.8907
      vertex 45 -3.11868 29.6722
      vertex 45 0 30
    endloop
  endfacet
  facet normal 0 -0.104528 0.994522
    outer loop
      vertex 45 -3.11868 29.6722
      vertex 15 -1.03956 29.8907
      vertex 15 -3.11868 29.6722
    endloop
  endfacet
  facet normal 0 -0.104527 0.994522
    outer loop
      vertex -15 -2.07912 29.7815
      vertex -45 -3.11868 29.6722
      vertex -15 -3.11868 29.6722
    endloop
  endfacet
  facet normal 0 -0.809017 0.587785
    outer loop
      vertex 15 -12.376 23.3457
      vertex 45 -11.1472 25.037
      vertex 15 -11.1472 25.037
    endloop
  endfacet
  facet normal 1.24568e-08 -0.809017 0.587785
    outer loop
      vertex 45 -11.1472 25.037
      vertex 15 -12.376 23.3457
      vertex 45 -12.9904 22.5
    endloop
  endfacet
  facet normal 0 -0.809017 0.587785
    outer loop
      vertex -15 -11.1472 25.037
      vertex -45 -11.1472 25.037
      vertex -15 -11.7616 24.1913
    endloop
  endfacet
  facet normal 0 -1 0
    outer loop
      vertex 15 -14.9178 13.4321
      vertex 45 -14.9178 16.5679
      vertex 15 -14.9178 16.5679
    endloop
  endfacet
  facet normal 0 -1 -0
    outer loop
      vertex 45 -14.9178 16.5679
      vertex 15 -14.9178 13.4321
      vertex 45 -14.9178 13.4321
    endloop
  endfacet
  facet normal 0 -1 0
    outer loop
      vertex -45 -14.9178 13.4321
      vertex -15 -14.9178 16.5679
      vertex -45 -14.9178 16.5679
    endloop
  endfacet
  facet normal 0 -1 -0
    outer loop
      vertex -15 -14.9178 16.5679
      vertex -45 -14.9178 13.4321
      vertex -15 -14.9178 13.4321
    endloop
  endfacet
  facet normal 0 -0.5 -0.866025
    outer loop
      vertex -45 -8.81678 2.86474
      vertex -15 -6.10105 1.29682
      vertex -15 -8.81678 2.86474
    endloop
  endfacet
  facet normal -0 -0.5 -0.866025
    outer loop
      vertex -15 -6.10105 1.29682
      vertex -45 -8.81678 2.86474
      vertex -45 -6.10105 1.29682
    endloop
  endfacet
  facet normal 0 -0.5 -0.866025
    outer loop
      vertex 15 -8.81678 2.86474
      vertex 45 -6.10105 1.29682
      vertex 45 -8.81678 2.86474
    endloop
  endfacet
  facet normal -0 -0.5 -0.866025
    outer loop
      vertex 45 -6.10105 1.29682
      vertex 15 -8.81678 2.86474
      vertex 15 -6.10105 1.29682
    endloop
  endfacet
  facet normal 0 0.669131 -0.743145
    outer loop
      vertex -45 8.81678 2.86474
      vertex -15 11.1472 4.96304
      vertex -15 8.81678 2.86474
    endloop
  endfacet
  facet normal 0 0.669131 -0.743145
    outer loop
      vertex -15 11.1472 4.96304
      vertex -45 8.81678 2.86474
      vertex -45 11.1472 4.96304
    endloop
  endfacet
  facet normal 0 0.669131 -0.743145
    outer loop
      vertex 15 8.81678 2.86474
      vertex 45 11.1472 4.96304
      vertex 45 8.81678 2.86474
    endloop
  endfacet
  facet normal 0 0.669131 -0.743145
    outer loop
      vertex 45 11.1472 4.96304
      vertex 15 8.81678 2.86474
      vertex 15 11.1472 4.96304
    endloop
  endfacet
  facet normal 0 0.309017 -0.951057
    outer loop
      vertex -45 3.11868 0.327785
      vertex -15 6.10105 1.29682
      vertex -15 3.11868 0.327785
    endloop
  endfacet
  facet normal 0 0.309017 -0.951057
    outer loop
      vertex -15 6.10105 1.29682
      vertex -45 3.11868 0.327785
      vertex -45 6.10105 1.29682
    endloop
  endfacet
  facet normal 0 0.309017 -0.951057
    outer loop
      vertex 15 3.11868 0.327785
      vertex 45 6.10105 1.29682
      vertex 45 3.11868 0.327785
    endloop
  endfacet
  facet normal 0 0.309017 -0.951057
    outer loop
      vertex 45 6.10105 1.29682
      vertex 15 3.11868 0.327785
      vertex 15 6.10105 1.29682
    endloop
  endfacet
  facet normal 9.34259e-09 0.809017 -0.587785
    outer loop
      vertex -15 12.376 6.65435
      vertex -45 12.9904 7.5
      vertex -15 12.9904 7.5
    endloop
  endfacet
  facet normal 9.34259e-09 0.809017 -0.587785
    outer loop
      vertex 45 12.9904 7.5
      vertex 15 11.7616 5.80869
      vertex 15 12.9904 7.5
    endloop
  endfacet
  facet normal 3.1142e-09 0.809017 -0.587785
    outer loop
      vertex 15 11.7616 5.80869
      vertex 45 12.9904 7.5
      vertex 45 11.1472 4.96304
    endloop
  endfacet
  facet normal 0 -0.309017 0.951057
    outer loop
      vertex -45 -3.11868 29.6722
      vertex -15 -6.10105 28.7032
      vertex -15 -3.11868 29.6722
    endloop
  endfacet
  facet normal 0 -0.309017 0.951057
    outer loop
      vertex -15 -6.10105 28.7032
      vertex -45 -3.11868 29.6722
      vertex -45 -6.10105 28.7032
    endloop
  endfacet
  facet normal 0 -0.309017 0.951057
    outer loop
      vertex 15 -3.11868 29.6722
      vertex 45 -6.10105 28.7032
      vertex 45 -3.11868 29.6722
    endloop
  endfacet
  facet normal 0 -0.309017 0.951057
    outer loop
      vertex 45 -6.10105 28.7032
      vertex 15 -3.11868 29.6722
      vertex 15 -6.10105 28.7032
    endloop
  endfacet
  facet normal 0 -0.5 0.866025
    outer loop
      vertex -45 -6.10105 28.7032
      vertex -15 -8.81678 27.1353
      vertex -15 -6.10105 28.7032
    endloop
  endfacet
  facet normal 0 -0.5 0.866025
    outer loop
      vertex -15 -8.81678 27.1353
      vertex -45 -6.10105 28.7032
      vertex -45 -8.81678 27.1353
    endloop
  endfacet
  facet normal 0 -0.5 0.866025
    outer loop
      vertex 15 -6.10105 28.7032
      vertex 45 -8.81678 27.1353
      vertex 45 -6.10105 28.7032
    endloop
  endfacet
  facet normal 0 -0.5 0.866025
    outer loop
      vertex 45 -8.81678 27.1353
      vertex 15 -6.10105 28.7032
      vertex 15 -8.81678 27.1353
    endloop
  endfacet
  facet normal 0 -0.978148 -0.207912
    outer loop
      vertex -45 -14.2658 10.3647
      vertex -15 -14.9178 13.4321
      vertex -45 -14.9178 13.4321
    endloop
  endfacet
  facet normal 0 -0.978148 -0.207912
    outer loop
      vertex -15 -14.9178 13.4321
      vertex -45 -14.2658 10.3647
      vertex -15 -14.2658 10.3647
    endloop
  endfacet
  facet normal 0 -0.978148 -0.207912
    outer loop
      vertex 15 -14.2658 10.3647
      vertex 45 -14.9178 13.4321
      vertex 15 -14.9178 13.4321
    endloop
  endfacet
  facet normal 0 -0.978148 -0.207912
    outer loop
      vertex 45 -14.9178 13.4321
      vertex 15 -14.2658 10.3647
      vertex 45 -14.2658 10.3647
    endloop
  endfacet
  facet normal 1 0 0
    outer loop
      vertex 45 14.2658 19.6353
      vertex 45 14.9178 13.4321
      vertex 45 14.9178 16.5679
    endloop
  endfacet
  facet normal 1 0 0
    outer loop
      vertex 45 14.2658 19.6353
      vertex 45 14.2658 10.3647
      vertex 45 14.9178 13.4321
    endloop
  endfacet
  facet normal 1 0 0
    outer loop
      vertex 45 12.9904 22.5
      vertex 45 14.2658 10.3647
      vertex 45 14.2658 19.6353
    endloop
  endfacet
  facet normal 1 0 0
    outer loop
      vertex 45 12.9904 22.5
      vertex 45 12.9904 7.5
      vertex 45 14.2658 10.3647
    endloop
  endfacet
  facet normal 1 0 0
    outer loop
      vertex 45 11.1472 25.037
      vertex 45 12.9904 7.5
      vertex 45 12.9904 22.5
    endloop
  endfacet
  facet normal 1 0 0
    outer loop
      vertex 45 11.1472 25.037
      vertex 45 11.1472 4.96304
      vertex 45 12.9904 7.5
    endloop
  endfacet
  facet normal 1 0 0
    outer loop
      vertex 45 8.81678 27.1353
      vertex 45 11.1472 4.96304
      vertex 45 11.1472 25.037
    endloop
  endfacet
  facet normal 1 0 0
    outer loop
      vertex 45 8.81678 27.1353
      vertex 45 8.81678 2.86474
      vertex 45 11.1472 4.96304
    endloop
  endfacet
  facet normal 1 0 0
    outer loop
      vertex 45 6.10105 28.7032
      vertex 45 8.81678 2.86474
      vertex 45 8.81678 27.1353
    endloop
  endfacet
  facet normal 1 0 0
    outer loop
      vertex 45 6.10105 28.7032
      vertex 45 6.10105 1.29682
      vertex 45 8.81678 2.86474
    endloop
  endfacet
  facet normal 1 0 0
    outer loop
      vertex 45 3.11868 29.6722
      vertex 45 6.10105 1.29682
      vertex 45 6.10105 28.7032
    endloop
  endfacet
  facet normal 1 0 0
    outer loop
      vertex 45 3.11868 29.6722
      vertex 45 3.11868 0.327785
      vertex 45 6.10105 1.29682
    endloop
  endfacet
  facet normal 1 0 0
    outer loop
      vertex 45 0 30
      vertex 45 3.11868 0.327785
      vertex 45 3.11868 29.6722
    endloop
  endfacet
  facet normal 1 0 0
    outer loop
      vertex 45 0 30
      vertex 45 0 0
      vertex 45 3.11868 0.327785
    endloop
  endfacet
  facet normal 1 -0 0
    outer loop
      vertex 45 -3.11868 29.6722
      vertex 45 0 0
      vertex 45 0 30
    endloop
  endfacet
  facet normal 1 0 0
    outer loop
      vertex 45 -3.11868 29.6722
      vertex 45 -3.11868 0.327785
      vertex 45 0 0
    endloop
  endfacet
  facet normal 1 -0 0
    outer loop
      vertex 45 -6.10105 28.7032
      vertex 45 -3.11868 0.327785
      vertex 45 -3.11868 29.6722
    endloop
  endfacet
  facet normal 1 0 0
    outer loop
      vertex 45 -6.10105 28.7032
      vertex 45 -6.10105 1.29682
      vertex 45 -3.11868 0.327785
    endloop
  endfacet
  facet normal 1 -0 0
    outer loop
      vertex 45 -8.81678 27.1353
      vertex 45 -6.10105 1.29682
      vertex 45 -6.10105 28.7032
    endloop
  endfacet
  facet normal 1 0 0
    outer loop
      vertex 45 -8.81678 27.1353
      vertex 45 -8.81678 2.86474
      vertex 45 -6.10105 1.29682
    endloop
  endfacet
  facet normal 1 -0 0
    outer loop
      vertex 45 -11.1472 25.037
      vertex 45 -8.81678 2.86474
      vertex 45 -8.81678 27.1353
    endloop
  endfacet
  facet normal 1 0 0
    outer loop
      vertex 45 -11.1472 25.037
      vertex 45 -11.1472 4.96304
      vertex 45 -8.81678 2.86474
    endloop
  endfacet
  facet normal 1 -0 0
    outer loop
      vertex 45 -12.9904 22.5
      vertex 45 -11.1472 4.96304
      vertex 45 -11.1472 25.037
    endloop
  endfacet
  facet normal 1 0 0
    outer loop
      vertex 45 -12.9904 22.5
      vertex 45 -12.9904 7.5
      vertex 45 -11.1472 4.96304
    endloop
  endfacet
  facet normal 1 -0 0
    outer loop
      vertex 45 -14.2658 19.6353
      vertex 45 -12.9904 7.5
      vertex 45 -12.9904 22.5
    endloop
  endfacet
  facet normal 1 0 0
    outer loop
      vertex 45 -14.2658 19.6353
      vertex 45 -14.2658 10.3647
      vertex 45 -12.9904 7.5
    endloop
  endfacet
  facet normal 1 -0 0
    outer loop
      vertex 45 -14.9178 16.5679
      vertex 45 -14.2658 10.3647
      vertex 45 -14.2658 19.6353
    endloop
  endfacet
  facet normal 1 0 0
    outer loop
      vertex 45 -14.2658 10.3647
      vertex 45 -14.9178 16.5679
      vertex 45 -14.9178 13.4321
    endloop
  endfacet
  facet normal -3.1142e-09 -0.809017 -0.587785
    outer loop
      vertex -45 -11.1472 4.96304
      vertex -15 -12.376 6.65435
      vertex -45 -12.9904 7.5
    endloop
  endfacet
  facet normal 0 -0.809017 -0.587785
    outer loop
      vertex -15 -12.376 6.65435
      vertex -45 -11.1472 4.96304
      vertex -15 -11.1472 4.96304
    endloop
  endfacet
  facet normal -0 -0.809017 -0.587785
    outer loop
      vertex 45 -11.1472 4.96304
      vertex 15 -11.7616 5.80869
      vertex 15 -11.1472 4.96304
    endloop
  endfacet
  facet normal 0 -0.669131 -0.743145
    outer loop
      vertex -45 -11.1472 4.96304
      vertex -15 -8.81678 2.86474
      vertex -15 -11.1472 4.96304
    endloop
  endfacet
  facet normal -0 -0.669131 -0.743145
    outer loop
      vertex -15 -8.81678 2.86474
      vertex -45 -11.1472 4.96304
      vertex -45 -8.81678 2.86474
    endloop
  endfacet
  facet normal 0 -0.669131 -0.743145
    outer loop
      vertex 15 -11.1472 4.96304
      vertex 45 -8.81678 2.86474
      vertex 45 -11.1472 4.96304
    endloop
  endfacet
  facet normal -0 -0.669131 -0.743145
    outer loop
      vertex 45 -8.81678 2.86474
      vertex 15 -11.1472 4.96304
      vertex 15 -8.81678 2.86474
    endloop
  endfacet
  facet normal 4.30994e-09 -0.913545 -0.406737
    outer loop
      vertex 15 -13.8407 9.40983
      vertex 45 -12.9904 7.5
      vertex 45 -14.2658 10.3647
    endloop
  endfacet
  facet normal 6.46491e-09 -0.913545 -0.406737
    outer loop
      vertex 45 -12.9904 7.5
      vertex 15 -13.8407 9.40983
      vertex 15 -12.9904 7.5
    endloop
  endfacet
  facet normal 6.46491e-09 -0.913545 -0.406737
    outer loop
      vertex -15 -13.4155 8.45491
      vertex -45 -12.9904 7.5
      vertex -15 -12.9904 7.5
    endloop
  endfacet
  facet normal 0 -0.913545 -0.406737
    outer loop
      vertex -45 -14.2658 10.3647
      vertex -15 -13.4155 8.45491
      vertex -15 -14.2658 10.3647
    endloop
  endfacet
  facet normal 0 -0.913545 -0.406737
    outer loop
      vertex -15 -13.4155 8.45491
      vertex -45 -14.2658 10.3647
      vertex -45 -12.9904 7.5
    endloop
  endfacet
  facet normal -0 -0.913545 -0.406737
    outer loop
      vertex 45 -14.2658 10.3647
      vertex 15 -14.2658 10.3647
      vertex 15 -13.8407 9.40983
    endloop
  endfacet
  facet normal 0 -0.309017 -0.951057
    outer loop
      vertex -45 -6.10105 1.29682
      vertex -15 -3.11868 0.327785
      vertex -15 -6.10105 1.29682
    endloop
  endfacet
  facet normal -0 -0.309017 -0.951057
    outer loop
      vertex -15 -3.11868 0.327785
      vertex -45 -6.10105 1.29682
      vertex -45 -3.11868 0.327785
    endloop
  endfacet
  facet normal 0 -0.309017 -0.951057
    outer loop
      vertex 15 -6.10105 1.29682
      vertex 45 -3.11868 0.327785
      vertex 45 -6.10105 1.29682
    endloop
  endfacet
  facet normal -0 -0.309017 -0.951057
    outer loop
      vertex 45 -3.11868 0.327785
      vertex 15 -6.10105 1.29682
      vertex 15 -3.11868 0.327785
    endloop
  endfacet
  facet normal 0 0.104529 0.994522
    outer loop
      vertex 15 1.03956 29.8907
      vertex 15 0 30
      vertex 45 0 30
    endloop
  endfacet
  facet normal 4.21533e-08 0.104528 0.994522
    outer loop
      vertex -45 0 30
      vertex -15 2.07912 29.7815
      vertex -45 3.11868 29.6722
    endloop
  endfacet
  facet normal 0 0.104529 0.994522
    outer loop
      vertex -15 2.07912 29.7815
      vertex -45 0 30
      vertex -15 0 30
    endloop
  endfacet
  facet normal -0 0.66913 0.743145
    outer loop
      vertex 15 11.1472 25.037
      vertex 45 8.81678 27.1353
      vertex 45 11.1472 25.037
    endloop
  endfacet
  facet normal 0 0.66913 0.743145
    outer loop
      vertex 45 8.81678 27.1353
      vertex 15 11.1472 25.037
      vertex 15 8.81678 27.1353
    endloop
  endfacet
  facet normal -0 0.66913 0.743145
    outer loop
      vertex -45 11.1472 25.037
      vertex -15 8.81678 27.1353
      vertex -15 11.1472 25.037
    endloop
  endfacet
  facet normal 0 0.66913 0.743145
    outer loop
      vertex -15 8.81678 27.1353
      vertex -45 11.1472 25.037
      vertex -45 8.81678 27.1353
    endloop
  endfacet
  facet normal -0 0.809017 0.587785
    outer loop
      vertex -45 12.9904 22.5
      vertex -15 11.7616 24.1913
      vertex -15 12.9904 22.5
    endloop
  endfacet
  facet normal 1.24568e-08 0.809017 0.587785
    outer loop
      vertex -15 11.7616 24.1913
      vertex -45 12.9904 22.5
      vertex -45 11.1472 25.037
    endloop
  endfacet
  facet normal -0 0.809017 0.587785
    outer loop
      vertex 15 12.9904 22.5
      vertex 15 12.376 23.3457
      vertex 45 12.9904 22.5
    endloop
  endfacet
  facet normal 0 0.809017 0.587785
    outer loop
      vertex 45 11.1472 25.037
      vertex 15 12.376 23.3457
      vertex 15 11.1472 25.037
    endloop
  endfacet
  facet normal 1.24568e-08 0.809017 0.587785
    outer loop
      vertex 15 12.376 23.3457
      vertex 45 11.1472 25.037
      vertex 45 12.9904 22.5
    endloop
  endfacet
  facet normal 0 0.809017 0.587785
    outer loop
      vertex -15 11.7616 24.1913
      vertex -45 11.1472 25.037
      vertex -15 11.1472 25.037
    endloop
  endfacet
  facet normal 1.72397e-08 0.913545 0.406737
    outer loop
      vertex 45 14.2658 19.6353
      vertex 15 13.4155 21.5451
      vertex 45 12.9904 22.5
    endloop
  endfacet
  facet normal 0 0.913546 0.406736
    outer loop
      vertex 15 13.4155 21.5451
      vertex 45 14.2658 19.6353
      vertex 15 14.2658 19.6353
    endloop
  endfacet
  facet normal 0 0.913546 0.406736
    outer loop
      vertex -15 14.2658 19.6353
      vertex -45 14.2658 19.6353
      vertex -15 13.8407 20.5902
    endloop
  endfacet
  facet normal 0 0.978148 0.207912
    outer loop
      vertex -15 14.9178 16.5679
      vertex -45 14.2658 19.6353
      vertex -15 14.2658 19.6353
    endloop
  endfacet
  facet normal 0 0.978148 0.207912
    outer loop
      vertex -45 14.2658 19.6353
      vertex -15 14.9178 16.5679
      vertex -45 14.9178 16.5679
    endloop
  endfacet
  facet normal 0 0.978148 0.207912
    outer loop
      vertex 45 14.9178 16.5679
      vertex 15 14.2658 19.6353
      vertex 45 14.2658 19.6353
    endloop
  endfacet
  facet normal 0 0.978148 0.207912
    outer loop
      vertex 15 14.2658 19.6353
      vertex 45 14.9178 16.5679
      vertex 15 14.9178 16.5679
    endloop
  endfacet
  facet normal 0 0.5 -0.866025
    outer loop
      vertex -45 6.10105 1.29682
      vertex -15 8.81678 2.86474
      vertex -15 6.10105 1.29682
    endloop
  endfacet
  facet normal 0 0.5 -0.866025
    outer loop
      vertex -15 8.81678 2.86474
      vertex -45 6.10105 1.29682
      vertex -45 8.81678 2.86474
    endloop
  endfacet
  facet normal 0 0.5 -0.866025
    outer loop
      vertex 15 6.10105 1.29682
      vertex 45 8.81678 2.86474
      vertex 45 6.10105 1.29682
    endloop
  endfacet
  facet normal 0 0.5 -0.866025
    outer loop
      vertex 45 8.81678 2.86474
      vertex 15 6.10105 1.29682
      vertex 15 8.81678 2.86474
    endloop
  endfacet
  facet normal 0 -0.913546 0.406736
    outer loop
      vertex 45 -14.2658 19.6353
      vertex 15 -13.4155 21.5451
      vertex 15 -14.2658 19.6353
    endloop
  endfacet
  facet normal 1.72397e-08 -0.913545 0.406737
    outer loop
      vertex 15 -13.4155 21.5451
      vertex 45 -14.2658 19.6353
      vertex 45 -12.9904 22.5
    endloop
  endfacet
  facet normal 0 -0.913546 0.406736
    outer loop
      vertex -15 -13.8407 20.5902
      vertex -45 -14.2658 19.6353
      vertex -15 -14.2658 19.6353
    endloop
  endfacet
  facet normal 0 -0.66913 0.743145
    outer loop
      vertex 15 -8.81678 27.1353
      vertex 45 -11.1472 25.037
      vertex 45 -8.81678 27.1353
    endloop
  endfacet
  facet normal 0 -0.66913 0.743145
    outer loop
      vertex 45 -11.1472 25.037
      vertex 15 -8.81678 27.1353
      vertex 15 -11.1472 25.037
    endloop
  endfacet
  facet normal 0 -0.66913 0.743145
    outer loop
      vertex -45 -8.81678 27.1353
      vertex -15 -11.1472 25.037
      vertex -15 -8.81678 27.1353
    endloop
  endfacet
  facet normal 0 -0.66913 0.743145
    outer loop
      vertex -15 -11.1472 25.037
      vertex -45 -8.81678 27.1353
      vertex -45 -11.1472 25.037
    endloop
  endfacet
  facet normal 9.34259e-09 -0.809017 -0.587785
    outer loop
      vertex 15 -11.7616 5.80869
      vertex 45 -12.9904 7.5
      vertex 15 -12.9904 7.5
    endloop
  endfacet
  facet normal 3.1142e-09 -0.809017 -0.587785
    outer loop
      vertex 45 -12.9904 7.5
      vertex 15 -11.7616 5.80869
      vertex 45 -11.1472 4.96304
    endloop
  endfacet
  facet normal 9.34259e-09 -0.809017 -0.587785
    outer loop
      vertex -15 -12.9904 7.5
      vertex -45 -12.9904 7.5
      vertex -15 -12.376 6.65435
    endloop
  endfacet
  facet normal 0 0.104528 0.994522
    outer loop
      vertex 15 1.03956 29.8907
      vertex 45 3.11868 29.6722
      vertex 15 3.11868 29.6722
    endloop
  endfacet
  facet normal -2.10767e-08 0.104528 0.994522
    outer loop
      vertex 45 3.11868 29.6722
      vertex 15 1.03956 29.8907
      vertex 45 0 30
    endloop
  endfacet
  facet normal 0 0.104527 0.994522
    outer loop
      vertex -15 3.11868 29.6722
      vertex -45 3.11868 29.6722
      vertex -15 2.07912 29.7815
    endloop
  endfacet
  facet normal -0 0.309017 0.951057
    outer loop
      vertex 15 6.10105 28.7032
      vertex 45 3.11868 29.6722
      vertex 45 6.10105 28.7032
    endloop
  endfacet
  facet normal 0 0.309017 0.951057
    outer loop
      vertex 45 3.11868 29.6722
      vertex 15 6.10105 28.7032
      vertex 15 3.11868 29.6722
    endloop
  endfacet
  facet normal -0 0.309017 0.951057
    outer loop
      vertex -45 6.10105 28.7032
      vertex -15 3.11868 29.6722
      vertex -15 6.10105 28.7032
    endloop
  endfacet
  facet normal 0 0.309017 0.951057
    outer loop
      vertex -15 3.11868 29.6722
      vertex -45 6.10105 28.7032
      vertex -45 3.11868 29.6722
    endloop
  endfacet
  facet normal -0 0.5 0.866025
    outer loop
      vertex 15 8.81678 27.1353
      vertex 45 6.10105 28.7032
      vertex 45 8.81678 27.1353
    endloop
  endfacet
  facet normal 0 0.5 0.866025
    outer loop
      vertex 45 6.10105 28.7032
      vertex 15 8.81678 27.1353
      vertex 15 6.10105 28.7032
    endloop
  endfacet
  facet normal -0 0.5 0.866025
    outer loop
      vertex -45 8.81678 27.1353
      vertex -15 6.10105 28.7032
      vertex -15 8.81678 27.1353
    endloop
  endfacet
  facet normal 0 0.5 0.866025
    outer loop
      vertex -15 6.10105 28.7032
      vertex -45 8.81678 27.1353
      vertex -45 6.10105 28.7032
    endloop
  endfacet
  facet normal 0 -0.913545 0.406737
    outer loop
      vertex -45 -12.9904 22.5
      vertex -15 -13.8407 20.5902
      vertex -15 -12.9904 22.5
    endloop
  endfacet
  facet normal -8.61987e-09 -0.913545 0.406737
    outer loop
      vertex -15 -13.8407 20.5902
      vertex -45 -12.9904 22.5
      vertex -45 -14.2658 19.6353
    endloop
  endfacet
  facet normal 0 -0.913545 0.406737
    outer loop
      vertex 15 -12.9904 22.5
      vertex 15 -13.4155 21.5451
      vertex 45 -12.9904 22.5
    endloop
  endfacet
  facet normal 1.24568e-08 -0.809017 0.587785
    outer loop
      vertex -45 -12.9904 22.5
      vertex -15 -11.7616 24.1913
      vertex -45 -11.1472 25.037
    endloop
  endfacet
  facet normal 0 -0.809017 0.587785
    outer loop
      vertex -15 -11.7616 24.1913
      vertex -45 -12.9904 22.5
      vertex -15 -12.9904 22.5
    endloop
  endfacet
  facet normal 0 -0.809017 0.587785
    outer loop
      vertex 15 -12.376 23.3457
      vertex 15 -12.9904 22.5
      vertex 45 -12.9904 22.5
    endloop
  endfacet
  facet normal -0.809017 -0.587786 0
    outer loop
      vertex 1.25 0 25
      vertex 0.386271 1.18882 30
      vertex 0.386271 1.18882 25
    endloop
  endfacet
  facet normal -0.809017 -0.587786 0
    outer loop
      vertex 0.386271 1.18882 30
      vertex 1.25 0 25
      vertex 1.25 0 30
    endloop
  endfacet
  facet normal 1 -0 0
    outer loop
      vertex -1.01127 -0.734731 30
      vertex -1.01127 0.734731 25
      vertex -1.01127 0.734731 30
    endloop
  endfacet
  facet normal 1 0 0
    outer loop
      vertex -1.01127 0.734731 25
      vertex -1.01127 -0.734731 30
      vertex -1.01127 -0.734731 25
    endloop
  endfacet
  facet normal 0.309017 -0.951056 0
    outer loop
      vertex -1.01127 0.734731 25
      vertex 0.386271 1.18882 30
      vertex -1.01127 0.734731 30
    endloop
  endfacet
  facet normal 0.309017 -0.951056 0
    outer loop
      vertex 0.386271 1.18882 30
      vertex -1.01127 0.734731 25
      vertex 0.386271 1.18882 25
    endloop
  endfacet
  facet normal 0 0 1
    outer loop
      vertex 0.386271 1.18882 25
      vertex 0.386271 -1.18882 25
      vertex 1.25 0 25
    endloop
  endfacet
  facet normal -0 0 1
    outer loop
      vertex -1.01127 0.734731 25
      vertex 0.386271 -1.18882 25
      vertex 0.386271 1.18882 25
    endloop
  endfacet
  facet normal 0 0 1
    outer loop
      vertex 0.386271 -1.18882 25
      vertex -1.01127 0.734731 25
      vertex -1.01127 -0.734731 25
    endloop
  endfacet
  facet normal -0.809017 0.587786 0
    outer loop
      vertex 0.386271 -1.18882 25
      vertex 1.25 0 30
      vertex 1.25 0 25
    endloop
  endfacet
  facet normal -0.809017 0.587786 0
    outer loop
      vertex 1.25 0 30
      vertex 0.386271 -1.18882 25
      vertex 0.386271 -1.18882 30
    endloop
  endfacet
  facet normal 0.309017 0.951056 -0
    outer loop
      vertex 0.386271 -1.18882 25
      vertex -1.01127 -0.734731 30
      vertex 0.386271 -1.18882 30
    endloop
  endfacet
  facet normal 0.309017 0.951056 0
    outer loop
      vertex -1.01127 -0.734731 30
      vertex 0.386271 -1.18882 25
      vertex -1.01127 -0.734731 25
    endloop
  endfacet
endsolid OpenSCAD_Model
