solid OpenSCAD_Model
  facet normal -1 -0 0
    outer loop
      vertex -10 -9.94522 8.95471
      vertex -10 -10 0
      vertex -10 -9.94522 11.0453
    endloop
  endfacet
  facet normal -1 -0 0
    outer loop
      vertex -10 -9.51056 6.90983
      vertex -10 -10 0
      vertex -10 -9.94522 8.95471
    endloop
  endfacet
  facet normal -1 -0 0
    outer loop
      vertex -10 -8.90826 5.55703
      vertex -10 -10 0
      vertex -10 -9.51056 6.90983
    endloop
  endfacet
  facet normal -1 -0 0
    outer loop
      vertex -10 -8.66025 5
      vertex -10 -10 0
      vertex -10 -8.90826 5.55703
    endloop
  endfacet
  facet normal -1 -0 0
    outer loop
      vertex -10 -8.30185 4.5067
      vertex -10 -10 0
      vertex -10 -8.66025 5
    endloop
  endfacet
  facet normal -1 -0 0
    outer loop
      vertex -10 -7.43145 3.30869
      vertex -10 -10 0
      vertex -10 -8.30185 4.5067
    endloop
  endfacet
  facet normal -1 -0 0
    outer loop
      vertex -10 -5.87785 1.90983
      vertex -10 -10 0
      vertex -10 -7.43145 3.30869
    endloop
  endfacet
  facet normal -1 -0 0
    outer loop
      vertex -10 -4.06737 0.864545
      vertex -10 -10 0
      vertex -10 -5.87785 1.90983
    endloop
  endfacet
  facet normal -1 -0 0
    outer loop
      vertex -10 -2.07912 0.218524
      vertex -10 -10 0
      vertex -10 -4.06737 0.864545
    endloop
  endfacet
  facet normal -1 0 0
    outer loop
      vertex -10 -10 0
      vertex -10 -2.07912 0.218524
      vertex -10 0 0
    endloop
  endfacet
  facet normal -1 0 0
    outer loop
      vertex -10 10 0
      vertex -10 9.94522 8.95471
      vertex -10 10 20
    endloop
  endfacet
  facet normal -1 0 0
    outer loop
      vertex -10 10 0
      vertex -10 9.51056 6.90983
      vertex -10 9.94522 8.95471
    endloop
  endfacet
  facet normal -1 0 0
    outer loop
      vertex -10 10 0
      vertex -10 8.90826 5.55703
      vertex -10 9.51056 6.90983
    endloop
  endfacet
  facet normal -1 0 0
    outer loop
      vertex -10 10 0
      vertex -10 8.66025 5
      vertex -10 8.90826 5.55703
    endloop
  endfacet
  facet normal -1 0 0
    outer loop
      vertex -10 10 0
      vertex -10 8.30185 4.5067
      vertex -10 8.66025 5
    endloop
  endfacet
  facet normal -1 0 0
    outer loop
      vertex -10 10 0
      vertex -10 7.43145 3.30869
      vertex -10 8.30185 4.5067
    endloop
  endfacet
  facet normal -1 0 0
    outer loop
      vertex -10 10 0
      vertex -10 5.87785 1.90983
      vertex -10 7.43145 3.30869
    endloop
  endfacet
  facet normal -1 0 0
    outer loop
      vertex -10 10 0
      vertex -10 4.06737 0.864545
      vertex -10 5.87785 1.90983
    endloop
  endfacet
  facet normal -1 0 0
    outer loop
      vertex -10 10 0
      vertex -10 2.07912 0.218524
      vertex -10 4.06737 0.864545
    endloop
  endfacet
  facet normal -1 0 -0
    outer loop
      vertex -10 2.07912 0.218524
      vertex -10 10 0
      vertex -10 0 0
    endloop
  endfacet
  facet normal -1 0 0
    outer loop
      vertex -10 9.94522 11.0453
      vertex -10 10 20
      vertex -10 9.94522 8.95471
    endloop
  endfacet
  facet normal -1 0 0
    outer loop
      vertex -10 9.51056 13.0902
      vertex -10 10 20
      vertex -10 9.94522 11.0453
    endloop
  endfacet
  facet normal -1 0 0
    outer loop
      vertex -10 9.26256 13.6472
      vertex -10 10 20
      vertex -10 9.51056 13.0902
    endloop
  endfacet
  facet normal -1 0 0
    outer loop
      vertex -10 8.66025 15
      vertex -10 10 20
      vertex -10 9.26256 13.6472
    endloop
  endfacet
  facet normal -1 0 0
    outer loop
      vertex -10 7.78985 16.198
      vertex -10 10 20
      vertex -10 8.66025 15
    endloop
  endfacet
  facet normal -1 0 0
    outer loop
      vertex -10 7.43145 16.6913
      vertex -10 10 20
      vertex -10 7.78985 16.198
    endloop
  endfacet
  facet normal -1 0 0
    outer loop
      vertex -10 5.87785 18.0902
      vertex -10 10 20
      vertex -10 7.43145 16.6913
    endloop
  endfacet
  facet normal -1 0 0
    outer loop
      vertex -10 4.06737 19.1355
      vertex -10 10 20
      vertex -10 5.87785 18.0902
    endloop
  endfacet
  facet normal -1 0 0
    outer loop
      vertex -10 2.07912 19.7815
      vertex -10 10 20
      vertex -10 4.06737 19.1355
    endloop
  endfacet
  facet normal -1 0 0
    outer loop
      vertex -10 1.47271 19.8452
      vertex -10 10 20
      vertex -10 2.07912 19.7815
    endloop
  endfacet
  facet normal -1 -0 0
    outer loop
      vertex -10 10 20
      vertex -10 1.47271 19.8452
      vertex -10 0 20
    endloop
  endfacet
  facet normal -1 0 0
    outer loop
      vertex -10 -10 20
      vertex -10 -1.47271 19.8452
      vertex -10 -2.07912 19.7815
    endloop
  endfacet
  facet normal -1 0 0
    outer loop
      vertex -10 -1.47271 19.8452
      vertex -10 -10 20
      vertex -10 0 20
    endloop
  endfacet
  facet normal -1 0 0
    outer loop
      vertex -10 -4.06737 19.1355
      vertex -10 -10 20
      vertex -10 -2.07912 19.7815
    endloop
  endfacet
  facet normal -1 0 0
    outer loop
      vertex -10 -5.87785 18.0902
      vertex -10 -10 20
      vertex -10 -4.06737 19.1355
    endloop
  endfacet
  facet normal -1 0 0
    outer loop
      vertex -10 -7.43145 16.6913
      vertex -10 -10 20
      vertex -10 -5.87785 18.0902
    endloop
  endfacet
  facet normal -1 0 0
    outer loop
      vertex -10 -8.66025 15
      vertex -10 -10 20
      vertex -10 -7.43145 16.6913
    endloop
  endfacet
  facet normal -1 0 0
    outer loop
      vertex -10 -9.51056 13.0902
      vertex -10 -10 20
      vertex -10 -8.66025 15
    endloop
  endfacet
  facet normal -1 0 0
    outer loop
      vertex -10 -9.94522 11.0453
      vertex -10 -10 20
      vertex -10 -9.51056 13.0902
    endloop
  endfacet
  facet normal -1 0 0
    outer loop
      vertex -10 -10 20
      vertex -10 -9.94522 11.0453
      vertex -10 -10 0
    endloop
  endfacet
  facet normal -0 0 0
    outer loop
      vertex -10 0 20
      vertex -10 -10 20
      vertex -10 10 20
    endloop
  endfacet
  facet normal 0 0 1
    outer loop
      vertex 10 10 20
      vertex 2.5 0 20
      vertex 10 -10 20
    endloop
  endfacet
  facet normal 0 0 1
    outer loop
      vertex 10 10 20
      vertex 1.76777 1.76777 20
      vertex 2.5 0 20
    endloop
  endfacet
  facet normal 0 0 1
    outer loop
      vertex 10 10 20
      vertex 0 2.5 20
      vertex 1.76777 1.76777 20
    endloop
  endfacet
  facet normal -0 0 1
    outer loop
      vertex -10 10 20
      vertex 0 2.5 20
      vertex 10 10 20
    endloop
  endfacet
  facet normal 0 0 1
    outer loop
      vertex -1.76777 1.76777 20
      vertex -10 10 20
      vertex -2.5 0 20
    endloop
  endfacet
  facet normal 0 0 1
    outer loop
      vertex 0 2.5 20
      vertex -10 10 20
      vertex -1.76777 1.76777 20
    endloop
  endfacet
  facet normal -0 0 1
    outer loop
      vertex 1.76777 -1.76777 20
      vertex 10 -10 20
      vertex 2.5 0 20
    endloop
  endfacet
  facet normal -0 0 1
    outer loop
      vertex 0 -2.5 20
      vertex 10 -10 20
      vertex 1.76777 -1.76777 20
    endloop
  endfacet
  facet normal 0 0 1
    outer loop
      vertex -10 -10 20
      vertex 0 -2.5 20
      vertex -1.76777 -1.76777 20
    endloop
  endfacet
  facet normal 0 0 1
    outer loop
      vertex -10 -10 20
      vertex -2.5 0 20
      vertex -10 10 20
    endloop
  endfacet
  facet normal 0 0 1
    outer loop
      vertex 0 -2.5 20
      vertex -10 -10 20
      vertex 10 -10 20
    endloop
  endfacet
  facet normal 0 0 1
    outer loop
      vertex -2.5 0 20
      vertex -10 -10 20
      vertex -1.76777 -1.76777 20
    endloop
  endfacet
  facet normal 1 0 0
    outer loop
      vertex 10 -9.94522 11.0453
      vertex 10 -10 20
      vertex 10 -9.94522 8.95471
    endloop
  endfacet
  facet normal 1 0 0
    outer loop
      vertex 10 -9.51056 13.0902
      vertex 10 -10 20
      vertex 10 -9.94522 11.0453
    endloop
  endfacet
  facet normal 1 0 0
    outer loop
      vertex 10 -8.66025 15
      vertex 10 -10 20
      vertex 10 -9.51056 13.0902
    endloop
  endfacet
  facet normal 1 0 0
    outer loop
      vertex 10 -7.43145 16.6913
      vertex 10 -10 20
      vertex 10 -8.66025 15
    endloop
  endfacet
  facet normal 1 0 0
    outer loop
      vertex 10 -5.87785 18.0902
      vertex 10 -10 20
      vertex 10 -7.43145 16.6913
    endloop
  endfacet
  facet normal 1 0 0
    outer loop
      vertex 10 -4.06737 19.1355
      vertex 10 -10 20
      vertex 10 -5.87785 18.0902
    endloop
  endfacet
  facet normal 1 0 0
    outer loop
      vertex 10 -2.07912 19.7815
      vertex 10 -10 20
      vertex 10 -4.06737 19.1355
    endloop
  endfacet
  facet normal 1 0 0
    outer loop
      vertex 10 -0.606409 19.9363
      vertex 10 -10 20
      vertex 10 -2.07912 19.7815
    endloop
  endfacet
  facet normal 1 -0 0
    outer loop
      vertex 10 -10 20
      vertex 10 -0.606409 19.9363
      vertex 10 0 20
    endloop
  endfacet
  facet normal 1 0 0
    outer loop
      vertex 10 10 20
      vertex 10 9.94522 11.0453
      vertex 10 10 0
    endloop
  endfacet
  facet normal 1 0 0
    outer loop
      vertex 10 10 20
      vertex 10 9.51056 13.0902
      vertex 10 9.94522 11.0453
    endloop
  endfacet
  facet normal 1 0 0
    outer loop
      vertex 10 10 20
      vertex 10 8.90826 14.443
      vertex 10 9.51056 13.0902
    endloop
  endfacet
  facet normal 1 0 0
    outer loop
      vertex 10 10 20
      vertex 10 8.66025 15
      vertex 10 8.90826 14.443
    endloop
  endfacet
  facet normal 1 0 0
    outer loop
      vertex 10 10 20
      vertex 10 8.30185 15.4933
      vertex 10 8.66025 15
    endloop
  endfacet
  facet normal 1 0 0
    outer loop
      vertex 10 10 20
      vertex 10 7.43145 16.6913
      vertex 10 8.30185 15.4933
    endloop
  endfacet
  facet normal 1 0 0
    outer loop
      vertex 10 10 20
      vertex 10 5.87785 18.0902
      vertex 10 7.43145 16.6913
    endloop
  endfacet
  facet normal 1 0 0
    outer loop
      vertex 10 10 20
      vertex 10 4.06737 19.1355
      vertex 10 5.87785 18.0902
    endloop
  endfacet
  facet normal 1 0 0
    outer loop
      vertex 10 10 20
      vertex 10 2.07912 19.7815
      vertex 10 4.06737 19.1355
    endloop
  endfacet
  facet normal 1 0 0
    outer loop
      vertex 10 10 20
      vertex 10 0.606409 19.9363
      vertex 10 2.07912 19.7815
    endloop
  endfacet
  facet normal 1 0 -0
    outer loop
      vertex 10 0.606409 19.9363
      vertex 10 10 20
      vertex 10 0 20
    endloop
  endfacet
  facet normal 1 -0 0
    outer loop
      vertex 10 9.94522 8.95471
      vertex 10 10 0
      vertex 10 9.94522 11.0453
    endloop
  endfacet
  facet normal 1 -0 0
    outer loop
      vertex 10 9.51056 6.90983
      vertex 10 10 0
      vertex 10 9.94522 8.95471
    endloop
  endfacet
  facet normal 1 -0 0
    outer loop
      vertex 10 9.26256 6.3528
      vertex 10 10 0
      vertex 10 9.51056 6.90983
    endloop
  endfacet
  facet normal 1 -0 0
    outer loop
      vertex 10 8.66025 5
      vertex 10 10 0
      vertex 10 9.26256 6.3528
    endloop
  endfacet
  facet normal 1 -0 0
    outer loop
      vertex 10 7.78985 3.80199
      vertex 10 10 0
      vertex 10 8.66025 5
    endloop
  endfacet
  facet normal 1 -0 0
    outer loop
      vertex 10 7.43145 3.30869
      vertex 10 10 0
      vertex 10 7.78985 3.80199
    endloop
  endfacet
  facet normal 1 -0 0
    outer loop
      vertex 10 5.87785 1.90983
      vertex 10 10 0
      vertex 10 7.43145 3.30869
    endloop
  endfacet
  facet normal 1 -0 0
    outer loop
      vertex 10 4.06737 0.864545
      vertex 10 10 0
      vertex 10 5.87785 1.90983
    endloop
  endfacet
  facet normal 1 -0 0
    outer loop
      vertex 10 2.07912 0.218524
      vertex 10 10 0
      vertex 10 4.06737 0.864545
    endloop
  endfacet
  facet normal 1 0 0
    outer loop
      vertex 10 10 0
      vertex 10 2.07912 0.218524
      vertex 10 0 0
    endloop
  endfacet
  facet normal 1 0 0
    outer loop
      vertex 10 -10 0
      vertex 10 -9.26256 6.3528
      vertex 10 -9.51056 6.90983
    endloop
  endfacet
  facet normal 1 0 0
    outer loop
      vertex 10 -2.07912 0.218524
      vertex 10 -10 0
      vertex 10 0 0
    endloop
  endfacet
  facet normal 1 0 0
    outer loop
      vertex 10 -4.06737 0.864545
      vertex 10 -10 0
      vertex 10 -2.07912 0.218524
    endloop
  endfacet
  facet normal 1 0 0
    outer loop
      vertex 10 -5.87785 1.90983
      vertex 10 -10 0
      vertex 10 -4.06737 0.864545
    endloop
  endfacet
  facet normal 1 0 0
    outer loop
      vertex 10 -7.43145 3.30869
      vertex 10 -10 0
      vertex 10 -5.87785 1.90983
    endloop
  endfacet
  facet normal 1 0 0
    outer loop
      vertex 10 -7.78985 3.80199
      vertex 10 -10 0
      vertex 10 -7.43145 3.30869
    endloop
  endfacet
  facet normal 1 0 0
    outer loop
      vertex 10 -8.66025 5
      vertex 10 -10 0
      vertex 10 -7.78985 3.80199
    endloop
  endfacet
  facet normal 1 0 0
    outer loop
      vertex 10 -9.26256 6.3528
      vertex 10 -10 0
      vertex 10 -8.66025 5
    endloop
  endfacet
  facet normal 1 0 0
    outer loop
      vertex 10 -9.94522 8.95471
      vertex 10 -10 0
      vertex 10 -9.51056 6.90983
    endloop
  endfacet
  facet normal 1 0 0
    outer loop
      vertex 10 -10 0
      vertex 10 -9.94522 8.95471
      vertex 10 -10 20
    endloop
  endfacet
  facet normal 0 0 -0
    outer loop
      vertex 10 0 20
      vertex 10 10 20
      vertex 10 -10 20
    endloop
  endfacet
  facet normal 0 1 -0
    outer loop
      vertex 10 10 0
      vertex -10 10 20
      vertex 10 10 20
    endloop
  endfacet
  facet normal 0 1 0
    outer loop
      vertex -10 10 20
      vertex 10 10 0
      vertex -10 10 0
    endloop
  endfacet
  facet normal 0 0 -1
    outer loop
      vertex -10 0 0
      vertex 10 0 0
      vertex 10 -10 0
    endloop
  endfacet
  facet normal 0 0 -1
    outer loop
      vertex -10 0 0
      vertex 10 -10 0
      vertex -10 -10 0
    endloop
  endfacet
  facet normal 0 0 -1
    outer loop
      vertex 10 0 0
      vertex -10 0 0
      vertex 10 10 0
    endloop
  endfacet
  facet normal -0 0 -1
    outer loop
      vertex 10 10 0
      vertex -10 0 0
      vertex -10 10 0
    endloop
  endfacet
  facet normal 0 -1 0
    outer loop
      vertex -10 -10 0
      vertex 10 -10 20
      vertex -10 -10 20
    endloop
  endfacet
  facet normal 0 -1 -0
    outer loop
      vertex 10 -10 20
      vertex -10 -10 0
      vertex 10 -10 0
    endloop
  endfacet
  facet normal 1 0 0
    outer loop
      vertex 24 7.43145 16.6913
      vertex 24 0 20
      vertex 24 -7.43145 16.6913
    endloop
  endfacet
  facet normal 0 0.104528 -0.994522
    outer loop
      vertex -24 0 0
      vertex -10 2.07912 0.218524
      vertex -10 0 0
    endloop
  endfacet
  facet normal 0 0.104528 -0.994522
    outer loop
      vertex -10 2.07912 0.218524
      vertex -24 0 0
      vertex -24 2.07912 0.218524
    endloop
  endfacet
  facet normal 0 0.104528 -0.994522
    outer loop
      vertex 10 0 0
      vertex 24 2.07912 0.218524
      vertex 24 0 0
    endloop
  endfacet
  facet normal 0 0.104528 -0.994522
    outer loop
      vertex 24 2.07912 0.218524
      vertex 10 0 0
      vertex 10 2.07912 0.218524
    endloop
  endfacet
  facet normal 0 1 -0
    outer loop
      vertex -10 9.94522 8.95471
      vertex -24 9.94522 11.0453
      vertex -10 9.94522 11.0453
    endloop
  endfacet
  facet normal 0 1 0
    outer loop
      vertex -24 9.94522 11.0453
      vertex -10 9.94522 8.95471
      vertex -24 9.94522 8.95471
    endloop
  endfacet
  facet normal 0 1 -0
    outer loop
      vertex 24 9.94522 8.95471
      vertex 10 9.94522 11.0453
      vertex 24 9.94522 11.0453
    endloop
  endfacet
  facet normal 0 1 0
    outer loop
      vertex 10 9.94522 11.0453
      vertex 24 9.94522 8.95471
      vertex 10 9.94522 8.95471
    endloop
  endfacet
  facet normal 1 0 0
    outer loop
      vertex 24 5.87785 18.0902
      vertex 24 4.06737 19.1355
      vertex 24 7.43145 16.6913
    endloop
  endfacet
  facet normal 1.38534e-08 0.913545 -0.406738
    outer loop
      vertex -10 8.66025 5
      vertex -24 8.66025 5
      vertex -10 8.90826 5.55703
    endloop
  endfacet
  facet normal -1.9589e-08 0.913545 -0.406737
    outer loop
      vertex 24 8.66025 5
      vertex 10 9.26256 6.3528
      vertex 24 9.51056 6.90983
    endloop
  endfacet
  facet normal 1.38534e-08 0.913545 -0.406737
    outer loop
      vertex 10 9.26256 6.3528
      vertex 24 8.66025 5
      vertex 10 8.66025 5
    endloop
  endfacet
  facet normal 0 -0.669131 -0.743145
    outer loop
      vertex 10 -7.43145 3.30869
      vertex 24 -5.87785 1.90983
      vertex 24 -7.43145 3.30869
    endloop
  endfacet
  facet normal -0 -0.669131 -0.743145
    outer loop
      vertex 24 -5.87785 1.90983
      vertex 10 -7.43145 3.30869
      vertex 10 -5.87785 1.90983
    endloop
  endfacet
  facet normal 0 -0.669131 -0.743145
    outer loop
      vertex -24 -7.43145 3.30869
      vertex -10 -5.87785 1.90983
      vertex -10 -7.43145 3.30869
    endloop
  endfacet
  facet normal -0 -0.669131 -0.743145
    outer loop
      vertex -10 -5.87785 1.90983
      vertex -24 -7.43145 3.30869
      vertex -24 -5.87785 1.90983
    endloop
  endfacet
  facet normal 0 -0.104528 0.994522
    outer loop
      vertex 10 0 20
      vertex 10 -0.606409 19.9363
      vertex 24 0 20
    endloop
  endfacet
  facet normal 0 -0.104529 0.994522
    outer loop
      vertex -24 0 20
      vertex -10 -1.47271 19.8452
      vertex -10 0 20
    endloop
  endfacet
  facet normal 3.38732e-08 -0.104529 0.994522
    outer loop
      vertex -10 -1.47271 19.8452
      vertex -24 0 20
      vertex -24 -2.07912 19.7815
    endloop
  endfacet
  facet normal 0 0.809017 -0.587786
    outer loop
      vertex -24 7.43145 3.30869
      vertex -10 8.30185 4.5067
      vertex -10 7.43145 3.30869
    endloop
  endfacet
  facet normal -2.83799e-08 0.809017 -0.587785
    outer loop
      vertex -10 8.30185 4.5067
      vertex -24 7.43145 3.30869
      vertex -24 8.66025 5
    endloop
  endfacet
  facet normal 0 0.809017 -0.587786
    outer loop
      vertex 24 7.43145 3.30869
      vertex 10 7.43145 3.30869
      vertex 10 7.78985 3.80199
    endloop
  endfacet
  facet normal -1 0 0
    outer loop
      vertex -24 2.07912 0.218524
      vertex -24 7.43145 3.30869
      vertex -24 4.06737 0.864545
    endloop
  endfacet
  facet normal -0 0.669131 0.743145
    outer loop
      vertex 10 7.43145 16.6913
      vertex 24 5.87785 18.0902
      vertex 24 7.43145 16.6913
    endloop
  endfacet
  facet normal 0 0.669131 0.743145
    outer loop
      vertex 24 5.87785 18.0902
      vertex 10 7.43145 16.6913
      vertex 10 5.87785 18.0902
    endloop
  endfacet
  facet normal -0 0.669131 0.743145
    outer loop
      vertex -24 7.43145 16.6913
      vertex -10 5.87785 18.0902
      vertex -10 7.43145 16.6913
    endloop
  endfacet
  facet normal 0 0.669131 0.743145
    outer loop
      vertex -10 5.87785 18.0902
      vertex -24 7.43145 16.6913
      vertex -24 5.87785 18.0902
    endloop
  endfacet
  facet normal 1 0 0
    outer loop
      vertex 24 2.07912 19.7815
      vertex 24 0 20
      vertex 24 7.43145 16.6913
    endloop
  endfacet
  facet normal 0 0.913546 -0.406736
    outer loop
      vertex -10 8.90826 5.55703
      vertex -24 9.51056 6.90983
      vertex -10 9.51056 6.90983
    endloop
  endfacet
  facet normal -2.76701e-08 0.913545 -0.406737
    outer loop
      vertex -24 9.51056 6.90983
      vertex -10 8.90826 5.55703
      vertex -24 8.66025 5
    endloop
  endfacet
  facet normal 0 0.913545 -0.406737
    outer loop
      vertex 24 9.51056 6.90983
      vertex 10 9.26256 6.3528
      vertex 10 9.51056 6.90983
    endloop
  endfacet
  facet normal 0 0.978148 -0.207911
    outer loop
      vertex -10 9.51056 6.90983
      vertex -24 9.94522 8.95471
      vertex -10 9.94522 8.95471
    endloop
  endfacet
  facet normal 0 0.978148 -0.207911
    outer loop
      vertex -24 9.94522 8.95471
      vertex -10 9.51056 6.90983
      vertex -24 9.51056 6.90983
    endloop
  endfacet
  facet normal 0 0.978148 -0.207911
    outer loop
      vertex 24 9.51056 6.90983
      vertex 10 9.94522 8.95471
      vertex 24 9.94522 8.95471
    endloop
  endfacet
  facet normal 0 0.978148 -0.207911
    outer loop
      vertex 10 9.94522 8.95471
      vertex 24 9.51056 6.90983
      vertex 10 9.51056 6.90983
    endloop
  endfacet
  facet normal 0 -0.104528 -0.994522
    outer loop
      vertex 10 -2.07912 0.218524
      vertex 24 0 0
      vertex 24 -2.07912 0.218524
    endloop
  endfacet
  facet normal -0 -0.104528 -0.994522
    outer loop
      vertex 24 0 0
      vertex 10 -2.07912 0.218524
      vertex 10 0 0
    endloop
  endfacet
  facet normal 0 -0.104528 -0.994522
    outer loop
      vertex -24 -2.07912 0.218524
      vertex -10 0 0
      vertex -10 -2.07912 0.218524
    endloop
  endfacet
  facet normal -0 -0.104528 -0.994522
    outer loop
      vertex -10 0 0
      vertex -24 -2.07912 0.218524
      vertex -24 0 0
    endloop
  endfacet
  facet normal -0 -0.913545 -0.406737
    outer loop
      vertex 24 -9.51056 6.90983
      vertex 10 -9.51056 6.90983
      vertex 10 -9.26256 6.3528
    endloop
  endfacet
  facet normal 0 -0.913546 -0.406736
    outer loop
      vertex -24 -9.51056 6.90983
      vertex -10 -8.90826 5.55703
      vertex -10 -9.51056 6.90983
    endloop
  endfacet
  facet normal -2.76701e-08 -0.913545 -0.406737
    outer loop
      vertex -10 -8.90826 5.55703
      vertex -24 -9.51056 6.90983
      vertex -24 -8.66025 5
    endloop
  endfacet
  facet normal 1 0 0
    outer loop
      vertex 24 -4.06737 19.1355
      vertex 24 -5.87785 18.0902
      vertex 24 -7.43145 16.6913
    endloop
  endfacet
  facet normal -1 0 0
    outer loop
      vertex -24 4.06737 0.864545
      vertex -24 7.43145 3.30869
      vertex -24 5.87785 1.90983
    endloop
  endfacet
  facet normal 1 0 0
    outer loop
      vertex 24 4.06737 19.1355
      vertex 24 2.07912 19.7815
      vertex 24 7.43145 16.6913
    endloop
  endfacet
  facet normal 2.00198e-08 0.809018 -0.587784
    outer loop
      vertex -10 8.30185 4.5067
      vertex -24 8.66025 5
      vertex -10 8.66025 5
    endloop
  endfacet
  facet normal 2.00198e-08 0.809017 -0.587785
    outer loop
      vertex 24 8.66025 5
      vertex 10 7.78985 3.80199
      vertex 10 8.66025 5
    endloop
  endfacet
  facet normal 2.08632e-08 0.809017 -0.587785
    outer loop
      vertex 10 7.78985 3.80199
      vertex 24 8.66025 5
      vertex 24 7.43145 3.30869
    endloop
  endfacet
  facet normal -0 -0.809017 -0.587786
    outer loop
      vertex 24 -7.43145 3.30869
      vertex 10 -7.78985 3.80199
      vertex 10 -7.43145 3.30869
    endloop
  endfacet
  facet normal -2.83799e-08 -0.809017 -0.587785
    outer loop
      vertex -24 -7.43145 3.30869
      vertex -10 -8.30185 4.5067
      vertex -24 -8.66025 5
    endloop
  endfacet
  facet normal 0 -0.809017 -0.587786
    outer loop
      vertex -10 -8.30185 4.5067
      vertex -24 -7.43145 3.30869
      vertex -10 -7.43145 3.30869
    endloop
  endfacet
  facet normal -1 0 0
    outer loop
      vertex -24 0 0
      vertex -24 7.43145 3.30869
      vertex -24 2.07912 0.218524
    endloop
  endfacet
  facet normal 0 -0.809017 0.587785
    outer loop
      vertex 10 -8.66025 15
      vertex 24 -7.43145 16.6913
      vertex 10 -7.43145 16.6913
    endloop
  endfacet
  facet normal 0 -0.809017 0.587785
    outer loop
      vertex 24 -7.43145 16.6913
      vertex 10 -8.66025 15
      vertex 24 -8.66025 15
    endloop
  endfacet
  facet normal 0 -0.809017 0.587785
    outer loop
      vertex -24 -8.66025 15
      vertex -10 -7.43145 16.6913
      vertex -24 -7.43145 16.6913
    endloop
  endfacet
  facet normal 0 -0.809017 0.587785
    outer loop
      vertex -10 -7.43145 16.6913
      vertex -24 -8.66025 15
      vertex -10 -8.66025 15
    endloop
  endfacet
  facet normal -1.9589e-08 -0.913545 -0.406737
    outer loop
      vertex 10 -9.26256 6.3528
      vertex 24 -8.66025 5
      vertex 24 -9.51056 6.90983
    endloop
  endfacet
  facet normal 1.38534e-08 -0.913545 -0.406737
    outer loop
      vertex 24 -8.66025 5
      vertex 10 -9.26256 6.3528
      vertex 10 -8.66025 5
    endloop
  endfacet
  facet normal 1.38534e-08 -0.913545 -0.406738
    outer loop
      vertex -10 -8.90826 5.55703
      vertex -24 -8.66025 5
      vertex -10 -8.66025 5
    endloop
  endfacet
  facet normal -1 0 0
    outer loop
      vertex -24 0 0
      vertex -24 -7.43145 3.30869
      vertex -24 7.43145 3.30869
    endloop
  endfacet
  facet normal -1 0 0
    outer loop
      vertex -24 -5.87785 1.90983
      vertex -24 -7.43145 3.30869
      vertex -24 -4.06737 0.864545
    endloop
  endfacet
  facet normal 1 0 0
    outer loop
      vertex 24 -2.07912 19.7815
      vertex 24 -4.06737 19.1355
      vertex 24 -7.43145 16.6913
    endloop
  endfacet
  facet normal 1 0 0
    outer loop
      vertex 24 0 20
      vertex 24 -2.07912 19.7815
      vertex 24 -7.43145 16.6913
    endloop
  endfacet
  facet normal 0 -0.5 0.866026
    outer loop
      vertex -24 -4.06737 19.1355
      vertex -10 -5.87785 18.0902
      vertex -10 -4.06737 19.1355
    endloop
  endfacet
  facet normal 0 -0.5 0.866026
    outer loop
      vertex -10 -5.87785 18.0902
      vertex -24 -4.06737 19.1355
      vertex -24 -5.87785 18.0902
    endloop
  endfacet
  facet normal 0 -0.5 0.866026
    outer loop
      vertex 10 -4.06737 19.1355
      vertex 24 -5.87785 18.0902
      vertex 24 -4.06737 19.1355
    endloop
  endfacet
  facet normal 0 -0.5 0.866026
    outer loop
      vertex 24 -5.87785 18.0902
      vertex 10 -4.06737 19.1355
      vertex 10 -5.87785 18.0902
    endloop
  endfacet
  facet normal 0 0.669131 -0.743145
    outer loop
      vertex -24 5.87785 1.90983
      vertex -10 7.43145 3.30869
      vertex -10 5.87785 1.90983
    endloop
  endfacet
  facet normal 0 0.669131 -0.743145
    outer loop
      vertex -10 7.43145 3.30869
      vertex -24 5.87785 1.90983
      vertex -24 7.43145 3.30869
    endloop
  endfacet
  facet normal 0 0.669131 -0.743145
    outer loop
      vertex 10 5.87785 1.90983
      vertex 24 7.43145 3.30869
      vertex 24 5.87785 1.90983
    endloop
  endfacet
  facet normal 0 0.669131 -0.743145
    outer loop
      vertex 24 7.43145 3.30869
      vertex 10 5.87785 1.90983
      vertex 10 7.43145 3.30869
    endloop
  endfacet
  facet normal 0 0.104529 0.994522
    outer loop
      vertex 10 0.606409 19.9363
      vertex 24 2.07912 19.7815
      vertex 10 2.07912 19.7815
    endloop
  endfacet
  facet normal 3.38732e-08 0.104529 0.994522
    outer loop
      vertex 24 2.07912 19.7815
      vertex 10 0.606409 19.9363
      vertex 24 0 20
    endloop
  endfacet
  facet normal 0 0.104528 0.994522
    outer loop
      vertex -10 2.07912 19.7815
      vertex -24 2.07912 19.7815
      vertex -10 1.47271 19.8452
    endloop
  endfacet
  facet normal -0 0.309017 0.951057
    outer loop
      vertex -24 4.06737 19.1355
      vertex -10 2.07912 19.7815
      vertex -10 4.06737 19.1355
    endloop
  endfacet
  facet normal 0 0.309017 0.951057
    outer loop
      vertex -10 2.07912 19.7815
      vertex -24 4.06737 19.1355
      vertex -24 2.07912 19.7815
    endloop
  endfacet
  facet normal -0 0.309017 0.951057
    outer loop
      vertex 10 4.06737 19.1355
      vertex 24 2.07912 19.7815
      vertex 24 4.06737 19.1355
    endloop
  endfacet
  facet normal 0 0.309017 0.951057
    outer loop
      vertex 24 2.07912 19.7815
      vertex 10 4.06737 19.1355
      vertex 10 2.07912 19.7815
    endloop
  endfacet
  facet normal -1 0 0
    outer loop
      vertex -24 -2.07912 0.218524
      vertex -24 -7.43145 3.30869
      vertex -24 0 0
    endloop
  endfacet
  facet normal -1 0 0
    outer loop
      vertex -24 -4.06737 0.864545
      vertex -24 -7.43145 3.30869
      vertex -24 -2.07912 0.218524
    endloop
  endfacet
  facet normal 1 0 0
    outer loop
      vertex 24 9.51056 13.0902
      vertex 24 9.94522 8.95471
      vertex 24 9.94522 11.0453
    endloop
  endfacet
  facet normal 1 0 0
    outer loop
      vertex 24 9.51056 13.0902
      vertex 24 9.51056 6.90983
      vertex 24 9.94522 8.95471
    endloop
  endfacet
  facet normal 1 0 0
    outer loop
      vertex 24 8.66025 15
      vertex 24 9.51056 6.90983
      vertex 24 9.51056 13.0902
    endloop
  endfacet
  facet normal 1 0 0
    outer loop
      vertex 24 8.66025 15
      vertex 24 8.66025 5
      vertex 24 9.51056 6.90983
    endloop
  endfacet
  facet normal 1 0 0
    outer loop
      vertex 24 7.43145 16.6913
      vertex 24 8.66025 5
      vertex 24 8.66025 15
    endloop
  endfacet
  facet normal 1 0 0
    outer loop
      vertex 24 7.43145 16.6913
      vertex 24 7.43145 3.30869
      vertex 24 8.66025 5
    endloop
  endfacet
  facet normal 1 0 0
    outer loop
      vertex 24 7.43145 16.6913
      vertex 24 5.87785 1.90983
      vertex 24 7.43145 3.30869
    endloop
  endfacet
  facet normal 1 0 0
    outer loop
      vertex 24 7.43145 16.6913
      vertex 24 4.06737 0.864545
      vertex 24 5.87785 1.90983
    endloop
  endfacet
  facet normal 1 0 0
    outer loop
      vertex 24 7.43145 16.6913
      vertex 24 2.07912 0.218524
      vertex 24 4.06737 0.864545
    endloop
  endfacet
  facet normal 1 0 0
    outer loop
      vertex 24 7.43145 16.6913
      vertex 24 0 0
      vertex 24 2.07912 0.218524
    endloop
  endfacet
  facet normal 1 0 0
    outer loop
      vertex 24 7.43145 16.6913
      vertex 24 -2.07912 0.218524
      vertex 24 0 0
    endloop
  endfacet
  facet normal 1 0 0
    outer loop
      vertex 24 7.43145 16.6913
      vertex 24 -4.06737 0.864545
      vertex 24 -2.07912 0.218524
    endloop
  endfacet
  facet normal 1 0 0
    outer loop
      vertex 24 7.43145 16.6913
      vertex 24 -5.87785 1.90983
      vertex 24 -4.06737 0.864545
    endloop
  endfacet
  facet normal 1 -0 0
    outer loop
      vertex 24 -7.43145 16.6913
      vertex 24 -5.87785 1.90983
      vertex 24 7.43145 16.6913
    endloop
  endfacet
  facet normal 1 0 0
    outer loop
      vertex 24 -7.43145 16.6913
      vertex 24 -7.43145 3.30869
      vertex 24 -5.87785 1.90983
    endloop
  endfacet
  facet normal 1 -0 0
    outer loop
      vertex 24 -8.66025 15
      vertex 24 -7.43145 3.30869
      vertex 24 -7.43145 16.6913
    endloop
  endfacet
  facet normal 1 0 0
    outer loop
      vertex 24 -8.66025 15
      vertex 24 -8.66025 5
      vertex 24 -7.43145 3.30869
    endloop
  endfacet
  facet normal 1 -0 0
    outer loop
      vertex 24 -9.51056 13.0902
      vertex 24 -8.66025 5
      vertex 24 -8.66025 15
    endloop
  endfacet
  facet normal 1 0 0
    outer loop
      vertex 24 -9.51056 13.0902
      vertex 24 -9.51056 6.90983
      vertex 24 -8.66025 5
    endloop
  endfacet
  facet normal 1 -0 0
    outer loop
      vertex 24 -9.94522 11.0453
      vertex 24 -9.51056 6.90983
      vertex 24 -9.51056 13.0902
    endloop
  endfacet
  facet normal 1 0 0
    outer loop
      vertex 24 -9.51056 6.90983
      vertex 24 -9.94522 11.0453
      vertex 24 -9.94522 8.95471
    endloop
  endfacet
  facet normal 0 -0.978148 -0.207911
    outer loop
      vertex 10 -9.51056 6.90983
      vertex 24 -9.94522 8.95471
      vertex 10 -9.94522 8.95471
    endloop
  endfacet
  facet normal 0 -0.978148 -0.207911
    outer loop
      vertex 24 -9.94522 8.95471
      vertex 10 -9.51056 6.90983
      vertex 24 -9.51056 6.90983
    endloop
  endfacet
  facet normal 0 -0.978148 -0.207911
    outer loop
      vertex -24 -9.51056 6.90983
      vertex -10 -9.94522 8.95471
      vertex -24 -9.94522 8.95471
    endloop
  endfacet
  facet normal 0 -0.978148 -0.207911
    outer loop
      vertex -10 -9.94522 8.95471
      vertex -24 -9.51056 6.90983
      vertex -10 -9.51056 6.90983
    endloop
  endfacet
  facet normal 0 -0.913545 0.406737
    outer loop
      vertex -24 -9.51056 13.0902
      vertex -10 -8.66025 15
      vertex -24 -8.66025 15
    endloop
  endfacet
  facet normal 0 -0.913545 0.406737
    outer loop
      vertex -10 -8.66025 15
      vertex -24 -9.51056 13.0902
      vertex -10 -9.51056 13.0902
    endloop
  endfacet
  facet normal 0 -0.913545 0.406737
    outer loop
      vertex 10 -9.51056 13.0902
      vertex 24 -8.66025 15
      vertex 10 -8.66025 15
    endloop
  endfacet
  facet normal 0 -0.913545 0.406737
    outer loop
      vertex 24 -8.66025 15
      vertex 10 -9.51056 13.0902
      vertex 24 -9.51056 13.0902
    endloop
  endfacet
  facet normal 2.00198e-08 -0.809017 -0.587785
    outer loop
      vertex 10 -7.78985 3.80199
      vertex 24 -8.66025 5
      vertex 10 -8.66025 5
    endloop
  endfacet
  facet normal 2.08632e-08 -0.809017 -0.587785
    outer loop
      vertex 24 -8.66025 5
      vertex 10 -7.78985 3.80199
      vertex 24 -7.43145 3.30869
    endloop
  endfacet
  facet normal 2.00198e-08 -0.809018 -0.587784
    outer loop
      vertex -10 -8.66025 5
      vertex -24 -8.66025 5
      vertex -10 -8.30185 4.5067
    endloop
  endfacet
  facet normal 0 -0.309017 -0.951057
    outer loop
      vertex -24 -4.06737 0.864545
      vertex -10 -2.07912 0.218524
      vertex -10 -4.06737 0.864545
    endloop
  endfacet
  facet normal -0 -0.309017 -0.951057
    outer loop
      vertex -10 -2.07912 0.218524
      vertex -24 -4.06737 0.864545
      vertex -24 -2.07912 0.218524
    endloop
  endfacet
  facet normal 0 -0.309017 -0.951057
    outer loop
      vertex 10 -4.06737 0.864545
      vertex 24 -2.07912 0.218524
      vertex 24 -4.06737 0.864545
    endloop
  endfacet
  facet normal -0 -0.309017 -0.951057
    outer loop
      vertex 24 -2.07912 0.218524
      vertex 10 -4.06737 0.864545
      vertex 10 -2.07912 0.218524
    endloop
  endfacet
  facet normal 0 -0.5 -0.866026
    outer loop
      vertex 10 -5.87785 1.90983
      vertex 24 -4.06737 0.864545
      vertex 24 -5.87785 1.90983
    endloop
  endfacet
  facet normal -0 -0.5 -0.866026
    outer loop
      vertex 24 -4.06737 0.864545
      vertex 10 -5.87785 1.90983
      vertex 10 -4.06737 0.864545
    endloop
  endfacet
  facet normal 0 -0.5 -0.866026
    outer loop
      vertex -24 -5.87785 1.90983
      vertex -10 -4.06737 0.864545
      vertex -10 -5.87785 1.90983
    endloop
  endfacet
  facet normal -0 -0.5 -0.866026
    outer loop
      vertex -10 -4.06737 0.864545
      vertex -24 -5.87785 1.90983
      vertex -24 -4.06737 0.864545
    endloop
  endfacet
  facet normal -0 0.5 0.866026
    outer loop
      vertex -24 5.87785 18.0902
      vertex -10 4.06737 19.1355
      vertex -10 5.87785 18.0902
    endloop
  endfacet
  facet normal 0 0.5 0.866026
    outer loop
      vertex -10 4.06737 19.1355
      vertex -24 5.87785 18.0902
      vertex -24 4.06737 19.1355
    endloop
  endfacet
  facet normal -0 0.5 0.866026
    outer loop
      vertex 10 5.87785 18.0902
      vertex 24 4.06737 19.1355
      vertex 24 5.87785 18.0902
    endloop
  endfacet
  facet normal 0 0.5 0.866026
    outer loop
      vertex 24 4.06737 19.1355
      vertex 10 5.87785 18.0902
      vertex 10 4.06737 19.1355
    endloop
  endfacet
  facet normal 0 0.913545 0.406737
    outer loop
      vertex 10 8.90826 14.443
      vertex 10 8.66025 15
      vertex 24 8.66025 15
    endloop
  endfacet
  facet normal 0 0.913545 0.406737
    outer loop
      vertex -10 9.26256 13.6472
      vertex -24 8.66025 15
      vertex -10 8.66025 15
    endloop
  endfacet
  facet normal 1.9589e-08 0.913545 0.406737
    outer loop
      vertex -24 8.66025 15
      vertex -10 9.26256 13.6472
      vertex -24 9.51056 13.0902
    endloop
  endfacet
  facet normal 0 0.809017 0.587786
    outer loop
      vertex 24 7.43145 16.6913
      vertex 10 8.30185 15.4933
      vertex 10 7.43145 16.6913
    endloop
  endfacet
  facet normal 2.83799e-08 0.809017 0.587785
    outer loop
      vertex 10 8.30185 15.4933
      vertex 24 7.43145 16.6913
      vertex 24 8.66025 15
    endloop
  endfacet
  facet normal 0 0.809017 0.587785
    outer loop
      vertex -10 7.78985 16.198
      vertex -24 7.43145 16.6913
      vertex -10 7.43145 16.6913
    endloop
  endfacet
  facet normal 2.76701e-08 0.913545 0.406737
    outer loop
      vertex 24 9.51056 13.0902
      vertex 10 8.90826 14.443
      vertex 24 8.66025 15
    endloop
  endfacet
  facet normal 0 0.913546 0.406736
    outer loop
      vertex 10 8.90826 14.443
      vertex 24 9.51056 13.0902
      vertex 10 9.51056 13.0902
    endloop
  endfacet
  facet normal 0 0.913545 0.406737
    outer loop
      vertex -10 9.51056 13.0902
      vertex -24 9.51056 13.0902
      vertex -10 9.26256 13.6472
    endloop
  endfacet
  facet normal 0 0.978148 0.207911
    outer loop
      vertex -10 9.94522 11.0453
      vertex -24 9.51056 13.0902
      vertex -10 9.51056 13.0902
    endloop
  endfacet
  facet normal 0 0.978148 0.207911
    outer loop
      vertex -24 9.51056 13.0902
      vertex -10 9.94522 11.0453
      vertex -24 9.94522 11.0453
    endloop
  endfacet
  facet normal 0 0.978148 0.207911
    outer loop
      vertex 24 9.94522 11.0453
      vertex 10 9.51056 13.0902
      vertex 24 9.51056 13.0902
    endloop
  endfacet
  facet normal 0 0.978148 0.207911
    outer loop
      vertex 10 9.51056 13.0902
      vertex 24 9.94522 11.0453
      vertex 10 9.94522 11.0453
    endloop
  endfacet
  facet normal 0 -0.309017 0.951057
    outer loop
      vertex -24 -2.07912 19.7815
      vertex -10 -4.06737 19.1355
      vertex -10 -2.07912 19.7815
    endloop
  endfacet
  facet normal 0 -0.309017 0.951057
    outer loop
      vertex -10 -4.06737 19.1355
      vertex -24 -2.07912 19.7815
      vertex -24 -4.06737 19.1355
    endloop
  endfacet
  facet normal 0 -0.309017 0.951057
    outer loop
      vertex 10 -2.07912 19.7815
      vertex 24 -4.06737 19.1355
      vertex 24 -2.07912 19.7815
    endloop
  endfacet
  facet normal 0 -0.309017 0.951057
    outer loop
      vertex 24 -4.06737 19.1355
      vertex 10 -2.07912 19.7815
      vertex 10 -4.06737 19.1355
    endloop
  endfacet
  facet normal 3.38732e-08 -0.104529 0.994522
    outer loop
      vertex 10 -0.606409 19.9363
      vertex 24 -2.07912 19.7815
      vertex 24 0 20
    endloop
  endfacet
  facet normal 0 -0.104529 0.994522
    outer loop
      vertex 24 -2.07912 19.7815
      vertex 10 -0.606409 19.9363
      vertex 10 -2.07912 19.7815
    endloop
  endfacet
  facet normal 0 -0.104528 0.994522
    outer loop
      vertex -10 -1.47271 19.8452
      vertex -24 -2.07912 19.7815
      vertex -10 -2.07912 19.7815
    endloop
  endfacet
  facet normal 0 -0.669131 0.743145
    outer loop
      vertex 10 -5.87785 18.0902
      vertex 24 -7.43145 16.6913
      vertex 24 -5.87785 18.0902
    endloop
  endfacet
  facet normal 0 -0.669131 0.743145
    outer loop
      vertex 24 -7.43145 16.6913
      vertex 10 -5.87785 18.0902
      vertex 10 -7.43145 16.6913
    endloop
  endfacet
  facet normal 0 -0.669131 0.743145
    outer loop
      vertex -24 -5.87785 18.0902
      vertex -10 -7.43145 16.6913
      vertex -10 -5.87785 18.0902
    endloop
  endfacet
  facet normal 0 -0.669131 0.743145
    outer loop
      vertex -10 -7.43145 16.6913
      vertex -24 -5.87785 18.0902
      vertex -24 -7.43145 16.6913
    endloop
  endfacet
  facet normal 0 0.5 -0.866026
    outer loop
      vertex 10 4.06737 0.864545
      vertex 24 5.87785 1.90983
      vertex 24 4.06737 0.864545
    endloop
  endfacet
  facet normal 0 0.5 -0.866026
    outer loop
      vertex 24 5.87785 1.90983
      vertex 10 4.06737 0.864545
      vertex 10 5.87785 1.90983
    endloop
  endfacet
  facet normal 0 0.5 -0.866026
    outer loop
      vertex -24 4.06737 0.864545
      vertex -10 5.87785 1.90983
      vertex -10 4.06737 0.864545
    endloop
  endfacet
  facet normal 0 0.5 -0.866026
    outer loop
      vertex -10 5.87785 1.90983
      vertex -24 4.06737 0.864545
      vertex -24 5.87785 1.90983
    endloop
  endfacet
  facet normal 0 0.309017 -0.951057
    outer loop
      vertex -24 2.07912 0.218524
      vertex -10 4.06737 0.864545
      vertex -10 2.07912 0.218524
    endloop
  endfacet
  facet normal 0 0.309017 -0.951057
    outer loop
      vertex -10 4.06737 0.864545
      vertex -24 2.07912 0.218524
      vertex -24 4.06737 0.864545
    endloop
  endfacet
  facet normal 0 0.309017 -0.951057
    outer loop
      vertex 10 2.07912 0.218524
      vertex 24 4.06737 0.864545
      vertex 24 2.07912 0.218524
    endloop
  endfacet
  facet normal 0 0.309017 -0.951057
    outer loop
      vertex 24 4.06737 0.864545
      vertex 10 2.07912 0.218524
      vertex 10 4.06737 0.864545
    endloop
  endfacet
  facet normal 0 0.104528 0.994522
    outer loop
      vertex 10 0.606409 19.9363
      vertex 10 0 20
      vertex 24 0 20
    endloop
  endfacet
  facet normal 3.38732e-08 0.104529 0.994522
    outer loop
      vertex -24 0 20
      vertex -10 1.47271 19.8452
      vertex -24 2.07912 19.7815
    endloop
  endfacet
  facet normal 0 0.104529 0.994522
    outer loop
      vertex -10 1.47271 19.8452
      vertex -24 0 20
      vertex -10 0 20
    endloop
  endfacet
  facet normal -1 0 0
    outer loop
      vertex -24 9.51056 6.90983
      vertex -24 9.94522 11.0453
      vertex -24 9.94522 8.95471
    endloop
  endfacet
  facet normal -1 0 0
    outer loop
      vertex -24 9.51056 6.90983
      vertex -24 9.51056 13.0902
      vertex -24 9.94522 11.0453
    endloop
  endfacet
  facet normal -1 0 0
    outer loop
      vertex -24 8.66025 5
      vertex -24 9.51056 13.0902
      vertex -24 9.51056 6.90983
    endloop
  endfacet
  facet normal -1 0 0
    outer loop
      vertex -24 8.66025 5
      vertex -24 8.66025 15
      vertex -24 9.51056 13.0902
    endloop
  endfacet
  facet normal -1 0 0
    outer loop
      vertex -24 7.43145 3.30869
      vertex -24 8.66025 15
      vertex -24 8.66025 5
    endloop
  endfacet
  facet normal -1 0 0
    outer loop
      vertex -24 7.43145 3.30869
      vertex -24 7.43145 16.6913
      vertex -24 8.66025 15
    endloop
  endfacet
  facet normal -1 0 0
    outer loop
      vertex -24 7.43145 3.30869
      vertex -24 5.87785 18.0902
      vertex -24 7.43145 16.6913
    endloop
  endfacet
  facet normal -1 0 0
    outer loop
      vertex -24 7.43145 3.30869
      vertex -24 4.06737 19.1355
      vertex -24 5.87785 18.0902
    endloop
  endfacet
  facet normal -1 0 0
    outer loop
      vertex -24 7.43145 3.30869
      vertex -24 2.07912 19.7815
      vertex -24 4.06737 19.1355
    endloop
  endfacet
  facet normal -1 0 0
    outer loop
      vertex -24 7.43145 3.30869
      vertex -24 0 20
      vertex -24 2.07912 19.7815
    endloop
  endfacet
  facet normal -1 0 0
    outer loop
      vertex -24 7.43145 3.30869
      vertex -24 -2.07912 19.7815
      vertex -24 0 20
    endloop
  endfacet
  facet normal -1 0 0
    outer loop
      vertex -24 7.43145 3.30869
      vertex -24 -4.06737 19.1355
      vertex -24 -2.07912 19.7815
    endloop
  endfacet
  facet normal -1 0 0
    outer loop
      vertex -24 7.43145 3.30869
      vertex -24 -5.87785 18.0902
      vertex -24 -4.06737 19.1355
    endloop
  endfacet
  facet normal -1 0 0
    outer loop
      vertex -24 -7.43145 3.30869
      vertex -24 -5.87785 18.0902
      vertex -24 7.43145 3.30869
    endloop
  endfacet
  facet normal -1 0 0
    outer loop
      vertex -24 -7.43145 3.30869
      vertex -24 -7.43145 16.6913
      vertex -24 -5.87785 18.0902
    endloop
  endfacet
  facet normal -1 0 0
    outer loop
      vertex -24 -8.66025 5
      vertex -24 -7.43145 16.6913
      vertex -24 -7.43145 3.30869
    endloop
  endfacet
  facet normal -1 0 0
    outer loop
      vertex -24 -8.66025 5
      vertex -24 -8.66025 15
      vertex -24 -7.43145 16.6913
    endloop
  endfacet
  facet normal -1 0 0
    outer loop
      vertex -24 -9.51056 6.90983
      vertex -24 -8.66025 15
      vertex -24 -8.66025 5
    endloop
  endfacet
  facet normal -1 0 0
    outer loop
      vertex -24 -9.51056 6.90983
      vertex -24 -9.51056 13.0902
      vertex -24 -8.66025 15
    endloop
  endfacet
  facet normal -1 0 0
    outer loop
      vertex -24 -9.94522 8.95471
      vertex -24 -9.51056 13.0902
      vertex -24 -9.51056 6.90983
    endloop
  endfacet
  facet normal -1 0 0
    outer loop
      vertex -24 -9.51056 13.0902
      vertex -24 -9.94522 8.95471
      vertex -24 -9.94522 11.0453
    endloop
  endfacet
  facet normal -0 0.809017 0.587785
    outer loop
      vertex -24 8.66025 15
      vertex -10 7.78985 16.198
      vertex -10 8.66025 15
    endloop
  endfacet
  facet normal -1.08533e-08 0.809017 0.587785
    outer loop
      vertex -10 7.78985 16.198
      vertex -24 8.66025 15
      vertex -24 7.43145 16.6913
    endloop
  endfacet
  facet normal -0 0.809017 0.587785
    outer loop
      vertex 10 8.66025 15
      vertex 10 8.30185 15.4933
      vertex 24 8.66025 15
    endloop
  endfacet
  facet normal 0 -1 0
    outer loop
      vertex 10 -9.94522 8.95471
      vertex 24 -9.94522 11.0453
      vertex 10 -9.94522 11.0453
    endloop
  endfacet
  facet normal 0 -1 -0
    outer loop
      vertex 24 -9.94522 11.0453
      vertex 10 -9.94522 8.95471
      vertex 24 -9.94522 8.95471
    endloop
  endfacet
  facet normal 0 -1 0
    outer loop
      vertex -24 -9.94522 8.95471
      vertex -10 -9.94522 11.0453
      vertex -24 -9.94522 11.0453
    endloop
  endfacet
  facet normal 0 -1 -0
    outer loop
      vertex -10 -9.94522 11.0453
      vertex -24 -9.94522 8.95471
      vertex -10 -9.94522 8.95471
    endloop
  endfacet
  facet normal 0 -0.978148 0.207911
    outer loop
      vertex 10 -9.94522 11.0453
      vertex 24 -9.51056 13.0902
      vertex 10 -9.51056 13.0902
    endloop
  endfacet
  facet normal 0 -0.978148 0.207911
    outer loop
      vertex 24 -9.51056 13.0902
      vertex 10 -9.94522 11.0453
      vertex 24 -9.94522 11.0453
    endloop
  endfacet
  facet normal 0 -0.978148 0.207911
    outer loop
      vertex -24 -9.94522 11.0453
      vertex -10 -9.51056 13.0902
      vertex -24 -9.51056 13.0902
    endloop
  endfacet
  facet normal 0 -0.978148 0.207911
    outer loop
      vertex -10 -9.51056 13.0902
      vertex -24 -9.94522 11.0453
      vertex -10 -9.94522 11.0453
    endloop
  endfacet
  facet normal -0.92388 -0.382683 0
    outer loop
      vertex 2.5 0 15
      vertex 1.76777 1.76777 20
      vertex 1.76777 1.76777 15
    endloop
  endfacet
  facet normal -0.92388 -0.382683 0
    outer loop
      vertex 1.76777 1.76777 20
      vertex 2.5 0 15
      vertex 2.5 0 20
    endloop
  endfacet
  facet normal 0.92388 -0.382683 0
    outer loop
      vertex -2.5 0 20
      vertex -1.76777 1.76777 15
      vertex -1.76777 1.76777 20
    endloop
  endfacet
  facet normal 0.92388 -0.382683 0
    outer loop
      vertex -1.76777 1.76777 15
      vertex -2.5 0 20
      vertex -2.5 0 15
    endloop
  endfacet
  facet normal -0.382683 -0.92388 0
    outer loop
      vertex 0 2.5 15
      vertex 1.76777 1.76777 20
      vertex 0 2.5 20
    endloop
  endfacet
  facet normal -0.382683 -0.92388 -0
    outer loop
      vertex 1.76777 1.76777 20
      vertex 0 2.5 15
      vertex 1.76777 1.76777 15
    endloop
  endfacet
  facet normal 0 0 1
    outer loop
      vertex 1.76777 1.76777 15
      vertex 1.76777 -1.76777 15
      vertex 2.5 0 15
    endloop
  endfacet
  facet normal 0 0 1
    outer loop
      vertex 0 2.5 15
      vertex 1.76777 -1.76777 15
      vertex 1.76777 1.76777 15
    endloop
  endfacet
  facet normal 0 0 1
    outer loop
      vertex 0 2.5 15
      vertex 0 -2.5 15
      vertex 1.76777 -1.76777 15
    endloop
  endfacet
  facet normal -0 0 1
    outer loop
      vertex -1.76777 1.76777 15
      vertex 0 -2.5 15
      vertex 0 2.5 15
    endloop
  endfacet
  facet normal 0 0 1
    outer loop
      vertex -1.76777 1.76777 15
      vertex -1.76777 -1.76777 15
      vertex 0 -2.5 15
    endloop
  endfacet
  facet normal 0 -0 1
    outer loop
      vertex -1.76777 -1.76777 15
      vertex -1.76777 1.76777 15
      vertex -2.5 0 15
    endloop
  endfacet
  facet normal 0.382683 -0.92388 0
    outer loop
      vertex -1.76777 1.76777 15
      vertex 0 2.5 20
      vertex -1.76777 1.76777 20
    endloop
  endfacet
  facet normal 0.382683 -0.92388 0
    outer loop
      vertex 0 2.5 20
      vertex -1.76777 1.76777 15
      vertex 0 2.5 15
    endloop
  endfacet
  facet normal -0.382683 0.92388 0
    outer loop
      vertex 1.76777 -1.76777 15
      vertex 0 -2.5 20
      vertex 1.76777 -1.76777 20
    endloop
  endfacet
  facet normal -0.382683 0.92388 0
    outer loop
      vertex 0 -2.5 20
      vertex 1.76777 -1.76777 15
      vertex 0 -2.5 15
    endloop
  endfacet
  facet normal 0.92388 0.382683 0
    outer loop
      vertex -1.76777 -1.76777 20
      vertex -2.5 0 15
      vertex -2.5 0 20
    endloop
  endfacet
  facet normal 0.92388 0.382683 0
    outer loop
      vertex -2.5 0 15
      vertex -1.76777 -1.76777 20
      vertex -1.76777 -1.76777 15
    endloop
  endfacet
  facet normal -0.92388 0.382683 0
    outer loop
      vertex 1.76777 -1.76777 15
      vertex 2.5 0 20
      vertex 2.5 0 15
    endloop
  endfacet
  facet normal -0.92388 0.382683 0
    outer loop
      vertex 2.5 0 20
      vertex 1.76777 -1.76777 15
      vertex 1.76777 -1.76777 20
    endloop
  endfacet
  facet normal 0.382683 0.92388 -0
    outer loop
      vertex 0 -2.5 15
      vertex -1.76777 -1.76777 20
      vertex 0 -2.5 20
    endloop
  endfacet
  facet normal 0.382683 0.92388 0
    outer loop
      vertex -1.76777 -1.76777 20
      vertex 0 -2.5 15
      vertex -1.76777 -1.76777 15
    endloop
  endfacet
endsolid OpenSCAD_Model
