solid OpenSCAD_Model
  facet normal -1 0 0
    outer loop
      vertex -15 -15 0
      vertex -15 15 30
      vertex -15 15 0
    endloop
  endfacet
  facet normal -1 -0 0
    outer loop
      vertex -15 15 30
      vertex -15 -15 0
      vertex -15 -15 30
    endloop
  endfacet
  facet normal 0 0 1
    outer loop
      vertex 15 15 30
      vertex 1.25 0 30
      vertex 15 -15 30
    endloop
  endfacet
  facet normal 0 0 1
    outer loop
      vertex 15 15 30
      vertex 0.386271 1.18882 30
      vertex 1.25 0 30
    endloop
  endfacet
  facet normal -0 0 1
    outer loop
      vertex -15 15 30
      vertex 0.386271 1.18882 30
      vertex 15 15 30
    endloop
  endfacet
  facet normal 0 0 1
    outer loop
      vertex -1.01127 0.734731 30
      vertex -15 15 30
      vertex -1.01127 -0.734731 30
    endloop
  endfacet
  facet normal 0 0 1
    outer loop
      vertex 0.386271 1.18882 30
      vertex -15 15 30
      vertex -1.01127 0.734731 30
    endloop
  endfacet
  facet normal -0 0 1
    outer loop
      vertex 0.386271 -1.18882 30
      vertex 15 -15 30
      vertex 1.25 0 30
    endloop
  endfacet
  facet normal 0 0 1
    outer loop
      vertex -15 -15 30
      vertex 0.386271 -1.18882 30
      vertex -1.01127 -0.734731 30
    endloop
  endfacet
  facet normal 0 0 1
    outer loop
      vertex 0.386271 -1.18882 30
      vertex -15 -15 30
      vertex 15 -15 30
    endloop
  endfacet
  facet normal 0 0 1
    outer loop
      vertex -15 -15 30
      vertex -1.01127 -0.734731 30
      vertex -15 15 30
    endloop
  endfacet
  facet normal 1 -0 0
    outer loop
      vertex 15 -15 30
      vertex 15 15 0
      vertex 15 15 30
    endloop
  endfacet
  facet normal 1 0 0
    outer loop
      vertex 15 15 0
      vertex 15 -15 30
      vertex 15 -15 0
    endloop
  endfacet
  facet normal 0 1 -0
    outer loop
      vertex 15 15 0
      vertex -15 15 30
      vertex 15 15 30
    endloop
  endfacet
  facet normal 0 1 0
    outer loop
      vertex -15 15 30
      vertex 15 15 0
      vertex -15 15 0
    endloop
  endfacet
  facet normal 0 0 -1
    outer loop
      vertex -15 -15 0
      vertex 15 15 0
      vertex 15 -15 0
    endloop
  endfacet
  facet normal -0 0 -1
    outer loop
      vertex 15 15 0
      vertex -15 -15 0
      vertex -15 15 0
    endloop
  endfacet
  facet normal 0 -1 0
    outer loop
      vertex -15 -15 0
      vertex 15 -15 30
      vertex -15 -15 30
    endloop
  endfacet
  facet normal 0 -1 -0
    outer loop
      vertex 15 -15 30
      vertex -15 -15 0
      vertex 15 -15 0
    endloop
  endfacet
  facet normal -0.809017 -0.587786 0
    outer loop
      vertex 1.25 0 29
      vertex 0.386271 1.18882 30
      vertex 0.386271 1.18882 29
    endloop
  endfacet
  facet normal -0.809017 -0.587786 0
    outer loop
      vertex 0.386271 1.18882 30
      vertex 1.25 0 29
      vertex 1.25 0 30
    endloop
  endfacet
  facet normal 1 -0 0
    outer loop
      vertex -1.01127 -0.734731 30
      vertex -1.01127 0.734731 29
      vertex -1.01127 0.734731 30
    endloop
  endfacet
  facet normal 1 0 0
    outer loop
      vertex -1.01127 0.734731 29
      vertex -1.01127 -0.734731 30
      vertex -1.01127 -0.734731 29
    endloop
  endfacet
  facet normal 0.309017 -0.951056 0
    outer loop
      vertex -1.01127 0.734731 29
      vertex 0.386271 1.18882 30
      vertex -1.01127 0.734731 30
    endloop
  endfacet
  facet normal 0.309017 -0.951056 0
    outer loop
      vertex 0.386271 1.18882 30
      vertex -1.01127 0.734731 29
      vertex 0.386271 1.18882 29
    endloop
  endfacet
  facet normal 0 0 1
    outer loop
      vertex 0.386271 1.18882 29
      vertex 0.386271 -1.18882 29
      vertex 1.25 0 29
    endloop
  endfacet
  facet normal -0 0 1
    outer loop
      vertex -1.01127 0.734731 29
      vertex 0.386271 -1.18882 29
      vertex 0.386271 1.18882 29
    endloop
  endfacet
  facet normal 0 0 1
    outer loop
      vertex 0.386271 -1.18882 29
      vertex -1.01127 0.734731 29
      vertex -1.01127 -0.734731 29
    endloop
  endfacet
  facet normal -0.809017 0.587786 0
    outer loop
      vertex 0.386271 -1.18882 29
      vertex 1.25 0 30
      vertex 1.25 0 29
    endloop
  endfacet
  facet normal -0.809017 0.587786 0
    outer loop
      vertex 1.25 0 30
      vertex 0.386271 -1.18882 29
      vertex 0.386271 -1.18882 30
    endloop
  endfacet
  facet normal 0.309017 0.951056 -0
    outer loop
      vertex 0.386271 -1.18882 29
      vertex -1.01127 -0.734731 30
      vertex 0.386271 -1.18882 30
    endloop
  endfacet
  facet normal 0.309017 0.951056 0
    outer loop
      vertex -1.01127 -0.734731 30
      vertex 0.386271 -1.18882 29
      vertex -1.01127 -0.734731 29
    endloop
  endfacet
endsolid OpenSCAD_Model
