solid OpenSCAD_Model
  facet normal -1 0 0
    outer loop
      vertex -15 -15 0
      vertex -15 -13.3948 8.40833
      vertex -15 -12.9904 7.5
    endloop
  endfacet
  facet normal -1 -0 0
    outer loop
      vertex -15 -14.9178 13.4321
      vertex -15 -15 0
      vertex -15 -14.9178 16.5679
    endloop
  endfacet
  facet normal -1 -0 0
    outer loop
      vertex -15 -14.2658 10.3647
      vertex -15 -15 0
      vertex -15 -14.9178 13.4321
    endloop
  endfacet
  facet normal -1 -0 0
    outer loop
      vertex -15 -13.3948 8.40833
      vertex -15 -15 0
      vertex -15 -14.2658 10.3647
    endloop
  endfacet
  facet normal -1 -0 0
    outer loop
      vertex -15 -12.4059 6.6956
      vertex -15 -15 0
      vertex -15 -12.9904 7.5
    endloop
  endfacet
  facet normal -1 -0 0
    outer loop
      vertex -15 -11.1472 4.96304
      vertex -15 -15 0
      vertex -15 -12.4059 6.6956
    endloop
  endfacet
  facet normal -1 -0 0
    outer loop
      vertex -15 -8.81678 2.86474
      vertex -15 -15 0
      vertex -15 -11.1472 4.96304
    endloop
  endfacet
  facet normal -1 -0 0
    outer loop
      vertex -15 -6.10105 1.29682
      vertex -15 -15 0
      vertex -15 -8.81678 2.86474
    endloop
  endfacet
  facet normal -1 -0 0
    outer loop
      vertex -15 -3.11868 0.327785
      vertex -15 -15 0
      vertex -15 -6.10105 1.29682
    endloop
  endfacet
  facet normal -1 0 0
    outer loop
      vertex -15 -15 0
      vertex -15 -3.11868 0.327785
      vertex -15 0 0
    endloop
  endfacet
  facet normal -1 0 0
    outer loop
      vertex -15 15 0
      vertex -15 14.9178 13.4321
      vertex -15 15 30
    endloop
  endfacet
  facet normal -1 0 0
    outer loop
      vertex -15 15 0
      vertex -15 14.2658 10.3647
      vertex -15 14.9178 13.4321
    endloop
  endfacet
  facet normal -1 0 0
    outer loop
      vertex -15 15 0
      vertex -15 13.3948 8.40833
      vertex -15 14.2658 10.3647
    endloop
  endfacet
  facet normal -1 0 0
    outer loop
      vertex -15 15 0
      vertex -15 12.9904 7.5
      vertex -15 13.3948 8.40833
    endloop
  endfacet
  facet normal -1 0 0
    outer loop
      vertex -15 15 0
      vertex -15 12.4059 6.6956
      vertex -15 12.9904 7.5
    endloop
  endfacet
  facet normal -1 0 0
    outer loop
      vertex -15 15 0
      vertex -15 11.1472 4.96304
      vertex -15 12.4059 6.6956
    endloop
  endfacet
  facet normal -1 0 0
    outer loop
      vertex -15 15 0
      vertex -15 8.81678 2.86474
      vertex -15 11.1472 4.96304
    endloop
  endfacet
  facet normal -1 0 0
    outer loop
      vertex -15 15 0
      vertex -15 6.10105 1.29682
      vertex -15 8.81678 2.86474
    endloop
  endfacet
  facet normal -1 0 0
    outer loop
      vertex -15 15 0
      vertex -15 3.11868 0.327785
      vertex -15 6.10105 1.29682
    endloop
  endfacet
  facet normal -1 0 -0
    outer loop
      vertex -15 3.11868 0.327785
      vertex -15 15 0
      vertex -15 0 0
    endloop
  endfacet
  facet normal -1 0 0
    outer loop
      vertex -15 14.9178 16.5679
      vertex -15 15 30
      vertex -15 14.9178 13.4321
    endloop
  endfacet
  facet normal -1 0 0
    outer loop
      vertex -15 14.2658 19.6353
      vertex -15 15 30
      vertex -15 14.9178 16.5679
    endloop
  endfacet
  facet normal -1 0 0
    outer loop
      vertex -15 13.8614 20.5436
      vertex -15 15 30
      vertex -15 14.2658 19.6353
    endloop
  endfacet
  facet normal -1 0 0
    outer loop
      vertex -15 12.9904 22.5
      vertex -15 15 30
      vertex -15 13.8614 20.5436
    endloop
  endfacet
  facet normal -1 0 0
    outer loop
      vertex -15 11.7316 24.2326
      vertex -15 15 30
      vertex -15 12.9904 22.5
    endloop
  endfacet
  facet normal -1 0 0
    outer loop
      vertex -15 11.1472 25.037
      vertex -15 15 30
      vertex -15 11.7316 24.2326
    endloop
  endfacet
  facet normal -1 0 0
    outer loop
      vertex -15 8.81678 27.1353
      vertex -15 15 30
      vertex -15 11.1472 25.037
    endloop
  endfacet
  facet normal -1 0 0
    outer loop
      vertex -15 6.10105 28.7032
      vertex -15 15 30
      vertex -15 8.81678 27.1353
    endloop
  endfacet
  facet normal -1 0 0
    outer loop
      vertex -15 3.11868 29.6722
      vertex -15 15 30
      vertex -15 6.10105 28.7032
    endloop
  endfacet
  facet normal -1 0 0
    outer loop
      vertex -15 2.12983 29.7761
      vertex -15 15 30
      vertex -15 3.11868 29.6722
    endloop
  endfacet
  facet normal -1 -0 0
    outer loop
      vertex -15 15 30
      vertex -15 2.12983 29.7761
      vertex -15 0 30
    endloop
  endfacet
  facet normal -1 0 0
    outer loop
      vertex -15 -15 30
      vertex -15 -2.12983 29.7761
      vertex -15 -3.11868 29.6722
    endloop
  endfacet
  facet normal -1 0 0
    outer loop
      vertex -15 -2.12983 29.7761
      vertex -15 -15 30
      vertex -15 0 30
    endloop
  endfacet
  facet normal -1 0 0
    outer loop
      vertex -15 -6.10105 28.7032
      vertex -15 -15 30
      vertex -15 -3.11868 29.6722
    endloop
  endfacet
  facet normal -1 0 0
    outer loop
      vertex -15 -8.81678 27.1353
      vertex -15 -15 30
      vertex -15 -6.10105 28.7032
    endloop
  endfacet
  facet normal -1 0 0
    outer loop
      vertex -15 -11.1472 25.037
      vertex -15 -15 30
      vertex -15 -8.81678 27.1353
    endloop
  endfacet
  facet normal -1 0 0
    outer loop
      vertex -15 -12.9904 22.5
      vertex -15 -15 30
      vertex -15 -11.1472 25.037
    endloop
  endfacet
  facet normal -1 0 0
    outer loop
      vertex -15 -14.2658 19.6353
      vertex -15 -15 30
      vertex -15 -12.9904 22.5
    endloop
  endfacet
  facet normal -1 0 0
    outer loop
      vertex -15 -14.9178 16.5679
      vertex -15 -15 30
      vertex -15 -14.2658 19.6353
    endloop
  endfacet
  facet normal -1 0 0
    outer loop
      vertex -15 -15 30
      vertex -15 -14.9178 16.5679
      vertex -15 -15 0
    endloop
  endfacet
  facet normal -0 0 0
    outer loop
      vertex -15 0 30
      vertex -15 -15 30
      vertex -15 15 30
    endloop
  endfacet
  facet normal 0 0 1
    outer loop
      vertex 15 15 30
      vertex 12.5 0 30
      vertex 15 -15 30
    endloop
  endfacet
  facet normal 0 0 1
    outer loop
      vertex 15 15 30
      vertex 12.2268 2.5989 30
      vertex 12.5 0 30
    endloop
  endfacet
  facet normal 0 0 1
    outer loop
      vertex 15 15 30
      vertex 11.4193 5.08421 30
      vertex 12.2268 2.5989 30
    endloop
  endfacet
  facet normal 0 0 1
    outer loop
      vertex 15 15 30
      vertex 10.1127 7.34731 30
      vertex 11.4193 5.08421 30
    endloop
  endfacet
  facet normal 0 0 1
    outer loop
      vertex 15 15 30
      vertex 8.36413 9.28931 30
      vertex 10.1127 7.34731 30
    endloop
  endfacet
  facet normal 0 0 1
    outer loop
      vertex 15 15 30
      vertex 6.25 10.8253 30
      vertex 8.36413 9.28931 30
    endloop
  endfacet
  facet normal 0 0 1
    outer loop
      vertex 15 15 30
      vertex 3.86271 11.8882 30
      vertex 6.25 10.8253 30
    endloop
  endfacet
  facet normal 0 0 1
    outer loop
      vertex 15 15 30
      vertex 1.30661 12.4315 30
      vertex 3.86271 11.8882 30
    endloop
  endfacet
  facet normal 0 0 1
    outer loop
      vertex 15 15 30
      vertex -1.30661 12.4315 30
      vertex 1.30661 12.4315 30
    endloop
  endfacet
  facet normal 0 0 1
    outer loop
      vertex -12.2268 2.5989 30
      vertex -15 15 30
      vertex -12.5 0 30
    endloop
  endfacet
  facet normal 0 0 1
    outer loop
      vertex -11.4193 5.08421 30
      vertex -15 15 30
      vertex -12.2268 2.5989 30
    endloop
  endfacet
  facet normal 0 0 1
    outer loop
      vertex -10.1127 7.34731 30
      vertex -15 15 30
      vertex -11.4193 5.08421 30
    endloop
  endfacet
  facet normal 0 0 1
    outer loop
      vertex -8.36413 9.28931 30
      vertex -15 15 30
      vertex -10.1127 7.34731 30
    endloop
  endfacet
  facet normal 0 0 1
    outer loop
      vertex -6.25 10.8253 30
      vertex -15 15 30
      vertex -8.36413 9.28931 30
    endloop
  endfacet
  facet normal 0 0 1
    outer loop
      vertex -3.86271 11.8882 30
      vertex -15 15 30
      vertex -6.25 10.8253 30
    endloop
  endfacet
  facet normal 0 0 1
    outer loop
      vertex -1.30661 12.4315 30
      vertex -15 15 30
      vertex -3.86271 11.8882 30
    endloop
  endfacet
  facet normal -0 0 1
    outer loop
      vertex -15 15 30
      vertex -1.30661 12.4315 30
      vertex 15 15 30
    endloop
  endfacet
  facet normal -0 0 1
    outer loop
      vertex 12.2268 -2.5989 30
      vertex 15 -15 30
      vertex 12.5 0 30
    endloop
  endfacet
  facet normal -0 0 1
    outer loop
      vertex 11.4193 -5.08421 30
      vertex 15 -15 30
      vertex 12.2268 -2.5989 30
    endloop
  endfacet
  facet normal -0 0 1
    outer loop
      vertex 10.1127 -7.34731 30
      vertex 15 -15 30
      vertex 11.4193 -5.08421 30
    endloop
  endfacet
  facet normal -0 0 1
    outer loop
      vertex 8.36413 -9.28931 30
      vertex 15 -15 30
      vertex 10.1127 -7.34731 30
    endloop
  endfacet
  facet normal -0 0 1
    outer loop
      vertex 6.25 -10.8253 30
      vertex 15 -15 30
      vertex 8.36413 -9.28931 30
    endloop
  endfacet
  facet normal -0 0 1
    outer loop
      vertex 3.86271 -11.8882 30
      vertex 15 -15 30
      vertex 6.25 -10.8253 30
    endloop
  endfacet
  facet normal -0 0 1
    outer loop
      vertex 1.30661 -12.4315 30
      vertex 15 -15 30
      vertex 3.86271 -11.8882 30
    endloop
  endfacet
  facet normal -0 0 1
    outer loop
      vertex -1.30661 -12.4315 30
      vertex 15 -15 30
      vertex 1.30661 -12.4315 30
    endloop
  endfacet
  facet normal 0 0 1
    outer loop
      vertex -15 -15 30
      vertex -12.5 0 30
      vertex -15 15 30
    endloop
  endfacet
  facet normal 0 0 1
    outer loop
      vertex -1.30661 -12.4315 30
      vertex -15 -15 30
      vertex 15 -15 30
    endloop
  endfacet
  facet normal 0 0 1
    outer loop
      vertex -3.86271 -11.8882 30
      vertex -15 -15 30
      vertex -1.30661 -12.4315 30
    endloop
  endfacet
  facet normal 0 0 1
    outer loop
      vertex -6.25 -10.8253 30
      vertex -15 -15 30
      vertex -3.86271 -11.8882 30
    endloop
  endfacet
  facet normal 0 0 1
    outer loop
      vertex -8.36413 -9.28931 30
      vertex -15 -15 30
      vertex -6.25 -10.8253 30
    endloop
  endfacet
  facet normal 0 0 1
    outer loop
      vertex -10.1127 -7.34731 30
      vertex -15 -15 30
      vertex -8.36413 -9.28931 30
    endloop
  endfacet
  facet normal 0 0 1
    outer loop
      vertex -11.4193 -5.08421 30
      vertex -15 -15 30
      vertex -10.1127 -7.34731 30
    endloop
  endfacet
  facet normal 0 0 1
    outer loop
      vertex -12.2268 -2.5989 30
      vertex -15 -15 30
      vertex -11.4193 -5.08421 30
    endloop
  endfacet
  facet normal 0 0 1
    outer loop
      vertex -12.5 0 30
      vertex -15 -15 30
      vertex -12.2268 -2.5989 30
    endloop
  endfacet
  facet normal 1 0 0
    outer loop
      vertex 15 -14.9178 16.5679
      vertex 15 -15 30
      vertex 15 -14.9178 13.4321
    endloop
  endfacet
  facet normal 1 0 0
    outer loop
      vertex 15 -14.2658 19.6353
      vertex 15 -15 30
      vertex 15 -14.9178 16.5679
    endloop
  endfacet
  facet normal 1 0 0
    outer loop
      vertex 15 -12.9904 22.5
      vertex 15 -15 30
      vertex 15 -14.2658 19.6353
    endloop
  endfacet
  facet normal 1 0 0
    outer loop
      vertex 15 -11.1472 25.037
      vertex 15 -15 30
      vertex 15 -12.9904 22.5
    endloop
  endfacet
  facet normal 1 0 0
    outer loop
      vertex 15 -8.81678 27.1353
      vertex 15 -15 30
      vertex 15 -11.1472 25.037
    endloop
  endfacet
  facet normal 1 0 0
    outer loop
      vertex 15 -6.10105 28.7032
      vertex 15 -15 30
      vertex 15 -8.81678 27.1353
    endloop
  endfacet
  facet normal 1 0 0
    outer loop
      vertex 15 -3.11868 29.6722
      vertex 15 -15 30
      vertex 15 -6.10105 28.7032
    endloop
  endfacet
  facet normal 1 0 0
    outer loop
      vertex 15 -0.988848 29.8961
      vertex 15 -15 30
      vertex 15 -3.11868 29.6722
    endloop
  endfacet
  facet normal 1 -0 0
    outer loop
      vertex 15 -15 30
      vertex 15 -0.988848 29.8961
      vertex 15 0 30
    endloop
  endfacet
  facet normal 1 0 0
    outer loop
      vertex 15 15 30
      vertex 15 14.9178 16.5679
      vertex 15 15 0
    endloop
  endfacet
  facet normal 1 0 0
    outer loop
      vertex 15 15 30
      vertex 15 14.2658 19.6353
      vertex 15 14.9178 16.5679
    endloop
  endfacet
  facet normal 1 0 0
    outer loop
      vertex 15 15 30
      vertex 15 13.3948 21.5917
      vertex 15 14.2658 19.6353
    endloop
  endfacet
  facet normal 1 0 0
    outer loop
      vertex 15 15 30
      vertex 15 12.9904 22.5
      vertex 15 13.3948 21.5917
    endloop
  endfacet
  facet normal 1 0 0
    outer loop
      vertex 15 15 30
      vertex 15 12.4059 23.3044
      vertex 15 12.9904 22.5
    endloop
  endfacet
  facet normal 1 0 0
    outer loop
      vertex 15 15 30
      vertex 15 11.1472 25.037
      vertex 15 12.4059 23.3044
    endloop
  endfacet
  facet normal 1 0 0
    outer loop
      vertex 15 15 30
      vertex 15 8.81678 27.1353
      vertex 15 11.1472 25.037
    endloop
  endfacet
  facet normal 1 0 0
    outer loop
      vertex 15 15 30
      vertex 15 6.10105 28.7032
      vertex 15 8.81678 27.1353
    endloop
  endfacet
  facet normal 1 0 0
    outer loop
      vertex 15 15 30
      vertex 15 3.11868 29.6722
      vertex 15 6.10105 28.7032
    endloop
  endfacet
  facet normal 1 0 0
    outer loop
      vertex 15 15 30
      vertex 15 0.988848 29.8961
      vertex 15 3.11868 29.6722
    endloop
  endfacet
  facet normal 1 0 -0
    outer loop
      vertex 15 0.988848 29.8961
      vertex 15 15 30
      vertex 15 0 30
    endloop
  endfacet
  facet normal 1 -0 0
    outer loop
      vertex 15 14.9178 13.4321
      vertex 15 15 0
      vertex 15 14.9178 16.5679
    endloop
  endfacet
  facet normal 1 -0 0
    outer loop
      vertex 15 14.2658 10.3647
      vertex 15 15 0
      vertex 15 14.9178 13.4321
    endloop
  endfacet
  facet normal 1 -0 0
    outer loop
      vertex 15 13.8614 9.45641
      vertex 15 15 0
      vertex 15 14.2658 10.3647
    endloop
  endfacet
  facet normal 1 -0 0
    outer loop
      vertex 15 12.9904 7.5
      vertex 15 15 0
      vertex 15 13.8614 9.45641
    endloop
  endfacet
  facet normal 1 -0 0
    outer loop
      vertex 15 11.7316 5.76744
      vertex 15 15 0
      vertex 15 12.9904 7.5
    endloop
  endfacet
  facet normal 1 -0 0
    outer loop
      vertex 15 11.1472 4.96304
      vertex 15 15 0
      vertex 15 11.7316 5.76744
    endloop
  endfacet
  facet normal 1 -0 0
    outer loop
      vertex 15 8.81678 2.86474
      vertex 15 15 0
      vertex 15 11.1472 4.96304
    endloop
  endfacet
  facet normal 1 -0 0
    outer loop
      vertex 15 6.10105 1.29682
      vertex 15 15 0
      vertex 15 8.81678 2.86474
    endloop
  endfacet
  facet normal 1 -0 0
    outer loop
      vertex 15 3.11868 0.327785
      vertex 15 15 0
      vertex 15 6.10105 1.29682
    endloop
  endfacet
  facet normal 1 0 0
    outer loop
      vertex 15 15 0
      vertex 15 3.11868 0.327785
      vertex 15 0 0
    endloop
  endfacet
  facet normal 1 0 0
    outer loop
      vertex 15 -15 0
      vertex 15 -11.7316 5.76744
      vertex 15 -12.9904 7.5
    endloop
  endfacet
  facet normal 1 0 0
    outer loop
      vertex 15 -3.11868 0.327785
      vertex 15 -15 0
      vertex 15 0 0
    endloop
  endfacet
  facet normal 1 0 0
    outer loop
      vertex 15 -6.10105 1.29682
      vertex 15 -15 0
      vertex 15 -3.11868 0.327785
    endloop
  endfacet
  facet normal 1 0 0
    outer loop
      vertex 15 -8.81678 2.86474
      vertex 15 -15 0
      vertex 15 -6.10105 1.29682
    endloop
  endfacet
  facet normal 1 0 0
    outer loop
      vertex 15 -11.1472 4.96304
      vertex 15 -15 0
      vertex 15 -8.81678 2.86474
    endloop
  endfacet
  facet normal 1 0 0
    outer loop
      vertex 15 -11.7316 5.76744
      vertex 15 -15 0
      vertex 15 -11.1472 4.96304
    endloop
  endfacet
  facet normal 1 0 0
    outer loop
      vertex 15 -13.8614 9.45641
      vertex 15 -15 0
      vertex 15 -12.9904 7.5
    endloop
  endfacet
  facet normal 1 0 0
    outer loop
      vertex 15 -14.2658 10.3647
      vertex 15 -15 0
      vertex 15 -13.8614 9.45641
    endloop
  endfacet
  facet normal 1 0 0
    outer loop
      vertex 15 -14.9178 13.4321
      vertex 15 -15 0
      vertex 15 -14.2658 10.3647
    endloop
  endfacet
  facet normal 1 0 0
    outer loop
      vertex 15 -15 0
      vertex 15 -14.9178 13.4321
      vertex 15 -15 30
    endloop
  endfacet
  facet normal 0 0 -0
    outer loop
      vertex 15 0 30
      vertex 15 15 30
      vertex 15 -15 30
    endloop
  endfacet
  facet normal 0 1 -0
    outer loop
      vertex 15 15 0
      vertex -15 15 30
      vertex 15 15 30
    endloop
  endfacet
  facet normal 0 1 0
    outer loop
      vertex -15 15 30
      vertex 15 15 0
      vertex -15 15 0
    endloop
  endfacet
  facet normal 0 0 -1
    outer loop
      vertex -15 0 0
      vertex 15 0 0
      vertex 15 -15 0
    endloop
  endfacet
  facet normal 0 0 -1
    outer loop
      vertex -15 0 0
      vertex 15 -15 0
      vertex -15 -15 0
    endloop
  endfacet
  facet normal 0 0 -1
    outer loop
      vertex 15 0 0
      vertex -15 0 0
      vertex 15 15 0
    endloop
  endfacet
  facet normal -0 0 -1
    outer loop
      vertex 15 15 0
      vertex -15 0 0
      vertex -15 15 0
    endloop
  endfacet
  facet normal 0 -1 0
    outer loop
      vertex -15 -15 0
      vertex 15 -15 30
      vertex -15 -15 30
    endloop
  endfacet
  facet normal 0 -1 -0
    outer loop
      vertex 15 -15 30
      vertex -15 -15 0
      vertex 15 -15 0
    endloop
  endfacet
  facet normal 0 0.104528 -0.994522
    outer loop
      vertex -41 0 0
      vertex -15 3.11868 0.327785
      vertex -15 0 0
    endloop
  endfacet
  facet normal 0 0.104528 -0.994522
    outer loop
      vertex -15 3.11868 0.327785
      vertex -41 0 0
      vertex -41 3.11868 0.327785
    endloop
  endfacet
  facet normal 0 0.104528 -0.994522
    outer loop
      vertex 15 0 0
      vertex 41 3.11868 0.327785
      vertex 41 0 0
    endloop
  endfacet
  facet normal 0 0.104528 -0.994522
    outer loop
      vertex 41 3.11868 0.327785
      vertex 15 0 0
      vertex 15 3.11868 0.327785
    endloop
  endfacet
  facet normal 0 1 -0
    outer loop
      vertex -15 14.9178 13.4321
      vertex -41 14.9178 16.5679
      vertex -15 14.9178 16.5679
    endloop
  endfacet
  facet normal 0 1 0
    outer loop
      vertex -41 14.9178 16.5679
      vertex -15 14.9178 13.4321
      vertex -41 14.9178 13.4321
    endloop
  endfacet
  facet normal 0 1 -0
    outer loop
      vertex 41 14.9178 13.4321
      vertex 15 14.9178 16.5679
      vertex 41 14.9178 16.5679
    endloop
  endfacet
  facet normal 0 1 0
    outer loop
      vertex 15 14.9178 16.5679
      vertex 41 14.9178 13.4321
      vertex 15 14.9178 13.4321
    endloop
  endfacet
  facet normal 0 0.913545 0.406737
    outer loop
      vertex -15 13.8614 20.5436
      vertex -41 12.9904 22.5
      vertex -15 12.9904 22.5
    endloop
  endfacet
  facet normal -1.8451e-08 0.913545 0.406737
    outer loop
      vertex -41 12.9904 22.5
      vertex -15 13.8614 20.5436
      vertex -41 14.2658 19.6353
    endloop
  endfacet
  facet normal 0 0.913546 0.406736
    outer loop
      vertex 15 13.3948 21.5917
      vertex 15 12.9904 22.5
      vertex 41 12.9904 22.5
    endloop
  endfacet
  facet normal 0 -0.104528 0.994522
    outer loop
      vertex 15 0 30
      vertex 15 -0.988848 29.8961
      vertex 41 0 30
    endloop
  endfacet
  facet normal 0 -0.104529 0.994522
    outer loop
      vertex -41 0 30
      vertex -15 -2.12983 29.7761
      vertex -15 0 30
    endloop
  endfacet
  facet normal 2.12132e-08 -0.104528 0.994522
    outer loop
      vertex -15 -2.12983 29.7761
      vertex -41 0 30
      vertex -41 -3.11868 29.6722
    endloop
  endfacet
  facet normal 7.45951e-09 0.913545 -0.406737
    outer loop
      vertex -15 12.9904 7.5
      vertex -41 12.9904 7.5
      vertex -15 13.3948 8.40833
    endloop
  endfacet
  facet normal 1.29928e-08 0.913545 -0.406737
    outer loop
      vertex 41 12.9904 7.5
      vertex 15 13.8614 9.45641
      vertex 41 14.2658 10.3647
    endloop
  endfacet
  facet normal 7.45951e-09 0.913545 -0.406737
    outer loop
      vertex 15 13.8614 9.45641
      vertex 41 12.9904 7.5
      vertex 15 12.9904 7.5
    endloop
  endfacet
  facet normal 0 0.809017 -0.587785
    outer loop
      vertex -41 11.1472 4.96304
      vertex -15 12.4059 6.6956
      vertex -15 11.1472 4.96304
    endloop
  endfacet
  facet normal -4.80637e-09 0.809017 -0.587785
    outer loop
      vertex -15 12.4059 6.6956
      vertex -41 11.1472 4.96304
      vertex -41 12.9904 7.5
    endloop
  endfacet
  facet normal 0 0.809017 -0.587785
    outer loop
      vertex 41 11.1472 4.96304
      vertex 15 11.1472 4.96304
      vertex 15 11.7316 5.76744
    endloop
  endfacet
  facet normal -1 0 0
    outer loop
      vertex -41 14.2658 10.3647
      vertex -41 14.9178 16.5679
      vertex -41 14.9178 13.4321
    endloop
  endfacet
  facet normal -1 0 0
    outer loop
      vertex -41 14.2658 10.3647
      vertex -41 14.2658 19.6353
      vertex -41 14.9178 16.5679
    endloop
  endfacet
  facet normal -1 0 0
    outer loop
      vertex -41 12.9904 7.5
      vertex -41 14.2658 19.6353
      vertex -41 14.2658 10.3647
    endloop
  endfacet
  facet normal -1 0 0
    outer loop
      vertex -41 12.9904 7.5
      vertex -41 12.9904 22.5
      vertex -41 14.2658 19.6353
    endloop
  endfacet
  facet normal -1 0 0
    outer loop
      vertex -41 11.1472 4.96304
      vertex -41 12.9904 22.5
      vertex -41 12.9904 7.5
    endloop
  endfacet
  facet normal -1 0 0
    outer loop
      vertex -41 11.1472 4.96304
      vertex -41 11.1472 25.037
      vertex -41 12.9904 22.5
    endloop
  endfacet
  facet normal -1 0 0
    outer loop
      vertex -41 8.81678 2.86474
      vertex -41 11.1472 25.037
      vertex -41 11.1472 4.96304
    endloop
  endfacet
  facet normal -1 0 0
    outer loop
      vertex -41 8.81678 2.86474
      vertex -41 8.81678 27.1353
      vertex -41 11.1472 25.037
    endloop
  endfacet
  facet normal -1 0 0
    outer loop
      vertex -41 6.10105 1.29682
      vertex -41 8.81678 27.1353
      vertex -41 8.81678 2.86474
    endloop
  endfacet
  facet normal -1 0 0
    outer loop
      vertex -41 6.10105 1.29682
      vertex -41 6.10105 28.7032
      vertex -41 8.81678 27.1353
    endloop
  endfacet
  facet normal -1 0 0
    outer loop
      vertex -41 3.11868 0.327785
      vertex -41 6.10105 28.7032
      vertex -41 6.10105 1.29682
    endloop
  endfacet
  facet normal -1 0 0
    outer loop
      vertex -41 3.11868 0.327785
      vertex -41 3.11868 29.6722
      vertex -41 6.10105 28.7032
    endloop
  endfacet
  facet normal -1 0 0
    outer loop
      vertex -41 0 0
      vertex -41 3.11868 29.6722
      vertex -41 3.11868 0.327785
    endloop
  endfacet
  facet normal -1 0 0
    outer loop
      vertex -41 0 0
      vertex -41 0 30
      vertex -41 3.11868 29.6722
    endloop
  endfacet
  facet normal -1 0 0
    outer loop
      vertex -41 -3.11868 0.327785
      vertex -41 0 30
      vertex -41 0 0
    endloop
  endfacet
  facet normal -1 0 0
    outer loop
      vertex -41 -3.11868 0.327785
      vertex -41 -3.11868 29.6722
      vertex -41 0 30
    endloop
  endfacet
  facet normal -1 0 0
    outer loop
      vertex -41 -6.10105 1.29682
      vertex -41 -3.11868 29.6722
      vertex -41 -3.11868 0.327785
    endloop
  endfacet
  facet normal -1 0 0
    outer loop
      vertex -41 -6.10105 1.29682
      vertex -41 -6.10105 28.7032
      vertex -41 -3.11868 29.6722
    endloop
  endfacet
  facet normal -1 0 0
    outer loop
      vertex -41 -8.81678 2.86474
      vertex -41 -6.10105 28.7032
      vertex -41 -6.10105 1.29682
    endloop
  endfacet
  facet normal -1 0 0
    outer loop
      vertex -41 -8.81678 2.86474
      vertex -41 -8.81678 27.1353
      vertex -41 -6.10105 28.7032
    endloop
  endfacet
  facet normal -1 0 0
    outer loop
      vertex -41 -11.1472 4.96304
      vertex -41 -8.81678 27.1353
      vertex -41 -8.81678 2.86474
    endloop
  endfacet
  facet normal -1 0 0
    outer loop
      vertex -41 -11.1472 4.96304
      vertex -41 -11.1472 25.037
      vertex -41 -8.81678 27.1353
    endloop
  endfacet
  facet normal -1 0 0
    outer loop
      vertex -41 -12.9904 7.5
      vertex -41 -11.1472 25.037
      vertex -41 -11.1472 4.96304
    endloop
  endfacet
  facet normal -1 0 0
    outer loop
      vertex -41 -12.9904 7.5
      vertex -41 -12.9904 22.5
      vertex -41 -11.1472 25.037
    endloop
  endfacet
  facet normal -1 0 0
    outer loop
      vertex -41 -14.2658 10.3647
      vertex -41 -12.9904 22.5
      vertex -41 -12.9904 7.5
    endloop
  endfacet
  facet normal -1 0 0
    outer loop
      vertex -41 -14.2658 10.3647
      vertex -41 -14.2658 19.6353
      vertex -41 -12.9904 22.5
    endloop
  endfacet
  facet normal -1 0 0
    outer loop
      vertex -41 -14.9178 13.4321
      vertex -41 -14.2658 19.6353
      vertex -41 -14.2658 10.3647
    endloop
  endfacet
  facet normal -1 0 0
    outer loop
      vertex -41 -14.2658 19.6353
      vertex -41 -14.9178 13.4321
      vertex -41 -14.9178 16.5679
    endloop
  endfacet
  facet normal 0 0.913545 -0.406737
    outer loop
      vertex -15 13.3948 8.40833
      vertex -41 14.2658 10.3647
      vertex -15 14.2658 10.3647
    endloop
  endfacet
  facet normal 8.26237e-09 0.913545 -0.406737
    outer loop
      vertex -41 14.2658 10.3647
      vertex -15 13.3948 8.40833
      vertex -41 12.9904 7.5
    endloop
  endfacet
  facet normal 0 0.913546 -0.406737
    outer loop
      vertex 41 14.2658 10.3647
      vertex 15 13.8614 9.45641
      vertex 15 14.2658 10.3647
    endloop
  endfacet
  facet normal 0 0.978148 -0.207912
    outer loop
      vertex -15 14.2658 10.3647
      vertex -41 14.9178 13.4321
      vertex -15 14.9178 13.4321
    endloop
  endfacet
  facet normal 0 0.978148 -0.207912
    outer loop
      vertex -41 14.9178 13.4321
      vertex -15 14.2658 10.3647
      vertex -41 14.2658 10.3647
    endloop
  endfacet
  facet normal 0 0.978148 -0.207912
    outer loop
      vertex 41 14.2658 10.3647
      vertex 15 14.9178 13.4321
      vertex 41 14.9178 13.4321
    endloop
  endfacet
  facet normal 0 0.978148 -0.207912
    outer loop
      vertex 15 14.9178 13.4321
      vertex 41 14.2658 10.3647
      vertex 15 14.2658 10.3647
    endloop
  endfacet
  facet normal 0 -0.104528 -0.994522
    outer loop
      vertex 15 -3.11868 0.327785
      vertex 41 0 0
      vertex 41 -3.11868 0.327785
    endloop
  endfacet
  facet normal -0 -0.104528 -0.994522
    outer loop
      vertex 41 0 0
      vertex 15 -3.11868 0.327785
      vertex 15 0 0
    endloop
  endfacet
  facet normal 0 -0.104528 -0.994522
    outer loop
      vertex -41 -3.11868 0.327785
      vertex -15 0 0
      vertex -15 -3.11868 0.327785
    endloop
  endfacet
  facet normal -0 -0.104528 -0.994522
    outer loop
      vertex -15 0 0
      vertex -41 -3.11868 0.327785
      vertex -41 0 0
    endloop
  endfacet
  facet normal 0 -0.978148 0.207912
    outer loop
      vertex 15 -14.9178 16.5679
      vertex 41 -14.2658 19.6353
      vertex 15 -14.2658 19.6353
    endloop
  endfacet
  facet normal 0 -0.978148 0.207912
    outer loop
      vertex 41 -14.2658 19.6353
      vertex 15 -14.9178 16.5679
      vertex 41 -14.9178 16.5679
    endloop
  endfacet
  facet normal 0 -0.978148 0.207912
    outer loop
      vertex -41 -14.9178 16.5679
      vertex -15 -14.2658 19.6353
      vertex -41 -14.2658 19.6353
    endloop
  endfacet
  facet normal 0 -0.978148 0.207912
    outer loop
      vertex -15 -14.2658 19.6353
      vertex -41 -14.9178 16.5679
      vertex -15 -14.9178 16.5679
    endloop
  endfacet
  facet normal 2.14528e-08 -0.104528 0.994522
    outer loop
      vertex 15 -0.988848 29.8961
      vertex 41 -3.11868 29.6722
      vertex 41 0 30
    endloop
  endfacet
  facet normal 0 -0.104529 0.994522
    outer loop
      vertex 41 -3.11868 29.6722
      vertex 15 -0.988848 29.8961
      vertex 15 -3.11868 29.6722
    endloop
  endfacet
  facet normal 0 -0.104528 0.994522
    outer loop
      vertex -15 -2.12983 29.7761
      vertex -41 -3.11868 29.6722
      vertex -15 -3.11868 29.6722
    endloop
  endfacet
  facet normal 0 -1 0
    outer loop
      vertex 15 -14.9178 13.4321
      vertex 41 -14.9178 16.5679
      vertex 15 -14.9178 16.5679
    endloop
  endfacet
  facet normal 0 -1 -0
    outer loop
      vertex 41 -14.9178 16.5679
      vertex 15 -14.9178 13.4321
      vertex 41 -14.9178 13.4321
    endloop
  endfacet
  facet normal 0 -1 0
    outer loop
      vertex -41 -14.9178 13.4321
      vertex -15 -14.9178 16.5679
      vertex -41 -14.9178 16.5679
    endloop
  endfacet
  facet normal 0 -1 -0
    outer loop
      vertex -15 -14.9178 16.5679
      vertex -41 -14.9178 13.4321
      vertex -15 -14.9178 13.4321
    endloop
  endfacet
  facet normal 0 -0.5 -0.866025
    outer loop
      vertex -41 -8.81678 2.86474
      vertex -15 -6.10105 1.29682
      vertex -15 -8.81678 2.86474
    endloop
  endfacet
  facet normal -0 -0.5 -0.866025
    outer loop
      vertex -15 -6.10105 1.29682
      vertex -41 -8.81678 2.86474
      vertex -41 -6.10105 1.29682
    endloop
  endfacet
  facet normal 0 -0.5 -0.866025
    outer loop
      vertex 15 -8.81678 2.86474
      vertex 41 -6.10105 1.29682
      vertex 41 -8.81678 2.86474
    endloop
  endfacet
  facet normal -0 -0.5 -0.866025
    outer loop
      vertex 41 -6.10105 1.29682
      vertex 15 -8.81678 2.86474
      vertex 15 -6.10105 1.29682
    endloop
  endfacet
  facet normal -0 0.309017 0.951057
    outer loop
      vertex 15 6.10105 28.7032
      vertex 41 3.11868 29.6722
      vertex 41 6.10105 28.7032
    endloop
  endfacet
  facet normal 0 0.309017 0.951057
    outer loop
      vertex 41 3.11868 29.6722
      vertex 15 6.10105 28.7032
      vertex 15 3.11868 29.6722
    endloop
  endfacet
  facet normal -0 0.309017 0.951057
    outer loop
      vertex -41 6.10105 28.7032
      vertex -15 3.11868 29.6722
      vertex -15 6.10105 28.7032
    endloop
  endfacet
  facet normal 0 0.309017 0.951057
    outer loop
      vertex -15 3.11868 29.6722
      vertex -41 6.10105 28.7032
      vertex -41 3.11868 29.6722
    endloop
  endfacet
  facet normal 0 0.669131 -0.743145
    outer loop
      vertex -41 8.81678 2.86474
      vertex -15 11.1472 4.96304
      vertex -15 8.81678 2.86474
    endloop
  endfacet
  facet normal 0 0.669131 -0.743145
    outer loop
      vertex -15 11.1472 4.96304
      vertex -41 8.81678 2.86474
      vertex -41 11.1472 4.96304
    endloop
  endfacet
  facet normal 0 0.669131 -0.743145
    outer loop
      vertex 15 8.81678 2.86474
      vertex 41 11.1472 4.96304
      vertex 41 8.81678 2.86474
    endloop
  endfacet
  facet normal 0 0.669131 -0.743145
    outer loop
      vertex 41 11.1472 4.96304
      vertex 15 8.81678 2.86474
      vertex 15 11.1472 4.96304
    endloop
  endfacet
  facet normal 0 0.309017 -0.951057
    outer loop
      vertex -41 3.11868 0.327785
      vertex -15 6.10105 1.29682
      vertex -15 3.11868 0.327785
    endloop
  endfacet
  facet normal 0 0.309017 -0.951057
    outer loop
      vertex -15 6.10105 1.29682
      vertex -41 3.11868 0.327785
      vertex -41 6.10105 1.29682
    endloop
  endfacet
  facet normal 0 0.309017 -0.951057
    outer loop
      vertex 15 3.11868 0.327785
      vertex 41 6.10105 1.29682
      vertex 41 3.11868 0.327785
    endloop
  endfacet
  facet normal 0 0.309017 -0.951057
    outer loop
      vertex 41 6.10105 1.29682
      vertex 15 3.11868 0.327785
      vertex 15 6.10105 1.29682
    endloop
  endfacet
  facet normal 1.07799e-08 0.809017 -0.587785
    outer loop
      vertex -15 12.4059 6.6956
      vertex -41 12.9904 7.5
      vertex -15 12.9904 7.5
    endloop
  endfacet
  facet normal 1.07799e-08 0.809017 -0.587785
    outer loop
      vertex 41 12.9904 7.5
      vertex 15 11.7316 5.76744
      vertex 15 12.9904 7.5
    endloop
  endfacet
  facet normal 2.02967e-09 0.809017 -0.587785
    outer loop
      vertex 15 11.7316 5.76744
      vertex 41 12.9904 7.5
      vertex 41 11.1472 4.96304
    endloop
  endfacet
  facet normal 0 -0.309017 0.951057
    outer loop
      vertex -41 -3.11868 29.6722
      vertex -15 -6.10105 28.7032
      vertex -15 -3.11868 29.6722
    endloop
  endfacet
  facet normal 0 -0.309017 0.951057
    outer loop
      vertex -15 -6.10105 28.7032
      vertex -41 -3.11868 29.6722
      vertex -41 -6.10105 28.7032
    endloop
  endfacet
  facet normal 0 -0.309017 0.951057
    outer loop
      vertex 15 -3.11868 29.6722
      vertex 41 -6.10105 28.7032
      vertex 41 -3.11868 29.6722
    endloop
  endfacet
  facet normal 0 -0.309017 0.951057
    outer loop
      vertex 41 -6.10105 28.7032
      vertex 15 -3.11868 29.6722
      vertex 15 -6.10105 28.7032
    endloop
  endfacet
  facet normal 0 -0.5 0.866025
    outer loop
      vertex -41 -6.10105 28.7032
      vertex -15 -8.81678 27.1353
      vertex -15 -6.10105 28.7032
    endloop
  endfacet
  facet normal 0 -0.5 0.866025
    outer loop
      vertex -15 -8.81678 27.1353
      vertex -41 -6.10105 28.7032
      vertex -41 -8.81678 27.1353
    endloop
  endfacet
  facet normal 0 -0.5 0.866025
    outer loop
      vertex 15 -6.10105 28.7032
      vertex 41 -8.81678 27.1353
      vertex 41 -6.10105 28.7032
    endloop
  endfacet
  facet normal 0 -0.5 0.866025
    outer loop
      vertex 41 -8.81678 27.1353
      vertex 15 -6.10105 28.7032
      vertex 15 -8.81678 27.1353
    endloop
  endfacet
  facet normal 0 -0.978148 -0.207912
    outer loop
      vertex -41 -14.2658 10.3647
      vertex -15 -14.9178 13.4321
      vertex -41 -14.9178 13.4321
    endloop
  endfacet
  facet normal 0 -0.978148 -0.207912
    outer loop
      vertex -15 -14.9178 13.4321
      vertex -41 -14.2658 10.3647
      vertex -15 -14.2658 10.3647
    endloop
  endfacet
  facet normal 0 -0.978148 -0.207912
    outer loop
      vertex 15 -14.2658 10.3647
      vertex 41 -14.9178 13.4321
      vertex 15 -14.9178 13.4321
    endloop
  endfacet
  facet normal 0 -0.978148 -0.207912
    outer loop
      vertex 41 -14.9178 13.4321
      vertex 15 -14.2658 10.3647
      vertex 41 -14.2658 10.3647
    endloop
  endfacet
  facet normal 1 0 0
    outer loop
      vertex 41 14.2658 19.6353
      vertex 41 14.9178 13.4321
      vertex 41 14.9178 16.5679
    endloop
  endfacet
  facet normal 1 0 0
    outer loop
      vertex 41 14.2658 19.6353
      vertex 41 14.2658 10.3647
      vertex 41 14.9178 13.4321
    endloop
  endfacet
  facet normal 1 0 0
    outer loop
      vertex 41 12.9904 22.5
      vertex 41 14.2658 10.3647
      vertex 41 14.2658 19.6353
    endloop
  endfacet
  facet normal 1 0 0
    outer loop
      vertex 41 12.9904 22.5
      vertex 41 12.9904 7.5
      vertex 41 14.2658 10.3647
    endloop
  endfacet
  facet normal 1 0 0
    outer loop
      vertex 41 11.1472 25.037
      vertex 41 12.9904 7.5
      vertex 41 12.9904 22.5
    endloop
  endfacet
  facet normal 1 0 0
    outer loop
      vertex 41 11.1472 25.037
      vertex 41 11.1472 4.96304
      vertex 41 12.9904 7.5
    endloop
  endfacet
  facet normal 1 0 0
    outer loop
      vertex 41 8.81678 27.1353
      vertex 41 11.1472 4.96304
      vertex 41 11.1472 25.037
    endloop
  endfacet
  facet normal 1 0 0
    outer loop
      vertex 41 8.81678 27.1353
      vertex 41 8.81678 2.86474
      vertex 41 11.1472 4.96304
    endloop
  endfacet
  facet normal 1 0 0
    outer loop
      vertex 41 6.10105 28.7032
      vertex 41 8.81678 2.86474
      vertex 41 8.81678 27.1353
    endloop
  endfacet
  facet normal 1 0 0
    outer loop
      vertex 41 6.10105 28.7032
      vertex 41 6.10105 1.29682
      vertex 41 8.81678 2.86474
    endloop
  endfacet
  facet normal 1 0 0
    outer loop
      vertex 41 3.11868 29.6722
      vertex 41 6.10105 1.29682
      vertex 41 6.10105 28.7032
    endloop
  endfacet
  facet normal 1 0 0
    outer loop
      vertex 41 3.11868 29.6722
      vertex 41 3.11868 0.327785
      vertex 41 6.10105 1.29682
    endloop
  endfacet
  facet normal 1 0 0
    outer loop
      vertex 41 0 30
      vertex 41 3.11868 0.327785
      vertex 41 3.11868 29.6722
    endloop
  endfacet
  facet normal 1 0 0
    outer loop
      vertex 41 0 30
      vertex 41 0 0
      vertex 41 3.11868 0.327785
    endloop
  endfacet
  facet normal 1 -0 0
    outer loop
      vertex 41 -3.11868 29.6722
      vertex 41 0 0
      vertex 41 0 30
    endloop
  endfacet
  facet normal 1 0 0
    outer loop
      vertex 41 -3.11868 29.6722
      vertex 41 -3.11868 0.327785
      vertex 41 0 0
    endloop
  endfacet
  facet normal 1 -0 0
    outer loop
      vertex 41 -6.10105 28.7032
      vertex 41 -3.11868 0.327785
      vertex 41 -3.11868 29.6722
    endloop
  endfacet
  facet normal 1 0 0
    outer loop
      vertex 41 -6.10105 28.7032
      vertex 41 -6.10105 1.29682
      vertex 41 -3.11868 0.327785
    endloop
  endfacet
  facet normal 1 -0 0
    outer loop
      vertex 41 -8.81678 27.1353
      vertex 41 -6.10105 1.29682
      vertex 41 -6.10105 28.7032
    endloop
  endfacet
  facet normal 1 0 0
    outer loop
      vertex 41 -8.81678 27.1353
      vertex 41 -8.81678 2.86474
      vertex 41 -6.10105 1.29682
    endloop
  endfacet
  facet normal 1 -0 0
    outer loop
      vertex 41 -11.1472 25.037
      vertex 41 -8.81678 2.86474
      vertex 41 -8.81678 27.1353
    endloop
  endfacet
  facet normal 1 0 0
    outer loop
      vertex 41 -11.1472 25.037
      vertex 41 -11.1472 4.96304
      vertex 41 -8.81678 2.86474
    endloop
  endfacet
  facet normal 1 -0 0
    outer loop
      vertex 41 -12.9904 22.5
      vertex 41 -11.1472 4.96304
      vertex 41 -11.1472 25.037
    endloop
  endfacet
  facet normal 1 0 0
    outer loop
      vertex 41 -12.9904 22.5
      vertex 41 -12.9904 7.5
      vertex 41 -11.1472 4.96304
    endloop
  endfacet
  facet normal 1 -0 0
    outer loop
      vertex 41 -14.2658 19.6353
      vertex 41 -12.9904 7.5
      vertex 41 -12.9904 22.5
    endloop
  endfacet
  facet normal 1 0 0
    outer loop
      vertex 41 -14.2658 19.6353
      vertex 41 -14.2658 10.3647
      vertex 41 -12.9904 7.5
    endloop
  endfacet
  facet normal 1 -0 0
    outer loop
      vertex 41 -14.9178 16.5679
      vertex 41 -14.2658 10.3647
      vertex 41 -14.2658 19.6353
    endloop
  endfacet
  facet normal 1 0 0
    outer loop
      vertex 41 -14.2658 10.3647
      vertex 41 -14.9178 16.5679
      vertex 41 -14.9178 13.4321
    endloop
  endfacet
  facet normal -4.80637e-09 -0.809017 -0.587785
    outer loop
      vertex -41 -11.1472 4.96304
      vertex -15 -12.4059 6.6956
      vertex -41 -12.9904 7.5
    endloop
  endfacet
  facet normal 0 -0.809017 -0.587785
    outer loop
      vertex -15 -12.4059 6.6956
      vertex -41 -11.1472 4.96304
      vertex -15 -11.1472 4.96304
    endloop
  endfacet
  facet normal -0 -0.809017 -0.587785
    outer loop
      vertex 41 -11.1472 4.96304
      vertex 15 -11.7316 5.76744
      vertex 15 -11.1472 4.96304
    endloop
  endfacet
  facet normal 0 -0.669131 -0.743145
    outer loop
      vertex -41 -11.1472 4.96304
      vertex -15 -8.81678 2.86474
      vertex -15 -11.1472 4.96304
    endloop
  endfacet
  facet normal -0 -0.669131 -0.743145
    outer loop
      vertex -15 -8.81678 2.86474
      vertex -41 -11.1472 4.96304
      vertex -41 -8.81678 2.86474
    endloop
  endfacet
  facet normal 0 -0.669131 -0.743145
    outer loop
      vertex 15 -11.1472 4.96304
      vertex 41 -8.81678 2.86474
      vertex 41 -11.1472 4.96304
    endloop
  endfacet
  facet normal -0 -0.669131 -0.743145
    outer loop
      vertex 41 -8.81678 2.86474
      vertex 15 -11.1472 4.96304
      vertex 15 -8.81678 2.86474
    endloop
  endfacet
  facet normal 1.29928e-08 -0.913545 -0.406737
    outer loop
      vertex 15 -13.8614 9.45641
      vertex 41 -12.9904 7.5
      vertex 41 -14.2658 10.3647
    endloop
  endfacet
  facet normal 7.45951e-09 -0.913545 -0.406737
    outer loop
      vertex 41 -12.9904 7.5
      vertex 15 -13.8614 9.45641
      vertex 15 -12.9904 7.5
    endloop
  endfacet
  facet normal 7.45951e-09 -0.913545 -0.406737
    outer loop
      vertex -15 -13.3948 8.40833
      vertex -41 -12.9904 7.5
      vertex -15 -12.9904 7.5
    endloop
  endfacet
  facet normal 0 -0.913545 -0.406737
    outer loop
      vertex -41 -14.2658 10.3647
      vertex -15 -13.3948 8.40833
      vertex -15 -14.2658 10.3647
    endloop
  endfacet
  facet normal 8.26237e-09 -0.913545 -0.406737
    outer loop
      vertex -15 -13.3948 8.40833
      vertex -41 -14.2658 10.3647
      vertex -41 -12.9904 7.5
    endloop
  endfacet
  facet normal -0 -0.913546 -0.406737
    outer loop
      vertex 41 -14.2658 10.3647
      vertex 15 -14.2658 10.3647
      vertex 15 -13.8614 9.45641
    endloop
  endfacet
  facet normal 0 -0.309017 -0.951057
    outer loop
      vertex -41 -6.10105 1.29682
      vertex -15 -3.11868 0.327785
      vertex -15 -6.10105 1.29682
    endloop
  endfacet
  facet normal -0 -0.309017 -0.951057
    outer loop
      vertex -15 -3.11868 0.327785
      vertex -41 -6.10105 1.29682
      vertex -41 -3.11868 0.327785
    endloop
  endfacet
  facet normal 0 -0.309017 -0.951057
    outer loop
      vertex 15 -6.10105 1.29682
      vertex 41 -3.11868 0.327785
      vertex 41 -6.10105 1.29682
    endloop
  endfacet
  facet normal -0 -0.309017 -0.951057
    outer loop
      vertex 41 -3.11868 0.327785
      vertex 15 -6.10105 1.29682
      vertex 15 -3.11868 0.327785
    endloop
  endfacet
  facet normal 0 0.104528 0.994522
    outer loop
      vertex 15 0.988848 29.8961
      vertex 15 0 30
      vertex 41 0 30
    endloop
  endfacet
  facet normal 2.12132e-08 0.104528 0.994522
    outer loop
      vertex -41 0 30
      vertex -15 2.12983 29.7761
      vertex -41 3.11868 29.6722
    endloop
  endfacet
  facet normal 0 0.104529 0.994522
    outer loop
      vertex -15 2.12983 29.7761
      vertex -41 0 30
      vertex -15 0 30
    endloop
  endfacet
  facet normal -0 0.66913 0.743145
    outer loop
      vertex 15 11.1472 25.037
      vertex 41 8.81678 27.1353
      vertex 41 11.1472 25.037
    endloop
  endfacet
  facet normal 0 0.66913 0.743145
    outer loop
      vertex 41 8.81678 27.1353
      vertex 15 11.1472 25.037
      vertex 15 8.81678 27.1353
    endloop
  endfacet
  facet normal -0 0.66913 0.743145
    outer loop
      vertex -41 11.1472 25.037
      vertex -15 8.81678 27.1353
      vertex -15 11.1472 25.037
    endloop
  endfacet
  facet normal 0 0.66913 0.743145
    outer loop
      vertex -15 8.81678 27.1353
      vertex -41 11.1472 25.037
      vertex -41 8.81678 27.1353
    endloop
  endfacet
  facet normal -0 0.809017 0.587785
    outer loop
      vertex -41 12.9904 22.5
      vertex -15 11.7316 24.2326
      vertex -15 12.9904 22.5
    endloop
  endfacet
  facet normal 4.80637e-09 0.809017 0.587785
    outer loop
      vertex -15 11.7316 24.2326
      vertex -41 12.9904 22.5
      vertex -41 11.1472 25.037
    endloop
  endfacet
  facet normal -0 0.809017 0.587785
    outer loop
      vertex 15 12.9904 22.5
      vertex 15 12.4059 23.3044
      vertex 41 12.9904 22.5
    endloop
  endfacet
  facet normal 0 0.809017 0.587785
    outer loop
      vertex 41 11.1472 25.037
      vertex 15 12.4059 23.3044
      vertex 15 11.1472 25.037
    endloop
  endfacet
  facet normal 4.80637e-09 0.809017 0.587785
    outer loop
      vertex 15 12.4059 23.3044
      vertex 41 11.1472 25.037
      vertex 41 12.9904 22.5
    endloop
  endfacet
  facet normal 0 0.809017 0.587785
    outer loop
      vertex -15 11.7316 24.2326
      vertex -41 11.1472 25.037
      vertex -15 11.1472 25.037
    endloop
  endfacet
  facet normal -1.8451e-08 0.913545 0.406737
    outer loop
      vertex 41 14.2658 19.6353
      vertex 15 13.3948 21.5917
      vertex 41 12.9904 22.5
    endloop
  endfacet
  facet normal 0 0.913545 0.406737
    outer loop
      vertex 15 13.3948 21.5917
      vertex 41 14.2658 19.6353
      vertex 15 14.2658 19.6353
    endloop
  endfacet
  facet normal 0 0.913546 0.406736
    outer loop
      vertex -15 14.2658 19.6353
      vertex -41 14.2658 19.6353
      vertex -15 13.8614 20.5436
    endloop
  endfacet
  facet normal 0 0.978148 0.207912
    outer loop
      vertex -15 14.9178 16.5679
      vertex -41 14.2658 19.6353
      vertex -15 14.2658 19.6353
    endloop
  endfacet
  facet normal 0 0.978148 0.207912
    outer loop
      vertex -41 14.2658 19.6353
      vertex -15 14.9178 16.5679
      vertex -41 14.9178 16.5679
    endloop
  endfacet
  facet normal 0 0.978148 0.207912
    outer loop
      vertex 41 14.9178 16.5679
      vertex 15 14.2658 19.6353
      vertex 41 14.2658 19.6353
    endloop
  endfacet
  facet normal 0 0.978148 0.207912
    outer loop
      vertex 15 14.2658 19.6353
      vertex 41 14.9178 16.5679
      vertex 15 14.9178 16.5679
    endloop
  endfacet
  facet normal 0 0.5 -0.866025
    outer loop
      vertex -41 6.10105 1.29682
      vertex -15 8.81678 2.86474
      vertex -15 6.10105 1.29682
    endloop
  endfacet
  facet normal 0 0.5 -0.866025
    outer loop
      vertex -15 8.81678 2.86474
      vertex -41 6.10105 1.29682
      vertex -41 8.81678 2.86474
    endloop
  endfacet
  facet normal 0 0.5 -0.866025
    outer loop
      vertex 15 6.10105 1.29682
      vertex 41 8.81678 2.86474
      vertex 41 6.10105 1.29682
    endloop
  endfacet
  facet normal 0 0.5 -0.866025
    outer loop
      vertex 41 8.81678 2.86474
      vertex 15 6.10105 1.29682
      vertex 15 8.81678 2.86474
    endloop
  endfacet
  facet normal 0 -0.913545 0.406737
    outer loop
      vertex 15 -14.2658 19.6353
      vertex 41 -12.9904 22.5
      vertex 15 -12.9904 22.5
    endloop
  endfacet
  facet normal 0 -0.913545 0.406737
    outer loop
      vertex 41 -12.9904 22.5
      vertex 15 -14.2658 19.6353
      vertex 41 -14.2658 19.6353
    endloop
  endfacet
  facet normal 0 -0.913545 0.406737
    outer loop
      vertex -41 -14.2658 19.6353
      vertex -15 -12.9904 22.5
      vertex -41 -12.9904 22.5
    endloop
  endfacet
  facet normal 0 -0.913545 0.406737
    outer loop
      vertex -15 -12.9904 22.5
      vertex -41 -14.2658 19.6353
      vertex -15 -14.2658 19.6353
    endloop
  endfacet
  facet normal 1.07799e-08 -0.809017 -0.587785
    outer loop
      vertex 15 -11.7316 5.76744
      vertex 41 -12.9904 7.5
      vertex 15 -12.9904 7.5
    endloop
  endfacet
  facet normal 2.02967e-09 -0.809017 -0.587785
    outer loop
      vertex 41 -12.9904 7.5
      vertex 15 -11.7316 5.76744
      vertex 41 -11.1472 4.96304
    endloop
  endfacet
  facet normal 1.07799e-08 -0.809017 -0.587785
    outer loop
      vertex -15 -12.9904 7.5
      vertex -41 -12.9904 7.5
      vertex -15 -12.4059 6.6956
    endloop
  endfacet
  facet normal 0 0.104529 0.994522
    outer loop
      vertex 15 0.988848 29.8961
      vertex 41 3.11868 29.6722
      vertex 15 3.11868 29.6722
    endloop
  endfacet
  facet normal 2.14528e-08 0.104528 0.994522
    outer loop
      vertex 41 3.11868 29.6722
      vertex 15 0.988848 29.8961
      vertex 41 0 30
    endloop
  endfacet
  facet normal 0 0.104528 0.994522
    outer loop
      vertex -15 3.11868 29.6722
      vertex -41 3.11868 29.6722
      vertex -15 2.12983 29.7761
    endloop
  endfacet
  facet normal -0 0.5 0.866025
    outer loop
      vertex 15 8.81678 27.1353
      vertex 41 6.10105 28.7032
      vertex 41 8.81678 27.1353
    endloop
  endfacet
  facet normal 0 0.5 0.866025
    outer loop
      vertex 41 6.10105 28.7032
      vertex 15 8.81678 27.1353
      vertex 15 6.10105 28.7032
    endloop
  endfacet
  facet normal -0 0.5 0.866025
    outer loop
      vertex -41 8.81678 27.1353
      vertex -15 6.10105 28.7032
      vertex -15 8.81678 27.1353
    endloop
  endfacet
  facet normal 0 0.5 0.866025
    outer loop
      vertex -15 6.10105 28.7032
      vertex -41 8.81678 27.1353
      vertex -41 6.10105 28.7032
    endloop
  endfacet
  facet normal 0 -0.809017 0.587785
    outer loop
      vertex 15 -12.9904 22.5
      vertex 41 -11.1472 25.037
      vertex 15 -11.1472 25.037
    endloop
  endfacet
  facet normal 0 -0.809017 0.587785
    outer loop
      vertex 41 -11.1472 25.037
      vertex 15 -12.9904 22.5
      vertex 41 -12.9904 22.5
    endloop
  endfacet
  facet normal 0 -0.809017 0.587785
    outer loop
      vertex -41 -12.9904 22.5
      vertex -15 -11.1472 25.037
      vertex -41 -11.1472 25.037
    endloop
  endfacet
  facet normal 0 -0.809017 0.587785
    outer loop
      vertex -15 -11.1472 25.037
      vertex -41 -12.9904 22.5
      vertex -15 -12.9904 22.5
    endloop
  endfacet
  facet normal 0 -0.66913 0.743145
    outer loop
      vertex 15 -8.81678 27.1353
      vertex 41 -11.1472 25.037
      vertex 41 -8.81678 27.1353
    endloop
  endfacet
  facet normal 0 -0.66913 0.743145
    outer loop
      vertex 41 -11.1472 25.037
      vertex 15 -8.81678 27.1353
      vertex 15 -11.1472 25.037
    endloop
  endfacet
  facet normal 0 -0.66913 0.743145
    outer loop
      vertex -41 -8.81678 27.1353
      vertex -15 -11.1472 25.037
      vertex -15 -8.81678 27.1353
    endloop
  endfacet
  facet normal 0 -0.66913 0.743145
    outer loop
      vertex -15 -11.1472 25.037
      vertex -41 -8.81678 27.1353
      vertex -41 -11.1472 25.037
    endloop
  endfacet
  facet normal -0.866025 -0.5 0
    outer loop
      vertex 11.4193 5.08421 25
      vertex 10.1127 7.34731 30
      vertex 10.1127 7.34731 25
    endloop
  endfacet
  facet normal -0.866025 -0.5 0
    outer loop
      vertex 10.1127 7.34731 30
      vertex 11.4193 5.08421 25
      vertex 11.4193 5.08421 30
    endloop
  endfacet
  facet normal 0 -1 0
    outer loop
      vertex -1.30661 12.4315 25
      vertex 1.30661 12.4315 30
      vertex -1.30661 12.4315 30
    endloop
  endfacet
  facet normal 0 -1 -0
    outer loop
      vertex 1.30661 12.4315 30
      vertex -1.30661 12.4315 25
      vertex 1.30661 12.4315 25
    endloop
  endfacet
  facet normal -0.743145 -0.669131 0
    outer loop
      vertex 10.1127 7.34731 25
      vertex 8.36413 9.28931 30
      vertex 8.36413 9.28931 25
    endloop
  endfacet
  facet normal -0.743145 -0.669131 0
    outer loop
      vertex 8.36413 9.28931 30
      vertex 10.1127 7.34731 25
      vertex 10.1127 7.34731 30
    endloop
  endfacet
  facet normal -0.207912 -0.978148 0
    outer loop
      vertex 1.30661 12.4315 25
      vertex 3.86271 11.8882 30
      vertex 1.30661 12.4315 30
    endloop
  endfacet
  facet normal -0.207912 -0.978148 -0
    outer loop
      vertex 3.86271 11.8882 30
      vertex 1.30661 12.4315 25
      vertex 3.86271 11.8882 25
    endloop
  endfacet
  facet normal 0.406736 -0.913546 0
    outer loop
      vertex -6.25 10.8253 25
      vertex -3.86271 11.8882 30
      vertex -6.25 10.8253 30
    endloop
  endfacet
  facet normal 0.406736 -0.913546 0
    outer loop
      vertex -3.86271 11.8882 30
      vertex -6.25 10.8253 25
      vertex -3.86271 11.8882 25
    endloop
  endfacet
  facet normal -0.994522 0.104529 0
    outer loop
      vertex 12.2268 -2.5989 25
      vertex 12.5 0 30
      vertex 12.5 0 25
    endloop
  endfacet
  facet normal -0.994522 0.104529 0
    outer loop
      vertex 12.5 0 30
      vertex 12.2268 -2.5989 25
      vertex 12.2268 -2.5989 30
    endloop
  endfacet
  facet normal -0.207912 0.978148 0
    outer loop
      vertex 3.86271 -11.8882 25
      vertex 1.30661 -12.4315 30
      vertex 3.86271 -11.8882 30
    endloop
  endfacet
  facet normal -0.207912 0.978148 0
    outer loop
      vertex 1.30661 -12.4315 30
      vertex 3.86271 -11.8882 25
      vertex 1.30661 -12.4315 25
    endloop
  endfacet
  facet normal -0.951057 -0.309017 0
    outer loop
      vertex 12.2268 2.5989 25
      vertex 11.4193 5.08421 30
      vertex 11.4193 5.08421 25
    endloop
  endfacet
  facet normal -0.951057 -0.309017 0
    outer loop
      vertex 11.4193 5.08421 30
      vertex 12.2268 2.5989 25
      vertex 12.2268 2.5989 30
    endloop
  endfacet
  facet normal -0.587786 -0.809017 0
    outer loop
      vertex 6.25 10.8253 25
      vertex 8.36413 9.28931 30
      vertex 6.25 10.8253 30
    endloop
  endfacet
  facet normal -0.587786 -0.809017 -0
    outer loop
      vertex 8.36413 9.28931 30
      vertex 6.25 10.8253 25
      vertex 8.36413 9.28931 25
    endloop
  endfacet
  facet normal -0.406736 -0.913546 0
    outer loop
      vertex 3.86271 11.8882 25
      vertex 6.25 10.8253 30
      vertex 3.86271 11.8882 30
    endloop
  endfacet
  facet normal -0.406736 -0.913546 -0
    outer loop
      vertex 6.25 10.8253 30
      vertex 3.86271 11.8882 25
      vertex 6.25 10.8253 25
    endloop
  endfacet
  facet normal 0.994522 -0.104529 0
    outer loop
      vertex -12.5 0 30
      vertex -12.2268 2.5989 25
      vertex -12.2268 2.5989 30
    endloop
  endfacet
  facet normal 0.994522 -0.104529 0
    outer loop
      vertex -12.2268 2.5989 25
      vertex -12.5 0 30
      vertex -12.5 0 25
    endloop
  endfacet
  facet normal 0.866025 -0.5 0
    outer loop
      vertex -11.4193 5.08421 30
      vertex -10.1127 7.34731 25
      vertex -10.1127 7.34731 30
    endloop
  endfacet
  facet normal 0.866025 -0.5 0
    outer loop
      vertex -10.1127 7.34731 25
      vertex -11.4193 5.08421 30
      vertex -11.4193 5.08421 25
    endloop
  endfacet
  facet normal 0.587785 -0.809017 0
    outer loop
      vertex -8.36413 9.28931 25
      vertex -6.25 10.8253 30
      vertex -8.36413 9.28931 30
    endloop
  endfacet
  facet normal 0.587785 -0.809017 0
    outer loop
      vertex -6.25 10.8253 30
      vertex -8.36413 9.28931 25
      vertex -6.25 10.8253 25
    endloop
  endfacet
  facet normal 0.207912 -0.978148 0
    outer loop
      vertex -3.86271 11.8882 25
      vertex -1.30661 12.4315 30
      vertex -3.86271 11.8882 30
    endloop
  endfacet
  facet normal 0.207912 -0.978148 0
    outer loop
      vertex -1.30661 12.4315 30
      vertex -3.86271 11.8882 25
      vertex -1.30661 12.4315 25
    endloop
  endfacet
  facet normal 0.743145 -0.669131 0
    outer loop
      vertex -10.1127 7.34731 30
      vertex -8.36413 9.28931 25
      vertex -8.36413 9.28931 30
    endloop
  endfacet
  facet normal 0.743145 -0.669131 0
    outer loop
      vertex -8.36413 9.28931 25
      vertex -10.1127 7.34731 30
      vertex -10.1127 7.34731 25
    endloop
  endfacet
  facet normal -0.994522 -0.104529 0
    outer loop
      vertex 12.5 0 25
      vertex 12.2268 2.5989 30
      vertex 12.2268 2.5989 25
    endloop
  endfacet
  facet normal -0.994522 -0.104529 0
    outer loop
      vertex 12.2268 2.5989 30
      vertex 12.5 0 25
      vertex 12.5 0 30
    endloop
  endfacet
  facet normal -0.951057 0.309017 0
    outer loop
      vertex 11.4193 -5.08421 25
      vertex 12.2268 -2.5989 30
      vertex 12.2268 -2.5989 25
    endloop
  endfacet
  facet normal -0.951057 0.309017 0
    outer loop
      vertex 12.2268 -2.5989 30
      vertex 11.4193 -5.08421 25
      vertex 11.4193 -5.08421 30
    endloop
  endfacet
  facet normal 0.866025 0.5 0
    outer loop
      vertex -10.1127 -7.34731 30
      vertex -11.4193 -5.08421 25
      vertex -11.4193 -5.08421 30
    endloop
  endfacet
  facet normal 0.866025 0.5 0
    outer loop
      vertex -11.4193 -5.08421 25
      vertex -10.1127 -7.34731 30
      vertex -10.1127 -7.34731 25
    endloop
  endfacet
  facet normal -0.587786 0.809017 0
    outer loop
      vertex 8.36413 -9.28931 25
      vertex 6.25 -10.8253 30
      vertex 8.36413 -9.28931 30
    endloop
  endfacet
  facet normal -0.587786 0.809017 0
    outer loop
      vertex 6.25 -10.8253 30
      vertex 8.36413 -9.28931 25
      vertex 6.25 -10.8253 25
    endloop
  endfacet
  facet normal 0.951057 -0.309017 0
    outer loop
      vertex -12.2268 2.5989 30
      vertex -11.4193 5.08421 25
      vertex -11.4193 5.08421 30
    endloop
  endfacet
  facet normal 0.951057 -0.309017 0
    outer loop
      vertex -11.4193 5.08421 25
      vertex -12.2268 2.5989 30
      vertex -12.2268 2.5989 25
    endloop
  endfacet
  facet normal -0.866025 0.5 0
    outer loop
      vertex 10.1127 -7.34731 25
      vertex 11.4193 -5.08421 30
      vertex 11.4193 -5.08421 25
    endloop
  endfacet
  facet normal -0.866025 0.5 0
    outer loop
      vertex 11.4193 -5.08421 30
      vertex 10.1127 -7.34731 25
      vertex 10.1127 -7.34731 30
    endloop
  endfacet
  facet normal 0 1 -0
    outer loop
      vertex 1.30661 -12.4315 25
      vertex -1.30661 -12.4315 30
      vertex 1.30661 -12.4315 30
    endloop
  endfacet
  facet normal 0 1 0
    outer loop
      vertex -1.30661 -12.4315 30
      vertex 1.30661 -12.4315 25
      vertex -1.30661 -12.4315 25
    endloop
  endfacet
  facet normal 0 0 1
    outer loop
      vertex 12.2268 2.5989 25
      vertex 12.2268 -2.5989 25
      vertex 12.5 0 25
    endloop
  endfacet
  facet normal 0 0 1
    outer loop
      vertex 11.4193 5.08421 25
      vertex 12.2268 -2.5989 25
      vertex 12.2268 2.5989 25
    endloop
  endfacet
  facet normal 0 0 1
    outer loop
      vertex 11.4193 5.08421 25
      vertex 11.4193 -5.08421 25
      vertex 12.2268 -2.5989 25
    endloop
  endfacet
  facet normal 0 0 1
    outer loop
      vertex 10.1127 7.34731 25
      vertex 11.4193 -5.08421 25
      vertex 11.4193 5.08421 25
    endloop
  endfacet
  facet normal 0 0 1
    outer loop
      vertex 10.1127 7.34731 25
      vertex 10.1127 -7.34731 25
      vertex 11.4193 -5.08421 25
    endloop
  endfacet
  facet normal 0 0 1
    outer loop
      vertex 8.36413 9.28931 25
      vertex 10.1127 -7.34731 25
      vertex 10.1127 7.34731 25
    endloop
  endfacet
  facet normal 0 0 1
    outer loop
      vertex 8.36413 9.28931 25
      vertex 8.36413 -9.28931 25
      vertex 10.1127 -7.34731 25
    endloop
  endfacet
  facet normal 0 0 1
    outer loop
      vertex 6.25 10.8253 25
      vertex 8.36413 -9.28931 25
      vertex 8.36413 9.28931 25
    endloop
  endfacet
  facet normal 0 0 1
    outer loop
      vertex 6.25 10.8253 25
      vertex 6.25 -10.8253 25
      vertex 8.36413 -9.28931 25
    endloop
  endfacet
  facet normal 0 0 1
    outer loop
      vertex 3.86271 11.8882 25
      vertex 6.25 -10.8253 25
      vertex 6.25 10.8253 25
    endloop
  endfacet
  facet normal 0 0 1
    outer loop
      vertex 3.86271 11.8882 25
      vertex 3.86271 -11.8882 25
      vertex 6.25 -10.8253 25
    endloop
  endfacet
  facet normal 0 0 1
    outer loop
      vertex 1.30661 12.4315 25
      vertex 3.86271 -11.8882 25
      vertex 3.86271 11.8882 25
    endloop
  endfacet
  facet normal 0 0 1
    outer loop
      vertex 1.30661 12.4315 25
      vertex 1.30661 -12.4315 25
      vertex 3.86271 -11.8882 25
    endloop
  endfacet
  facet normal -0 0 1
    outer loop
      vertex -1.30661 12.4315 25
      vertex 1.30661 -12.4315 25
      vertex 1.30661 12.4315 25
    endloop
  endfacet
  facet normal 0 0 1
    outer loop
      vertex -1.30661 12.4315 25
      vertex -1.30661 -12.4315 25
      vertex 1.30661 -12.4315 25
    endloop
  endfacet
  facet normal -0 0 1
    outer loop
      vertex -3.86271 11.8882 25
      vertex -1.30661 -12.4315 25
      vertex -1.30661 12.4315 25
    endloop
  endfacet
  facet normal 0 0 1
    outer loop
      vertex -3.86271 11.8882 25
      vertex -3.86271 -11.8882 25
      vertex -1.30661 -12.4315 25
    endloop
  endfacet
  facet normal -0 0 1
    outer loop
      vertex -6.25 10.8253 25
      vertex -3.86271 -11.8882 25
      vertex -3.86271 11.8882 25
    endloop
  endfacet
  facet normal 0 0 1
    outer loop
      vertex -6.25 10.8253 25
      vertex -6.25 -10.8253 25
      vertex -3.86271 -11.8882 25
    endloop
  endfacet
  facet normal -0 0 1
    outer loop
      vertex -8.36413 9.28931 25
      vertex -6.25 -10.8253 25
      vertex -6.25 10.8253 25
    endloop
  endfacet
  facet normal 0 0 1
    outer loop
      vertex -8.36413 9.28931 25
      vertex -8.36413 -9.28931 25
      vertex -6.25 -10.8253 25
    endloop
  endfacet
  facet normal -0 0 1
    outer loop
      vertex -10.1127 7.34731 25
      vertex -8.36413 -9.28931 25
      vertex -8.36413 9.28931 25
    endloop
  endfacet
  facet normal 0 0 1
    outer loop
      vertex -10.1127 7.34731 25
      vertex -10.1127 -7.34731 25
      vertex -8.36413 -9.28931 25
    endloop
  endfacet
  facet normal -0 0 1
    outer loop
      vertex -11.4193 5.08421 25
      vertex -10.1127 -7.34731 25
      vertex -10.1127 7.34731 25
    endloop
  endfacet
  facet normal 0 0 1
    outer loop
      vertex -11.4193 5.08421 25
      vertex -11.4193 -5.08421 25
      vertex -10.1127 -7.34731 25
    endloop
  endfacet
  facet normal -0 0 1
    outer loop
      vertex -12.2268 2.5989 25
      vertex -11.4193 -5.08421 25
      vertex -11.4193 5.08421 25
    endloop
  endfacet
  facet normal 0 0 1
    outer loop
      vertex -12.2268 2.5989 25
      vertex -12.2268 -2.5989 25
      vertex -11.4193 -5.08421 25
    endloop
  endfacet
  facet normal 0 -0 1
    outer loop
      vertex -12.2268 -2.5989 25
      vertex -12.2268 2.5989 25
      vertex -12.5 0 25
    endloop
  endfacet
  facet normal -0.406736 0.913546 0
    outer loop
      vertex 6.25 -10.8253 25
      vertex 3.86271 -11.8882 30
      vertex 6.25 -10.8253 30
    endloop
  endfacet
  facet normal -0.406736 0.913546 0
    outer loop
      vertex 3.86271 -11.8882 30
      vertex 6.25 -10.8253 25
      vertex 3.86271 -11.8882 25
    endloop
  endfacet
  facet normal 0.587786 0.809017 -0
    outer loop
      vertex -6.25 -10.8253 25
      vertex -8.36413 -9.28931 30
      vertex -6.25 -10.8253 30
    endloop
  endfacet
  facet normal 0.587786 0.809017 0
    outer loop
      vertex -8.36413 -9.28931 30
      vertex -6.25 -10.8253 25
      vertex -8.36413 -9.28931 25
    endloop
  endfacet
  facet normal 0.951057 0.309017 0
    outer loop
      vertex -11.4193 -5.08421 30
      vertex -12.2268 -2.5989 25
      vertex -12.2268 -2.5989 30
    endloop
  endfacet
  facet normal 0.951057 0.309017 0
    outer loop
      vertex -12.2268 -2.5989 25
      vertex -11.4193 -5.08421 30
      vertex -11.4193 -5.08421 25
    endloop
  endfacet
  facet normal 0.994522 0.104529 0
    outer loop
      vertex -12.2268 -2.5989 30
      vertex -12.5 0 25
      vertex -12.5 0 30
    endloop
  endfacet
  facet normal 0.994522 0.104529 0
    outer loop
      vertex -12.5 0 25
      vertex -12.2268 -2.5989 30
      vertex -12.2268 -2.5989 25
    endloop
  endfacet
  facet normal 0.743145 0.669131 0
    outer loop
      vertex -8.36413 -9.28931 30
      vertex -10.1127 -7.34731 25
      vertex -10.1127 -7.34731 30
    endloop
  endfacet
  facet normal 0.743145 0.669131 0
    outer loop
      vertex -10.1127 -7.34731 25
      vertex -8.36413 -9.28931 30
      vertex -8.36413 -9.28931 25
    endloop
  endfacet
  facet normal -0.743145 0.669131 0
    outer loop
      vertex 8.36413 -9.28931 25
      vertex 10.1127 -7.34731 30
      vertex 10.1127 -7.34731 25
    endloop
  endfacet
  facet normal -0.743145 0.669131 0
    outer loop
      vertex 10.1127 -7.34731 30
      vertex 8.36413 -9.28931 25
      vertex 8.36413 -9.28931 30
    endloop
  endfacet
  facet normal 0.406736 0.913546 -0
    outer loop
      vertex -3.86271 -11.8882 25
      vertex -6.25 -10.8253 30
      vertex -3.86271 -11.8882 30
    endloop
  endfacet
  facet normal 0.406736 0.913546 0
    outer loop
      vertex -6.25 -10.8253 30
      vertex -3.86271 -11.8882 25
      vertex -6.25 -10.8253 25
    endloop
  endfacet
  facet normal 0.207912 0.978148 -0
    outer loop
      vertex -1.30661 -12.4315 25
      vertex -3.86271 -11.8882 30
      vertex -1.30661 -12.4315 30
    endloop
  endfacet
  facet normal 0.207912 0.978148 0
    outer loop
      vertex -3.86271 -11.8882 30
      vertex -1.30661 -12.4315 25
      vertex -3.86271 -11.8882 25
    endloop
  endfacet
endsolid OpenSCAD_Model
