solid OpenSCAD_Model
  facet normal -1 -0 0
    outer loop
      vertex -15 -14.9178 13.4321
      vertex -15 -15 0
      vertex -15 -14.9178 16.5679
    endloop
  endfacet
  facet normal -1 -0 0
    outer loop
      vertex -15 -14.2658 10.3647
      vertex -15 -15 0
      vertex -15 -14.9178 13.4321
    endloop
  endfacet
  facet normal -1 -0 0
    outer loop
      vertex -15 -13.1726 7.90925
      vertex -15 -15 0
      vertex -15 -14.2658 10.3647
    endloop
  endfacet
  facet normal -1 -0 0
    outer loop
      vertex -15 -12.9904 7.5
      vertex -15 -15 0
      vertex -15 -13.1726 7.90925
    endloop
  endfacet
  facet normal -1 -0 0
    outer loop
      vertex -15 -12.7271 7.13758
      vertex -15 -15 0
      vertex -15 -12.9904 7.5
    endloop
  endfacet
  facet normal -1 -0 0
    outer loop
      vertex -15 -11.1472 4.96304
      vertex -15 -15 0
      vertex -15 -12.7271 7.13758
    endloop
  endfacet
  facet normal -1 -0 0
    outer loop
      vertex -15 -8.81678 2.86474
      vertex -15 -15 0
      vertex -15 -11.1472 4.96304
    endloop
  endfacet
  facet normal -1 -0 0
    outer loop
      vertex -15 -6.10105 1.29682
      vertex -15 -15 0
      vertex -15 -8.81678 2.86474
    endloop
  endfacet
  facet normal -1 -0 0
    outer loop
      vertex -15 -3.11868 0.327785
      vertex -15 -15 0
      vertex -15 -6.10105 1.29682
    endloop
  endfacet
  facet normal -1 0 0
    outer loop
      vertex -15 -15 0
      vertex -15 -3.11868 0.327785
      vertex -15 0 0
    endloop
  endfacet
  facet normal -1 0 0
    outer loop
      vertex -15 15 0
      vertex -15 14.9178 13.4321
      vertex -15 15 30
    endloop
  endfacet
  facet normal -1 0 0
    outer loop
      vertex -15 15 0
      vertex -15 14.2658 10.3647
      vertex -15 14.9178 13.4321
    endloop
  endfacet
  facet normal -1 0 0
    outer loop
      vertex -15 15 0
      vertex -15 13.1726 7.90925
      vertex -15 14.2658 10.3647
    endloop
  endfacet
  facet normal -1 0 0
    outer loop
      vertex -15 15 0
      vertex -15 12.9904 7.5
      vertex -15 13.1726 7.90925
    endloop
  endfacet
  facet normal -1 0 0
    outer loop
      vertex -15 15 0
      vertex -15 12.7271 7.13758
      vertex -15 12.9904 7.5
    endloop
  endfacet
  facet normal -1 0 0
    outer loop
      vertex -15 15 0
      vertex -15 11.1472 4.96304
      vertex -15 12.7271 7.13758
    endloop
  endfacet
  facet normal -1 0 0
    outer loop
      vertex -15 15 0
      vertex -15 8.81678 2.86474
      vertex -15 11.1472 4.96304
    endloop
  endfacet
  facet normal -1 0 0
    outer loop
      vertex -15 15 0
      vertex -15 6.10105 1.29682
      vertex -15 8.81678 2.86474
    endloop
  endfacet
  facet normal -1 0 0
    outer loop
      vertex -15 15 0
      vertex -15 3.11868 0.327785
      vertex -15 6.10105 1.29682
    endloop
  endfacet
  facet normal -1 0 -0
    outer loop
      vertex -15 3.11868 0.327785
      vertex -15 15 0
      vertex -15 0 0
    endloop
  endfacet
  facet normal -1 0 0
    outer loop
      vertex -15 14.9178 16.5679
      vertex -15 15 30
      vertex -15 14.9178 13.4321
    endloop
  endfacet
  facet normal -1 0 0
    outer loop
      vertex -15 14.2658 19.6353
      vertex -15 15 30
      vertex -15 14.9178 16.5679
    endloop
  endfacet
  facet normal -1 0 0
    outer loop
      vertex -15 14.0836 20.0445
      vertex -15 15 30
      vertex -15 14.2658 19.6353
    endloop
  endfacet
  facet normal -1 0 0
    outer loop
      vertex -15 12.9904 22.5
      vertex -15 15 30
      vertex -15 14.0836 20.0445
    endloop
  endfacet
  facet normal -1 0 0
    outer loop
      vertex -15 11.4105 24.6745
      vertex -15 15 30
      vertex -15 12.9904 22.5
    endloop
  endfacet
  facet normal -1 0 0
    outer loop
      vertex -15 11.1472 25.037
      vertex -15 15 30
      vertex -15 11.4105 24.6745
    endloop
  endfacet
  facet normal -1 0 0
    outer loop
      vertex -15 8.81678 27.1353
      vertex -15 15 30
      vertex -15 11.1472 25.037
    endloop
  endfacet
  facet normal -1 0 0
    outer loop
      vertex -15 6.10105 28.7032
      vertex -15 15 30
      vertex -15 8.81678 27.1353
    endloop
  endfacet
  facet normal -1 0 0
    outer loop
      vertex -15 3.11868 29.6722
      vertex -15 15 30
      vertex -15 6.10105 28.7032
    endloop
  endfacet
  facet normal -1 0 0
    outer loop
      vertex -15 2.67315 29.719
      vertex -15 15 30
      vertex -15 3.11868 29.6722
    endloop
  endfacet
  facet normal -1 -0 0
    outer loop
      vertex -15 15 30
      vertex -15 2.67315 29.719
      vertex -15 0 30
    endloop
  endfacet
  facet normal -1 0 0
    outer loop
      vertex -15 -15 30
      vertex -15 -2.67315 29.719
      vertex -15 -3.11868 29.6722
    endloop
  endfacet
  facet normal -1 0 0
    outer loop
      vertex -15 -2.67315 29.719
      vertex -15 -15 30
      vertex -15 0 30
    endloop
  endfacet
  facet normal -1 0 0
    outer loop
      vertex -15 -6.10105 28.7032
      vertex -15 -15 30
      vertex -15 -3.11868 29.6722
    endloop
  endfacet
  facet normal -1 0 0
    outer loop
      vertex -15 -8.81678 27.1353
      vertex -15 -15 30
      vertex -15 -6.10105 28.7032
    endloop
  endfacet
  facet normal -1 0 0
    outer loop
      vertex -15 -11.1472 25.037
      vertex -15 -15 30
      vertex -15 -8.81678 27.1353
    endloop
  endfacet
  facet normal -1 0 0
    outer loop
      vertex -15 -12.9904 22.5
      vertex -15 -15 30
      vertex -15 -11.1472 25.037
    endloop
  endfacet
  facet normal -1 0 0
    outer loop
      vertex -15 -14.2658 19.6353
      vertex -15 -15 30
      vertex -15 -12.9904 22.5
    endloop
  endfacet
  facet normal -1 0 0
    outer loop
      vertex -15 -14.9178 16.5679
      vertex -15 -15 30
      vertex -15 -14.2658 19.6353
    endloop
  endfacet
  facet normal -1 0 0
    outer loop
      vertex -15 -15 30
      vertex -15 -14.9178 16.5679
      vertex -15 -15 0
    endloop
  endfacet
  facet normal -0 0 0
    outer loop
      vertex -15 0 30
      vertex -15 -15 30
      vertex -15 15 30
    endloop
  endfacet
  facet normal 0 0 1
    outer loop
      vertex 15 15 30
      vertex 5 0 30
      vertex 15 -15 30
    endloop
  endfacet
  facet normal 0 0 1
    outer loop
      vertex 15 15 30
      vertex 4.6194 1.91342 30
      vertex 5 0 30
    endloop
  endfacet
  facet normal 0 0 1
    outer loop
      vertex 15 15 30
      vertex 3.53553 3.53553 30
      vertex 4.6194 1.91342 30
    endloop
  endfacet
  facet normal 0 0 1
    outer loop
      vertex 15 15 30
      vertex 1.91342 4.6194 30
      vertex 3.53553 3.53553 30
    endloop
  endfacet
  facet normal 0 0 1
    outer loop
      vertex 15 15 30
      vertex 0 5 30
      vertex 1.91342 4.6194 30
    endloop
  endfacet
  facet normal -0 0 1
    outer loop
      vertex -15 15 30
      vertex 0 5 30
      vertex 15 15 30
    endloop
  endfacet
  facet normal 0 0 1
    outer loop
      vertex -4.6194 1.91342 30
      vertex -15 15 30
      vertex -5 0 30
    endloop
  endfacet
  facet normal 0 0 1
    outer loop
      vertex -3.53553 3.53553 30
      vertex -15 15 30
      vertex -4.6194 1.91342 30
    endloop
  endfacet
  facet normal 0 0 1
    outer loop
      vertex -1.91342 4.6194 30
      vertex -15 15 30
      vertex -3.53553 3.53553 30
    endloop
  endfacet
  facet normal 0 0 1
    outer loop
      vertex 0 5 30
      vertex -15 15 30
      vertex -1.91342 4.6194 30
    endloop
  endfacet
  facet normal -0 0 1
    outer loop
      vertex 4.6194 -1.91342 30
      vertex 15 -15 30
      vertex 5 0 30
    endloop
  endfacet
  facet normal -0 0 1
    outer loop
      vertex 3.53553 -3.53553 30
      vertex 15 -15 30
      vertex 4.6194 -1.91342 30
    endloop
  endfacet
  facet normal -0 0 1
    outer loop
      vertex 1.91342 -4.6194 30
      vertex 15 -15 30
      vertex 3.53553 -3.53553 30
    endloop
  endfacet
  facet normal -0 0 1
    outer loop
      vertex 0 -5 30
      vertex 15 -15 30
      vertex 1.91342 -4.6194 30
    endloop
  endfacet
  facet normal 0 0 1
    outer loop
      vertex -15 -15 30
      vertex 0 -5 30
      vertex -1.91342 -4.6194 30
    endloop
  endfacet
  facet normal 0 0 1
    outer loop
      vertex -15 -15 30
      vertex -5 0 30
      vertex -15 15 30
    endloop
  endfacet
  facet normal 0 0 1
    outer loop
      vertex 0 -5 30
      vertex -15 -15 30
      vertex 15 -15 30
    endloop
  endfacet
  facet normal 0 0 1
    outer loop
      vertex -3.53553 -3.53553 30
      vertex -15 -15 30
      vertex -1.91342 -4.6194 30
    endloop
  endfacet
  facet normal 0 0 1
    outer loop
      vertex -4.6194 -1.91342 30
      vertex -15 -15 30
      vertex -3.53553 -3.53553 30
    endloop
  endfacet
  facet normal 0 0 1
    outer loop
      vertex -5 0 30
      vertex -15 -15 30
      vertex -4.6194 -1.91342 30
    endloop
  endfacet
  facet normal 1 -0 0
    outer loop
      vertex 15 -15 30
      vertex 15 -0.445525 29.9532
      vertex 15 0 30
    endloop
  endfacet
  facet normal 1 0 0
    outer loop
      vertex 15 -14.9178 16.5679
      vertex 15 -15 30
      vertex 15 -14.9178 13.4321
    endloop
  endfacet
  facet normal 1 0 0
    outer loop
      vertex 15 -14.2658 19.6353
      vertex 15 -15 30
      vertex 15 -14.9178 16.5679
    endloop
  endfacet
  facet normal 1 0 0
    outer loop
      vertex 15 -12.9904 22.5
      vertex 15 -15 30
      vertex 15 -14.2658 19.6353
    endloop
  endfacet
  facet normal 1 0 0
    outer loop
      vertex 15 -11.1472 25.037
      vertex 15 -15 30
      vertex 15 -12.9904 22.5
    endloop
  endfacet
  facet normal 1 0 0
    outer loop
      vertex 15 -8.81678 27.1353
      vertex 15 -15 30
      vertex 15 -11.1472 25.037
    endloop
  endfacet
  facet normal 1 0 0
    outer loop
      vertex 15 -6.10105 28.7032
      vertex 15 -15 30
      vertex 15 -8.81678 27.1353
    endloop
  endfacet
  facet normal 1 0 0
    outer loop
      vertex 15 -3.11868 29.6722
      vertex 15 -15 30
      vertex 15 -6.10105 28.7032
    endloop
  endfacet
  facet normal 1 0 0
    outer loop
      vertex 15 -0.445525 29.9532
      vertex 15 -15 30
      vertex 15 -3.11868 29.6722
    endloop
  endfacet
  facet normal 1 0 0
    outer loop
      vertex 15 15 30
      vertex 15 14.9178 16.5679
      vertex 15 15 0
    endloop
  endfacet
  facet normal 1 0 0
    outer loop
      vertex 15 15 30
      vertex 15 14.2658 19.6353
      vertex 15 14.9178 16.5679
    endloop
  endfacet
  facet normal 1 0 0
    outer loop
      vertex 15 15 30
      vertex 15 13.1726 22.0908
      vertex 15 14.2658 19.6353
    endloop
  endfacet
  facet normal 1 0 0
    outer loop
      vertex 15 15 30
      vertex 15 12.9904 22.5
      vertex 15 13.1726 22.0908
    endloop
  endfacet
  facet normal 1 0 0
    outer loop
      vertex 15 15 30
      vertex 15 12.7271 22.8624
      vertex 15 12.9904 22.5
    endloop
  endfacet
  facet normal 1 0 0
    outer loop
      vertex 15 15 30
      vertex 15 11.1472 25.037
      vertex 15 12.7271 22.8624
    endloop
  endfacet
  facet normal 1 0 0
    outer loop
      vertex 15 15 30
      vertex 15 8.81678 27.1353
      vertex 15 11.1472 25.037
    endloop
  endfacet
  facet normal 1 0 0
    outer loop
      vertex 15 15 30
      vertex 15 6.10105 28.7032
      vertex 15 8.81678 27.1353
    endloop
  endfacet
  facet normal 1 0 0
    outer loop
      vertex 15 15 30
      vertex 15 3.11868 29.6722
      vertex 15 6.10105 28.7032
    endloop
  endfacet
  facet normal 1 0 0
    outer loop
      vertex 15 15 30
      vertex 15 0.445525 29.9532
      vertex 15 3.11868 29.6722
    endloop
  endfacet
  facet normal 1 0 -0
    outer loop
      vertex 15 0.445525 29.9532
      vertex 15 15 30
      vertex 15 0 30
    endloop
  endfacet
  facet normal 1 -0 0
    outer loop
      vertex 15 14.9178 13.4321
      vertex 15 15 0
      vertex 15 14.9178 16.5679
    endloop
  endfacet
  facet normal 1 -0 0
    outer loop
      vertex 15 14.2658 10.3647
      vertex 15 15 0
      vertex 15 14.9178 13.4321
    endloop
  endfacet
  facet normal 1 -0 0
    outer loop
      vertex 15 14.0836 9.95549
      vertex 15 15 0
      vertex 15 14.2658 10.3647
    endloop
  endfacet
  facet normal 1 -0 0
    outer loop
      vertex 15 12.9904 7.5
      vertex 15 15 0
      vertex 15 14.0836 9.95549
    endloop
  endfacet
  facet normal 1 -0 0
    outer loop
      vertex 15 11.4105 5.32546
      vertex 15 15 0
      vertex 15 12.9904 7.5
    endloop
  endfacet
  facet normal 1 -0 0
    outer loop
      vertex 15 11.1472 4.96304
      vertex 15 15 0
      vertex 15 11.4105 5.32546
    endloop
  endfacet
  facet normal 1 -0 0
    outer loop
      vertex 15 8.81678 2.86474
      vertex 15 15 0
      vertex 15 11.1472 4.96304
    endloop
  endfacet
  facet normal 1 -0 0
    outer loop
      vertex 15 6.10105 1.29682
      vertex 15 15 0
      vertex 15 8.81678 2.86474
    endloop
  endfacet
  facet normal 1 -0 0
    outer loop
      vertex 15 3.11868 0.327785
      vertex 15 15 0
      vertex 15 6.10105 1.29682
    endloop
  endfacet
  facet normal 1 0 0
    outer loop
      vertex 15 15 0
      vertex 15 3.11868 0.327785
      vertex 15 0 0
    endloop
  endfacet
  facet normal 1 0 0
    outer loop
      vertex 15 -15 0
      vertex 15 -11.4105 5.32546
      vertex 15 -12.9904 7.5
    endloop
  endfacet
  facet normal 1 0 0
    outer loop
      vertex 15 -15 0
      vertex 15 -14.0836 9.95549
      vertex 15 -14.2658 10.3647
    endloop
  endfacet
  facet normal 1 0 0
    outer loop
      vertex 15 -3.11868 0.327785
      vertex 15 -15 0
      vertex 15 0 0
    endloop
  endfacet
  facet normal 1 0 0
    outer loop
      vertex 15 -6.10105 1.29682
      vertex 15 -15 0
      vertex 15 -3.11868 0.327785
    endloop
  endfacet
  facet normal 1 0 0
    outer loop
      vertex 15 -8.81678 2.86474
      vertex 15 -15 0
      vertex 15 -6.10105 1.29682
    endloop
  endfacet
  facet normal 1 0 0
    outer loop
      vertex 15 -11.1472 4.96304
      vertex 15 -15 0
      vertex 15 -8.81678 2.86474
    endloop
  endfacet
  facet normal 1 0 0
    outer loop
      vertex 15 -11.4105 5.32546
      vertex 15 -15 0
      vertex 15 -11.1472 4.96304
    endloop
  endfacet
  facet normal 1 0 0
    outer loop
      vertex 15 -14.0836 9.95549
      vertex 15 -15 0
      vertex 15 -12.9904 7.5
    endloop
  endfacet
  facet normal 1 0 0
    outer loop
      vertex 15 -14.9178 13.4321
      vertex 15 -15 0
      vertex 15 -14.2658 10.3647
    endloop
  endfacet
  facet normal 1 0 0
    outer loop
      vertex 15 -15 0
      vertex 15 -14.9178 13.4321
      vertex 15 -15 30
    endloop
  endfacet
  facet normal 0 0 -0
    outer loop
      vertex 15 0 30
      vertex 15 15 30
      vertex 15 -15 30
    endloop
  endfacet
  facet normal 0 1 -0
    outer loop
      vertex 15 15 0
      vertex -15 15 30
      vertex 15 15 30
    endloop
  endfacet
  facet normal 0 1 0
    outer loop
      vertex -15 15 30
      vertex 15 15 0
      vertex -15 15 0
    endloop
  endfacet
  facet normal 0 0 -1
    outer loop
      vertex 3.53553 -3.53553 0
      vertex 15 0 0
      vertex 15 -15 0
    endloop
  endfacet
  facet normal 0 0 -1
    outer loop
      vertex 4.6194 1.91342 0
      vertex 15 0 0
      vertex 5 0 0
    endloop
  endfacet
  facet normal -0 0 -1
    outer loop
      vertex 15 0 0
      vertex 4.6194 -1.91342 0
      vertex 5 0 0
    endloop
  endfacet
  facet normal 0 0 -1
    outer loop
      vertex 15 0 0
      vertex 3.53553 -3.53553 0
      vertex 4.6194 -1.91342 0
    endloop
  endfacet
  facet normal 0 0 -1
    outer loop
      vertex 15 -15 0
      vertex 1.91342 -4.6194 0
      vertex 3.53553 -3.53553 0
    endloop
  endfacet
  facet normal 0 0 -1
    outer loop
      vertex 15 -15 0
      vertex 0 -5 0
      vertex 1.91342 -4.6194 0
    endloop
  endfacet
  facet normal 0 0 -1
    outer loop
      vertex -15 -15 0
      vertex 0 -5 0
      vertex 15 -15 0
    endloop
  endfacet
  facet normal 0 0 -1
    outer loop
      vertex -3.53553 -3.53553 0
      vertex -15 0 0
      vertex -4.6194 -1.91342 0
    endloop
  endfacet
  facet normal 0 0 -1
    outer loop
      vertex -15 0 0
      vertex -3.53553 -3.53553 0
      vertex -15 -15 0
    endloop
  endfacet
  facet normal -0 0 -1
    outer loop
      vertex -1.91342 -4.6194 0
      vertex -15 -15 0
      vertex -3.53553 -3.53553 0
    endloop
  endfacet
  facet normal -0 0 -1
    outer loop
      vertex 0 -5 0
      vertex -15 -15 0
      vertex -1.91342 -4.6194 0
    endloop
  endfacet
  facet normal 0 0 -1
    outer loop
      vertex 3.53553 3.53553 0
      vertex 15 0 0
      vertex 4.6194 1.91342 0
    endloop
  endfacet
  facet normal 0 0 -1
    outer loop
      vertex 15 0 0
      vertex 3.53553 3.53553 0
      vertex 15 15 0
    endloop
  endfacet
  facet normal 0 0 -1
    outer loop
      vertex 1.91342 4.6194 0
      vertex 15 15 0
      vertex 3.53553 3.53553 0
    endloop
  endfacet
  facet normal 0 0 -1
    outer loop
      vertex 0 5 0
      vertex 15 15 0
      vertex 1.91342 4.6194 0
    endloop
  endfacet
  facet normal 0 0 -1
    outer loop
      vertex -15 15 0
      vertex 0 5 0
      vertex -1.91342 4.6194 0
    endloop
  endfacet
  facet normal 0 0 -1
    outer loop
      vertex -4.6194 -1.91342 0
      vertex -15 0 0
      vertex -5 0 0
    endloop
  endfacet
  facet normal 0 0 -1
    outer loop
      vertex -5 0 0
      vertex -15 0 0
      vertex -4.6194 1.91342 0
    endloop
  endfacet
  facet normal 0 0 -1
    outer loop
      vertex -15 0 0
      vertex -3.53553 3.53553 0
      vertex -4.6194 1.91342 0
    endloop
  endfacet
  facet normal 0 0 -1
    outer loop
      vertex -15 15 0
      vertex -3.53553 3.53553 0
      vertex -15 0 0
    endloop
  endfacet
  facet normal 0 0 -1
    outer loop
      vertex -3.53553 3.53553 0
      vertex -15 15 0
      vertex -1.91342 4.6194 0
    endloop
  endfacet
  facet normal 0 0 -1
    outer loop
      vertex 0 5 0
      vertex -15 15 0
      vertex 15 15 0
    endloop
  endfacet
  facet normal 0 -1 0
    outer loop
      vertex -15 -15 0
      vertex 15 -15 30
      vertex -15 -15 30
    endloop
  endfacet
  facet normal 0 -1 -0
    outer loop
      vertex 15 -15 30
      vertex -15 -15 0
      vertex 15 -15 0
    endloop
  endfacet
  facet normal 1 0 0
    outer loop
      vertex 21 12.9904 22.5
      vertex 21 0 30
      vertex 21 -12.9904 22.5
    endloop
  endfacet
  facet normal 0 0.104528 -0.994522
    outer loop
      vertex -21 0 0
      vertex -15 3.11868 0.327785
      vertex -15 0 0
    endloop
  endfacet
  facet normal 0 0.104528 -0.994522
    outer loop
      vertex -15 3.11868 0.327785
      vertex -21 0 0
      vertex -21 3.11868 0.327785
    endloop
  endfacet
  facet normal 0 0.104528 -0.994522
    outer loop
      vertex 15 0 0
      vertex 21 3.11868 0.327785
      vertex 21 0 0
    endloop
  endfacet
  facet normal 0 0.104528 -0.994522
    outer loop
      vertex 21 3.11868 0.327785
      vertex 15 0 0
      vertex 15 3.11868 0.327785
    endloop
  endfacet
  facet normal 0 1 -0
    outer loop
      vertex -15 14.9178 13.4321
      vertex -21 14.9178 16.5679
      vertex -15 14.9178 16.5679
    endloop
  endfacet
  facet normal 0 1 0
    outer loop
      vertex -21 14.9178 16.5679
      vertex -15 14.9178 13.4321
      vertex -21 14.9178 13.4321
    endloop
  endfacet
  facet normal 0 1 -0
    outer loop
      vertex 21 14.9178 13.4321
      vertex 15 14.9178 16.5679
      vertex 21 14.9178 16.5679
    endloop
  endfacet
  facet normal 0 1 0
    outer loop
      vertex 15 14.9178 16.5679
      vertex 21 14.9178 13.4321
      vertex 15 14.9178 13.4321
    endloop
  endfacet
  facet normal 0 0.809017 0.587785
    outer loop
      vertex 21 11.1472 25.037
      vertex 15 12.7271 22.8624
      vertex 15 11.1472 25.037
    endloop
  endfacet
  facet normal 6.34331e-08 0.809017 0.587785
    outer loop
      vertex 15 12.7271 22.8624
      vertex 21 11.1472 25.037
      vertex 21 12.9904 22.5
    endloop
  endfacet
  facet normal 0 0.809018 0.587785
    outer loop
      vertex -15 11.4105 24.6745
      vertex -21 11.1472 25.037
      vertex -15 11.1472 25.037
    endloop
  endfacet
  facet normal -1 0 0
    outer loop
      vertex -21 3.11868 0.327785
      vertex -21 12.9904 7.5
      vertex -21 6.10105 1.29682
    endloop
  endfacet
  facet normal -1 0 0
    outer loop
      vertex -21 -3.11868 0.327785
      vertex -21 -12.9904 7.5
      vertex -21 0 0
    endloop
  endfacet
  facet normal 0 0.913545 -0.406737
    outer loop
      vertex -15 12.9904 7.5
      vertex -21 12.9904 7.5
      vertex -15 13.1726 7.90925
    endloop
  endfacet
  facet normal -5.29948e-08 0.913545 -0.406737
    outer loop
      vertex 21 12.9904 7.5
      vertex 15 14.0836 9.95549
      vertex 21 14.2658 10.3647
    endloop
  endfacet
  facet normal 0 0.913545 -0.406737
    outer loop
      vertex 15 14.0836 9.95549
      vertex 21 12.9904 7.5
      vertex 15 12.9904 7.5
    endloop
  endfacet
  facet normal 0 0.809017 -0.587785
    outer loop
      vertex -21 11.1472 4.96304
      vertex -15 12.7271 7.13758
      vertex -15 11.1472 4.96304
    endloop
  endfacet
  facet normal -1.67201e-08 0.809017 -0.587785
    outer loop
      vertex -15 12.7271 7.13758
      vertex -21 11.1472 4.96304
      vertex -21 12.9904 7.5
    endloop
  endfacet
  facet normal 0 0.809017 -0.587785
    outer loop
      vertex 21 11.1472 4.96304
      vertex 15 11.1472 4.96304
      vertex 15 11.4105 5.32546
    endloop
  endfacet
  facet normal -1 0 0
    outer loop
      vertex -21 -8.81678 2.86474
      vertex -21 -12.9904 7.5
      vertex -21 -6.10105 1.29682
    endloop
  endfacet
  facet normal 0 -0.5 -0.866025
    outer loop
      vertex -21 -8.81678 2.86474
      vertex -15 -6.10105 1.29682
      vertex -15 -8.81678 2.86474
    endloop
  endfacet
  facet normal -0 -0.5 -0.866025
    outer loop
      vertex -15 -6.10105 1.29682
      vertex -21 -8.81678 2.86474
      vertex -21 -6.10105 1.29682
    endloop
  endfacet
  facet normal 0 -0.5 -0.866025
    outer loop
      vertex 15 -8.81678 2.86474
      vertex 21 -6.10105 1.29682
      vertex 21 -8.81678 2.86474
    endloop
  endfacet
  facet normal -0 -0.5 -0.866025
    outer loop
      vertex 21 -6.10105 1.29682
      vertex 15 -8.81678 2.86474
      vertex 15 -6.10105 1.29682
    endloop
  endfacet
  facet normal 1 0 0
    outer loop
      vertex 21 3.11868 29.6722
      vertex 21 0 30
      vertex 21 12.9904 22.5
    endloop
  endfacet
  facet normal 0 0.913545 -0.406737
    outer loop
      vertex -15 13.1726 7.90925
      vertex -21 14.2658 10.3647
      vertex -15 14.2658 10.3647
    endloop
  endfacet
  facet normal -6.22303e-08 0.913545 -0.406737
    outer loop
      vertex -21 14.2658 10.3647
      vertex -15 13.1726 7.90925
      vertex -21 12.9904 7.5
    endloop
  endfacet
  facet normal 0 0.913545 -0.406737
    outer loop
      vertex 21 14.2658 10.3647
      vertex 15 14.0836 9.95549
      vertex 15 14.2658 10.3647
    endloop
  endfacet
  facet normal -1 0 0
    outer loop
      vertex -21 6.10105 1.29682
      vertex -21 12.9904 7.5
      vertex -21 8.81678 2.86474
    endloop
  endfacet
  facet normal 0 0.978148 -0.207912
    outer loop
      vertex -15 14.2658 10.3647
      vertex -21 14.9178 13.4321
      vertex -15 14.9178 13.4321
    endloop
  endfacet
  facet normal 0 0.978148 -0.207912
    outer loop
      vertex -21 14.9178 13.4321
      vertex -15 14.2658 10.3647
      vertex -21 14.2658 10.3647
    endloop
  endfacet
  facet normal 0 0.978148 -0.207912
    outer loop
      vertex 21 14.2658 10.3647
      vertex 15 14.9178 13.4321
      vertex 21 14.9178 13.4321
    endloop
  endfacet
  facet normal 0 0.978148 -0.207912
    outer loop
      vertex 15 14.9178 13.4321
      vertex 21 14.2658 10.3647
      vertex 15 14.2658 10.3647
    endloop
  endfacet
  facet normal -1 0 0
    outer loop
      vertex -21 -6.10105 1.29682
      vertex -21 -12.9904 7.5
      vertex -21 -3.11868 0.327785
    endloop
  endfacet
  facet normal 0 -0.104528 -0.994522
    outer loop
      vertex 15 -3.11868 0.327785
      vertex 21 0 0
      vertex 21 -3.11868 0.327785
    endloop
  endfacet
  facet normal -0 -0.104528 -0.994522
    outer loop
      vertex 21 0 0
      vertex 15 -3.11868 0.327785
      vertex 15 0 0
    endloop
  endfacet
  facet normal 0 -0.104528 -0.994522
    outer loop
      vertex -21 -3.11868 0.327785
      vertex -15 0 0
      vertex -15 -3.11868 0.327785
    endloop
  endfacet
  facet normal -0 -0.104528 -0.994522
    outer loop
      vertex -15 0 0
      vertex -21 -3.11868 0.327785
      vertex -21 0 0
    endloop
  endfacet
  facet normal 0 -0.913545 -0.406737
    outer loop
      vertex -15 -13.1726 7.90925
      vertex -21 -12.9904 7.5
      vertex -15 -12.9904 7.5
    endloop
  endfacet
  facet normal -0 -0.913545 -0.406737
    outer loop
      vertex 21 -12.9904 7.5
      vertex 15 -14.0836 9.95549
      vertex 15 -12.9904 7.5
    endloop
  endfacet
  facet normal -5.29948e-08 -0.913545 -0.406737
    outer loop
      vertex 15 -14.0836 9.95549
      vertex 21 -12.9904 7.5
      vertex 21 -14.2658 10.3647
    endloop
  endfacet
  facet normal 0 0.104528 0.994522
    outer loop
      vertex 15 0.445525 29.9532
      vertex 21 3.11868 29.6722
      vertex 15 3.11868 29.6722
    endloop
  endfacet
  facet normal -1.36754e-07 0.104528 0.994522
    outer loop
      vertex 21 3.11868 29.6722
      vertex 15 0.445525 29.9532
      vertex 21 0 30
    endloop
  endfacet
  facet normal 0 0.104526 0.994522
    outer loop
      vertex -15 3.11868 29.6722
      vertex -21 3.11868 29.6722
      vertex -15 2.67315 29.719
    endloop
  endfacet
  facet normal 1 0 0
    outer loop
      vertex 21 -8.81678 27.1353
      vertex 21 -11.1472 25.037
      vertex 21 -12.9904 22.5
    endloop
  endfacet
  facet normal 1 0 0
    outer loop
      vertex 21 -3.11868 29.6722
      vertex 21 -6.10105 28.7032
      vertex 21 -12.9904 22.5
    endloop
  endfacet
  facet normal -0 0.5 0.866025
    outer loop
      vertex 15 8.81678 27.1353
      vertex 21 6.10105 28.7032
      vertex 21 8.81678 27.1353
    endloop
  endfacet
  facet normal 0 0.5 0.866025
    outer loop
      vertex 21 6.10105 28.7032
      vertex 15 8.81678 27.1353
      vertex 15 6.10105 28.7032
    endloop
  endfacet
  facet normal -0 0.5 0.866025
    outer loop
      vertex -21 8.81678 27.1353
      vertex -15 6.10105 28.7032
      vertex -15 8.81678 27.1353
    endloop
  endfacet
  facet normal 0 0.5 0.866025
    outer loop
      vertex -15 6.10105 28.7032
      vertex -21 8.81678 27.1353
      vertex -21 6.10105 28.7032
    endloop
  endfacet
  facet normal 1 0 0
    outer loop
      vertex 21 6.10105 28.7032
      vertex 21 3.11868 29.6722
      vertex 21 12.9904 22.5
    endloop
  endfacet
  facet normal 0 0.309017 -0.951057
    outer loop
      vertex -21 3.11868 0.327785
      vertex -15 6.10105 1.29682
      vertex -15 3.11868 0.327785
    endloop
  endfacet
  facet normal 0 0.309017 -0.951057
    outer loop
      vertex -15 6.10105 1.29682
      vertex -21 3.11868 0.327785
      vertex -21 6.10105 1.29682
    endloop
  endfacet
  facet normal 0 0.309017 -0.951057
    outer loop
      vertex 15 3.11868 0.327785
      vertex 21 6.10105 1.29682
      vertex 21 3.11868 0.327785
    endloop
  endfacet
  facet normal 0 0.309017 -0.951057
    outer loop
      vertex 21 6.10105 1.29682
      vertex 15 3.11868 0.327785
      vertex 15 6.10105 1.29682
    endloop
  endfacet
  facet normal -1 0 0
    outer loop
      vertex -21 8.81678 2.86474
      vertex -21 12.9904 7.5
      vertex -21 11.1472 4.96304
    endloop
  endfacet
  facet normal 0 0.669131 -0.743145
    outer loop
      vertex 15 8.81678 2.86474
      vertex 21 11.1472 4.96304
      vertex 21 8.81678 2.86474
    endloop
  endfacet
  facet normal 0 0.669131 -0.743145
    outer loop
      vertex 21 11.1472 4.96304
      vertex 15 8.81678 2.86474
      vertex 15 11.1472 4.96304
    endloop
  endfacet
  facet normal 0 0.669131 -0.743145
    outer loop
      vertex -21 8.81678 2.86474
      vertex -15 11.1472 4.96304
      vertex -15 8.81678 2.86474
    endloop
  endfacet
  facet normal 0 0.669131 -0.743145
    outer loop
      vertex -15 11.1472 4.96304
      vertex -21 8.81678 2.86474
      vertex -21 11.1472 4.96304
    endloop
  endfacet
  facet normal 0 0.809017 -0.587785
    outer loop
      vertex -15 12.7271 7.13758
      vertex -21 12.9904 7.5
      vertex -15 12.9904 7.5
    endloop
  endfacet
  facet normal 0 0.809017 -0.587785
    outer loop
      vertex 21 12.9904 7.5
      vertex 15 11.4105 5.32546
      vertex 15 12.9904 7.5
    endloop
  endfacet
  facet normal -3.37354e-09 0.809017 -0.587785
    outer loop
      vertex 15 11.4105 5.32546
      vertex 21 12.9904 7.5
      vertex 21 11.1472 4.96304
    endloop
  endfacet
  facet normal -1 0 0
    outer loop
      vertex -21 0 0
      vertex -21 -12.9904 7.5
      vertex -21 12.9904 7.5
    endloop
  endfacet
  facet normal -1 0 0
    outer loop
      vertex -21 0 0
      vertex -21 12.9904 7.5
      vertex -21 3.11868 0.327785
    endloop
  endfacet
  facet normal 0 -0.913545 0.406737
    outer loop
      vertex 15 -14.2658 19.6353
      vertex 21 -12.9904 22.5
      vertex 15 -12.9904 22.5
    endloop
  endfacet
  facet normal 0 -0.913545 0.406737
    outer loop
      vertex 21 -12.9904 22.5
      vertex 15 -14.2658 19.6353
      vertex 21 -14.2658 19.6353
    endloop
  endfacet
  facet normal 0 -0.913545 0.406737
    outer loop
      vertex -21 -14.2658 19.6353
      vertex -15 -12.9904 22.5
      vertex -21 -12.9904 22.5
    endloop
  endfacet
  facet normal 0 -0.913545 0.406737
    outer loop
      vertex -15 -12.9904 22.5
      vertex -21 -14.2658 19.6353
      vertex -15 -14.2658 19.6353
    endloop
  endfacet
  facet normal 0 -0.913545 -0.406737
    outer loop
      vertex -21 -14.2658 10.3647
      vertex -15 -13.1726 7.90925
      vertex -15 -14.2658 10.3647
    endloop
  endfacet
  facet normal -6.22303e-08 -0.913545 -0.406737
    outer loop
      vertex -15 -13.1726 7.90925
      vertex -21 -14.2658 10.3647
      vertex -21 -12.9904 7.5
    endloop
  endfacet
  facet normal -0 -0.913545 -0.406737
    outer loop
      vertex 21 -14.2658 10.3647
      vertex 15 -14.2658 10.3647
      vertex 15 -14.0836 9.95549
    endloop
  endfacet
  facet normal 0 -1 0
    outer loop
      vertex 15 -14.9178 13.4321
      vertex 21 -14.9178 16.5679
      vertex 15 -14.9178 16.5679
    endloop
  endfacet
  facet normal 0 -1 -0
    outer loop
      vertex 21 -14.9178 16.5679
      vertex 15 -14.9178 13.4321
      vertex 21 -14.9178 13.4321
    endloop
  endfacet
  facet normal 0 -1 0
    outer loop
      vertex -21 -14.9178 13.4321
      vertex -15 -14.9178 16.5679
      vertex -21 -14.9178 16.5679
    endloop
  endfacet
  facet normal 0 -1 -0
    outer loop
      vertex -15 -14.9178 16.5679
      vertex -21 -14.9178 13.4321
      vertex -15 -14.9178 13.4321
    endloop
  endfacet
  facet normal -0 -0.809017 -0.587785
    outer loop
      vertex -15 -12.9904 7.5
      vertex -21 -12.9904 7.5
      vertex -15 -12.7271 7.13758
    endloop
  endfacet
  facet normal 0 -0.809017 -0.587785
    outer loop
      vertex 15 -11.4105 5.32546
      vertex 21 -12.9904 7.5
      vertex 15 -12.9904 7.5
    endloop
  endfacet
  facet normal -3.37354e-09 -0.809017 -0.587785
    outer loop
      vertex 21 -12.9904 7.5
      vertex 15 -11.4105 5.32546
      vertex 21 -11.1472 4.96304
    endloop
  endfacet
  facet normal -1 0 0
    outer loop
      vertex -21 -11.1472 4.96304
      vertex -21 -12.9904 7.5
      vertex -21 -8.81678 2.86474
    endloop
  endfacet
  facet normal 0 -0.309017 -0.951057
    outer loop
      vertex -21 -6.10105 1.29682
      vertex -15 -3.11868 0.327785
      vertex -15 -6.10105 1.29682
    endloop
  endfacet
  facet normal -0 -0.309017 -0.951057
    outer loop
      vertex -15 -3.11868 0.327785
      vertex -21 -6.10105 1.29682
      vertex -21 -3.11868 0.327785
    endloop
  endfacet
  facet normal 0 -0.309017 -0.951057
    outer loop
      vertex 15 -6.10105 1.29682
      vertex 21 -3.11868 0.327785
      vertex 21 -6.10105 1.29682
    endloop
  endfacet
  facet normal -0 -0.309017 -0.951057
    outer loop
      vertex 21 -3.11868 0.327785
      vertex 15 -6.10105 1.29682
      vertex 15 -3.11868 0.327785
    endloop
  endfacet
  facet normal 0 0.913545 0.406738
    outer loop
      vertex 15 13.1726 22.0908
      vertex 15 12.9904 22.5
      vertex 21 12.9904 22.5
    endloop
  endfacet
  facet normal 0 0.913545 0.406737
    outer loop
      vertex -15 14.0836 20.0445
      vertex -21 12.9904 22.5
      vertex -15 12.9904 22.5
    endloop
  endfacet
  facet normal 6.81689e-09 0.913545 0.406737
    outer loop
      vertex -21 12.9904 22.5
      vertex -15 14.0836 20.0445
      vertex -21 14.2658 19.6353
    endloop
  endfacet
  facet normal 0 -0.5 0.866025
    outer loop
      vertex -21 -6.10105 28.7032
      vertex -15 -8.81678 27.1353
      vertex -15 -6.10105 28.7032
    endloop
  endfacet
  facet normal 0 -0.5 0.866025
    outer loop
      vertex -15 -8.81678 27.1353
      vertex -21 -6.10105 28.7032
      vertex -21 -8.81678 27.1353
    endloop
  endfacet
  facet normal 0 -0.5 0.866025
    outer loop
      vertex 15 -6.10105 28.7032
      vertex 21 -8.81678 27.1353
      vertex 21 -6.10105 28.7032
    endloop
  endfacet
  facet normal 0 -0.5 0.866025
    outer loop
      vertex 21 -8.81678 27.1353
      vertex 15 -6.10105 28.7032
      vertex 15 -8.81678 27.1353
    endloop
  endfacet
  facet normal -1.36754e-07 -0.104528 0.994522
    outer loop
      vertex 15 -0.445525 29.9532
      vertex 21 -3.11868 29.6722
      vertex 21 0 30
    endloop
  endfacet
  facet normal 0 -0.104528 0.994522
    outer loop
      vertex 21 -3.11868 29.6722
      vertex 15 -0.445525 29.9532
      vertex 15 -3.11868 29.6722
    endloop
  endfacet
  facet normal 0 -0.104526 0.994522
    outer loop
      vertex -15 -2.67315 29.719
      vertex -21 -3.11868 29.6722
      vertex -15 -3.11868 29.6722
    endloop
  endfacet
  facet normal 0 -0.66913 0.743145
    outer loop
      vertex -21 -8.81678 27.1353
      vertex -15 -11.1472 25.037
      vertex -15 -8.81678 27.1353
    endloop
  endfacet
  facet normal 0 -0.66913 0.743145
    outer loop
      vertex -15 -11.1472 25.037
      vertex -21 -8.81678 27.1353
      vertex -21 -11.1472 25.037
    endloop
  endfacet
  facet normal 0 -0.66913 0.743145
    outer loop
      vertex 15 -8.81678 27.1353
      vertex 21 -11.1472 25.037
      vertex 21 -8.81678 27.1353
    endloop
  endfacet
  facet normal 0 -0.66913 0.743145
    outer loop
      vertex 21 -11.1472 25.037
      vertex 15 -8.81678 27.1353
      vertex 15 -11.1472 25.037
    endloop
  endfacet
  facet normal -0 0.309017 0.951057
    outer loop
      vertex -21 6.10105 28.7032
      vertex -15 3.11868 29.6722
      vertex -15 6.10105 28.7032
    endloop
  endfacet
  facet normal 0 0.309017 0.951057
    outer loop
      vertex -15 3.11868 29.6722
      vertex -21 6.10105 28.7032
      vertex -21 3.11868 29.6722
    endloop
  endfacet
  facet normal -0 0.309017 0.951057
    outer loop
      vertex 15 6.10105 28.7032
      vertex 21 3.11868 29.6722
      vertex 21 6.10105 28.7032
    endloop
  endfacet
  facet normal 0 0.309017 0.951057
    outer loop
      vertex 21 3.11868 29.6722
      vertex 15 6.10105 28.7032
      vertex 15 3.11868 29.6722
    endloop
  endfacet
  facet normal 1 0 0
    outer loop
      vertex 21 8.81678 27.1353
      vertex 21 6.10105 28.7032
      vertex 21 12.9904 22.5
    endloop
  endfacet
  facet normal 1 0 0
    outer loop
      vertex 21 11.1472 25.037
      vertex 21 8.81678 27.1353
      vertex 21 12.9904 22.5
    endloop
  endfacet
  facet normal 0 0.5 -0.866025
    outer loop
      vertex -21 6.10105 1.29682
      vertex -15 8.81678 2.86474
      vertex -15 6.10105 1.29682
    endloop
  endfacet
  facet normal 0 0.5 -0.866025
    outer loop
      vertex -15 8.81678 2.86474
      vertex -21 6.10105 1.29682
      vertex -21 8.81678 2.86474
    endloop
  endfacet
  facet normal 0 0.5 -0.866025
    outer loop
      vertex 15 6.10105 1.29682
      vertex 21 8.81678 2.86474
      vertex 21 6.10105 1.29682
    endloop
  endfacet
  facet normal 0 0.5 -0.866025
    outer loop
      vertex 21 8.81678 2.86474
      vertex 15 6.10105 1.29682
      vertex 15 8.81678 2.86474
    endloop
  endfacet
  facet normal 0 -0.978148 0.207912
    outer loop
      vertex -21 -14.9178 16.5679
      vertex -15 -14.2658 19.6353
      vertex -21 -14.2658 19.6353
    endloop
  endfacet
  facet normal 0 -0.978148 0.207912
    outer loop
      vertex -15 -14.2658 19.6353
      vertex -21 -14.9178 16.5679
      vertex -15 -14.9178 16.5679
    endloop
  endfacet
  facet normal 0 -0.978148 0.207912
    outer loop
      vertex 15 -14.9178 16.5679
      vertex 21 -14.2658 19.6353
      vertex 15 -14.2658 19.6353
    endloop
  endfacet
  facet normal 0 -0.978148 0.207912
    outer loop
      vertex 21 -14.2658 19.6353
      vertex 15 -14.9178 16.5679
      vertex 21 -14.9178 16.5679
    endloop
  endfacet
  facet normal -1 0 0
    outer loop
      vertex -21 14.2658 10.3647
      vertex -21 14.9178 16.5679
      vertex -21 14.9178 13.4321
    endloop
  endfacet
  facet normal -1 0 0
    outer loop
      vertex -21 14.2658 10.3647
      vertex -21 14.2658 19.6353
      vertex -21 14.9178 16.5679
    endloop
  endfacet
  facet normal -1 0 0
    outer loop
      vertex -21 12.9904 7.5
      vertex -21 14.2658 19.6353
      vertex -21 14.2658 10.3647
    endloop
  endfacet
  facet normal -1 0 0
    outer loop
      vertex -21 12.9904 7.5
      vertex -21 12.9904 22.5
      vertex -21 14.2658 19.6353
    endloop
  endfacet
  facet normal -1 0 0
    outer loop
      vertex -21 12.9904 7.5
      vertex -21 11.1472 25.037
      vertex -21 12.9904 22.5
    endloop
  endfacet
  facet normal -1 0 0
    outer loop
      vertex -21 12.9904 7.5
      vertex -21 8.81678 27.1353
      vertex -21 11.1472 25.037
    endloop
  endfacet
  facet normal -1 0 0
    outer loop
      vertex -21 12.9904 7.5
      vertex -21 6.10105 28.7032
      vertex -21 8.81678 27.1353
    endloop
  endfacet
  facet normal -1 0 0
    outer loop
      vertex -21 12.9904 7.5
      vertex -21 3.11868 29.6722
      vertex -21 6.10105 28.7032
    endloop
  endfacet
  facet normal -1 0 0
    outer loop
      vertex -21 12.9904 7.5
      vertex -21 0 30
      vertex -21 3.11868 29.6722
    endloop
  endfacet
  facet normal -1 0 0
    outer loop
      vertex -21 12.9904 7.5
      vertex -21 -3.11868 29.6722
      vertex -21 0 30
    endloop
  endfacet
  facet normal -1 0 0
    outer loop
      vertex -21 12.9904 7.5
      vertex -21 -6.10105 28.7032
      vertex -21 -3.11868 29.6722
    endloop
  endfacet
  facet normal -1 0 0
    outer loop
      vertex -21 12.9904 7.5
      vertex -21 -8.81678 27.1353
      vertex -21 -6.10105 28.7032
    endloop
  endfacet
  facet normal -1 0 0
    outer loop
      vertex -21 12.9904 7.5
      vertex -21 -11.1472 25.037
      vertex -21 -8.81678 27.1353
    endloop
  endfacet
  facet normal -1 0 0
    outer loop
      vertex -21 -12.9904 7.5
      vertex -21 -11.1472 25.037
      vertex -21 12.9904 7.5
    endloop
  endfacet
  facet normal -1 0 0
    outer loop
      vertex -21 -12.9904 7.5
      vertex -21 -12.9904 22.5
      vertex -21 -11.1472 25.037
    endloop
  endfacet
  facet normal -1 0 0
    outer loop
      vertex -21 -14.2658 10.3647
      vertex -21 -12.9904 22.5
      vertex -21 -12.9904 7.5
    endloop
  endfacet
  facet normal -1 0 0
    outer loop
      vertex -21 -14.2658 10.3647
      vertex -21 -14.2658 19.6353
      vertex -21 -12.9904 22.5
    endloop
  endfacet
  facet normal -1 0 0
    outer loop
      vertex -21 -14.9178 13.4321
      vertex -21 -14.2658 19.6353
      vertex -21 -14.2658 10.3647
    endloop
  endfacet
  facet normal -1 0 0
    outer loop
      vertex -21 -14.2658 19.6353
      vertex -21 -14.9178 13.4321
      vertex -21 -14.9178 16.5679
    endloop
  endfacet
  facet normal 0 -0.669131 -0.743145
    outer loop
      vertex -21 -11.1472 4.96304
      vertex -15 -8.81678 2.86474
      vertex -15 -11.1472 4.96304
    endloop
  endfacet
  facet normal -0 -0.669131 -0.743145
    outer loop
      vertex -15 -8.81678 2.86474
      vertex -21 -11.1472 4.96304
      vertex -21 -8.81678 2.86474
    endloop
  endfacet
  facet normal 0 -0.669131 -0.743145
    outer loop
      vertex 15 -11.1472 4.96304
      vertex 21 -8.81678 2.86474
      vertex 21 -11.1472 4.96304
    endloop
  endfacet
  facet normal -0 -0.669131 -0.743145
    outer loop
      vertex 21 -8.81678 2.86474
      vertex 15 -11.1472 4.96304
      vertex 15 -8.81678 2.86474
    endloop
  endfacet
  facet normal -1.67201e-08 -0.809017 -0.587785
    outer loop
      vertex -21 -11.1472 4.96304
      vertex -15 -12.7271 7.13758
      vertex -21 -12.9904 7.5
    endloop
  endfacet
  facet normal 0 -0.809017 -0.587785
    outer loop
      vertex -15 -12.7271 7.13758
      vertex -21 -11.1472 4.96304
      vertex -15 -11.1472 4.96304
    endloop
  endfacet
  facet normal -0 -0.809017 -0.587785
    outer loop
      vertex 21 -11.1472 4.96304
      vertex 15 -11.4105 5.32546
      vertex 15 -11.1472 4.96304
    endloop
  endfacet
  facet normal 1.36115e-07 0.913545 0.406737
    outer loop
      vertex 21 14.2658 19.6353
      vertex 15 13.1726 22.0908
      vertex 21 12.9904 22.5
    endloop
  endfacet
  facet normal 0 0.913546 0.406736
    outer loop
      vertex 15 13.1726 22.0908
      vertex 21 14.2658 19.6353
      vertex 15 14.2658 19.6353
    endloop
  endfacet
  facet normal 0 0.913545 0.406737
    outer loop
      vertex -15 14.2658 19.6353
      vertex -21 14.2658 19.6353
      vertex -15 14.0836 20.0445
    endloop
  endfacet
  facet normal 0 0.978148 0.207912
    outer loop
      vertex -15 14.9178 16.5679
      vertex -21 14.2658 19.6353
      vertex -15 14.2658 19.6353
    endloop
  endfacet
  facet normal 0 0.978148 0.207912
    outer loop
      vertex -21 14.2658 19.6353
      vertex -15 14.9178 16.5679
      vertex -21 14.9178 16.5679
    endloop
  endfacet
  facet normal 0 0.978148 0.207912
    outer loop
      vertex 21 14.9178 16.5679
      vertex 15 14.2658 19.6353
      vertex 21 14.2658 19.6353
    endloop
  endfacet
  facet normal 0 0.978148 0.207912
    outer loop
      vertex 15 14.2658 19.6353
      vertex 21 14.9178 16.5679
      vertex 15 14.9178 16.5679
    endloop
  endfacet
  facet normal 0 0.10453 0.994522
    outer loop
      vertex 15 0.445525 29.9532
      vertex 15 0 30
      vertex 21 0 30
    endloop
  endfacet
  facet normal 1.78877e-07 0.104528 0.994522
    outer loop
      vertex -21 0 30
      vertex -15 2.67315 29.719
      vertex -21 3.11868 29.6722
    endloop
  endfacet
  facet normal 0 0.104529 0.994522
    outer loop
      vertex -15 2.67315 29.719
      vertex -21 0 30
      vertex -15 0 30
    endloop
  endfacet
  facet normal 0 -0.309017 0.951057
    outer loop
      vertex -21 -3.11868 29.6722
      vertex -15 -6.10105 28.7032
      vertex -15 -3.11868 29.6722
    endloop
  endfacet
  facet normal 0 -0.309017 0.951057
    outer loop
      vertex -15 -6.10105 28.7032
      vertex -21 -3.11868 29.6722
      vertex -21 -6.10105 28.7032
    endloop
  endfacet
  facet normal 0 -0.309017 0.951057
    outer loop
      vertex 15 -3.11868 29.6722
      vertex 21 -6.10105 28.7032
      vertex 21 -3.11868 29.6722
    endloop
  endfacet
  facet normal 0 -0.309017 0.951057
    outer loop
      vertex 21 -6.10105 28.7032
      vertex 15 -3.11868 29.6722
      vertex 15 -6.10105 28.7032
    endloop
  endfacet
  facet normal 1 0 0
    outer loop
      vertex 21 0 30
      vertex 21 -3.11868 29.6722
      vertex 21 -12.9904 22.5
    endloop
  endfacet
  facet normal 0 -0.809017 0.587785
    outer loop
      vertex 15 -12.9904 22.5
      vertex 21 -11.1472 25.037
      vertex 15 -11.1472 25.037
    endloop
  endfacet
  facet normal 0 -0.809017 0.587785
    outer loop
      vertex 21 -11.1472 25.037
      vertex 15 -12.9904 22.5
      vertex 21 -12.9904 22.5
    endloop
  endfacet
  facet normal 0 -0.809017 0.587785
    outer loop
      vertex -21 -12.9904 22.5
      vertex -15 -11.1472 25.037
      vertex -21 -11.1472 25.037
    endloop
  endfacet
  facet normal 0 -0.809017 0.587785
    outer loop
      vertex -15 -11.1472 25.037
      vertex -21 -12.9904 22.5
      vertex -15 -12.9904 22.5
    endloop
  endfacet
  facet normal -0 0.66913 0.743145
    outer loop
      vertex 15 11.1472 25.037
      vertex 21 8.81678 27.1353
      vertex 21 11.1472 25.037
    endloop
  endfacet
  facet normal 0 0.66913 0.743145
    outer loop
      vertex 21 8.81678 27.1353
      vertex 15 11.1472 25.037
      vertex 15 8.81678 27.1353
    endloop
  endfacet
  facet normal -0 0.66913 0.743145
    outer loop
      vertex -21 11.1472 25.037
      vertex -15 8.81678 27.1353
      vertex -15 11.1472 25.037
    endloop
  endfacet
  facet normal 0 0.66913 0.743145
    outer loop
      vertex -15 8.81678 27.1353
      vertex -21 11.1472 25.037
      vertex -21 8.81678 27.1353
    endloop
  endfacet
  facet normal 0 -0.978148 -0.207912
    outer loop
      vertex 15 -14.2658 10.3647
      vertex 21 -14.9178 13.4321
      vertex 15 -14.9178 13.4321
    endloop
  endfacet
  facet normal 0 -0.978148 -0.207912
    outer loop
      vertex 21 -14.9178 13.4321
      vertex 15 -14.2658 10.3647
      vertex 21 -14.2658 10.3647
    endloop
  endfacet
  facet normal 0 -0.978148 -0.207912
    outer loop
      vertex -21 -14.2658 10.3647
      vertex -15 -14.9178 13.4321
      vertex -21 -14.9178 13.4321
    endloop
  endfacet
  facet normal 0 -0.978148 -0.207912
    outer loop
      vertex -15 -14.9178 13.4321
      vertex -21 -14.2658 10.3647
      vertex -15 -14.2658 10.3647
    endloop
  endfacet
  facet normal 1 0 0
    outer loop
      vertex 21 14.2658 19.6353
      vertex 21 14.9178 13.4321
      vertex 21 14.9178 16.5679
    endloop
  endfacet
  facet normal 1 0 0
    outer loop
      vertex 21 14.2658 19.6353
      vertex 21 14.2658 10.3647
      vertex 21 14.9178 13.4321
    endloop
  endfacet
  facet normal 1 0 0
    outer loop
      vertex 21 12.9904 22.5
      vertex 21 14.2658 10.3647
      vertex 21 14.2658 19.6353
    endloop
  endfacet
  facet normal 1 0 0
    outer loop
      vertex 21 12.9904 22.5
      vertex 21 12.9904 7.5
      vertex 21 14.2658 10.3647
    endloop
  endfacet
  facet normal 1 0 0
    outer loop
      vertex 21 12.9904 22.5
      vertex 21 11.1472 4.96304
      vertex 21 12.9904 7.5
    endloop
  endfacet
  facet normal 1 0 0
    outer loop
      vertex 21 12.9904 22.5
      vertex 21 8.81678 2.86474
      vertex 21 11.1472 4.96304
    endloop
  endfacet
  facet normal 1 0 0
    outer loop
      vertex 21 12.9904 22.5
      vertex 21 6.10105 1.29682
      vertex 21 8.81678 2.86474
    endloop
  endfacet
  facet normal 1 0 0
    outer loop
      vertex 21 12.9904 22.5
      vertex 21 3.11868 0.327785
      vertex 21 6.10105 1.29682
    endloop
  endfacet
  facet normal 1 0 0
    outer loop
      vertex 21 12.9904 22.5
      vertex 21 0 0
      vertex 21 3.11868 0.327785
    endloop
  endfacet
  facet normal 1 0 0
    outer loop
      vertex 21 12.9904 22.5
      vertex 21 -3.11868 0.327785
      vertex 21 0 0
    endloop
  endfacet
  facet normal 1 0 0
    outer loop
      vertex 21 12.9904 22.5
      vertex 21 -6.10105 1.29682
      vertex 21 -3.11868 0.327785
    endloop
  endfacet
  facet normal 1 0 0
    outer loop
      vertex 21 12.9904 22.5
      vertex 21 -8.81678 2.86474
      vertex 21 -6.10105 1.29682
    endloop
  endfacet
  facet normal 1 0 0
    outer loop
      vertex 21 12.9904 22.5
      vertex 21 -11.1472 4.96304
      vertex 21 -8.81678 2.86474
    endloop
  endfacet
  facet normal 1 -0 0
    outer loop
      vertex 21 -12.9904 22.5
      vertex 21 -11.1472 4.96304
      vertex 21 12.9904 22.5
    endloop
  endfacet
  facet normal 1 0 0
    outer loop
      vertex 21 -12.9904 22.5
      vertex 21 -12.9904 7.5
      vertex 21 -11.1472 4.96304
    endloop
  endfacet
  facet normal 1 -0 0
    outer loop
      vertex 21 -14.2658 19.6353
      vertex 21 -12.9904 7.5
      vertex 21 -12.9904 22.5
    endloop
  endfacet
  facet normal 1 0 0
    outer loop
      vertex 21 -14.2658 19.6353
      vertex 21 -14.2658 10.3647
      vertex 21 -12.9904 7.5
    endloop
  endfacet
  facet normal 1 -0 0
    outer loop
      vertex 21 -14.9178 16.5679
      vertex 21 -14.2658 10.3647
      vertex 21 -14.2658 19.6353
    endloop
  endfacet
  facet normal 1 0 0
    outer loop
      vertex 21 -14.2658 10.3647
      vertex 21 -14.9178 16.5679
      vertex 21 -14.9178 13.4321
    endloop
  endfacet
  facet normal -0 0.809018 0.587785
    outer loop
      vertex 15 12.9904 22.5
      vertex 15 12.7271 22.8624
      vertex 21 12.9904 22.5
    endloop
  endfacet
  facet normal -0 0.809017 0.587785
    outer loop
      vertex -21 12.9904 22.5
      vertex -15 11.4105 24.6745
      vertex -15 12.9904 22.5
    endloop
  endfacet
  facet normal 6.34331e-08 0.809017 0.587785
    outer loop
      vertex -15 11.4105 24.6745
      vertex -21 12.9904 22.5
      vertex -21 11.1472 25.037
    endloop
  endfacet
  facet normal 0 -0.10453 0.994522
    outer loop
      vertex 15 0 30
      vertex 15 -0.445525 29.9532
      vertex 21 0 30
    endloop
  endfacet
  facet normal 0 -0.104529 0.994522
    outer loop
      vertex -21 0 30
      vertex -15 -2.67315 29.719
      vertex -15 0 30
    endloop
  endfacet
  facet normal 1.78877e-07 -0.104528 0.994522
    outer loop
      vertex -15 -2.67315 29.719
      vertex -21 0 30
      vertex -21 -3.11868 29.6722
    endloop
  endfacet
  facet normal 1 0 0
    outer loop
      vertex 21 -6.10105 28.7032
      vertex 21 -8.81678 27.1353
      vertex 21 -12.9904 22.5
    endloop
  endfacet
  facet normal -0.980785 -0.195091 0
    outer loop
      vertex 5 0 0
      vertex 4.6194 1.91342 30
      vertex 4.6194 1.91342 0
    endloop
  endfacet
  facet normal -0.980785 -0.195091 0
    outer loop
      vertex 4.6194 1.91342 30
      vertex 5 0 0
      vertex 5 0 30
    endloop
  endfacet
  facet normal 0.980785 -0.195091 0
    outer loop
      vertex -5 0 30
      vertex -4.6194 1.91342 0
      vertex -4.6194 1.91342 30
    endloop
  endfacet
  facet normal 0.980785 -0.195091 0
    outer loop
      vertex -4.6194 1.91342 0
      vertex -5 0 30
      vertex -5 0 0
    endloop
  endfacet
  facet normal -0.195091 -0.980785 0
    outer loop
      vertex 0 5 0
      vertex 1.91342 4.6194 30
      vertex 0 5 30
    endloop
  endfacet
  facet normal -0.195091 -0.980785 -0
    outer loop
      vertex 1.91342 4.6194 30
      vertex 0 5 0
      vertex 1.91342 4.6194 0
    endloop
  endfacet
  facet normal -0.83147 -0.55557 0
    outer loop
      vertex 4.6194 1.91342 0
      vertex 3.53553 3.53553 30
      vertex 3.53553 3.53553 0
    endloop
  endfacet
  facet normal -0.83147 -0.55557 0
    outer loop
      vertex 3.53553 3.53553 30
      vertex 4.6194 1.91342 0
      vertex 4.6194 1.91342 30
    endloop
  endfacet
  facet normal -0.195091 0.980785 0
    outer loop
      vertex 1.91342 -4.6194 0
      vertex 0 -5 30
      vertex 1.91342 -4.6194 30
    endloop
  endfacet
  facet normal -0.195091 0.980785 0
    outer loop
      vertex 0 -5 30
      vertex 1.91342 -4.6194 0
      vertex 0 -5 0
    endloop
  endfacet
  facet normal 0.195091 0.980785 -0
    outer loop
      vertex 0 -5 0
      vertex -1.91342 -4.6194 30
      vertex 0 -5 30
    endloop
  endfacet
  facet normal 0.195091 0.980785 0
    outer loop
      vertex -1.91342 -4.6194 30
      vertex 0 -5 0
      vertex -1.91342 -4.6194 0
    endloop
  endfacet
  facet normal -0.55557 -0.83147 0
    outer loop
      vertex 1.91342 4.6194 0
      vertex 3.53553 3.53553 30
      vertex 1.91342 4.6194 30
    endloop
  endfacet
  facet normal -0.55557 -0.83147 -0
    outer loop
      vertex 3.53553 3.53553 30
      vertex 1.91342 4.6194 0
      vertex 3.53553 3.53553 0
    endloop
  endfacet
  facet normal 0.195091 -0.980785 0
    outer loop
      vertex -1.91342 4.6194 0
      vertex 0 5 30
      vertex -1.91342 4.6194 30
    endloop
  endfacet
  facet normal 0.195091 -0.980785 0
    outer loop
      vertex 0 5 30
      vertex -1.91342 4.6194 0
      vertex 0 5 0
    endloop
  endfacet
  facet normal 0.55557 -0.83147 0
    outer loop
      vertex -3.53553 3.53553 0
      vertex -1.91342 4.6194 30
      vertex -3.53553 3.53553 30
    endloop
  endfacet
  facet normal 0.55557 -0.83147 0
    outer loop
      vertex -1.91342 4.6194 30
      vertex -3.53553 3.53553 0
      vertex -1.91342 4.6194 0
    endloop
  endfacet
  facet normal 0.980785 0.195091 0
    outer loop
      vertex -4.6194 -1.91342 30
      vertex -5 0 0
      vertex -5 0 30
    endloop
  endfacet
  facet normal 0.980785 0.195091 0
    outer loop
      vertex -5 0 0
      vertex -4.6194 -1.91342 30
      vertex -4.6194 -1.91342 0
    endloop
  endfacet
  facet normal 0.55557 0.83147 -0
    outer loop
      vertex -1.91342 -4.6194 0
      vertex -3.53553 -3.53553 30
      vertex -1.91342 -4.6194 30
    endloop
  endfacet
  facet normal 0.55557 0.83147 0
    outer loop
      vertex -3.53553 -3.53553 30
      vertex -1.91342 -4.6194 0
      vertex -3.53553 -3.53553 0
    endloop
  endfacet
  facet normal 0.83147 0.55557 0
    outer loop
      vertex -3.53553 -3.53553 30
      vertex -4.6194 -1.91342 0
      vertex -4.6194 -1.91342 30
    endloop
  endfacet
  facet normal 0.83147 0.55557 0
    outer loop
      vertex -4.6194 -1.91342 0
      vertex -3.53553 -3.53553 30
      vertex -3.53553 -3.53553 0
    endloop
  endfacet
  facet normal 0.83147 -0.55557 0
    outer loop
      vertex -4.6194 1.91342 30
      vertex -3.53553 3.53553 0
      vertex -3.53553 3.53553 30
    endloop
  endfacet
  facet normal 0.83147 -0.55557 0
    outer loop
      vertex -3.53553 3.53553 0
      vertex -4.6194 1.91342 30
      vertex -4.6194 1.91342 0
    endloop
  endfacet
  facet normal -0.83147 0.55557 0
    outer loop
      vertex 3.53553 -3.53553 0
      vertex 4.6194 -1.91342 30
      vertex 4.6194 -1.91342 0
    endloop
  endfacet
  facet normal -0.83147 0.55557 0
    outer loop
      vertex 4.6194 -1.91342 30
      vertex 3.53553 -3.53553 0
      vertex 3.53553 -3.53553 30
    endloop
  endfacet
  facet normal -0.55557 0.83147 0
    outer loop
      vertex 3.53553 -3.53553 0
      vertex 1.91342 -4.6194 30
      vertex 3.53553 -3.53553 30
    endloop
  endfacet
  facet normal -0.55557 0.83147 0
    outer loop
      vertex 1.91342 -4.6194 30
      vertex 3.53553 -3.53553 0
      vertex 1.91342 -4.6194 0
    endloop
  endfacet
  facet normal -0.980785 0.195091 0
    outer loop
      vertex 4.6194 -1.91342 0
      vertex 5 0 30
      vertex 5 0 0
    endloop
  endfacet
  facet normal -0.980785 0.195091 0
    outer loop
      vertex 5 0 30
      vertex 4.6194 -1.91342 0
      vertex 4.6194 -1.91342 30
    endloop
  endfacet
endsolid OpenSCAD_Model
