solid OpenSCAD_Model
  facet normal -1 0 0
    outer loop
      vertex -10 -10 0
      vertex -10 -8.9705 5.69683
      vertex -10 -8.66025 5
    endloop
  endfacet
  facet normal -1 -0 0
    outer loop
      vertex -10 -9.94522 8.95471
      vertex -10 -10 0
      vertex -10 -9.94522 11.0453
    endloop
  endfacet
  facet normal -1 -0 0
    outer loop
      vertex -10 -9.51056 6.90983
      vertex -10 -10 0
      vertex -10 -9.94522 8.95471
    endloop
  endfacet
  facet normal -1 -0 0
    outer loop
      vertex -10 -8.9705 5.69683
      vertex -10 -10 0
      vertex -10 -9.51056 6.90983
    endloop
  endfacet
  facet normal -1 -0 0
    outer loop
      vertex -10 -8.21191 4.3829
      vertex -10 -10 0
      vertex -10 -8.66025 5
    endloop
  endfacet
  facet normal -1 -0 0
    outer loop
      vertex -10 -7.43145 3.30869
      vertex -10 -10 0
      vertex -10 -8.21191 4.3829
    endloop
  endfacet
  facet normal -1 -0 0
    outer loop
      vertex -10 -5.87785 1.90983
      vertex -10 -10 0
      vertex -10 -7.43145 3.30869
    endloop
  endfacet
  facet normal -1 -0 0
    outer loop
      vertex -10 -4.06737 0.864545
      vertex -10 -10 0
      vertex -10 -5.87785 1.90983
    endloop
  endfacet
  facet normal -1 -0 0
    outer loop
      vertex -10 -2.07912 0.218524
      vertex -10 -10 0
      vertex -10 -4.06737 0.864545
    endloop
  endfacet
  facet normal -1 0 0
    outer loop
      vertex -10 -10 0
      vertex -10 -2.07912 0.218524
      vertex -10 0 0
    endloop
  endfacet
  facet normal -1 0 0
    outer loop
      vertex -10 10 0
      vertex -10 9.94522 8.95471
      vertex -10 10 20
    endloop
  endfacet
  facet normal -1 0 0
    outer loop
      vertex -10 10 0
      vertex -10 9.51056 6.90983
      vertex -10 9.94522 8.95471
    endloop
  endfacet
  facet normal -1 0 0
    outer loop
      vertex -10 10 0
      vertex -10 8.9705 5.69683
      vertex -10 9.51056 6.90983
    endloop
  endfacet
  facet normal -1 0 0
    outer loop
      vertex -10 10 0
      vertex -10 8.66025 5
      vertex -10 8.9705 5.69683
    endloop
  endfacet
  facet normal -1 0 0
    outer loop
      vertex -10 10 0
      vertex -10 8.21191 4.3829
      vertex -10 8.66025 5
    endloop
  endfacet
  facet normal -1 0 0
    outer loop
      vertex -10 10 0
      vertex -10 7.43145 3.30869
      vertex -10 8.21191 4.3829
    endloop
  endfacet
  facet normal -1 0 0
    outer loop
      vertex -10 10 0
      vertex -10 5.87785 1.90983
      vertex -10 7.43145 3.30869
    endloop
  endfacet
  facet normal -1 0 0
    outer loop
      vertex -10 10 0
      vertex -10 4.06737 0.864545
      vertex -10 5.87785 1.90983
    endloop
  endfacet
  facet normal -1 0 0
    outer loop
      vertex -10 10 0
      vertex -10 2.07912 0.218524
      vertex -10 4.06737 0.864545
    endloop
  endfacet
  facet normal -1 0 -0
    outer loop
      vertex -10 2.07912 0.218524
      vertex -10 10 0
      vertex -10 0 0
    endloop
  endfacet
  facet normal -1 0 0
    outer loop
      vertex -10 9.94522 11.0453
      vertex -10 10 20
      vertex -10 9.94522 8.95471
    endloop
  endfacet
  facet normal -1 0 0
    outer loop
      vertex -10 9.51056 13.0902
      vertex -10 10 20
      vertex -10 9.94522 11.0453
    endloop
  endfacet
  facet normal -1 0 0
    outer loop
      vertex -10 9.20032 13.787
      vertex -10 10 20
      vertex -10 9.51056 13.0902
    endloop
  endfacet
  facet normal -1 0 0
    outer loop
      vertex -10 8.66025 15
      vertex -10 10 20
      vertex -10 9.20032 13.787
    endloop
  endfacet
  facet normal -1 0 0
    outer loop
      vertex -10 7.8798 16.0742
      vertex -10 10 20
      vertex -10 8.66025 15
    endloop
  endfacet
  facet normal -1 0 0
    outer loop
      vertex -10 7.43145 16.6913
      vertex -10 10 20
      vertex -10 7.8798 16.0742
    endloop
  endfacet
  facet normal -1 0 0
    outer loop
      vertex -10 5.87785 18.0902
      vertex -10 10 20
      vertex -10 7.43145 16.6913
    endloop
  endfacet
  facet normal -1 0 0
    outer loop
      vertex -10 4.06737 19.1355
      vertex -10 10 20
      vertex -10 5.87785 18.0902
    endloop
  endfacet
  facet normal -1 0 0
    outer loop
      vertex -10 2.07912 19.7815
      vertex -10 10 20
      vertex -10 4.06737 19.1355
    endloop
  endfacet
  facet normal -1 0 0
    outer loop
      vertex -10 1.32052 19.8612
      vertex -10 10 20
      vertex -10 2.07912 19.7815
    endloop
  endfacet
  facet normal -1 -0 0
    outer loop
      vertex -10 10 20
      vertex -10 1.32052 19.8612
      vertex -10 0 20
    endloop
  endfacet
  facet normal -1 0 0
    outer loop
      vertex -10 -1.32052 19.8612
      vertex -10 -10 20
      vertex -10 0 20
    endloop
  endfacet
  facet normal -1 0 0
    outer loop
      vertex -10 -2.07912 19.7815
      vertex -10 -10 20
      vertex -10 -1.32052 19.8612
    endloop
  endfacet
  facet normal -1 0 0
    outer loop
      vertex -10 -4.06737 19.1355
      vertex -10 -10 20
      vertex -10 -2.07912 19.7815
    endloop
  endfacet
  facet normal -1 0 0
    outer loop
      vertex -10 -5.87785 18.0902
      vertex -10 -10 20
      vertex -10 -4.06737 19.1355
    endloop
  endfacet
  facet normal -1 0 0
    outer loop
      vertex -10 -7.43145 16.6913
      vertex -10 -10 20
      vertex -10 -5.87785 18.0902
    endloop
  endfacet
  facet normal -1 0 0
    outer loop
      vertex -10 -7.8798 16.0742
      vertex -10 -10 20
      vertex -10 -7.43145 16.6913
    endloop
  endfacet
  facet normal -1 0 0
    outer loop
      vertex -10 -8.66025 15
      vertex -10 -10 20
      vertex -10 -7.8798 16.0742
    endloop
  endfacet
  facet normal -1 0 0
    outer loop
      vertex -10 -9.20032 13.787
      vertex -10 -10 20
      vertex -10 -8.66025 15
    endloop
  endfacet
  facet normal -1 0 0
    outer loop
      vertex -10 -9.51056 13.0902
      vertex -10 -10 20
      vertex -10 -9.20032 13.787
    endloop
  endfacet
  facet normal -1 0 0
    outer loop
      vertex -10 -9.94522 11.0453
      vertex -10 -10 20
      vertex -10 -9.51056 13.0902
    endloop
  endfacet
  facet normal -1 0 0
    outer loop
      vertex -10 -10 20
      vertex -10 -9.94522 11.0453
      vertex -10 -10 0
    endloop
  endfacet
  facet normal -0 0 0
    outer loop
      vertex -10 0 20
      vertex -10 -10 20
      vertex -10 10 20
    endloop
  endfacet
  facet normal 0 0 1
    outer loop
      vertex 10 10 20
      vertex 1.25 0 20
      vertex 10 -10 20
    endloop
  endfacet
  facet normal 0 0 1
    outer loop
      vertex 10 10 20
      vertex 0.386271 1.18882 20
      vertex 1.25 0 20
    endloop
  endfacet
  facet normal -0 0 1
    outer loop
      vertex -10 10 20
      vertex 0.386271 1.18882 20
      vertex 10 10 20
    endloop
  endfacet
  facet normal 0 0 1
    outer loop
      vertex -1.01127 0.734731 20
      vertex -10 10 20
      vertex -1.01127 -0.734731 20
    endloop
  endfacet
  facet normal 0 0 1
    outer loop
      vertex 0.386271 1.18882 20
      vertex -10 10 20
      vertex -1.01127 0.734731 20
    endloop
  endfacet
  facet normal -0 0 1
    outer loop
      vertex 0.386271 -1.18882 20
      vertex 10 -10 20
      vertex 1.25 0 20
    endloop
  endfacet
  facet normal 0 0 1
    outer loop
      vertex -10 -10 20
      vertex 0.386271 -1.18882 20
      vertex -1.01127 -0.734731 20
    endloop
  endfacet
  facet normal 0 0 1
    outer loop
      vertex 0.386271 -1.18882 20
      vertex -10 -10 20
      vertex 10 -10 20
    endloop
  endfacet
  facet normal 0 0 1
    outer loop
      vertex -10 -10 20
      vertex -1.01127 -0.734731 20
      vertex -10 10 20
    endloop
  endfacet
  facet normal 1 -0 0
    outer loop
      vertex 10 -10 20
      vertex 10 -0.758597 19.9203
      vertex 10 0 20
    endloop
  endfacet
  facet normal 1 0 0
    outer loop
      vertex 10 -10 20
      vertex 10 -8.21191 15.6171
      vertex 10 -7.43145 16.6913
    endloop
  endfacet
  facet normal 1 0 0
    outer loop
      vertex 10 -10 20
      vertex 10 -8.9705 14.3032
      vertex 10 -8.66025 15
    endloop
  endfacet
  facet normal 1 0 0
    outer loop
      vertex 10 -9.94522 11.0453
      vertex 10 -10 20
      vertex 10 -9.94522 8.95471
    endloop
  endfacet
  facet normal 1 0 0
    outer loop
      vertex 10 -9.51056 13.0902
      vertex 10 -10 20
      vertex 10 -9.94522 11.0453
    endloop
  endfacet
  facet normal 1 0 0
    outer loop
      vertex 10 -8.9705 14.3032
      vertex 10 -10 20
      vertex 10 -9.51056 13.0902
    endloop
  endfacet
  facet normal 1 0 0
    outer loop
      vertex 10 -8.21191 15.6171
      vertex 10 -10 20
      vertex 10 -8.66025 15
    endloop
  endfacet
  facet normal 1 0 0
    outer loop
      vertex 10 -5.87785 18.0902
      vertex 10 -10 20
      vertex 10 -7.43145 16.6913
    endloop
  endfacet
  facet normal 1 0 0
    outer loop
      vertex 10 -4.06737 19.1355
      vertex 10 -10 20
      vertex 10 -5.87785 18.0902
    endloop
  endfacet
  facet normal 1 0 0
    outer loop
      vertex 10 -2.07912 19.7815
      vertex 10 -10 20
      vertex 10 -4.06737 19.1355
    endloop
  endfacet
  facet normal 1 0 0
    outer loop
      vertex 10 -0.758597 19.9203
      vertex 10 -10 20
      vertex 10 -2.07912 19.7815
    endloop
  endfacet
  facet normal 1 0 0
    outer loop
      vertex 10 10 20
      vertex 10 9.94522 11.0453
      vertex 10 10 0
    endloop
  endfacet
  facet normal 1 0 0
    outer loop
      vertex 10 10 20
      vertex 10 9.51056 13.0902
      vertex 10 9.94522 11.0453
    endloop
  endfacet
  facet normal 1 0 0
    outer loop
      vertex 10 10 20
      vertex 10 8.9705 14.3032
      vertex 10 9.51056 13.0902
    endloop
  endfacet
  facet normal 1 0 0
    outer loop
      vertex 10 10 20
      vertex 10 8.66025 15
      vertex 10 8.9705 14.3032
    endloop
  endfacet
  facet normal 1 0 0
    outer loop
      vertex 10 10 20
      vertex 10 8.21191 15.6171
      vertex 10 8.66025 15
    endloop
  endfacet
  facet normal 1 0 0
    outer loop
      vertex 10 10 20
      vertex 10 7.43145 16.6913
      vertex 10 8.21191 15.6171
    endloop
  endfacet
  facet normal 1 0 0
    outer loop
      vertex 10 10 20
      vertex 10 5.87785 18.0902
      vertex 10 7.43145 16.6913
    endloop
  endfacet
  facet normal 1 0 0
    outer loop
      vertex 10 10 20
      vertex 10 4.06737 19.1355
      vertex 10 5.87785 18.0902
    endloop
  endfacet
  facet normal 1 0 0
    outer loop
      vertex 10 10 20
      vertex 10 2.07912 19.7815
      vertex 10 4.06737 19.1355
    endloop
  endfacet
  facet normal 1 0 0
    outer loop
      vertex 10 10 20
      vertex 10 0.758597 19.9203
      vertex 10 2.07912 19.7815
    endloop
  endfacet
  facet normal 1 0 -0
    outer loop
      vertex 10 0.758597 19.9203
      vertex 10 10 20
      vertex 10 0 20
    endloop
  endfacet
  facet normal 1 -0 0
    outer loop
      vertex 10 9.94522 8.95471
      vertex 10 10 0
      vertex 10 9.94522 11.0453
    endloop
  endfacet
  facet normal 1 -0 0
    outer loop
      vertex 10 9.51056 6.90983
      vertex 10 10 0
      vertex 10 9.94522 8.95471
    endloop
  endfacet
  facet normal 1 -0 0
    outer loop
      vertex 10 9.20032 6.213
      vertex 10 10 0
      vertex 10 9.51056 6.90983
    endloop
  endfacet
  facet normal 1 -0 0
    outer loop
      vertex 10 8.66025 5
      vertex 10 10 0
      vertex 10 9.20032 6.213
    endloop
  endfacet
  facet normal 1 -0 0
    outer loop
      vertex 10 7.8798 3.92579
      vertex 10 10 0
      vertex 10 8.66025 5
    endloop
  endfacet
  facet normal 1 -0 0
    outer loop
      vertex 10 7.43145 3.30869
      vertex 10 10 0
      vertex 10 7.8798 3.92579
    endloop
  endfacet
  facet normal 1 -0 0
    outer loop
      vertex 10 5.87785 1.90983
      vertex 10 10 0
      vertex 10 7.43145 3.30869
    endloop
  endfacet
  facet normal 1 -0 0
    outer loop
      vertex 10 4.06737 0.864545
      vertex 10 10 0
      vertex 10 5.87785 1.90983
    endloop
  endfacet
  facet normal 1 -0 0
    outer loop
      vertex 10 2.07912 0.218524
      vertex 10 10 0
      vertex 10 4.06737 0.864545
    endloop
  endfacet
  facet normal 1 0 0
    outer loop
      vertex 10 10 0
      vertex 10 2.07912 0.218524
      vertex 10 0 0
    endloop
  endfacet
  facet normal 1 0 0
    outer loop
      vertex 10 -2.07912 0.218524
      vertex 10 -10 0
      vertex 10 0 0
    endloop
  endfacet
  facet normal 1 0 0
    outer loop
      vertex 10 -4.06737 0.864545
      vertex 10 -10 0
      vertex 10 -2.07912 0.218524
    endloop
  endfacet
  facet normal 1 0 0
    outer loop
      vertex 10 -5.87785 1.90983
      vertex 10 -10 0
      vertex 10 -4.06737 0.864545
    endloop
  endfacet
  facet normal 1 0 0
    outer loop
      vertex 10 -7.43145 3.30869
      vertex 10 -10 0
      vertex 10 -5.87785 1.90983
    endloop
  endfacet
  facet normal 1 0 0
    outer loop
      vertex 10 -7.8798 3.92579
      vertex 10 -10 0
      vertex 10 -7.43145 3.30869
    endloop
  endfacet
  facet normal 1 0 0
    outer loop
      vertex 10 -8.66025 5
      vertex 10 -10 0
      vertex 10 -7.8798 3.92579
    endloop
  endfacet
  facet normal 1 0 0
    outer loop
      vertex 10 -9.20032 6.213
      vertex 10 -10 0
      vertex 10 -8.66025 5
    endloop
  endfacet
  facet normal 1 0 0
    outer loop
      vertex 10 -9.51056 6.90983
      vertex 10 -10 0
      vertex 10 -9.20032 6.213
    endloop
  endfacet
  facet normal 1 0 0
    outer loop
      vertex 10 -9.94522 8.95471
      vertex 10 -10 0
      vertex 10 -9.51056 6.90983
    endloop
  endfacet
  facet normal 1 0 0
    outer loop
      vertex 10 -10 0
      vertex 10 -9.94522 8.95471
      vertex 10 -10 20
    endloop
  endfacet
  facet normal 0 0 -0
    outer loop
      vertex 10 0 20
      vertex 10 10 20
      vertex 10 -10 20
    endloop
  endfacet
  facet normal 0 1 -0
    outer loop
      vertex 10 10 0
      vertex -10 10 20
      vertex 10 10 20
    endloop
  endfacet
  facet normal 0 1 0
    outer loop
      vertex -10 10 20
      vertex 10 10 0
      vertex -10 10 0
    endloop
  endfacet
  facet normal 0 0 -1
    outer loop
      vertex -10 0 0
      vertex 10 0 0
      vertex 10 -10 0
    endloop
  endfacet
  facet normal 0 0 -1
    outer loop
      vertex -10 0 0
      vertex 10 -10 0
      vertex -10 -10 0
    endloop
  endfacet
  facet normal 0 0 -1
    outer loop
      vertex 10 0 0
      vertex -10 0 0
      vertex 10 10 0
    endloop
  endfacet
  facet normal -0 0 -1
    outer loop
      vertex 10 10 0
      vertex -10 0 0
      vertex -10 10 0
    endloop
  endfacet
  facet normal 0 -1 0
    outer loop
      vertex -10 -10 0
      vertex 10 -10 20
      vertex -10 -10 20
    endloop
  endfacet
  facet normal 0 -1 -0
    outer loop
      vertex 10 -10 20
      vertex -10 -10 0
      vertex 10 -10 0
    endloop
  endfacet
  facet normal 0 0.104528 -0.994522
    outer loop
      vertex -37 0 0
      vertex -10 2.07912 0.218524
      vertex -10 0 0
    endloop
  endfacet
  facet normal 0 0.104528 -0.994522
    outer loop
      vertex -10 2.07912 0.218524
      vertex -37 0 0
      vertex -37 2.07912 0.218524
    endloop
  endfacet
  facet normal 0 0.104528 -0.994522
    outer loop
      vertex 10 0 0
      vertex 37 2.07912 0.218524
      vertex 37 0 0
    endloop
  endfacet
  facet normal 0 0.104528 -0.994522
    outer loop
      vertex 37 2.07912 0.218524
      vertex 10 0 0
      vertex 10 2.07912 0.218524
    endloop
  endfacet
  facet normal 0 1 -0
    outer loop
      vertex -10 9.94522 8.95471
      vertex -37 9.94522 11.0453
      vertex -10 9.94522 11.0453
    endloop
  endfacet
  facet normal 0 1 0
    outer loop
      vertex -37 9.94522 11.0453
      vertex -10 9.94522 8.95471
      vertex -37 9.94522 8.95471
    endloop
  endfacet
  facet normal 0 1 -0
    outer loop
      vertex 37 9.94522 8.95471
      vertex 10 9.94522 11.0453
      vertex 37 9.94522 11.0453
    endloop
  endfacet
  facet normal 0 1 0
    outer loop
      vertex 10 9.94522 11.0453
      vertex 37 9.94522 8.95471
      vertex 10 9.94522 8.95471
    endloop
  endfacet
  facet normal 0 -0.10453 0.994522
    outer loop
      vertex 10 0 20
      vertex 10 -0.758597 19.9203
      vertex 37 0 20
    endloop
  endfacet
  facet normal 0 -0.104528 0.994522
    outer loop
      vertex -37 0 20
      vertex -10 -1.32052 19.8612
      vertex -10 0 20
    endloop
  endfacet
  facet normal -3.04556e-08 -0.104529 0.994522
    outer loop
      vertex -10 -1.32052 19.8612
      vertex -37 0 20
      vertex -37 -2.07912 19.7815
    endloop
  endfacet
  facet normal 7.18323e-09 0.913545 -0.406737
    outer loop
      vertex -10 8.66025 5
      vertex -37 8.66025 5
      vertex -10 8.9705 5.69683
    endloop
  endfacet
  facet normal 1.50259e-08 0.913545 -0.406737
    outer loop
      vertex 37 8.66025 5
      vertex 10 9.20032 6.213
      vertex 37 9.51056 6.90983
    endloop
  endfacet
  facet normal 7.18323e-09 0.913545 -0.406737
    outer loop
      vertex 10 9.20032 6.213
      vertex 37 8.66025 5
      vertex 10 8.66025 5
    endloop
  endfacet
  facet normal 0 0.809017 -0.587785
    outer loop
      vertex -37 7.43145 3.30869
      vertex -10 8.21191 4.3829
      vertex -10 7.43145 3.30869
    endloop
  endfacet
  facet normal 1.75582e-09 0.809017 -0.587785
    outer loop
      vertex -10 8.21191 4.3829
      vertex -37 7.43145 3.30869
      vertex -37 8.66025 5
    endloop
  endfacet
  facet normal 0 0.809017 -0.587785
    outer loop
      vertex 37 7.43145 3.30869
      vertex 10 7.43145 3.30869
      vertex 10 7.8798 3.92579
    endloop
  endfacet
  facet normal -1 0 0
    outer loop
      vertex -37 9.51056 6.90983
      vertex -37 9.94522 11.0453
      vertex -37 9.94522 8.95471
    endloop
  endfacet
  facet normal -1 0 0
    outer loop
      vertex -37 9.51056 6.90983
      vertex -37 9.51056 13.0902
      vertex -37 9.94522 11.0453
    endloop
  endfacet
  facet normal -1 0 0
    outer loop
      vertex -37 8.66025 5
      vertex -37 9.51056 13.0902
      vertex -37 9.51056 6.90983
    endloop
  endfacet
  facet normal -1 0 0
    outer loop
      vertex -37 8.66025 5
      vertex -37 8.66025 15
      vertex -37 9.51056 13.0902
    endloop
  endfacet
  facet normal -1 0 0
    outer loop
      vertex -37 7.43145 3.30869
      vertex -37 8.66025 15
      vertex -37 8.66025 5
    endloop
  endfacet
  facet normal -1 0 0
    outer loop
      vertex -37 7.43145 3.30869
      vertex -37 7.43145 16.6913
      vertex -37 8.66025 15
    endloop
  endfacet
  facet normal -1 0 0
    outer loop
      vertex -37 5.87785 1.90983
      vertex -37 7.43145 16.6913
      vertex -37 7.43145 3.30869
    endloop
  endfacet
  facet normal -1 0 0
    outer loop
      vertex -37 5.87785 1.90983
      vertex -37 5.87785 18.0902
      vertex -37 7.43145 16.6913
    endloop
  endfacet
  facet normal -1 0 0
    outer loop
      vertex -37 4.06737 0.864545
      vertex -37 5.87785 18.0902
      vertex -37 5.87785 1.90983
    endloop
  endfacet
  facet normal -1 0 0
    outer loop
      vertex -37 4.06737 0.864545
      vertex -37 4.06737 19.1355
      vertex -37 5.87785 18.0902
    endloop
  endfacet
  facet normal -1 0 0
    outer loop
      vertex -37 2.07912 0.218524
      vertex -37 4.06737 19.1355
      vertex -37 4.06737 0.864545
    endloop
  endfacet
  facet normal -1 0 0
    outer loop
      vertex -37 2.07912 0.218524
      vertex -37 2.07912 19.7815
      vertex -37 4.06737 19.1355
    endloop
  endfacet
  facet normal -1 0 0
    outer loop
      vertex -37 0 0
      vertex -37 2.07912 19.7815
      vertex -37 2.07912 0.218524
    endloop
  endfacet
  facet normal -1 0 0
    outer loop
      vertex -37 0 0
      vertex -37 0 20
      vertex -37 2.07912 19.7815
    endloop
  endfacet
  facet normal -1 0 0
    outer loop
      vertex -37 -2.07912 0.218524
      vertex -37 0 20
      vertex -37 0 0
    endloop
  endfacet
  facet normal -1 0 0
    outer loop
      vertex -37 -2.07912 0.218524
      vertex -37 -2.07912 19.7815
      vertex -37 0 20
    endloop
  endfacet
  facet normal -1 0 0
    outer loop
      vertex -37 -4.06737 0.864545
      vertex -37 -2.07912 19.7815
      vertex -37 -2.07912 0.218524
    endloop
  endfacet
  facet normal -1 0 0
    outer loop
      vertex -37 -4.06737 0.864545
      vertex -37 -4.06737 19.1355
      vertex -37 -2.07912 19.7815
    endloop
  endfacet
  facet normal -1 0 0
    outer loop
      vertex -37 -5.87785 1.90983
      vertex -37 -4.06737 19.1355
      vertex -37 -4.06737 0.864545
    endloop
  endfacet
  facet normal -1 0 0
    outer loop
      vertex -37 -5.87785 1.90983
      vertex -37 -5.87785 18.0902
      vertex -37 -4.06737 19.1355
    endloop
  endfacet
  facet normal -1 0 0
    outer loop
      vertex -37 -7.43145 3.30869
      vertex -37 -5.87785 18.0902
      vertex -37 -5.87785 1.90983
    endloop
  endfacet
  facet normal -1 0 0
    outer loop
      vertex -37 -7.43145 3.30869
      vertex -37 -7.43145 16.6913
      vertex -37 -5.87785 18.0902
    endloop
  endfacet
  facet normal -1 0 0
    outer loop
      vertex -37 -8.66025 5
      vertex -37 -7.43145 16.6913
      vertex -37 -7.43145 3.30869
    endloop
  endfacet
  facet normal -1 0 0
    outer loop
      vertex -37 -8.66025 5
      vertex -37 -8.66025 15
      vertex -37 -7.43145 16.6913
    endloop
  endfacet
  facet normal -1 0 0
    outer loop
      vertex -37 -9.51056 6.90983
      vertex -37 -8.66025 15
      vertex -37 -8.66025 5
    endloop
  endfacet
  facet normal -1 0 0
    outer loop
      vertex -37 -9.51056 6.90983
      vertex -37 -9.51056 13.0902
      vertex -37 -8.66025 15
    endloop
  endfacet
  facet normal -1 0 0
    outer loop
      vertex -37 -9.94522 8.95471
      vertex -37 -9.51056 13.0902
      vertex -37 -9.51056 6.90983
    endloop
  endfacet
  facet normal -1 0 0
    outer loop
      vertex -37 -9.51056 13.0902
      vertex -37 -9.94522 8.95471
      vertex -37 -9.94522 11.0453
    endloop
  endfacet
  facet normal -0 0.5 0.866026
    outer loop
      vertex -37 5.87785 18.0902
      vertex -10 4.06737 19.1355
      vertex -10 5.87785 18.0902
    endloop
  endfacet
  facet normal 0 0.5 0.866026
    outer loop
      vertex -10 4.06737 19.1355
      vertex -37 5.87785 18.0902
      vertex -37 4.06737 19.1355
    endloop
  endfacet
  facet normal -0 0.5 0.866026
    outer loop
      vertex 10 5.87785 18.0902
      vertex 37 4.06737 19.1355
      vertex 37 5.87785 18.0902
    endloop
  endfacet
  facet normal 0 0.5 0.866026
    outer loop
      vertex 37 4.06737 19.1355
      vertex 10 5.87785 18.0902
      vertex 10 4.06737 19.1355
    endloop
  endfacet
  facet normal 0 0.913545 -0.406737
    outer loop
      vertex -10 8.9705 5.69683
      vertex -37 9.51056 6.90983
      vertex -10 9.51056 6.90983
    endloop
  endfacet
  facet normal 9.78413e-09 0.913545 -0.406737
    outer loop
      vertex -37 9.51056 6.90983
      vertex -10 8.9705 5.69683
      vertex -37 8.66025 5
    endloop
  endfacet
  facet normal 0 0.913546 -0.406736
    outer loop
      vertex 37 9.51056 6.90983
      vertex 10 9.20032 6.213
      vertex 10 9.51056 6.90983
    endloop
  endfacet
  facet normal 0 0.978148 -0.207911
    outer loop
      vertex -10 9.51056 6.90983
      vertex -37 9.94522 8.95471
      vertex -10 9.94522 8.95471
    endloop
  endfacet
  facet normal 0 0.978148 -0.207911
    outer loop
      vertex -37 9.94522 8.95471
      vertex -10 9.51056 6.90983
      vertex -37 9.51056 6.90983
    endloop
  endfacet
  facet normal 0 0.978148 -0.207911
    outer loop
      vertex 37 9.51056 6.90983
      vertex 10 9.94522 8.95471
      vertex 37 9.94522 8.95471
    endloop
  endfacet
  facet normal 0 0.978148 -0.207911
    outer loop
      vertex 10 9.94522 8.95471
      vertex 37 9.51056 6.90983
      vertex 10 9.51056 6.90983
    endloop
  endfacet
  facet normal 0 -0.104528 -0.994522
    outer loop
      vertex 10 -2.07912 0.218524
      vertex 37 0 0
      vertex 37 -2.07912 0.218524
    endloop
  endfacet
  facet normal -0 -0.104528 -0.994522
    outer loop
      vertex 37 0 0
      vertex 10 -2.07912 0.218524
      vertex 10 0 0
    endloop
  endfacet
  facet normal 0 -0.104528 -0.994522
    outer loop
      vertex -37 -2.07912 0.218524
      vertex -10 0 0
      vertex -10 -2.07912 0.218524
    endloop
  endfacet
  facet normal -0 -0.104528 -0.994522
    outer loop
      vertex -10 0 0
      vertex -37 -2.07912 0.218524
      vertex -37 0 0
    endloop
  endfacet
  facet normal -3.04556e-08 -0.104529 0.994522
    outer loop
      vertex 10 -0.758597 19.9203
      vertex 37 -2.07912 19.7815
      vertex 37 0 20
    endloop
  endfacet
  facet normal 0 -0.104528 0.994522
    outer loop
      vertex 37 -2.07912 19.7815
      vertex 10 -0.758597 19.9203
      vertex 10 -2.07912 19.7815
    endloop
  endfacet
  facet normal 0 -0.10453 0.994522
    outer loop
      vertex -10 -1.32052 19.8612
      vertex -37 -2.07912 19.7815
      vertex -10 -2.07912 19.7815
    endloop
  endfacet
  facet normal 0 -0.978148 0.207911
    outer loop
      vertex 10 -9.94522 11.0453
      vertex 37 -9.51056 13.0902
      vertex 10 -9.51056 13.0902
    endloop
  endfacet
  facet normal 0 -0.978148 0.207911
    outer loop
      vertex 37 -9.51056 13.0902
      vertex 10 -9.94522 11.0453
      vertex 37 -9.94522 11.0453
    endloop
  endfacet
  facet normal 0 -0.978148 0.207911
    outer loop
      vertex -37 -9.94522 11.0453
      vertex -10 -9.51056 13.0902
      vertex -37 -9.51056 13.0902
    endloop
  endfacet
  facet normal 0 -0.978148 0.207911
    outer loop
      vertex -10 -9.51056 13.0902
      vertex -37 -9.94522 11.0453
      vertex -10 -9.94522 11.0453
    endloop
  endfacet
  facet normal 0 -0.913545 0.406737
    outer loop
      vertex 37 -9.51056 13.0902
      vertex 10 -8.9705 14.3032
      vertex 10 -9.51056 13.0902
    endloop
  endfacet
  facet normal -9.78413e-09 -0.913545 0.406737
    outer loop
      vertex 10 -8.9705 14.3032
      vertex 37 -9.51056 13.0902
      vertex 37 -8.66025 15
    endloop
  endfacet
  facet normal 0 -0.913546 0.406736
    outer loop
      vertex -10 -9.20032 13.787
      vertex -37 -9.51056 13.0902
      vertex -10 -9.51056 13.0902
    endloop
  endfacet
  facet normal 0 -1 0
    outer loop
      vertex 10 -9.94522 8.95471
      vertex 37 -9.94522 11.0453
      vertex 10 -9.94522 11.0453
    endloop
  endfacet
  facet normal 0 -1 -0
    outer loop
      vertex 37 -9.94522 11.0453
      vertex 10 -9.94522 8.95471
      vertex 37 -9.94522 8.95471
    endloop
  endfacet
  facet normal 0 -1 0
    outer loop
      vertex -37 -9.94522 8.95471
      vertex -10 -9.94522 11.0453
      vertex -37 -9.94522 11.0453
    endloop
  endfacet
  facet normal 0 -1 -0
    outer loop
      vertex -10 -9.94522 11.0453
      vertex -37 -9.94522 8.95471
      vertex -10 -9.94522 8.95471
    endloop
  endfacet
  facet normal 0 -0.669131 -0.743145
    outer loop
      vertex -37 -7.43145 3.30869
      vertex -10 -5.87785 1.90983
      vertex -10 -7.43145 3.30869
    endloop
  endfacet
  facet normal -0 -0.669131 -0.743145
    outer loop
      vertex -10 -5.87785 1.90983
      vertex -37 -7.43145 3.30869
      vertex -37 -5.87785 1.90983
    endloop
  endfacet
  facet normal 0 -0.669131 -0.743145
    outer loop
      vertex 10 -7.43145 3.30869
      vertex 37 -5.87785 1.90983
      vertex 37 -7.43145 3.30869
    endloop
  endfacet
  facet normal -0 -0.669131 -0.743145
    outer loop
      vertex 37 -5.87785 1.90983
      vertex 10 -7.43145 3.30869
      vertex 10 -5.87785 1.90983
    endloop
  endfacet
  facet normal 0 -0.913545 -0.406737
    outer loop
      vertex -37 -9.51056 6.90983
      vertex -10 -8.9705 5.69683
      vertex -10 -9.51056 6.90983
    endloop
  endfacet
  facet normal 9.78413e-09 -0.913545 -0.406737
    outer loop
      vertex -10 -8.9705 5.69683
      vertex -37 -9.51056 6.90983
      vertex -37 -8.66025 5
    endloop
  endfacet
  facet normal -0 -0.913546 -0.406736
    outer loop
      vertex 37 -9.51056 6.90983
      vertex 10 -9.51056 6.90983
      vertex 10 -9.20032 6.213
    endloop
  endfacet
  facet normal -0 0.809017 0.587785
    outer loop
      vertex -37 8.66025 15
      vertex -10 7.8798 16.0742
      vertex -10 8.66025 15
    endloop
  endfacet
  facet normal -9.33089e-09 0.809017 0.587785
    outer loop
      vertex -10 7.8798 16.0742
      vertex -37 8.66025 15
      vertex -37 7.43145 16.6913
    endloop
  endfacet
  facet normal -0 0.809017 0.587785
    outer loop
      vertex 10 8.66025 15
      vertex 10 8.21191 15.6171
      vertex 37 8.66025 15
    endloop
  endfacet
  facet normal 0 0.913545 0.406737
    outer loop
      vertex -10 9.20032 13.787
      vertex -37 8.66025 15
      vertex -10 8.66025 15
    endloop
  endfacet
  facet normal -1.50259e-08 0.913545 0.406737
    outer loop
      vertex -37 8.66025 15
      vertex -10 9.20032 13.787
      vertex -37 9.51056 13.0902
    endloop
  endfacet
  facet normal 0 0.913546 0.406736
    outer loop
      vertex 10 8.9705 14.3032
      vertex 10 8.66025 15
      vertex 37 8.66025 15
    endloop
  endfacet
  facet normal 0 0.669131 -0.743145
    outer loop
      vertex -37 5.87785 1.90983
      vertex -10 7.43145 3.30869
      vertex -10 5.87785 1.90983
    endloop
  endfacet
  facet normal 0 0.669131 -0.743145
    outer loop
      vertex -10 7.43145 3.30869
      vertex -37 5.87785 1.90983
      vertex -37 7.43145 3.30869
    endloop
  endfacet
  facet normal 0 0.669131 -0.743145
    outer loop
      vertex 10 5.87785 1.90983
      vertex 37 7.43145 3.30869
      vertex 37 5.87785 1.90983
    endloop
  endfacet
  facet normal 0 0.669131 -0.743145
    outer loop
      vertex 37 7.43145 3.30869
      vertex 10 5.87785 1.90983
      vertex 10 7.43145 3.30869
    endloop
  endfacet
  facet normal 0 0.309017 -0.951057
    outer loop
      vertex -37 2.07912 0.218524
      vertex -10 4.06737 0.864545
      vertex -10 2.07912 0.218524
    endloop
  endfacet
  facet normal 0 0.309017 -0.951057
    outer loop
      vertex -10 4.06737 0.864545
      vertex -37 2.07912 0.218524
      vertex -37 4.06737 0.864545
    endloop
  endfacet
  facet normal 0 0.309017 -0.951057
    outer loop
      vertex 10 2.07912 0.218524
      vertex 37 4.06737 0.864545
      vertex 37 2.07912 0.218524
    endloop
  endfacet
  facet normal 0 0.309017 -0.951057
    outer loop
      vertex 37 4.06737 0.864545
      vertex 10 2.07912 0.218524
      vertex 10 4.06737 0.864545
    endloop
  endfacet
  facet normal 1.03807e-08 0.809017 -0.587785
    outer loop
      vertex -10 8.21191 4.3829
      vertex -37 8.66025 5
      vertex -10 8.66025 5
    endloop
  endfacet
  facet normal 1.03807e-08 0.809017 -0.587785
    outer loop
      vertex 37 8.66025 5
      vertex 10 7.8798 3.92579
      vertex 10 8.66025 5
    endloop
  endfacet
  facet normal 9.33089e-09 0.809017 -0.587785
    outer loop
      vertex 10 7.8798 3.92579
      vertex 37 8.66025 5
      vertex 37 7.43145 3.30869
    endloop
  endfacet
  facet normal 0 -0.309017 0.951057
    outer loop
      vertex -37 -2.07912 19.7815
      vertex -10 -4.06737 19.1355
      vertex -10 -2.07912 19.7815
    endloop
  endfacet
  facet normal 0 -0.309017 0.951057
    outer loop
      vertex -10 -4.06737 19.1355
      vertex -37 -2.07912 19.7815
      vertex -37 -4.06737 19.1355
    endloop
  endfacet
  facet normal 0 -0.309017 0.951057
    outer loop
      vertex 10 -2.07912 19.7815
      vertex 37 -4.06737 19.1355
      vertex 37 -2.07912 19.7815
    endloop
  endfacet
  facet normal 0 -0.309017 0.951057
    outer loop
      vertex 37 -4.06737 19.1355
      vertex 10 -2.07912 19.7815
      vertex 10 -4.06737 19.1355
    endloop
  endfacet
  facet normal 0 -0.669131 0.743145
    outer loop
      vertex 10 -5.87785 18.0902
      vertex 37 -7.43145 16.6913
      vertex 37 -5.87785 18.0902
    endloop
  endfacet
  facet normal 0 -0.669131 0.743145
    outer loop
      vertex 37 -7.43145 16.6913
      vertex 10 -5.87785 18.0902
      vertex 10 -7.43145 16.6913
    endloop
  endfacet
  facet normal 0 -0.669131 0.743145
    outer loop
      vertex -37 -5.87785 18.0902
      vertex -10 -7.43145 16.6913
      vertex -10 -5.87785 18.0902
    endloop
  endfacet
  facet normal 0 -0.669131 0.743145
    outer loop
      vertex -10 -7.43145 16.6913
      vertex -37 -5.87785 18.0902
      vertex -37 -7.43145 16.6913
    endloop
  endfacet
  facet normal 0 -0.5 0.866026
    outer loop
      vertex -37 -4.06737 19.1355
      vertex -10 -5.87785 18.0902
      vertex -10 -4.06737 19.1355
    endloop
  endfacet
  facet normal 0 -0.5 0.866026
    outer loop
      vertex -10 -5.87785 18.0902
      vertex -37 -4.06737 19.1355
      vertex -37 -5.87785 18.0902
    endloop
  endfacet
  facet normal 0 -0.5 0.866026
    outer loop
      vertex 10 -4.06737 19.1355
      vertex 37 -5.87785 18.0902
      vertex 37 -4.06737 19.1355
    endloop
  endfacet
  facet normal 0 -0.5 0.866026
    outer loop
      vertex 37 -5.87785 18.0902
      vertex 10 -4.06737 19.1355
      vertex 10 -5.87785 18.0902
    endloop
  endfacet
  facet normal 0 -0.978148 -0.207911
    outer loop
      vertex -37 -9.51056 6.90983
      vertex -10 -9.94522 8.95471
      vertex -37 -9.94522 8.95471
    endloop
  endfacet
  facet normal 0 -0.978148 -0.207911
    outer loop
      vertex -10 -9.94522 8.95471
      vertex -37 -9.51056 6.90983
      vertex -10 -9.51056 6.90983
    endloop
  endfacet
  facet normal 0 -0.978148 -0.207911
    outer loop
      vertex 10 -9.51056 6.90983
      vertex 37 -9.94522 8.95471
      vertex 10 -9.94522 8.95471
    endloop
  endfacet
  facet normal 0 -0.978148 -0.207911
    outer loop
      vertex 37 -9.94522 8.95471
      vertex 10 -9.51056 6.90983
      vertex 37 -9.51056 6.90983
    endloop
  endfacet
  facet normal 1 0 0
    outer loop
      vertex 37 9.51056 13.0902
      vertex 37 9.94522 8.95471
      vertex 37 9.94522 11.0453
    endloop
  endfacet
  facet normal 1 0 0
    outer loop
      vertex 37 9.51056 13.0902
      vertex 37 9.51056 6.90983
      vertex 37 9.94522 8.95471
    endloop
  endfacet
  facet normal 1 0 0
    outer loop
      vertex 37 8.66025 15
      vertex 37 9.51056 6.90983
      vertex 37 9.51056 13.0902
    endloop
  endfacet
  facet normal 1 0 0
    outer loop
      vertex 37 8.66025 15
      vertex 37 8.66025 5
      vertex 37 9.51056 6.90983
    endloop
  endfacet
  facet normal 1 0 0
    outer loop
      vertex 37 7.43145 16.6913
      vertex 37 8.66025 5
      vertex 37 8.66025 15
    endloop
  endfacet
  facet normal 1 0 0
    outer loop
      vertex 37 7.43145 16.6913
      vertex 37 7.43145 3.30869
      vertex 37 8.66025 5
    endloop
  endfacet
  facet normal 1 0 0
    outer loop
      vertex 37 5.87785 18.0902
      vertex 37 7.43145 3.30869
      vertex 37 7.43145 16.6913
    endloop
  endfacet
  facet normal 1 0 0
    outer loop
      vertex 37 5.87785 18.0902
      vertex 37 5.87785 1.90983
      vertex 37 7.43145 3.30869
    endloop
  endfacet
  facet normal 1 0 0
    outer loop
      vertex 37 4.06737 19.1355
      vertex 37 5.87785 1.90983
      vertex 37 5.87785 18.0902
    endloop
  endfacet
  facet normal 1 0 0
    outer loop
      vertex 37 4.06737 19.1355
      vertex 37 4.06737 0.864545
      vertex 37 5.87785 1.90983
    endloop
  endfacet
  facet normal 1 0 0
    outer loop
      vertex 37 2.07912 19.7815
      vertex 37 4.06737 0.864545
      vertex 37 4.06737 19.1355
    endloop
  endfacet
  facet normal 1 0 0
    outer loop
      vertex 37 2.07912 19.7815
      vertex 37 2.07912 0.218524
      vertex 37 4.06737 0.864545
    endloop
  endfacet
  facet normal 1 0 0
    outer loop
      vertex 37 0 20
      vertex 37 2.07912 0.218524
      vertex 37 2.07912 19.7815
    endloop
  endfacet
  facet normal 1 0 0
    outer loop
      vertex 37 0 20
      vertex 37 0 0
      vertex 37 2.07912 0.218524
    endloop
  endfacet
  facet normal 1 -0 0
    outer loop
      vertex 37 -2.07912 19.7815
      vertex 37 0 0
      vertex 37 0 20
    endloop
  endfacet
  facet normal 1 0 0
    outer loop
      vertex 37 -2.07912 19.7815
      vertex 37 -2.07912 0.218524
      vertex 37 0 0
    endloop
  endfacet
  facet normal 1 -0 0
    outer loop
      vertex 37 -4.06737 19.1355
      vertex 37 -2.07912 0.218524
      vertex 37 -2.07912 19.7815
    endloop
  endfacet
  facet normal 1 0 0
    outer loop
      vertex 37 -4.06737 19.1355
      vertex 37 -4.06737 0.864545
      vertex 37 -2.07912 0.218524
    endloop
  endfacet
  facet normal 1 -0 0
    outer loop
      vertex 37 -5.87785 18.0902
      vertex 37 -4.06737 0.864545
      vertex 37 -4.06737 19.1355
    endloop
  endfacet
  facet normal 1 0 0
    outer loop
      vertex 37 -5.87785 18.0902
      vertex 37 -5.87785 1.90983
      vertex 37 -4.06737 0.864545
    endloop
  endfacet
  facet normal 1 -0 0
    outer loop
      vertex 37 -7.43145 16.6913
      vertex 37 -5.87785 1.90983
      vertex 37 -5.87785 18.0902
    endloop
  endfacet
  facet normal 1 0 0
    outer loop
      vertex 37 -7.43145 16.6913
      vertex 37 -7.43145 3.30869
      vertex 37 -5.87785 1.90983
    endloop
  endfacet
  facet normal 1 -0 0
    outer loop
      vertex 37 -8.66025 15
      vertex 37 -7.43145 3.30869
      vertex 37 -7.43145 16.6913
    endloop
  endfacet
  facet normal 1 0 0
    outer loop
      vertex 37 -8.66025 15
      vertex 37 -8.66025 5
      vertex 37 -7.43145 3.30869
    endloop
  endfacet
  facet normal 1 -0 0
    outer loop
      vertex 37 -9.51056 13.0902
      vertex 37 -8.66025 5
      vertex 37 -8.66025 15
    endloop
  endfacet
  facet normal 1 0 0
    outer loop
      vertex 37 -9.51056 13.0902
      vertex 37 -9.51056 6.90983
      vertex 37 -8.66025 5
    endloop
  endfacet
  facet normal 1 -0 0
    outer loop
      vertex 37 -9.94522 11.0453
      vertex 37 -9.51056 6.90983
      vertex 37 -9.51056 13.0902
    endloop
  endfacet
  facet normal 1 0 0
    outer loop
      vertex 37 -9.51056 6.90983
      vertex 37 -9.94522 11.0453
      vertex 37 -9.94522 8.95471
    endloop
  endfacet
  facet normal 1.50259e-08 -0.913545 -0.406737
    outer loop
      vertex 10 -9.20032 6.213
      vertex 37 -8.66025 5
      vertex 37 -9.51056 6.90983
    endloop
  endfacet
  facet normal 7.18323e-09 -0.913545 -0.406737
    outer loop
      vertex 37 -8.66025 5
      vertex 10 -9.20032 6.213
      vertex 10 -8.66025 5
    endloop
  endfacet
  facet normal 7.18323e-09 -0.913545 -0.406737
    outer loop
      vertex -10 -8.9705 5.69683
      vertex -37 -8.66025 5
      vertex -10 -8.66025 5
    endloop
  endfacet
  facet normal 0 -0.309017 -0.951057
    outer loop
      vertex -37 -4.06737 0.864545
      vertex -10 -2.07912 0.218524
      vertex -10 -4.06737 0.864545
    endloop
  endfacet
  facet normal -0 -0.309017 -0.951057
    outer loop
      vertex -10 -2.07912 0.218524
      vertex -37 -4.06737 0.864545
      vertex -37 -2.07912 0.218524
    endloop
  endfacet
  facet normal 0 -0.309017 -0.951057
    outer loop
      vertex 10 -4.06737 0.864545
      vertex 37 -2.07912 0.218524
      vertex 37 -4.06737 0.864545
    endloop
  endfacet
  facet normal -0 -0.309017 -0.951057
    outer loop
      vertex 37 -2.07912 0.218524
      vertex 10 -4.06737 0.864545
      vertex 10 -2.07912 0.218524
    endloop
  endfacet
  facet normal 0 -0.5 -0.866026
    outer loop
      vertex -37 -5.87785 1.90983
      vertex -10 -4.06737 0.864545
      vertex -10 -5.87785 1.90983
    endloop
  endfacet
  facet normal -0 -0.5 -0.866026
    outer loop
      vertex -10 -4.06737 0.864545
      vertex -37 -5.87785 1.90983
      vertex -37 -4.06737 0.864545
    endloop
  endfacet
  facet normal 0 -0.5 -0.866026
    outer loop
      vertex 10 -5.87785 1.90983
      vertex 37 -4.06737 0.864545
      vertex 37 -5.87785 1.90983
    endloop
  endfacet
  facet normal -0 -0.5 -0.866026
    outer loop
      vertex 37 -4.06737 0.864545
      vertex 10 -5.87785 1.90983
      vertex 10 -4.06737 0.864545
    endloop
  endfacet
  facet normal -0 0.309017 0.951057
    outer loop
      vertex 10 4.06737 19.1355
      vertex 37 2.07912 19.7815
      vertex 37 4.06737 19.1355
    endloop
  endfacet
  facet normal 0 0.309017 0.951057
    outer loop
      vertex 37 2.07912 19.7815
      vertex 10 4.06737 19.1355
      vertex 10 2.07912 19.7815
    endloop
  endfacet
  facet normal -0 0.309017 0.951057
    outer loop
      vertex -37 4.06737 19.1355
      vertex -10 2.07912 19.7815
      vertex -10 4.06737 19.1355
    endloop
  endfacet
  facet normal 0 0.309017 0.951057
    outer loop
      vertex -10 2.07912 19.7815
      vertex -37 4.06737 19.1355
      vertex -37 2.07912 19.7815
    endloop
  endfacet
  facet normal 0 0.10453 0.994522
    outer loop
      vertex 10 0.758597 19.9203
      vertex 10 0 20
      vertex 37 0 20
    endloop
  endfacet
  facet normal -3.04556e-08 0.104529 0.994522
    outer loop
      vertex -37 0 20
      vertex -10 1.32052 19.8612
      vertex -37 2.07912 19.7815
    endloop
  endfacet
  facet normal 0 0.104528 0.994522
    outer loop
      vertex -10 1.32052 19.8612
      vertex -37 0 20
      vertex -10 0 20
    endloop
  endfacet
  facet normal -0 0.669131 0.743145
    outer loop
      vertex -37 7.43145 16.6913
      vertex -10 5.87785 18.0902
      vertex -10 7.43145 16.6913
    endloop
  endfacet
  facet normal 0 0.669131 0.743145
    outer loop
      vertex -10 5.87785 18.0902
      vertex -37 7.43145 16.6913
      vertex -37 5.87785 18.0902
    endloop
  endfacet
  facet normal -0 0.669131 0.743145
    outer loop
      vertex 10 7.43145 16.6913
      vertex 37 5.87785 18.0902
      vertex 37 7.43145 16.6913
    endloop
  endfacet
  facet normal 0 0.669131 0.743145
    outer loop
      vertex 37 5.87785 18.0902
      vertex 10 7.43145 16.6913
      vertex 10 5.87785 18.0902
    endloop
  endfacet
  facet normal 0 0.809017 0.587785
    outer loop
      vertex 37 7.43145 16.6913
      vertex 10 8.21191 15.6171
      vertex 10 7.43145 16.6913
    endloop
  endfacet
  facet normal -1.75582e-09 0.809017 0.587785
    outer loop
      vertex 10 8.21191 15.6171
      vertex 37 7.43145 16.6913
      vertex 37 8.66025 15
    endloop
  endfacet
  facet normal 0 0.809017 0.587785
    outer loop
      vertex -10 7.8798 16.0742
      vertex -37 7.43145 16.6913
      vertex -10 7.43145 16.6913
    endloop
  endfacet
  facet normal -9.78413e-09 0.913545 0.406737
    outer loop
      vertex 37 9.51056 13.0902
      vertex 10 8.9705 14.3032
      vertex 37 8.66025 15
    endloop
  endfacet
  facet normal 0 0.913545 0.406737
    outer loop
      vertex 10 8.9705 14.3032
      vertex 37 9.51056 13.0902
      vertex 10 9.51056 13.0902
    endloop
  endfacet
  facet normal 0 0.913546 0.406736
    outer loop
      vertex -10 9.51056 13.0902
      vertex -37 9.51056 13.0902
      vertex -10 9.20032 13.787
    endloop
  endfacet
  facet normal 0 0.978148 0.207911
    outer loop
      vertex -10 9.94522 11.0453
      vertex -37 9.51056 13.0902
      vertex -10 9.51056 13.0902
    endloop
  endfacet
  facet normal 0 0.978148 0.207911
    outer loop
      vertex -37 9.51056 13.0902
      vertex -10 9.94522 11.0453
      vertex -37 9.94522 11.0453
    endloop
  endfacet
  facet normal 0 0.978148 0.207911
    outer loop
      vertex 37 9.94522 11.0453
      vertex 10 9.51056 13.0902
      vertex 37 9.51056 13.0902
    endloop
  endfacet
  facet normal 0 0.978148 0.207911
    outer loop
      vertex 10 9.51056 13.0902
      vertex 37 9.94522 11.0453
      vertex 10 9.94522 11.0453
    endloop
  endfacet
  facet normal 0 0.5 -0.866026
    outer loop
      vertex -37 4.06737 0.864545
      vertex -10 5.87785 1.90983
      vertex -10 4.06737 0.864545
    endloop
  endfacet
  facet normal 0 0.5 -0.866026
    outer loop
      vertex -10 5.87785 1.90983
      vertex -37 4.06737 0.864545
      vertex -37 5.87785 1.90983
    endloop
  endfacet
  facet normal 0 0.5 -0.866026
    outer loop
      vertex 10 4.06737 0.864545
      vertex 37 5.87785 1.90983
      vertex 37 4.06737 0.864545
    endloop
  endfacet
  facet normal 0 0.5 -0.866026
    outer loop
      vertex 37 5.87785 1.90983
      vertex 10 4.06737 0.864545
      vertex 10 5.87785 1.90983
    endloop
  endfacet
  facet normal 0 -0.913546 0.406736
    outer loop
      vertex 10 -8.66025 15
      vertex 10 -8.9705 14.3032
      vertex 37 -8.66025 15
    endloop
  endfacet
  facet normal 0 -0.913545 0.406737
    outer loop
      vertex -37 -8.66025 15
      vertex -10 -9.20032 13.787
      vertex -10 -8.66025 15
    endloop
  endfacet
  facet normal -1.50259e-08 -0.913545 0.406737
    outer loop
      vertex -10 -9.20032 13.787
      vertex -37 -8.66025 15
      vertex -37 -9.51056 13.0902
    endloop
  endfacet
  facet normal 0 -0.809017 0.587785
    outer loop
      vertex 10 -8.21191 15.6171
      vertex 37 -7.43145 16.6913
      vertex 10 -7.43145 16.6913
    endloop
  endfacet
  facet normal -1.75582e-09 -0.809017 0.587785
    outer loop
      vertex 37 -7.43145 16.6913
      vertex 10 -8.21191 15.6171
      vertex 37 -8.66025 15
    endloop
  endfacet
  facet normal 0 -0.809017 0.587785
    outer loop
      vertex -10 -7.43145 16.6913
      vertex -37 -7.43145 16.6913
      vertex -10 -7.8798 16.0742
    endloop
  endfacet
  facet normal 1.03807e-08 -0.809017 -0.587785
    outer loop
      vertex 10 -7.8798 3.92579
      vertex 37 -8.66025 5
      vertex 10 -8.66025 5
    endloop
  endfacet
  facet normal 9.33089e-09 -0.809017 -0.587785
    outer loop
      vertex 37 -8.66025 5
      vertex 10 -7.8798 3.92579
      vertex 37 -7.43145 3.30869
    endloop
  endfacet
  facet normal 1.03807e-08 -0.809017 -0.587785
    outer loop
      vertex -10 -8.66025 5
      vertex -37 -8.66025 5
      vertex -10 -8.21191 4.3829
    endloop
  endfacet
  facet normal 1.75582e-09 -0.809017 -0.587785
    outer loop
      vertex -37 -7.43145 3.30869
      vertex -10 -8.21191 4.3829
      vertex -37 -8.66025 5
    endloop
  endfacet
  facet normal 0 -0.809017 -0.587785
    outer loop
      vertex -10 -8.21191 4.3829
      vertex -37 -7.43145 3.30869
      vertex -10 -7.43145 3.30869
    endloop
  endfacet
  facet normal -0 -0.809017 -0.587785
    outer loop
      vertex 37 -7.43145 3.30869
      vertex 10 -7.8798 3.92579
      vertex 10 -7.43145 3.30869
    endloop
  endfacet
  facet normal 0 0.104528 0.994522
    outer loop
      vertex 10 0.758597 19.9203
      vertex 37 2.07912 19.7815
      vertex 10 2.07912 19.7815
    endloop
  endfacet
  facet normal -3.04556e-08 0.104529 0.994522
    outer loop
      vertex 37 2.07912 19.7815
      vertex 10 0.758597 19.9203
      vertex 37 0 20
    endloop
  endfacet
  facet normal 0 0.10453 0.994522
    outer loop
      vertex -10 2.07912 19.7815
      vertex -37 2.07912 19.7815
      vertex -10 1.32052 19.8612
    endloop
  endfacet
  facet normal 0 -0.809017 0.587785
    outer loop
      vertex 10 -8.21191 15.6171
      vertex 10 -8.66025 15
      vertex 37 -8.66025 15
    endloop
  endfacet
  facet normal -9.33089e-09 -0.809017 0.587785
    outer loop
      vertex -37 -8.66025 15
      vertex -10 -7.8798 16.0742
      vertex -37 -7.43145 16.6913
    endloop
  endfacet
  facet normal 0 -0.809017 0.587785
    outer loop
      vertex -10 -7.8798 16.0742
      vertex -37 -8.66025 15
      vertex -10 -8.66025 15
    endloop
  endfacet
  facet normal -0.809017 -0.587786 0
    outer loop
      vertex 1.25 0 19
      vertex 0.386271 1.18882 20
      vertex 0.386271 1.18882 19
    endloop
  endfacet
  facet normal -0.809017 -0.587786 0
    outer loop
      vertex 0.386271 1.18882 20
      vertex 1.25 0 19
      vertex 1.25 0 20
    endloop
  endfacet
  facet normal 1 -0 0
    outer loop
      vertex -1.01127 -0.734731 20
      vertex -1.01127 0.734731 19
      vertex -1.01127 0.734731 20
    endloop
  endfacet
  facet normal 1 0 0
    outer loop
      vertex -1.01127 0.734731 19
      vertex -1.01127 -0.734731 20
      vertex -1.01127 -0.734731 19
    endloop
  endfacet
  facet normal 0.309017 -0.951056 0
    outer loop
      vertex -1.01127 0.734731 19
      vertex 0.386271 1.18882 20
      vertex -1.01127 0.734731 20
    endloop
  endfacet
  facet normal 0.309017 -0.951056 0
    outer loop
      vertex 0.386271 1.18882 20
      vertex -1.01127 0.734731 19
      vertex 0.386271 1.18882 19
    endloop
  endfacet
  facet normal 0.309017 0.951056 -0
    outer loop
      vertex 0.386271 -1.18882 19
      vertex -1.01127 -0.734731 20
      vertex 0.386271 -1.18882 20
    endloop
  endfacet
  facet normal 0.309017 0.951056 0
    outer loop
      vertex -1.01127 -0.734731 20
      vertex 0.386271 -1.18882 19
      vertex -1.01127 -0.734731 19
    endloop
  endfacet
  facet normal 0 0 1
    outer loop
      vertex 0.386271 1.18882 19
      vertex 0.386271 -1.18882 19
      vertex 1.25 0 19
    endloop
  endfacet
  facet normal -0 0 1
    outer loop
      vertex -1.01127 0.734731 19
      vertex 0.386271 -1.18882 19
      vertex 0.386271 1.18882 19
    endloop
  endfacet
  facet normal 0 0 1
    outer loop
      vertex 0.386271 -1.18882 19
      vertex -1.01127 0.734731 19
      vertex -1.01127 -0.734731 19
    endloop
  endfacet
  facet normal -0.809017 0.587786 0
    outer loop
      vertex 0.386271 -1.18882 19
      vertex 1.25 0 20
      vertex 1.25 0 19
    endloop
  endfacet
  facet normal -0.809017 0.587786 0
    outer loop
      vertex 1.25 0 20
      vertex 0.386271 -1.18882 19
      vertex 0.386271 -1.18882 20
    endloop
  endfacet
endsolid OpenSCAD_Model
