solid OpenSCAD_Model
  facet normal 0 0.104528 -0.994522
    outer loop
      vertex -41 3.11868 0.327785
      vertex -22.5 0 0
      vertex -41 0 0
    endloop
  endfacet
  facet normal 0 0.104528 -0.994522
    outer loop
      vertex -22.5 0 0
      vertex -41 3.11868 0.327785
      vertex -22.1722 3.11868 0.327785
    endloop
  endfacet
  facet normal 0 0.104528 -0.994522
    outer loop
      vertex 22.5 0 0
      vertex 41 3.11868 0.327785
      vertex 41 0 0
    endloop
  endfacet
  facet normal 0 0.104528 -0.994522
    outer loop
      vertex 41 3.11868 0.327785
      vertex 22.5 0 0
      vertex 22.1722 3.11868 0.327785
    endloop
  endfacet
  facet normal 0 1 -0
    outer loop
      vertex -16.6788 14.9178 13.4321
      vertex -41 14.9178 16.5679
      vertex -16.6788 14.9178 16.5679
    endloop
  endfacet
  facet normal 0 1 0
    outer loop
      vertex -41 14.9178 16.5679
      vertex -16.6788 14.9178 13.4321
      vertex -41 14.9178 13.4321
    endloop
  endfacet
  facet normal 0 1 -0
    outer loop
      vertex 41 14.9178 13.4321
      vertex 16.6788 14.9178 16.5679
      vertex 41 14.9178 16.5679
    endloop
  endfacet
  facet normal 0 1 0
    outer loop
      vertex 16.6788 14.9178 16.5679
      vertex 41 14.9178 13.4321
      vertex 16.6788 14.9178 13.4321
    endloop
  endfacet
  facet normal -3.42229e-08 0.913545 0.406737
    outer loop
      vertex -41 14.2658 19.6353
      vertex -18.3384 12.9904 22.5
      vertex -18.2029 13.2252 21.9727
    endloop
  endfacet
  facet normal 2.59504e-08 0.913546 0.406736
    outer loop
      vertex -41 14.2658 19.6353
      vertex -18.2029 13.2252 21.9727
      vertex -17.5937 13.9018 20.453
    endloop
  endfacet
  facet normal 0 0.913545 0.406737
    outer loop
      vertex -18.3384 12.9904 22.5
      vertex -41 14.2658 19.6353
      vertex -41 12.9904 22.5
    endloop
  endfacet
  facet normal 0 0.913545 0.406737
    outer loop
      vertex 41 12.9904 22.5
      vertex 18.2029 13.2252 21.9727
      vertex 18.3384 12.9904 22.5
    endloop
  endfacet
  facet normal -2.08338e-08 0.913545 0.406738
    outer loop
      vertex 18.2029 13.2252 21.9727
      vertex 41 12.9904 22.5
      vertex 18.0935 13.3467 21.6997
    endloop
  endfacet
  facet normal 0 -0.10453 0.994522
    outer loop
      vertex 22.5 0 30
      vertex 22.4258 -0.706427 29.9258
      vertex 41 0 30
    endloop
  endfacet
  facet normal 0 -0.104528 0.994522
    outer loop
      vertex -41 -3.11868 29.6722
      vertex -22.5 0 30
      vertex -41 0 30
    endloop
  endfacet
  facet normal 1.0518e-07 -0.104529 0.994522
    outer loop
      vertex -22.5 0 30
      vertex -41 -3.11868 29.6722
      vertex -22.2472 -2.40546 29.7472
    endloop
  endfacet
  facet normal 2.08338e-08 0.913545 -0.406738
    outer loop
      vertex -18.2029 13.2252 8.02734
      vertex -41 12.9904 7.5
      vertex -18.0935 13.3467 8.30026
    endloop
  endfacet
  facet normal 8.55843e-09 0.913545 -0.406737
    outer loop
      vertex -41 12.9904 7.5
      vertex -18.2029 13.2252 8.02734
      vertex -18.3384 12.9904 7.5
    endloop
  endfacet
  facet normal -8.36215e-09 0.913545 -0.406737
    outer loop
      vertex 41 14.2658 10.3647
      vertex 18.2029 13.2252 8.02734
      vertex 17.5937 13.9018 9.54702
    endloop
  endfacet
  facet normal 8.55842e-09 0.913545 -0.406737
    outer loop
      vertex 18.3384 12.9904 7.5
      vertex 41 14.2658 10.3647
      vertex 41 12.9904 7.5
    endloop
  endfacet
  facet normal -3.56741e-08 0.913546 -0.406737
    outer loop
      vertex 41 14.2658 10.3647
      vertex 18.3384 12.9904 7.5
      vertex 18.2029 13.2252 8.02734
    endloop
  endfacet
  facet normal -5.88759e-09 0.809017 -0.587785
    outer loop
      vertex -19.4026 11.1472 4.96304
      vertex -41 12.9904 7.5
      vertex -18.6288 12.4875 6.80787
    endloop
  endfacet
  facet normal 0 0.809017 -0.587785
    outer loop
      vertex -41 12.9904 7.5
      vertex -19.4026 11.1472 4.96304
      vertex -41 11.1472 4.96304
    endloop
  endfacet
  facet normal 0 0.809017 -0.587786
    outer loop
      vertex 19.4026 11.1472 4.96304
      vertex 19.1186 11.639 5.64002
      vertex 41 11.1472 4.96304
    endloop
  endfacet
  facet normal -1 0 0
    outer loop
      vertex -41 14.2658 10.3647
      vertex -41 14.9178 16.5679
      vertex -41 14.9178 13.4321
    endloop
  endfacet
  facet normal -1 0 0
    outer loop
      vertex -41 14.2658 10.3647
      vertex -41 14.2658 19.6353
      vertex -41 14.9178 16.5679
    endloop
  endfacet
  facet normal -1 0 0
    outer loop
      vertex -41 12.9904 7.5
      vertex -41 14.2658 19.6353
      vertex -41 14.2658 10.3647
    endloop
  endfacet
  facet normal -1 0 0
    outer loop
      vertex -41 12.9904 7.5
      vertex -41 12.9904 22.5
      vertex -41 14.2658 19.6353
    endloop
  endfacet
  facet normal -1 0 0
    outer loop
      vertex -41 11.1472 4.96304
      vertex -41 12.9904 22.5
      vertex -41 12.9904 7.5
    endloop
  endfacet
  facet normal -1 0 0
    outer loop
      vertex -41 11.1472 4.96304
      vertex -41 11.1472 25.037
      vertex -41 12.9904 22.5
    endloop
  endfacet
  facet normal -1 0 0
    outer loop
      vertex -41 8.81678 2.86474
      vertex -41 11.1472 25.037
      vertex -41 11.1472 4.96304
    endloop
  endfacet
  facet normal -1 0 0
    outer loop
      vertex -41 8.81678 2.86474
      vertex -41 8.81678 27.1353
      vertex -41 11.1472 25.037
    endloop
  endfacet
  facet normal -1 0 0
    outer loop
      vertex -41 6.10105 1.29682
      vertex -41 8.81678 27.1353
      vertex -41 8.81678 2.86474
    endloop
  endfacet
  facet normal -1 0 0
    outer loop
      vertex -41 6.10105 1.29682
      vertex -41 6.10105 28.7032
      vertex -41 8.81678 27.1353
    endloop
  endfacet
  facet normal -1 0 0
    outer loop
      vertex -41 3.11868 0.327785
      vertex -41 6.10105 28.7032
      vertex -41 6.10105 1.29682
    endloop
  endfacet
  facet normal -1 0 0
    outer loop
      vertex -41 3.11868 0.327785
      vertex -41 3.11868 29.6722
      vertex -41 6.10105 28.7032
    endloop
  endfacet
  facet normal -1 0 0
    outer loop
      vertex -41 0 0
      vertex -41 3.11868 29.6722
      vertex -41 3.11868 0.327785
    endloop
  endfacet
  facet normal -1 0 0
    outer loop
      vertex -41 0 0
      vertex -41 0 30
      vertex -41 3.11868 29.6722
    endloop
  endfacet
  facet normal -1 0 0
    outer loop
      vertex -41 -3.11868 0.327785
      vertex -41 0 30
      vertex -41 0 0
    endloop
  endfacet
  facet normal -1 0 0
    outer loop
      vertex -41 -3.11868 0.327785
      vertex -41 -3.11868 29.6722
      vertex -41 0 30
    endloop
  endfacet
  facet normal -1 0 0
    outer loop
      vertex -41 -6.10105 1.29682
      vertex -41 -3.11868 29.6722
      vertex -41 -3.11868 0.327785
    endloop
  endfacet
  facet normal -1 0 0
    outer loop
      vertex -41 -6.10105 1.29682
      vertex -41 -6.10105 28.7032
      vertex -41 -3.11868 29.6722
    endloop
  endfacet
  facet normal -1 0 0
    outer loop
      vertex -41 -8.81678 2.86474
      vertex -41 -6.10105 28.7032
      vertex -41 -6.10105 1.29682
    endloop
  endfacet
  facet normal -1 0 0
    outer loop
      vertex -41 -8.81678 2.86474
      vertex -41 -8.81678 27.1353
      vertex -41 -6.10105 28.7032
    endloop
  endfacet
  facet normal -1 0 0
    outer loop
      vertex -41 -11.1472 4.96304
      vertex -41 -8.81678 27.1353
      vertex -41 -8.81678 2.86474
    endloop
  endfacet
  facet normal -1 0 0
    outer loop
      vertex -41 -11.1472 4.96304
      vertex -41 -11.1472 25.037
      vertex -41 -8.81678 27.1353
    endloop
  endfacet
  facet normal -1 0 0
    outer loop
      vertex -41 -12.9904 7.5
      vertex -41 -11.1472 25.037
      vertex -41 -11.1472 4.96304
    endloop
  endfacet
  facet normal -1 0 0
    outer loop
      vertex -41 -12.9904 7.5
      vertex -41 -12.9904 22.5
      vertex -41 -11.1472 25.037
    endloop
  endfacet
  facet normal -1 0 0
    outer loop
      vertex -41 -14.2658 10.3647
      vertex -41 -12.9904 22.5
      vertex -41 -12.9904 7.5
    endloop
  endfacet
  facet normal -1 0 0
    outer loop
      vertex -41 -14.2658 10.3647
      vertex -41 -14.2658 19.6353
      vertex -41 -12.9904 22.5
    endloop
  endfacet
  facet normal -1 0 0
    outer loop
      vertex -41 -14.9178 13.4321
      vertex -41 -14.2658 19.6353
      vertex -41 -14.2658 10.3647
    endloop
  endfacet
  facet normal -1 0 0
    outer loop
      vertex -41 -14.2658 19.6353
      vertex -41 -14.9178 13.4321
      vertex -41 -14.9178 16.5679
    endloop
  endfacet
  facet normal 0 0.913545 -0.406737
    outer loop
      vertex -18.0935 13.3467 8.30026
      vertex -41 14.2658 10.3647
      vertex -17.2659 14.2658 10.3647
    endloop
  endfacet
  facet normal -1.56661e-08 0.913545 -0.406737
    outer loop
      vertex -41 14.2658 10.3647
      vertex -18.0935 13.3467 8.30026
      vertex -41 12.9904 7.5
    endloop
  endfacet
  facet normal 0 0.913545 -0.406737
    outer loop
      vertex 17.5937 13.9018 9.54702
      vertex 17.2659 14.2658 10.3647
      vertex 41 14.2658 10.3647
    endloop
  endfacet
  facet normal 0 0.978148 -0.207912
    outer loop
      vertex -17.2659 14.2658 10.3647
      vertex -41 14.9178 13.4321
      vertex -16.6788 14.9178 13.4321
    endloop
  endfacet
  facet normal 0 0.978148 -0.207912
    outer loop
      vertex -41 14.9178 13.4321
      vertex -17.2659 14.2658 10.3647
      vertex -41 14.2658 10.3647
    endloop
  endfacet
  facet normal 0 0.978148 -0.207912
    outer loop
      vertex 17.2659 14.2658 10.3647
      vertex 41 14.9178 13.4321
      vertex 41 14.2658 10.3647
    endloop
  endfacet
  facet normal 0 0.978148 -0.207912
    outer loop
      vertex 41 14.9178 13.4321
      vertex 17.2659 14.2658 10.3647
      vertex 16.6788 14.9178 13.4321
    endloop
  endfacet
  facet normal 0 -0.104528 -0.994522
    outer loop
      vertex 41 -3.11868 0.327785
      vertex 22.5 0 0
      vertex 41 0 0
    endloop
  endfacet
  facet normal 0 -0.104528 -0.994522
    outer loop
      vertex 22.5 0 0
      vertex 41 -3.11868 0.327785
      vertex 22.1722 -3.11868 0.327785
    endloop
  endfacet
  facet normal 0 -0.104528 -0.994522
    outer loop
      vertex -41 -3.11868 0.327785
      vertex -22.5 0 0
      vertex -22.1722 -3.11868 0.327785
    endloop
  endfacet
  facet normal -0 -0.104528 -0.994522
    outer loop
      vertex -22.5 0 0
      vertex -41 -3.11868 0.327785
      vertex -41 0 0
    endloop
  endfacet
  facet normal 0 -0.978148 0.207912
    outer loop
      vertex 41 -14.9178 16.5679
      vertex 17.2659 -14.2658 19.6353
      vertex 16.6788 -14.9178 16.5679
    endloop
  endfacet
  facet normal 0 -0.978148 0.207912
    outer loop
      vertex 17.2659 -14.2658 19.6353
      vertex 41 -14.9178 16.5679
      vertex 41 -14.2658 19.6353
    endloop
  endfacet
  facet normal 0 -0.978148 0.207912
    outer loop
      vertex -41 -14.9178 16.5679
      vertex -17.2659 -14.2658 19.6353
      vertex -41 -14.2658 19.6353
    endloop
  endfacet
  facet normal 0 -0.978148 0.207912
    outer loop
      vertex -17.2659 -14.2658 19.6353
      vertex -41 -14.9178 16.5679
      vertex -16.6788 -14.9178 16.5679
    endloop
  endfacet
  facet normal -4.60278e-08 -0.104528 0.994522
    outer loop
      vertex 22.4258 -0.706427 29.9258
      vertex 41 -3.11868 29.6722
      vertex 41 0 30
    endloop
  endfacet
  facet normal 0 -0.104528 0.994522
    outer loop
      vertex 41 -3.11868 29.6722
      vertex 22.4258 -0.706427 29.9258
      vertex 22.1722 -3.11868 29.6722
    endloop
  endfacet
  facet normal 0 -0.104526 0.994522
    outer loop
      vertex -22.2472 -2.40546 29.7472
      vertex -41 -3.11868 29.6722
      vertex -22.1722 -3.11868 29.6722
    endloop
  endfacet
  facet normal 0 -0.809017 0.587785
    outer loop
      vertex 41 -12.9904 22.5
      vertex 19.4026 -11.1472 25.037
      vertex 18.3384 -12.9904 22.5
    endloop
  endfacet
  facet normal 0 -0.809017 0.587785
    outer loop
      vertex 19.4026 -11.1472 25.037
      vertex 41 -12.9904 22.5
      vertex 41 -11.1472 25.037
    endloop
  endfacet
  facet normal 0 -0.809017 0.587785
    outer loop
      vertex -41 -12.9904 22.5
      vertex -19.4026 -11.1472 25.037
      vertex -41 -11.1472 25.037
    endloop
  endfacet
  facet normal 0 -0.809017 0.587785
    outer loop
      vertex -19.4026 -11.1472 25.037
      vertex -41 -12.9904 22.5
      vertex -18.3384 -12.9904 22.5
    endloop
  endfacet
  facet normal 0 -1 0
    outer loop
      vertex 16.6788 -14.9178 13.4321
      vertex 41 -14.9178 16.5679
      vertex 16.6788 -14.9178 16.5679
    endloop
  endfacet
  facet normal 0 -1 -0
    outer loop
      vertex 41 -14.9178 16.5679
      vertex 16.6788 -14.9178 13.4321
      vertex 41 -14.9178 13.4321
    endloop
  endfacet
  facet normal 0 -1 0
    outer loop
      vertex -41 -14.9178 13.4321
      vertex -16.6788 -14.9178 16.5679
      vertex -41 -14.9178 16.5679
    endloop
  endfacet
  facet normal 0 -1 -0
    outer loop
      vertex -16.6788 -14.9178 16.5679
      vertex -41 -14.9178 13.4321
      vertex -16.6788 -14.9178 13.4321
    endloop
  endfacet
  facet normal 0 -0.5 -0.866025
    outer loop
      vertex -41 -8.81678 2.86474
      vertex -21.5459 -6.10105 1.29682
      vertex -20.6636 -8.81678 2.86474
    endloop
  endfacet
  facet normal -0 -0.5 -0.866025
    outer loop
      vertex -21.5459 -6.10105 1.29682
      vertex -41 -8.81678 2.86474
      vertex -41 -6.10105 1.29682
    endloop
  endfacet
  facet normal 0 -0.5 -0.866025
    outer loop
      vertex 41 -8.81678 2.86474
      vertex 21.5459 -6.10105 1.29682
      vertex 41 -6.10105 1.29682
    endloop
  endfacet
  facet normal 0 -0.5 -0.866025
    outer loop
      vertex 21.5459 -6.10105 1.29682
      vertex 41 -8.81678 2.86474
      vertex 20.6636 -8.81678 2.86474
    endloop
  endfacet
  facet normal 0 0.669131 -0.743145
    outer loop
      vertex -41 11.1472 4.96304
      vertex -20.6636 8.81678 2.86474
      vertex -41 8.81678 2.86474
    endloop
  endfacet
  facet normal 7.21321e-09 0.669131 -0.743145
    outer loop
      vertex -20.6636 8.81678 2.86474
      vertex -41 11.1472 4.96304
      vertex -20.5548 9.15157 3.1662
    endloop
  endfacet
  facet normal 0 0.669131 -0.743145
    outer loop
      vertex -20.5548 9.15157 3.1662
      vertex -41 11.1472 4.96304
      vertex -19.4026 11.1472 4.96304
    endloop
  endfacet
  facet normal 0 0.669131 -0.743145
    outer loop
      vertex 20.6636 8.81678 2.86474
      vertex 41 11.1472 4.96304
      vertex 41 8.81678 2.86474
    endloop
  endfacet
  facet normal -7.21321e-09 0.669131 -0.743145
    outer loop
      vertex 20.5548 9.15157 3.1662
      vertex 41 11.1472 4.96304
      vertex 20.6636 8.81678 2.86474
    endloop
  endfacet
  facet normal 0 0.669131 -0.743145
    outer loop
      vertex 41 11.1472 4.96304
      vertex 20.5548 9.15157 3.1662
      vertex 19.4026 11.1472 4.96304
    endloop
  endfacet
  facet normal 0 0.309017 -0.951057
    outer loop
      vertex -41 6.10105 1.29682
      vertex -22.1722 3.11868 0.327785
      vertex -41 3.11868 0.327785
    endloop
  endfacet
  facet normal -2.53913e-09 0.309017 -0.951057
    outer loop
      vertex -22.1722 3.11868 0.327785
      vertex -41 6.10105 1.29682
      vertex -22.0083 4.67801 0.834445
    endloop
  endfacet
  facet normal 0 0.309017 -0.951056
    outer loop
      vertex -22.0083 4.67801 0.834445
      vertex -41 6.10105 1.29682
      vertex -21.5459 6.10105 1.29682
    endloop
  endfacet
  facet normal 0 0.309017 -0.951057
    outer loop
      vertex 22.1722 3.11868 0.327785
      vertex 41 6.10105 1.29682
      vertex 41 3.11868 0.327785
    endloop
  endfacet
  facet normal 2.53913e-09 0.309017 -0.951057
    outer loop
      vertex 22.0083 4.67801 0.834445
      vertex 41 6.10105 1.29682
      vertex 22.1722 3.11868 0.327785
    endloop
  endfacet
  facet normal 0 0.309017 -0.951056
    outer loop
      vertex 41 6.10105 1.29682
      vertex 22.0083 4.67801 0.834445
      vertex 21.5459 6.10105 1.29682
    endloop
  endfacet
  facet normal 1.2368e-08 0.809017 -0.587785
    outer loop
      vertex -18.6288 12.4875 6.80787
      vertex -41 12.9904 7.5
      vertex -18.3384 12.9904 7.5
    endloop
  endfacet
  facet normal 1.2368e-08 0.809017 -0.587785
    outer loop
      vertex 41 12.9904 7.5
      vertex 19.1186 11.639 5.64002
      vertex 18.3384 12.9904 7.5
    endloop
  endfacet
  facet normal 2.2736e-08 0.809017 -0.587785
    outer loop
      vertex 19.1186 11.639 5.64002
      vertex 41 12.9904 7.5
      vertex 41 11.1472 4.96304
    endloop
  endfacet
  facet normal 0 -0.309017 0.951057
    outer loop
      vertex -41 -6.10105 28.7032
      vertex -22.1722 -3.11868 29.6722
      vertex -41 -3.11868 29.6722
    endloop
  endfacet
  facet normal 8.24238e-08 -0.309018 0.951056
    outer loop
      vertex -22.1722 -3.11868 29.6722
      vertex -41 -6.10105 28.7032
      vertex -22.0083 -4.67801 29.1656
    endloop
  endfacet
  facet normal 0 -0.309017 0.951057
    outer loop
      vertex -22.0083 -4.67801 29.1656
      vertex -41 -6.10105 28.7032
      vertex -21.5459 -6.10105 28.7032
    endloop
  endfacet
  facet normal 0 -0.309017 0.951057
    outer loop
      vertex 22.1722 -3.11868 29.6722
      vertex 41 -6.10105 28.7032
      vertex 41 -3.11868 29.6722
    endloop
  endfacet
  facet normal -8.24238e-08 -0.309018 0.951056
    outer loop
      vertex 22.0083 -4.67801 29.1656
      vertex 41 -6.10105 28.7032
      vertex 22.1722 -3.11868 29.6722
    endloop
  endfacet
  facet normal 0 -0.309017 0.951057
    outer loop
      vertex 41 -6.10105 28.7032
      vertex 22.0083 -4.67801 29.1656
      vertex 21.5459 -6.10105 28.7032
    endloop
  endfacet
  facet normal 0 -0.5 0.866025
    outer loop
      vertex -41 -8.81678 27.1353
      vertex -21.5459 -6.10105 28.7032
      vertex -41 -6.10105 28.7032
    endloop
  endfacet
  facet normal 0 -0.5 0.866025
    outer loop
      vertex -21.5459 -6.10105 28.7032
      vertex -41 -8.81678 27.1353
      vertex -20.6636 -8.81678 27.1353
    endloop
  endfacet
  facet normal 0 -0.5 0.866025
    outer loop
      vertex 21.5459 -6.10105 28.7032
      vertex 41 -8.81678 27.1353
      vertex 41 -6.10105 28.7032
    endloop
  endfacet
  facet normal 0 -0.5 0.866025
    outer loop
      vertex 41 -8.81678 27.1353
      vertex 21.5459 -6.10105 28.7032
      vertex 20.6636 -8.81678 27.1353
    endloop
  endfacet
  facet normal -0 -0.978148 -0.207912
    outer loop
      vertex -17.2659 -14.2658 10.3647
      vertex -41 -14.9178 13.4321
      vertex -41 -14.2658 10.3647
    endloop
  endfacet
  facet normal 0 -0.978148 -0.207912
    outer loop
      vertex -41 -14.9178 13.4321
      vertex -17.2659 -14.2658 10.3647
      vertex -16.6788 -14.9178 13.4321
    endloop
  endfacet
  facet normal 0 -0.978148 -0.207912
    outer loop
      vertex 17.2659 -14.2658 10.3647
      vertex 41 -14.9178 13.4321
      vertex 16.6788 -14.9178 13.4321
    endloop
  endfacet
  facet normal 0 -0.978148 -0.207912
    outer loop
      vertex 41 -14.9178 13.4321
      vertex 17.2659 -14.2658 10.3647
      vertex 41 -14.2658 10.3647
    endloop
  endfacet
  facet normal 1 0 0
    outer loop
      vertex 41 14.2658 19.6353
      vertex 41 14.9178 13.4321
      vertex 41 14.9178 16.5679
    endloop
  endfacet
  facet normal 1 0 0
    outer loop
      vertex 41 14.2658 19.6353
      vertex 41 14.2658 10.3647
      vertex 41 14.9178 13.4321
    endloop
  endfacet
  facet normal 1 0 0
    outer loop
      vertex 41 12.9904 22.5
      vertex 41 14.2658 10.3647
      vertex 41 14.2658 19.6353
    endloop
  endfacet
  facet normal 1 0 0
    outer loop
      vertex 41 12.9904 22.5
      vertex 41 12.9904 7.5
      vertex 41 14.2658 10.3647
    endloop
  endfacet
  facet normal 1 0 0
    outer loop
      vertex 41 11.1472 25.037
      vertex 41 12.9904 7.5
      vertex 41 12.9904 22.5
    endloop
  endfacet
  facet normal 1 0 0
    outer loop
      vertex 41 11.1472 25.037
      vertex 41 11.1472 4.96304
      vertex 41 12.9904 7.5
    endloop
  endfacet
  facet normal 1 0 0
    outer loop
      vertex 41 8.81678 27.1353
      vertex 41 11.1472 4.96304
      vertex 41 11.1472 25.037
    endloop
  endfacet
  facet normal 1 0 0
    outer loop
      vertex 41 8.81678 27.1353
      vertex 41 8.81678 2.86474
      vertex 41 11.1472 4.96304
    endloop
  endfacet
  facet normal 1 0 0
    outer loop
      vertex 41 6.10105 28.7032
      vertex 41 8.81678 2.86474
      vertex 41 8.81678 27.1353
    endloop
  endfacet
  facet normal 1 0 0
    outer loop
      vertex 41 6.10105 28.7032
      vertex 41 6.10105 1.29682
      vertex 41 8.81678 2.86474
    endloop
  endfacet
  facet normal 1 0 0
    outer loop
      vertex 41 3.11868 29.6722
      vertex 41 6.10105 1.29682
      vertex 41 6.10105 28.7032
    endloop
  endfacet
  facet normal 1 0 0
    outer loop
      vertex 41 3.11868 29.6722
      vertex 41 3.11868 0.327785
      vertex 41 6.10105 1.29682
    endloop
  endfacet
  facet normal 1 0 0
    outer loop
      vertex 41 0 30
      vertex 41 3.11868 0.327785
      vertex 41 3.11868 29.6722
    endloop
  endfacet
  facet normal 1 0 0
    outer loop
      vertex 41 0 30
      vertex 41 0 0
      vertex 41 3.11868 0.327785
    endloop
  endfacet
  facet normal 1 -0 0
    outer loop
      vertex 41 -3.11868 29.6722
      vertex 41 0 0
      vertex 41 0 30
    endloop
  endfacet
  facet normal 1 0 0
    outer loop
      vertex 41 -3.11868 29.6722
      vertex 41 -3.11868 0.327785
      vertex 41 0 0
    endloop
  endfacet
  facet normal 1 -0 0
    outer loop
      vertex 41 -6.10105 28.7032
      vertex 41 -3.11868 0.327785
      vertex 41 -3.11868 29.6722
    endloop
  endfacet
  facet normal 1 0 0
    outer loop
      vertex 41 -6.10105 28.7032
      vertex 41 -6.10105 1.29682
      vertex 41 -3.11868 0.327785
    endloop
  endfacet
  facet normal 1 -0 0
    outer loop
      vertex 41 -8.81678 27.1353
      vertex 41 -6.10105 1.29682
      vertex 41 -6.10105 28.7032
    endloop
  endfacet
  facet normal 1 0 0
    outer loop
      vertex 41 -8.81678 27.1353
      vertex 41 -8.81678 2.86474
      vertex 41 -6.10105 1.29682
    endloop
  endfacet
  facet normal 1 -0 0
    outer loop
      vertex 41 -11.1472 25.037
      vertex 41 -8.81678 2.86474
      vertex 41 -8.81678 27.1353
    endloop
  endfacet
  facet normal 1 0 0
    outer loop
      vertex 41 -11.1472 25.037
      vertex 41 -11.1472 4.96304
      vertex 41 -8.81678 2.86474
    endloop
  endfacet
  facet normal 1 -0 0
    outer loop
      vertex 41 -12.9904 22.5
      vertex 41 -11.1472 4.96304
      vertex 41 -11.1472 25.037
    endloop
  endfacet
  facet normal 1 0 0
    outer loop
      vertex 41 -12.9904 22.5
      vertex 41 -12.9904 7.5
      vertex 41 -11.1472 4.96304
    endloop
  endfacet
  facet normal 1 -0 0
    outer loop
      vertex 41 -14.2658 19.6353
      vertex 41 -12.9904 7.5
      vertex 41 -12.9904 22.5
    endloop
  endfacet
  facet normal 1 0 0
    outer loop
      vertex 41 -14.2658 19.6353
      vertex 41 -14.2658 10.3647
      vertex 41 -12.9904 7.5
    endloop
  endfacet
  facet normal 1 -0 0
    outer loop
      vertex 41 -14.9178 16.5679
      vertex 41 -14.2658 10.3647
      vertex 41 -14.2658 19.6353
    endloop
  endfacet
  facet normal 1 0 0
    outer loop
      vertex 41 -14.2658 10.3647
      vertex 41 -14.9178 16.5679
      vertex 41 -14.9178 13.4321
    endloop
  endfacet
  facet normal -0 -0.809017 -0.587785
    outer loop
      vertex -19.4026 -11.1472 4.96304
      vertex -41 -12.9904 7.5
      vertex -41 -11.1472 4.96304
    endloop
  endfacet
  facet normal -5.88759e-09 -0.809017 -0.587785
    outer loop
      vertex -41 -12.9904 7.5
      vertex -19.4026 -11.1472 4.96304
      vertex -18.6288 -12.4875 6.80787
    endloop
  endfacet
  facet normal -0 -0.809017 -0.587786
    outer loop
      vertex 41 -11.1472 4.96304
      vertex 19.1186 -11.639 5.64002
      vertex 19.4026 -11.1472 4.96304
    endloop
  endfacet
  facet normal 0 -0.669131 -0.743145
    outer loop
      vertex -41 -11.1472 4.96304
      vertex -20.5548 -9.15157 3.1662
      vertex -19.4026 -11.1472 4.96304
    endloop
  endfacet
  facet normal 7.21321e-09 -0.669131 -0.743145
    outer loop
      vertex -41 -11.1472 4.96304
      vertex -20.6636 -8.81678 2.86474
      vertex -20.5548 -9.15157 3.1662
    endloop
  endfacet
  facet normal -0 -0.669131 -0.743145
    outer loop
      vertex -20.6636 -8.81678 2.86474
      vertex -41 -11.1472 4.96304
      vertex -41 -8.81678 2.86474
    endloop
  endfacet
  facet normal 0 -0.669131 -0.743145
    outer loop
      vertex 41 -11.1472 4.96304
      vertex 20.6636 -8.81678 2.86474
      vertex 41 -8.81678 2.86474
    endloop
  endfacet
  facet normal -7.21321e-09 -0.669131 -0.743145
    outer loop
      vertex 41 -11.1472 4.96304
      vertex 20.5548 -9.15157 3.1662
      vertex 20.6636 -8.81678 2.86474
    endloop
  endfacet
  facet normal 0 -0.669131 -0.743145
    outer loop
      vertex 20.5548 -9.15157 3.1662
      vertex 41 -11.1472 4.96304
      vertex 19.4026 -11.1472 4.96304
    endloop
  endfacet
  facet normal -8.36215e-09 -0.913545 -0.406737
    outer loop
      vertex 18.2029 -13.2252 8.02734
      vertex 41 -14.2658 10.3647
      vertex 17.5937 -13.9018 9.54702
    endloop
  endfacet
  facet normal -3.56741e-08 -0.913546 -0.406737
    outer loop
      vertex 18.3384 -12.9904 7.5
      vertex 41 -14.2658 10.3647
      vertex 18.2029 -13.2252 8.02734
    endloop
  endfacet
  facet normal 8.55842e-09 -0.913545 -0.406737
    outer loop
      vertex 41 -14.2658 10.3647
      vertex 18.3384 -12.9904 7.5
      vertex 41 -12.9904 7.5
    endloop
  endfacet
  facet normal 8.55843e-09 -0.913545 -0.406737
    outer loop
      vertex -18.2029 -13.2252 8.02734
      vertex -41 -12.9904 7.5
      vertex -18.3384 -12.9904 7.5
    endloop
  endfacet
  facet normal 2.08338e-08 -0.913545 -0.406738
    outer loop
      vertex -41 -12.9904 7.5
      vertex -18.2029 -13.2252 8.02734
      vertex -18.0935 -13.3467 8.30026
    endloop
  endfacet
  facet normal 0 -0.913545 -0.406737
    outer loop
      vertex -41 -14.2658 10.3647
      vertex -18.0935 -13.3467 8.30026
      vertex -17.2659 -14.2658 10.3647
    endloop
  endfacet
  facet normal -1.56661e-08 -0.913545 -0.406737
    outer loop
      vertex -18.0935 -13.3467 8.30026
      vertex -41 -14.2658 10.3647
      vertex -41 -12.9904 7.5
    endloop
  endfacet
  facet normal -0 -0.913545 -0.406737
    outer loop
      vertex 41 -14.2658 10.3647
      vertex 17.2659 -14.2658 10.3647
      vertex 17.5937 -13.9018 9.54702
    endloop
  endfacet
  facet normal 0 -0.309017 -0.951056
    outer loop
      vertex -41 -6.10105 1.29682
      vertex -22.0083 -4.67801 0.834445
      vertex -21.5459 -6.10105 1.29682
    endloop
  endfacet
  facet normal -2.53913e-09 -0.309017 -0.951057
    outer loop
      vertex -41 -6.10105 1.29682
      vertex -22.1722 -3.11868 0.327785
      vertex -22.0083 -4.67801 0.834445
    endloop
  endfacet
  facet normal -0 -0.309017 -0.951057
    outer loop
      vertex -22.1722 -3.11868 0.327785
      vertex -41 -6.10105 1.29682
      vertex -41 -3.11868 0.327785
    endloop
  endfacet
  facet normal 0 -0.309017 -0.951057
    outer loop
      vertex 41 -6.10105 1.29682
      vertex 22.1722 -3.11868 0.327785
      vertex 41 -3.11868 0.327785
    endloop
  endfacet
  facet normal 2.53913e-09 -0.309017 -0.951057
    outer loop
      vertex 41 -6.10105 1.29682
      vertex 22.0083 -4.67801 0.834445
      vertex 22.1722 -3.11868 0.327785
    endloop
  endfacet
  facet normal 0 -0.309017 -0.951056
    outer loop
      vertex 22.0083 -4.67801 0.834445
      vertex 41 -6.10105 1.29682
      vertex 21.5459 -6.10105 1.29682
    endloop
  endfacet
  facet normal 0 0.10453 0.994522
    outer loop
      vertex 41 0 30
      vertex 22.4258 0.706427 29.9258
      vertex 22.5 0 30
    endloop
  endfacet
  facet normal 1.0518e-07 0.104529 0.994522
    outer loop
      vertex -41 3.11868 29.6722
      vertex -22.5 0 30
      vertex -22.2472 2.40546 29.7472
    endloop
  endfacet
  facet normal 0 0.104528 0.994522
    outer loop
      vertex -22.5 0 30
      vertex -41 3.11868 29.6722
      vertex -41 0 30
    endloop
  endfacet
  facet normal 0 0.66913 0.743145
    outer loop
      vertex 41 11.1472 25.037
      vertex 20.6636 8.81678 27.1353
      vertex 41 8.81678 27.1353
    endloop
  endfacet
  facet normal 1.93056e-07 0.66913 0.743146
    outer loop
      vertex 41 11.1472 25.037
      vertex 20.5548 9.15157 26.8338
      vertex 20.6636 8.81678 27.1353
    endloop
  endfacet
  facet normal 0 0.669131 0.743145
    outer loop
      vertex 20.5548 9.15157 26.8338
      vertex 41 11.1472 25.037
      vertex 19.4026 11.1472 25.037
    endloop
  endfacet
  facet normal -0 0.669131 0.743145
    outer loop
      vertex -41 11.1472 25.037
      vertex -20.5548 9.15157 26.8338
      vertex -19.4026 11.1472 25.037
    endloop
  endfacet
  facet normal -1.93056e-07 0.66913 0.743146
    outer loop
      vertex -41 11.1472 25.037
      vertex -20.6636 8.81678 27.1353
      vertex -20.5548 9.15157 26.8338
    endloop
  endfacet
  facet normal 0 0.66913 0.743145
    outer loop
      vertex -20.6636 8.81678 27.1353
      vertex -41 11.1472 25.037
      vertex -41 8.81678 27.1353
    endloop
  endfacet
  facet normal -0 0.809017 0.587785
    outer loop
      vertex -41 12.9904 22.5
      vertex -19.1186 11.639 24.36
      vertex -18.3384 12.9904 22.5
    endloop
  endfacet
  facet normal -3.09102e-09 0.809017 0.587785
    outer loop
      vertex -19.1186 11.639 24.36
      vertex -41 12.9904 22.5
      vertex -41 11.1472 25.037
    endloop
  endfacet
  facet normal 0 0.809017 0.587785
    outer loop
      vertex 41 12.9904 22.5
      vertex 18.3384 12.9904 22.5
      vertex 18.6288 12.4875 23.1921
    endloop
  endfacet
  facet normal 0 0.809017 0.587785
    outer loop
      vertex 41 12.9904 22.5
      vertex 19.4026 11.1472 25.037
      vertex 41 11.1472 25.037
    endloop
  endfacet
  facet normal 5.88759e-09 0.809017 0.587785
    outer loop
      vertex 19.4026 11.1472 25.037
      vertex 41 12.9904 22.5
      vertex 18.6288 12.4875 23.1921
    endloop
  endfacet
  facet normal 0 0.809017 0.587785
    outer loop
      vertex -19.1186 11.639 24.36
      vertex -41 11.1472 25.037
      vertex -19.4026 11.1472 25.037
    endloop
  endfacet
  facet normal 2.03966e-08 0.913545 0.406737
    outer loop
      vertex 41 14.2658 19.6353
      vertex 18.0935 13.3467 21.6997
      vertex 41 12.9904 22.5
    endloop
  endfacet
  facet normal 0 0.913546 0.406736
    outer loop
      vertex 18.0935 13.3467 21.6997
      vertex 41 14.2658 19.6353
      vertex 17.2659 14.2658 19.6353
    endloop
  endfacet
  facet normal 0 0.913545 0.406737
    outer loop
      vertex -17.2659 14.2658 19.6353
      vertex -41 14.2658 19.6353
      vertex -17.5937 13.9018 20.453
    endloop
  endfacet
  facet normal -0 0.978148 0.207912
    outer loop
      vertex -41 14.9178 16.5679
      vertex -17.2659 14.2658 19.6353
      vertex -16.6788 14.9178 16.5679
    endloop
  endfacet
  facet normal 0 0.978148 0.207912
    outer loop
      vertex -17.2659 14.2658 19.6353
      vertex -41 14.9178 16.5679
      vertex -41 14.2658 19.6353
    endloop
  endfacet
  facet normal 0 0.978148 0.207912
    outer loop
      vertex 41 14.9178 16.5679
      vertex 17.2659 14.2658 19.6353
      vertex 41 14.2658 19.6353
    endloop
  endfacet
  facet normal 0 0.978148 0.207912
    outer loop
      vertex 17.2659 14.2658 19.6353
      vertex 41 14.9178 16.5679
      vertex 16.6788 14.9178 16.5679
    endloop
  endfacet
  facet normal 0 0.5 -0.866025
    outer loop
      vertex -41 8.81678 2.86474
      vertex -21.5459 6.10105 1.29682
      vertex -41 6.10105 1.29682
    endloop
  endfacet
  facet normal 0 0.5 -0.866025
    outer loop
      vertex -21.5459 6.10105 1.29682
      vertex -41 8.81678 2.86474
      vertex -20.6636 8.81678 2.86474
    endloop
  endfacet
  facet normal 0 0.5 -0.866025
    outer loop
      vertex 21.5459 6.10105 1.29682
      vertex 41 8.81678 2.86474
      vertex 41 6.10105 1.29682
    endloop
  endfacet
  facet normal 0 0.5 -0.866025
    outer loop
      vertex 41 8.81678 2.86474
      vertex 21.5459 6.10105 1.29682
      vertex 20.6636 8.81678 2.86474
    endloop
  endfacet
  facet normal 3.42229e-08 -0.913545 0.406737
    outer loop
      vertex 41 -14.2658 19.6353
      vertex 18.3384 -12.9904 22.5
      vertex 18.2029 -13.2252 21.9727
    endloop
  endfacet
  facet normal 0 -0.913546 0.406737
    outer loop
      vertex 41 -14.2658 19.6353
      vertex 18.2029 -13.2252 21.9727
      vertex 17.2659 -14.2658 19.6353
    endloop
  endfacet
  facet normal 0 -0.913545 0.406737
    outer loop
      vertex 18.3384 -12.9904 22.5
      vertex 41 -14.2658 19.6353
      vertex 41 -12.9904 22.5
    endloop
  endfacet
  facet normal 0 -0.913545 0.406737
    outer loop
      vertex -41 -14.2658 19.6353
      vertex -18.3384 -12.9904 22.5
      vertex -41 -12.9904 22.5
    endloop
  endfacet
  facet normal -3.42229e-08 -0.913545 0.406737
    outer loop
      vertex -18.3384 -12.9904 22.5
      vertex -41 -14.2658 19.6353
      vertex -18.2029 -13.2252 21.9727
    endloop
  endfacet
  facet normal 0 -0.913546 0.406737
    outer loop
      vertex -18.2029 -13.2252 21.9727
      vertex -41 -14.2658 19.6353
      vertex -17.2659 -14.2658 19.6353
    endloop
  endfacet
  facet normal 0 -0.66913 0.743145
    outer loop
      vertex 20.6636 -8.81678 27.1353
      vertex 41 -11.1472 25.037
      vertex 41 -8.81678 27.1353
    endloop
  endfacet
  facet normal 1.93056e-07 -0.66913 0.743146
    outer loop
      vertex 20.5548 -9.15157 26.8338
      vertex 41 -11.1472 25.037
      vertex 20.6636 -8.81678 27.1353
    endloop
  endfacet
  facet normal 0 -0.669131 0.743145
    outer loop
      vertex 41 -11.1472 25.037
      vertex 20.5548 -9.15157 26.8338
      vertex 19.4026 -11.1472 25.037
    endloop
  endfacet
  facet normal 0 -0.66913 0.743145
    outer loop
      vertex -41 -11.1472 25.037
      vertex -20.6636 -8.81678 27.1353
      vertex -41 -8.81678 27.1353
    endloop
  endfacet
  facet normal -1.93056e-07 -0.66913 0.743146
    outer loop
      vertex -20.6636 -8.81678 27.1353
      vertex -41 -11.1472 25.037
      vertex -20.5548 -9.15157 26.8338
    endloop
  endfacet
  facet normal 0 -0.669131 0.743145
    outer loop
      vertex -20.5548 -9.15157 26.8338
      vertex -41 -11.1472 25.037
      vertex -19.4026 -11.1472 25.037
    endloop
  endfacet
  facet normal 1.2368e-08 -0.809017 -0.587785
    outer loop
      vertex 19.1186 -11.639 5.64002
      vertex 41 -12.9904 7.5
      vertex 18.3384 -12.9904 7.5
    endloop
  endfacet
  facet normal 2.2736e-08 -0.809017 -0.587785
    outer loop
      vertex 41 -12.9904 7.5
      vertex 19.1186 -11.639 5.64002
      vertex 41 -11.1472 4.96304
    endloop
  endfacet
  facet normal 1.2368e-08 -0.809017 -0.587785
    outer loop
      vertex -18.3384 -12.9904 7.5
      vertex -41 -12.9904 7.5
      vertex -18.6288 -12.4875 6.80787
    endloop
  endfacet
  facet normal -4.60278e-08 0.104528 0.994522
    outer loop
      vertex 41 3.11868 29.6722
      vertex 22.4258 0.706427 29.9258
      vertex 41 0 30
    endloop
  endfacet
  facet normal 0 0.104528 0.994522
    outer loop
      vertex 22.4258 0.706427 29.9258
      vertex 41 3.11868 29.6722
      vertex 22.1722 3.11868 29.6722
    endloop
  endfacet
  facet normal 0 0.104526 0.994522
    outer loop
      vertex -22.1722 3.11868 29.6722
      vertex -41 3.11868 29.6722
      vertex -22.2472 2.40546 29.7472
    endloop
  endfacet
  facet normal 0 0.309017 0.951057
    outer loop
      vertex 41 6.10105 28.7032
      vertex 22.1722 3.11868 29.6722
      vertex 41 3.11868 29.6722
    endloop
  endfacet
  facet normal -8.24238e-08 0.309018 0.951056
    outer loop
      vertex 41 6.10105 28.7032
      vertex 22.0083 4.67801 29.1656
      vertex 22.1722 3.11868 29.6722
    endloop
  endfacet
  facet normal 0 0.309017 0.951057
    outer loop
      vertex 22.0083 4.67801 29.1656
      vertex 41 6.10105 28.7032
      vertex 21.5459 6.10105 28.7032
    endloop
  endfacet
  facet normal -0 0.309017 0.951057
    outer loop
      vertex -41 6.10105 28.7032
      vertex -22.0083 4.67801 29.1656
      vertex -21.5459 6.10105 28.7032
    endloop
  endfacet
  facet normal 8.24238e-08 0.309018 0.951056
    outer loop
      vertex -41 6.10105 28.7032
      vertex -22.1722 3.11868 29.6722
      vertex -22.0083 4.67801 29.1656
    endloop
  endfacet
  facet normal 0 0.309017 0.951057
    outer loop
      vertex -22.1722 3.11868 29.6722
      vertex -41 6.10105 28.7032
      vertex -41 3.11868 29.6722
    endloop
  endfacet
  facet normal 0 0.5 0.866025
    outer loop
      vertex 41 8.81678 27.1353
      vertex 21.5459 6.10105 28.7032
      vertex 41 6.10105 28.7032
    endloop
  endfacet
  facet normal 0 0.5 0.866025
    outer loop
      vertex 21.5459 6.10105 28.7032
      vertex 41 8.81678 27.1353
      vertex 20.6636 8.81678 27.1353
    endloop
  endfacet
  facet normal -0 0.5 0.866025
    outer loop
      vertex -41 8.81678 27.1353
      vertex -21.5459 6.10105 28.7032
      vertex -20.6636 8.81678 27.1353
    endloop
  endfacet
  facet normal 0 0.5 0.866025
    outer loop
      vertex -21.5459 6.10105 28.7032
      vertex -41 8.81678 27.1353
      vertex -41 6.10105 28.7032
    endloop
  endfacet
  facet normal -0.866027 -0.499997 -3.09866e-06
    outer loop
      vertex 19.1186 11.639 5.64002
      vertex 18.2029 13.2252 8.02734
      vertex 18.3384 12.9904 7.5
    endloop
  endfacet
  facet normal -0.866025 -0.500001 0
    outer loop
      vertex 18.2029 13.2252 8.02734
      vertex 19.1186 11.639 5.64002
      vertex 18.2029 13.2252 21.9727
    endloop
  endfacet
  facet normal -0.866027 -0.499997 3.22032e-06
    outer loop
      vertex 18.2029 13.2252 21.9727
      vertex 18.6288 12.4875 23.1921
      vertex 18.3384 12.9904 22.5
    endloop
  endfacet
  facet normal -0.866025 -0.500001 3.23594e-08
    outer loop
      vertex 18.2029 13.2252 21.9727
      vertex 19.1186 11.639 5.64002
      vertex 18.6288 12.4875 23.1921
    endloop
  endfacet
  facet normal -0.866023 -0.500003 5.14941e-06
    outer loop
      vertex 20.5548 9.15157 3.1662
      vertex 19.1186 11.639 5.64002
      vertex 19.4026 11.1472 4.96304
    endloop
  endfacet
  facet normal -0.866026 -0.5 -7.11493e-08
    outer loop
      vertex 19.1186 11.639 5.64002
      vertex 20.5548 9.15157 3.1662
      vertex 18.6288 12.4875 23.1921
    endloop
  endfacet
  facet normal -0.866025 -0.5 -0
    outer loop
      vertex 20.5548 9.15157 26.8338
      vertex 18.6288 12.4875 23.1921
      vertex 20.5548 9.15157 3.1662
    endloop
  endfacet
  facet normal -0.866025 -0.5 -6.70823e-07
    outer loop
      vertex 18.6288 12.4875 23.1921
      vertex 20.5548 9.15157 26.8338
      vertex 19.4026 11.1472 25.037
    endloop
  endfacet
  facet normal -0.95106 -0.309007 -1.78635e-05
    outer loop
      vertex 21.5459 6.10105 1.29682
      vertex 20.5548 9.15157 3.1662
      vertex 20.6636 8.81678 2.86474
    endloop
  endfacet
  facet normal -0.951057 -0.309017 0
    outer loop
      vertex 20.5548 9.15157 3.1662
      vertex 22.0083 4.67801 0.834445
      vertex 20.5548 9.15157 26.8338
    endloop
  endfacet
  facet normal -0.951057 -0.309016 -2.95287e-06
    outer loop
      vertex 20.5548 9.15157 3.1662
      vertex 21.5459 6.10105 1.29682
      vertex 22.0083 4.67801 0.834445
    endloop
  endfacet
  facet normal -0.951057 -0.309017 -0
    outer loop
      vertex 22.0083 4.67801 29.1656
      vertex 20.5548 9.15157 26.8338
      vertex 22.0083 4.67801 0.834445
    endloop
  endfacet
  facet normal -0.951057 -0.309016 2.95286e-06
    outer loop
      vertex 21.5459 6.10105 28.7032
      vertex 20.5548 9.15157 26.8338
      vertex 22.0083 4.67801 29.1656
    endloop
  endfacet
  facet normal -0.95106 -0.309007 1.78637e-05
    outer loop
      vertex 20.5548 9.15157 26.8338
      vertex 21.5459 6.10105 28.7032
      vertex 20.6636 8.81678 27.1353
    endloop
  endfacet
  facet normal 0.866027 -0.499997 3.09867e-06
    outer loop
      vertex -19.1186 11.639 24.36
      vertex -18.2029 13.2252 21.9727
      vertex -18.3384 12.9904 22.5
    endloop
  endfacet
  facet normal 0.866025 -0.500001 0
    outer loop
      vertex -18.2029 13.2252 21.9727
      vertex -19.1186 11.639 24.36
      vertex -18.2029 13.2252 8.02734
    endloop
  endfacet
  facet normal 0.866027 -0.499997 -3.22033e-06
    outer loop
      vertex -18.2029 13.2252 8.02734
      vertex -18.6288 12.4875 6.80787
      vertex -18.3384 12.9904 7.5
    endloop
  endfacet
  facet normal 0.866025 -0.500001 -3.23594e-08
    outer loop
      vertex -18.2029 13.2252 8.02734
      vertex -19.1186 11.639 24.36
      vertex -18.6288 12.4875 6.80787
    endloop
  endfacet
  facet normal 0.866023 -0.500003 -5.1494e-06
    outer loop
      vertex -20.5548 9.15157 26.8338
      vertex -19.1186 11.639 24.36
      vertex -19.4026 11.1472 25.037
    endloop
  endfacet
  facet normal 0.866026 -0.5 7.11493e-08
    outer loop
      vertex -19.1186 11.639 24.36
      vertex -20.5548 9.15157 26.8338
      vertex -18.6288 12.4875 6.80787
    endloop
  endfacet
  facet normal 0.866025 -0.5 0
    outer loop
      vertex -20.5548 9.15157 3.1662
      vertex -18.6288 12.4875 6.80787
      vertex -20.5548 9.15157 26.8338
    endloop
  endfacet
  facet normal 0.866025 -0.5 6.70823e-07
    outer loop
      vertex -18.6288 12.4875 6.80787
      vertex -20.5548 9.15157 3.1662
      vertex -19.4026 11.1472 4.96304
    endloop
  endfacet
  facet normal -0.994522 0.10453 0
    outer loop
      vertex 22.5 0 0
      vertex 22.4258 -0.706427 29.9258
      vertex 22.5 0 30
    endloop
  endfacet
  facet normal -0.994522 0.104528 -5.53408e-06
    outer loop
      vertex 22.0083 -4.67801 0.834445
      vertex 22.5 0 0
      vertex 22.1722 -3.11868 0.327785
    endloop
  endfacet
  facet normal -0.994522 0.104529 -1.90767e-08
    outer loop
      vertex 22.5 0 0
      vertex 22.0083 -4.67801 0.834445
      vertex 22.4258 -0.706427 29.9258
    endloop
  endfacet
  facet normal -0.994522 0.104529 0
    outer loop
      vertex 22.0083 -4.67801 29.1656
      vertex 22.4258 -0.706427 29.9258
      vertex 22.0083 -4.67801 0.834445
    endloop
  endfacet
  facet normal -0.994522 0.104527 7.14637e-06
    outer loop
      vertex 22.4258 -0.706427 29.9258
      vertex 22.0083 -4.67801 29.1656
      vertex 22.1722 -3.11868 29.6722
    endloop
  endfacet
  facet normal -0.743147 -0.669128 -1.01155e-06
    outer loop
      vertex 17.5937 13.9018 9.54702
      vertex 16.6788 14.9178 13.4321
      vertex 17.2659 14.2658 10.3647
    endloop
  endfacet
  facet normal -0.743145 -0.66913 0
    outer loop
      vertex 16.6788 14.9178 13.4321
      vertex 17.5937 13.9018 9.54702
      vertex 16.6788 14.9178 16.5679
    endloop
  endfacet
  facet normal -0.743145 -0.66913 6.32737e-08
    outer loop
      vertex 18.0935 13.3467 21.6997
      vertex 16.6788 14.9178 16.5679
      vertex 17.5937 13.9018 9.54702
    endloop
  endfacet
  facet normal -0.743145 -0.66913 1.719e-07
    outer loop
      vertex 16.6788 14.9178 16.5679
      vertex 18.0935 13.3467 21.6997
      vertex 17.2659 14.2658 19.6353
    endloop
  endfacet
  facet normal -0.743145 -0.66913 4.84971e-08
    outer loop
      vertex 18.2029 13.2252 8.02734
      vertex 18.0935 13.3467 21.6997
      vertex 17.5937 13.9018 9.54702
    endloop
  endfacet
  facet normal -0.743148 -0.669127 0
    outer loop
      vertex 18.0935 13.3467 21.6997
      vertex 18.2029 13.2252 8.02734
      vertex 18.2029 13.2252 21.9727
    endloop
  endfacet
  facet normal 0.994522 -0.104528 3.17737e-06
    outer loop
      vertex -22.2472 2.40546 29.7472
      vertex -22.0083 4.67801 29.1656
      vertex -22.1722 3.11868 29.6722
    endloop
  endfacet
  facet normal 0.994522 -0.104529 0
    outer loop
      vertex -22.0083 4.67801 29.1656
      vertex -22.2472 2.40546 29.7472
      vertex -22.0083 4.67801 0.834445
    endloop
  endfacet
  facet normal 0.994522 -0.104529 4.58716e-08
    outer loop
      vertex -22.5 0 0
      vertex -22.0083 4.67801 0.834445
      vertex -22.2472 2.40546 29.7472
    endloop
  endfacet
  facet normal 0.994522 -0.104528 0
    outer loop
      vertex -22.5 0 0
      vertex -22.2472 2.40546 29.7472
      vertex -22.5 0 30
    endloop
  endfacet
  facet normal 0.994522 -0.104528 -5.53408e-06
    outer loop
      vertex -22.0083 4.67801 0.834445
      vertex -22.5 0 0
      vertex -22.1722 3.11868 0.327785
    endloop
  endfacet
  facet normal 0.743147 -0.669128 1.01155e-06
    outer loop
      vertex -17.5937 13.9018 20.453
      vertex -16.6788 14.9178 16.5679
      vertex -17.2659 14.2658 19.6353
    endloop
  endfacet
  facet normal 0.743145 -0.66913 0
    outer loop
      vertex -16.6788 14.9178 16.5679
      vertex -17.5937 13.9018 20.453
      vertex -16.6788 14.9178 13.4321
    endloop
  endfacet
  facet normal 0.743145 -0.66913 -6.32737e-08
    outer loop
      vertex -18.0935 13.3467 8.30026
      vertex -16.6788 14.9178 13.4321
      vertex -17.5937 13.9018 20.453
    endloop
  endfacet
  facet normal 0.743145 -0.66913 -1.719e-07
    outer loop
      vertex -16.6788 14.9178 13.4321
      vertex -18.0935 13.3467 8.30026
      vertex -17.2659 14.2658 10.3647
    endloop
  endfacet
  facet normal 0.743145 -0.66913 -4.84971e-08
    outer loop
      vertex -18.2029 13.2252 21.9727
      vertex -18.0935 13.3467 8.30026
      vertex -17.5937 13.9018 20.453
    endloop
  endfacet
  facet normal 0.743148 -0.669127 0
    outer loop
      vertex -18.0935 13.3467 8.30026
      vertex -18.2029 13.2252 21.9727
      vertex -18.2029 13.2252 8.02734
    endloop
  endfacet
  facet normal -0.994522 -0.104528 -5.53408e-06
    outer loop
      vertex 22.5 0 0
      vertex 22.0083 4.67801 0.834445
      vertex 22.1722 3.11868 0.327785
    endloop
  endfacet
  facet normal -0.994522 -0.104529 0
    outer loop
      vertex 22.0083 4.67801 0.834445
      vertex 22.4258 0.706427 29.9258
      vertex 22.0083 4.67801 29.1656
    endloop
  endfacet
  facet normal -0.994522 -0.104527 7.14637e-06
    outer loop
      vertex 22.0083 4.67801 29.1656
      vertex 22.4258 0.706427 29.9258
      vertex 22.1722 3.11868 29.6722
    endloop
  endfacet
  facet normal -0.994522 -0.104529 -1.90767e-08
    outer loop
      vertex 22.0083 4.67801 0.834445
      vertex 22.5 0 0
      vertex 22.4258 0.706427 29.9258
    endloop
  endfacet
  facet normal -0.994522 -0.10453 0
    outer loop
      vertex 22.4258 0.706427 29.9258
      vertex 22.5 0 0
      vertex 22.5 0 30
    endloop
  endfacet
  facet normal 0.866026 0.499999 6.54727e-07
    outer loop
      vertex -18.2029 -13.2252 21.9727
      vertex -20.5548 -9.15157 26.8338
      vertex -19.4026 -11.1472 25.037
    endloop
  endfacet
  facet normal 0.866025 0.5 0
    outer loop
      vertex -20.5548 -9.15157 26.8338
      vertex -18.6288 -12.4875 6.80787
      vertex -20.5548 -9.15157 3.1662
    endloop
  endfacet
  facet normal 0.866025 0.5 6.70823e-07
    outer loop
      vertex -20.5548 -9.15157 3.1662
      vertex -18.6288 -12.4875 6.80787
      vertex -19.4026 -11.1472 4.96304
    endloop
  endfacet
  facet normal 0.866028 0.499996 4.11269e-06
    outer loop
      vertex -18.2029 -13.2252 21.9727
      vertex -19.4026 -11.1472 25.037
      vertex -18.3384 -12.9904 22.5
    endloop
  endfacet
  facet normal 0.866025 0.5 -6.65475e-08
    outer loop
      vertex -20.5548 -9.15157 26.8338
      vertex -18.2029 -13.2252 21.9727
      vertex -18.6288 -12.4875 6.80787
    endloop
  endfacet
  facet normal 0.866025 0.500001 -0
    outer loop
      vertex -18.2029 -13.2252 8.02734
      vertex -18.6288 -12.4875 6.80787
      vertex -18.2029 -13.2252 21.9727
    endloop
  endfacet
  facet normal 0.866027 0.499997 -3.22033e-06
    outer loop
      vertex -18.6288 -12.4875 6.80787
      vertex -18.2029 -13.2252 8.02734
      vertex -18.3384 -12.9904 7.5
    endloop
  endfacet
  facet normal 0.95106 -0.309007 1.78637e-05
    outer loop
      vertex -21.5459 6.10105 28.7032
      vertex -20.5548 9.15157 26.8338
      vertex -20.6636 8.81678 27.1353
    endloop
  endfacet
  facet normal 0.951057 -0.309017 0
    outer loop
      vertex -20.5548 9.15157 26.8338
      vertex -22.0083 4.67801 29.1656
      vertex -20.5548 9.15157 3.1662
    endloop
  endfacet
  facet normal 0.951057 -0.309016 2.95286e-06
    outer loop
      vertex -20.5548 9.15157 26.8338
      vertex -21.5459 6.10105 28.7032
      vertex -22.0083 4.67801 29.1656
    endloop
  endfacet
  facet normal 0.951057 -0.309017 0
    outer loop
      vertex -22.0083 4.67801 0.834445
      vertex -20.5548 9.15157 3.1662
      vertex -22.0083 4.67801 29.1656
    endloop
  endfacet
  facet normal 0.951057 -0.309016 -2.95287e-06
    outer loop
      vertex -21.5459 6.10105 1.29682
      vertex -20.5548 9.15157 3.1662
      vertex -22.0083 4.67801 0.834445
    endloop
  endfacet
  facet normal 0.95106 -0.309007 -1.78635e-05
    outer loop
      vertex -20.5548 9.15157 3.1662
      vertex -21.5459 6.10105 1.29682
      vertex -20.6636 8.81678 2.86474
    endloop
  endfacet
  facet normal -0.866023 0.500003 5.14941e-06
    outer loop
      vertex 19.1186 -11.639 5.64002
      vertex 20.5548 -9.15157 3.1662
      vertex 19.4026 -11.1472 4.96304
    endloop
  endfacet
  facet normal -0.866026 0.5 0
    outer loop
      vertex 20.5548 -9.15157 3.1662
      vertex 19.1186 -11.639 5.64002
      vertex 20.5548 -9.15157 26.8338
    endloop
  endfacet
  facet normal -0.866025 0.5 -9.23211e-08
    outer loop
      vertex 18.2029 -13.2252 21.9727
      vertex 20.5548 -9.15157 26.8338
      vertex 19.1186 -11.639 5.64002
    endloop
  endfacet
  facet normal -0.866027 0.499997 -3.09866e-06
    outer loop
      vertex 18.2029 -13.2252 8.02734
      vertex 19.1186 -11.639 5.64002
      vertex 18.3384 -12.9904 7.5
    endloop
  endfacet
  facet normal -0.866025 0.500001 0
    outer loop
      vertex 18.2029 -13.2252 21.9727
      vertex 19.1186 -11.639 5.64002
      vertex 18.2029 -13.2252 8.02734
    endloop
  endfacet
  facet normal -0.866026 0.499999 6.54727e-07
    outer loop
      vertex 20.5548 -9.15157 26.8338
      vertex 18.2029 -13.2252 21.9727
      vertex 19.4026 -11.1472 25.037
    endloop
  endfacet
  facet normal -0.866028 0.499996 4.11269e-06
    outer loop
      vertex 19.4026 -11.1472 25.037
      vertex 18.2029 -13.2252 21.9727
      vertex 18.3384 -12.9904 22.5
    endloop
  endfacet
  facet normal 0.994522 0.104528 0
    outer loop
      vertex -22.2472 -2.40546 29.7472
      vertex -22.5 0 0
      vertex -22.5 0 30
    endloop
  endfacet
  facet normal 0.994522 0.104528 3.17737e-06
    outer loop
      vertex -22.0083 -4.67801 29.1656
      vertex -22.2472 -2.40546 29.7472
      vertex -22.1722 -3.11868 29.6722
    endloop
  endfacet
  facet normal 0.994522 0.104529 9.11767e-08
    outer loop
      vertex -22.2472 -2.40546 29.7472
      vertex -22.0083 -4.67801 29.1656
      vertex -22.5 0 0
    endloop
  endfacet
  facet normal 0.994522 0.104529 -0
    outer loop
      vertex -22.0083 -4.67801 0.834445
      vertex -22.5 0 0
      vertex -22.0083 -4.67801 29.1656
    endloop
  endfacet
  facet normal 0.994522 0.104528 -5.53408e-06
    outer loop
      vertex -22.5 0 0
      vertex -22.0083 -4.67801 0.834445
      vertex -22.1722 -3.11868 0.327785
    endloop
  endfacet
  facet normal 0.743148 0.669127 0
    outer loop
      vertex -18.2029 -13.2252 21.9727
      vertex -18.0935 -13.3467 8.30026
      vertex -18.2029 -13.2252 8.02734
    endloop
  endfacet
  facet normal 0.743146 0.669129 4.17176e-07
    outer loop
      vertex -16.6788 -14.9178 16.5679
      vertex -18.2029 -13.2252 21.9727
      vertex -17.2659 -14.2658 19.6353
    endloop
  endfacet
  facet normal 0.743145 0.66913 -4.53384e-08
    outer loop
      vertex -18.2029 -13.2252 21.9727
      vertex -16.6788 -14.9178 16.5679
      vertex -18.0935 -13.3467 8.30026
    endloop
  endfacet
  facet normal 0.743145 0.66913 -0
    outer loop
      vertex -16.6788 -14.9178 13.4321
      vertex -18.0935 -13.3467 8.30026
      vertex -16.6788 -14.9178 16.5679
    endloop
  endfacet
  facet normal 0.743145 0.66913 -1.719e-07
    outer loop
      vertex -18.0935 -13.3467 8.30026
      vertex -16.6788 -14.9178 13.4321
      vertex -17.2659 -14.2658 10.3647
    endloop
  endfacet
  facet normal -0.951057 0.309016 -2.95287e-06
    outer loop
      vertex 20.5548 -9.15157 3.1662
      vertex 22.0083 -4.67801 0.834445
      vertex 21.5459 -6.10105 1.29682
    endloop
  endfacet
  facet normal -0.951057 0.309017 0
    outer loop
      vertex 22.0083 -4.67801 0.834445
      vertex 20.5548 -9.15157 3.1662
      vertex 22.0083 -4.67801 29.1656
    endloop
  endfacet
  facet normal -0.95106 0.309007 -1.78635e-05
    outer loop
      vertex 20.5548 -9.15157 3.1662
      vertex 21.5459 -6.10105 1.29682
      vertex 20.6636 -8.81678 2.86474
    endloop
  endfacet
  facet normal -0.951057 0.309017 0
    outer loop
      vertex 20.5548 -9.15157 26.8338
      vertex 22.0083 -4.67801 29.1656
      vertex 20.5548 -9.15157 3.1662
    endloop
  endfacet
  facet normal -0.951057 0.309016 2.95286e-06
    outer loop
      vertex 22.0083 -4.67801 29.1656
      vertex 20.5548 -9.15157 26.8338
      vertex 21.5459 -6.10105 28.7032
    endloop
  endfacet
  facet normal -0.95106 0.309007 1.78637e-05
    outer loop
      vertex 21.5459 -6.10105 28.7032
      vertex 20.5548 -9.15157 26.8338
      vertex 20.6636 -8.81678 27.1353
    endloop
  endfacet
  facet normal 0.951057 0.309016 2.95286e-06
    outer loop
      vertex -20.5548 -9.15157 26.8338
      vertex -22.0083 -4.67801 29.1656
      vertex -21.5459 -6.10105 28.7032
    endloop
  endfacet
  facet normal 0.951057 0.309017 0
    outer loop
      vertex -22.0083 -4.67801 29.1656
      vertex -20.5548 -9.15157 26.8338
      vertex -22.0083 -4.67801 0.834445
    endloop
  endfacet
  facet normal 0.95106 0.309007 1.78637e-05
    outer loop
      vertex -20.5548 -9.15157 26.8338
      vertex -21.5459 -6.10105 28.7032
      vertex -20.6636 -8.81678 27.1353
    endloop
  endfacet
  facet normal 0.951057 0.309017 -0
    outer loop
      vertex -20.5548 -9.15157 3.1662
      vertex -22.0083 -4.67801 0.834445
      vertex -20.5548 -9.15157 26.8338
    endloop
  endfacet
  facet normal 0.951057 0.309016 -2.95287e-06
    outer loop
      vertex -22.0083 -4.67801 0.834445
      vertex -20.5548 -9.15157 3.1662
      vertex -21.5459 -6.10105 1.29682
    endloop
  endfacet
  facet normal 0.95106 0.309007 -1.78635e-05
    outer loop
      vertex -21.5459 -6.10105 1.29682
      vertex -20.5548 -9.15157 3.1662
      vertex -20.6636 -8.81678 2.86474
    endloop
  endfacet
  facet normal -0.743145 0.66913 0
    outer loop
      vertex 17.5937 -13.9018 9.54702
      vertex 18.2029 -13.2252 21.9727
      vertex 18.2029 -13.2252 8.02734
    endloop
  endfacet
  facet normal -0.743147 0.669128 -1.01155e-06
    outer loop
      vertex 16.6788 -14.9178 13.4321
      vertex 17.5937 -13.9018 9.54702
      vertex 17.2659 -14.2658 10.3647
    endloop
  endfacet
  facet normal -0.743145 0.66913 2.93757e-08
    outer loop
      vertex 17.5937 -13.9018 9.54702
      vertex 16.6788 -14.9178 13.4321
      vertex 18.2029 -13.2252 21.9727
    endloop
  endfacet
  facet normal -0.743145 0.66913 0
    outer loop
      vertex 16.6788 -14.9178 16.5679
      vertex 18.2029 -13.2252 21.9727
      vertex 16.6788 -14.9178 13.4321
    endloop
  endfacet
  facet normal -0.743146 0.669129 4.17176e-07
    outer loop
      vertex 18.2029 -13.2252 21.9727
      vertex 16.6788 -14.9178 16.5679
      vertex 17.2659 -14.2658 19.6353
    endloop
  endfacet
endsolid OpenSCAD_Model
