solid OpenSCAD_Model
  facet normal -1 -0 0
    outer loop
      vertex -15 -14.9178 13.4321
      vertex -15 -15 0
      vertex -15 -14.9178 16.5679
    endloop
  endfacet
  facet normal -1 -0 0
    outer loop
      vertex -15 -14.2658 10.3647
      vertex -15 -15 0
      vertex -15 -14.9178 13.4321
    endloop
  endfacet
  facet normal -1 -0 0
    outer loop
      vertex -15 -13.451 8.53449
      vertex -15 -15 0
      vertex -15 -14.2658 10.3647
    endloop
  endfacet
  facet normal -1 -0 0
    outer loop
      vertex -15 -12.9904 7.5
      vertex -15 -15 0
      vertex -15 -13.451 8.53449
    endloop
  endfacet
  facet normal -1 -0 0
    outer loop
      vertex -15 -12.3248 6.58388
      vertex -15 -15 0
      vertex -15 -12.9904 7.5
    endloop
  endfacet
  facet normal -1 -0 0
    outer loop
      vertex -15 -11.1472 4.96304
      vertex -15 -15 0
      vertex -15 -12.3248 6.58388
    endloop
  endfacet
  facet normal -1 -0 0
    outer loop
      vertex -15 -8.81678 2.86474
      vertex -15 -15 0
      vertex -15 -11.1472 4.96304
    endloop
  endfacet
  facet normal -1 -0 0
    outer loop
      vertex -15 -6.10105 1.29682
      vertex -15 -15 0
      vertex -15 -8.81678 2.86474
    endloop
  endfacet
  facet normal -1 -0 0
    outer loop
      vertex -15 -3.11868 0.327785
      vertex -15 -15 0
      vertex -15 -6.10105 1.29682
    endloop
  endfacet
  facet normal -1 0 0
    outer loop
      vertex -15 -15 0
      vertex -15 -3.11868 0.327785
      vertex -15 0 0
    endloop
  endfacet
  facet normal -1 0 0
    outer loop
      vertex -15 15 0
      vertex -15 14.9178 13.4321
      vertex -15 15 30
    endloop
  endfacet
  facet normal -1 0 0
    outer loop
      vertex -15 15 0
      vertex -15 14.2658 10.3647
      vertex -15 14.9178 13.4321
    endloop
  endfacet
  facet normal -1 0 0
    outer loop
      vertex -15 15 0
      vertex -15 13.451 8.53449
      vertex -15 14.2658 10.3647
    endloop
  endfacet
  facet normal -1 0 0
    outer loop
      vertex -15 15 0
      vertex -15 12.9904 7.5
      vertex -15 13.451 8.53449
    endloop
  endfacet
  facet normal -1 0 0
    outer loop
      vertex -15 15 0
      vertex -15 12.3248 6.58388
      vertex -15 12.9904 7.5
    endloop
  endfacet
  facet normal -1 0 0
    outer loop
      vertex -15 15 0
      vertex -15 11.1472 4.96304
      vertex -15 12.3248 6.58388
    endloop
  endfacet
  facet normal -1 0 0
    outer loop
      vertex -15 15 0
      vertex -15 8.81678 2.86474
      vertex -15 11.1472 4.96304
    endloop
  endfacet
  facet normal -1 0 0
    outer loop
      vertex -15 15 0
      vertex -15 6.10105 1.29682
      vertex -15 8.81678 2.86474
    endloop
  endfacet
  facet normal -1 0 0
    outer loop
      vertex -15 15 0
      vertex -15 3.11868 0.327785
      vertex -15 6.10105 1.29682
    endloop
  endfacet
  facet normal -1 0 -0
    outer loop
      vertex -15 3.11868 0.327785
      vertex -15 15 0
      vertex -15 0 0
    endloop
  endfacet
  facet normal -1 0 0
    outer loop
      vertex -15 14.9178 16.5679
      vertex -15 15 30
      vertex -15 14.9178 13.4321
    endloop
  endfacet
  facet normal -1 0 0
    outer loop
      vertex -15 14.2658 19.6353
      vertex -15 15 30
      vertex -15 14.9178 16.5679
    endloop
  endfacet
  facet normal -1 0 0
    outer loop
      vertex -15 13.8053 20.6697
      vertex -15 15 30
      vertex -15 14.2658 19.6353
    endloop
  endfacet
  facet normal -1 0 0
    outer loop
      vertex -15 12.9904 22.5
      vertex -15 15 30
      vertex -15 13.8053 20.6697
    endloop
  endfacet
  facet normal -1 0 0
    outer loop
      vertex -15 11.8128 24.1208
      vertex -15 15 30
      vertex -15 12.9904 22.5
    endloop
  endfacet
  facet normal -1 0 0
    outer loop
      vertex -15 11.1472 25.037
      vertex -15 15 30
      vertex -15 11.8128 24.1208
    endloop
  endfacet
  facet normal -1 0 0
    outer loop
      vertex -15 8.81678 27.1353
      vertex -15 15 30
      vertex -15 11.1472 25.037
    endloop
  endfacet
  facet normal -1 0 0
    outer loop
      vertex -15 6.10105 28.7032
      vertex -15 15 30
      vertex -15 8.81678 27.1353
    endloop
  endfacet
  facet normal -1 0 0
    outer loop
      vertex -15 3.11868 29.6722
      vertex -15 15 30
      vertex -15 6.10105 28.7032
    endloop
  endfacet
  facet normal -1 0 0
    outer loop
      vertex -15 1.99249 29.7906
      vertex -15 15 30
      vertex -15 3.11868 29.6722
    endloop
  endfacet
  facet normal -1 -0 0
    outer loop
      vertex -15 15 30
      vertex -15 1.99249 29.7906
      vertex -15 0 30
    endloop
  endfacet
  facet normal -1 0 0
    outer loop
      vertex -15 -15 30
      vertex -15 -1.99249 29.7906
      vertex -15 -3.11868 29.6722
    endloop
  endfacet
  facet normal -1 0 0
    outer loop
      vertex -15 -15 30
      vertex -15 -11.8128 24.1208
      vertex -15 -12.9904 22.5
    endloop
  endfacet
  facet normal -1 0 0
    outer loop
      vertex -15 -1.99249 29.7906
      vertex -15 -15 30
      vertex -15 0 30
    endloop
  endfacet
  facet normal -1 0 0
    outer loop
      vertex -15 -6.10105 28.7032
      vertex -15 -15 30
      vertex -15 -3.11868 29.6722
    endloop
  endfacet
  facet normal -1 0 0
    outer loop
      vertex -15 -8.81678 27.1353
      vertex -15 -15 30
      vertex -15 -6.10105 28.7032
    endloop
  endfacet
  facet normal -1 0 0
    outer loop
      vertex -15 -11.1472 25.037
      vertex -15 -15 30
      vertex -15 -8.81678 27.1353
    endloop
  endfacet
  facet normal -1 0 0
    outer loop
      vertex -15 -11.8128 24.1208
      vertex -15 -15 30
      vertex -15 -11.1472 25.037
    endloop
  endfacet
  facet normal -1 0 0
    outer loop
      vertex -15 -13.8053 20.6697
      vertex -15 -15 30
      vertex -15 -12.9904 22.5
    endloop
  endfacet
  facet normal -1 0 0
    outer loop
      vertex -15 -14.2658 19.6353
      vertex -15 -15 30
      vertex -15 -13.8053 20.6697
    endloop
  endfacet
  facet normal -1 0 0
    outer loop
      vertex -15 -14.9178 16.5679
      vertex -15 -15 30
      vertex -15 -14.2658 19.6353
    endloop
  endfacet
  facet normal -1 0 0
    outer loop
      vertex -15 -15 30
      vertex -15 -14.9178 16.5679
      vertex -15 -15 0
    endloop
  endfacet
  facet normal -0 0 0
    outer loop
      vertex -15 0 30
      vertex -15 -15 30
      vertex -15 15 30
    endloop
  endfacet
  facet normal 0 0 1
    outer loop
      vertex 15 15 30
      vertex 7.5 0 30
      vertex 15 -15 30
    endloop
  endfacet
  facet normal 0 0 1
    outer loop
      vertex 15 15 30
      vertex 7.24444 1.94114 30
      vertex 7.5 0 30
    endloop
  endfacet
  facet normal 0 0 1
    outer loop
      vertex 15 15 30
      vertex 6.49519 3.75 30
      vertex 7.24444 1.94114 30
    endloop
  endfacet
  facet normal 0 0 1
    outer loop
      vertex 15 15 30
      vertex 5.3033 5.3033 30
      vertex 6.49519 3.75 30
    endloop
  endfacet
  facet normal 0 0 1
    outer loop
      vertex 15 15 30
      vertex 3.75 6.49519 30
      vertex 5.3033 5.3033 30
    endloop
  endfacet
  facet normal 0 0 1
    outer loop
      vertex 15 15 30
      vertex 1.94114 7.24444 30
      vertex 3.75 6.49519 30
    endloop
  endfacet
  facet normal 0 0 1
    outer loop
      vertex 15 15 30
      vertex 0 7.5 30
      vertex 1.94114 7.24444 30
    endloop
  endfacet
  facet normal -0 0 1
    outer loop
      vertex -15 15 30
      vertex 0 7.5 30
      vertex 15 15 30
    endloop
  endfacet
  facet normal 0 0 1
    outer loop
      vertex 0 7.5 30
      vertex -15 15 30
      vertex -1.94114 7.24444 30
    endloop
  endfacet
  facet normal 0 0 1
    outer loop
      vertex -7.24444 1.94114 30
      vertex -15 15 30
      vertex -7.5 0 30
    endloop
  endfacet
  facet normal 0 0 1
    outer loop
      vertex -6.49519 3.75 30
      vertex -15 15 30
      vertex -7.24444 1.94114 30
    endloop
  endfacet
  facet normal 0 0 1
    outer loop
      vertex -5.3033 5.3033 30
      vertex -15 15 30
      vertex -6.49519 3.75 30
    endloop
  endfacet
  facet normal 0 0 1
    outer loop
      vertex -3.75 6.49519 30
      vertex -15 15 30
      vertex -5.3033 5.3033 30
    endloop
  endfacet
  facet normal 0 0 1
    outer loop
      vertex -1.94114 7.24444 30
      vertex -15 15 30
      vertex -3.75 6.49519 30
    endloop
  endfacet
  facet normal -0 0 1
    outer loop
      vertex 7.24444 -1.94114 30
      vertex 15 -15 30
      vertex 7.5 0 30
    endloop
  endfacet
  facet normal -0 0 1
    outer loop
      vertex 6.49519 -3.75 30
      vertex 15 -15 30
      vertex 7.24444 -1.94114 30
    endloop
  endfacet
  facet normal -0 0 1
    outer loop
      vertex 5.3033 -5.3033 30
      vertex 15 -15 30
      vertex 6.49519 -3.75 30
    endloop
  endfacet
  facet normal -0 0 1
    outer loop
      vertex 3.75 -6.49519 30
      vertex 15 -15 30
      vertex 5.3033 -5.3033 30
    endloop
  endfacet
  facet normal -0 0 1
    outer loop
      vertex 1.94114 -7.24444 30
      vertex 15 -15 30
      vertex 3.75 -6.49519 30
    endloop
  endfacet
  facet normal -0 0 1
    outer loop
      vertex 0 -7.5 30
      vertex 15 -15 30
      vertex 1.94114 -7.24444 30
    endloop
  endfacet
  facet normal 0 0 1
    outer loop
      vertex -15 -15 30
      vertex 0 -7.5 30
      vertex -1.94114 -7.24444 30
    endloop
  endfacet
  facet normal 0 0 1
    outer loop
      vertex -15 -15 30
      vertex -1.94114 -7.24444 30
      vertex -3.75 -6.49519 30
    endloop
  endfacet
  facet normal 0 0 1
    outer loop
      vertex -15 -15 30
      vertex -7.5 0 30
      vertex -15 15 30
    endloop
  endfacet
  facet normal 0 0 1
    outer loop
      vertex -7.5 0 30
      vertex -15 -15 30
      vertex -7.24444 -1.94114 30
    endloop
  endfacet
  facet normal 0 0 1
    outer loop
      vertex 0 -7.5 30
      vertex -15 -15 30
      vertex 15 -15 30
    endloop
  endfacet
  facet normal 0 0 1
    outer loop
      vertex -5.3033 -5.3033 30
      vertex -15 -15 30
      vertex -3.75 -6.49519 30
    endloop
  endfacet
  facet normal 0 0 1
    outer loop
      vertex -6.49519 -3.75 30
      vertex -15 -15 30
      vertex -5.3033 -5.3033 30
    endloop
  endfacet
  facet normal 0 0 1
    outer loop
      vertex -7.24444 -1.94114 30
      vertex -15 -15 30
      vertex -6.49519 -3.75 30
    endloop
  endfacet
  facet normal 1 -0 0
    outer loop
      vertex 15 -15 30
      vertex 15 -1.12619 29.8816
      vertex 15 0 30
    endloop
  endfacet
  facet normal 1 0 0
    outer loop
      vertex 15 -14.9178 16.5679
      vertex 15 -15 30
      vertex 15 -14.9178 13.4321
    endloop
  endfacet
  facet normal 1 0 0
    outer loop
      vertex 15 -14.2658 19.6353
      vertex 15 -15 30
      vertex 15 -14.9178 16.5679
    endloop
  endfacet
  facet normal 1 0 0
    outer loop
      vertex 15 -13.451 21.4655
      vertex 15 -15 30
      vertex 15 -14.2658 19.6353
    endloop
  endfacet
  facet normal 1 0 0
    outer loop
      vertex 15 -12.9904 22.5
      vertex 15 -15 30
      vertex 15 -13.451 21.4655
    endloop
  endfacet
  facet normal 1 0 0
    outer loop
      vertex 15 -12.3248 23.4161
      vertex 15 -15 30
      vertex 15 -12.9904 22.5
    endloop
  endfacet
  facet normal 1 0 0
    outer loop
      vertex 15 -11.1472 25.037
      vertex 15 -15 30
      vertex 15 -12.3248 23.4161
    endloop
  endfacet
  facet normal 1 0 0
    outer loop
      vertex 15 -8.81678 27.1353
      vertex 15 -15 30
      vertex 15 -11.1472 25.037
    endloop
  endfacet
  facet normal 1 0 0
    outer loop
      vertex 15 -6.10105 28.7032
      vertex 15 -15 30
      vertex 15 -8.81678 27.1353
    endloop
  endfacet
  facet normal 1 0 0
    outer loop
      vertex 15 -3.11868 29.6722
      vertex 15 -15 30
      vertex 15 -6.10105 28.7032
    endloop
  endfacet
  facet normal 1 0 0
    outer loop
      vertex 15 -1.12619 29.8816
      vertex 15 -15 30
      vertex 15 -3.11868 29.6722
    endloop
  endfacet
  facet normal 1 0 0
    outer loop
      vertex 15 15 30
      vertex 15 14.9178 16.5679
      vertex 15 15 0
    endloop
  endfacet
  facet normal 1 0 0
    outer loop
      vertex 15 15 30
      vertex 15 14.2658 19.6353
      vertex 15 14.9178 16.5679
    endloop
  endfacet
  facet normal 1 0 0
    outer loop
      vertex 15 15 30
      vertex 15 13.451 21.4655
      vertex 15 14.2658 19.6353
    endloop
  endfacet
  facet normal 1 0 0
    outer loop
      vertex 15 15 30
      vertex 15 12.9904 22.5
      vertex 15 13.451 21.4655
    endloop
  endfacet
  facet normal 1 0 0
    outer loop
      vertex 15 15 30
      vertex 15 12.3248 23.4161
      vertex 15 12.9904 22.5
    endloop
  endfacet
  facet normal 1 0 0
    outer loop
      vertex 15 15 30
      vertex 15 11.1472 25.037
      vertex 15 12.3248 23.4161
    endloop
  endfacet
  facet normal 1 0 0
    outer loop
      vertex 15 15 30
      vertex 15 8.81678 27.1353
      vertex 15 11.1472 25.037
    endloop
  endfacet
  facet normal 1 0 0
    outer loop
      vertex 15 15 30
      vertex 15 6.10105 28.7032
      vertex 15 8.81678 27.1353
    endloop
  endfacet
  facet normal 1 0 0
    outer loop
      vertex 15 15 30
      vertex 15 3.11868 29.6722
      vertex 15 6.10105 28.7032
    endloop
  endfacet
  facet normal 1 0 0
    outer loop
      vertex 15 15 30
      vertex 15 1.12619 29.8816
      vertex 15 3.11868 29.6722
    endloop
  endfacet
  facet normal 1 0 -0
    outer loop
      vertex 15 1.12619 29.8816
      vertex 15 15 30
      vertex 15 0 30
    endloop
  endfacet
  facet normal 1 -0 0
    outer loop
      vertex 15 14.9178 13.4321
      vertex 15 15 0
      vertex 15 14.9178 16.5679
    endloop
  endfacet
  facet normal 1 -0 0
    outer loop
      vertex 15 14.2658 10.3647
      vertex 15 15 0
      vertex 15 14.9178 13.4321
    endloop
  endfacet
  facet normal 1 -0 0
    outer loop
      vertex 15 13.8053 9.33025
      vertex 15 15 0
      vertex 15 14.2658 10.3647
    endloop
  endfacet
  facet normal 1 -0 0
    outer loop
      vertex 15 12.9904 7.5
      vertex 15 15 0
      vertex 15 13.8053 9.33025
    endloop
  endfacet
  facet normal 1 -0 0
    outer loop
      vertex 15 11.8128 5.87916
      vertex 15 15 0
      vertex 15 12.9904 7.5
    endloop
  endfacet
  facet normal 1 -0 0
    outer loop
      vertex 15 11.1472 4.96304
      vertex 15 15 0
      vertex 15 11.8128 5.87916
    endloop
  endfacet
  facet normal 1 -0 0
    outer loop
      vertex 15 8.81678 2.86474
      vertex 15 15 0
      vertex 15 11.1472 4.96304
    endloop
  endfacet
  facet normal 1 -0 0
    outer loop
      vertex 15 6.10105 1.29682
      vertex 15 15 0
      vertex 15 8.81678 2.86474
    endloop
  endfacet
  facet normal 1 -0 0
    outer loop
      vertex 15 3.11868 0.327785
      vertex 15 15 0
      vertex 15 6.10105 1.29682
    endloop
  endfacet
  facet normal 1 0 0
    outer loop
      vertex 15 15 0
      vertex 15 3.11868 0.327785
      vertex 15 0 0
    endloop
  endfacet
  facet normal 1 0 0
    outer loop
      vertex 15 -15 0
      vertex 15 -11.8128 5.87916
      vertex 15 -12.9904 7.5
    endloop
  endfacet
  facet normal 1 0 0
    outer loop
      vertex 15 -15 0
      vertex 15 -13.8053 9.33025
      vertex 15 -14.2658 10.3647
    endloop
  endfacet
  facet normal 1 0 0
    outer loop
      vertex 15 -3.11868 0.327785
      vertex 15 -15 0
      vertex 15 0 0
    endloop
  endfacet
  facet normal 1 0 0
    outer loop
      vertex 15 -6.10105 1.29682
      vertex 15 -15 0
      vertex 15 -3.11868 0.327785
    endloop
  endfacet
  facet normal 1 0 0
    outer loop
      vertex 15 -8.81678 2.86474
      vertex 15 -15 0
      vertex 15 -6.10105 1.29682
    endloop
  endfacet
  facet normal 1 0 0
    outer loop
      vertex 15 -11.1472 4.96304
      vertex 15 -15 0
      vertex 15 -8.81678 2.86474
    endloop
  endfacet
  facet normal 1 0 0
    outer loop
      vertex 15 -11.8128 5.87916
      vertex 15 -15 0
      vertex 15 -11.1472 4.96304
    endloop
  endfacet
  facet normal 1 0 0
    outer loop
      vertex 15 -13.8053 9.33025
      vertex 15 -15 0
      vertex 15 -12.9904 7.5
    endloop
  endfacet
  facet normal 1 0 0
    outer loop
      vertex 15 -14.9178 13.4321
      vertex 15 -15 0
      vertex 15 -14.2658 10.3647
    endloop
  endfacet
  facet normal 1 0 0
    outer loop
      vertex 15 -15 0
      vertex 15 -14.9178 13.4321
      vertex 15 -15 30
    endloop
  endfacet
  facet normal 0 0 0
    outer loop
      vertex 15 15 30
      vertex 15 -15 30
      vertex 15 0 30
    endloop
  endfacet
  facet normal 0 1 -0
    outer loop
      vertex 15 15 0
      vertex -15 15 30
      vertex 15 15 30
    endloop
  endfacet
  facet normal 0 1 0
    outer loop
      vertex -15 15 30
      vertex 15 15 0
      vertex -15 15 0
    endloop
  endfacet
  facet normal 0 0 -1
    outer loop
      vertex -15 0 0
      vertex 15 0 0
      vertex 15 -15 0
    endloop
  endfacet
  facet normal 0 0 -1
    outer loop
      vertex -15 0 0
      vertex 15 -15 0
      vertex -15 -15 0
    endloop
  endfacet
  facet normal 0 0 -1
    outer loop
      vertex 15 0 0
      vertex -15 0 0
      vertex 15 15 0
    endloop
  endfacet
  facet normal -0 0 -1
    outer loop
      vertex 15 15 0
      vertex -15 0 0
      vertex -15 15 0
    endloop
  endfacet
  facet normal 0 -1 0
    outer loop
      vertex -15 -15 0
      vertex 15 -15 30
      vertex -15 -15 30
    endloop
  endfacet
  facet normal 0 -1 -0
    outer loop
      vertex 15 -15 30
      vertex -15 -15 0
      vertex 15 -15 0
    endloop
  endfacet
  facet normal 0 1 -0
    outer loop
      vertex -15 14.9178 13.4321
      vertex -54 14.9178 16.5679
      vertex -15 14.9178 16.5679
    endloop
  endfacet
  facet normal 0 1 0
    outer loop
      vertex -54 14.9178 16.5679
      vertex -15 14.9178 13.4321
      vertex -54 14.9178 13.4321
    endloop
  endfacet
  facet normal 0 1 -0
    outer loop
      vertex 54 14.9178 13.4321
      vertex 15 14.9178 16.5679
      vertex 54 14.9178 16.5679
    endloop
  endfacet
  facet normal 0 1 0
    outer loop
      vertex 15 14.9178 16.5679
      vertex 54 14.9178 13.4321
      vertex 15 14.9178 13.4321
    endloop
  endfacet
  facet normal 0 -0.104528 -0.994522
    outer loop
      vertex 15 -3.11868 0.327785
      vertex 54 0 0
      vertex 54 -3.11868 0.327785
    endloop
  endfacet
  facet normal -0 -0.104528 -0.994522
    outer loop
      vertex 54 0 0
      vertex 15 -3.11868 0.327785
      vertex 15 0 0
    endloop
  endfacet
  facet normal 0 -0.104528 -0.994522
    outer loop
      vertex -54 -3.11868 0.327785
      vertex -15 0 0
      vertex -15 -3.11868 0.327785
    endloop
  endfacet
  facet normal -0 -0.104528 -0.994522
    outer loop
      vertex -15 0 0
      vertex -54 -3.11868 0.327785
      vertex -54 0 0
    endloop
  endfacet
  facet normal 0 -0.309017 0.951057
    outer loop
      vertex 15 -3.11868 29.6722
      vertex 54 -6.10105 28.7032
      vertex 54 -3.11868 29.6722
    endloop
  endfacet
  facet normal 0 -0.309017 0.951057
    outer loop
      vertex 54 -6.10105 28.7032
      vertex 15 -3.11868 29.6722
      vertex 15 -6.10105 28.7032
    endloop
  endfacet
  facet normal 0 -0.309017 0.951057
    outer loop
      vertex -54 -3.11868 29.6722
      vertex -15 -6.10105 28.7032
      vertex -15 -3.11868 29.6722
    endloop
  endfacet
  facet normal 0 -0.309017 0.951057
    outer loop
      vertex -15 -6.10105 28.7032
      vertex -54 -3.11868 29.6722
      vertex -54 -6.10105 28.7032
    endloop
  endfacet
  facet normal 0 0.978148 0.207912
    outer loop
      vertex -15 14.9178 16.5679
      vertex -54 14.2658 19.6353
      vertex -15 14.2658 19.6353
    endloop
  endfacet
  facet normal 0 0.978148 0.207912
    outer loop
      vertex -54 14.2658 19.6353
      vertex -15 14.9178 16.5679
      vertex -54 14.9178 16.5679
    endloop
  endfacet
  facet normal 0 0.978148 0.207912
    outer loop
      vertex 54 14.9178 16.5679
      vertex 15 14.2658 19.6353
      vertex 54 14.2658 19.6353
    endloop
  endfacet
  facet normal 0 0.978148 0.207912
    outer loop
      vertex 15 14.2658 19.6353
      vertex 54 14.9178 16.5679
      vertex 15 14.9178 16.5679
    endloop
  endfacet
  facet normal 0 0.669131 -0.743145
    outer loop
      vertex -54 8.81678 2.86474
      vertex -15 11.1472 4.96304
      vertex -15 8.81678 2.86474
    endloop
  endfacet
  facet normal 0 0.669131 -0.743145
    outer loop
      vertex -15 11.1472 4.96304
      vertex -54 8.81678 2.86474
      vertex -54 11.1472 4.96304
    endloop
  endfacet
  facet normal 0 0.669131 -0.743145
    outer loop
      vertex 15 8.81678 2.86474
      vertex 54 11.1472 4.96304
      vertex 54 8.81678 2.86474
    endloop
  endfacet
  facet normal 0 0.669131 -0.743145
    outer loop
      vertex 54 11.1472 4.96304
      vertex 15 8.81678 2.86474
      vertex 15 11.1472 4.96304
    endloop
  endfacet
  facet normal 0 0.5 -0.866025
    outer loop
      vertex -54 6.10105 1.29682
      vertex -15 8.81678 2.86474
      vertex -15 6.10105 1.29682
    endloop
  endfacet
  facet normal 0 0.5 -0.866025
    outer loop
      vertex -15 8.81678 2.86474
      vertex -54 6.10105 1.29682
      vertex -54 8.81678 2.86474
    endloop
  endfacet
  facet normal 0 0.5 -0.866025
    outer loop
      vertex 15 6.10105 1.29682
      vertex 54 8.81678 2.86474
      vertex 54 6.10105 1.29682
    endloop
  endfacet
  facet normal 0 0.5 -0.866025
    outer loop
      vertex 54 8.81678 2.86474
      vertex 15 6.10105 1.29682
      vertex 15 8.81678 2.86474
    endloop
  endfacet
  facet normal 0 0.913545 -0.406737
    outer loop
      vertex -15 13.451 8.53449
      vertex -54 14.2658 10.3647
      vertex -15 14.2658 10.3647
    endloop
  endfacet
  facet normal -4.95986e-09 0.913545 -0.406737
    outer loop
      vertex -54 14.2658 10.3647
      vertex -15 13.451 8.53449
      vertex -54 12.9904 7.5
    endloop
  endfacet
  facet normal 0 0.913545 -0.406737
    outer loop
      vertex 54 14.2658 10.3647
      vertex 15 13.8053 9.33025
      vertex 15 14.2658 10.3647
    endloop
  endfacet
  facet normal 0 0.978148 -0.207912
    outer loop
      vertex -15 14.2658 10.3647
      vertex -54 14.9178 13.4321
      vertex -15 14.9178 13.4321
    endloop
  endfacet
  facet normal 0 0.978148 -0.207912
    outer loop
      vertex -54 14.9178 13.4321
      vertex -15 14.2658 10.3647
      vertex -54 14.2658 10.3647
    endloop
  endfacet
  facet normal 0 0.978148 -0.207912
    outer loop
      vertex 54 14.2658 10.3647
      vertex 15 14.9178 13.4321
      vertex 54 14.9178 13.4321
    endloop
  endfacet
  facet normal 0 0.978148 -0.207912
    outer loop
      vertex 15 14.9178 13.4321
      vertex 54 14.2658 10.3647
      vertex 15 14.2658 10.3647
    endloop
  endfacet
  facet normal 0 0.104528 -0.994522
    outer loop
      vertex -54 0 0
      vertex -15 3.11868 0.327785
      vertex -15 0 0
    endloop
  endfacet
  facet normal 0 0.104528 -0.994522
    outer loop
      vertex -15 3.11868 0.327785
      vertex -54 0 0
      vertex -54 3.11868 0.327785
    endloop
  endfacet
  facet normal 0 0.104528 -0.994522
    outer loop
      vertex 15 0 0
      vertex 54 3.11868 0.327785
      vertex 54 0 0
    endloop
  endfacet
  facet normal 0 0.104528 -0.994522
    outer loop
      vertex 54 3.11868 0.327785
      vertex 15 0 0
      vertex 15 3.11868 0.327785
    endloop
  endfacet
  facet normal 0 -1 0
    outer loop
      vertex 15 -14.9178 13.4321
      vertex 54 -14.9178 16.5679
      vertex 15 -14.9178 16.5679
    endloop
  endfacet
  facet normal 0 -1 -0
    outer loop
      vertex 54 -14.9178 16.5679
      vertex 15 -14.9178 13.4321
      vertex 54 -14.9178 13.4321
    endloop
  endfacet
  facet normal 0 -1 0
    outer loop
      vertex -54 -14.9178 13.4321
      vertex -15 -14.9178 16.5679
      vertex -54 -14.9178 16.5679
    endloop
  endfacet
  facet normal 0 -1 -0
    outer loop
      vertex -15 -14.9178 16.5679
      vertex -54 -14.9178 13.4321
      vertex -15 -14.9178 13.4321
    endloop
  endfacet
  facet normal -1 0 0
    outer loop
      vertex -54 14.2658 10.3647
      vertex -54 14.9178 16.5679
      vertex -54 14.9178 13.4321
    endloop
  endfacet
  facet normal -1 0 0
    outer loop
      vertex -54 14.2658 10.3647
      vertex -54 14.2658 19.6353
      vertex -54 14.9178 16.5679
    endloop
  endfacet
  facet normal -1 0 0
    outer loop
      vertex -54 12.9904 7.5
      vertex -54 14.2658 19.6353
      vertex -54 14.2658 10.3647
    endloop
  endfacet
  facet normal -1 0 0
    outer loop
      vertex -54 12.9904 7.5
      vertex -54 12.9904 22.5
      vertex -54 14.2658 19.6353
    endloop
  endfacet
  facet normal -1 0 0
    outer loop
      vertex -54 11.1472 4.96304
      vertex -54 12.9904 22.5
      vertex -54 12.9904 7.5
    endloop
  endfacet
  facet normal -1 0 0
    outer loop
      vertex -54 11.1472 4.96304
      vertex -54 11.1472 25.037
      vertex -54 12.9904 22.5
    endloop
  endfacet
  facet normal -1 0 0
    outer loop
      vertex -54 8.81678 2.86474
      vertex -54 11.1472 25.037
      vertex -54 11.1472 4.96304
    endloop
  endfacet
  facet normal -1 0 0
    outer loop
      vertex -54 8.81678 2.86474
      vertex -54 8.81678 27.1353
      vertex -54 11.1472 25.037
    endloop
  endfacet
  facet normal -1 0 0
    outer loop
      vertex -54 6.10105 1.29682
      vertex -54 8.81678 27.1353
      vertex -54 8.81678 2.86474
    endloop
  endfacet
  facet normal -1 0 0
    outer loop
      vertex -54 6.10105 1.29682
      vertex -54 6.10105 28.7032
      vertex -54 8.81678 27.1353
    endloop
  endfacet
  facet normal -1 0 0
    outer loop
      vertex -54 3.11868 0.327785
      vertex -54 6.10105 28.7032
      vertex -54 6.10105 1.29682
    endloop
  endfacet
  facet normal -1 0 0
    outer loop
      vertex -54 3.11868 0.327785
      vertex -54 3.11868 29.6722
      vertex -54 6.10105 28.7032
    endloop
  endfacet
  facet normal -1 0 0
    outer loop
      vertex -54 0 0
      vertex -54 3.11868 29.6722
      vertex -54 3.11868 0.327785
    endloop
  endfacet
  facet normal -1 0 0
    outer loop
      vertex -54 0 0
      vertex -54 0 30
      vertex -54 3.11868 29.6722
    endloop
  endfacet
  facet normal -1 0 0
    outer loop
      vertex -54 -3.11868 0.327785
      vertex -54 0 30
      vertex -54 0 0
    endloop
  endfacet
  facet normal -1 0 0
    outer loop
      vertex -54 -3.11868 0.327785
      vertex -54 -3.11868 29.6722
      vertex -54 0 30
    endloop
  endfacet
  facet normal -1 0 0
    outer loop
      vertex -54 -6.10105 1.29682
      vertex -54 -3.11868 29.6722
      vertex -54 -3.11868 0.327785
    endloop
  endfacet
  facet normal -1 0 0
    outer loop
      vertex -54 -6.10105 1.29682
      vertex -54 -6.10105 28.7032
      vertex -54 -3.11868 29.6722
    endloop
  endfacet
  facet normal -1 0 0
    outer loop
      vertex -54 -8.81678 2.86474
      vertex -54 -6.10105 28.7032
      vertex -54 -6.10105 1.29682
    endloop
  endfacet
  facet normal -1 0 0
    outer loop
      vertex -54 -8.81678 2.86474
      vertex -54 -8.81678 27.1353
      vertex -54 -6.10105 28.7032
    endloop
  endfacet
  facet normal -1 0 0
    outer loop
      vertex -54 -11.1472 4.96304
      vertex -54 -8.81678 27.1353
      vertex -54 -8.81678 2.86474
    endloop
  endfacet
  facet normal -1 0 0
    outer loop
      vertex -54 -11.1472 4.96304
      vertex -54 -11.1472 25.037
      vertex -54 -8.81678 27.1353
    endloop
  endfacet
  facet normal -1 0 0
    outer loop
      vertex -54 -12.9904 7.5
      vertex -54 -11.1472 25.037
      vertex -54 -11.1472 4.96304
    endloop
  endfacet
  facet normal -1 0 0
    outer loop
      vertex -54 -12.9904 7.5
      vertex -54 -12.9904 22.5
      vertex -54 -11.1472 25.037
    endloop
  endfacet
  facet normal -1 0 0
    outer loop
      vertex -54 -14.2658 10.3647
      vertex -54 -12.9904 22.5
      vertex -54 -12.9904 7.5
    endloop
  endfacet
  facet normal -1 0 0
    outer loop
      vertex -54 -14.2658 10.3647
      vertex -54 -14.2658 19.6353
      vertex -54 -12.9904 22.5
    endloop
  endfacet
  facet normal -1 0 0
    outer loop
      vertex -54 -14.9178 13.4321
      vertex -54 -14.2658 19.6353
      vertex -54 -14.2658 10.3647
    endloop
  endfacet
  facet normal -1 0 0
    outer loop
      vertex -54 -14.2658 19.6353
      vertex -54 -14.9178 13.4321
      vertex -54 -14.9178 16.5679
    endloop
  endfacet
  facet normal 0 -0.978148 -0.207912
    outer loop
      vertex -54 -14.2658 10.3647
      vertex -15 -14.9178 13.4321
      vertex -54 -14.9178 13.4321
    endloop
  endfacet
  facet normal 0 -0.978148 -0.207912
    outer loop
      vertex -15 -14.9178 13.4321
      vertex -54 -14.2658 10.3647
      vertex -15 -14.2658 10.3647
    endloop
  endfacet
  facet normal 0 -0.978148 -0.207912
    outer loop
      vertex 15 -14.2658 10.3647
      vertex 54 -14.9178 13.4321
      vertex 15 -14.9178 13.4321
    endloop
  endfacet
  facet normal 0 -0.978148 -0.207912
    outer loop
      vertex 54 -14.9178 13.4321
      vertex 15 -14.2658 10.3647
      vertex 54 -14.2658 10.3647
    endloop
  endfacet
  facet normal 0 -0.5 -0.866025
    outer loop
      vertex -54 -8.81678 2.86474
      vertex -15 -6.10105 1.29682
      vertex -15 -8.81678 2.86474
    endloop
  endfacet
  facet normal -0 -0.5 -0.866025
    outer loop
      vertex -15 -6.10105 1.29682
      vertex -54 -8.81678 2.86474
      vertex -54 -6.10105 1.29682
    endloop
  endfacet
  facet normal 0 -0.5 -0.866025
    outer loop
      vertex 15 -8.81678 2.86474
      vertex 54 -6.10105 1.29682
      vertex 54 -8.81678 2.86474
    endloop
  endfacet
  facet normal -0 -0.5 -0.866025
    outer loop
      vertex 54 -6.10105 1.29682
      vertex 15 -8.81678 2.86474
      vertex 15 -6.10105 1.29682
    endloop
  endfacet
  facet normal -0 0.66913 0.743145
    outer loop
      vertex -54 11.1472 25.037
      vertex -15 8.81678 27.1353
      vertex -15 11.1472 25.037
    endloop
  endfacet
  facet normal 0 0.66913 0.743145
    outer loop
      vertex -15 8.81678 27.1353
      vertex -54 11.1472 25.037
      vertex -54 8.81678 27.1353
    endloop
  endfacet
  facet normal -0 0.66913 0.743145
    outer loop
      vertex 15 11.1472 25.037
      vertex 54 8.81678 27.1353
      vertex 54 11.1472 25.037
    endloop
  endfacet
  facet normal 0 0.66913 0.743145
    outer loop
      vertex 54 8.81678 27.1353
      vertex 15 11.1472 25.037
      vertex 15 8.81678 27.1353
    endloop
  endfacet
  facet normal 1.84975e-08 0.913545 0.406737
    outer loop
      vertex 54 14.2658 19.6353
      vertex 15 13.451 21.4655
      vertex 54 12.9904 22.5
    endloop
  endfacet
  facet normal 0 0.913546 0.406736
    outer loop
      vertex 15 13.451 21.4655
      vertex 54 14.2658 19.6353
      vertex 15 14.2658 19.6353
    endloop
  endfacet
  facet normal 0 0.913546 0.406737
    outer loop
      vertex -15 14.2658 19.6353
      vertex -54 14.2658 19.6353
      vertex -15 13.8053 20.6697
    endloop
  endfacet
  facet normal 0 0.104529 0.994522
    outer loop
      vertex 15 1.12619 29.8816
      vertex 15 0 30
      vertex 54 0 30
    endloop
  endfacet
  facet normal 1.8915e-08 0.104528 0.994522
    outer loop
      vertex -54 0 30
      vertex -15 1.99249 29.7906
      vertex -54 3.11868 29.6722
    endloop
  endfacet
  facet normal 0 0.104529 0.994522
    outer loop
      vertex -15 1.99249 29.7906
      vertex -54 0 30
      vertex -15 0 30
    endloop
  endfacet
  facet normal 0 0.104528 0.994522
    outer loop
      vertex 15 1.12619 29.8816
      vertex 54 3.11868 29.6722
      vertex 15 3.11868 29.6722
    endloop
  endfacet
  facet normal -2.97235e-08 0.104528 0.994522
    outer loop
      vertex 54 3.11868 29.6722
      vertex 15 1.12619 29.8816
      vertex 54 0 30
    endloop
  endfacet
  facet normal 0 0.104528 0.994522
    outer loop
      vertex -15 3.11868 29.6722
      vertex -54 3.11868 29.6722
      vertex -15 1.99249 29.7906
    endloop
  endfacet
  facet normal 0 0.809017 -0.587785
    outer loop
      vertex -54 11.1472 4.96304
      vertex -15 12.3248 6.58388
      vertex -15 11.1472 4.96304
    endloop
  endfacet
  facet normal -4.99732e-09 0.809017 -0.587785
    outer loop
      vertex -15 12.3248 6.58388
      vertex -54 11.1472 4.96304
      vertex -54 12.9904 7.5
    endloop
  endfacet
  facet normal 0 0.809017 -0.587785
    outer loop
      vertex 54 11.1472 4.96304
      vertex 15 11.1472 4.96304
      vertex 15 11.8128 5.87916
    endloop
  endfacet
  facet normal 0 0.309017 -0.951057
    outer loop
      vertex -54 3.11868 0.327785
      vertex -15 6.10105 1.29682
      vertex -15 3.11868 0.327785
    endloop
  endfacet
  facet normal 0 0.309017 -0.951057
    outer loop
      vertex -15 6.10105 1.29682
      vertex -54 3.11868 0.327785
      vertex -54 6.10105 1.29682
    endloop
  endfacet
  facet normal 0 0.309017 -0.951057
    outer loop
      vertex 15 3.11868 0.327785
      vertex 54 6.10105 1.29682
      vertex 54 3.11868 0.327785
    endloop
  endfacet
  facet normal 0 0.309017 -0.951057
    outer loop
      vertex 54 6.10105 1.29682
      vertex 15 3.11868 0.327785
      vertex 15 6.10105 1.29682
    endloop
  endfacet
  facet normal 7.18661e-09 0.809017 -0.587785
    outer loop
      vertex -15 12.3248 6.58388
      vertex -54 12.9904 7.5
      vertex -15 12.9904 7.5
    endloop
  endfacet
  facet normal 7.18661e-09 0.809017 -0.587785
    outer loop
      vertex 54 12.9904 7.5
      vertex 15 11.8128 5.87916
      vertex 15 12.9904 7.5
    endloop
  endfacet
  facet normal 1.93004e-10 0.809017 -0.587785
    outer loop
      vertex 15 11.8128 5.87916
      vertex 54 12.9904 7.5
      vertex 54 11.1472 4.96304
    endloop
  endfacet
  facet normal 4.97301e-09 0.913545 -0.406737
    outer loop
      vertex -15 12.9904 7.5
      vertex -54 12.9904 7.5
      vertex -15 13.451 8.53449
    endloop
  endfacet
  facet normal -1.36825e-09 0.913545 -0.406737
    outer loop
      vertex 54 12.9904 7.5
      vertex 15 13.8053 9.33025
      vertex 54 14.2658 10.3647
    endloop
  endfacet
  facet normal 4.973e-09 0.913545 -0.406737
    outer loop
      vertex 15 13.8053 9.33025
      vertex 54 12.9904 7.5
      vertex 15 12.9904 7.5
    endloop
  endfacet
  facet normal 0 -0.104529 0.994522
    outer loop
      vertex 15 0 30
      vertex 15 -1.12619 29.8816
      vertex 54 0 30
    endloop
  endfacet
  facet normal 0 -0.104529 0.994522
    outer loop
      vertex -54 0 30
      vertex -15 -1.99249 29.7906
      vertex -15 0 30
    endloop
  endfacet
  facet normal 1.8915e-08 -0.104528 0.994522
    outer loop
      vertex -15 -1.99249 29.7906
      vertex -54 0 30
      vertex -54 -3.11868 29.6722
    endloop
  endfacet
  facet normal 0 -0.809017 0.587785
    outer loop
      vertex 15 -12.3248 23.4161
      vertex 54 -11.1472 25.037
      vertex 15 -11.1472 25.037
    endloop
  endfacet
  facet normal 1.21839e-08 -0.809017 0.587785
    outer loop
      vertex 54 -11.1472 25.037
      vertex 15 -12.3248 23.4161
      vertex 54 -12.9904 22.5
    endloop
  endfacet
  facet normal 0 -0.809017 0.587785
    outer loop
      vertex -15 -11.1472 25.037
      vertex -54 -11.1472 25.037
      vertex -15 -11.8128 24.1208
    endloop
  endfacet
  facet normal 1 0 0
    outer loop
      vertex 54 14.2658 19.6353
      vertex 54 14.9178 13.4321
      vertex 54 14.9178 16.5679
    endloop
  endfacet
  facet normal 1 0 0
    outer loop
      vertex 54 14.2658 19.6353
      vertex 54 14.2658 10.3647
      vertex 54 14.9178 13.4321
    endloop
  endfacet
  facet normal 1 0 0
    outer loop
      vertex 54 12.9904 22.5
      vertex 54 14.2658 10.3647
      vertex 54 14.2658 19.6353
    endloop
  endfacet
  facet normal 1 0 0
    outer loop
      vertex 54 12.9904 22.5
      vertex 54 12.9904 7.5
      vertex 54 14.2658 10.3647
    endloop
  endfacet
  facet normal 1 0 0
    outer loop
      vertex 54 11.1472 25.037
      vertex 54 12.9904 7.5
      vertex 54 12.9904 22.5
    endloop
  endfacet
  facet normal 1 0 0
    outer loop
      vertex 54 11.1472 25.037
      vertex 54 11.1472 4.96304
      vertex 54 12.9904 7.5
    endloop
  endfacet
  facet normal 1 0 0
    outer loop
      vertex 54 8.81678 27.1353
      vertex 54 11.1472 4.96304
      vertex 54 11.1472 25.037
    endloop
  endfacet
  facet normal 1 0 0
    outer loop
      vertex 54 8.81678 27.1353
      vertex 54 8.81678 2.86474
      vertex 54 11.1472 4.96304
    endloop
  endfacet
  facet normal 1 0 0
    outer loop
      vertex 54 6.10105 28.7032
      vertex 54 8.81678 2.86474
      vertex 54 8.81678 27.1353
    endloop
  endfacet
  facet normal 1 0 0
    outer loop
      vertex 54 6.10105 28.7032
      vertex 54 6.10105 1.29682
      vertex 54 8.81678 2.86474
    endloop
  endfacet
  facet normal 1 0 0
    outer loop
      vertex 54 3.11868 29.6722
      vertex 54 6.10105 1.29682
      vertex 54 6.10105 28.7032
    endloop
  endfacet
  facet normal 1 0 0
    outer loop
      vertex 54 3.11868 29.6722
      vertex 54 3.11868 0.327785
      vertex 54 6.10105 1.29682
    endloop
  endfacet
  facet normal 1 0 0
    outer loop
      vertex 54 0 30
      vertex 54 3.11868 0.327785
      vertex 54 3.11868 29.6722
    endloop
  endfacet
  facet normal 1 0 0
    outer loop
      vertex 54 0 30
      vertex 54 0 0
      vertex 54 3.11868 0.327785
    endloop
  endfacet
  facet normal 1 -0 0
    outer loop
      vertex 54 -3.11868 29.6722
      vertex 54 0 0
      vertex 54 0 30
    endloop
  endfacet
  facet normal 1 0 0
    outer loop
      vertex 54 -3.11868 29.6722
      vertex 54 -3.11868 0.327785
      vertex 54 0 0
    endloop
  endfacet
  facet normal 1 -0 0
    outer loop
      vertex 54 -6.10105 28.7032
      vertex 54 -3.11868 0.327785
      vertex 54 -3.11868 29.6722
    endloop
  endfacet
  facet normal 1 0 0
    outer loop
      vertex 54 -6.10105 28.7032
      vertex 54 -6.10105 1.29682
      vertex 54 -3.11868 0.327785
    endloop
  endfacet
  facet normal 1 -0 0
    outer loop
      vertex 54 -8.81678 27.1353
      vertex 54 -6.10105 1.29682
      vertex 54 -6.10105 28.7032
    endloop
  endfacet
  facet normal 1 0 0
    outer loop
      vertex 54 -8.81678 27.1353
      vertex 54 -8.81678 2.86474
      vertex 54 -6.10105 1.29682
    endloop
  endfacet
  facet normal 1 -0 0
    outer loop
      vertex 54 -11.1472 25.037
      vertex 54 -8.81678 2.86474
      vertex 54 -8.81678 27.1353
    endloop
  endfacet
  facet normal 1 0 0
    outer loop
      vertex 54 -11.1472 25.037
      vertex 54 -11.1472 4.96304
      vertex 54 -8.81678 2.86474
    endloop
  endfacet
  facet normal 1 -0 0
    outer loop
      vertex 54 -12.9904 22.5
      vertex 54 -11.1472 4.96304
      vertex 54 -11.1472 25.037
    endloop
  endfacet
  facet normal 1 0 0
    outer loop
      vertex 54 -12.9904 22.5
      vertex 54 -12.9904 7.5
      vertex 54 -11.1472 4.96304
    endloop
  endfacet
  facet normal 1 -0 0
    outer loop
      vertex 54 -14.2658 19.6353
      vertex 54 -12.9904 7.5
      vertex 54 -12.9904 22.5
    endloop
  endfacet
  facet normal 1 0 0
    outer loop
      vertex 54 -14.2658 19.6353
      vertex 54 -14.2658 10.3647
      vertex 54 -12.9904 7.5
    endloop
  endfacet
  facet normal 1 -0 0
    outer loop
      vertex 54 -14.9178 16.5679
      vertex 54 -14.2658 10.3647
      vertex 54 -14.2658 19.6353
    endloop
  endfacet
  facet normal 1 0 0
    outer loop
      vertex 54 -14.2658 10.3647
      vertex 54 -14.9178 16.5679
      vertex 54 -14.9178 13.4321
    endloop
  endfacet
  facet normal -4.99732e-09 -0.809017 -0.587785
    outer loop
      vertex -54 -11.1472 4.96304
      vertex -15 -12.3248 6.58388
      vertex -54 -12.9904 7.5
    endloop
  endfacet
  facet normal 0 -0.809017 -0.587785
    outer loop
      vertex -15 -12.3248 6.58388
      vertex -54 -11.1472 4.96304
      vertex -15 -11.1472 4.96304
    endloop
  endfacet
  facet normal -0 -0.809017 -0.587785
    outer loop
      vertex 54 -11.1472 4.96304
      vertex 15 -11.8128 5.87916
      vertex 15 -11.1472 4.96304
    endloop
  endfacet
  facet normal 0 -0.669131 -0.743145
    outer loop
      vertex -54 -11.1472 4.96304
      vertex -15 -8.81678 2.86474
      vertex -15 -11.1472 4.96304
    endloop
  endfacet
  facet normal -0 -0.669131 -0.743145
    outer loop
      vertex -15 -8.81678 2.86474
      vertex -54 -11.1472 4.96304
      vertex -54 -8.81678 2.86474
    endloop
  endfacet
  facet normal 0 -0.669131 -0.743145
    outer loop
      vertex 15 -11.1472 4.96304
      vertex 54 -8.81678 2.86474
      vertex 54 -11.1472 4.96304
    endloop
  endfacet
  facet normal -0 -0.669131 -0.743145
    outer loop
      vertex 54 -8.81678 2.86474
      vertex 15 -11.1472 4.96304
      vertex 15 -8.81678 2.86474
    endloop
  endfacet
  facet normal -1.36825e-09 -0.913545 -0.406737
    outer loop
      vertex 15 -13.8053 9.33025
      vertex 54 -12.9904 7.5
      vertex 54 -14.2658 10.3647
    endloop
  endfacet
  facet normal 4.973e-09 -0.913545 -0.406737
    outer loop
      vertex 54 -12.9904 7.5
      vertex 15 -13.8053 9.33025
      vertex 15 -12.9904 7.5
    endloop
  endfacet
  facet normal 4.97301e-09 -0.913545 -0.406737
    outer loop
      vertex -15 -13.451 8.53449
      vertex -54 -12.9904 7.5
      vertex -15 -12.9904 7.5
    endloop
  endfacet
  facet normal 0 -0.913545 -0.406737
    outer loop
      vertex -54 -14.2658 10.3647
      vertex -15 -13.451 8.53449
      vertex -15 -14.2658 10.3647
    endloop
  endfacet
  facet normal -4.95986e-09 -0.913545 -0.406737
    outer loop
      vertex -15 -13.451 8.53449
      vertex -54 -14.2658 10.3647
      vertex -54 -12.9904 7.5
    endloop
  endfacet
  facet normal -0 -0.913545 -0.406737
    outer loop
      vertex 54 -14.2658 10.3647
      vertex 15 -14.2658 10.3647
      vertex 15 -13.8053 9.33025
    endloop
  endfacet
  facet normal 0 -0.309017 -0.951057
    outer loop
      vertex -54 -6.10105 1.29682
      vertex -15 -3.11868 0.327785
      vertex -15 -6.10105 1.29682
    endloop
  endfacet
  facet normal -0 -0.309017 -0.951057
    outer loop
      vertex -15 -3.11868 0.327785
      vertex -54 -6.10105 1.29682
      vertex -54 -3.11868 0.327785
    endloop
  endfacet
  facet normal 0 -0.309017 -0.951057
    outer loop
      vertex 15 -6.10105 1.29682
      vertex 54 -3.11868 0.327785
      vertex 54 -6.10105 1.29682
    endloop
  endfacet
  facet normal -0 -0.309017 -0.951057
    outer loop
      vertex 54 -3.11868 0.327785
      vertex 15 -6.10105 1.29682
      vertex 15 -3.11868 0.327785
    endloop
  endfacet
  facet normal 0 0.913545 0.406737
    outer loop
      vertex -15 13.8053 20.6697
      vertex -54 12.9904 22.5
      vertex -15 12.9904 22.5
    endloop
  endfacet
  facet normal -1.39453e-09 0.913545 0.406737
    outer loop
      vertex -54 12.9904 22.5
      vertex -15 13.8053 20.6697
      vertex -54 14.2658 19.6353
    endloop
  endfacet
  facet normal 0 0.913545 0.406737
    outer loop
      vertex 15 13.451 21.4655
      vertex 15 12.9904 22.5
      vertex 54 12.9904 22.5
    endloop
  endfacet
  facet normal -0 0.809017 0.587785
    outer loop
      vertex -54 12.9904 22.5
      vertex -15 11.8128 24.1208
      vertex -15 12.9904 22.5
    endloop
  endfacet
  facet normal 1.21839e-08 0.809017 0.587785
    outer loop
      vertex -15 11.8128 24.1208
      vertex -54 12.9904 22.5
      vertex -54 11.1472 25.037
    endloop
  endfacet
  facet normal -0 0.809017 0.587785
    outer loop
      vertex 15 12.9904 22.5
      vertex 15 12.3248 23.4161
      vertex 54 12.9904 22.5
    endloop
  endfacet
  facet normal 0 0.809017 0.587785
    outer loop
      vertex 54 11.1472 25.037
      vertex 15 12.3248 23.4161
      vertex 15 11.1472 25.037
    endloop
  endfacet
  facet normal 1.21839e-08 0.809017 0.587785
    outer loop
      vertex 15 12.3248 23.4161
      vertex 54 11.1472 25.037
      vertex 54 12.9904 22.5
    endloop
  endfacet
  facet normal 0 0.809017 0.587785
    outer loop
      vertex -15 11.8128 24.1208
      vertex -54 11.1472 25.037
      vertex -15 11.1472 25.037
    endloop
  endfacet
  facet normal -0 0.5 0.866025
    outer loop
      vertex -54 8.81678 27.1353
      vertex -15 6.10105 28.7032
      vertex -15 8.81678 27.1353
    endloop
  endfacet
  facet normal 0 0.5 0.866025
    outer loop
      vertex -15 6.10105 28.7032
      vertex -54 8.81678 27.1353
      vertex -54 6.10105 28.7032
    endloop
  endfacet
  facet normal -0 0.5 0.866025
    outer loop
      vertex 15 8.81678 27.1353
      vertex 54 6.10105 28.7032
      vertex 54 8.81678 27.1353
    endloop
  endfacet
  facet normal 0 0.5 0.866025
    outer loop
      vertex 54 6.10105 28.7032
      vertex 15 8.81678 27.1353
      vertex 15 6.10105 28.7032
    endloop
  endfacet
  facet normal -0 0.309017 0.951057
    outer loop
      vertex -54 6.10105 28.7032
      vertex -15 3.11868 29.6722
      vertex -15 6.10105 28.7032
    endloop
  endfacet
  facet normal 0 0.309017 0.951057
    outer loop
      vertex -15 3.11868 29.6722
      vertex -54 6.10105 28.7032
      vertex -54 3.11868 29.6722
    endloop
  endfacet
  facet normal -0 0.309017 0.951057
    outer loop
      vertex 15 6.10105 28.7032
      vertex 54 3.11868 29.6722
      vertex 54 6.10105 28.7032
    endloop
  endfacet
  facet normal 0 0.309017 0.951057
    outer loop
      vertex 54 3.11868 29.6722
      vertex 15 6.10105 28.7032
      vertex 15 3.11868 29.6722
    endloop
  endfacet
  facet normal -2.97235e-08 -0.104528 0.994522
    outer loop
      vertex 15 -1.12619 29.8816
      vertex 54 -3.11868 29.6722
      vertex 54 0 30
    endloop
  endfacet
  facet normal 0 -0.104528 0.994522
    outer loop
      vertex 54 -3.11868 29.6722
      vertex 15 -1.12619 29.8816
      vertex 15 -3.11868 29.6722
    endloop
  endfacet
  facet normal 0 -0.104528 0.994522
    outer loop
      vertex -15 -1.99249 29.7906
      vertex -54 -3.11868 29.6722
      vertex -15 -3.11868 29.6722
    endloop
  endfacet
  facet normal 0 -0.978148 0.207912
    outer loop
      vertex 15 -14.9178 16.5679
      vertex 54 -14.2658 19.6353
      vertex 15 -14.2658 19.6353
    endloop
  endfacet
  facet normal 0 -0.978148 0.207912
    outer loop
      vertex 54 -14.2658 19.6353
      vertex 15 -14.9178 16.5679
      vertex 54 -14.9178 16.5679
    endloop
  endfacet
  facet normal 0 -0.978148 0.207912
    outer loop
      vertex -54 -14.9178 16.5679
      vertex -15 -14.2658 19.6353
      vertex -54 -14.2658 19.6353
    endloop
  endfacet
  facet normal 0 -0.978148 0.207912
    outer loop
      vertex -15 -14.2658 19.6353
      vertex -54 -14.9178 16.5679
      vertex -15 -14.9178 16.5679
    endloop
  endfacet
  facet normal 0 -0.913546 0.406736
    outer loop
      vertex 54 -14.2658 19.6353
      vertex 15 -13.451 21.4655
      vertex 15 -14.2658 19.6353
    endloop
  endfacet
  facet normal 1.84975e-08 -0.913545 0.406737
    outer loop
      vertex 15 -13.451 21.4655
      vertex 54 -14.2658 19.6353
      vertex 54 -12.9904 22.5
    endloop
  endfacet
  facet normal 0 -0.913546 0.406737
    outer loop
      vertex -15 -13.8053 20.6697
      vertex -54 -14.2658 19.6353
      vertex -15 -14.2658 19.6353
    endloop
  endfacet
  facet normal 7.18661e-09 -0.809017 -0.587785
    outer loop
      vertex 15 -11.8128 5.87916
      vertex 54 -12.9904 7.5
      vertex 15 -12.9904 7.5
    endloop
  endfacet
  facet normal 1.93004e-10 -0.809017 -0.587785
    outer loop
      vertex 54 -12.9904 7.5
      vertex 15 -11.8128 5.87916
      vertex 54 -11.1472 4.96304
    endloop
  endfacet
  facet normal 7.18661e-09 -0.809017 -0.587785
    outer loop
      vertex -15 -12.9904 7.5
      vertex -54 -12.9904 7.5
      vertex -15 -12.3248 6.58388
    endloop
  endfacet
  facet normal 0 -0.66913 0.743145
    outer loop
      vertex 15 -8.81678 27.1353
      vertex 54 -11.1472 25.037
      vertex 54 -8.81678 27.1353
    endloop
  endfacet
  facet normal 0 -0.66913 0.743145
    outer loop
      vertex 54 -11.1472 25.037
      vertex 15 -8.81678 27.1353
      vertex 15 -11.1472 25.037
    endloop
  endfacet
  facet normal 0 -0.66913 0.743145
    outer loop
      vertex -54 -8.81678 27.1353
      vertex -15 -11.1472 25.037
      vertex -15 -8.81678 27.1353
    endloop
  endfacet
  facet normal 0 -0.66913 0.743145
    outer loop
      vertex -15 -11.1472 25.037
      vertex -54 -8.81678 27.1353
      vertex -54 -11.1472 25.037
    endloop
  endfacet
  facet normal 0 -0.5 0.866025
    outer loop
      vertex 15 -6.10105 28.7032
      vertex 54 -8.81678 27.1353
      vertex 54 -6.10105 28.7032
    endloop
  endfacet
  facet normal 0 -0.5 0.866025
    outer loop
      vertex 54 -8.81678 27.1353
      vertex 15 -6.10105 28.7032
      vertex 15 -8.81678 27.1353
    endloop
  endfacet
  facet normal 0 -0.5 0.866025
    outer loop
      vertex -54 -6.10105 28.7032
      vertex -15 -8.81678 27.1353
      vertex -15 -6.10105 28.7032
    endloop
  endfacet
  facet normal 0 -0.5 0.866025
    outer loop
      vertex -15 -8.81678 27.1353
      vertex -54 -6.10105 28.7032
      vertex -54 -8.81678 27.1353
    endloop
  endfacet
  facet normal 0 -0.913545 0.406737
    outer loop
      vertex -54 -12.9904 22.5
      vertex -15 -13.8053 20.6697
      vertex -15 -12.9904 22.5
    endloop
  endfacet
  facet normal -1.39453e-09 -0.913545 0.406737
    outer loop
      vertex -15 -13.8053 20.6697
      vertex -54 -12.9904 22.5
      vertex -54 -14.2658 19.6353
    endloop
  endfacet
  facet normal 0 -0.913545 0.406737
    outer loop
      vertex 15 -12.9904 22.5
      vertex 15 -13.451 21.4655
      vertex 54 -12.9904 22.5
    endloop
  endfacet
  facet normal 1.21839e-08 -0.809017 0.587785
    outer loop
      vertex -54 -12.9904 22.5
      vertex -15 -11.8128 24.1208
      vertex -54 -11.1472 25.037
    endloop
  endfacet
  facet normal 0 -0.809017 0.587785
    outer loop
      vertex -15 -11.8128 24.1208
      vertex -54 -12.9904 22.5
      vertex -15 -12.9904 22.5
    endloop
  endfacet
  facet normal 0 -0.809017 0.587785
    outer loop
      vertex 15 -12.3248 23.4161
      vertex 15 -12.9904 22.5
      vertex 54 -12.9904 22.5
    endloop
  endfacet
  facet normal -0.991445 -0.130527 0
    outer loop
      vertex 7.5 0 25
      vertex 7.24444 1.94114 30
      vertex 7.24444 1.94114 25
    endloop
  endfacet
  facet normal -0.991445 -0.130527 0
    outer loop
      vertex 7.24444 1.94114 30
      vertex 7.5 0 25
      vertex 7.5 0 30
    endloop
  endfacet
  facet normal 0.991445 -0.130527 0
    outer loop
      vertex -7.5 0 30
      vertex -7.24444 1.94114 25
      vertex -7.24444 1.94114 30
    endloop
  endfacet
  facet normal 0.991445 -0.130527 0
    outer loop
      vertex -7.24444 1.94114 25
      vertex -7.5 0 30
      vertex -7.5 0 25
    endloop
  endfacet
  facet normal -0.130527 -0.991445 0
    outer loop
      vertex 0 7.5 25
      vertex 1.94114 7.24444 30
      vertex 0 7.5 30
    endloop
  endfacet
  facet normal -0.130527 -0.991445 -0
    outer loop
      vertex 1.94114 7.24444 30
      vertex 0 7.5 25
      vertex 1.94114 7.24444 25
    endloop
  endfacet
  facet normal 0.793354 0.608761 0
    outer loop
      vertex -5.3033 -5.3033 30
      vertex -6.49519 -3.75 25
      vertex -6.49519 -3.75 30
    endloop
  endfacet
  facet normal 0.793354 0.608761 0
    outer loop
      vertex -6.49519 -3.75 25
      vertex -5.3033 -5.3033 30
      vertex -5.3033 -5.3033 25
    endloop
  endfacet
  facet normal 0 0 1
    outer loop
      vertex 7.24444 1.94114 25
      vertex 7.24444 -1.94114 25
      vertex 7.5 0 25
    endloop
  endfacet
  facet normal 0 0 1
    outer loop
      vertex 6.49519 3.75 25
      vertex 7.24444 -1.94114 25
      vertex 7.24444 1.94114 25
    endloop
  endfacet
  facet normal 0 0 1
    outer loop
      vertex 6.49519 3.75 25
      vertex 6.49519 -3.75 25
      vertex 7.24444 -1.94114 25
    endloop
  endfacet
  facet normal 0 0 1
    outer loop
      vertex 5.3033 5.3033 25
      vertex 6.49519 -3.75 25
      vertex 6.49519 3.75 25
    endloop
  endfacet
  facet normal 0 0 1
    outer loop
      vertex 5.3033 5.3033 25
      vertex 5.3033 -5.3033 25
      vertex 6.49519 -3.75 25
    endloop
  endfacet
  facet normal 0 0 1
    outer loop
      vertex 3.75 6.49519 25
      vertex 5.3033 -5.3033 25
      vertex 5.3033 5.3033 25
    endloop
  endfacet
  facet normal 0 0 1
    outer loop
      vertex 3.75 6.49519 25
      vertex 3.75 -6.49519 25
      vertex 5.3033 -5.3033 25
    endloop
  endfacet
  facet normal 0 0 1
    outer loop
      vertex 1.94114 7.24444 25
      vertex 3.75 -6.49519 25
      vertex 3.75 6.49519 25
    endloop
  endfacet
  facet normal 0 0 1
    outer loop
      vertex 1.94114 7.24444 25
      vertex 1.94114 -7.24444 25
      vertex 3.75 -6.49519 25
    endloop
  endfacet
  facet normal 0 0 1
    outer loop
      vertex 0 7.5 25
      vertex 1.94114 -7.24444 25
      vertex 1.94114 7.24444 25
    endloop
  endfacet
  facet normal 0 0 1
    outer loop
      vertex 0 7.5 25
      vertex 0 -7.5 25
      vertex 1.94114 -7.24444 25
    endloop
  endfacet
  facet normal -0 0 1
    outer loop
      vertex -1.94114 7.24444 25
      vertex 0 -7.5 25
      vertex 0 7.5 25
    endloop
  endfacet
  facet normal 0 0 1
    outer loop
      vertex -1.94114 7.24444 25
      vertex -1.94114 -7.24444 25
      vertex 0 -7.5 25
    endloop
  endfacet
  facet normal -0 0 1
    outer loop
      vertex -3.75 6.49519 25
      vertex -1.94114 -7.24444 25
      vertex -1.94114 7.24444 25
    endloop
  endfacet
  facet normal 0 0 1
    outer loop
      vertex -3.75 6.49519 25
      vertex -3.75 -6.49519 25
      vertex -1.94114 -7.24444 25
    endloop
  endfacet
  facet normal -0 0 1
    outer loop
      vertex -5.3033 5.3033 25
      vertex -3.75 -6.49519 25
      vertex -3.75 6.49519 25
    endloop
  endfacet
  facet normal 0 0 1
    outer loop
      vertex -5.3033 5.3033 25
      vertex -5.3033 -5.3033 25
      vertex -3.75 -6.49519 25
    endloop
  endfacet
  facet normal -0 0 1
    outer loop
      vertex -6.49519 3.75 25
      vertex -5.3033 -5.3033 25
      vertex -5.3033 5.3033 25
    endloop
  endfacet
  facet normal 0 0 1
    outer loop
      vertex -6.49519 3.75 25
      vertex -6.49519 -3.75 25
      vertex -5.3033 -5.3033 25
    endloop
  endfacet
  facet normal -0 0 1
    outer loop
      vertex -7.24444 1.94114 25
      vertex -6.49519 -3.75 25
      vertex -6.49519 3.75 25
    endloop
  endfacet
  facet normal 0 0 1
    outer loop
      vertex -7.24444 1.94114 25
      vertex -7.24444 -1.94114 25
      vertex -6.49519 -3.75 25
    endloop
  endfacet
  facet normal 0 -0 1
    outer loop
      vertex -7.24444 -1.94114 25
      vertex -7.24444 1.94114 25
      vertex -7.5 0 25
    endloop
  endfacet
  facet normal -0.793354 -0.608761 0
    outer loop
      vertex 6.49519 3.75 25
      vertex 5.3033 5.3033 30
      vertex 5.3033 5.3033 25
    endloop
  endfacet
  facet normal -0.793354 -0.608761 0
    outer loop
      vertex 5.3033 5.3033 30
      vertex 6.49519 3.75 25
      vertex 6.49519 3.75 30
    endloop
  endfacet
  facet normal -0.923879 -0.382684 0
    outer loop
      vertex 7.24444 1.94114 25
      vertex 6.49519 3.75 30
      vertex 6.49519 3.75 25
    endloop
  endfacet
  facet normal -0.923879 -0.382684 0
    outer loop
      vertex 6.49519 3.75 30
      vertex 7.24444 1.94114 25
      vertex 7.24444 1.94114 30
    endloop
  endfacet
  facet normal -0.608761 -0.793354 0
    outer loop
      vertex 3.75 6.49519 25
      vertex 5.3033 5.3033 30
      vertex 3.75 6.49519 30
    endloop
  endfacet
  facet normal -0.608761 -0.793354 -0
    outer loop
      vertex 5.3033 5.3033 30
      vertex 3.75 6.49519 25
      vertex 5.3033 5.3033 25
    endloop
  endfacet
  facet normal 0.608761 -0.793354 0
    outer loop
      vertex -5.3033 5.3033 25
      vertex -3.75 6.49519 30
      vertex -5.3033 5.3033 30
    endloop
  endfacet
  facet normal 0.608761 -0.793354 0
    outer loop
      vertex -3.75 6.49519 30
      vertex -5.3033 5.3033 25
      vertex -3.75 6.49519 25
    endloop
  endfacet
  facet normal 0.130527 -0.991445 0
    outer loop
      vertex -1.94114 7.24444 25
      vertex 0 7.5 30
      vertex -1.94114 7.24444 30
    endloop
  endfacet
  facet normal 0.130527 -0.991445 0
    outer loop
      vertex 0 7.5 30
      vertex -1.94114 7.24444 25
      vertex 0 7.5 25
    endloop
  endfacet
  facet normal 0.608761 0.793354 -0
    outer loop
      vertex -3.75 -6.49519 25
      vertex -5.3033 -5.3033 30
      vertex -3.75 -6.49519 30
    endloop
  endfacet
  facet normal 0.608761 0.793354 0
    outer loop
      vertex -5.3033 -5.3033 30
      vertex -3.75 -6.49519 25
      vertex -5.3033 -5.3033 25
    endloop
  endfacet
  facet normal 0.991445 0.130527 0
    outer loop
      vertex -7.24444 -1.94114 30
      vertex -7.5 0 25
      vertex -7.5 0 30
    endloop
  endfacet
  facet normal 0.991445 0.130527 0
    outer loop
      vertex -7.5 0 25
      vertex -7.24444 -1.94114 30
      vertex -7.24444 -1.94114 25
    endloop
  endfacet
  facet normal -0.382683 -0.92388 0
    outer loop
      vertex 1.94114 7.24444 25
      vertex 3.75 6.49519 30
      vertex 1.94114 7.24444 30
    endloop
  endfacet
  facet normal -0.382683 -0.92388 -0
    outer loop
      vertex 3.75 6.49519 30
      vertex 1.94114 7.24444 25
      vertex 3.75 6.49519 25
    endloop
  endfacet
  facet normal 0.793354 -0.608761 0
    outer loop
      vertex -6.49519 3.75 30
      vertex -5.3033 5.3033 25
      vertex -5.3033 5.3033 30
    endloop
  endfacet
  facet normal 0.793354 -0.608761 0
    outer loop
      vertex -5.3033 5.3033 25
      vertex -6.49519 3.75 30
      vertex -6.49519 3.75 25
    endloop
  endfacet
  facet normal 0.923879 -0.382684 0
    outer loop
      vertex -7.24444 1.94114 30
      vertex -6.49519 3.75 25
      vertex -6.49519 3.75 30
    endloop
  endfacet
  facet normal 0.923879 -0.382684 0
    outer loop
      vertex -6.49519 3.75 25
      vertex -7.24444 1.94114 30
      vertex -7.24444 1.94114 25
    endloop
  endfacet
  facet normal 0.382684 -0.923879 0
    outer loop
      vertex -3.75 6.49519 25
      vertex -1.94114 7.24444 30
      vertex -3.75 6.49519 30
    endloop
  endfacet
  facet normal 0.382684 -0.923879 0
    outer loop
      vertex -1.94114 7.24444 30
      vertex -3.75 6.49519 25
      vertex -1.94114 7.24444 25
    endloop
  endfacet
  facet normal -0.991445 0.130527 0
    outer loop
      vertex 7.24444 -1.94114 25
      vertex 7.5 0 30
      vertex 7.5 0 25
    endloop
  endfacet
  facet normal -0.991445 0.130527 0
    outer loop
      vertex 7.5 0 30
      vertex 7.24444 -1.94114 25
      vertex 7.24444 -1.94114 30
    endloop
  endfacet
  facet normal -0.130527 0.991445 0
    outer loop
      vertex 1.94114 -7.24444 25
      vertex 0 -7.5 30
      vertex 1.94114 -7.24444 30
    endloop
  endfacet
  facet normal -0.130527 0.991445 0
    outer loop
      vertex 0 -7.5 30
      vertex 1.94114 -7.24444 25
      vertex 0 -7.5 25
    endloop
  endfacet
  facet normal -0.608761 0.793354 0
    outer loop
      vertex 5.3033 -5.3033 25
      vertex 3.75 -6.49519 30
      vertex 5.3033 -5.3033 30
    endloop
  endfacet
  facet normal -0.608761 0.793354 0
    outer loop
      vertex 3.75 -6.49519 30
      vertex 5.3033 -5.3033 25
      vertex 3.75 -6.49519 25
    endloop
  endfacet
  facet normal 0.382683 0.92388 -0
    outer loop
      vertex -1.94114 -7.24444 25
      vertex -3.75 -6.49519 30
      vertex -1.94114 -7.24444 30
    endloop
  endfacet
  facet normal 0.382683 0.92388 0
    outer loop
      vertex -3.75 -6.49519 30
      vertex -1.94114 -7.24444 25
      vertex -3.75 -6.49519 25
    endloop
  endfacet
  facet normal 0.923879 0.382684 0
    outer loop
      vertex -6.49519 -3.75 30
      vertex -7.24444 -1.94114 25
      vertex -7.24444 -1.94114 30
    endloop
  endfacet
  facet normal 0.923879 0.382684 0
    outer loop
      vertex -7.24444 -1.94114 25
      vertex -6.49519 -3.75 30
      vertex -6.49519 -3.75 25
    endloop
  endfacet
  facet normal -0.382683 0.92388 0
    outer loop
      vertex 3.75 -6.49519 25
      vertex 1.94114 -7.24444 30
      vertex 3.75 -6.49519 30
    endloop
  endfacet
  facet normal -0.382683 0.92388 0
    outer loop
      vertex 1.94114 -7.24444 30
      vertex 3.75 -6.49519 25
      vertex 1.94114 -7.24444 25
    endloop
  endfacet
  facet normal -0.92388 0.382683 0
    outer loop
      vertex 6.49519 -3.75 25
      vertex 7.24444 -1.94114 30
      vertex 7.24444 -1.94114 25
    endloop
  endfacet
  facet normal -0.92388 0.382683 0
    outer loop
      vertex 7.24444 -1.94114 30
      vertex 6.49519 -3.75 25
      vertex 6.49519 -3.75 30
    endloop
  endfacet
  facet normal -0.793354 0.608761 0
    outer loop
      vertex 5.3033 -5.3033 25
      vertex 6.49519 -3.75 30
      vertex 6.49519 -3.75 25
    endloop
  endfacet
  facet normal -0.793354 0.608761 0
    outer loop
      vertex 6.49519 -3.75 30
      vertex 5.3033 -5.3033 25
      vertex 5.3033 -5.3033 30
    endloop
  endfacet
  facet normal 0.130527 0.991445 -0
    outer loop
      vertex 0 -7.5 25
      vertex -1.94114 -7.24444 30
      vertex 0 -7.5 30
    endloop
  endfacet
  facet normal 0.130527 0.991445 0
    outer loop
      vertex -1.94114 -7.24444 30
      vertex 0 -7.5 25
      vertex -1.94114 -7.24444 25
    endloop
  endfacet
endsolid OpenSCAD_Model
