solid OpenSCAD_Model
  facet normal -1 -0 0
    outer loop
      vertex -15 -14.9178 13.4321
      vertex -15 -15 0
      vertex -15 -14.9178 16.5679
    endloop
  endfacet
  facet normal -1 -0 0
    outer loop
      vertex -15 -14.2658 10.3647
      vertex -15 -15 0
      vertex -15 -14.9178 13.4321
    endloop
  endfacet
  facet normal -1 -0 0
    outer loop
      vertex -15 -13.3624 8.33555
      vertex -15 -15 0
      vertex -15 -14.2658 10.3647
    endloop
  endfacet
  facet normal -1 -0 0
    outer loop
      vertex -15 -12.9904 7.5
      vertex -15 -15 0
      vertex -15 -13.3624 8.33555
    endloop
  endfacet
  facet normal -1 -0 0
    outer loop
      vertex -15 -12.4528 6.76005
      vertex -15 -15 0
      vertex -15 -12.9904 7.5
    endloop
  endfacet
  facet normal -1 -0 0
    outer loop
      vertex -15 -11.1472 4.96304
      vertex -15 -15 0
      vertex -15 -12.4528 6.76005
    endloop
  endfacet
  facet normal -1 -0 0
    outer loop
      vertex -15 -8.81678 2.86474
      vertex -15 -15 0
      vertex -15 -11.1472 4.96304
    endloop
  endfacet
  facet normal -1 -0 0
    outer loop
      vertex -15 -6.10105 1.29682
      vertex -15 -15 0
      vertex -15 -8.81678 2.86474
    endloop
  endfacet
  facet normal -1 -0 0
    outer loop
      vertex -15 -3.11868 0.327785
      vertex -15 -15 0
      vertex -15 -6.10105 1.29682
    endloop
  endfacet
  facet normal -1 0 0
    outer loop
      vertex -15 -15 0
      vertex -15 -3.11868 0.327785
      vertex -15 0 0
    endloop
  endfacet
  facet normal -1 0 0
    outer loop
      vertex -15 15 0
      vertex -15 14.9178 13.4321
      vertex -15 15 30
    endloop
  endfacet
  facet normal -1 0 0
    outer loop
      vertex -15 15 0
      vertex -15 14.2658 10.3647
      vertex -15 14.9178 13.4321
    endloop
  endfacet
  facet normal -1 0 0
    outer loop
      vertex -15 15 0
      vertex -15 13.3624 8.33555
      vertex -15 14.2658 10.3647
    endloop
  endfacet
  facet normal -1 0 0
    outer loop
      vertex -15 15 0
      vertex -15 12.9904 7.5
      vertex -15 13.3624 8.33555
    endloop
  endfacet
  facet normal -1 0 0
    outer loop
      vertex -15 15 0
      vertex -15 12.4528 6.76005
      vertex -15 12.9904 7.5
    endloop
  endfacet
  facet normal -1 0 0
    outer loop
      vertex -15 15 0
      vertex -15 11.1472 4.96304
      vertex -15 12.4528 6.76005
    endloop
  endfacet
  facet normal -1 0 0
    outer loop
      vertex -15 15 0
      vertex -15 8.81678 2.86474
      vertex -15 11.1472 4.96304
    endloop
  endfacet
  facet normal -1 0 0
    outer loop
      vertex -15 15 0
      vertex -15 6.10105 1.29682
      vertex -15 8.81678 2.86474
    endloop
  endfacet
  facet normal -1 0 0
    outer loop
      vertex -15 15 0
      vertex -15 3.11868 0.327785
      vertex -15 6.10105 1.29682
    endloop
  endfacet
  facet normal -1 0 -0
    outer loop
      vertex -15 3.11868 0.327785
      vertex -15 15 0
      vertex -15 0 0
    endloop
  endfacet
  facet normal -1 0 0
    outer loop
      vertex -15 14.9178 16.5679
      vertex -15 15 30
      vertex -15 14.9178 13.4321
    endloop
  endfacet
  facet normal -1 0 0
    outer loop
      vertex -15 14.2658 19.6353
      vertex -15 15 30
      vertex -15 14.9178 16.5679
    endloop
  endfacet
  facet normal -1 0 0
    outer loop
      vertex -15 13.8938 20.4708
      vertex -15 15 30
      vertex -15 14.2658 19.6353
    endloop
  endfacet
  facet normal -1 0 0
    outer loop
      vertex -15 12.9904 22.5
      vertex -15 15 30
      vertex -15 13.8938 20.4708
    endloop
  endfacet
  facet normal -1 0 0
    outer loop
      vertex -15 11.6848 24.297
      vertex -15 15 30
      vertex -15 12.9904 22.5
    endloop
  endfacet
  facet normal -1 0 0
    outer loop
      vertex -15 11.1472 25.037
      vertex -15 15 30
      vertex -15 11.6848 24.297
    endloop
  endfacet
  facet normal -1 0 0
    outer loop
      vertex -15 8.81678 27.1353
      vertex -15 15 30
      vertex -15 11.1472 25.037
    endloop
  endfacet
  facet normal -1 0 0
    outer loop
      vertex -15 6.10105 28.7032
      vertex -15 15 30
      vertex -15 8.81678 27.1353
    endloop
  endfacet
  facet normal -1 0 0
    outer loop
      vertex -15 3.11868 29.6722
      vertex -15 15 30
      vertex -15 6.10105 28.7032
    endloop
  endfacet
  facet normal -1 0 0
    outer loop
      vertex -15 2.20906 29.7678
      vertex -15 15 30
      vertex -15 3.11868 29.6722
    endloop
  endfacet
  facet normal -1 -0 0
    outer loop
      vertex -15 15 30
      vertex -15 2.20906 29.7678
      vertex -15 0 30
    endloop
  endfacet
  facet normal -1 0 0
    outer loop
      vertex -15 -15 30
      vertex -15 -2.20906 29.7678
      vertex -15 -3.11868 29.6722
    endloop
  endfacet
  facet normal -1 0 0
    outer loop
      vertex -15 -2.20906 29.7678
      vertex -15 -15 30
      vertex -15 0 30
    endloop
  endfacet
  facet normal -1 0 0
    outer loop
      vertex -15 -6.10105 28.7032
      vertex -15 -15 30
      vertex -15 -3.11868 29.6722
    endloop
  endfacet
  facet normal -1 0 0
    outer loop
      vertex -15 -8.81678 27.1353
      vertex -15 -15 30
      vertex -15 -6.10105 28.7032
    endloop
  endfacet
  facet normal -1 0 0
    outer loop
      vertex -15 -11.1472 25.037
      vertex -15 -15 30
      vertex -15 -8.81678 27.1353
    endloop
  endfacet
  facet normal -1 0 0
    outer loop
      vertex -15 -12.9904 22.5
      vertex -15 -15 30
      vertex -15 -11.1472 25.037
    endloop
  endfacet
  facet normal -1 0 0
    outer loop
      vertex -15 -14.2658 19.6353
      vertex -15 -15 30
      vertex -15 -12.9904 22.5
    endloop
  endfacet
  facet normal -1 0 0
    outer loop
      vertex -15 -14.9178 16.5679
      vertex -15 -15 30
      vertex -15 -14.2658 19.6353
    endloop
  endfacet
  facet normal -1 0 0
    outer loop
      vertex -15 -15 30
      vertex -15 -14.9178 16.5679
      vertex -15 -15 0
    endloop
  endfacet
  facet normal -0 0 0
    outer loop
      vertex -15 0 30
      vertex -15 -15 30
      vertex -15 15 30
    endloop
  endfacet
  facet normal 0 0 1
    outer loop
      vertex 15 15 30
      vertex 5 0 30
      vertex 15 -15 30
    endloop
  endfacet
  facet normal 0 0 1
    outer loop
      vertex 15 15 30
      vertex 4.6194 1.91342 30
      vertex 5 0 30
    endloop
  endfacet
  facet normal 0 0 1
    outer loop
      vertex 15 15 30
      vertex 3.53553 3.53553 30
      vertex 4.6194 1.91342 30
    endloop
  endfacet
  facet normal 0 0 1
    outer loop
      vertex 15 15 30
      vertex 1.91342 4.6194 30
      vertex 3.53553 3.53553 30
    endloop
  endfacet
  facet normal 0 0 1
    outer loop
      vertex 15 15 30
      vertex 0 5 30
      vertex 1.91342 4.6194 30
    endloop
  endfacet
  facet normal -0 0 1
    outer loop
      vertex -15 15 30
      vertex 0 5 30
      vertex 15 15 30
    endloop
  endfacet
  facet normal 0 0 1
    outer loop
      vertex -4.6194 1.91342 30
      vertex -15 15 30
      vertex -5 0 30
    endloop
  endfacet
  facet normal 0 0 1
    outer loop
      vertex -3.53553 3.53553 30
      vertex -15 15 30
      vertex -4.6194 1.91342 30
    endloop
  endfacet
  facet normal 0 0 1
    outer loop
      vertex -1.91342 4.6194 30
      vertex -15 15 30
      vertex -3.53553 3.53553 30
    endloop
  endfacet
  facet normal 0 0 1
    outer loop
      vertex 0 5 30
      vertex -15 15 30
      vertex -1.91342 4.6194 30
    endloop
  endfacet
  facet normal -0 0 1
    outer loop
      vertex 4.6194 -1.91342 30
      vertex 15 -15 30
      vertex 5 0 30
    endloop
  endfacet
  facet normal -0 0 1
    outer loop
      vertex 3.53553 -3.53553 30
      vertex 15 -15 30
      vertex 4.6194 -1.91342 30
    endloop
  endfacet
  facet normal -0 0 1
    outer loop
      vertex 1.91342 -4.6194 30
      vertex 15 -15 30
      vertex 3.53553 -3.53553 30
    endloop
  endfacet
  facet normal -0 0 1
    outer loop
      vertex 0 -5 30
      vertex 15 -15 30
      vertex 1.91342 -4.6194 30
    endloop
  endfacet
  facet normal 0 0 1
    outer loop
      vertex -15 -15 30
      vertex 0 -5 30
      vertex -1.91342 -4.6194 30
    endloop
  endfacet
  facet normal 0 0 1
    outer loop
      vertex -15 -15 30
      vertex -5 0 30
      vertex -15 15 30
    endloop
  endfacet
  facet normal 0 0 1
    outer loop
      vertex 0 -5 30
      vertex -15 -15 30
      vertex 15 -15 30
    endloop
  endfacet
  facet normal 0 0 1
    outer loop
      vertex -3.53553 -3.53553 30
      vertex -15 -15 30
      vertex -1.91342 -4.6194 30
    endloop
  endfacet
  facet normal 0 0 1
    outer loop
      vertex -4.6194 -1.91342 30
      vertex -15 -15 30
      vertex -3.53553 -3.53553 30
    endloop
  endfacet
  facet normal 0 0 1
    outer loop
      vertex -5 0 30
      vertex -15 -15 30
      vertex -4.6194 -1.91342 30
    endloop
  endfacet
  facet normal 1 0 0
    outer loop
      vertex 15 -14.9178 16.5679
      vertex 15 -15 30
      vertex 15 -14.9178 13.4321
    endloop
  endfacet
  facet normal 1 0 0
    outer loop
      vertex 15 -14.2658 19.6353
      vertex 15 -15 30
      vertex 15 -14.9178 16.5679
    endloop
  endfacet
  facet normal 1 0 0
    outer loop
      vertex 15 -12.9904 22.5
      vertex 15 -15 30
      vertex 15 -14.2658 19.6353
    endloop
  endfacet
  facet normal 1 0 0
    outer loop
      vertex 15 -11.1472 25.037
      vertex 15 -15 30
      vertex 15 -12.9904 22.5
    endloop
  endfacet
  facet normal 1 0 0
    outer loop
      vertex 15 -8.81678 27.1353
      vertex 15 -15 30
      vertex 15 -11.1472 25.037
    endloop
  endfacet
  facet normal 1 0 0
    outer loop
      vertex 15 -6.10105 28.7032
      vertex 15 -15 30
      vertex 15 -8.81678 27.1353
    endloop
  endfacet
  facet normal 1 0 0
    outer loop
      vertex 15 -3.11868 29.6722
      vertex 15 -15 30
      vertex 15 -6.10105 28.7032
    endloop
  endfacet
  facet normal 1 0 0
    outer loop
      vertex 15 -0.909614 29.9044
      vertex 15 -15 30
      vertex 15 -3.11868 29.6722
    endloop
  endfacet
  facet normal 1 -0 0
    outer loop
      vertex 15 -15 30
      vertex 15 -0.909614 29.9044
      vertex 15 0 30
    endloop
  endfacet
  facet normal 1 0 0
    outer loop
      vertex 15 15 30
      vertex 15 14.9178 16.5679
      vertex 15 15 0
    endloop
  endfacet
  facet normal 1 0 0
    outer loop
      vertex 15 15 30
      vertex 15 14.2658 19.6353
      vertex 15 14.9178 16.5679
    endloop
  endfacet
  facet normal 1 0 0
    outer loop
      vertex 15 15 30
      vertex 15 13.3624 21.6644
      vertex 15 14.2658 19.6353
    endloop
  endfacet
  facet normal 1 0 0
    outer loop
      vertex 15 15 30
      vertex 15 12.9904 22.5
      vertex 15 13.3624 21.6644
    endloop
  endfacet
  facet normal 1 0 0
    outer loop
      vertex 15 15 30
      vertex 15 12.4528 23.2399
      vertex 15 12.9904 22.5
    endloop
  endfacet
  facet normal 1 0 0
    outer loop
      vertex 15 15 30
      vertex 15 11.1472 25.037
      vertex 15 12.4528 23.2399
    endloop
  endfacet
  facet normal 1 0 0
    outer loop
      vertex 15 15 30
      vertex 15 8.81678 27.1353
      vertex 15 11.1472 25.037
    endloop
  endfacet
  facet normal 1 0 0
    outer loop
      vertex 15 15 30
      vertex 15 6.10105 28.7032
      vertex 15 8.81678 27.1353
    endloop
  endfacet
  facet normal 1 0 0
    outer loop
      vertex 15 15 30
      vertex 15 3.11868 29.6722
      vertex 15 6.10105 28.7032
    endloop
  endfacet
  facet normal 1 0 0
    outer loop
      vertex 15 15 30
      vertex 15 0.909614 29.9044
      vertex 15 3.11868 29.6722
    endloop
  endfacet
  facet normal 1 0 -0
    outer loop
      vertex 15 0.909614 29.9044
      vertex 15 15 30
      vertex 15 0 30
    endloop
  endfacet
  facet normal 1 -0 0
    outer loop
      vertex 15 14.9178 13.4321
      vertex 15 15 0
      vertex 15 14.9178 16.5679
    endloop
  endfacet
  facet normal 1 -0 0
    outer loop
      vertex 15 14.2658 10.3647
      vertex 15 15 0
      vertex 15 14.9178 13.4321
    endloop
  endfacet
  facet normal 1 -0 0
    outer loop
      vertex 15 13.8938 9.52919
      vertex 15 15 0
      vertex 15 14.2658 10.3647
    endloop
  endfacet
  facet normal 1 -0 0
    outer loop
      vertex 15 12.9904 7.5
      vertex 15 15 0
      vertex 15 13.8938 9.52919
    endloop
  endfacet
  facet normal 1 -0 0
    outer loop
      vertex 15 11.6848 5.70299
      vertex 15 15 0
      vertex 15 12.9904 7.5
    endloop
  endfacet
  facet normal 1 -0 0
    outer loop
      vertex 15 11.1472 4.96304
      vertex 15 15 0
      vertex 15 11.6848 5.70299
    endloop
  endfacet
  facet normal 1 -0 0
    outer loop
      vertex 15 8.81678 2.86474
      vertex 15 15 0
      vertex 15 11.1472 4.96304
    endloop
  endfacet
  facet normal 1 -0 0
    outer loop
      vertex 15 6.10105 1.29682
      vertex 15 15 0
      vertex 15 8.81678 2.86474
    endloop
  endfacet
  facet normal 1 -0 0
    outer loop
      vertex 15 3.11868 0.327785
      vertex 15 15 0
      vertex 15 6.10105 1.29682
    endloop
  endfacet
  facet normal 1 0 0
    outer loop
      vertex 15 15 0
      vertex 15 3.11868 0.327785
      vertex 15 0 0
    endloop
  endfacet
  facet normal 1 0 0
    outer loop
      vertex 15 -15 0
      vertex 15 -13.8938 9.52919
      vertex 15 -14.2658 10.3647
    endloop
  endfacet
  facet normal 1 0 0
    outer loop
      vertex 15 -3.11868 0.327785
      vertex 15 -15 0
      vertex 15 0 0
    endloop
  endfacet
  facet normal 1 0 0
    outer loop
      vertex 15 -6.10105 1.29682
      vertex 15 -15 0
      vertex 15 -3.11868 0.327785
    endloop
  endfacet
  facet normal 1 0 0
    outer loop
      vertex 15 -8.81678 2.86474
      vertex 15 -15 0
      vertex 15 -6.10105 1.29682
    endloop
  endfacet
  facet normal 1 0 0
    outer loop
      vertex 15 -11.1472 4.96304
      vertex 15 -15 0
      vertex 15 -8.81678 2.86474
    endloop
  endfacet
  facet normal 1 0 0
    outer loop
      vertex 15 -11.6848 5.70299
      vertex 15 -15 0
      vertex 15 -11.1472 4.96304
    endloop
  endfacet
  facet normal 1 0 0
    outer loop
      vertex 15 -12.9904 7.5
      vertex 15 -15 0
      vertex 15 -11.6848 5.70299
    endloop
  endfacet
  facet normal 1 0 0
    outer loop
      vertex 15 -13.8938 9.52919
      vertex 15 -15 0
      vertex 15 -12.9904 7.5
    endloop
  endfacet
  facet normal 1 0 0
    outer loop
      vertex 15 -14.9178 13.4321
      vertex 15 -15 0
      vertex 15 -14.2658 10.3647
    endloop
  endfacet
  facet normal 1 0 0
    outer loop
      vertex 15 -15 0
      vertex 15 -14.9178 13.4321
      vertex 15 -15 30
    endloop
  endfacet
  facet normal 0 0 -0
    outer loop
      vertex 15 0 30
      vertex 15 15 30
      vertex 15 -15 30
    endloop
  endfacet
  facet normal 0 1 -0
    outer loop
      vertex 15 15 0
      vertex -15 15 30
      vertex 15 15 30
    endloop
  endfacet
  facet normal 0 1 0
    outer loop
      vertex -15 15 30
      vertex 15 15 0
      vertex -15 15 0
    endloop
  endfacet
  facet normal 0 0 -1
    outer loop
      vertex 3.53553 -3.53553 0
      vertex 15 0 0
      vertex 15 -15 0
    endloop
  endfacet
  facet normal 0 0 -1
    outer loop
      vertex 4.6194 1.91342 0
      vertex 15 0 0
      vertex 5 0 0
    endloop
  endfacet
  facet normal -0 0 -1
    outer loop
      vertex 15 0 0
      vertex 4.6194 -1.91342 0
      vertex 5 0 0
    endloop
  endfacet
  facet normal 0 0 -1
    outer loop
      vertex 15 0 0
      vertex 3.53553 -3.53553 0
      vertex 4.6194 -1.91342 0
    endloop
  endfacet
  facet normal 0 0 -1
    outer loop
      vertex 15 -15 0
      vertex 1.91342 -4.6194 0
      vertex 3.53553 -3.53553 0
    endloop
  endfacet
  facet normal 0 0 -1
    outer loop
      vertex 15 -15 0
      vertex 0 -5 0
      vertex 1.91342 -4.6194 0
    endloop
  endfacet
  facet normal 0 0 -1
    outer loop
      vertex -15 -15 0
      vertex 0 -5 0
      vertex 15 -15 0
    endloop
  endfacet
  facet normal 0 0 -1
    outer loop
      vertex -3.53553 -3.53553 0
      vertex -15 0 0
      vertex -4.6194 -1.91342 0
    endloop
  endfacet
  facet normal 0 0 -1
    outer loop
      vertex -15 0 0
      vertex -3.53553 -3.53553 0
      vertex -15 -15 0
    endloop
  endfacet
  facet normal -0 0 -1
    outer loop
      vertex -1.91342 -4.6194 0
      vertex -15 -15 0
      vertex -3.53553 -3.53553 0
    endloop
  endfacet
  facet normal -0 0 -1
    outer loop
      vertex 0 -5 0
      vertex -15 -15 0
      vertex -1.91342 -4.6194 0
    endloop
  endfacet
  facet normal 0 0 -1
    outer loop
      vertex 3.53553 3.53553 0
      vertex 15 0 0
      vertex 4.6194 1.91342 0
    endloop
  endfacet
  facet normal 0 0 -1
    outer loop
      vertex 15 0 0
      vertex 3.53553 3.53553 0
      vertex 15 15 0
    endloop
  endfacet
  facet normal 0 0 -1
    outer loop
      vertex 1.91342 4.6194 0
      vertex 15 15 0
      vertex 3.53553 3.53553 0
    endloop
  endfacet
  facet normal 0 0 -1
    outer loop
      vertex 0 5 0
      vertex 15 15 0
      vertex 1.91342 4.6194 0
    endloop
  endfacet
  facet normal 0 0 -1
    outer loop
      vertex -15 15 0
      vertex 0 5 0
      vertex -1.91342 4.6194 0
    endloop
  endfacet
  facet normal 0 0 -1
    outer loop
      vertex -4.6194 -1.91342 0
      vertex -15 0 0
      vertex -5 0 0
    endloop
  endfacet
  facet normal 0 0 -1
    outer loop
      vertex -5 0 0
      vertex -15 0 0
      vertex -4.6194 1.91342 0
    endloop
  endfacet
  facet normal 0 0 -1
    outer loop
      vertex -15 0 0
      vertex -3.53553 3.53553 0
      vertex -4.6194 1.91342 0
    endloop
  endfacet
  facet normal 0 0 -1
    outer loop
      vertex -15 15 0
      vertex -3.53553 3.53553 0
      vertex -15 0 0
    endloop
  endfacet
  facet normal 0 0 -1
    outer loop
      vertex -3.53553 3.53553 0
      vertex -15 15 0
      vertex -1.91342 4.6194 0
    endloop
  endfacet
  facet normal 0 0 -1
    outer loop
      vertex 0 5 0
      vertex -15 15 0
      vertex 15 15 0
    endloop
  endfacet
  facet normal 0 -1 0
    outer loop
      vertex -15 -15 0
      vertex 15 -15 30
      vertex -15 -15 30
    endloop
  endfacet
  facet normal 0 -1 -0
    outer loop
      vertex 15 -15 30
      vertex -15 -15 0
      vertex 15 -15 0
    endloop
  endfacet
  facet normal 0 0.104528 -0.994522
    outer loop
      vertex -36 0 0
      vertex -15 3.11868 0.327785
      vertex -15 0 0
    endloop
  endfacet
  facet normal 0 0.104528 -0.994522
    outer loop
      vertex -15 3.11868 0.327785
      vertex -36 0 0
      vertex -36 3.11868 0.327785
    endloop
  endfacet
  facet normal 0 0.104528 -0.994522
    outer loop
      vertex 15 0 0
      vertex 36 3.11868 0.327785
      vertex 36 0 0
    endloop
  endfacet
  facet normal 0 0.104528 -0.994522
    outer loop
      vertex 36 3.11868 0.327785
      vertex 15 0 0
      vertex 15 3.11868 0.327785
    endloop
  endfacet
  facet normal 0 1 -0
    outer loop
      vertex -15 14.9178 13.4321
      vertex -36 14.9178 16.5679
      vertex -15 14.9178 16.5679
    endloop
  endfacet
  facet normal 0 1 0
    outer loop
      vertex -36 14.9178 16.5679
      vertex -15 14.9178 13.4321
      vertex -36 14.9178 13.4321
    endloop
  endfacet
  facet normal 0 1 -0
    outer loop
      vertex 36 14.9178 13.4321
      vertex 15 14.9178 16.5679
      vertex 36 14.9178 16.5679
    endloop
  endfacet
  facet normal 0 1 0
    outer loop
      vertex 15 14.9178 16.5679
      vertex 36 14.9178 13.4321
      vertex 15 14.9178 13.4321
    endloop
  endfacet
  facet normal 0 0.913545 0.406737
    outer loop
      vertex -15 13.8938 20.4708
      vertex -36 12.9904 22.5
      vertex -15 12.9904 22.5
    endloop
  endfacet
  facet normal -2.46282e-08 0.913545 0.406737
    outer loop
      vertex -36 12.9904 22.5
      vertex -15 13.8938 20.4708
      vertex -36 14.2658 19.6353
    endloop
  endfacet
  facet normal 0 0.913545 0.406737
    outer loop
      vertex 15 13.3624 21.6644
      vertex 15 12.9904 22.5
      vertex 36 12.9904 22.5
    endloop
  endfacet
  facet normal 0 -0.104528 0.994522
    outer loop
      vertex 15 0 30
      vertex 15 -0.909614 29.9044
      vertex 36 0 30
    endloop
  endfacet
  facet normal 0 -0.104528 0.994522
    outer loop
      vertex -36 0 30
      vertex -15 -2.20906 29.7678
      vertex -15 0 30
    endloop
  endfacet
  facet normal 7.52738e-09 -0.104528 0.994522
    outer loop
      vertex -15 -2.20906 29.7678
      vertex -36 0 30
      vertex -36 -3.11868 29.6722
    endloop
  endfacet
  facet normal 9.23559e-09 0.913545 -0.406737
    outer loop
      vertex -15 12.9904 7.5
      vertex -36 12.9904 7.5
      vertex -15 13.3624 8.33555
    endloop
  endfacet
  facet normal -1.53926e-09 0.913545 -0.406737
    outer loop
      vertex 36 12.9904 7.5
      vertex 15 13.8938 9.52919
      vertex 36 14.2658 10.3647
    endloop
  endfacet
  facet normal 9.23558e-09 0.913545 -0.406737
    outer loop
      vertex 15 13.8938 9.52919
      vertex 36 12.9904 7.5
      vertex 15 12.9904 7.5
    endloop
  endfacet
  facet normal 0 0.809017 -0.587785
    outer loop
      vertex -36 11.1472 4.96304
      vertex -15 12.4528 6.76005
      vertex -15 11.1472 4.96304
    endloop
  endfacet
  facet normal -2.22443e-09 0.809017 -0.587785
    outer loop
      vertex -15 12.4528 6.76005
      vertex -36 11.1472 4.96304
      vertex -36 12.9904 7.5
    endloop
  endfacet
  facet normal 0 0.809017 -0.587785
    outer loop
      vertex 36 11.1472 4.96304
      vertex 15 11.1472 4.96304
      vertex 15 11.6848 5.70299
    endloop
  endfacet
  facet normal -1 0 0
    outer loop
      vertex -36 14.2658 10.3647
      vertex -36 14.9178 16.5679
      vertex -36 14.9178 13.4321
    endloop
  endfacet
  facet normal -1 0 0
    outer loop
      vertex -36 14.2658 10.3647
      vertex -36 14.2658 19.6353
      vertex -36 14.9178 16.5679
    endloop
  endfacet
  facet normal -1 0 0
    outer loop
      vertex -36 12.9904 7.5
      vertex -36 14.2658 19.6353
      vertex -36 14.2658 10.3647
    endloop
  endfacet
  facet normal -1 0 0
    outer loop
      vertex -36 12.9904 7.5
      vertex -36 12.9904 22.5
      vertex -36 14.2658 19.6353
    endloop
  endfacet
  facet normal -1 0 0
    outer loop
      vertex -36 11.1472 4.96304
      vertex -36 12.9904 22.5
      vertex -36 12.9904 7.5
    endloop
  endfacet
  facet normal -1 0 0
    outer loop
      vertex -36 11.1472 4.96304
      vertex -36 11.1472 25.037
      vertex -36 12.9904 22.5
    endloop
  endfacet
  facet normal -1 0 0
    outer loop
      vertex -36 8.81678 2.86474
      vertex -36 11.1472 25.037
      vertex -36 11.1472 4.96304
    endloop
  endfacet
  facet normal -1 0 0
    outer loop
      vertex -36 8.81678 2.86474
      vertex -36 8.81678 27.1353
      vertex -36 11.1472 25.037
    endloop
  endfacet
  facet normal -1 0 0
    outer loop
      vertex -36 6.10105 1.29682
      vertex -36 8.81678 27.1353
      vertex -36 8.81678 2.86474
    endloop
  endfacet
  facet normal -1 0 0
    outer loop
      vertex -36 6.10105 1.29682
      vertex -36 6.10105 28.7032
      vertex -36 8.81678 27.1353
    endloop
  endfacet
  facet normal -1 0 0
    outer loop
      vertex -36 3.11868 0.327785
      vertex -36 6.10105 28.7032
      vertex -36 6.10105 1.29682
    endloop
  endfacet
  facet normal -1 0 0
    outer loop
      vertex -36 3.11868 0.327785
      vertex -36 3.11868 29.6722
      vertex -36 6.10105 28.7032
    endloop
  endfacet
  facet normal -1 0 0
    outer loop
      vertex -36 0 0
      vertex -36 3.11868 29.6722
      vertex -36 3.11868 0.327785
    endloop
  endfacet
  facet normal -1 0 0
    outer loop
      vertex -36 0 0
      vertex -36 0 30
      vertex -36 3.11868 29.6722
    endloop
  endfacet
  facet normal -1 0 0
    outer loop
      vertex -36 -3.11868 0.327785
      vertex -36 0 30
      vertex -36 0 0
    endloop
  endfacet
  facet normal -1 0 0
    outer loop
      vertex -36 -3.11868 0.327785
      vertex -36 -3.11868 29.6722
      vertex -36 0 30
    endloop
  endfacet
  facet normal -1 0 0
    outer loop
      vertex -36 -6.10105 1.29682
      vertex -36 -3.11868 29.6722
      vertex -36 -3.11868 0.327785
    endloop
  endfacet
  facet normal -1 0 0
    outer loop
      vertex -36 -6.10105 1.29682
      vertex -36 -6.10105 28.7032
      vertex -36 -3.11868 29.6722
    endloop
  endfacet
  facet normal -1 0 0
    outer loop
      vertex -36 -8.81678 2.86474
      vertex -36 -6.10105 28.7032
      vertex -36 -6.10105 1.29682
    endloop
  endfacet
  facet normal -1 0 0
    outer loop
      vertex -36 -8.81678 2.86474
      vertex -36 -8.81678 27.1353
      vertex -36 -6.10105 28.7032
    endloop
  endfacet
  facet normal -1 0 0
    outer loop
      vertex -36 -11.1472 4.96304
      vertex -36 -8.81678 27.1353
      vertex -36 -8.81678 2.86474
    endloop
  endfacet
  facet normal -1 0 0
    outer loop
      vertex -36 -11.1472 4.96304
      vertex -36 -11.1472 25.037
      vertex -36 -8.81678 27.1353
    endloop
  endfacet
  facet normal -1 0 0
    outer loop
      vertex -36 -12.9904 7.5
      vertex -36 -11.1472 25.037
      vertex -36 -11.1472 4.96304
    endloop
  endfacet
  facet normal -1 0 0
    outer loop
      vertex -36 -12.9904 7.5
      vertex -36 -12.9904 22.5
      vertex -36 -11.1472 25.037
    endloop
  endfacet
  facet normal -1 0 0
    outer loop
      vertex -36 -14.2658 10.3647
      vertex -36 -12.9904 22.5
      vertex -36 -12.9904 7.5
    endloop
  endfacet
  facet normal -1 0 0
    outer loop
      vertex -36 -14.2658 10.3647
      vertex -36 -14.2658 19.6353
      vertex -36 -12.9904 22.5
    endloop
  endfacet
  facet normal -1 0 0
    outer loop
      vertex -36 -14.9178 13.4321
      vertex -36 -14.2658 19.6353
      vertex -36 -14.2658 10.3647
    endloop
  endfacet
  facet normal -1 0 0
    outer loop
      vertex -36 -14.2658 19.6353
      vertex -36 -14.9178 13.4321
      vertex -36 -14.9178 16.5679
    endloop
  endfacet
  facet normal 0 0.913545 -0.406737
    outer loop
      vertex -15 13.3624 8.33555
      vertex -36 14.2658 10.3647
      vertex -15 14.2658 10.3647
    endloop
  endfacet
  facet normal -6.92668e-09 0.913545 -0.406737
    outer loop
      vertex -36 14.2658 10.3647
      vertex -15 13.3624 8.33555
      vertex -36 12.9904 7.5
    endloop
  endfacet
  facet normal 0 0.913545 -0.406737
    outer loop
      vertex 36 14.2658 10.3647
      vertex 15 13.8938 9.52919
      vertex 15 14.2658 10.3647
    endloop
  endfacet
  facet normal 0 0.978148 -0.207912
    outer loop
      vertex -15 14.2658 10.3647
      vertex -36 14.9178 13.4321
      vertex -15 14.9178 13.4321
    endloop
  endfacet
  facet normal 0 0.978148 -0.207912
    outer loop
      vertex -36 14.9178 13.4321
      vertex -15 14.2658 10.3647
      vertex -36 14.2658 10.3647
    endloop
  endfacet
  facet normal 0 0.978148 -0.207912
    outer loop
      vertex 36 14.2658 10.3647
      vertex 15 14.9178 13.4321
      vertex 36 14.9178 13.4321
    endloop
  endfacet
  facet normal 0 0.978148 -0.207912
    outer loop
      vertex 15 14.9178 13.4321
      vertex 36 14.2658 10.3647
      vertex 15 14.2658 10.3647
    endloop
  endfacet
  facet normal 0 -0.104528 -0.994522
    outer loop
      vertex 15 -3.11868 0.327785
      vertex 36 0 0
      vertex 36 -3.11868 0.327785
    endloop
  endfacet
  facet normal -0 -0.104528 -0.994522
    outer loop
      vertex 36 0 0
      vertex 15 -3.11868 0.327785
      vertex 15 0 0
    endloop
  endfacet
  facet normal 0 -0.104528 -0.994522
    outer loop
      vertex -36 -3.11868 0.327785
      vertex -15 0 0
      vertex -15 -3.11868 0.327785
    endloop
  endfacet
  facet normal -0 -0.104528 -0.994522
    outer loop
      vertex -15 0 0
      vertex -36 -3.11868 0.327785
      vertex -36 0 0
    endloop
  endfacet
  facet normal 0 -0.978148 0.207912
    outer loop
      vertex 15 -14.9178 16.5679
      vertex 36 -14.2658 19.6353
      vertex 15 -14.2658 19.6353
    endloop
  endfacet
  facet normal 0 -0.978148 0.207912
    outer loop
      vertex 36 -14.2658 19.6353
      vertex 15 -14.9178 16.5679
      vertex 36 -14.9178 16.5679
    endloop
  endfacet
  facet normal 0 -0.978148 0.207912
    outer loop
      vertex -36 -14.9178 16.5679
      vertex -15 -14.2658 19.6353
      vertex -36 -14.2658 19.6353
    endloop
  endfacet
  facet normal 0 -0.978148 0.207912
    outer loop
      vertex -15 -14.2658 19.6353
      vertex -36 -14.9178 16.5679
      vertex -15 -14.9178 16.5679
    endloop
  endfacet
  facet normal 7.52738e-09 -0.104528 0.994522
    outer loop
      vertex 15 -0.909614 29.9044
      vertex 36 -3.11868 29.6722
      vertex 36 0 30
    endloop
  endfacet
  facet normal 0 -0.104528 0.994522
    outer loop
      vertex 36 -3.11868 29.6722
      vertex 15 -0.909614 29.9044
      vertex 15 -3.11868 29.6722
    endloop
  endfacet
  facet normal 0 -0.104528 0.994522
    outer loop
      vertex -15 -2.20906 29.7678
      vertex -36 -3.11868 29.6722
      vertex -15 -3.11868 29.6722
    endloop
  endfacet
  facet normal 0 -0.809017 0.587785
    outer loop
      vertex 15 -12.9904 22.5
      vertex 36 -11.1472 25.037
      vertex 15 -11.1472 25.037
    endloop
  endfacet
  facet normal 0 -0.809017 0.587785
    outer loop
      vertex 36 -11.1472 25.037
      vertex 15 -12.9904 22.5
      vertex 36 -12.9904 22.5
    endloop
  endfacet
  facet normal 0 -0.809017 0.587785
    outer loop
      vertex -36 -12.9904 22.5
      vertex -15 -11.1472 25.037
      vertex -36 -11.1472 25.037
    endloop
  endfacet
  facet normal 0 -0.809017 0.587785
    outer loop
      vertex -15 -11.1472 25.037
      vertex -36 -12.9904 22.5
      vertex -15 -12.9904 22.5
    endloop
  endfacet
  facet normal 0 -1 0
    outer loop
      vertex 15 -14.9178 13.4321
      vertex 36 -14.9178 16.5679
      vertex 15 -14.9178 16.5679
    endloop
  endfacet
  facet normal 0 -1 -0
    outer loop
      vertex 36 -14.9178 16.5679
      vertex 15 -14.9178 13.4321
      vertex 36 -14.9178 13.4321
    endloop
  endfacet
  facet normal 0 -1 0
    outer loop
      vertex -36 -14.9178 13.4321
      vertex -15 -14.9178 16.5679
      vertex -36 -14.9178 16.5679
    endloop
  endfacet
  facet normal 0 -1 -0
    outer loop
      vertex -15 -14.9178 16.5679
      vertex -36 -14.9178 13.4321
      vertex -15 -14.9178 13.4321
    endloop
  endfacet
  facet normal 0 -0.5 -0.866025
    outer loop
      vertex -36 -8.81678 2.86474
      vertex -15 -6.10105 1.29682
      vertex -15 -8.81678 2.86474
    endloop
  endfacet
  facet normal -0 -0.5 -0.866025
    outer loop
      vertex -15 -6.10105 1.29682
      vertex -36 -8.81678 2.86474
      vertex -36 -6.10105 1.29682
    endloop
  endfacet
  facet normal 0 -0.5 -0.866025
    outer loop
      vertex 15 -8.81678 2.86474
      vertex 36 -6.10105 1.29682
      vertex 36 -8.81678 2.86474
    endloop
  endfacet
  facet normal -0 -0.5 -0.866025
    outer loop
      vertex 36 -6.10105 1.29682
      vertex 15 -8.81678 2.86474
      vertex 15 -6.10105 1.29682
    endloop
  endfacet
  facet normal 0 0.669131 -0.743145
    outer loop
      vertex -36 8.81678 2.86474
      vertex -15 11.1472 4.96304
      vertex -15 8.81678 2.86474
    endloop
  endfacet
  facet normal 0 0.669131 -0.743145
    outer loop
      vertex -15 11.1472 4.96304
      vertex -36 8.81678 2.86474
      vertex -36 11.1472 4.96304
    endloop
  endfacet
  facet normal 0 0.669131 -0.743145
    outer loop
      vertex 15 8.81678 2.86474
      vertex 36 11.1472 4.96304
      vertex 36 8.81678 2.86474
    endloop
  endfacet
  facet normal 0 0.669131 -0.743145
    outer loop
      vertex 36 11.1472 4.96304
      vertex 15 8.81678 2.86474
      vertex 15 11.1472 4.96304
    endloop
  endfacet
  facet normal 0 0.309017 -0.951057
    outer loop
      vertex -36 3.11868 0.327785
      vertex -15 6.10105 1.29682
      vertex -15 3.11868 0.327785
    endloop
  endfacet
  facet normal 0 0.309017 -0.951057
    outer loop
      vertex -15 6.10105 1.29682
      vertex -36 3.11868 0.327785
      vertex -36 6.10105 1.29682
    endloop
  endfacet
  facet normal 0 0.309017 -0.951057
    outer loop
      vertex 15 3.11868 0.327785
      vertex 36 6.10105 1.29682
      vertex 36 3.11868 0.327785
    endloop
  endfacet
  facet normal 0 0.309017 -0.951057
    outer loop
      vertex 36 6.10105 1.29682
      vertex 15 3.11868 0.327785
      vertex 15 6.10105 1.29682
    endloop
  endfacet
  facet normal 1.33466e-08 0.809017 -0.587785
    outer loop
      vertex -15 12.4528 6.76005
      vertex -36 12.9904 7.5
      vertex -15 12.9904 7.5
    endloop
  endfacet
  facet normal 1.33466e-08 0.809017 -0.587785
    outer loop
      vertex 36 12.9904 7.5
      vertex 15 11.6848 5.70299
      vertex 15 12.9904 7.5
    endloop
  endfacet
  facet normal 5.56107e-09 0.809017 -0.587785
    outer loop
      vertex 15 11.6848 5.70299
      vertex 36 12.9904 7.5
      vertex 36 11.1472 4.96304
    endloop
  endfacet
  facet normal 0 -0.309017 0.951057
    outer loop
      vertex -36 -3.11868 29.6722
      vertex -15 -6.10105 28.7032
      vertex -15 -3.11868 29.6722
    endloop
  endfacet
  facet normal 0 -0.309017 0.951057
    outer loop
      vertex -15 -6.10105 28.7032
      vertex -36 -3.11868 29.6722
      vertex -36 -6.10105 28.7032
    endloop
  endfacet
  facet normal 0 -0.309017 0.951057
    outer loop
      vertex 15 -3.11868 29.6722
      vertex 36 -6.10105 28.7032
      vertex 36 -3.11868 29.6722
    endloop
  endfacet
  facet normal 0 -0.309017 0.951057
    outer loop
      vertex 36 -6.10105 28.7032
      vertex 15 -3.11868 29.6722
      vertex 15 -6.10105 28.7032
    endloop
  endfacet
  facet normal 0 -0.5 0.866025
    outer loop
      vertex -36 -6.10105 28.7032
      vertex -15 -8.81678 27.1353
      vertex -15 -6.10105 28.7032
    endloop
  endfacet
  facet normal 0 -0.5 0.866025
    outer loop
      vertex -15 -8.81678 27.1353
      vertex -36 -6.10105 28.7032
      vertex -36 -8.81678 27.1353
    endloop
  endfacet
  facet normal 0 -0.5 0.866025
    outer loop
      vertex 15 -6.10105 28.7032
      vertex 36 -8.81678 27.1353
      vertex 36 -6.10105 28.7032
    endloop
  endfacet
  facet normal 0 -0.5 0.866025
    outer loop
      vertex 36 -8.81678 27.1353
      vertex 15 -6.10105 28.7032
      vertex 15 -8.81678 27.1353
    endloop
  endfacet
  facet normal 0 -0.978148 -0.207912
    outer loop
      vertex -36 -14.2658 10.3647
      vertex -15 -14.9178 13.4321
      vertex -36 -14.9178 13.4321
    endloop
  endfacet
  facet normal 0 -0.978148 -0.207912
    outer loop
      vertex -15 -14.9178 13.4321
      vertex -36 -14.2658 10.3647
      vertex -15 -14.2658 10.3647
    endloop
  endfacet
  facet normal 0 -0.978148 -0.207912
    outer loop
      vertex 15 -14.2658 10.3647
      vertex 36 -14.9178 13.4321
      vertex 15 -14.9178 13.4321
    endloop
  endfacet
  facet normal 0 -0.978148 -0.207912
    outer loop
      vertex 36 -14.9178 13.4321
      vertex 15 -14.2658 10.3647
      vertex 36 -14.2658 10.3647
    endloop
  endfacet
  facet normal 1 0 0
    outer loop
      vertex 36 14.2658 19.6353
      vertex 36 14.9178 13.4321
      vertex 36 14.9178 16.5679
    endloop
  endfacet
  facet normal 1 0 0
    outer loop
      vertex 36 14.2658 19.6353
      vertex 36 14.2658 10.3647
      vertex 36 14.9178 13.4321
    endloop
  endfacet
  facet normal 1 0 0
    outer loop
      vertex 36 12.9904 22.5
      vertex 36 14.2658 10.3647
      vertex 36 14.2658 19.6353
    endloop
  endfacet
  facet normal 1 0 0
    outer loop
      vertex 36 12.9904 22.5
      vertex 36 12.9904 7.5
      vertex 36 14.2658 10.3647
    endloop
  endfacet
  facet normal 1 0 0
    outer loop
      vertex 36 11.1472 25.037
      vertex 36 12.9904 7.5
      vertex 36 12.9904 22.5
    endloop
  endfacet
  facet normal 1 0 0
    outer loop
      vertex 36 11.1472 25.037
      vertex 36 11.1472 4.96304
      vertex 36 12.9904 7.5
    endloop
  endfacet
  facet normal 1 0 0
    outer loop
      vertex 36 8.81678 27.1353
      vertex 36 11.1472 4.96304
      vertex 36 11.1472 25.037
    endloop
  endfacet
  facet normal 1 0 0
    outer loop
      vertex 36 8.81678 27.1353
      vertex 36 8.81678 2.86474
      vertex 36 11.1472 4.96304
    endloop
  endfacet
  facet normal 1 0 0
    outer loop
      vertex 36 6.10105 28.7032
      vertex 36 8.81678 2.86474
      vertex 36 8.81678 27.1353
    endloop
  endfacet
  facet normal 1 0 0
    outer loop
      vertex 36 6.10105 28.7032
      vertex 36 6.10105 1.29682
      vertex 36 8.81678 2.86474
    endloop
  endfacet
  facet normal 1 0 0
    outer loop
      vertex 36 3.11868 29.6722
      vertex 36 6.10105 1.29682
      vertex 36 6.10105 28.7032
    endloop
  endfacet
  facet normal 1 0 0
    outer loop
      vertex 36 3.11868 29.6722
      vertex 36 3.11868 0.327785
      vertex 36 6.10105 1.29682
    endloop
  endfacet
  facet normal 1 0 0
    outer loop
      vertex 36 0 30
      vertex 36 3.11868 0.327785
      vertex 36 3.11868 29.6722
    endloop
  endfacet
  facet normal 1 0 0
    outer loop
      vertex 36 0 30
      vertex 36 0 0
      vertex 36 3.11868 0.327785
    endloop
  endfacet
  facet normal 1 -0 0
    outer loop
      vertex 36 -3.11868 29.6722
      vertex 36 0 0
      vertex 36 0 30
    endloop
  endfacet
  facet normal 1 0 0
    outer loop
      vertex 36 -3.11868 29.6722
      vertex 36 -3.11868 0.327785
      vertex 36 0 0
    endloop
  endfacet
  facet normal 1 -0 0
    outer loop
      vertex 36 -6.10105 28.7032
      vertex 36 -3.11868 0.327785
      vertex 36 -3.11868 29.6722
    endloop
  endfacet
  facet normal 1 0 0
    outer loop
      vertex 36 -6.10105 28.7032
      vertex 36 -6.10105 1.29682
      vertex 36 -3.11868 0.327785
    endloop
  endfacet
  facet normal 1 -0 0
    outer loop
      vertex 36 -8.81678 27.1353
      vertex 36 -6.10105 1.29682
      vertex 36 -6.10105 28.7032
    endloop
  endfacet
  facet normal 1 0 0
    outer loop
      vertex 36 -8.81678 27.1353
      vertex 36 -8.81678 2.86474
      vertex 36 -6.10105 1.29682
    endloop
  endfacet
  facet normal 1 -0 0
    outer loop
      vertex 36 -11.1472 25.037
      vertex 36 -8.81678 2.86474
      vertex 36 -8.81678 27.1353
    endloop
  endfacet
  facet normal 1 0 0
    outer loop
      vertex 36 -11.1472 25.037
      vertex 36 -11.1472 4.96304
      vertex 36 -8.81678 2.86474
    endloop
  endfacet
  facet normal 1 -0 0
    outer loop
      vertex 36 -12.9904 22.5
      vertex 36 -11.1472 4.96304
      vertex 36 -11.1472 25.037
    endloop
  endfacet
  facet normal 1 0 0
    outer loop
      vertex 36 -12.9904 22.5
      vertex 36 -12.9904 7.5
      vertex 36 -11.1472 4.96304
    endloop
  endfacet
  facet normal 1 -0 0
    outer loop
      vertex 36 -14.2658 19.6353
      vertex 36 -12.9904 7.5
      vertex 36 -12.9904 22.5
    endloop
  endfacet
  facet normal 1 0 0
    outer loop
      vertex 36 -14.2658 19.6353
      vertex 36 -14.2658 10.3647
      vertex 36 -12.9904 7.5
    endloop
  endfacet
  facet normal 1 -0 0
    outer loop
      vertex 36 -14.9178 16.5679
      vertex 36 -14.2658 10.3647
      vertex 36 -14.2658 19.6353
    endloop
  endfacet
  facet normal 1 0 0
    outer loop
      vertex 36 -14.2658 10.3647
      vertex 36 -14.9178 16.5679
      vertex 36 -14.9178 13.4321
    endloop
  endfacet
  facet normal -2.22443e-09 -0.809017 -0.587785
    outer loop
      vertex -36 -11.1472 4.96304
      vertex -15 -12.4528 6.76005
      vertex -36 -12.9904 7.5
    endloop
  endfacet
  facet normal 0 -0.809017 -0.587785
    outer loop
      vertex -15 -12.4528 6.76005
      vertex -36 -11.1472 4.96304
      vertex -15 -11.1472 4.96304
    endloop
  endfacet
  facet normal -0 -0.809017 -0.587785
    outer loop
      vertex 36 -11.1472 4.96304
      vertex 15 -11.6848 5.70299
      vertex 15 -11.1472 4.96304
    endloop
  endfacet
  facet normal 0 -0.669131 -0.743145
    outer loop
      vertex -36 -11.1472 4.96304
      vertex -15 -8.81678 2.86474
      vertex -15 -11.1472 4.96304
    endloop
  endfacet
  facet normal -0 -0.669131 -0.743145
    outer loop
      vertex -15 -8.81678 2.86474
      vertex -36 -11.1472 4.96304
      vertex -36 -8.81678 2.86474
    endloop
  endfacet
  facet normal 0 -0.669131 -0.743145
    outer loop
      vertex 15 -11.1472 4.96304
      vertex 36 -8.81678 2.86474
      vertex 36 -11.1472 4.96304
    endloop
  endfacet
  facet normal -0 -0.669131 -0.743145
    outer loop
      vertex 36 -8.81678 2.86474
      vertex 15 -11.1472 4.96304
      vertex 15 -8.81678 2.86474
    endloop
  endfacet
  facet normal -1.53926e-09 -0.913545 -0.406737
    outer loop
      vertex 15 -13.8938 9.52919
      vertex 36 -12.9904 7.5
      vertex 36 -14.2658 10.3647
    endloop
  endfacet
  facet normal 9.23558e-09 -0.913545 -0.406737
    outer loop
      vertex 36 -12.9904 7.5
      vertex 15 -13.8938 9.52919
      vertex 15 -12.9904 7.5
    endloop
  endfacet
  facet normal 9.23559e-09 -0.913545 -0.406737
    outer loop
      vertex -15 -13.3624 8.33555
      vertex -36 -12.9904 7.5
      vertex -15 -12.9904 7.5
    endloop
  endfacet
  facet normal 0 -0.913545 -0.406737
    outer loop
      vertex -36 -14.2658 10.3647
      vertex -15 -13.3624 8.33555
      vertex -15 -14.2658 10.3647
    endloop
  endfacet
  facet normal -6.92668e-09 -0.913545 -0.406737
    outer loop
      vertex -15 -13.3624 8.33555
      vertex -36 -14.2658 10.3647
      vertex -36 -12.9904 7.5
    endloop
  endfacet
  facet normal -0 -0.913545 -0.406737
    outer loop
      vertex 36 -14.2658 10.3647
      vertex 15 -14.2658 10.3647
      vertex 15 -13.8938 9.52919
    endloop
  endfacet
  facet normal 0 -0.309017 -0.951057
    outer loop
      vertex -36 -6.10105 1.29682
      vertex -15 -3.11868 0.327785
      vertex -15 -6.10105 1.29682
    endloop
  endfacet
  facet normal -0 -0.309017 -0.951057
    outer loop
      vertex -15 -3.11868 0.327785
      vertex -36 -6.10105 1.29682
      vertex -36 -3.11868 0.327785
    endloop
  endfacet
  facet normal 0 -0.309017 -0.951057
    outer loop
      vertex 15 -6.10105 1.29682
      vertex 36 -3.11868 0.327785
      vertex 36 -6.10105 1.29682
    endloop
  endfacet
  facet normal -0 -0.309017 -0.951057
    outer loop
      vertex 36 -3.11868 0.327785
      vertex 15 -6.10105 1.29682
      vertex 15 -3.11868 0.327785
    endloop
  endfacet
  facet normal 0 0.104528 0.994522
    outer loop
      vertex 15 0.909614 29.9044
      vertex 15 0 30
      vertex 36 0 30
    endloop
  endfacet
  facet normal 7.52738e-09 0.104528 0.994522
    outer loop
      vertex -36 0 30
      vertex -15 2.20906 29.7678
      vertex -36 3.11868 29.6722
    endloop
  endfacet
  facet normal 0 0.104528 0.994522
    outer loop
      vertex -15 2.20906 29.7678
      vertex -36 0 30
      vertex -15 0 30
    endloop
  endfacet
  facet normal -0 0.66913 0.743145
    outer loop
      vertex 15 11.1472 25.037
      vertex 36 8.81678 27.1353
      vertex 36 11.1472 25.037
    endloop
  endfacet
  facet normal 0 0.66913 0.743145
    outer loop
      vertex 36 8.81678 27.1353
      vertex 15 11.1472 25.037
      vertex 15 8.81678 27.1353
    endloop
  endfacet
  facet normal -0 0.66913 0.743145
    outer loop
      vertex -36 11.1472 25.037
      vertex -15 8.81678 27.1353
      vertex -15 11.1472 25.037
    endloop
  endfacet
  facet normal 0 0.66913 0.743145
    outer loop
      vertex -15 8.81678 27.1353
      vertex -36 11.1472 25.037
      vertex -36 8.81678 27.1353
    endloop
  endfacet
  facet normal -0 0.809017 0.587785
    outer loop
      vertex -36 12.9904 22.5
      vertex -15 11.6848 24.297
      vertex -15 12.9904 22.5
    endloop
  endfacet
  facet normal 2.22443e-09 0.809017 0.587785
    outer loop
      vertex -15 11.6848 24.297
      vertex -36 12.9904 22.5
      vertex -36 11.1472 25.037
    endloop
  endfacet
  facet normal -0 0.809017 0.587785
    outer loop
      vertex 15 12.9904 22.5
      vertex 15 12.4528 23.2399
      vertex 36 12.9904 22.5
    endloop
  endfacet
  facet normal 0 0.809017 0.587785
    outer loop
      vertex 36 11.1472 25.037
      vertex 15 12.4528 23.2399
      vertex 15 11.1472 25.037
    endloop
  endfacet
  facet normal 2.22443e-09 0.809017 0.587785
    outer loop
      vertex 15 12.4528 23.2399
      vertex 36 11.1472 25.037
      vertex 36 12.9904 22.5
    endloop
  endfacet
  facet normal 0 0.809017 0.587785
    outer loop
      vertex -15 11.6848 24.297
      vertex -36 11.1472 25.037
      vertex -15 11.1472 25.037
    endloop
  endfacet
  facet normal 1.23141e-08 0.913545 0.406737
    outer loop
      vertex 36 14.2658 19.6353
      vertex 15 13.3624 21.6644
      vertex 36 12.9904 22.5
    endloop
  endfacet
  facet normal 0 0.913546 0.406736
    outer loop
      vertex 15 13.3624 21.6644
      vertex 36 14.2658 19.6353
      vertex 15 14.2658 19.6353
    endloop
  endfacet
  facet normal 0 0.913546 0.406736
    outer loop
      vertex -15 14.2658 19.6353
      vertex -36 14.2658 19.6353
      vertex -15 13.8938 20.4708
    endloop
  endfacet
  facet normal 0 0.978148 0.207912
    outer loop
      vertex -15 14.9178 16.5679
      vertex -36 14.2658 19.6353
      vertex -15 14.2658 19.6353
    endloop
  endfacet
  facet normal 0 0.978148 0.207912
    outer loop
      vertex -36 14.2658 19.6353
      vertex -15 14.9178 16.5679
      vertex -36 14.9178 16.5679
    endloop
  endfacet
  facet normal 0 0.978148 0.207912
    outer loop
      vertex 36 14.9178 16.5679
      vertex 15 14.2658 19.6353
      vertex 36 14.2658 19.6353
    endloop
  endfacet
  facet normal 0 0.978148 0.207912
    outer loop
      vertex 15 14.2658 19.6353
      vertex 36 14.9178 16.5679
      vertex 15 14.9178 16.5679
    endloop
  endfacet
  facet normal 0 0.5 -0.866025
    outer loop
      vertex -36 6.10105 1.29682
      vertex -15 8.81678 2.86474
      vertex -15 6.10105 1.29682
    endloop
  endfacet
  facet normal 0 0.5 -0.866025
    outer loop
      vertex -15 8.81678 2.86474
      vertex -36 6.10105 1.29682
      vertex -36 8.81678 2.86474
    endloop
  endfacet
  facet normal 0 0.5 -0.866025
    outer loop
      vertex 15 6.10105 1.29682
      vertex 36 8.81678 2.86474
      vertex 36 6.10105 1.29682
    endloop
  endfacet
  facet normal 0 0.5 -0.866025
    outer loop
      vertex 36 8.81678 2.86474
      vertex 15 6.10105 1.29682
      vertex 15 8.81678 2.86474
    endloop
  endfacet
  facet normal 0 -0.913545 0.406737
    outer loop
      vertex 15 -14.2658 19.6353
      vertex 36 -12.9904 22.5
      vertex 15 -12.9904 22.5
    endloop
  endfacet
  facet normal 0 -0.913545 0.406737
    outer loop
      vertex 36 -12.9904 22.5
      vertex 15 -14.2658 19.6353
      vertex 36 -14.2658 19.6353
    endloop
  endfacet
  facet normal 0 -0.913545 0.406737
    outer loop
      vertex -36 -14.2658 19.6353
      vertex -15 -12.9904 22.5
      vertex -36 -12.9904 22.5
    endloop
  endfacet
  facet normal 0 -0.913545 0.406737
    outer loop
      vertex -15 -12.9904 22.5
      vertex -36 -14.2658 19.6353
      vertex -15 -14.2658 19.6353
    endloop
  endfacet
  facet normal 0 -0.66913 0.743145
    outer loop
      vertex 15 -8.81678 27.1353
      vertex 36 -11.1472 25.037
      vertex 36 -8.81678 27.1353
    endloop
  endfacet
  facet normal 0 -0.66913 0.743145
    outer loop
      vertex 36 -11.1472 25.037
      vertex 15 -8.81678 27.1353
      vertex 15 -11.1472 25.037
    endloop
  endfacet
  facet normal 0 -0.66913 0.743145
    outer loop
      vertex -36 -8.81678 27.1353
      vertex -15 -11.1472 25.037
      vertex -15 -8.81678 27.1353
    endloop
  endfacet
  facet normal 0 -0.66913 0.743145
    outer loop
      vertex -15 -11.1472 25.037
      vertex -36 -8.81678 27.1353
      vertex -36 -11.1472 25.037
    endloop
  endfacet
  facet normal 1.33466e-08 -0.809017 -0.587785
    outer loop
      vertex 15 -11.6848 5.70299
      vertex 36 -12.9904 7.5
      vertex 15 -12.9904 7.5
    endloop
  endfacet
  facet normal 5.56107e-09 -0.809017 -0.587785
    outer loop
      vertex 36 -12.9904 7.5
      vertex 15 -11.6848 5.70299
      vertex 36 -11.1472 4.96304
    endloop
  endfacet
  facet normal 1.33466e-08 -0.809017 -0.587785
    outer loop
      vertex -15 -12.9904 7.5
      vertex -36 -12.9904 7.5
      vertex -15 -12.4528 6.76005
    endloop
  endfacet
  facet normal 0 0.104528 0.994522
    outer loop
      vertex 15 0.909614 29.9044
      vertex 36 3.11868 29.6722
      vertex 15 3.11868 29.6722
    endloop
  endfacet
  facet normal 7.52738e-09 0.104528 0.994522
    outer loop
      vertex 36 3.11868 29.6722
      vertex 15 0.909614 29.9044
      vertex 36 0 30
    endloop
  endfacet
  facet normal 0 0.104528 0.994522
    outer loop
      vertex -15 3.11868 29.6722
      vertex -36 3.11868 29.6722
      vertex -15 2.20906 29.7678
    endloop
  endfacet
  facet normal -0 0.309017 0.951057
    outer loop
      vertex 15 6.10105 28.7032
      vertex 36 3.11868 29.6722
      vertex 36 6.10105 28.7032
    endloop
  endfacet
  facet normal 0 0.309017 0.951057
    outer loop
      vertex 36 3.11868 29.6722
      vertex 15 6.10105 28.7032
      vertex 15 3.11868 29.6722
    endloop
  endfacet
  facet normal -0 0.309017 0.951057
    outer loop
      vertex -36 6.10105 28.7032
      vertex -15 3.11868 29.6722
      vertex -15 6.10105 28.7032
    endloop
  endfacet
  facet normal 0 0.309017 0.951057
    outer loop
      vertex -15 3.11868 29.6722
      vertex -36 6.10105 28.7032
      vertex -36 3.11868 29.6722
    endloop
  endfacet
  facet normal -0 0.5 0.866025
    outer loop
      vertex 15 8.81678 27.1353
      vertex 36 6.10105 28.7032
      vertex 36 8.81678 27.1353
    endloop
  endfacet
  facet normal 0 0.5 0.866025
    outer loop
      vertex 36 6.10105 28.7032
      vertex 15 8.81678 27.1353
      vertex 15 6.10105 28.7032
    endloop
  endfacet
  facet normal -0 0.5 0.866025
    outer loop
      vertex -36 8.81678 27.1353
      vertex -15 6.10105 28.7032
      vertex -15 8.81678 27.1353
    endloop
  endfacet
  facet normal 0 0.5 0.866025
    outer loop
      vertex -15 6.10105 28.7032
      vertex -36 8.81678 27.1353
      vertex -36 6.10105 28.7032
    endloop
  endfacet
  facet normal -0.980785 -0.195091 0
    outer loop
      vertex 5 0 0
      vertex 4.6194 1.91342 30
      vertex 4.6194 1.91342 0
    endloop
  endfacet
  facet normal -0.980785 -0.195091 0
    outer loop
      vertex 4.6194 1.91342 30
      vertex 5 0 0
      vertex 5 0 30
    endloop
  endfacet
  facet normal 0.980785 -0.195091 0
    outer loop
      vertex -5 0 30
      vertex -4.6194 1.91342 0
      vertex -4.6194 1.91342 30
    endloop
  endfacet
  facet normal 0.980785 -0.195091 0
    outer loop
      vertex -4.6194 1.91342 0
      vertex -5 0 30
      vertex -5 0 0
    endloop
  endfacet
  facet normal -0.195091 -0.980785 0
    outer loop
      vertex 0 5 0
      vertex 1.91342 4.6194 30
      vertex 0 5 30
    endloop
  endfacet
  facet normal -0.195091 -0.980785 -0
    outer loop
      vertex 1.91342 4.6194 30
      vertex 0 5 0
      vertex 1.91342 4.6194 0
    endloop
  endfacet
  facet normal -0.83147 -0.55557 0
    outer loop
      vertex 4.6194 1.91342 0
      vertex 3.53553 3.53553 30
      vertex 3.53553 3.53553 0
    endloop
  endfacet
  facet normal -0.83147 -0.55557 0
    outer loop
      vertex 3.53553 3.53553 30
      vertex 4.6194 1.91342 0
      vertex 4.6194 1.91342 30
    endloop
  endfacet
  facet normal -0.195091 0.980785 0
    outer loop
      vertex 1.91342 -4.6194 0
      vertex 0 -5 30
      vertex 1.91342 -4.6194 30
    endloop
  endfacet
  facet normal -0.195091 0.980785 0
    outer loop
      vertex 0 -5 30
      vertex 1.91342 -4.6194 0
      vertex 0 -5 0
    endloop
  endfacet
  facet normal 0.195091 0.980785 -0
    outer loop
      vertex 0 -5 0
      vertex -1.91342 -4.6194 30
      vertex 0 -5 30
    endloop
  endfacet
  facet normal 0.195091 0.980785 0
    outer loop
      vertex -1.91342 -4.6194 30
      vertex 0 -5 0
      vertex -1.91342 -4.6194 0
    endloop
  endfacet
  facet normal 0.195091 -0.980785 0
    outer loop
      vertex -1.91342 4.6194 0
      vertex 0 5 30
      vertex -1.91342 4.6194 30
    endloop
  endfacet
  facet normal 0.195091 -0.980785 0
    outer loop
      vertex 0 5 30
      vertex -1.91342 4.6194 0
      vertex 0 5 0
    endloop
  endfacet
  facet normal 0.55557 -0.83147 0
    outer loop
      vertex -3.53553 3.53553 0
      vertex -1.91342 4.6194 30
      vertex -3.53553 3.53553 30
    endloop
  endfacet
  facet normal 0.55557 -0.83147 0
    outer loop
      vertex -1.91342 4.6194 30
      vertex -3.53553 3.53553 0
      vertex -1.91342 4.6194 0
    endloop
  endfacet
  facet normal 0.980785 0.195091 0
    outer loop
      vertex -4.6194 -1.91342 30
      vertex -5 0 0
      vertex -5 0 30
    endloop
  endfacet
  facet normal 0.980785 0.195091 0
    outer loop
      vertex -5 0 0
      vertex -4.6194 -1.91342 30
      vertex -4.6194 -1.91342 0
    endloop
  endfacet
  facet normal 0.55557 0.83147 -0
    outer loop
      vertex -1.91342 -4.6194 0
      vertex -3.53553 -3.53553 30
      vertex -1.91342 -4.6194 30
    endloop
  endfacet
  facet normal 0.55557 0.83147 0
    outer loop
      vertex -3.53553 -3.53553 30
      vertex -1.91342 -4.6194 0
      vertex -3.53553 -3.53553 0
    endloop
  endfacet
  facet normal -0.55557 -0.83147 0
    outer loop
      vertex 1.91342 4.6194 0
      vertex 3.53553 3.53553 30
      vertex 1.91342 4.6194 30
    endloop
  endfacet
  facet normal -0.55557 -0.83147 -0
    outer loop
      vertex 3.53553 3.53553 30
      vertex 1.91342 4.6194 0
      vertex 3.53553 3.53553 0
    endloop
  endfacet
  facet normal 0.83147 -0.55557 0
    outer loop
      vertex -4.6194 1.91342 30
      vertex -3.53553 3.53553 0
      vertex -3.53553 3.53553 30
    endloop
  endfacet
  facet normal 0.83147 -0.55557 0
    outer loop
      vertex -3.53553 3.53553 0
      vertex -4.6194 1.91342 30
      vertex -4.6194 1.91342 0
    endloop
  endfacet
  facet normal -0.83147 0.55557 0
    outer loop
      vertex 3.53553 -3.53553 0
      vertex 4.6194 -1.91342 30
      vertex 4.6194 -1.91342 0
    endloop
  endfacet
  facet normal -0.83147 0.55557 0
    outer loop
      vertex 4.6194 -1.91342 30
      vertex 3.53553 -3.53553 0
      vertex 3.53553 -3.53553 30
    endloop
  endfacet
  facet normal -0.55557 0.83147 0
    outer loop
      vertex 3.53553 -3.53553 0
      vertex 1.91342 -4.6194 30
      vertex 3.53553 -3.53553 30
    endloop
  endfacet
  facet normal -0.55557 0.83147 0
    outer loop
      vertex 1.91342 -4.6194 30
      vertex 3.53553 -3.53553 0
      vertex 1.91342 -4.6194 0
    endloop
  endfacet
  facet normal -0.980785 0.195091 0
    outer loop
      vertex 4.6194 -1.91342 0
      vertex 5 0 30
      vertex 5 0 0
    endloop
  endfacet
  facet normal -0.980785 0.195091 0
    outer loop
      vertex 5 0 30
      vertex 4.6194 -1.91342 0
      vertex 4.6194 -1.91342 30
    endloop
  endfacet
  facet normal 0.83147 0.55557 0
    outer loop
      vertex -3.53553 -3.53553 30
      vertex -4.6194 -1.91342 0
      vertex -4.6194 -1.91342 30
    endloop
  endfacet
  facet normal 0.83147 0.55557 0
    outer loop
      vertex -4.6194 -1.91342 0
      vertex -3.53553 -3.53553 30
      vertex -3.53553 -3.53553 0
    endloop
  endfacet
endsolid OpenSCAD_Model
