solid OpenSCAD_Model
  facet normal -1 0 0
    outer loop
      vertex -15 -15 0
      vertex -15 -12.7964 7.23295
      vertex -15 -11.1472 4.96304
    endloop
  endfacet
  facet normal -1 0 0
    outer loop
      vertex -15 -15 0
      vertex -15 -13.1246 7.80155
      vertex -15 -12.9904 7.5
    endloop
  endfacet
  facet normal -1 -0 0
    outer loop
      vertex -15 -14.9178 13.4321
      vertex -15 -15 0
      vertex -15 -14.9178 16.5679
    endloop
  endfacet
  facet normal -1 -0 0
    outer loop
      vertex -15 -14.2658 10.3647
      vertex -15 -15 0
      vertex -15 -14.9178 13.4321
    endloop
  endfacet
  facet normal -1 -0 0
    outer loop
      vertex -15 -13.1246 7.80155
      vertex -15 -15 0
      vertex -15 -14.2658 10.3647
    endloop
  endfacet
  facet normal -1 -0 0
    outer loop
      vertex -15 -12.7964 7.23295
      vertex -15 -15 0
      vertex -15 -12.9904 7.5
    endloop
  endfacet
  facet normal -1 -0 0
    outer loop
      vertex -15 -8.81678 2.86474
      vertex -15 -15 0
      vertex -15 -11.1472 4.96304
    endloop
  endfacet
  facet normal -1 -0 0
    outer loop
      vertex -15 -6.10105 1.29682
      vertex -15 -15 0
      vertex -15 -8.81678 2.86474
    endloop
  endfacet
  facet normal -1 -0 0
    outer loop
      vertex -15 -3.11868 0.327785
      vertex -15 -15 0
      vertex -15 -6.10105 1.29682
    endloop
  endfacet
  facet normal -1 0 0
    outer loop
      vertex -15 -15 0
      vertex -15 -3.11868 0.327785
      vertex -15 0 0
    endloop
  endfacet
  facet normal -1 0 0
    outer loop
      vertex -15 15 0
      vertex -15 14.9178 13.4321
      vertex -15 15 30
    endloop
  endfacet
  facet normal -1 0 0
    outer loop
      vertex -15 15 0
      vertex -15 14.2658 10.3647
      vertex -15 14.9178 13.4321
    endloop
  endfacet
  facet normal -1 0 0
    outer loop
      vertex -15 15 0
      vertex -15 13.1246 7.80155
      vertex -15 14.2658 10.3647
    endloop
  endfacet
  facet normal -1 0 0
    outer loop
      vertex -15 15 0
      vertex -15 12.9904 7.5
      vertex -15 13.1246 7.80155
    endloop
  endfacet
  facet normal -1 0 0
    outer loop
      vertex -15 15 0
      vertex -15 12.7964 7.23295
      vertex -15 12.9904 7.5
    endloop
  endfacet
  facet normal -1 0 0
    outer loop
      vertex -15 15 0
      vertex -15 11.1472 4.96304
      vertex -15 12.7964 7.23295
    endloop
  endfacet
  facet normal -1 0 0
    outer loop
      vertex -15 15 0
      vertex -15 8.81678 2.86474
      vertex -15 11.1472 4.96304
    endloop
  endfacet
  facet normal -1 0 0
    outer loop
      vertex -15 15 0
      vertex -15 6.10105 1.29682
      vertex -15 8.81678 2.86474
    endloop
  endfacet
  facet normal -1 0 0
    outer loop
      vertex -15 15 0
      vertex -15 3.11868 0.327785
      vertex -15 6.10105 1.29682
    endloop
  endfacet
  facet normal -1 0 -0
    outer loop
      vertex -15 3.11868 0.327785
      vertex -15 15 0
      vertex -15 0 0
    endloop
  endfacet
  facet normal -1 0 0
    outer loop
      vertex -15 14.9178 16.5679
      vertex -15 15 30
      vertex -15 14.9178 13.4321
    endloop
  endfacet
  facet normal -1 0 0
    outer loop
      vertex -15 14.2658 19.6353
      vertex -15 15 30
      vertex -15 14.9178 16.5679
    endloop
  endfacet
  facet normal -1 0 0
    outer loop
      vertex -15 14.1316 19.9368
      vertex -15 15 30
      vertex -15 14.2658 19.6353
    endloop
  endfacet
  facet normal -1 0 0
    outer loop
      vertex -15 12.9904 22.5
      vertex -15 15 30
      vertex -15 14.1316 19.9368
    endloop
  endfacet
  facet normal -1 0 0
    outer loop
      vertex -15 11.3412 24.7699
      vertex -15 15 30
      vertex -15 12.9904 22.5
    endloop
  endfacet
  facet normal -1 0 0
    outer loop
      vertex -15 11.1472 25.037
      vertex -15 15 30
      vertex -15 11.3412 24.7699
    endloop
  endfacet
  facet normal -1 0 0
    outer loop
      vertex -15 8.81678 27.1353
      vertex -15 15 30
      vertex -15 11.1472 25.037
    endloop
  endfacet
  facet normal -1 0 0
    outer loop
      vertex -15 6.10105 28.7032
      vertex -15 15 30
      vertex -15 8.81678 27.1353
    endloop
  endfacet
  facet normal -1 0 0
    outer loop
      vertex -15 3.11868 29.6722
      vertex -15 15 30
      vertex -15 6.10105 28.7032
    endloop
  endfacet
  facet normal -1 0 0
    outer loop
      vertex -15 2.79039 29.7067
      vertex -15 15 30
      vertex -15 3.11868 29.6722
    endloop
  endfacet
  facet normal -1 -0 0
    outer loop
      vertex -15 15 30
      vertex -15 2.79039 29.7067
      vertex -15 0 30
    endloop
  endfacet
  facet normal -1 0 0
    outer loop
      vertex -15 -15 30
      vertex -15 -2.79039 29.7067
      vertex -15 -3.11868 29.6722
    endloop
  endfacet
  facet normal -1 0 0
    outer loop
      vertex -15 -2.79039 29.7067
      vertex -15 -15 30
      vertex -15 0 30
    endloop
  endfacet
  facet normal -1 0 0
    outer loop
      vertex -15 -6.10105 28.7032
      vertex -15 -15 30
      vertex -15 -3.11868 29.6722
    endloop
  endfacet
  facet normal -1 0 0
    outer loop
      vertex -15 -8.81678 27.1353
      vertex -15 -15 30
      vertex -15 -6.10105 28.7032
    endloop
  endfacet
  facet normal -1 0 0
    outer loop
      vertex -15 -11.1472 25.037
      vertex -15 -15 30
      vertex -15 -8.81678 27.1353
    endloop
  endfacet
  facet normal -1 0 0
    outer loop
      vertex -15 -12.9904 22.5
      vertex -15 -15 30
      vertex -15 -11.1472 25.037
    endloop
  endfacet
  facet normal -1 0 0
    outer loop
      vertex -15 -14.2658 19.6353
      vertex -15 -15 30
      vertex -15 -12.9904 22.5
    endloop
  endfacet
  facet normal -1 0 0
    outer loop
      vertex -15 -14.9178 16.5679
      vertex -15 -15 30
      vertex -15 -14.2658 19.6353
    endloop
  endfacet
  facet normal -1 0 0
    outer loop
      vertex -15 -15 30
      vertex -15 -14.9178 16.5679
      vertex -15 -15 0
    endloop
  endfacet
  facet normal -0 0 0
    outer loop
      vertex -15 0 30
      vertex -15 -15 30
      vertex -15 15 30
    endloop
  endfacet
  facet normal 0 0 1
    outer loop
      vertex 15 15 30
      vertex 5 0 30
      vertex 15 -15 30
    endloop
  endfacet
  facet normal 0 0 1
    outer loop
      vertex 15 15 30
      vertex 4.6194 1.91342 30
      vertex 5 0 30
    endloop
  endfacet
  facet normal 0 0 1
    outer loop
      vertex 15 15 30
      vertex 3.53553 3.53553 30
      vertex 4.6194 1.91342 30
    endloop
  endfacet
  facet normal 0 0 1
    outer loop
      vertex 15 15 30
      vertex 1.91342 4.6194 30
      vertex 3.53553 3.53553 30
    endloop
  endfacet
  facet normal 0 0 1
    outer loop
      vertex 15 15 30
      vertex 0 5 30
      vertex 1.91342 4.6194 30
    endloop
  endfacet
  facet normal -0 0 1
    outer loop
      vertex -15 15 30
      vertex 0 5 30
      vertex 15 15 30
    endloop
  endfacet
  facet normal 0 0 1
    outer loop
      vertex -4.6194 1.91342 30
      vertex -15 15 30
      vertex -5 0 30
    endloop
  endfacet
  facet normal 0 0 1
    outer loop
      vertex -3.53553 3.53553 30
      vertex -15 15 30
      vertex -4.6194 1.91342 30
    endloop
  endfacet
  facet normal 0 0 1
    outer loop
      vertex -1.91342 4.6194 30
      vertex -15 15 30
      vertex -3.53553 3.53553 30
    endloop
  endfacet
  facet normal 0 0 1
    outer loop
      vertex 0 5 30
      vertex -15 15 30
      vertex -1.91342 4.6194 30
    endloop
  endfacet
  facet normal -0 0 1
    outer loop
      vertex 4.6194 -1.91342 30
      vertex 15 -15 30
      vertex 5 0 30
    endloop
  endfacet
  facet normal -0 0 1
    outer loop
      vertex 3.53553 -3.53553 30
      vertex 15 -15 30
      vertex 4.6194 -1.91342 30
    endloop
  endfacet
  facet normal -0 0 1
    outer loop
      vertex 1.91342 -4.6194 30
      vertex 15 -15 30
      vertex 3.53553 -3.53553 30
    endloop
  endfacet
  facet normal -0 0 1
    outer loop
      vertex 0 -5 30
      vertex 15 -15 30
      vertex 1.91342 -4.6194 30
    endloop
  endfacet
  facet normal 0 0 1
    outer loop
      vertex -15 -15 30
      vertex 0 -5 30
      vertex -1.91342 -4.6194 30
    endloop
  endfacet
  facet normal 0 0 1
    outer loop
      vertex -15 -15 30
      vertex -5 0 30
      vertex -15 15 30
    endloop
  endfacet
  facet normal 0 0 1
    outer loop
      vertex 0 -5 30
      vertex -15 -15 30
      vertex 15 -15 30
    endloop
  endfacet
  facet normal 0 0 1
    outer loop
      vertex -3.53553 -3.53553 30
      vertex -15 -15 30
      vertex -1.91342 -4.6194 30
    endloop
  endfacet
  facet normal 0 0 1
    outer loop
      vertex -4.6194 -1.91342 30
      vertex -15 -15 30
      vertex -3.53553 -3.53553 30
    endloop
  endfacet
  facet normal 0 0 1
    outer loop
      vertex -5 0 30
      vertex -15 -15 30
      vertex -4.6194 -1.91342 30
    endloop
  endfacet
  facet normal 1 -0 0
    outer loop
      vertex 15 -15 30
      vertex 15 -0.328282 29.9655
      vertex 15 0 30
    endloop
  endfacet
  facet normal 1 0 0
    outer loop
      vertex 15 -14.9178 16.5679
      vertex 15 -15 30
      vertex 15 -14.9178 13.4321
    endloop
  endfacet
  facet normal 1 0 0
    outer loop
      vertex 15 -14.2658 19.6353
      vertex 15 -15 30
      vertex 15 -14.9178 16.5679
    endloop
  endfacet
  facet normal 1 0 0
    outer loop
      vertex 15 -12.9904 22.5
      vertex 15 -15 30
      vertex 15 -14.2658 19.6353
    endloop
  endfacet
  facet normal 1 0 0
    outer loop
      vertex 15 -11.1472 25.037
      vertex 15 -15 30
      vertex 15 -12.9904 22.5
    endloop
  endfacet
  facet normal 1 0 0
    outer loop
      vertex 15 -8.81678 27.1353
      vertex 15 -15 30
      vertex 15 -11.1472 25.037
    endloop
  endfacet
  facet normal 1 0 0
    outer loop
      vertex 15 -6.10105 28.7032
      vertex 15 -15 30
      vertex 15 -8.81678 27.1353
    endloop
  endfacet
  facet normal 1 0 0
    outer loop
      vertex 15 -3.11868 29.6722
      vertex 15 -15 30
      vertex 15 -6.10105 28.7032
    endloop
  endfacet
  facet normal 1 0 0
    outer loop
      vertex 15 -0.328282 29.9655
      vertex 15 -15 30
      vertex 15 -3.11868 29.6722
    endloop
  endfacet
  facet normal 1 0 0
    outer loop
      vertex 15 15 30
      vertex 15 14.9178 16.5679
      vertex 15 15 0
    endloop
  endfacet
  facet normal 1 0 0
    outer loop
      vertex 15 15 30
      vertex 15 14.2658 19.6353
      vertex 15 14.9178 16.5679
    endloop
  endfacet
  facet normal 1 0 0
    outer loop
      vertex 15 15 30
      vertex 15 13.1246 22.1984
      vertex 15 14.2658 19.6353
    endloop
  endfacet
  facet normal 1 0 0
    outer loop
      vertex 15 15 30
      vertex 15 12.9904 22.5
      vertex 15 13.1246 22.1984
    endloop
  endfacet
  facet normal 1 0 0
    outer loop
      vertex 15 15 30
      vertex 15 12.7964 22.767
      vertex 15 12.9904 22.5
    endloop
  endfacet
  facet normal 1 0 0
    outer loop
      vertex 15 15 30
      vertex 15 11.1472 25.037
      vertex 15 12.7964 22.767
    endloop
  endfacet
  facet normal 1 0 0
    outer loop
      vertex 15 15 30
      vertex 15 8.81678 27.1353
      vertex 15 11.1472 25.037
    endloop
  endfacet
  facet normal 1 0 0
    outer loop
      vertex 15 15 30
      vertex 15 6.10105 28.7032
      vertex 15 8.81678 27.1353
    endloop
  endfacet
  facet normal 1 0 0
    outer loop
      vertex 15 15 30
      vertex 15 3.11868 29.6722
      vertex 15 6.10105 28.7032
    endloop
  endfacet
  facet normal 1 0 0
    outer loop
      vertex 15 15 30
      vertex 15 0.328282 29.9655
      vertex 15 3.11868 29.6722
    endloop
  endfacet
  facet normal 1 0 -0
    outer loop
      vertex 15 0.328282 29.9655
      vertex 15 15 30
      vertex 15 0 30
    endloop
  endfacet
  facet normal 1 -0 0
    outer loop
      vertex 15 14.9178 13.4321
      vertex 15 15 0
      vertex 15 14.9178 16.5679
    endloop
  endfacet
  facet normal 1 -0 0
    outer loop
      vertex 15 14.2658 10.3647
      vertex 15 15 0
      vertex 15 14.9178 13.4321
    endloop
  endfacet
  facet normal 1 -0 0
    outer loop
      vertex 15 14.1316 10.0632
      vertex 15 15 0
      vertex 15 14.2658 10.3647
    endloop
  endfacet
  facet normal 1 -0 0
    outer loop
      vertex 15 12.9904 7.5
      vertex 15 15 0
      vertex 15 14.1316 10.0632
    endloop
  endfacet
  facet normal 1 -0 0
    outer loop
      vertex 15 11.3412 5.23009
      vertex 15 15 0
      vertex 15 12.9904 7.5
    endloop
  endfacet
  facet normal 1 -0 0
    outer loop
      vertex 15 11.1472 4.96304
      vertex 15 15 0
      vertex 15 11.3412 5.23009
    endloop
  endfacet
  facet normal 1 -0 0
    outer loop
      vertex 15 8.81678 2.86474
      vertex 15 15 0
      vertex 15 11.1472 4.96304
    endloop
  endfacet
  facet normal 1 -0 0
    outer loop
      vertex 15 6.10105 1.29682
      vertex 15 15 0
      vertex 15 8.81678 2.86474
    endloop
  endfacet
  facet normal 1 -0 0
    outer loop
      vertex 15 3.11868 0.327785
      vertex 15 15 0
      vertex 15 6.10105 1.29682
    endloop
  endfacet
  facet normal 1 0 0
    outer loop
      vertex 15 15 0
      vertex 15 3.11868 0.327785
      vertex 15 0 0
    endloop
  endfacet
  facet normal 1 0 0
    outer loop
      vertex 15 -3.11868 0.327785
      vertex 15 -15 0
      vertex 15 0 0
    endloop
  endfacet
  facet normal 1 0 0
    outer loop
      vertex 15 -6.10105 1.29682
      vertex 15 -15 0
      vertex 15 -3.11868 0.327785
    endloop
  endfacet
  facet normal 1 0 0
    outer loop
      vertex 15 -8.81678 2.86474
      vertex 15 -15 0
      vertex 15 -6.10105 1.29682
    endloop
  endfacet
  facet normal 1 0 0
    outer loop
      vertex 15 -11.1472 4.96304
      vertex 15 -15 0
      vertex 15 -8.81678 2.86474
    endloop
  endfacet
  facet normal 1 0 0
    outer loop
      vertex 15 -11.3412 5.23009
      vertex 15 -15 0
      vertex 15 -11.1472 4.96304
    endloop
  endfacet
  facet normal 1 0 0
    outer loop
      vertex 15 -12.9904 7.5
      vertex 15 -15 0
      vertex 15 -11.3412 5.23009
    endloop
  endfacet
  facet normal 1 0 0
    outer loop
      vertex 15 -14.1316 10.0632
      vertex 15 -15 0
      vertex 15 -12.9904 7.5
    endloop
  endfacet
  facet normal 1 0 0
    outer loop
      vertex 15 -14.2658 10.3647
      vertex 15 -15 0
      vertex 15 -14.1316 10.0632
    endloop
  endfacet
  facet normal 1 0 0
    outer loop
      vertex 15 -14.9178 13.4321
      vertex 15 -15 0
      vertex 15 -14.2658 10.3647
    endloop
  endfacet
  facet normal 1 0 0
    outer loop
      vertex 15 -15 0
      vertex 15 -14.9178 13.4321
      vertex 15 -15 30
    endloop
  endfacet
  facet normal 0 0 -0
    outer loop
      vertex 15 0 30
      vertex 15 15 30
      vertex 15 -15 30
    endloop
  endfacet
  facet normal 0 1 -0
    outer loop
      vertex 15 15 0
      vertex -15 15 30
      vertex 15 15 30
    endloop
  endfacet
  facet normal 0 1 0
    outer loop
      vertex -15 15 30
      vertex 15 15 0
      vertex -15 15 0
    endloop
  endfacet
  facet normal 0 0 -1
    outer loop
      vertex -15 0 0
      vertex 15 0 0
      vertex 15 -15 0
    endloop
  endfacet
  facet normal 0 0 -1
    outer loop
      vertex -15 0 0
      vertex 15 -15 0
      vertex -15 -15 0
    endloop
  endfacet
  facet normal 0 0 -1
    outer loop
      vertex 15 0 0
      vertex -15 0 0
      vertex 15 15 0
    endloop
  endfacet
  facet normal -0 0 -1
    outer loop
      vertex 15 15 0
      vertex -15 0 0
      vertex -15 15 0
    endloop
  endfacet
  facet normal 0 -1 0
    outer loop
      vertex -15 -15 0
      vertex 15 -15 30
      vertex -15 -15 30
    endloop
  endfacet
  facet normal 0 -1 -0
    outer loop
      vertex 15 -15 30
      vertex -15 -15 0
      vertex 15 -15 0
    endloop
  endfacet
  facet normal 1 0 0
    outer loop
      vertex 19 12.9904 22.5
      vertex 19 0 30
      vertex 19 -12.9904 22.5
    endloop
  endfacet
  facet normal 0 0.104528 -0.994522
    outer loop
      vertex -19 0 0
      vertex -15 3.11868 0.327785
      vertex -15 0 0
    endloop
  endfacet
  facet normal 0 0.104528 -0.994522
    outer loop
      vertex -15 3.11868 0.327785
      vertex -19 0 0
      vertex -19 3.11868 0.327785
    endloop
  endfacet
  facet normal 0 0.104528 -0.994522
    outer loop
      vertex 15 0 0
      vertex 19 3.11868 0.327785
      vertex 19 0 0
    endloop
  endfacet
  facet normal 0 0.104528 -0.994522
    outer loop
      vertex 19 3.11868 0.327785
      vertex 15 0 0
      vertex 15 3.11868 0.327785
    endloop
  endfacet
  facet normal 0 1 -0
    outer loop
      vertex -15 14.9178 13.4321
      vertex -19 14.9178 16.5679
      vertex -15 14.9178 16.5679
    endloop
  endfacet
  facet normal 0 1 0
    outer loop
      vertex -19 14.9178 16.5679
      vertex -15 14.9178 13.4321
      vertex -19 14.9178 13.4321
    endloop
  endfacet
  facet normal 0 1 -0
    outer loop
      vertex 19 14.9178 13.4321
      vertex 15 14.9178 16.5679
      vertex 19 14.9178 16.5679
    endloop
  endfacet
  facet normal 0 1 0
    outer loop
      vertex 15 14.9178 16.5679
      vertex 19 14.9178 13.4321
      vertex 15 14.9178 13.4321
    endloop
  endfacet
  facet normal 0 0.809017 0.587785
    outer loop
      vertex 19 11.1472 25.037
      vertex 15 12.7964 22.767
      vertex 15 11.1472 25.037
    endloop
  endfacet
  facet normal -1.09765e-07 0.809017 0.587785
    outer loop
      vertex 15 12.7964 22.767
      vertex 19 11.1472 25.037
      vertex 19 12.9904 22.5
    endloop
  endfacet
  facet normal 0 0.809016 0.587786
    outer loop
      vertex -15 11.3412 24.7699
      vertex -19 11.1472 25.037
      vertex -15 11.1472 25.037
    endloop
  endfacet
  facet normal -1 0 0
    outer loop
      vertex -19 3.11868 0.327785
      vertex -19 12.9904 7.5
      vertex -19 6.10105 1.29682
    endloop
  endfacet
  facet normal -1 0 0
    outer loop
      vertex -19 -3.11868 0.327785
      vertex -19 -12.9904 7.5
      vertex -19 0 0
    endloop
  endfacet
  facet normal 0 0.913546 -0.406735
    outer loop
      vertex -15 12.9904 7.5
      vertex -19 12.9904 7.5
      vertex -15 13.1246 7.80155
    endloop
  endfacet
  facet normal 8.27559e-08 0.913545 -0.406737
    outer loop
      vertex 19 12.9904 7.5
      vertex 15 14.1316 10.0632
      vertex 19 14.2658 10.3647
    endloop
  endfacet
  facet normal 0 0.913545 -0.406737
    outer loop
      vertex 15 14.1316 10.0632
      vertex 19 12.9904 7.5
      vertex 15 12.9904 7.5
    endloop
  endfacet
  facet normal 0 0.809017 -0.587785
    outer loop
      vertex -19 11.1472 4.96304
      vertex -15 12.7964 7.23295
      vertex -15 11.1472 4.96304
    endloop
  endfacet
  facet normal 3.96955e-08 0.809017 -0.587785
    outer loop
      vertex -15 12.7964 7.23295
      vertex -19 11.1472 4.96304
      vertex -19 12.9904 7.5
    endloop
  endfacet
  facet normal 0 0.809017 -0.587786
    outer loop
      vertex 19 11.1472 4.96304
      vertex 15 11.1472 4.96304
      vertex 15 11.3412 5.23009
    endloop
  endfacet
  facet normal -1 0 0
    outer loop
      vertex -19 -8.81678 2.86474
      vertex -19 -12.9904 7.5
      vertex -19 -6.10105 1.29682
    endloop
  endfacet
  facet normal 0 -0.5 -0.866025
    outer loop
      vertex -19 -8.81678 2.86474
      vertex -15 -6.10105 1.29682
      vertex -15 -8.81678 2.86474
    endloop
  endfacet
  facet normal -0 -0.5 -0.866025
    outer loop
      vertex -15 -6.10105 1.29682
      vertex -19 -8.81678 2.86474
      vertex -19 -6.10105 1.29682
    endloop
  endfacet
  facet normal 0 -0.5 -0.866025
    outer loop
      vertex 15 -8.81678 2.86474
      vertex 19 -6.10105 1.29682
      vertex 19 -8.81678 2.86474
    endloop
  endfacet
  facet normal -0 -0.5 -0.866025
    outer loop
      vertex 19 -6.10105 1.29682
      vertex 15 -8.81678 2.86474
      vertex 15 -6.10105 1.29682
    endloop
  endfacet
  facet normal 1 0 0
    outer loop
      vertex 19 3.11868 29.6722
      vertex 19 0 30
      vertex 19 12.9904 22.5
    endloop
  endfacet
  facet normal 0 0.913545 -0.406737
    outer loop
      vertex -15 13.1246 7.80155
      vertex -19 14.2658 10.3647
      vertex -15 14.2658 10.3647
    endloop
  endfacet
  facet normal 1.21035e-07 0.913545 -0.406737
    outer loop
      vertex -19 14.2658 10.3647
      vertex -15 13.1246 7.80155
      vertex -19 12.9904 7.5
    endloop
  endfacet
  facet normal 0 0.913546 -0.406736
    outer loop
      vertex 19 14.2658 10.3647
      vertex 15 14.1316 10.0632
      vertex 15 14.2658 10.3647
    endloop
  endfacet
  facet normal -1 0 0
    outer loop
      vertex -19 6.10105 1.29682
      vertex -19 12.9904 7.5
      vertex -19 8.81678 2.86474
    endloop
  endfacet
  facet normal 0 0.978148 -0.207912
    outer loop
      vertex -15 14.2658 10.3647
      vertex -19 14.9178 13.4321
      vertex -15 14.9178 13.4321
    endloop
  endfacet
  facet normal 0 0.978148 -0.207912
    outer loop
      vertex -19 14.9178 13.4321
      vertex -15 14.2658 10.3647
      vertex -19 14.2658 10.3647
    endloop
  endfacet
  facet normal 0 0.978148 -0.207912
    outer loop
      vertex 19 14.2658 10.3647
      vertex 15 14.9178 13.4321
      vertex 19 14.9178 13.4321
    endloop
  endfacet
  facet normal 0 0.978148 -0.207912
    outer loop
      vertex 15 14.9178 13.4321
      vertex 19 14.2658 10.3647
      vertex 15 14.2658 10.3647
    endloop
  endfacet
  facet normal -1 0 0
    outer loop
      vertex -19 -6.10105 1.29682
      vertex -19 -12.9904 7.5
      vertex -19 -3.11868 0.327785
    endloop
  endfacet
  facet normal 0 -0.104528 -0.994522
    outer loop
      vertex 15 -3.11868 0.327785
      vertex 19 0 0
      vertex 19 -3.11868 0.327785
    endloop
  endfacet
  facet normal -0 -0.104528 -0.994522
    outer loop
      vertex 19 0 0
      vertex 15 -3.11868 0.327785
      vertex 15 0 0
    endloop
  endfacet
  facet normal 0 -0.104528 -0.994522
    outer loop
      vertex -19 -3.11868 0.327785
      vertex -15 0 0
      vertex -15 -3.11868 0.327785
    endloop
  endfacet
  facet normal -0 -0.104528 -0.994522
    outer loop
      vertex -15 0 0
      vertex -19 -3.11868 0.327785
      vertex -19 0 0
    endloop
  endfacet
  facet normal 0 -0.913546 -0.406735
    outer loop
      vertex -15 -13.1246 7.80155
      vertex -19 -12.9904 7.5
      vertex -15 -12.9904 7.5
    endloop
  endfacet
  facet normal -0 -0.913545 -0.406737
    outer loop
      vertex 19 -12.9904 7.5
      vertex 15 -14.1316 10.0632
      vertex 15 -12.9904 7.5
    endloop
  endfacet
  facet normal 8.27559e-08 -0.913545 -0.406737
    outer loop
      vertex 15 -14.1316 10.0632
      vertex 19 -12.9904 7.5
      vertex 19 -14.2658 10.3647
    endloop
  endfacet
  facet normal 0 0.104528 0.994522
    outer loop
      vertex 15 0.328282 29.9655
      vertex 19 3.11868 29.6722
      vertex 15 3.11868 29.6722
    endloop
  endfacet
  facet normal -5.20499e-08 0.104528 0.994522
    outer loop
      vertex 19 3.11868 29.6722
      vertex 15 0.328282 29.9655
      vertex 19 0 30
    endloop
  endfacet
  facet normal 0 0.104523 0.994522
    outer loop
      vertex -15 3.11868 29.6722
      vertex -19 3.11868 29.6722
      vertex -15 2.79039 29.7067
    endloop
  endfacet
  facet normal 1 0 0
    outer loop
      vertex 19 -8.81678 27.1353
      vertex 19 -11.1472 25.037
      vertex 19 -12.9904 22.5
    endloop
  endfacet
  facet normal 1 0 0
    outer loop
      vertex 19 -3.11868 29.6722
      vertex 19 -6.10105 28.7032
      vertex 19 -12.9904 22.5
    endloop
  endfacet
  facet normal -0 0.5 0.866025
    outer loop
      vertex 15 8.81678 27.1353
      vertex 19 6.10105 28.7032
      vertex 19 8.81678 27.1353
    endloop
  endfacet
  facet normal 0 0.5 0.866025
    outer loop
      vertex 19 6.10105 28.7032
      vertex 15 8.81678 27.1353
      vertex 15 6.10105 28.7032
    endloop
  endfacet
  facet normal -0 0.5 0.866025
    outer loop
      vertex -19 8.81678 27.1353
      vertex -15 6.10105 28.7032
      vertex -15 8.81678 27.1353
    endloop
  endfacet
  facet normal 0 0.5 0.866025
    outer loop
      vertex -15 6.10105 28.7032
      vertex -19 8.81678 27.1353
      vertex -19 6.10105 28.7032
    endloop
  endfacet
  facet normal 1 0 0
    outer loop
      vertex 19 6.10105 28.7032
      vertex 19 3.11868 29.6722
      vertex 19 12.9904 22.5
    endloop
  endfacet
  facet normal 0 0.309017 -0.951057
    outer loop
      vertex -19 3.11868 0.327785
      vertex -15 6.10105 1.29682
      vertex -15 3.11868 0.327785
    endloop
  endfacet
  facet normal 0 0.309017 -0.951057
    outer loop
      vertex -15 6.10105 1.29682
      vertex -19 3.11868 0.327785
      vertex -19 6.10105 1.29682
    endloop
  endfacet
  facet normal 0 0.309017 -0.951057
    outer loop
      vertex 15 3.11868 0.327785
      vertex 19 6.10105 1.29682
      vertex 19 3.11868 0.327785
    endloop
  endfacet
  facet normal 0 0.309017 -0.951057
    outer loop
      vertex 19 6.10105 1.29682
      vertex 15 3.11868 0.327785
      vertex 15 6.10105 1.29682
    endloop
  endfacet
  facet normal -1 0 0
    outer loop
      vertex -19 8.81678 2.86474
      vertex -19 12.9904 7.5
      vertex -19 11.1472 4.96304
    endloop
  endfacet
  facet normal 0 0.669131 -0.743145
    outer loop
      vertex 15 8.81678 2.86474
      vertex 19 11.1472 4.96304
      vertex 19 8.81678 2.86474
    endloop
  endfacet
  facet normal 0 0.669131 -0.743145
    outer loop
      vertex 19 11.1472 4.96304
      vertex 15 8.81678 2.86474
      vertex 15 11.1472 4.96304
    endloop
  endfacet
  facet normal 0 0.669131 -0.743145
    outer loop
      vertex -19 8.81678 2.86474
      vertex -15 11.1472 4.96304
      vertex -15 8.81678 2.86474
    endloop
  endfacet
  facet normal 0 0.669131 -0.743145
    outer loop
      vertex -15 11.1472 4.96304
      vertex -19 8.81678 2.86474
      vertex -19 11.1472 4.96304
    endloop
  endfacet
  facet normal 0 0.809017 -0.587786
    outer loop
      vertex -15 12.7964 7.23295
      vertex -19 12.9904 7.5
      vertex -15 12.9904 7.5
    endloop
  endfacet
  facet normal 0 0.809017 -0.587785
    outer loop
      vertex 19 12.9904 7.5
      vertex 15 11.3412 5.23009
      vertex 15 12.9904 7.5
    endloop
  endfacet
  facet normal 5.4447e-08 0.809017 -0.587785
    outer loop
      vertex 15 11.3412 5.23009
      vertex 19 12.9904 7.5
      vertex 19 11.1472 4.96304
    endloop
  endfacet
  facet normal -1 0 0
    outer loop
      vertex -19 0 0
      vertex -19 -12.9904 7.5
      vertex -19 12.9904 7.5
    endloop
  endfacet
  facet normal -1 0 0
    outer loop
      vertex -19 0 0
      vertex -19 12.9904 7.5
      vertex -19 3.11868 0.327785
    endloop
  endfacet
  facet normal 0 -0.913545 0.406737
    outer loop
      vertex 15 -14.2658 19.6353
      vertex 19 -12.9904 22.5
      vertex 15 -12.9904 22.5
    endloop
  endfacet
  facet normal 0 -0.913545 0.406737
    outer loop
      vertex 19 -12.9904 22.5
      vertex 15 -14.2658 19.6353
      vertex 19 -14.2658 19.6353
    endloop
  endfacet
  facet normal 0 -0.913545 0.406737
    outer loop
      vertex -19 -14.2658 19.6353
      vertex -15 -12.9904 22.5
      vertex -19 -12.9904 22.5
    endloop
  endfacet
  facet normal 0 -0.913545 0.406737
    outer loop
      vertex -15 -12.9904 22.5
      vertex -19 -14.2658 19.6353
      vertex -15 -14.2658 19.6353
    endloop
  endfacet
  facet normal 0 -0.913545 -0.406737
    outer loop
      vertex -19 -14.2658 10.3647
      vertex -15 -13.1246 7.80155
      vertex -15 -14.2658 10.3647
    endloop
  endfacet
  facet normal 1.21035e-07 -0.913545 -0.406737
    outer loop
      vertex -15 -13.1246 7.80155
      vertex -19 -14.2658 10.3647
      vertex -19 -12.9904 7.5
    endloop
  endfacet
  facet normal -0 -0.913546 -0.406736
    outer loop
      vertex 19 -14.2658 10.3647
      vertex 15 -14.2658 10.3647
      vertex 15 -14.1316 10.0632
    endloop
  endfacet
  facet normal 0 -1 0
    outer loop
      vertex 15 -14.9178 13.4321
      vertex 19 -14.9178 16.5679
      vertex 15 -14.9178 16.5679
    endloop
  endfacet
  facet normal 0 -1 -0
    outer loop
      vertex 19 -14.9178 16.5679
      vertex 15 -14.9178 13.4321
      vertex 19 -14.9178 13.4321
    endloop
  endfacet
  facet normal 0 -1 0
    outer loop
      vertex -19 -14.9178 13.4321
      vertex -15 -14.9178 16.5679
      vertex -19 -14.9178 16.5679
    endloop
  endfacet
  facet normal 0 -1 -0
    outer loop
      vertex -15 -14.9178 16.5679
      vertex -19 -14.9178 13.4321
      vertex -15 -14.9178 13.4321
    endloop
  endfacet
  facet normal -0 -0.809017 -0.587786
    outer loop
      vertex -15 -12.9904 7.5
      vertex -19 -12.9904 7.5
      vertex -15 -12.7964 7.23295
    endloop
  endfacet
  facet normal 0 -0.809017 -0.587785
    outer loop
      vertex 15 -11.3412 5.23009
      vertex 19 -12.9904 7.5
      vertex 15 -12.9904 7.5
    endloop
  endfacet
  facet normal 5.4447e-08 -0.809017 -0.587785
    outer loop
      vertex 19 -12.9904 7.5
      vertex 15 -11.3412 5.23009
      vertex 19 -11.1472 4.96304
    endloop
  endfacet
  facet normal -1 0 0
    outer loop
      vertex -19 -11.1472 4.96304
      vertex -19 -12.9904 7.5
      vertex -19 -8.81678 2.86474
    endloop
  endfacet
  facet normal 0 -0.309017 -0.951057
    outer loop
      vertex -19 -6.10105 1.29682
      vertex -15 -3.11868 0.327785
      vertex -15 -6.10105 1.29682
    endloop
  endfacet
  facet normal -0 -0.309017 -0.951057
    outer loop
      vertex -15 -3.11868 0.327785
      vertex -19 -6.10105 1.29682
      vertex -19 -3.11868 0.327785
    endloop
  endfacet
  facet normal 0 -0.309017 -0.951057
    outer loop
      vertex 15 -6.10105 1.29682
      vertex 19 -3.11868 0.327785
      vertex 19 -6.10105 1.29682
    endloop
  endfacet
  facet normal -0 -0.309017 -0.951057
    outer loop
      vertex 19 -3.11868 0.327785
      vertex 15 -6.10105 1.29682
      vertex 15 -3.11868 0.327785
    endloop
  endfacet
  facet normal 0 0.913546 0.406736
    outer loop
      vertex 15 13.1246 22.1984
      vertex 15 12.9904 22.5
      vertex 19 12.9904 22.5
    endloop
  endfacet
  facet normal 0 0.913545 0.406737
    outer loop
      vertex -15 14.1316 19.9368
      vertex -19 12.9904 22.5
      vertex -15 12.9904 22.5
    endloop
  endfacet
  facet normal -2.56288e-07 0.913545 0.406737
    outer loop
      vertex -19 12.9904 22.5
      vertex -15 14.1316 19.9368
      vertex -19 14.2658 19.6353
    endloop
  endfacet
  facet normal 0 -0.5 0.866025
    outer loop
      vertex -19 -6.10105 28.7032
      vertex -15 -8.81678 27.1353
      vertex -15 -6.10105 28.7032
    endloop
  endfacet
  facet normal 0 -0.5 0.866025
    outer loop
      vertex -15 -8.81678 27.1353
      vertex -19 -6.10105 28.7032
      vertex -19 -8.81678 27.1353
    endloop
  endfacet
  facet normal 0 -0.5 0.866025
    outer loop
      vertex 15 -6.10105 28.7032
      vertex 19 -8.81678 27.1353
      vertex 19 -6.10105 28.7032
    endloop
  endfacet
  facet normal 0 -0.5 0.866025
    outer loop
      vertex 19 -8.81678 27.1353
      vertex 15 -6.10105 28.7032
      vertex 15 -8.81678 27.1353
    endloop
  endfacet
  facet normal -5.20499e-08 -0.104528 0.994522
    outer loop
      vertex 15 -0.328282 29.9655
      vertex 19 -3.11868 29.6722
      vertex 19 0 30
    endloop
  endfacet
  facet normal 0 -0.104528 0.994522
    outer loop
      vertex 19 -3.11868 29.6722
      vertex 15 -0.328282 29.9655
      vertex 15 -3.11868 29.6722
    endloop
  endfacet
  facet normal 0 -0.104523 0.994522
    outer loop
      vertex -15 -2.79039 29.7067
      vertex -19 -3.11868 29.6722
      vertex -15 -3.11868 29.6722
    endloop
  endfacet
  facet normal 0 -0.66913 0.743145
    outer loop
      vertex -19 -8.81678 27.1353
      vertex -15 -11.1472 25.037
      vertex -15 -8.81678 27.1353
    endloop
  endfacet
  facet normal 0 -0.66913 0.743145
    outer loop
      vertex -15 -11.1472 25.037
      vertex -19 -8.81678 27.1353
      vertex -19 -11.1472 25.037
    endloop
  endfacet
  facet normal 0 -0.66913 0.743145
    outer loop
      vertex 15 -8.81678 27.1353
      vertex 19 -11.1472 25.037
      vertex 19 -8.81678 27.1353
    endloop
  endfacet
  facet normal 0 -0.66913 0.743145
    outer loop
      vertex 19 -11.1472 25.037
      vertex 15 -8.81678 27.1353
      vertex 15 -11.1472 25.037
    endloop
  endfacet
  facet normal -0 0.309017 0.951057
    outer loop
      vertex -19 6.10105 28.7032
      vertex -15 3.11868 29.6722
      vertex -15 6.10105 28.7032
    endloop
  endfacet
  facet normal 0 0.309017 0.951057
    outer loop
      vertex -15 3.11868 29.6722
      vertex -19 6.10105 28.7032
      vertex -19 3.11868 29.6722
    endloop
  endfacet
  facet normal -0 0.309017 0.951057
    outer loop
      vertex 15 6.10105 28.7032
      vertex 19 3.11868 29.6722
      vertex 19 6.10105 28.7032
    endloop
  endfacet
  facet normal 0 0.309017 0.951057
    outer loop
      vertex 19 3.11868 29.6722
      vertex 15 6.10105 28.7032
      vertex 15 3.11868 29.6722
    endloop
  endfacet
  facet normal 1 0 0
    outer loop
      vertex 19 8.81678 27.1353
      vertex 19 6.10105 28.7032
      vertex 19 12.9904 22.5
    endloop
  endfacet
  facet normal 1 0 0
    outer loop
      vertex 19 11.1472 25.037
      vertex 19 8.81678 27.1353
      vertex 19 12.9904 22.5
    endloop
  endfacet
  facet normal 0 0.5 -0.866025
    outer loop
      vertex -19 6.10105 1.29682
      vertex -15 8.81678 2.86474
      vertex -15 6.10105 1.29682
    endloop
  endfacet
  facet normal 0 0.5 -0.866025
    outer loop
      vertex -15 8.81678 2.86474
      vertex -19 6.10105 1.29682
      vertex -19 8.81678 2.86474
    endloop
  endfacet
  facet normal 0 0.5 -0.866025
    outer loop
      vertex 15 6.10105 1.29682
      vertex 19 8.81678 2.86474
      vertex 19 6.10105 1.29682
    endloop
  endfacet
  facet normal 0 0.5 -0.866025
    outer loop
      vertex 19 8.81678 2.86474
      vertex 15 6.10105 1.29682
      vertex 15 8.81678 2.86474
    endloop
  endfacet
  facet normal 0 -0.978148 0.207912
    outer loop
      vertex -19 -14.9178 16.5679
      vertex -15 -14.2658 19.6353
      vertex -19 -14.2658 19.6353
    endloop
  endfacet
  facet normal 0 -0.978148 0.207912
    outer loop
      vertex -15 -14.2658 19.6353
      vertex -19 -14.9178 16.5679
      vertex -15 -14.9178 16.5679
    endloop
  endfacet
  facet normal 0 -0.978148 0.207912
    outer loop
      vertex 15 -14.9178 16.5679
      vertex 19 -14.2658 19.6353
      vertex 15 -14.2658 19.6353
    endloop
  endfacet
  facet normal 0 -0.978148 0.207912
    outer loop
      vertex 19 -14.2658 19.6353
      vertex 15 -14.9178 16.5679
      vertex 19 -14.9178 16.5679
    endloop
  endfacet
  facet normal -1 0 0
    outer loop
      vertex -19 14.2658 10.3647
      vertex -19 14.9178 16.5679
      vertex -19 14.9178 13.4321
    endloop
  endfacet
  facet normal -1 0 0
    outer loop
      vertex -19 14.2658 10.3647
      vertex -19 14.2658 19.6353
      vertex -19 14.9178 16.5679
    endloop
  endfacet
  facet normal -1 0 0
    outer loop
      vertex -19 12.9904 7.5
      vertex -19 14.2658 19.6353
      vertex -19 14.2658 10.3647
    endloop
  endfacet
  facet normal -1 0 0
    outer loop
      vertex -19 12.9904 7.5
      vertex -19 12.9904 22.5
      vertex -19 14.2658 19.6353
    endloop
  endfacet
  facet normal -1 0 0
    outer loop
      vertex -19 12.9904 7.5
      vertex -19 11.1472 25.037
      vertex -19 12.9904 22.5
    endloop
  endfacet
  facet normal -1 0 0
    outer loop
      vertex -19 12.9904 7.5
      vertex -19 8.81678 27.1353
      vertex -19 11.1472 25.037
    endloop
  endfacet
  facet normal -1 0 0
    outer loop
      vertex -19 12.9904 7.5
      vertex -19 6.10105 28.7032
      vertex -19 8.81678 27.1353
    endloop
  endfacet
  facet normal -1 0 0
    outer loop
      vertex -19 12.9904 7.5
      vertex -19 3.11868 29.6722
      vertex -19 6.10105 28.7032
    endloop
  endfacet
  facet normal -1 0 0
    outer loop
      vertex -19 12.9904 7.5
      vertex -19 0 30
      vertex -19 3.11868 29.6722
    endloop
  endfacet
  facet normal -1 0 0
    outer loop
      vertex -19 12.9904 7.5
      vertex -19 -3.11868 29.6722
      vertex -19 0 30
    endloop
  endfacet
  facet normal -1 0 0
    outer loop
      vertex -19 12.9904 7.5
      vertex -19 -6.10105 28.7032
      vertex -19 -3.11868 29.6722
    endloop
  endfacet
  facet normal -1 0 0
    outer loop
      vertex -19 12.9904 7.5
      vertex -19 -8.81678 27.1353
      vertex -19 -6.10105 28.7032
    endloop
  endfacet
  facet normal -1 0 0
    outer loop
      vertex -19 12.9904 7.5
      vertex -19 -11.1472 25.037
      vertex -19 -8.81678 27.1353
    endloop
  endfacet
  facet normal -1 0 0
    outer loop
      vertex -19 -12.9904 7.5
      vertex -19 -11.1472 25.037
      vertex -19 12.9904 7.5
    endloop
  endfacet
  facet normal -1 0 0
    outer loop
      vertex -19 -12.9904 7.5
      vertex -19 -12.9904 22.5
      vertex -19 -11.1472 25.037
    endloop
  endfacet
  facet normal -1 0 0
    outer loop
      vertex -19 -14.2658 10.3647
      vertex -19 -12.9904 22.5
      vertex -19 -12.9904 7.5
    endloop
  endfacet
  facet normal -1 0 0
    outer loop
      vertex -19 -14.2658 10.3647
      vertex -19 -14.2658 19.6353
      vertex -19 -12.9904 22.5
    endloop
  endfacet
  facet normal -1 0 0
    outer loop
      vertex -19 -14.9178 13.4321
      vertex -19 -14.2658 19.6353
      vertex -19 -14.2658 10.3647
    endloop
  endfacet
  facet normal -1 0 0
    outer loop
      vertex -19 -14.2658 19.6353
      vertex -19 -14.9178 13.4321
      vertex -19 -14.9178 16.5679
    endloop
  endfacet
  facet normal 0 -0.669131 -0.743145
    outer loop
      vertex -19 -11.1472 4.96304
      vertex -15 -8.81678 2.86474
      vertex -15 -11.1472 4.96304
    endloop
  endfacet
  facet normal -0 -0.669131 -0.743145
    outer loop
      vertex -15 -8.81678 2.86474
      vertex -19 -11.1472 4.96304
      vertex -19 -8.81678 2.86474
    endloop
  endfacet
  facet normal 0 -0.669131 -0.743145
    outer loop
      vertex 15 -11.1472 4.96304
      vertex 19 -8.81678 2.86474
      vertex 19 -11.1472 4.96304
    endloop
  endfacet
  facet normal -0 -0.669131 -0.743145
    outer loop
      vertex 19 -8.81678 2.86474
      vertex 15 -11.1472 4.96304
      vertex 15 -8.81678 2.86474
    endloop
  endfacet
  facet normal 3.96955e-08 -0.809017 -0.587785
    outer loop
      vertex -19 -11.1472 4.96304
      vertex -15 -12.7964 7.23295
      vertex -19 -12.9904 7.5
    endloop
  endfacet
  facet normal 0 -0.809017 -0.587785
    outer loop
      vertex -15 -12.7964 7.23295
      vertex -19 -11.1472 4.96304
      vertex -15 -11.1472 4.96304
    endloop
  endfacet
  facet normal -0 -0.809017 -0.587786
    outer loop
      vertex 19 -11.1472 4.96304
      vertex 15 -11.3412 5.23009
      vertex 15 -11.1472 4.96304
    endloop
  endfacet
  facet normal -6.23404e-08 0.913545 0.406737
    outer loop
      vertex 19 14.2658 19.6353
      vertex 15 13.1246 22.1984
      vertex 19 12.9904 22.5
    endloop
  endfacet
  facet normal 0 0.913545 0.406737
    outer loop
      vertex 15 13.1246 22.1984
      vertex 19 14.2658 19.6353
      vertex 15 14.2658 19.6353
    endloop
  endfacet
  facet normal 0 0.913547 0.406734
    outer loop
      vertex -15 14.2658 19.6353
      vertex -19 14.2658 19.6353
      vertex -15 14.1316 19.9368
    endloop
  endfacet
  facet normal 0 0.978148 0.207912
    outer loop
      vertex -15 14.9178 16.5679
      vertex -19 14.2658 19.6353
      vertex -15 14.2658 19.6353
    endloop
  endfacet
  facet normal 0 0.978148 0.207912
    outer loop
      vertex -19 14.2658 19.6353
      vertex -15 14.9178 16.5679
      vertex -19 14.9178 16.5679
    endloop
  endfacet
  facet normal 0 0.978148 0.207912
    outer loop
      vertex 19 14.9178 16.5679
      vertex 15 14.2658 19.6353
      vertex 19 14.2658 19.6353
    endloop
  endfacet
  facet normal 0 0.978148 0.207912
    outer loop
      vertex 15 14.2658 19.6353
      vertex 19 14.9178 16.5679
      vertex 15 14.9178 16.5679
    endloop
  endfacet
  facet normal 0 0.104529 0.994522
    outer loop
      vertex 15 0.328282 29.9655
      vertex 15 0 30
      vertex 19 0 30
    endloop
  endfacet
  facet normal 4.2529e-07 0.104528 0.994522
    outer loop
      vertex -19 0 30
      vertex -15 2.79039 29.7067
      vertex -19 3.11868 29.6722
    endloop
  endfacet
  facet normal 0 0.104529 0.994522
    outer loop
      vertex -15 2.79039 29.7067
      vertex -19 0 30
      vertex -15 0 30
    endloop
  endfacet
  facet normal 0 -0.309017 0.951057
    outer loop
      vertex -19 -3.11868 29.6722
      vertex -15 -6.10105 28.7032
      vertex -15 -3.11868 29.6722
    endloop
  endfacet
  facet normal 0 -0.309017 0.951057
    outer loop
      vertex -15 -6.10105 28.7032
      vertex -19 -3.11868 29.6722
      vertex -19 -6.10105 28.7032
    endloop
  endfacet
  facet normal 0 -0.309017 0.951057
    outer loop
      vertex 15 -3.11868 29.6722
      vertex 19 -6.10105 28.7032
      vertex 19 -3.11868 29.6722
    endloop
  endfacet
  facet normal 0 -0.309017 0.951057
    outer loop
      vertex 19 -6.10105 28.7032
      vertex 15 -3.11868 29.6722
      vertex 15 -6.10105 28.7032
    endloop
  endfacet
  facet normal 1 0 0
    outer loop
      vertex 19 0 30
      vertex 19 -3.11868 29.6722
      vertex 19 -12.9904 22.5
    endloop
  endfacet
  facet normal 0 -0.809017 0.587785
    outer loop
      vertex 15 -12.9904 22.5
      vertex 19 -11.1472 25.037
      vertex 15 -11.1472 25.037
    endloop
  endfacet
  facet normal 0 -0.809017 0.587785
    outer loop
      vertex 19 -11.1472 25.037
      vertex 15 -12.9904 22.5
      vertex 19 -12.9904 22.5
    endloop
  endfacet
  facet normal 0 -0.809017 0.587785
    outer loop
      vertex -19 -12.9904 22.5
      vertex -15 -11.1472 25.037
      vertex -19 -11.1472 25.037
    endloop
  endfacet
  facet normal 0 -0.809017 0.587785
    outer loop
      vertex -15 -11.1472 25.037
      vertex -19 -12.9904 22.5
      vertex -15 -12.9904 22.5
    endloop
  endfacet
  facet normal -0 0.66913 0.743145
    outer loop
      vertex 15 11.1472 25.037
      vertex 19 8.81678 27.1353
      vertex 19 11.1472 25.037
    endloop
  endfacet
  facet normal 0 0.66913 0.743145
    outer loop
      vertex 19 8.81678 27.1353
      vertex 15 11.1472 25.037
      vertex 15 8.81678 27.1353
    endloop
  endfacet
  facet normal -0 0.66913 0.743145
    outer loop
      vertex -19 11.1472 25.037
      vertex -15 8.81678 27.1353
      vertex -15 11.1472 25.037
    endloop
  endfacet
  facet normal 0 0.66913 0.743145
    outer loop
      vertex -15 8.81678 27.1353
      vertex -19 11.1472 25.037
      vertex -19 8.81678 27.1353
    endloop
  endfacet
  facet normal 0 -0.978148 -0.207912
    outer loop
      vertex 15 -14.2658 10.3647
      vertex 19 -14.9178 13.4321
      vertex 15 -14.9178 13.4321
    endloop
  endfacet
  facet normal 0 -0.978148 -0.207912
    outer loop
      vertex 19 -14.9178 13.4321
      vertex 15 -14.2658 10.3647
      vertex 19 -14.2658 10.3647
    endloop
  endfacet
  facet normal 0 -0.978148 -0.207912
    outer loop
      vertex -19 -14.2658 10.3647
      vertex -15 -14.9178 13.4321
      vertex -19 -14.9178 13.4321
    endloop
  endfacet
  facet normal 0 -0.978148 -0.207912
    outer loop
      vertex -15 -14.9178 13.4321
      vertex -19 -14.2658 10.3647
      vertex -15 -14.2658 10.3647
    endloop
  endfacet
  facet normal 1 0 0
    outer loop
      vertex 19 14.2658 19.6353
      vertex 19 14.9178 13.4321
      vertex 19 14.9178 16.5679
    endloop
  endfacet
  facet normal 1 0 0
    outer loop
      vertex 19 14.2658 19.6353
      vertex 19 14.2658 10.3647
      vertex 19 14.9178 13.4321
    endloop
  endfacet
  facet normal 1 0 0
    outer loop
      vertex 19 12.9904 22.5
      vertex 19 14.2658 10.3647
      vertex 19 14.2658 19.6353
    endloop
  endfacet
  facet normal 1 0 0
    outer loop
      vertex 19 12.9904 22.5
      vertex 19 12.9904 7.5
      vertex 19 14.2658 10.3647
    endloop
  endfacet
  facet normal 1 0 0
    outer loop
      vertex 19 12.9904 22.5
      vertex 19 11.1472 4.96304
      vertex 19 12.9904 7.5
    endloop
  endfacet
  facet normal 1 0 0
    outer loop
      vertex 19 12.9904 22.5
      vertex 19 8.81678 2.86474
      vertex 19 11.1472 4.96304
    endloop
  endfacet
  facet normal 1 0 0
    outer loop
      vertex 19 12.9904 22.5
      vertex 19 6.10105 1.29682
      vertex 19 8.81678 2.86474
    endloop
  endfacet
  facet normal 1 0 0
    outer loop
      vertex 19 12.9904 22.5
      vertex 19 3.11868 0.327785
      vertex 19 6.10105 1.29682
    endloop
  endfacet
  facet normal 1 0 0
    outer loop
      vertex 19 12.9904 22.5
      vertex 19 0 0
      vertex 19 3.11868 0.327785
    endloop
  endfacet
  facet normal 1 0 0
    outer loop
      vertex 19 12.9904 22.5
      vertex 19 -3.11868 0.327785
      vertex 19 0 0
    endloop
  endfacet
  facet normal 1 0 0
    outer loop
      vertex 19 12.9904 22.5
      vertex 19 -6.10105 1.29682
      vertex 19 -3.11868 0.327785
    endloop
  endfacet
  facet normal 1 0 0
    outer loop
      vertex 19 12.9904 22.5
      vertex 19 -8.81678 2.86474
      vertex 19 -6.10105 1.29682
    endloop
  endfacet
  facet normal 1 0 0
    outer loop
      vertex 19 12.9904 22.5
      vertex 19 -11.1472 4.96304
      vertex 19 -8.81678 2.86474
    endloop
  endfacet
  facet normal 1 -0 0
    outer loop
      vertex 19 -12.9904 22.5
      vertex 19 -11.1472 4.96304
      vertex 19 12.9904 22.5
    endloop
  endfacet
  facet normal 1 0 0
    outer loop
      vertex 19 -12.9904 22.5
      vertex 19 -12.9904 7.5
      vertex 19 -11.1472 4.96304
    endloop
  endfacet
  facet normal 1 -0 0
    outer loop
      vertex 19 -14.2658 19.6353
      vertex 19 -12.9904 7.5
      vertex 19 -12.9904 22.5
    endloop
  endfacet
  facet normal 1 0 0
    outer loop
      vertex 19 -14.2658 19.6353
      vertex 19 -14.2658 10.3647
      vertex 19 -12.9904 7.5
    endloop
  endfacet
  facet normal 1 -0 0
    outer loop
      vertex 19 -14.9178 16.5679
      vertex 19 -14.2658 10.3647
      vertex 19 -14.2658 19.6353
    endloop
  endfacet
  facet normal 1 0 0
    outer loop
      vertex 19 -14.2658 10.3647
      vertex 19 -14.9178 16.5679
      vertex 19 -14.9178 13.4321
    endloop
  endfacet
  facet normal -0 0.809016 0.587786
    outer loop
      vertex 15 12.9904 22.5
      vertex 15 12.7964 22.767
      vertex 19 12.9904 22.5
    endloop
  endfacet
  facet normal -0 0.809017 0.587785
    outer loop
      vertex -19 12.9904 22.5
      vertex -15 11.3412 24.7699
      vertex -15 12.9904 22.5
    endloop
  endfacet
  facet normal -1.09765e-07 0.809017 0.587785
    outer loop
      vertex -15 11.3412 24.7699
      vertex -19 12.9904 22.5
      vertex -19 11.1472 25.037
    endloop
  endfacet
  facet normal 0 -0.104529 0.994522
    outer loop
      vertex 15 0 30
      vertex 15 -0.328282 29.9655
      vertex 19 0 30
    endloop
  endfacet
  facet normal 0 -0.104529 0.994522
    outer loop
      vertex -19 0 30
      vertex -15 -2.79039 29.7067
      vertex -15 0 30
    endloop
  endfacet
  facet normal 4.2529e-07 -0.104528 0.994522
    outer loop
      vertex -15 -2.79039 29.7067
      vertex -19 0 30
      vertex -19 -3.11868 29.6722
    endloop
  endfacet
  facet normal 1 0 0
    outer loop
      vertex 19 -6.10105 28.7032
      vertex 19 -8.81678 27.1353
      vertex 19 -12.9904 22.5
    endloop
  endfacet
  facet normal -0.980785 -0.195091 0
    outer loop
      vertex 5 0 25
      vertex 4.6194 1.91342 30
      vertex 4.6194 1.91342 25
    endloop
  endfacet
  facet normal -0.980785 -0.195091 0
    outer loop
      vertex 4.6194 1.91342 30
      vertex 5 0 25
      vertex 5 0 30
    endloop
  endfacet
  facet normal 0.980785 -0.195091 0
    outer loop
      vertex -5 0 30
      vertex -4.6194 1.91342 25
      vertex -4.6194 1.91342 30
    endloop
  endfacet
  facet normal 0.980785 -0.195091 0
    outer loop
      vertex -4.6194 1.91342 25
      vertex -5 0 30
      vertex -5 0 25
    endloop
  endfacet
  facet normal -0.195091 -0.980785 0
    outer loop
      vertex 0 5 25
      vertex 1.91342 4.6194 30
      vertex 0 5 30
    endloop
  endfacet
  facet normal -0.195091 -0.980785 -0
    outer loop
      vertex 1.91342 4.6194 30
      vertex 0 5 25
      vertex 1.91342 4.6194 25
    endloop
  endfacet
  facet normal -0.83147 -0.55557 0
    outer loop
      vertex 4.6194 1.91342 25
      vertex 3.53553 3.53553 30
      vertex 3.53553 3.53553 25
    endloop
  endfacet
  facet normal -0.83147 -0.55557 0
    outer loop
      vertex 3.53553 3.53553 30
      vertex 4.6194 1.91342 25
      vertex 4.6194 1.91342 30
    endloop
  endfacet
  facet normal -0.195091 0.980785 0
    outer loop
      vertex 1.91342 -4.6194 25
      vertex 0 -5 30
      vertex 1.91342 -4.6194 30
    endloop
  endfacet
  facet normal -0.195091 0.980785 0
    outer loop
      vertex 0 -5 30
      vertex 1.91342 -4.6194 25
      vertex 0 -5 25
    endloop
  endfacet
  facet normal 0.195091 0.980785 -0
    outer loop
      vertex 0 -5 25
      vertex -1.91342 -4.6194 30
      vertex 0 -5 30
    endloop
  endfacet
  facet normal 0.195091 0.980785 0
    outer loop
      vertex -1.91342 -4.6194 30
      vertex 0 -5 25
      vertex -1.91342 -4.6194 25
    endloop
  endfacet
  facet normal -0.55557 -0.83147 0
    outer loop
      vertex 1.91342 4.6194 25
      vertex 3.53553 3.53553 30
      vertex 1.91342 4.6194 30
    endloop
  endfacet
  facet normal -0.55557 -0.83147 -0
    outer loop
      vertex 3.53553 3.53553 30
      vertex 1.91342 4.6194 25
      vertex 3.53553 3.53553 25
    endloop
  endfacet
  facet normal 0.195091 -0.980785 0
    outer loop
      vertex -1.91342 4.6194 25
      vertex 0 5 30
      vertex -1.91342 4.6194 30
    endloop
  endfacet
  facet normal 0.195091 -0.980785 0
    outer loop
      vertex 0 5 30
      vertex -1.91342 4.6194 25
      vertex 0 5 25
    endloop
  endfacet
  facet normal 0.55557 -0.83147 0
    outer loop
      vertex -3.53553 3.53553 25
      vertex -1.91342 4.6194 30
      vertex -3.53553 3.53553 30
    endloop
  endfacet
  facet normal 0.55557 -0.83147 0
    outer loop
      vertex -1.91342 4.6194 30
      vertex -3.53553 3.53553 25
      vertex -1.91342 4.6194 25
    endloop
  endfacet
  facet normal 0.980785 0.195091 0
    outer loop
      vertex -4.6194 -1.91342 30
      vertex -5 0 25
      vertex -5 0 30
    endloop
  endfacet
  facet normal 0.980785 0.195091 0
    outer loop
      vertex -5 0 25
      vertex -4.6194 -1.91342 30
      vertex -4.6194 -1.91342 25
    endloop
  endfacet
  facet normal 0.55557 0.83147 -0
    outer loop
      vertex -1.91342 -4.6194 25
      vertex -3.53553 -3.53553 30
      vertex -1.91342 -4.6194 30
    endloop
  endfacet
  facet normal 0.55557 0.83147 0
    outer loop
      vertex -3.53553 -3.53553 30
      vertex -1.91342 -4.6194 25
      vertex -3.53553 -3.53553 25
    endloop
  endfacet
  facet normal 0 0 1
    outer loop
      vertex 4.6194 1.91342 25
      vertex 4.6194 -1.91342 25
      vertex 5 0 25
    endloop
  endfacet
  facet normal 0 0 1
    outer loop
      vertex 3.53553 3.53553 25
      vertex 4.6194 -1.91342 25
      vertex 4.6194 1.91342 25
    endloop
  endfacet
  facet normal 0 0 1
    outer loop
      vertex 3.53553 3.53553 25
      vertex 3.53553 -3.53553 25
      vertex 4.6194 -1.91342 25
    endloop
  endfacet
  facet normal 0 0 1
    outer loop
      vertex 1.91342 4.6194 25
      vertex 3.53553 -3.53553 25
      vertex 3.53553 3.53553 25
    endloop
  endfacet
  facet normal 0 0 1
    outer loop
      vertex 1.91342 4.6194 25
      vertex 1.91342 -4.6194 25
      vertex 3.53553 -3.53553 25
    endloop
  endfacet
  facet normal 0 0 1
    outer loop
      vertex 0 5 25
      vertex 1.91342 -4.6194 25
      vertex 1.91342 4.6194 25
    endloop
  endfacet
  facet normal 0 0 1
    outer loop
      vertex 0 5 25
      vertex 0 -5 25
      vertex 1.91342 -4.6194 25
    endloop
  endfacet
  facet normal -0 0 1
    outer loop
      vertex -1.91342 4.6194 25
      vertex 0 -5 25
      vertex 0 5 25
    endloop
  endfacet
  facet normal 0 0 1
    outer loop
      vertex -1.91342 4.6194 25
      vertex -1.91342 -4.6194 25
      vertex 0 -5 25
    endloop
  endfacet
  facet normal -0 0 1
    outer loop
      vertex -3.53553 3.53553 25
      vertex -1.91342 -4.6194 25
      vertex -1.91342 4.6194 25
    endloop
  endfacet
  facet normal 0 0 1
    outer loop
      vertex -3.53553 3.53553 25
      vertex -3.53553 -3.53553 25
      vertex -1.91342 -4.6194 25
    endloop
  endfacet
  facet normal -0 0 1
    outer loop
      vertex -4.6194 1.91342 25
      vertex -3.53553 -3.53553 25
      vertex -3.53553 3.53553 25
    endloop
  endfacet
  facet normal 0 0 1
    outer loop
      vertex -4.6194 1.91342 25
      vertex -4.6194 -1.91342 25
      vertex -3.53553 -3.53553 25
    endloop
  endfacet
  facet normal 0 -0 1
    outer loop
      vertex -4.6194 -1.91342 25
      vertex -4.6194 1.91342 25
      vertex -5 0 25
    endloop
  endfacet
  facet normal 0.83147 0.55557 0
    outer loop
      vertex -3.53553 -3.53553 30
      vertex -4.6194 -1.91342 25
      vertex -4.6194 -1.91342 30
    endloop
  endfacet
  facet normal 0.83147 0.55557 0
    outer loop
      vertex -4.6194 -1.91342 25
      vertex -3.53553 -3.53553 30
      vertex -3.53553 -3.53553 25
    endloop
  endfacet
  facet normal 0.83147 -0.55557 0
    outer loop
      vertex -4.6194 1.91342 30
      vertex -3.53553 3.53553 25
      vertex -3.53553 3.53553 30
    endloop
  endfacet
  facet normal 0.83147 -0.55557 0
    outer loop
      vertex -3.53553 3.53553 25
      vertex -4.6194 1.91342 30
      vertex -4.6194 1.91342 25
    endloop
  endfacet
  facet normal -0.83147 0.55557 0
    outer loop
      vertex 3.53553 -3.53553 25
      vertex 4.6194 -1.91342 30
      vertex 4.6194 -1.91342 25
    endloop
  endfacet
  facet normal -0.83147 0.55557 0
    outer loop
      vertex 4.6194 -1.91342 30
      vertex 3.53553 -3.53553 25
      vertex 3.53553 -3.53553 30
    endloop
  endfacet
  facet normal -0.55557 0.83147 0
    outer loop
      vertex 3.53553 -3.53553 25
      vertex 1.91342 -4.6194 30
      vertex 3.53553 -3.53553 30
    endloop
  endfacet
  facet normal -0.55557 0.83147 0
    outer loop
      vertex 1.91342 -4.6194 30
      vertex 3.53553 -3.53553 25
      vertex 1.91342 -4.6194 25
    endloop
  endfacet
  facet normal -0.980785 0.195091 0
    outer loop
      vertex 4.6194 -1.91342 25
      vertex 5 0 30
      vertex 5 0 25
    endloop
  endfacet
  facet normal -0.980785 0.195091 0
    outer loop
      vertex 5 0 30
      vertex 4.6194 -1.91342 25
      vertex 4.6194 -1.91342 30
    endloop
  endfacet
endsolid OpenSCAD_Model
