solid OpenSCAD_Model
  facet normal -1 -0 0
    outer loop
      vertex -15 -14.9178 13.4321
      vertex -15 -15 0
      vertex -15 -14.9178 16.5679
    endloop
  endfacet
  facet normal -1 -0 0
    outer loop
      vertex -15 -14.2658 10.3647
      vertex -15 -15 0
      vertex -15 -14.9178 13.4321
    endloop
  endfacet
  facet normal -1 -0 0
    outer loop
      vertex -15 -13.4542 8.54172
      vertex -15 -15 0
      vertex -15 -14.2658 10.3647
    endloop
  endfacet
  facet normal -1 -0 0
    outer loop
      vertex -15 -12.9904 7.5
      vertex -15 -15 0
      vertex -15 -13.4542 8.54172
    endloop
  endfacet
  facet normal -1 -0 0
    outer loop
      vertex -15 -12.3201 6.57747
      vertex -15 -15 0
      vertex -15 -12.9904 7.5
    endloop
  endfacet
  facet normal -1 -0 0
    outer loop
      vertex -15 -11.1472 4.96304
      vertex -15 -15 0
      vertex -15 -12.3201 6.57747
    endloop
  endfacet
  facet normal -1 -0 0
    outer loop
      vertex -15 -8.81678 2.86474
      vertex -15 -15 0
      vertex -15 -11.1472 4.96304
    endloop
  endfacet
  facet normal -1 -0 0
    outer loop
      vertex -15 -6.10105 1.29682
      vertex -15 -15 0
      vertex -15 -8.81678 2.86474
    endloop
  endfacet
  facet normal -1 -0 0
    outer loop
      vertex -15 -3.11868 0.327785
      vertex -15 -15 0
      vertex -15 -6.10105 1.29682
    endloop
  endfacet
  facet normal -1 0 0
    outer loop
      vertex -15 -15 0
      vertex -15 -3.11868 0.327785
      vertex -15 0 0
    endloop
  endfacet
  facet normal -1 0 0
    outer loop
      vertex -15 15 0
      vertex -15 14.9178 13.4321
      vertex -15 15 30
    endloop
  endfacet
  facet normal -1 0 0
    outer loop
      vertex -15 15 0
      vertex -15 14.2658 10.3647
      vertex -15 14.9178 13.4321
    endloop
  endfacet
  facet normal -1 0 0
    outer loop
      vertex -15 15 0
      vertex -15 13.4542 8.54172
      vertex -15 14.2658 10.3647
    endloop
  endfacet
  facet normal -1 0 0
    outer loop
      vertex -15 15 0
      vertex -15 12.9904 7.5
      vertex -15 13.4542 8.54172
    endloop
  endfacet
  facet normal -1 0 0
    outer loop
      vertex -15 15 0
      vertex -15 12.3201 6.57747
      vertex -15 12.9904 7.5
    endloop
  endfacet
  facet normal -1 0 0
    outer loop
      vertex -15 15 0
      vertex -15 11.1472 4.96304
      vertex -15 12.3201 6.57747
    endloop
  endfacet
  facet normal -1 0 0
    outer loop
      vertex -15 15 0
      vertex -15 8.81678 2.86474
      vertex -15 11.1472 4.96304
    endloop
  endfacet
  facet normal -1 0 0
    outer loop
      vertex -15 15 0
      vertex -15 6.10105 1.29682
      vertex -15 8.81678 2.86474
    endloop
  endfacet
  facet normal -1 0 0
    outer loop
      vertex -15 15 0
      vertex -15 3.11868 0.327785
      vertex -15 6.10105 1.29682
    endloop
  endfacet
  facet normal -1 0 -0
    outer loop
      vertex -15 3.11868 0.327785
      vertex -15 15 0
      vertex -15 0 0
    endloop
  endfacet
  facet normal -1 0 0
    outer loop
      vertex -15 14.9178 16.5679
      vertex -15 15 30
      vertex -15 14.9178 13.4321
    endloop
  endfacet
  facet normal -1 0 0
    outer loop
      vertex -15 14.2658 19.6353
      vertex -15 15 30
      vertex -15 14.9178 16.5679
    endloop
  endfacet
  facet normal -1 0 0
    outer loop
      vertex -15 13.802 20.677
      vertex -15 15 30
      vertex -15 14.2658 19.6353
    endloop
  endfacet
  facet normal -1 0 0
    outer loop
      vertex -15 12.9904 22.5
      vertex -15 15 30
      vertex -15 13.802 20.677
    endloop
  endfacet
  facet normal -1 0 0
    outer loop
      vertex -15 11.8174 24.1144
      vertex -15 15 30
      vertex -15 12.9904 22.5
    endloop
  endfacet
  facet normal -1 0 0
    outer loop
      vertex -15 11.1472 25.037
      vertex -15 15 30
      vertex -15 11.8174 24.1144
    endloop
  endfacet
  facet normal -1 0 0
    outer loop
      vertex -15 8.81678 27.1353
      vertex -15 15 30
      vertex -15 11.1472 25.037
    endloop
  endfacet
  facet normal -1 0 0
    outer loop
      vertex -15 6.10105 28.7032
      vertex -15 15 30
      vertex -15 8.81678 27.1353
    endloop
  endfacet
  facet normal -1 0 0
    outer loop
      vertex -15 3.11868 29.6722
      vertex -15 15 30
      vertex -15 6.10105 28.7032
    endloop
  endfacet
  facet normal -1 0 0
    outer loop
      vertex -15 1.98461 29.7914
      vertex -15 15 30
      vertex -15 3.11868 29.6722
    endloop
  endfacet
  facet normal -1 -0 0
    outer loop
      vertex -15 15 30
      vertex -15 1.98461 29.7914
      vertex -15 0 30
    endloop
  endfacet
  facet normal -1 0 0
    outer loop
      vertex -15 -15 30
      vertex -15 -1.98461 29.7914
      vertex -15 -3.11868 29.6722
    endloop
  endfacet
  facet normal -1 0 0
    outer loop
      vertex -15 -15 30
      vertex -15 -11.8174 24.1144
      vertex -15 -12.9904 22.5
    endloop
  endfacet
  facet normal -1 0 0
    outer loop
      vertex -15 -1.98461 29.7914
      vertex -15 -15 30
      vertex -15 0 30
    endloop
  endfacet
  facet normal -1 0 0
    outer loop
      vertex -15 -6.10105 28.7032
      vertex -15 -15 30
      vertex -15 -3.11868 29.6722
    endloop
  endfacet
  facet normal -1 0 0
    outer loop
      vertex -15 -8.81678 27.1353
      vertex -15 -15 30
      vertex -15 -6.10105 28.7032
    endloop
  endfacet
  facet normal -1 0 0
    outer loop
      vertex -15 -11.1472 25.037
      vertex -15 -15 30
      vertex -15 -8.81678 27.1353
    endloop
  endfacet
  facet normal -1 0 0
    outer loop
      vertex -15 -11.8174 24.1144
      vertex -15 -15 30
      vertex -15 -11.1472 25.037
    endloop
  endfacet
  facet normal -1 0 0
    outer loop
      vertex -15 -13.802 20.677
      vertex -15 -15 30
      vertex -15 -12.9904 22.5
    endloop
  endfacet
  facet normal -1 0 0
    outer loop
      vertex -15 -14.2658 19.6353
      vertex -15 -15 30
      vertex -15 -13.802 20.677
    endloop
  endfacet
  facet normal -1 0 0
    outer loop
      vertex -15 -14.9178 16.5679
      vertex -15 -15 30
      vertex -15 -14.2658 19.6353
    endloop
  endfacet
  facet normal -1 0 0
    outer loop
      vertex -15 -15 30
      vertex -15 -14.9178 16.5679
      vertex -15 -15 0
    endloop
  endfacet
  facet normal -0 0 0
    outer loop
      vertex -15 0 30
      vertex -15 -15 30
      vertex -15 15 30
    endloop
  endfacet
  facet normal 0 0 1
    outer loop
      vertex 15 15 30
      vertex 0.5 0 30
      vertex 15 -15 30
    endloop
  endfacet
  facet normal 0 0 1
    outer loop
      vertex 15 15 30
      vertex 0.154508 0.475528 30
      vertex 0.5 0 30
    endloop
  endfacet
  facet normal -0 0 1
    outer loop
      vertex -15 15 30
      vertex 0.154508 0.475528 30
      vertex 15 15 30
    endloop
  endfacet
  facet normal 0 0 1
    outer loop
      vertex -0.404508 0.293892 30
      vertex -15 15 30
      vertex -0.404508 -0.293892 30
    endloop
  endfacet
  facet normal 0 0 1
    outer loop
      vertex 0.154508 0.475528 30
      vertex -15 15 30
      vertex -0.404508 0.293892 30
    endloop
  endfacet
  facet normal -0 0 1
    outer loop
      vertex 0.154508 -0.475528 30
      vertex 15 -15 30
      vertex 0.5 0 30
    endloop
  endfacet
  facet normal 0 0 1
    outer loop
      vertex -15 -15 30
      vertex 0.154508 -0.475528 30
      vertex -0.404508 -0.293892 30
    endloop
  endfacet
  facet normal 0 0 1
    outer loop
      vertex 0.154508 -0.475528 30
      vertex -15 -15 30
      vertex 15 -15 30
    endloop
  endfacet
  facet normal 0 0 1
    outer loop
      vertex -15 -15 30
      vertex -0.404508 -0.293892 30
      vertex -15 15 30
    endloop
  endfacet
  facet normal 1 -0 0
    outer loop
      vertex 15 -15 30
      vertex 15 -1.13406 29.8808
      vertex 15 0 30
    endloop
  endfacet
  facet normal 1 0 0
    outer loop
      vertex 15 -14.9178 16.5679
      vertex 15 -15 30
      vertex 15 -14.9178 13.4321
    endloop
  endfacet
  facet normal 1 0 0
    outer loop
      vertex 15 -14.2658 19.6353
      vertex 15 -15 30
      vertex 15 -14.9178 16.5679
    endloop
  endfacet
  facet normal 1 0 0
    outer loop
      vertex 15 -13.4542 21.4583
      vertex 15 -15 30
      vertex 15 -14.2658 19.6353
    endloop
  endfacet
  facet normal 1 0 0
    outer loop
      vertex 15 -12.9904 22.5
      vertex 15 -15 30
      vertex 15 -13.4542 21.4583
    endloop
  endfacet
  facet normal 1 0 0
    outer loop
      vertex 15 -12.3201 23.4225
      vertex 15 -15 30
      vertex 15 -12.9904 22.5
    endloop
  endfacet
  facet normal 1 0 0
    outer loop
      vertex 15 -11.1472 25.037
      vertex 15 -15 30
      vertex 15 -12.3201 23.4225
    endloop
  endfacet
  facet normal 1 0 0
    outer loop
      vertex 15 -8.81678 27.1353
      vertex 15 -15 30
      vertex 15 -11.1472 25.037
    endloop
  endfacet
  facet normal 1 0 0
    outer loop
      vertex 15 -6.10105 28.7032
      vertex 15 -15 30
      vertex 15 -8.81678 27.1353
    endloop
  endfacet
  facet normal 1 0 0
    outer loop
      vertex 15 -3.11868 29.6722
      vertex 15 -15 30
      vertex 15 -6.10105 28.7032
    endloop
  endfacet
  facet normal 1 0 0
    outer loop
      vertex 15 -1.13406 29.8808
      vertex 15 -15 30
      vertex 15 -3.11868 29.6722
    endloop
  endfacet
  facet normal 1 0 0
    outer loop
      vertex 15 15 30
      vertex 15 14.9178 16.5679
      vertex 15 15 0
    endloop
  endfacet
  facet normal 1 0 0
    outer loop
      vertex 15 15 30
      vertex 15 14.2658 19.6353
      vertex 15 14.9178 16.5679
    endloop
  endfacet
  facet normal 1 0 0
    outer loop
      vertex 15 15 30
      vertex 15 13.4542 21.4583
      vertex 15 14.2658 19.6353
    endloop
  endfacet
  facet normal 1 0 0
    outer loop
      vertex 15 15 30
      vertex 15 12.9904 22.5
      vertex 15 13.4542 21.4583
    endloop
  endfacet
  facet normal 1 0 0
    outer loop
      vertex 15 15 30
      vertex 15 12.3201 23.4225
      vertex 15 12.9904 22.5
    endloop
  endfacet
  facet normal 1 0 0
    outer loop
      vertex 15 15 30
      vertex 15 11.1472 25.037
      vertex 15 12.3201 23.4225
    endloop
  endfacet
  facet normal 1 0 0
    outer loop
      vertex 15 15 30
      vertex 15 8.81678 27.1353
      vertex 15 11.1472 25.037
    endloop
  endfacet
  facet normal 1 0 0
    outer loop
      vertex 15 15 30
      vertex 15 6.10105 28.7032
      vertex 15 8.81678 27.1353
    endloop
  endfacet
  facet normal 1 0 0
    outer loop
      vertex 15 15 30
      vertex 15 3.11868 29.6722
      vertex 15 6.10105 28.7032
    endloop
  endfacet
  facet normal 1 0 0
    outer loop
      vertex 15 15 30
      vertex 15 1.13406 29.8808
      vertex 15 3.11868 29.6722
    endloop
  endfacet
  facet normal 1 0 -0
    outer loop
      vertex 15 1.13406 29.8808
      vertex 15 15 30
      vertex 15 0 30
    endloop
  endfacet
  facet normal 1 -0 0
    outer loop
      vertex 15 14.9178 13.4321
      vertex 15 15 0
      vertex 15 14.9178 16.5679
    endloop
  endfacet
  facet normal 1 -0 0
    outer loop
      vertex 15 14.2658 10.3647
      vertex 15 15 0
      vertex 15 14.9178 13.4321
    endloop
  endfacet
  facet normal 1 -0 0
    outer loop
      vertex 15 13.802 9.32302
      vertex 15 15 0
      vertex 15 14.2658 10.3647
    endloop
  endfacet
  facet normal 1 -0 0
    outer loop
      vertex 15 12.9904 7.5
      vertex 15 15 0
      vertex 15 13.802 9.32302
    endloop
  endfacet
  facet normal 1 -0 0
    outer loop
      vertex 15 11.8174 5.88557
      vertex 15 15 0
      vertex 15 12.9904 7.5
    endloop
  endfacet
  facet normal 1 -0 0
    outer loop
      vertex 15 11.1472 4.96304
      vertex 15 15 0
      vertex 15 11.8174 5.88557
    endloop
  endfacet
  facet normal 1 -0 0
    outer loop
      vertex 15 8.81678 2.86474
      vertex 15 15 0
      vertex 15 11.1472 4.96304
    endloop
  endfacet
  facet normal 1 -0 0
    outer loop
      vertex 15 6.10105 1.29682
      vertex 15 15 0
      vertex 15 8.81678 2.86474
    endloop
  endfacet
  facet normal 1 -0 0
    outer loop
      vertex 15 3.11868 0.327785
      vertex 15 15 0
      vertex 15 6.10105 1.29682
    endloop
  endfacet
  facet normal 1 0 0
    outer loop
      vertex 15 15 0
      vertex 15 3.11868 0.327785
      vertex 15 0 0
    endloop
  endfacet
  facet normal 1 0 0
    outer loop
      vertex 15 -15 0
      vertex 15 -11.8174 5.88557
      vertex 15 -12.9904 7.5
    endloop
  endfacet
  facet normal 1 0 0
    outer loop
      vertex 15 -15 0
      vertex 15 -13.802 9.32302
      vertex 15 -14.2658 10.3647
    endloop
  endfacet
  facet normal 1 0 0
    outer loop
      vertex 15 -3.11868 0.327785
      vertex 15 -15 0
      vertex 15 0 0
    endloop
  endfacet
  facet normal 1 0 0
    outer loop
      vertex 15 -6.10105 1.29682
      vertex 15 -15 0
      vertex 15 -3.11868 0.327785
    endloop
  endfacet
  facet normal 1 0 0
    outer loop
      vertex 15 -8.81678 2.86474
      vertex 15 -15 0
      vertex 15 -6.10105 1.29682
    endloop
  endfacet
  facet normal 1 0 0
    outer loop
      vertex 15 -11.1472 4.96304
      vertex 15 -15 0
      vertex 15 -8.81678 2.86474
    endloop
  endfacet
  facet normal 1 0 0
    outer loop
      vertex 15 -11.8174 5.88557
      vertex 15 -15 0
      vertex 15 -11.1472 4.96304
    endloop
  endfacet
  facet normal 1 0 0
    outer loop
      vertex 15 -13.802 9.32302
      vertex 15 -15 0
      vertex 15 -12.9904 7.5
    endloop
  endfacet
  facet normal 1 0 0
    outer loop
      vertex 15 -14.9178 13.4321
      vertex 15 -15 0
      vertex 15 -14.2658 10.3647
    endloop
  endfacet
  facet normal 1 0 0
    outer loop
      vertex 15 -15 0
      vertex 15 -14.9178 13.4321
      vertex 15 -15 30
    endloop
  endfacet
  facet normal 0 0 -0
    outer loop
      vertex 15 0 30
      vertex 15 15 30
      vertex 15 -15 30
    endloop
  endfacet
  facet normal 0 1 -0
    outer loop
      vertex 15 15 0
      vertex -15 15 30
      vertex 15 15 30
    endloop
  endfacet
  facet normal 0 1 0
    outer loop
      vertex -15 15 30
      vertex 15 15 0
      vertex -15 15 0
    endloop
  endfacet
  facet normal 0 0 -1
    outer loop
      vertex -15 0 0
      vertex 15 0 0
      vertex 15 -15 0
    endloop
  endfacet
  facet normal 0 0 -1
    outer loop
      vertex -15 0 0
      vertex 15 -15 0
      vertex -15 -15 0
    endloop
  endfacet
  facet normal 0 0 -1
    outer loop
      vertex 15 0 0
      vertex -15 0 0
      vertex 15 15 0
    endloop
  endfacet
  facet normal -0 0 -1
    outer loop
      vertex 15 15 0
      vertex -15 0 0
      vertex -15 15 0
    endloop
  endfacet
  facet normal 0 -1 0
    outer loop
      vertex -15 -15 0
      vertex 15 -15 30
      vertex -15 -15 30
    endloop
  endfacet
  facet normal 0 -1 -0
    outer loop
      vertex 15 -15 30
      vertex -15 -15 0
      vertex 15 -15 0
    endloop
  endfacet
  facet normal 0 1 -0
    outer loop
      vertex -15 14.9178 13.4321
      vertex -55 14.9178 16.5679
      vertex -15 14.9178 16.5679
    endloop
  endfacet
  facet normal 0 1 0
    outer loop
      vertex -55 14.9178 16.5679
      vertex -15 14.9178 13.4321
      vertex -55 14.9178 13.4321
    endloop
  endfacet
  facet normal 0 1 -0
    outer loop
      vertex 55 14.9178 13.4321
      vertex 15 14.9178 16.5679
      vertex 55 14.9178 16.5679
    endloop
  endfacet
  facet normal 0 1 0
    outer loop
      vertex 15 14.9178 16.5679
      vertex 55 14.9178 13.4321
      vertex 15 14.9178 13.4321
    endloop
  endfacet
  facet normal 0 -0.104528 -0.994522
    outer loop
      vertex 15 -3.11868 0.327785
      vertex 55 0 0
      vertex 55 -3.11868 0.327785
    endloop
  endfacet
  facet normal -0 -0.104528 -0.994522
    outer loop
      vertex 55 0 0
      vertex 15 -3.11868 0.327785
      vertex 15 0 0
    endloop
  endfacet
  facet normal 0 -0.104528 -0.994522
    outer loop
      vertex -55 -3.11868 0.327785
      vertex -15 0 0
      vertex -15 -3.11868 0.327785
    endloop
  endfacet
  facet normal -0 -0.104528 -0.994522
    outer loop
      vertex -15 0 0
      vertex -55 -3.11868 0.327785
      vertex -55 0 0
    endloop
  endfacet
  facet normal 0 -0.309017 0.951057
    outer loop
      vertex 15 -3.11868 29.6722
      vertex 55 -6.10105 28.7032
      vertex 55 -3.11868 29.6722
    endloop
  endfacet
  facet normal 0 -0.309017 0.951057
    outer loop
      vertex 55 -6.10105 28.7032
      vertex 15 -3.11868 29.6722
      vertex 15 -6.10105 28.7032
    endloop
  endfacet
  facet normal 0 -0.309017 0.951057
    outer loop
      vertex -55 -3.11868 29.6722
      vertex -15 -6.10105 28.7032
      vertex -15 -3.11868 29.6722
    endloop
  endfacet
  facet normal 0 -0.309017 0.951057
    outer loop
      vertex -15 -6.10105 28.7032
      vertex -55 -3.11868 29.6722
      vertex -55 -6.10105 28.7032
    endloop
  endfacet
  facet normal 0 0.978148 0.207912
    outer loop
      vertex -15 14.9178 16.5679
      vertex -55 14.2658 19.6353
      vertex -15 14.2658 19.6353
    endloop
  endfacet
  facet normal 0 0.978148 0.207912
    outer loop
      vertex -55 14.2658 19.6353
      vertex -15 14.9178 16.5679
      vertex -55 14.9178 16.5679
    endloop
  endfacet
  facet normal 0 0.978148 0.207912
    outer loop
      vertex 55 14.9178 16.5679
      vertex 15 14.2658 19.6353
      vertex 55 14.2658 19.6353
    endloop
  endfacet
  facet normal 0 0.978148 0.207912
    outer loop
      vertex 15 14.2658 19.6353
      vertex 55 14.9178 16.5679
      vertex 15 14.9178 16.5679
    endloop
  endfacet
  facet normal 0 0.669131 -0.743145
    outer loop
      vertex -55 8.81678 2.86474
      vertex -15 11.1472 4.96304
      vertex -15 8.81678 2.86474
    endloop
  endfacet
  facet normal 0 0.669131 -0.743145
    outer loop
      vertex -15 11.1472 4.96304
      vertex -55 8.81678 2.86474
      vertex -55 11.1472 4.96304
    endloop
  endfacet
  facet normal 0 0.669131 -0.743145
    outer loop
      vertex 15 8.81678 2.86474
      vertex 55 11.1472 4.96304
      vertex 55 8.81678 2.86474
    endloop
  endfacet
  facet normal 0 0.669131 -0.743145
    outer loop
      vertex 55 11.1472 4.96304
      vertex 15 8.81678 2.86474
      vertex 15 11.1472 4.96304
    endloop
  endfacet
  facet normal 0 0.5 -0.866025
    outer loop
      vertex -55 6.10105 1.29682
      vertex -15 8.81678 2.86474
      vertex -15 6.10105 1.29682
    endloop
  endfacet
  facet normal 0 0.5 -0.866025
    outer loop
      vertex -15 8.81678 2.86474
      vertex -55 6.10105 1.29682
      vertex -55 8.81678 2.86474
    endloop
  endfacet
  facet normal 0 0.5 -0.866025
    outer loop
      vertex 15 6.10105 1.29682
      vertex 55 8.81678 2.86474
      vertex 55 6.10105 1.29682
    endloop
  endfacet
  facet normal 0 0.5 -0.866025
    outer loop
      vertex 55 8.81678 2.86474
      vertex 15 6.10105 1.29682
      vertex 15 8.81678 2.86474
    endloop
  endfacet
  facet normal 0 0.913545 -0.406737
    outer loop
      vertex -15 13.4542 8.54172
      vertex -55 14.2658 10.3647
      vertex -15 14.2658 10.3647
    endloop
  endfacet
  facet normal -3.52631e-09 0.913545 -0.406737
    outer loop
      vertex -55 14.2658 10.3647
      vertex -15 13.4542 8.54172
      vertex -55 12.9904 7.5
    endloop
  endfacet
  facet normal 0 0.913545 -0.406737
    outer loop
      vertex 55 14.2658 10.3647
      vertex 15 13.802 9.32302
      vertex 15 14.2658 10.3647
    endloop
  endfacet
  facet normal 0 0.978148 -0.207912
    outer loop
      vertex -15 14.2658 10.3647
      vertex -55 14.9178 13.4321
      vertex -15 14.9178 13.4321
    endloop
  endfacet
  facet normal 0 0.978148 -0.207912
    outer loop
      vertex -55 14.9178 13.4321
      vertex -15 14.2658 10.3647
      vertex -55 14.2658 10.3647
    endloop
  endfacet
  facet normal 0 0.978148 -0.207912
    outer loop
      vertex 55 14.2658 10.3647
      vertex 15 14.9178 13.4321
      vertex 55 14.9178 13.4321
    endloop
  endfacet
  facet normal 0 0.978148 -0.207912
    outer loop
      vertex 15 14.9178 13.4321
      vertex 55 14.2658 10.3647
      vertex 15 14.2658 10.3647
    endloop
  endfacet
  facet normal 0 0.104528 -0.994522
    outer loop
      vertex -55 0 0
      vertex -15 3.11868 0.327785
      vertex -15 0 0
    endloop
  endfacet
  facet normal 0 0.104528 -0.994522
    outer loop
      vertex -15 3.11868 0.327785
      vertex -55 0 0
      vertex -55 3.11868 0.327785
    endloop
  endfacet
  facet normal 0 0.104528 -0.994522
    outer loop
      vertex 15 0 0
      vertex 55 3.11868 0.327785
      vertex 55 0 0
    endloop
  endfacet
  facet normal 0 0.104528 -0.994522
    outer loop
      vertex 55 3.11868 0.327785
      vertex 15 0 0
      vertex 15 3.11868 0.327785
    endloop
  endfacet
  facet normal 0 -1 0
    outer loop
      vertex 15 -14.9178 13.4321
      vertex 55 -14.9178 16.5679
      vertex 15 -14.9178 16.5679
    endloop
  endfacet
  facet normal 0 -1 -0
    outer loop
      vertex 55 -14.9178 16.5679
      vertex 15 -14.9178 13.4321
      vertex 55 -14.9178 13.4321
    endloop
  endfacet
  facet normal 0 -1 0
    outer loop
      vertex -55 -14.9178 13.4321
      vertex -15 -14.9178 16.5679
      vertex -55 -14.9178 16.5679
    endloop
  endfacet
  facet normal 0 -1 -0
    outer loop
      vertex -15 -14.9178 16.5679
      vertex -55 -14.9178 13.4321
      vertex -15 -14.9178 13.4321
    endloop
  endfacet
  facet normal -1 0 0
    outer loop
      vertex -55 14.2658 10.3647
      vertex -55 14.9178 16.5679
      vertex -55 14.9178 13.4321
    endloop
  endfacet
  facet normal -1 0 0
    outer loop
      vertex -55 14.2658 10.3647
      vertex -55 14.2658 19.6353
      vertex -55 14.9178 16.5679
    endloop
  endfacet
  facet normal -1 0 0
    outer loop
      vertex -55 12.9904 7.5
      vertex -55 14.2658 19.6353
      vertex -55 14.2658 10.3647
    endloop
  endfacet
  facet normal -1 0 0
    outer loop
      vertex -55 12.9904 7.5
      vertex -55 12.9904 22.5
      vertex -55 14.2658 19.6353
    endloop
  endfacet
  facet normal -1 0 0
    outer loop
      vertex -55 11.1472 4.96304
      vertex -55 12.9904 22.5
      vertex -55 12.9904 7.5
    endloop
  endfacet
  facet normal -1 0 0
    outer loop
      vertex -55 11.1472 4.96304
      vertex -55 11.1472 25.037
      vertex -55 12.9904 22.5
    endloop
  endfacet
  facet normal -1 0 0
    outer loop
      vertex -55 8.81678 2.86474
      vertex -55 11.1472 25.037
      vertex -55 11.1472 4.96304
    endloop
  endfacet
  facet normal -1 0 0
    outer loop
      vertex -55 8.81678 2.86474
      vertex -55 8.81678 27.1353
      vertex -55 11.1472 25.037
    endloop
  endfacet
  facet normal -1 0 0
    outer loop
      vertex -55 6.10105 1.29682
      vertex -55 8.81678 27.1353
      vertex -55 8.81678 2.86474
    endloop
  endfacet
  facet normal -1 0 0
    outer loop
      vertex -55 6.10105 1.29682
      vertex -55 6.10105 28.7032
      vertex -55 8.81678 27.1353
    endloop
  endfacet
  facet normal -1 0 0
    outer loop
      vertex -55 3.11868 0.327785
      vertex -55 6.10105 28.7032
      vertex -55 6.10105 1.29682
    endloop
  endfacet
  facet normal -1 0 0
    outer loop
      vertex -55 3.11868 0.327785
      vertex -55 3.11868 29.6722
      vertex -55 6.10105 28.7032
    endloop
  endfacet
  facet normal -1 0 0
    outer loop
      vertex -55 0 0
      vertex -55 3.11868 29.6722
      vertex -55 3.11868 0.327785
    endloop
  endfacet
  facet normal -1 0 0
    outer loop
      vertex -55 0 0
      vertex -55 0 30
      vertex -55 3.11868 29.6722
    endloop
  endfacet
  facet normal -1 0 0
    outer loop
      vertex -55 -3.11868 0.327785
      vertex -55 0 30
      vertex -55 0 0
    endloop
  endfacet
  facet normal -1 0 0
    outer loop
      vertex -55 -3.11868 0.327785
      vertex -55 -3.11868 29.6722
      vertex -55 0 30
    endloop
  endfacet
  facet normal -1 0 0
    outer loop
      vertex -55 -6.10105 1.29682
      vertex -55 -3.11868 29.6722
      vertex -55 -3.11868 0.327785
    endloop
  endfacet
  facet normal -1 0 0
    outer loop
      vertex -55 -6.10105 1.29682
      vertex -55 -6.10105 28.7032
      vertex -55 -3.11868 29.6722
    endloop
  endfacet
  facet normal -1 0 0
    outer loop
      vertex -55 -8.81678 2.86474
      vertex -55 -6.10105 28.7032
      vertex -55 -6.10105 1.29682
    endloop
  endfacet
  facet normal -1 0 0
    outer loop
      vertex -55 -8.81678 2.86474
      vertex -55 -8.81678 27.1353
      vertex -55 -6.10105 28.7032
    endloop
  endfacet
  facet normal -1 0 0
    outer loop
      vertex -55 -11.1472 4.96304
      vertex -55 -8.81678 27.1353
      vertex -55 -8.81678 2.86474
    endloop
  endfacet
  facet normal -1 0 0
    outer loop
      vertex -55 -11.1472 4.96304
      vertex -55 -11.1472 25.037
      vertex -55 -8.81678 27.1353
    endloop
  endfacet
  facet normal -1 0 0
    outer loop
      vertex -55 -12.9904 7.5
      vertex -55 -11.1472 25.037
      vertex -55 -11.1472 4.96304
    endloop
  endfacet
  facet normal -1 0 0
    outer loop
      vertex -55 -12.9904 7.5
      vertex -55 -12.9904 22.5
      vertex -55 -11.1472 25.037
    endloop
  endfacet
  facet normal -1 0 0
    outer loop
      vertex -55 -14.2658 10.3647
      vertex -55 -12.9904 22.5
      vertex -55 -12.9904 7.5
    endloop
  endfacet
  facet normal -1 0 0
    outer loop
      vertex -55 -14.2658 10.3647
      vertex -55 -14.2658 19.6353
      vertex -55 -12.9904 22.5
    endloop
  endfacet
  facet normal -1 0 0
    outer loop
      vertex -55 -14.9178 13.4321
      vertex -55 -14.2658 19.6353
      vertex -55 -14.2658 10.3647
    endloop
  endfacet
  facet normal -1 0 0
    outer loop
      vertex -55 -14.2658 19.6353
      vertex -55 -14.9178 13.4321
      vertex -55 -14.9178 16.5679
    endloop
  endfacet
  facet normal 0 -0.978148 -0.207912
    outer loop
      vertex -55 -14.2658 10.3647
      vertex -15 -14.9178 13.4321
      vertex -55 -14.9178 13.4321
    endloop
  endfacet
  facet normal 0 -0.978148 -0.207912
    outer loop
      vertex -15 -14.9178 13.4321
      vertex -55 -14.2658 10.3647
      vertex -15 -14.2658 10.3647
    endloop
  endfacet
  facet normal 0 -0.978148 -0.207912
    outer loop
      vertex 15 -14.2658 10.3647
      vertex 55 -14.9178 13.4321
      vertex 15 -14.9178 13.4321
    endloop
  endfacet
  facet normal 0 -0.978148 -0.207912
    outer loop
      vertex 55 -14.9178 13.4321
      vertex 15 -14.2658 10.3647
      vertex 55 -14.2658 10.3647
    endloop
  endfacet
  facet normal 0 -0.5 -0.866025
    outer loop
      vertex -55 -8.81678 2.86474
      vertex -15 -6.10105 1.29682
      vertex -15 -8.81678 2.86474
    endloop
  endfacet
  facet normal -0 -0.5 -0.866025
    outer loop
      vertex -15 -6.10105 1.29682
      vertex -55 -8.81678 2.86474
      vertex -55 -6.10105 1.29682
    endloop
  endfacet
  facet normal 0 -0.5 -0.866025
    outer loop
      vertex 15 -8.81678 2.86474
      vertex 55 -6.10105 1.29682
      vertex 55 -8.81678 2.86474
    endloop
  endfacet
  facet normal -0 -0.5 -0.866025
    outer loop
      vertex 55 -6.10105 1.29682
      vertex 15 -8.81678 2.86474
      vertex 15 -6.10105 1.29682
    endloop
  endfacet
  facet normal -0 0.66913 0.743145
    outer loop
      vertex -55 11.1472 25.037
      vertex -15 8.81678 27.1353
      vertex -15 11.1472 25.037
    endloop
  endfacet
  facet normal 0 0.66913 0.743145
    outer loop
      vertex -15 8.81678 27.1353
      vertex -55 11.1472 25.037
      vertex -55 8.81678 27.1353
    endloop
  endfacet
  facet normal -0 0.66913 0.743145
    outer loop
      vertex 15 11.1472 25.037
      vertex 55 8.81678 27.1353
      vertex 55 11.1472 25.037
    endloop
  endfacet
  facet normal 0 0.66913 0.743145
    outer loop
      vertex 55 8.81678 27.1353
      vertex 15 11.1472 25.037
      vertex 15 8.81678 27.1353
    endloop
  endfacet
  facet normal 7.05262e-09 0.913545 0.406737
    outer loop
      vertex 55 14.2658 19.6353
      vertex 15 13.4542 21.4583
      vertex 55 12.9904 22.5
    endloop
  endfacet
  facet normal 0 0.913546 0.406736
    outer loop
      vertex 15 13.4542 21.4583
      vertex 55 14.2658 19.6353
      vertex 15 14.2658 19.6353
    endloop
  endfacet
  facet normal 0 0.913546 0.406736
    outer loop
      vertex -15 14.2658 19.6353
      vertex -55 14.2658 19.6353
      vertex -15 13.802 20.677
    endloop
  endfacet
  facet normal 0 0.104529 0.994522
    outer loop
      vertex 15 1.13406 29.8808
      vertex 15 0 30
      vertex 55 0 30
    endloop
  endfacet
  facet normal 1.72445e-08 0.104528 0.994522
    outer loop
      vertex -55 0 30
      vertex -15 1.98461 29.7914
      vertex -55 3.11868 29.6722
    endloop
  endfacet
  facet normal 0 0.104529 0.994522
    outer loop
      vertex -15 1.98461 29.7914
      vertex -55 0 30
      vertex -15 0 30
    endloop
  endfacet
  facet normal 0 0.104528 0.994522
    outer loop
      vertex 15 1.13406 29.8808
      vertex 55 3.11868 29.6722
      vertex 15 3.11868 29.6722
    endloop
  endfacet
  facet normal -3.0178e-08 0.104528 0.994522
    outer loop
      vertex 55 3.11868 29.6722
      vertex 15 1.13406 29.8808
      vertex 55 0 30
    endloop
  endfacet
  facet normal 0 0.104528 0.994522
    outer loop
      vertex -15 3.11868 29.6722
      vertex -55 3.11868 29.6722
      vertex -15 1.98461 29.7914
    endloop
  endfacet
  facet normal 0 0.809017 -0.587785
    outer loop
      vertex -55 11.1472 4.96304
      vertex -15 12.3201 6.57747
      vertex -15 11.1472 4.96304
    endloop
  endfacet
  facet normal -3.18498e-09 0.809017 -0.587785
    outer loop
      vertex -15 12.3201 6.57747
      vertex -55 11.1472 4.96304
      vertex -55 12.9904 7.5
    endloop
  endfacet
  facet normal 0 0.809017 -0.587785
    outer loop
      vertex 55 11.1472 4.96304
      vertex 15 11.1472 4.96304
      vertex 15 11.8174 5.88557
    endloop
  endfacet
  facet normal 0 0.309017 -0.951057
    outer loop
      vertex -55 3.11868 0.327785
      vertex -15 6.10105 1.29682
      vertex -15 3.11868 0.327785
    endloop
  endfacet
  facet normal 0 0.309017 -0.951057
    outer loop
      vertex -15 6.10105 1.29682
      vertex -55 3.11868 0.327785
      vertex -55 6.10105 1.29682
    endloop
  endfacet
  facet normal 0 0.309017 -0.951057
    outer loop
      vertex 15 3.11868 0.327785
      vertex 55 6.10105 1.29682
      vertex 55 3.11868 0.327785
    endloop
  endfacet
  facet normal 0 0.309017 -0.951057
    outer loop
      vertex 55 6.10105 1.29682
      vertex 15 3.11868 0.327785
      vertex 15 6.10105 1.29682
    endloop
  endfacet
  facet normal 7.00694e-09 0.809017 -0.587785
    outer loop
      vertex -15 12.3201 6.57747
      vertex -55 12.9904 7.5
      vertex -15 12.9904 7.5
    endloop
  endfacet
  facet normal 7.00695e-09 0.809017 -0.587785
    outer loop
      vertex 55 12.9904 7.5
      vertex 15 11.8174 5.88557
      vertex 15 12.9904 7.5
    endloop
  endfacet
  facet normal 1.91098e-09 0.809017 -0.587785
    outer loop
      vertex 15 11.8174 5.88557
      vertex 55 12.9904 7.5
      vertex 55 11.1472 4.96304
    endloop
  endfacet
  facet normal 4.84868e-09 0.913545 -0.406737
    outer loop
      vertex -15 12.9904 7.5
      vertex -55 12.9904 7.5
      vertex -15 13.4542 8.54172
    endloop
  endfacet
  facet normal 0 0.913545 -0.406737
    outer loop
      vertex 55 12.9904 7.5
      vertex 15 13.802 9.32302
      vertex 55 14.2658 10.3647
    endloop
  endfacet
  facet normal 4.84868e-09 0.913545 -0.406737
    outer loop
      vertex 15 13.802 9.32302
      vertex 55 12.9904 7.5
      vertex 15 12.9904 7.5
    endloop
  endfacet
  facet normal 0 -0.104529 0.994522
    outer loop
      vertex 15 0 30
      vertex 15 -1.13406 29.8808
      vertex 55 0 30
    endloop
  endfacet
  facet normal 0 -0.104529 0.994522
    outer loop
      vertex -55 0 30
      vertex -15 -1.98461 29.7914
      vertex -15 0 30
    endloop
  endfacet
  facet normal 1.72445e-08 -0.104528 0.994522
    outer loop
      vertex -15 -1.98461 29.7914
      vertex -55 0 30
      vertex -55 -3.11868 29.6722
    endloop
  endfacet
  facet normal 0 -0.809017 0.587785
    outer loop
      vertex 15 -12.3201 23.4225
      vertex 55 -11.1472 25.037
      vertex 15 -11.1472 25.037
    endloop
  endfacet
  facet normal 1.01919e-08 -0.809017 0.587785
    outer loop
      vertex 55 -11.1472 25.037
      vertex 15 -12.3201 23.4225
      vertex 55 -12.9904 22.5
    endloop
  endfacet
  facet normal 0 -0.809017 0.587785
    outer loop
      vertex -15 -11.1472 25.037
      vertex -55 -11.1472 25.037
      vertex -15 -11.8174 24.1144
    endloop
  endfacet
  facet normal 1 0 0
    outer loop
      vertex 55 14.2658 19.6353
      vertex 55 14.9178 13.4321
      vertex 55 14.9178 16.5679
    endloop
  endfacet
  facet normal 1 0 0
    outer loop
      vertex 55 14.2658 19.6353
      vertex 55 14.2658 10.3647
      vertex 55 14.9178 13.4321
    endloop
  endfacet
  facet normal 1 0 0
    outer loop
      vertex 55 12.9904 22.5
      vertex 55 14.2658 10.3647
      vertex 55 14.2658 19.6353
    endloop
  endfacet
  facet normal 1 0 0
    outer loop
      vertex 55 12.9904 22.5
      vertex 55 12.9904 7.5
      vertex 55 14.2658 10.3647
    endloop
  endfacet
  facet normal 1 0 0
    outer loop
      vertex 55 11.1472 25.037
      vertex 55 12.9904 7.5
      vertex 55 12.9904 22.5
    endloop
  endfacet
  facet normal 1 0 0
    outer loop
      vertex 55 11.1472 25.037
      vertex 55 11.1472 4.96304
      vertex 55 12.9904 7.5
    endloop
  endfacet
  facet normal 1 0 0
    outer loop
      vertex 55 8.81678 27.1353
      vertex 55 11.1472 4.96304
      vertex 55 11.1472 25.037
    endloop
  endfacet
  facet normal 1 0 0
    outer loop
      vertex 55 8.81678 27.1353
      vertex 55 8.81678 2.86474
      vertex 55 11.1472 4.96304
    endloop
  endfacet
  facet normal 1 0 0
    outer loop
      vertex 55 6.10105 28.7032
      vertex 55 8.81678 2.86474
      vertex 55 8.81678 27.1353
    endloop
  endfacet
  facet normal 1 0 0
    outer loop
      vertex 55 6.10105 28.7032
      vertex 55 6.10105 1.29682
      vertex 55 8.81678 2.86474
    endloop
  endfacet
  facet normal 1 0 0
    outer loop
      vertex 55 3.11868 29.6722
      vertex 55 6.10105 1.29682
      vertex 55 6.10105 28.7032
    endloop
  endfacet
  facet normal 1 0 0
    outer loop
      vertex 55 3.11868 29.6722
      vertex 55 3.11868 0.327785
      vertex 55 6.10105 1.29682
    endloop
  endfacet
  facet normal 1 0 0
    outer loop
      vertex 55 0 30
      vertex 55 3.11868 0.327785
      vertex 55 3.11868 29.6722
    endloop
  endfacet
  facet normal 1 0 0
    outer loop
      vertex 55 0 30
      vertex 55 0 0
      vertex 55 3.11868 0.327785
    endloop
  endfacet
  facet normal 1 -0 0
    outer loop
      vertex 55 -3.11868 29.6722
      vertex 55 0 0
      vertex 55 0 30
    endloop
  endfacet
  facet normal 1 0 0
    outer loop
      vertex 55 -3.11868 29.6722
      vertex 55 -3.11868 0.327785
      vertex 55 0 0
    endloop
  endfacet
  facet normal 1 -0 0
    outer loop
      vertex 55 -6.10105 28.7032
      vertex 55 -3.11868 0.327785
      vertex 55 -3.11868 29.6722
    endloop
  endfacet
  facet normal 1 0 0
    outer loop
      vertex 55 -6.10105 28.7032
      vertex 55 -6.10105 1.29682
      vertex 55 -3.11868 0.327785
    endloop
  endfacet
  facet normal 1 -0 0
    outer loop
      vertex 55 -8.81678 27.1353
      vertex 55 -6.10105 1.29682
      vertex 55 -6.10105 28.7032
    endloop
  endfacet
  facet normal 1 0 0
    outer loop
      vertex 55 -8.81678 27.1353
      vertex 55 -8.81678 2.86474
      vertex 55 -6.10105 1.29682
    endloop
  endfacet
  facet normal 1 -0 0
    outer loop
      vertex 55 -11.1472 25.037
      vertex 55 -8.81678 2.86474
      vertex 55 -8.81678 27.1353
    endloop
  endfacet
  facet normal 1 0 0
    outer loop
      vertex 55 -11.1472 25.037
      vertex 55 -11.1472 4.96304
      vertex 55 -8.81678 2.86474
    endloop
  endfacet
  facet normal 1 -0 0
    outer loop
      vertex 55 -12.9904 22.5
      vertex 55 -11.1472 4.96304
      vertex 55 -11.1472 25.037
    endloop
  endfacet
  facet normal 1 0 0
    outer loop
      vertex 55 -12.9904 22.5
      vertex 55 -12.9904 7.5
      vertex 55 -11.1472 4.96304
    endloop
  endfacet
  facet normal 1 -0 0
    outer loop
      vertex 55 -14.2658 19.6353
      vertex 55 -12.9904 7.5
      vertex 55 -12.9904 22.5
    endloop
  endfacet
  facet normal 1 0 0
    outer loop
      vertex 55 -14.2658 19.6353
      vertex 55 -14.2658 10.3647
      vertex 55 -12.9904 7.5
    endloop
  endfacet
  facet normal 1 -0 0
    outer loop
      vertex 55 -14.9178 16.5679
      vertex 55 -14.2658 10.3647
      vertex 55 -14.2658 19.6353
    endloop
  endfacet
  facet normal 1 0 0
    outer loop
      vertex 55 -14.2658 10.3647
      vertex 55 -14.9178 16.5679
      vertex 55 -14.9178 13.4321
    endloop
  endfacet
  facet normal -3.18498e-09 -0.809017 -0.587785
    outer loop
      vertex -55 -11.1472 4.96304
      vertex -15 -12.3201 6.57747
      vertex -55 -12.9904 7.5
    endloop
  endfacet
  facet normal 0 -0.809017 -0.587785
    outer loop
      vertex -15 -12.3201 6.57747
      vertex -55 -11.1472 4.96304
      vertex -15 -11.1472 4.96304
    endloop
  endfacet
  facet normal -0 -0.809017 -0.587785
    outer loop
      vertex 55 -11.1472 4.96304
      vertex 15 -11.8174 5.88557
      vertex 15 -11.1472 4.96304
    endloop
  endfacet
  facet normal 0 -0.669131 -0.743145
    outer loop
      vertex -55 -11.1472 4.96304
      vertex -15 -8.81678 2.86474
      vertex -15 -11.1472 4.96304
    endloop
  endfacet
  facet normal -0 -0.669131 -0.743145
    outer loop
      vertex -15 -8.81678 2.86474
      vertex -55 -11.1472 4.96304
      vertex -55 -8.81678 2.86474
    endloop
  endfacet
  facet normal 0 -0.669131 -0.743145
    outer loop
      vertex 15 -11.1472 4.96304
      vertex 55 -8.81678 2.86474
      vertex 55 -11.1472 4.96304
    endloop
  endfacet
  facet normal -0 -0.669131 -0.743145
    outer loop
      vertex 55 -8.81678 2.86474
      vertex 15 -11.1472 4.96304
      vertex 15 -8.81678 2.86474
    endloop
  endfacet
  facet normal 0 -0.913545 -0.406737
    outer loop
      vertex 15 -13.802 9.32302
      vertex 55 -12.9904 7.5
      vertex 55 -14.2658 10.3647
    endloop
  endfacet
  facet normal 4.84868e-09 -0.913545 -0.406737
    outer loop
      vertex 55 -12.9904 7.5
      vertex 15 -13.802 9.32302
      vertex 15 -12.9904 7.5
    endloop
  endfacet
  facet normal 4.84868e-09 -0.913545 -0.406737
    outer loop
      vertex -15 -13.4542 8.54172
      vertex -55 -12.9904 7.5
      vertex -15 -12.9904 7.5
    endloop
  endfacet
  facet normal 0 -0.913545 -0.406737
    outer loop
      vertex -55 -14.2658 10.3647
      vertex -15 -13.4542 8.54172
      vertex -15 -14.2658 10.3647
    endloop
  endfacet
  facet normal -3.52631e-09 -0.913545 -0.406737
    outer loop
      vertex -15 -13.4542 8.54172
      vertex -55 -14.2658 10.3647
      vertex -55 -12.9904 7.5
    endloop
  endfacet
  facet normal -0 -0.913545 -0.406737
    outer loop
      vertex 55 -14.2658 10.3647
      vertex 15 -14.2658 10.3647
      vertex 15 -13.802 9.32302
    endloop
  endfacet
  facet normal 0 -0.309017 -0.951057
    outer loop
      vertex -55 -6.10105 1.29682
      vertex -15 -3.11868 0.327785
      vertex -15 -6.10105 1.29682
    endloop
  endfacet
  facet normal -0 -0.309017 -0.951057
    outer loop
      vertex -15 -3.11868 0.327785
      vertex -55 -6.10105 1.29682
      vertex -55 -3.11868 0.327785
    endloop
  endfacet
  facet normal 0 -0.309017 -0.951057
    outer loop
      vertex 15 -6.10105 1.29682
      vertex 55 -3.11868 0.327785
      vertex 55 -6.10105 1.29682
    endloop
  endfacet
  facet normal -0 -0.309017 -0.951057
    outer loop
      vertex 55 -3.11868 0.327785
      vertex 15 -6.10105 1.29682
      vertex 15 -3.11868 0.327785
    endloop
  endfacet
  facet normal 0 0.913545 0.406737
    outer loop
      vertex -15 13.802 20.677
      vertex -55 12.9904 22.5
      vertex -15 12.9904 22.5
    endloop
  endfacet
  facet normal -1.23421e-08 0.913545 0.406737
    outer loop
      vertex -55 12.9904 22.5
      vertex -15 13.802 20.677
      vertex -55 14.2658 19.6353
    endloop
  endfacet
  facet normal 0 0.913545 0.406737
    outer loop
      vertex 15 13.4542 21.4583
      vertex 15 12.9904 22.5
      vertex 55 12.9904 22.5
    endloop
  endfacet
  facet normal -0 0.809017 0.587785
    outer loop
      vertex -55 12.9904 22.5
      vertex -15 11.8174 24.1144
      vertex -15 12.9904 22.5
    endloop
  endfacet
  facet normal 1.01919e-08 0.809017 0.587785
    outer loop
      vertex -15 11.8174 24.1144
      vertex -55 12.9904 22.5
      vertex -55 11.1472 25.037
    endloop
  endfacet
  facet normal -0 0.809017 0.587785
    outer loop
      vertex 15 12.9904 22.5
      vertex 15 12.3201 23.4225
      vertex 55 12.9904 22.5
    endloop
  endfacet
  facet normal 0 0.809017 0.587785
    outer loop
      vertex 55 11.1472 25.037
      vertex 15 12.3201 23.4225
      vertex 15 11.1472 25.037
    endloop
  endfacet
  facet normal 1.01919e-08 0.809017 0.587785
    outer loop
      vertex 15 12.3201 23.4225
      vertex 55 11.1472 25.037
      vertex 55 12.9904 22.5
    endloop
  endfacet
  facet normal 0 0.809017 0.587785
    outer loop
      vertex -15 11.8174 24.1144
      vertex -55 11.1472 25.037
      vertex -15 11.1472 25.037
    endloop
  endfacet
  facet normal -0 0.5 0.866025
    outer loop
      vertex -55 8.81678 27.1353
      vertex -15 6.10105 28.7032
      vertex -15 8.81678 27.1353
    endloop
  endfacet
  facet normal 0 0.5 0.866025
    outer loop
      vertex -15 6.10105 28.7032
      vertex -55 8.81678 27.1353
      vertex -55 6.10105 28.7032
    endloop
  endfacet
  facet normal -0 0.5 0.866025
    outer loop
      vertex 15 8.81678 27.1353
      vertex 55 6.10105 28.7032
      vertex 55 8.81678 27.1353
    endloop
  endfacet
  facet normal 0 0.5 0.866025
    outer loop
      vertex 55 6.10105 28.7032
      vertex 15 8.81678 27.1353
      vertex 15 6.10105 28.7032
    endloop
  endfacet
  facet normal -0 0.309017 0.951057
    outer loop
      vertex -55 6.10105 28.7032
      vertex -15 3.11868 29.6722
      vertex -15 6.10105 28.7032
    endloop
  endfacet
  facet normal 0 0.309017 0.951057
    outer loop
      vertex -15 3.11868 29.6722
      vertex -55 6.10105 28.7032
      vertex -55 3.11868 29.6722
    endloop
  endfacet
  facet normal -0 0.309017 0.951057
    outer loop
      vertex 15 6.10105 28.7032
      vertex 55 3.11868 29.6722
      vertex 55 6.10105 28.7032
    endloop
  endfacet
  facet normal 0 0.309017 0.951057
    outer loop
      vertex 55 3.11868 29.6722
      vertex 15 6.10105 28.7032
      vertex 15 3.11868 29.6722
    endloop
  endfacet
  facet normal -3.0178e-08 -0.104528 0.994522
    outer loop
      vertex 15 -1.13406 29.8808
      vertex 55 -3.11868 29.6722
      vertex 55 0 30
    endloop
  endfacet
  facet normal 0 -0.104528 0.994522
    outer loop
      vertex 55 -3.11868 29.6722
      vertex 15 -1.13406 29.8808
      vertex 15 -3.11868 29.6722
    endloop
  endfacet
  facet normal 0 -0.104528 0.994522
    outer loop
      vertex -15 -1.98461 29.7914
      vertex -55 -3.11868 29.6722
      vertex -15 -3.11868 29.6722
    endloop
  endfacet
  facet normal 0 -0.978148 0.207912
    outer loop
      vertex 15 -14.9178 16.5679
      vertex 55 -14.2658 19.6353
      vertex 15 -14.2658 19.6353
    endloop
  endfacet
  facet normal 0 -0.978148 0.207912
    outer loop
      vertex 55 -14.2658 19.6353
      vertex 15 -14.9178 16.5679
      vertex 55 -14.9178 16.5679
    endloop
  endfacet
  facet normal 0 -0.978148 0.207912
    outer loop
      vertex -55 -14.9178 16.5679
      vertex -15 -14.2658 19.6353
      vertex -55 -14.2658 19.6353
    endloop
  endfacet
  facet normal 0 -0.978148 0.207912
    outer loop
      vertex -15 -14.2658 19.6353
      vertex -55 -14.9178 16.5679
      vertex -15 -14.9178 16.5679
    endloop
  endfacet
  facet normal 0 -0.913546 0.406736
    outer loop
      vertex 55 -14.2658 19.6353
      vertex 15 -13.4542 21.4583
      vertex 15 -14.2658 19.6353
    endloop
  endfacet
  facet normal 7.05262e-09 -0.913545 0.406737
    outer loop
      vertex 15 -13.4542 21.4583
      vertex 55 -14.2658 19.6353
      vertex 55 -12.9904 22.5
    endloop
  endfacet
  facet normal 0 -0.913546 0.406736
    outer loop
      vertex -15 -13.802 20.677
      vertex -55 -14.2658 19.6353
      vertex -15 -14.2658 19.6353
    endloop
  endfacet
  facet normal 7.00695e-09 -0.809017 -0.587785
    outer loop
      vertex 15 -11.8174 5.88557
      vertex 55 -12.9904 7.5
      vertex 15 -12.9904 7.5
    endloop
  endfacet
  facet normal 1.91098e-09 -0.809017 -0.587785
    outer loop
      vertex 55 -12.9904 7.5
      vertex 15 -11.8174 5.88557
      vertex 55 -11.1472 4.96304
    endloop
  endfacet
  facet normal 7.00694e-09 -0.809017 -0.587785
    outer loop
      vertex -15 -12.9904 7.5
      vertex -55 -12.9904 7.5
      vertex -15 -12.3201 6.57747
    endloop
  endfacet
  facet normal 0 -0.66913 0.743145
    outer loop
      vertex 15 -8.81678 27.1353
      vertex 55 -11.1472 25.037
      vertex 55 -8.81678 27.1353
    endloop
  endfacet
  facet normal 0 -0.66913 0.743145
    outer loop
      vertex 55 -11.1472 25.037
      vertex 15 -8.81678 27.1353
      vertex 15 -11.1472 25.037
    endloop
  endfacet
  facet normal 0 -0.66913 0.743145
    outer loop
      vertex -55 -8.81678 27.1353
      vertex -15 -11.1472 25.037
      vertex -15 -8.81678 27.1353
    endloop
  endfacet
  facet normal 0 -0.66913 0.743145
    outer loop
      vertex -15 -11.1472 25.037
      vertex -55 -8.81678 27.1353
      vertex -55 -11.1472 25.037
    endloop
  endfacet
  facet normal 0 -0.5 0.866025
    outer loop
      vertex 15 -6.10105 28.7032
      vertex 55 -8.81678 27.1353
      vertex 55 -6.10105 28.7032
    endloop
  endfacet
  facet normal 0 -0.5 0.866025
    outer loop
      vertex 55 -8.81678 27.1353
      vertex 15 -6.10105 28.7032
      vertex 15 -8.81678 27.1353
    endloop
  endfacet
  facet normal 0 -0.5 0.866025
    outer loop
      vertex -55 -6.10105 28.7032
      vertex -15 -8.81678 27.1353
      vertex -15 -6.10105 28.7032
    endloop
  endfacet
  facet normal 0 -0.5 0.866025
    outer loop
      vertex -15 -8.81678 27.1353
      vertex -55 -6.10105 28.7032
      vertex -55 -8.81678 27.1353
    endloop
  endfacet
  facet normal 0 -0.913545 0.406737
    outer loop
      vertex -55 -12.9904 22.5
      vertex -15 -13.802 20.677
      vertex -15 -12.9904 22.5
    endloop
  endfacet
  facet normal -1.23421e-08 -0.913545 0.406737
    outer loop
      vertex -15 -13.802 20.677
      vertex -55 -12.9904 22.5
      vertex -55 -14.2658 19.6353
    endloop
  endfacet
  facet normal 0 -0.913545 0.406737
    outer loop
      vertex 15 -12.9904 22.5
      vertex 15 -13.4542 21.4583
      vertex 55 -12.9904 22.5
    endloop
  endfacet
  facet normal 1.01919e-08 -0.809017 0.587785
    outer loop
      vertex -55 -12.9904 22.5
      vertex -15 -11.8174 24.1144
      vertex -55 -11.1472 25.037
    endloop
  endfacet
  facet normal 0 -0.809017 0.587785
    outer loop
      vertex -15 -11.8174 24.1144
      vertex -55 -12.9904 22.5
      vertex -15 -12.9904 22.5
    endloop
  endfacet
  facet normal 0 -0.809017 0.587785
    outer loop
      vertex 15 -12.3201 23.4225
      vertex 15 -12.9904 22.5
      vertex 55 -12.9904 22.5
    endloop
  endfacet
  facet normal -0.809016 -0.587787 0
    outer loop
      vertex 0.5 0 25
      vertex 0.154508 0.475528 30
      vertex 0.154508 0.475528 25
    endloop
  endfacet
  facet normal -0.809016 -0.587787 0
    outer loop
      vertex 0.154508 0.475528 30
      vertex 0.5 0 25
      vertex 0.5 0 30
    endloop
  endfacet
  facet normal 1 -0 0
    outer loop
      vertex -0.404508 -0.293892 30
      vertex -0.404508 0.293892 25
      vertex -0.404508 0.293892 30
    endloop
  endfacet
  facet normal 1 0 0
    outer loop
      vertex -0.404508 0.293892 25
      vertex -0.404508 -0.293892 30
      vertex -0.404508 -0.293892 25
    endloop
  endfacet
  facet normal 0.309018 -0.951056 0
    outer loop
      vertex -0.404508 0.293892 25
      vertex 0.154508 0.475528 30
      vertex -0.404508 0.293892 30
    endloop
  endfacet
  facet normal 0.309018 -0.951056 0
    outer loop
      vertex 0.154508 0.475528 30
      vertex -0.404508 0.293892 25
      vertex 0.154508 0.475528 25
    endloop
  endfacet
  facet normal 0 0 1
    outer loop
      vertex 0.154508 0.475528 25
      vertex 0.154508 -0.475528 25
      vertex 0.5 0 25
    endloop
  endfacet
  facet normal -0 0 1
    outer loop
      vertex -0.404508 0.293892 25
      vertex 0.154508 -0.475528 25
      vertex 0.154508 0.475528 25
    endloop
  endfacet
  facet normal 0 0 1
    outer loop
      vertex 0.154508 -0.475528 25
      vertex -0.404508 0.293892 25
      vertex -0.404508 -0.293892 25
    endloop
  endfacet
  facet normal -0.809016 0.587787 0
    outer loop
      vertex 0.154508 -0.475528 25
      vertex 0.5 0 30
      vertex 0.5 0 25
    endloop
  endfacet
  facet normal -0.809016 0.587787 0
    outer loop
      vertex 0.5 0 30
      vertex 0.154508 -0.475528 25
      vertex 0.154508 -0.475528 30
    endloop
  endfacet
  facet normal 0.309018 0.951056 -0
    outer loop
      vertex 0.154508 -0.475528 25
      vertex -0.404508 -0.293892 30
      vertex 0.154508 -0.475528 30
    endloop
  endfacet
  facet normal 0.309018 0.951056 0
    outer loop
      vertex -0.404508 -0.293892 30
      vertex 0.154508 -0.475528 25
      vertex -0.404508 -0.293892 25
    endloop
  endfacet
endsolid OpenSCAD_Model
