solid OpenSCAD_Model
  facet normal 0 0 -1
    outer loop
      vertex 3.4933 2.112 0
      vertex 3.7493 2.112 0
      vertex 3.7493 0 0
    endloop
  endfacet
  facet normal 0 0 -1
    outer loop
      vertex 3.4933 2.112 0
      vertex 3.7493 0 0
      vertex 3.4933 0 0
    endloop
  endfacet
  facet normal -0 -0 -1
    outer loop
      vertex 4.49637 2.112 0
      vertex 4.49637 0 0
      vertex 4.24037 2.112 0
    endloop
  endfacet
  facet normal 0 0 -1
    outer loop
      vertex 4.49637 0 0
      vertex 4.24037 0 0
      vertex 4.24037 2.112 0
    endloop
  endfacet
  facet normal -0 0 -1
    outer loop
      vertex 2.63782 1.55449 0
      vertex 2.50056 1.38074 0
      vertex 2.35481 1.59999 0
    endloop
  endfacet
  facet normal -0 0 -1
    outer loop
      vertex 2.32381 1.40799 0
      vertex 2.19856 1.39999 0
      vertex 2.23306 1.59599 0
    endloop
  endfacet
  facet normal -0 0 -1
    outer loop
      vertex 2.19856 1.39999 0
      vertex 2.07681 1.37599 0
      vertex 2.10782 1.584 0
    endloop
  endfacet
  facet normal 0 0 -1
    outer loop
      vertex 2.10782 1.584 0
      vertex 2.07681 1.37599 0
      vertex 1.97957 1.564 0
    endloop
  endfacet
  facet normal 0 -0 -1
    outer loop
      vertex 1.97957 1.564 0
      vertex 2.07681 1.37599 0
      vertex 1.95981 1.336 0
    endloop
  endfacet
  facet normal 0 0 -1
    outer loop
      vertex 1.84682 1.536 0
      vertex 1.97957 1.564 0
      vertex 1.95981 1.336 0
    endloop
  endfacet
  facet normal 0 0 -1
    outer loop
      vertex 1.84682 1.28 0
      vertex 1.84682 1.536 0
      vertex 1.95981 1.336 0
    endloop
  endfacet
  facet normal 0 0 -1
    outer loop
      vertex 2.99881 0.868988 0
      vertex 2.74281 0.98999 0
      vertex 2.95882 1.19025 0
    endloop
  endfacet
  facet normal 0 -0 -1
    outer loop
      vertex 1.76157 0.679489 0
      vertex 1.97481 0.471985 0
      vertex 1.71881 0.462997 0
    endloop
  endfacet
  facet normal 0 0 -1
    outer loop
      vertex 2.63782 1.55449 0
      vertex 2.63281 1.299 0
      vertex 2.50056 1.38074 0
    endloop
  endfacet
  facet normal 0 0 -1
    outer loop
      vertex 2.19856 1.39999 0
      vertex 2.10782 1.584 0
      vertex 2.23306 1.59599 0
    endloop
  endfacet
  facet normal 0 0 -1
    outer loop
      vertex 2.95882 1.19025 0
      vertex 2.74281 0.98999 0
      vertex 2.71532 1.16724 0
    endloop
  endfacet
  facet normal 0 0 -1
    outer loop
      vertex 2.32381 1.40799 0
      vertex 2.23306 1.59599 0
      vertex 2.35481 1.59999 0
    endloop
  endfacet
  facet normal 0 0 -1
    outer loop
      vertex 2.50056 1.38074 0
      vertex 2.32381 1.40799 0
      vertex 2.35481 1.59999 0
    endloop
  endfacet
  facet normal 0 -0 -1
    outer loop
      vertex 2.63782 1.55449 0
      vertex 2.83881 1.418 0
      vertex 2.63281 1.299 0
    endloop
  endfacet
  facet normal 0 0 -1
    outer loop
      vertex 2.71532 1.16724 0
      vertex 2.83881 1.418 0
      vertex 2.95882 1.19025 0
    endloop
  endfacet
  facet normal 0 0 -1
    outer loop
      vertex 2.63281 1.299 0
      vertex 2.83881 1.418 0
      vertex 2.71532 1.16724 0
    endloop
  endfacet
  facet normal 0 0 -1
    outer loop
      vertex 2.74281 0.98999 0
      vertex 2.99881 0.868988 0
      vertex 2.74281 0.959991 0
    endloop
  endfacet
  facet normal 0 0 -1
    outer loop
      vertex 2.61981 0.334991 0
      vertex 2.71207 0.501495 0
      vertex 2.74281 0.255997 0
    endloop
  endfacet
  facet normal 0 0 -1
    outer loop
      vertex 1.71881 0.462997 0
      vertex 1.99606 0.356247 0
      vertex 1.75281 0.273239 0
    endloop
  endfacet
  facet normal 0 0 -1
    outer loop
      vertex 0.61499 -0.0929871 0
      vertex 0.664993 0.0339966 0
      vertex 0.866989 -0.151993 0
    endloop
  endfacet
  facet normal 0 0 -1
    outer loop
      vertex 2.22281 0 0
      vertex 2.01532 0.0314941 0
      vertex 2.16132 0.210739 0
    endloop
  endfacet
  facet normal 0 0 -1
    outer loop
      vertex 2.39156 0.0154877 0
      vertex 2.29381 0.191986 0
      vertex 2.47681 0.227737 0
    endloop
  endfacet
  facet normal 0 0 -1
    outer loop
      vertex 0.802994 0.37999 0
      vertex 1.25999 1.536 0
      vertex 1.536 1.536 0
    endloop
  endfacet
  facet normal 0 0 -1
    outer loop
      vertex 2.16132 0.210739 0
      vertex 2.29381 0.191986 0
      vertex 2.22281 0 0
    endloop
  endfacet
  facet normal -0 0 -1
    outer loop
      vertex 0.866989 -0.151993 0
      vertex 0.762238 -0.369247 0
      vertex 0.61499 -0.0929871 0
    endloop
  endfacet
  facet normal 0 0 -1
    outer loop
      vertex 1.75281 0.273239 0
      vertex 1.99606 0.356247 0
      vertex 1.85481 0.125992 0
    endloop
  endfacet
  facet normal -0 0 -1
    outer loop
      vertex 2.39156 0.0154877 0
      vertex 2.22281 0 0
      vertex 2.29381 0.191986 0
    endloop
  endfacet
  facet normal 0 -0 -1
    outer loop
      vertex 2.99881 0.868988 0
      vertex 2.99881 0 0
      vertex 2.74281 0.255997 0
    endloop
  endfacet
  facet normal 0 0 -1
    outer loop
      vertex 2.47681 0.227737 0
      vertex 2.61981 0.334991 0
      vertex 2.64757 0.141998 0
    endloop
  endfacet
  facet normal 0 0 -1
    outer loop
      vertex 2.74281 0.255997 0
      vertex 2.99881 0 0
      vertex 2.74281 0 0
    endloop
  endfacet
  facet normal 0 0 -1
    outer loop
      vertex 2.39981 0.959991 0
      vertex 2.74281 0.959991 0
      vertex 2.49982 0.76799 0
    endloop
  endfacet
  facet normal 0 0 -1
    outer loop
      vertex 2.24907 0.751236 0
      vertex 2.39981 0.959991 0
      vertex 2.49982 0.76799 0
    endloop
  endfacet
  facet normal 0 0 -1
    outer loop
      vertex 2.74281 0.76799 0
      vertex 2.49982 0.76799 0
      vertex 2.74281 0.959991 0
    endloop
  endfacet
  facet normal 0 0 -1
    outer loop
      vertex 2.39156 0.0154877 0
      vertex 2.47681 0.227737 0
      vertex 2.53181 0.0619965 0
    endloop
  endfacet
  facet normal 0 0 -1
    outer loop
      vertex 1.76157 0.679489 0
      vertex 2.00331 0.610245 0
      vertex 1.97481 0.471985 0
    endloop
  endfacet
  facet normal 0 0 -1
    outer loop
      vertex 2.05981 0.266998 0
      vertex 2.01532 0.0314941 0
      vertex 1.85481 0.125992 0
    endloop
  endfacet
  facet normal -0 0 -1
    outer loop
      vertex 2.16132 0.210739 0
      vertex 2.01532 0.0314941 0
      vertex 2.05981 0.266998 0
    endloop
  endfacet
  facet normal 0 -0 -1
    outer loop
      vertex 1.99606 0.356247 0
      vertex 2.05981 0.266998 0
      vertex 1.85481 0.125992 0
    endloop
  endfacet
  facet normal 0 -0 -1
    outer loop
      vertex 1.97481 0.471985 0
      vertex 1.99606 0.356247 0
      vertex 1.71881 0.462997 0
    endloop
  endfacet
  facet normal 0 0 -1
    outer loop
      vertex 1.76157 0.679489 0
      vertex 1.88982 0.834991 0
      vertex 2.00331 0.610245 0
    endloop
  endfacet
  facet normal 0 0 -1
    outer loop
      vertex 2.00331 0.610245 0
      vertex 1.88982 0.834991 0
      vertex 2.08881 0.700989 0
    endloop
  endfacet
  facet normal -0 0 -1
    outer loop
      vertex 2.24907 0.751236 0
      vertex 2.08881 0.700989 0
      vertex 2.10281 0.928741 0
    endloop
  endfacet
  facet normal 0 0 -1
    outer loop
      vertex 2.08881 0.700989 0
      vertex 1.88982 0.834991 0
      vertex 2.10281 0.928741 0
    endloop
  endfacet
  facet normal 0 0 -1
    outer loop
      vertex 2.39981 0.959991 0
      vertex 2.24907 0.751236 0
      vertex 2.10281 0.928741 0
    endloop
  endfacet
  facet normal 0 0 -1
    outer loop
      vertex 2.74281 0.959991 0
      vertex 2.99881 0.868988 0
      vertex 2.74281 0.76799 0
    endloop
  endfacet
  facet normal 0 0 -1
    outer loop
      vertex 2.74281 0.76799 0
      vertex 2.99881 0.868988 0
      vertex 2.74281 0.714996 0
    endloop
  endfacet
  facet normal 0 -0 -1
    outer loop
      vertex 2.74281 0.714996 0
      vertex 2.99881 0.868988 0
      vertex 2.71207 0.501495 0
    endloop
  endfacet
  facet normal 0 0 -1
    outer loop
      vertex 2.71207 0.501495 0
      vertex 2.99881 0.868988 0
      vertex 2.74281 0.255997 0
    endloop
  endfacet
  facet normal 0 0 -1
    outer loop
      vertex 2.64757 0.141998 0
      vertex 2.61981 0.334991 0
      vertex 2.74281 0.255997 0
    endloop
  endfacet
  facet normal 0 0 -1
    outer loop
      vertex 2.53181 0.0619965 0
      vertex 2.47681 0.227737 0
      vertex 2.64757 0.141998 0
    endloop
  endfacet
  facet normal 0 0 -1
    outer loop
      vertex 5.88344 0.98999 0
      vertex 6.09944 1.19025 0
      vertex 6.13943 0.868988 0
    endloop
  endfacet
  facet normal -0 0 -1
    outer loop
      vertex 5.77844 1.55449 0
      vertex 5.64119 1.38074 0
      vertex 5.49544 1.59999 0
    endloop
  endfacet
  facet normal -0 0 -1
    outer loop
      vertex 5.46443 1.40799 0
      vertex 5.33919 1.39999 0
      vertex 5.37369 1.59599 0
    endloop
  endfacet
  facet normal -0 0 -1
    outer loop
      vertex 5.33919 1.39999 0
      vertex 5.21744 1.37599 0
      vertex 5.24844 1.584 0
    endloop
  endfacet
  facet normal 0 0 -1
    outer loop
      vertex 5.24844 1.584 0
      vertex 5.21744 1.37599 0
      vertex 5.12019 1.564 0
    endloop
  endfacet
  facet normal 0 -0 -1
    outer loop
      vertex 5.12019 1.564 0
      vertex 5.21744 1.37599 0
      vertex 5.10043 1.336 0
    endloop
  endfacet
  facet normal 0 0 -1
    outer loop
      vertex 4.98744 1.536 0
      vertex 5.12019 1.564 0
      vertex 5.10043 1.336 0
    endloop
  endfacet
  facet normal 0 0 -1
    outer loop
      vertex 4.98744 1.28 0
      vertex 4.98744 1.536 0
      vertex 5.10043 1.336 0
    endloop
  endfacet
  facet normal 0 -0 -1
    outer loop
      vertex 5.24344 0.928741 0
      vertex 5.38969 0.751236 0
      vertex 5.22943 0.700989 0
    endloop
  endfacet
  facet normal 0 0 -1
    outer loop
      vertex 5.77844 1.55449 0
      vertex 5.77344 1.299 0
      vertex 5.64119 1.38074 0
    endloop
  endfacet
  facet normal 0 0 -1
    outer loop
      vertex 5.33919 1.39999 0
      vertex 5.24844 1.584 0
      vertex 5.37369 1.59599 0
    endloop
  endfacet
  facet normal 0 0 -1
    outer loop
      vertex 6.09944 1.19025 0
      vertex 5.88344 0.98999 0
      vertex 5.85594 1.16724 0
    endloop
  endfacet
  facet normal 0 0 -1
    outer loop
      vertex 5.46443 1.40799 0
      vertex 5.37369 1.59599 0
      vertex 5.49544 1.59999 0
    endloop
  endfacet
  facet normal 0 0 -1
    outer loop
      vertex 5.64119 1.38074 0
      vertex 5.46443 1.40799 0
      vertex 5.49544 1.59999 0
    endloop
  endfacet
  facet normal 0 -0 -1
    outer loop
      vertex 5.77844 1.55449 0
      vertex 5.97943 1.418 0
      vertex 5.77344 1.299 0
    endloop
  endfacet
  facet normal 0 0 -1
    outer loop
      vertex 5.85594 1.16724 0
      vertex 5.97943 1.418 0
      vertex 6.09944 1.19025 0
    endloop
  endfacet
  facet normal 0 0 -1
    outer loop
      vertex 5.77344 1.299 0
      vertex 5.97943 1.418 0
      vertex 5.85594 1.16724 0
    endloop
  endfacet
  facet normal 0 0 -1
    outer loop
      vertex 5.88344 0.959991 0
      vertex 5.88344 0.98999 0
      vertex 6.13943 0.868988 0
    endloop
  endfacet
  facet normal 0 0 -1
    outer loop
      vertex 5.88344 0.255997 0
      vertex 5.76044 0.334991 0
      vertex 5.85269 0.501495 0
    endloop
  endfacet
  facet normal 0 -0 -1
    outer loop
      vertex 4.90219 0.679489 0
      vertex 5.11543 0.471985 0
      vertex 4.85944 0.462997 0
    endloop
  endfacet
  facet normal 0 0 -1
    outer loop
      vertex 4.85944 0.462997 0
      vertex 5.13669 0.356247 0
      vertex 4.89343 0.273239 0
    endloop
  endfacet
  facet normal 0 0 -1
    outer loop
      vertex 5.36343 0 0
      vertex 5.15594 0.0314941 0
      vertex 5.30194 0.210739 0
    endloop
  endfacet
  facet normal 0 0 -1
    outer loop
      vertex 5.53218 0.0154877 0
      vertex 5.43443 0.191986 0
      vertex 5.61743 0.227737 0
    endloop
  endfacet
  facet normal 0 0 -1
    outer loop
      vertex 5.30194 0.210739 0
      vertex 5.43443 0.191986 0
      vertex 5.36343 0 0
    endloop
  endfacet
  facet normal 0 0 -1
    outer loop
      vertex 4.89343 0.273239 0
      vertex 5.13669 0.356247 0
      vertex 4.99544 0.125992 0
    endloop
  endfacet
  facet normal -0 0 -1
    outer loop
      vertex 5.53218 0.0154877 0
      vertex 5.36343 0 0
      vertex 5.43443 0.191986 0
    endloop
  endfacet
  facet normal 0 -0 -1
    outer loop
      vertex 6.13943 0.868988 0
      vertex 6.13943 0 0
      vertex 5.88344 0.255997 0
    endloop
  endfacet
  facet normal 0 0 -1
    outer loop
      vertex 5.61743 0.227737 0
      vertex 5.76044 0.334991 0
      vertex 5.78819 0.141998 0
    endloop
  endfacet
  facet normal 0 0 -1
    outer loop
      vertex 5.88344 0.255997 0
      vertex 6.13943 0 0
      vertex 5.88344 0 0
    endloop
  endfacet
  facet normal 0 0 -1
    outer loop
      vertex 5.54044 0.959991 0
      vertex 5.88344 0.959991 0
      vertex 5.64044 0.76799 0
    endloop
  endfacet
  facet normal 0 0 -1
    outer loop
      vertex 5.38969 0.751236 0
      vertex 5.54044 0.959991 0
      vertex 5.64044 0.76799 0
    endloop
  endfacet
  facet normal 0 0 -1
    outer loop
      vertex 5.88344 0.76799 0
      vertex 5.64044 0.76799 0
      vertex 5.88344 0.959991 0
    endloop
  endfacet
  facet normal 0 0 -1
    outer loop
      vertex 5.53218 0.0154877 0
      vertex 5.61743 0.227737 0
      vertex 5.67244 0.0619965 0
    endloop
  endfacet
  facet normal 0 0 -1
    outer loop
      vertex 4.90219 0.679489 0
      vertex 5.14394 0.610245 0
      vertex 5.11543 0.471985 0
    endloop
  endfacet
  facet normal 0 0 -1
    outer loop
      vertex 5.20044 0.266998 0
      vertex 5.15594 0.0314941 0
      vertex 4.99544 0.125992 0
    endloop
  endfacet
  facet normal -0 0 -1
    outer loop
      vertex 5.30194 0.210739 0
      vertex 5.15594 0.0314941 0
      vertex 5.20044 0.266998 0
    endloop
  endfacet
  facet normal 0 -0 -1
    outer loop
      vertex 5.13669 0.356247 0
      vertex 5.20044 0.266998 0
      vertex 4.99544 0.125992 0
    endloop
  endfacet
  facet normal 0 -0 -1
    outer loop
      vertex 5.11543 0.471985 0
      vertex 5.13669 0.356247 0
      vertex 4.85944 0.462997 0
    endloop
  endfacet
  facet normal 0 0 -1
    outer loop
      vertex 4.90219 0.679489 0
      vertex 5.03044 0.834991 0
      vertex 5.14394 0.610245 0
    endloop
  endfacet
  facet normal 0 0 -1
    outer loop
      vertex 5.14394 0.610245 0
      vertex 5.03044 0.834991 0
      vertex 5.22943 0.700989 0
    endloop
  endfacet
  facet normal 0 0 -1
    outer loop
      vertex 5.24344 0.928741 0
      vertex 5.22943 0.700989 0
      vertex 5.03044 0.834991 0
    endloop
  endfacet
  facet normal 0 0 -1
    outer loop
      vertex 5.54044 0.959991 0
      vertex 5.38969 0.751236 0
      vertex 5.24344 0.928741 0
    endloop
  endfacet
  facet normal 0 0 -1
    outer loop
      vertex 5.88344 0.959991 0
      vertex 6.13943 0.868988 0
      vertex 5.88344 0.76799 0
    endloop
  endfacet
  facet normal 0 0 -1
    outer loop
      vertex 5.88344 0.76799 0
      vertex 6.13943 0.868988 0
      vertex 5.88344 0.714996 0
    endloop
  endfacet
  facet normal 0 -0 -1
    outer loop
      vertex 5.88344 0.714996 0
      vertex 6.13943 0.868988 0
      vertex 5.85269 0.501495 0
    endloop
  endfacet
  facet normal 0 0 -1
    outer loop
      vertex 5.85269 0.501495 0
      vertex 6.13943 0.868988 0
      vertex 5.88344 0.255997 0
    endloop
  endfacet
  facet normal 0 0 -1
    outer loop
      vertex 5.78819 0.141998 0
      vertex 5.76044 0.334991 0
      vertex 5.88344 0.255997 0
    endloop
  endfacet
  facet normal 0 0 -1
    outer loop
      vertex 5.67244 0.0619965 0
      vertex 5.61743 0.227737 0
      vertex 5.78819 0.141998 0
    endloop
  endfacet
  facet normal 0 0 -1
    outer loop
      vertex 0.762238 -0.369247 0
      vertex 0.535248 -0.247498 0
      vertex 0.61499 -0.0929871 0
    endloop
  endfacet
  facet normal 0 0 -1
    outer loop
      vertex 0.469986 -0.332993 0
      vertex 0.535248 -0.247498 0
      vertex 0.659988 -0.494995 0
    endloop
  endfacet
  facet normal 0 0 -1
    outer loop
      vertex 0.802994 0.37999 0
      vertex 0.0639954 1.536 0
      vertex 0.338989 1.536 0
    endloop
  endfacet
  facet normal 0 0 -1
    outer loop
      vertex 0.866989 -0.151993 0
      vertex 0.802994 0.37999 0
      vertex 1.536 1.536 0
    endloop
  endfacet
  facet normal 0 0 -1
    outer loop
      vertex 0.542999 -0.55574 0
      vertex 0.469986 -0.332993 0
      vertex 0.659988 -0.494995 0
    endloop
  endfacet
  facet normal 0 0 -1
    outer loop
      vertex 0.408737 -0.371246 0
      vertex 0.391998 -0.575989 0
      vertex 0.338989 -0.383987 0
    endloop
  endfacet
  facet normal 0 0 -1
    outer loop
      vertex 0.866989 -0.151993 0
      vertex 0.664993 0.0339966 0
      vertex 0.802994 0.37999 0
    endloop
  endfacet
  facet normal 0 0 -1
    outer loop
      vertex 0.664993 0.0339966 0
      vertex 0.0639954 1.536 0
      vertex 0.802994 0.37999 0
    endloop
  endfacet
  facet normal 0 0 -1
    outer loop
      vertex 0.535248 -0.247498 0
      vertex 0.762238 -0.369247 0
      vertex 0.659988 -0.494995 0
    endloop
  endfacet
  facet normal 0 0 -1
    outer loop
      vertex 0.542999 -0.55574 0
      vertex 0.408737 -0.371246 0
      vertex 0.469986 -0.332993 0
    endloop
  endfacet
  facet normal -0 0 -1
    outer loop
      vertex 0.542999 -0.55574 0
      vertex 0.391998 -0.575989 0
      vertex 0.408737 -0.371246 0
    endloop
  endfacet
  facet normal -0 0 -1
    outer loop
      vertex 0.338989 -0.383987 0
      vertex 0.191986 -0.575989 0
      vertex 0.191986 -0.383987 0
    endloop
  endfacet
  facet normal 0 -0 -1
    outer loop
      vertex 0.338989 -0.383987 0
      vertex 0.391998 -0.575989 0
      vertex 0.191986 -0.575989 0
    endloop
  endfacet
  facet normal 0 -0 1
    outer loop
      vertex 3.7493 0 2
      vertex 3.7493 2.112 2
      vertex 3.4933 2.112 2
    endloop
  endfacet
  facet normal 0 0 1
    outer loop
      vertex 3.4933 0 2
      vertex 3.7493 0 2
      vertex 3.4933 2.112 2
    endloop
  endfacet
  facet normal -0 0 1
    outer loop
      vertex 4.24037 2.112 2
      vertex 4.49637 0 2
      vertex 4.49637 2.112 2
    endloop
  endfacet
  facet normal 0 0 1
    outer loop
      vertex 4.24037 2.112 2
      vertex 4.24037 0 2
      vertex 4.49637 0 2
    endloop
  endfacet
  facet normal 0 0 1
    outer loop
      vertex 2.35481 1.59999 2
      vertex 2.50056 1.38074 2
      vertex 2.63782 1.55449 2
    endloop
  endfacet
  facet normal 0 0 1
    outer loop
      vertex 2.23306 1.59599 2
      vertex 2.19856 1.39999 2
      vertex 2.32381 1.40799 2
    endloop
  endfacet
  facet normal 0 0 1
    outer loop
      vertex 2.10782 1.584 2
      vertex 2.07681 1.37599 2
      vertex 2.19856 1.39999 2
    endloop
  endfacet
  facet normal -0 0 1
    outer loop
      vertex 1.97957 1.564 2
      vertex 2.07681 1.37599 2
      vertex 2.10782 1.584 2
    endloop
  endfacet
  facet normal 0 0 1
    outer loop
      vertex 1.95981 1.336 2
      vertex 2.07681 1.37599 2
      vertex 1.97957 1.564 2
    endloop
  endfacet
  facet normal 0 -0 1
    outer loop
      vertex 1.95981 1.336 2
      vertex 1.97957 1.564 2
      vertex 1.84682 1.536 2
    endloop
  endfacet
  facet normal 0 0 1
    outer loop
      vertex 1.95981 1.336 2
      vertex 1.84682 1.536 2
      vertex 1.84682 1.28 2
    endloop
  endfacet
  facet normal 0 0 1
    outer loop
      vertex 2.95882 1.19025 2
      vertex 2.74281 0.98999 2
      vertex 2.99881 0.868988 2
    endloop
  endfacet
  facet normal 0 0 1
    outer loop
      vertex 1.71881 0.462997 2
      vertex 1.97481 0.471985 2
      vertex 1.76157 0.679489 2
    endloop
  endfacet
  facet normal -0 0 1
    outer loop
      vertex 2.50056 1.38074 2
      vertex 2.63281 1.299 2
      vertex 2.63782 1.55449 2
    endloop
  endfacet
  facet normal 0 0 1
    outer loop
      vertex 2.23306 1.59599 2
      vertex 2.10782 1.584 2
      vertex 2.19856 1.39999 2
    endloop
  endfacet
  facet normal -0 0 1
    outer loop
      vertex 2.71532 1.16724 2
      vertex 2.74281 0.98999 2
      vertex 2.95882 1.19025 2
    endloop
  endfacet
  facet normal 0 0 1
    outer loop
      vertex 2.35481 1.59999 2
      vertex 2.23306 1.59599 2
      vertex 2.32381 1.40799 2
    endloop
  endfacet
  facet normal 0 0 1
    outer loop
      vertex 2.35481 1.59999 2
      vertex 2.32381 1.40799 2
      vertex 2.50056 1.38074 2
    endloop
  endfacet
  facet normal 0 0 1
    outer loop
      vertex 2.63281 1.299 2
      vertex 2.83881 1.418 2
      vertex 2.63782 1.55449 2
    endloop
  endfacet
  facet normal 0 0 1
    outer loop
      vertex 2.95882 1.19025 2
      vertex 2.83881 1.418 2
      vertex 2.71532 1.16724 2
    endloop
  endfacet
  facet normal 0 -0 1
    outer loop
      vertex 2.71532 1.16724 2
      vertex 2.83881 1.418 2
      vertex 2.63281 1.299 2
    endloop
  endfacet
  facet normal -0 0 1
    outer loop
      vertex 2.74281 0.959991 2
      vertex 2.99881 0.868988 2
      vertex 2.74281 0.98999 2
    endloop
  endfacet
  facet normal 0 0 1
    outer loop
      vertex 2.74281 0.255997 2
      vertex 2.71207 0.501495 2
      vertex 2.61981 0.334991 2
    endloop
  endfacet
  facet normal 0 -0 1
    outer loop
      vertex 1.75281 0.273239 2
      vertex 1.99606 0.356247 2
      vertex 1.71881 0.462997 2
    endloop
  endfacet
  facet normal 0 0 1
    outer loop
      vertex 0.866989 -0.151993 2
      vertex 0.664993 0.0339966 2
      vertex 0.61499 -0.0929871 2
    endloop
  endfacet
  facet normal 0 0 1
    outer loop
      vertex 2.16132 0.210739 2
      vertex 2.01532 0.0314941 2
      vertex 2.22281 0 2
    endloop
  endfacet
  facet normal 0 0 1
    outer loop
      vertex 2.47681 0.227737 2
      vertex 2.29381 0.191986 2
      vertex 2.39156 0.0154877 2
    endloop
  endfacet
  facet normal 0 0 1
    outer loop
      vertex 1.536 1.536 2
      vertex 1.25999 1.536 2
      vertex 0.802994 0.37999 2
    endloop
  endfacet
  facet normal 0 -0 1
    outer loop
      vertex 2.22281 0 2
      vertex 2.29381 0.191986 2
      vertex 2.16132 0.210739 2
    endloop
  endfacet
  facet normal 0 0 1
    outer loop
      vertex 0.61499 -0.0929871 2
      vertex 0.762238 -0.369247 2
      vertex 0.866989 -0.151993 2
    endloop
  endfacet
  facet normal 0 -0 1
    outer loop
      vertex 1.85481 0.125992 2
      vertex 1.99606 0.356247 2
      vertex 1.75281 0.273239 2
    endloop
  endfacet
  facet normal 0 0 1
    outer loop
      vertex 2.29381 0.191986 2
      vertex 2.22281 0 2
      vertex 2.39156 0.0154877 2
    endloop
  endfacet
  facet normal -0 0 1
    outer loop
      vertex 2.74281 0.255997 2
      vertex 2.99881 0 2
      vertex 2.99881 0.868988 2
    endloop
  endfacet
  facet normal 0 0 1
    outer loop
      vertex 2.64757 0.141998 2
      vertex 2.61981 0.334991 2
      vertex 2.47681 0.227737 2
    endloop
  endfacet
  facet normal 0 0 1
    outer loop
      vertex 2.74281 0 2
      vertex 2.99881 0 2
      vertex 2.74281 0.255997 2
    endloop
  endfacet
  facet normal 0 -0 1
    outer loop
      vertex 2.49982 0.76799 2
      vertex 2.74281 0.959991 2
      vertex 2.39981 0.959991 2
    endloop
  endfacet
  facet normal 0 0 1
    outer loop
      vertex 2.49982 0.76799 2
      vertex 2.39981 0.959991 2
      vertex 2.24907 0.751236 2
    endloop
  endfacet
  facet normal 0 0 1
    outer loop
      vertex 2.74281 0.959991 2
      vertex 2.49982 0.76799 2
      vertex 2.74281 0.76799 2
    endloop
  endfacet
  facet normal 0 0 1
    outer loop
      vertex 2.53181 0.0619965 2
      vertex 2.47681 0.227737 2
      vertex 2.39156 0.0154877 2
    endloop
  endfacet
  facet normal 0 -0 1
    outer loop
      vertex 1.97481 0.471985 2
      vertex 2.00331 0.610245 2
      vertex 1.76157 0.679489 2
    endloop
  endfacet
  facet normal -0 0 1
    outer loop
      vertex 1.85481 0.125992 2
      vertex 2.01532 0.0314941 2
      vertex 2.05981 0.266998 2
    endloop
  endfacet
  facet normal 0 0 1
    outer loop
      vertex 2.05981 0.266998 2
      vertex 2.01532 0.0314941 2
      vertex 2.16132 0.210739 2
    endloop
  endfacet
  facet normal 0 0 1
    outer loop
      vertex 1.85481 0.125992 2
      vertex 2.05981 0.266998 2
      vertex 1.99606 0.356247 2
    endloop
  endfacet
  facet normal -0 0 1
    outer loop
      vertex 1.71881 0.462997 2
      vertex 1.99606 0.356247 2
      vertex 1.97481 0.471985 2
    endloop
  endfacet
  facet normal 0 0 1
    outer loop
      vertex 2.00331 0.610245 2
      vertex 1.88982 0.834991 2
      vertex 1.76157 0.679489 2
    endloop
  endfacet
  facet normal 0 0 1
    outer loop
      vertex 2.08881 0.700989 2
      vertex 1.88982 0.834991 2
      vertex 2.00331 0.610245 2
    endloop
  endfacet
  facet normal 0 0 1
    outer loop
      vertex 2.10281 0.928741 2
      vertex 2.08881 0.700989 2
      vertex 2.24907 0.751236 2
    endloop
  endfacet
  facet normal 0 0 1
    outer loop
      vertex 2.10281 0.928741 2
      vertex 1.88982 0.834991 2
      vertex 2.08881 0.700989 2
    endloop
  endfacet
  facet normal -0 0 1
    outer loop
      vertex 2.10281 0.928741 2
      vertex 2.24907 0.751236 2
      vertex 2.39981 0.959991 2
    endloop
  endfacet
  facet normal 0 0 1
    outer loop
      vertex 2.74281 0.76799 2
      vertex 2.99881 0.868988 2
      vertex 2.74281 0.959991 2
    endloop
  endfacet
  facet normal 0 0 1
    outer loop
      vertex 2.74281 0.714996 2
      vertex 2.99881 0.868988 2
      vertex 2.74281 0.76799 2
    endloop
  endfacet
  facet normal 0 0 1
    outer loop
      vertex 2.71207 0.501495 2
      vertex 2.99881 0.868988 2
      vertex 2.74281 0.714996 2
    endloop
  endfacet
  facet normal 0 -0 1
    outer loop
      vertex 2.74281 0.255997 2
      vertex 2.99881 0.868988 2
      vertex 2.71207 0.501495 2
    endloop
  endfacet
  facet normal 0 0 1
    outer loop
      vertex 2.74281 0.255997 2
      vertex 2.61981 0.334991 2
      vertex 2.64757 0.141998 2
    endloop
  endfacet
  facet normal 0 0 1
    outer loop
      vertex 2.64757 0.141998 2
      vertex 2.47681 0.227737 2
      vertex 2.53181 0.0619965 2
    endloop
  endfacet
  facet normal 0 0 1
    outer loop
      vertex 6.13943 0.868988 2
      vertex 6.09944 1.19025 2
      vertex 5.88344 0.98999 2
    endloop
  endfacet
  facet normal 0 0 1
    outer loop
      vertex 5.49544 1.59999 2
      vertex 5.64119 1.38074 2
      vertex 5.77844 1.55449 2
    endloop
  endfacet
  facet normal 0 0 1
    outer loop
      vertex 5.37369 1.59599 2
      vertex 5.33919 1.39999 2
      vertex 5.46443 1.40799 2
    endloop
  endfacet
  facet normal 0 0 1
    outer loop
      vertex 5.24844 1.584 2
      vertex 5.21744 1.37599 2
      vertex 5.33919 1.39999 2
    endloop
  endfacet
  facet normal -0 0 1
    outer loop
      vertex 5.12019 1.564 2
      vertex 5.21744 1.37599 2
      vertex 5.24844 1.584 2
    endloop
  endfacet
  facet normal 0 0 1
    outer loop
      vertex 5.10043 1.336 2
      vertex 5.21744 1.37599 2
      vertex 5.12019 1.564 2
    endloop
  endfacet
  facet normal 0 -0 1
    outer loop
      vertex 5.10043 1.336 2
      vertex 5.12019 1.564 2
      vertex 4.98744 1.536 2
    endloop
  endfacet
  facet normal 0 0 1
    outer loop
      vertex 5.10043 1.336 2
      vertex 4.98744 1.536 2
      vertex 4.98744 1.28 2
    endloop
  endfacet
  facet normal 0 0 1
    outer loop
      vertex 5.22943 0.700989 2
      vertex 5.38969 0.751236 2
      vertex 5.24344 0.928741 2
    endloop
  endfacet
  facet normal -0 0 1
    outer loop
      vertex 5.64119 1.38074 2
      vertex 5.77344 1.299 2
      vertex 5.77844 1.55449 2
    endloop
  endfacet
  facet normal 0 0 1
    outer loop
      vertex 5.37369 1.59599 2
      vertex 5.24844 1.584 2
      vertex 5.33919 1.39999 2
    endloop
  endfacet
  facet normal -0 0 1
    outer loop
      vertex 5.85594 1.16724 2
      vertex 5.88344 0.98999 2
      vertex 6.09944 1.19025 2
    endloop
  endfacet
  facet normal 0 0 1
    outer loop
      vertex 5.49544 1.59999 2
      vertex 5.37369 1.59599 2
      vertex 5.46443 1.40799 2
    endloop
  endfacet
  facet normal 0 0 1
    outer loop
      vertex 5.49544 1.59999 2
      vertex 5.46443 1.40799 2
      vertex 5.64119 1.38074 2
    endloop
  endfacet
  facet normal 0 0 1
    outer loop
      vertex 5.77344 1.299 2
      vertex 5.97943 1.418 2
      vertex 5.77844 1.55449 2
    endloop
  endfacet
  facet normal 0 0 1
    outer loop
      vertex 6.09944 1.19025 2
      vertex 5.97943 1.418 2
      vertex 5.85594 1.16724 2
    endloop
  endfacet
  facet normal 0 -0 1
    outer loop
      vertex 5.85594 1.16724 2
      vertex 5.97943 1.418 2
      vertex 5.77344 1.299 2
    endloop
  endfacet
  facet normal 0 0 1
    outer loop
      vertex 6.13943 0.868988 2
      vertex 5.88344 0.98999 2
      vertex 5.88344 0.959991 2
    endloop
  endfacet
  facet normal 0 0 1
    outer loop
      vertex 5.85269 0.501495 2
      vertex 5.76044 0.334991 2
      vertex 5.88344 0.255997 2
    endloop
  endfacet
  facet normal 0 0 1
    outer loop
      vertex 4.85944 0.462997 2
      vertex 5.11543 0.471985 2
      vertex 4.90219 0.679489 2
    endloop
  endfacet
  facet normal 0 -0 1
    outer loop
      vertex 4.89343 0.273239 2
      vertex 5.13669 0.356247 2
      vertex 4.85944 0.462997 2
    endloop
  endfacet
  facet normal 0 0 1
    outer loop
      vertex 5.30194 0.210739 2
      vertex 5.15594 0.0314941 2
      vertex 5.36343 0 2
    endloop
  endfacet
  facet normal 0 0 1
    outer loop
      vertex 5.61743 0.227737 2
      vertex 5.43443 0.191986 2
      vertex 5.53218 0.0154877 2
    endloop
  endfacet
  facet normal 0 -0 1
    outer loop
      vertex 5.36343 0 2
      vertex 5.43443 0.191986 2
      vertex 5.30194 0.210739 2
    endloop
  endfacet
  facet normal 0 -0 1
    outer loop
      vertex 4.99544 0.125992 2
      vertex 5.13669 0.356247 2
      vertex 4.89343 0.273239 2
    endloop
  endfacet
  facet normal 0 0 1
    outer loop
      vertex 5.43443 0.191986 2
      vertex 5.36343 0 2
      vertex 5.53218 0.0154877 2
    endloop
  endfacet
  facet normal -0 0 1
    outer loop
      vertex 5.88344 0.255997 2
      vertex 6.13943 0 2
      vertex 6.13943 0.868988 2
    endloop
  endfacet
  facet normal 0 0 1
    outer loop
      vertex 5.78819 0.141998 2
      vertex 5.76044 0.334991 2
      vertex 5.61743 0.227737 2
    endloop
  endfacet
  facet normal 0 0 1
    outer loop
      vertex 5.88344 0 2
      vertex 6.13943 0 2
      vertex 5.88344 0.255997 2
    endloop
  endfacet
  facet normal 0 -0 1
    outer loop
      vertex 5.64044 0.76799 2
      vertex 5.88344 0.959991 2
      vertex 5.54044 0.959991 2
    endloop
  endfacet
  facet normal 0 0 1
    outer loop
      vertex 5.64044 0.76799 2
      vertex 5.54044 0.959991 2
      vertex 5.38969 0.751236 2
    endloop
  endfacet
  facet normal 0 0 1
    outer loop
      vertex 5.88344 0.959991 2
      vertex 5.64044 0.76799 2
      vertex 5.88344 0.76799 2
    endloop
  endfacet
  facet normal 0 0 1
    outer loop
      vertex 5.67244 0.0619965 2
      vertex 5.61743 0.227737 2
      vertex 5.53218 0.0154877 2
    endloop
  endfacet
  facet normal 0 -0 1
    outer loop
      vertex 5.11543 0.471985 2
      vertex 5.14394 0.610245 2
      vertex 4.90219 0.679489 2
    endloop
  endfacet
  facet normal -0 0 1
    outer loop
      vertex 4.99544 0.125992 2
      vertex 5.15594 0.0314941 2
      vertex 5.20044 0.266998 2
    endloop
  endfacet
  facet normal 0 0 1
    outer loop
      vertex 5.20044 0.266998 2
      vertex 5.15594 0.0314941 2
      vertex 5.30194 0.210739 2
    endloop
  endfacet
  facet normal 0 0 1
    outer loop
      vertex 4.99544 0.125992 2
      vertex 5.20044 0.266998 2
      vertex 5.13669 0.356247 2
    endloop
  endfacet
  facet normal -0 0 1
    outer loop
      vertex 4.85944 0.462997 2
      vertex 5.13669 0.356247 2
      vertex 5.11543 0.471985 2
    endloop
  endfacet
  facet normal 0 0 1
    outer loop
      vertex 5.14394 0.610245 2
      vertex 5.03044 0.834991 2
      vertex 4.90219 0.679489 2
    endloop
  endfacet
  facet normal 0 0 1
    outer loop
      vertex 5.22943 0.700989 2
      vertex 5.03044 0.834991 2
      vertex 5.14394 0.610245 2
    endloop
  endfacet
  facet normal -0 0 1
    outer loop
      vertex 5.03044 0.834991 2
      vertex 5.22943 0.700989 2
      vertex 5.24344 0.928741 2
    endloop
  endfacet
  facet normal -0 0 1
    outer loop
      vertex 5.24344 0.928741 2
      vertex 5.38969 0.751236 2
      vertex 5.54044 0.959991 2
    endloop
  endfacet
  facet normal 0 0 1
    outer loop
      vertex 5.88344 0.76799 2
      vertex 6.13943 0.868988 2
      vertex 5.88344 0.959991 2
    endloop
  endfacet
  facet normal 0 0 1
    outer loop
      vertex 5.88344 0.714996 2
      vertex 6.13943 0.868988 2
      vertex 5.88344 0.76799 2
    endloop
  endfacet
  facet normal 0 0 1
    outer loop
      vertex 5.85269 0.501495 2
      vertex 6.13943 0.868988 2
      vertex 5.88344 0.714996 2
    endloop
  endfacet
  facet normal 0 -0 1
    outer loop
      vertex 5.88344 0.255997 2
      vertex 6.13943 0.868988 2
      vertex 5.85269 0.501495 2
    endloop
  endfacet
  facet normal 0 0 1
    outer loop
      vertex 5.88344 0.255997 2
      vertex 5.76044 0.334991 2
      vertex 5.78819 0.141998 2
    endloop
  endfacet
  facet normal 0 0 1
    outer loop
      vertex 5.78819 0.141998 2
      vertex 5.61743 0.227737 2
      vertex 5.67244 0.0619965 2
    endloop
  endfacet
  facet normal 0 0 1
    outer loop
      vertex 0.61499 -0.0929871 2
      vertex 0.535248 -0.247498 2
      vertex 0.762238 -0.369247 2
    endloop
  endfacet
  facet normal 0 0 1
    outer loop
      vertex 0.659988 -0.494995 2
      vertex 0.535248 -0.247498 2
      vertex 0.469986 -0.332993 2
    endloop
  endfacet
  facet normal 0 0 1
    outer loop
      vertex 0.338989 1.536 2
      vertex 0.0639954 1.536 2
      vertex 0.802994 0.37999 2
    endloop
  endfacet
  facet normal 0 0 1
    outer loop
      vertex 1.536 1.536 2
      vertex 0.802994 0.37999 2
      vertex 0.866989 -0.151993 2
    endloop
  endfacet
  facet normal 0 0 1
    outer loop
      vertex 0.659988 -0.494995 2
      vertex 0.469986 -0.332993 2
      vertex 0.542999 -0.55574 2
    endloop
  endfacet
  facet normal -0 0 1
    outer loop
      vertex 0.338989 -0.383987 2
      vertex 0.391998 -0.575989 2
      vertex 0.408737 -0.371246 2
    endloop
  endfacet
  facet normal 0 0 1
    outer loop
      vertex 0.802994 0.37999 2
      vertex 0.664993 0.0339966 2
      vertex 0.866989 -0.151993 2
    endloop
  endfacet
  facet normal 0 0 1
    outer loop
      vertex 0.802994 0.37999 2
      vertex 0.0639954 1.536 2
      vertex 0.664993 0.0339966 2
    endloop
  endfacet
  facet normal 0 -0 1
    outer loop
      vertex 0.659988 -0.494995 2
      vertex 0.762238 -0.369247 2
      vertex 0.535248 -0.247498 2
    endloop
  endfacet
  facet normal 0 0 1
    outer loop
      vertex 0.469986 -0.332993 2
      vertex 0.408737 -0.371246 2
      vertex 0.542999 -0.55574 2
    endloop
  endfacet
  facet normal 0 0 1
    outer loop
      vertex 0.408737 -0.371246 2
      vertex 0.391998 -0.575989 2
      vertex 0.542999 -0.55574 2
    endloop
  endfacet
  facet normal -0 0 1
    outer loop
      vertex 0.191986 -0.383987 2
      vertex 0.191986 -0.575989 2
      vertex 0.338989 -0.383987 2
    endloop
  endfacet
  facet normal 0 0 1
    outer loop
      vertex 0.191986 -0.575989 2
      vertex 0.391998 -0.575989 2
      vertex 0.338989 -0.383987 2
    endloop
  endfacet
  facet normal 0 1 0
    outer loop
      vertex 3.4933 2.112 0
      vertex 3.7493 2.112 2
      vertex 3.7493 2.112 0
    endloop
  endfacet
  facet normal 0 1 0
    outer loop
      vertex 3.4933 2.112 0
      vertex 3.4933 2.112 2
      vertex 3.7493 2.112 2
    endloop
  endfacet
  facet normal -1 0 0
    outer loop
      vertex 3.4933 0 0
      vertex 3.4933 2.112 2
      vertex 3.4933 2.112 0
    endloop
  endfacet
  facet normal -1 0 0
    outer loop
      vertex 3.4933 0 0
      vertex 3.4933 0 2
      vertex 3.4933 2.112 2
    endloop
  endfacet
  facet normal 0 -1 0
    outer loop
      vertex 3.7493 0 0
      vertex 3.4933 0 2
      vertex 3.4933 0 0
    endloop
  endfacet
  facet normal 0 -1 0
    outer loop
      vertex 3.7493 0 0
      vertex 3.7493 0 2
      vertex 3.4933 0 2
    endloop
  endfacet
  facet normal 1 0 0
    outer loop
      vertex 3.7493 2.112 0
      vertex 3.7493 0 2
      vertex 3.7493 0 0
    endloop
  endfacet
  facet normal 1 0 -0
    outer loop
      vertex 3.7493 2.112 0
      vertex 3.7493 2.112 2
      vertex 3.7493 0 2
    endloop
  endfacet
  facet normal 0 1 0
    outer loop
      vertex 4.24037 2.112 0
      vertex 4.49637 2.112 2
      vertex 4.49637 2.112 0
    endloop
  endfacet
  facet normal 0 1 0
    outer loop
      vertex 4.24037 2.112 0
      vertex 4.24037 2.112 2
      vertex 4.49637 2.112 2
    endloop
  endfacet
  facet normal -1 0 0
    outer loop
      vertex 4.24037 0 0
      vertex 4.24037 2.112 2
      vertex 4.24037 2.112 0
    endloop
  endfacet
  facet normal -1 0 0
    outer loop
      vertex 4.24037 0 0
      vertex 4.24037 0 2
      vertex 4.24037 2.112 2
    endloop
  endfacet
  facet normal 0 -1 0
    outer loop
      vertex 4.49637 0 0
      vertex 4.24037 0 2
      vertex 4.24037 0 0
    endloop
  endfacet
  facet normal 0 -1 0
    outer loop
      vertex 4.49637 0 0
      vertex 4.49637 0 2
      vertex 4.24037 0 2
    endloop
  endfacet
  facet normal 1 0 0
    outer loop
      vertex 4.49637 2.112 0
      vertex 4.49637 0 2
      vertex 4.49637 0 0
    endloop
  endfacet
  facet normal 1 0 -0
    outer loop
      vertex 4.49637 2.112 0
      vertex 4.49637 2.112 2
      vertex 4.49637 0 2
    endloop
  endfacet
  facet normal 0.99234 0.123536 0
    outer loop
      vertex 2.95882 1.19025 0
      vertex 2.99881 0.868988 2
      vertex 2.99881 0.868988 0
    endloop
  endfacet
  facet normal 0.99234 0.123536 -0
    outer loop
      vertex 2.95882 1.19025 0
      vertex 2.95882 1.19025 2
      vertex 2.99881 0.868988 2
    endloop
  endfacet
  facet normal 0.884693 0.466174 0
    outer loop
      vertex 2.83881 1.418 0
      vertex 2.95882 1.19025 2
      vertex 2.95882 1.19025 0
    endloop
  endfacet
  facet normal 0.884693 0.466174 -0
    outer loop
      vertex 2.83881 1.418 0
      vertex 2.83881 1.418 2
      vertex 2.95882 1.19025 2
    endloop
  endfacet
  facet normal 0.561796 0.827276 0
    outer loop
      vertex 2.63782 1.55449 0
      vertex 2.83881 1.418 2
      vertex 2.83881 1.418 0
    endloop
  endfacet
  facet normal 0.561796 0.827276 -0
    outer loop
      vertex 2.63782 1.55449 0
      vertex 2.63782 1.55449 2
      vertex 2.83881 1.418 2
    endloop
  endfacet
  facet normal 0.158742 0.98732 0
    outer loop
      vertex 2.35481 1.59999 0
      vertex 2.63782 1.55449 2
      vertex 2.63782 1.55449 0
    endloop
  endfacet
  facet normal 0.158742 0.98732 -0
    outer loop
      vertex 2.35481 1.59999 0
      vertex 2.35481 1.59999 2
      vertex 2.63782 1.55449 2
    endloop
  endfacet
  facet normal -0.0328185 0.999461 0
    outer loop
      vertex 2.23306 1.59599 0
      vertex 2.35481 1.59999 2
      vertex 2.35481 1.59999 0
    endloop
  endfacet
  facet normal -0.0328185 0.999461 0
    outer loop
      vertex 2.23306 1.59599 0
      vertex 2.23306 1.59599 2
      vertex 2.35481 1.59999 2
    endloop
  endfacet
  facet normal -0.0953242 0.995446 0
    outer loop
      vertex 2.10782 1.584 0
      vertex 2.23306 1.59599 2
      vertex 2.23306 1.59599 0
    endloop
  endfacet
  facet normal -0.0953242 0.995446 0
    outer loop
      vertex 2.10782 1.584 0
      vertex 2.10782 1.584 2
      vertex 2.23306 1.59599 2
    endloop
  endfacet
  facet normal -0.154115 0.988053 0
    outer loop
      vertex 1.97957 1.564 0
      vertex 2.10782 1.584 2
      vertex 2.10782 1.584 0
    endloop
  endfacet
  facet normal -0.154115 0.988053 0
    outer loop
      vertex 1.97957 1.564 0
      vertex 1.97957 1.564 2
      vertex 2.10782 1.584 2
    endloop
  endfacet
  facet normal -0.206379 0.978472 0
    outer loop
      vertex 1.84682 1.536 0
      vertex 1.97957 1.564 2
      vertex 1.97957 1.564 0
    endloop
  endfacet
  facet normal -0.206379 0.978472 0
    outer loop
      vertex 1.84682 1.536 0
      vertex 1.84682 1.536 2
      vertex 1.97957 1.564 2
    endloop
  endfacet
  facet normal -1 0 0
    outer loop
      vertex 1.84682 1.28 0
      vertex 1.84682 1.536 2
      vertex 1.84682 1.536 0
    endloop
  endfacet
  facet normal -1 0 0
    outer loop
      vertex 1.84682 1.28 0
      vertex 1.84682 1.28 2
      vertex 1.84682 1.536 2
    endloop
  endfacet
  facet normal 0.444065 -0.895995 0
    outer loop
      vertex 1.95981 1.336 0
      vertex 1.84682 1.28 2
      vertex 1.84682 1.28 0
    endloop
  endfacet
  facet normal 0.444065 -0.895995 0
    outer loop
      vertex 1.95981 1.336 0
      vertex 1.95981 1.336 2
      vertex 1.84682 1.28 2
    endloop
  endfacet
  facet normal 0.323438 -0.946249 0
    outer loop
      vertex 2.07681 1.37599 0
      vertex 1.95981 1.336 2
      vertex 1.95981 1.336 0
    endloop
  endfacet
  facet normal 0.323438 -0.946249 0
    outer loop
      vertex 2.07681 1.37599 0
      vertex 2.07681 1.37599 2
      vertex 1.95981 1.336 2
    endloop
  endfacet
  facet normal 0.19342 -0.981116 0
    outer loop
      vertex 2.19856 1.39999 0
      vertex 2.07681 1.37599 2
      vertex 2.07681 1.37599 0
    endloop
  endfacet
  facet normal 0.19342 -0.981116 0
    outer loop
      vertex 2.19856 1.39999 0
      vertex 2.19856 1.39999 2
      vertex 2.07681 1.37599 2
    endloop
  endfacet
  facet normal 0.0637105 -0.997968 0
    outer loop
      vertex 2.32381 1.40799 0
      vertex 2.19856 1.39999 2
      vertex 2.19856 1.39999 0
    endloop
  endfacet
  facet normal 0.0637105 -0.997968 0
    outer loop
      vertex 2.32381 1.40799 0
      vertex 2.32381 1.40799 2
      vertex 2.19856 1.39999 2
    endloop
  endfacet
  facet normal -0.152378 -0.988322 0
    outer loop
      vertex 2.50056 1.38074 0
      vertex 2.32381 1.40799 2
      vertex 2.32381 1.40799 0
    endloop
  endfacet
  facet normal -0.152378 -0.988322 0
    outer loop
      vertex 2.50056 1.38074 0
      vertex 2.50056 1.38074 2
      vertex 2.32381 1.40799 2
    endloop
  endfacet
  facet normal -0.525767 -0.850629 0
    outer loop
      vertex 2.63281 1.299 0
      vertex 2.50056 1.38074 2
      vertex 2.50056 1.38074 0
    endloop
  endfacet
  facet normal -0.525767 -0.850629 0
    outer loop
      vertex 2.63281 1.299 0
      vertex 2.63281 1.299 2
      vertex 2.50056 1.38074 2
    endloop
  endfacet
  facet normal -0.847551 -0.530713 0
    outer loop
      vertex 2.71532 1.16724 0
      vertex 2.63281 1.299 2
      vertex 2.63281 1.299 0
    endloop
  endfacet
  facet normal -0.847551 -0.530713 0
    outer loop
      vertex 2.71532 1.16724 0
      vertex 2.71532 1.16724 2
      vertex 2.63281 1.299 2
    endloop
  endfacet
  facet normal -0.98818 -0.153297 0
    outer loop
      vertex 2.74281 0.98999 0
      vertex 2.71532 1.16724 2
      vertex 2.71532 1.16724 0
    endloop
  endfacet
  facet normal -0.98818 -0.153297 0
    outer loop
      vertex 2.74281 0.98999 0
      vertex 2.74281 0.98999 2
      vertex 2.71532 1.16724 2
    endloop
  endfacet
  facet normal -1 0 0
    outer loop
      vertex 2.74281 0.959991 0
      vertex 2.74281 0.98999 2
      vertex 2.74281 0.98999 0
    endloop
  endfacet
  facet normal -1 0 0
    outer loop
      vertex 2.74281 0.959991 0
      vertex 2.74281 0.959991 2
      vertex 2.74281 0.98999 2
    endloop
  endfacet
  facet normal 0 1 0
    outer loop
      vertex 2.39981 0.959991 0
      vertex 2.74281 0.959991 2
      vertex 2.74281 0.959991 0
    endloop
  endfacet
  facet normal 0 1 0
    outer loop
      vertex 2.39981 0.959991 0
      vertex 2.39981 0.959991 2
      vertex 2.74281 0.959991 2
    endloop
  endfacet
  facet normal -0.104642 0.99451 0
    outer loop
      vertex 2.10281 0.928741 0
      vertex 2.39981 0.959991 2
      vertex 2.39981 0.959991 0
    endloop
  endfacet
  facet normal -0.104642 0.99451 0
    outer loop
      vertex 2.10281 0.928741 0
      vertex 2.10281 0.928741 2
      vertex 2.39981 0.959991 2
    endloop
  endfacet
  facet normal -0.402851 0.915266 0
    outer loop
      vertex 1.88982 0.834991 0
      vertex 2.10281 0.928741 2
      vertex 2.10281 0.928741 0
    endloop
  endfacet
  facet normal -0.402851 0.915266 0
    outer loop
      vertex 1.88982 0.834991 0
      vertex 1.88982 0.834991 2
      vertex 2.10281 0.928741 2
    endloop
  endfacet
  facet normal -0.771469 0.636267 0
    outer loop
      vertex 1.76157 0.679489 0
      vertex 1.88982 0.834991 2
      vertex 1.88982 0.834991 0
    endloop
  endfacet
  facet normal -0.771469 0.636267 0
    outer loop
      vertex 1.76157 0.679489 0
      vertex 1.76157 0.679489 2
      vertex 1.88982 0.834991 2
    endloop
  endfacet
  facet normal -0.981051 0.193749 0
    outer loop
      vertex 1.71881 0.462997 0
      vertex 1.76157 0.679489 2
      vertex 1.76157 0.679489 0
    endloop
  endfacet
  facet normal -0.981051 0.193749 0
    outer loop
      vertex 1.71881 0.462997 0
      vertex 1.71881 0.462997 2
      vertex 1.76157 0.679489 2
    endloop
  endfacet
  facet normal -0.984328 -0.176349 0
    outer loop
      vertex 1.75281 0.273239 0
      vertex 1.71881 0.462997 2
      vertex 1.71881 0.462997 0
    endloop
  endfacet
  facet normal -0.984328 -0.176349 0
    outer loop
      vertex 1.75281 0.273239 0
      vertex 1.75281 0.273239 2
      vertex 1.71881 0.462997 2
    endloop
  endfacet
  facet normal -0.822023 -0.569454 0
    outer loop
      vertex 1.85481 0.125992 0
      vertex 1.75281 0.273239 2
      vertex 1.75281 0.273239 0
    endloop
  endfacet
  facet normal -0.822023 -0.569454 0
    outer loop
      vertex 1.85481 0.125992 0
      vertex 1.85481 0.125992 2
      vertex 1.75281 0.273239 2
    endloop
  endfacet
  facet normal -0.507346 -0.861743 0
    outer loop
      vertex 2.01532 0.0314941 0
      vertex 1.85481 0.125992 2
      vertex 1.85481 0.125992 0
    endloop
  endfacet
  facet normal -0.507346 -0.861743 0
    outer loop
      vertex 2.01532 0.0314941 0
      vertex 2.01532 0.0314941 2
      vertex 1.85481 0.125992 2
    endloop
  endfacet
  facet normal -0.150068 -0.988676 0
    outer loop
      vertex 2.22281 0 0
      vertex 2.01532 0.0314941 2
      vertex 2.01532 0.0314941 0
    endloop
  endfacet
  facet normal -0.150068 -0.988676 0
    outer loop
      vertex 2.22281 0 0
      vertex 2.22281 0 2
      vertex 2.01532 0.0314941 2
    endloop
  endfacet
  facet normal 0.0913963 -0.995815 0
    outer loop
      vertex 2.39156 0.0154877 0
      vertex 2.22281 0 2
      vertex 2.22281 0 0
    endloop
  endfacet
  facet normal 0.0913963 -0.995815 0
    outer loop
      vertex 2.39156 0.0154877 0
      vertex 2.39156 0.0154877 2
      vertex 2.22281 0 2
    endloop
  endfacet
  facet normal 0.31474 -0.949178 0
    outer loop
      vertex 2.53181 0.0619965 0
      vertex 2.39156 0.0154877 2
      vertex 2.39156 0.0154877 0
    endloop
  endfacet
  facet normal 0.31474 -0.949178 0
    outer loop
      vertex 2.53181 0.0619965 0
      vertex 2.53181 0.0619965 2
      vertex 2.39156 0.0154877 2
    endloop
  endfacet
  facet normal 0.568561 -0.822641 0
    outer loop
      vertex 2.64757 0.141998 0
      vertex 2.53181 0.0619965 2
      vertex 2.53181 0.0619965 0
    endloop
  endfacet
  facet normal 0.568561 -0.822641 0
    outer loop
      vertex 2.64757 0.141998 0
      vertex 2.64757 0.141998 2
      vertex 2.53181 0.0619965 2
    endloop
  endfacet
  facet normal 0.767404 -0.641164 0
    outer loop
      vertex 2.74281 0.255997 0
      vertex 2.64757 0.141998 2
      vertex 2.64757 0.141998 0
    endloop
  endfacet
  facet normal 0.767404 -0.641164 0
    outer loop
      vertex 2.74281 0.255997 0
      vertex 2.74281 0.255997 2
      vertex 2.64757 0.141998 2
    endloop
  endfacet
  facet normal -1 0 0
    outer loop
      vertex 2.74281 0 0
      vertex 2.74281 0.255997 2
      vertex 2.74281 0.255997 0
    endloop
  endfacet
  facet normal -1 0 0
    outer loop
      vertex 2.74281 0 0
      vertex 2.74281 0 2
      vertex 2.74281 0.255997 2
    endloop
  endfacet
  facet normal 0 -1 0
    outer loop
      vertex 2.99881 0 0
      vertex 2.74281 0 2
      vertex 2.74281 0 0
    endloop
  endfacet
  facet normal 0 -1 0
    outer loop
      vertex 2.99881 0 0
      vertex 2.99881 0 2
      vertex 2.74281 0 2
    endloop
  endfacet
  facet normal 1 0 0
    outer loop
      vertex 2.99881 0.868988 0
      vertex 2.99881 0 2
      vertex 2.99881 0 0
    endloop
  endfacet
  facet normal 1 0 -0
    outer loop
      vertex 2.99881 0.868988 0
      vertex 2.99881 0.868988 2
      vertex 2.99881 0 2
    endloop
  endfacet
  facet normal 0.484783 0.874634 -0
    outer loop
      vertex 2.05981 0.266998 0
      vertex 2.05981 0.266998 2
      vertex 2.16132 0.210739 0
    endloop
  endfacet
  facet normal 0.484783 0.874634 0
    outer loop
      vertex 2.16132 0.210739 2
      vertex 2.16132 0.210739 0
      vertex 2.05981 0.266998 2
    endloop
  endfacet
  facet normal 0.813724 0.581251 -0
    outer loop
      vertex 1.99606 0.356247 0
      vertex 1.99606 0.356247 2
      vertex 2.05981 0.266998 0
    endloop
  endfacet
  facet normal 0.813724 0.581251 0
    outer loop
      vertex 2.05981 0.266998 2
      vertex 2.05981 0.266998 0
      vertex 1.99606 0.356247 2
    endloop
  endfacet
  facet normal 0.983551 0.180631 -0
    outer loop
      vertex 1.97481 0.471985 0
      vertex 1.97481 0.471985 2
      vertex 1.99606 0.356247 0
    endloop
  endfacet
  facet normal 0.983551 0.180631 0
    outer loop
      vertex 1.99606 0.356247 2
      vertex 1.99606 0.356247 0
      vertex 1.97481 0.471985 2
    endloop
  endfacet
  facet normal 0.979404 -0.201912 0
    outer loop
      vertex 2.00331 0.610245 0
      vertex 2.00331 0.610245 2
      vertex 1.97481 0.471985 0
    endloop
  endfacet
  facet normal 0.979404 -0.201912 0
    outer loop
      vertex 1.97481 0.471985 2
      vertex 1.97481 0.471985 0
      vertex 2.00331 0.610245 2
    endloop
  endfacet
  facet normal 0.727844 -0.685743 0
    outer loop
      vertex 2.08881 0.700989 0
      vertex 2.08881 0.700989 2
      vertex 2.00331 0.610245 0
    endloop
  endfacet
  facet normal 0.727844 -0.685743 0
    outer loop
      vertex 2.00331 0.610245 2
      vertex 2.00331 0.610245 0
      vertex 2.08881 0.700989 2
    endloop
  endfacet
  facet normal 0.29917 -0.9542 0
    outer loop
      vertex 2.24907 0.751236 0
      vertex 2.24907 0.751236 2
      vertex 2.08881 0.700989 0
    endloop
  endfacet
  facet normal 0.29917 -0.9542 0
    outer loop
      vertex 2.08881 0.700989 2
      vertex 2.08881 0.700989 0
      vertex 2.24907 0.751236 2
    endloop
  endfacet
  facet normal 0.0666681 -0.997775 0
    outer loop
      vertex 2.49982 0.76799 0
      vertex 2.49982 0.76799 2
      vertex 2.24907 0.751236 0
    endloop
  endfacet
  facet normal 0.0666681 -0.997775 0
    outer loop
      vertex 2.24907 0.751236 2
      vertex 2.24907 0.751236 0
      vertex 2.49982 0.76799 2
    endloop
  endfacet
  facet normal 0 -1 0
    outer loop
      vertex 2.74281 0.76799 0
      vertex 2.74281 0.76799 2
      vertex 2.49982 0.76799 0
    endloop
  endfacet
  facet normal 0 -1 0
    outer loop
      vertex 2.49982 0.76799 2
      vertex 2.49982 0.76799 0
      vertex 2.74281 0.76799 2
    endloop
  endfacet
  facet normal -1 0 0
    outer loop
      vertex 2.74281 0.714996 0
      vertex 2.74281 0.714996 2
      vertex 2.74281 0.76799 0
    endloop
  endfacet
  facet normal -1 -0 -0
    outer loop
      vertex 2.74281 0.76799 2
      vertex 2.74281 0.76799 0
      vertex 2.74281 0.714996 2
    endloop
  endfacet
  facet normal -0.989789 0.14254 0
    outer loop
      vertex 2.71207 0.501495 0
      vertex 2.71207 0.501495 2
      vertex 2.74281 0.714996 0
    endloop
  endfacet
  facet normal -0.989789 0.14254 0
    outer loop
      vertex 2.74281 0.714996 2
      vertex 2.74281 0.714996 0
      vertex 2.71207 0.501495 2
    endloop
  endfacet
  facet normal -0.874709 0.484649 0
    outer loop
      vertex 2.61981 0.334991 0
      vertex 2.61981 0.334991 2
      vertex 2.71207 0.501495 0
    endloop
  endfacet
  facet normal -0.874709 0.484649 0
    outer loop
      vertex 2.71207 0.501495 2
      vertex 2.71207 0.501495 0
      vertex 2.61981 0.334991 2
    endloop
  endfacet
  facet normal -0.6 0.8 0
    outer loop
      vertex 2.47681 0.227737 0
      vertex 2.47681 0.227737 2
      vertex 2.61981 0.334991 0
    endloop
  endfacet
  facet normal -0.6 0.8 0
    outer loop
      vertex 2.61981 0.334991 2
      vertex 2.61981 0.334991 0
      vertex 2.47681 0.227737 2
    endloop
  endfacet
  facet normal -0.191739 0.981446 0
    outer loop
      vertex 2.29381 0.191986 0
      vertex 2.29381 0.191986 2
      vertex 2.47681 0.227737 0
    endloop
  endfacet
  facet normal -0.191739 0.981446 0
    outer loop
      vertex 2.47681 0.227737 2
      vertex 2.47681 0.227737 0
      vertex 2.29381 0.191986 2
    endloop
  endfacet
  facet normal 0.140144 0.990131 -0
    outer loop
      vertex 2.16132 0.210739 0
      vertex 2.16132 0.210739 2
      vertex 2.29381 0.191986 0
    endloop
  endfacet
  facet normal 0.140144 0.990131 0
    outer loop
      vertex 2.29381 0.191986 2
      vertex 2.29381 0.191986 0
      vertex 2.16132 0.210739 2
    endloop
  endfacet
  facet normal 0.99234 0.123536 0
    outer loop
      vertex 6.09944 1.19025 0
      vertex 6.13943 0.868988 2
      vertex 6.13943 0.868988 0
    endloop
  endfacet
  facet normal 0.99234 0.123536 -0
    outer loop
      vertex 6.09944 1.19025 0
      vertex 6.09944 1.19025 2
      vertex 6.13943 0.868988 2
    endloop
  endfacet
  facet normal 0.884693 0.466174 0
    outer loop
      vertex 5.97943 1.418 0
      vertex 6.09944 1.19025 2
      vertex 6.09944 1.19025 0
    endloop
  endfacet
  facet normal 0.884693 0.466174 -0
    outer loop
      vertex 5.97943 1.418 0
      vertex 5.97943 1.418 2
      vertex 6.09944 1.19025 2
    endloop
  endfacet
  facet normal 0.561796 0.827276 0
    outer loop
      vertex 5.77844 1.55449 0
      vertex 5.97943 1.418 2
      vertex 5.97943 1.418 0
    endloop
  endfacet
  facet normal 0.561796 0.827276 -0
    outer loop
      vertex 5.77844 1.55449 0
      vertex 5.77844 1.55449 2
      vertex 5.97943 1.418 2
    endloop
  endfacet
  facet normal 0.158742 0.98732 0
    outer loop
      vertex 5.49544 1.59999 0
      vertex 5.77844 1.55449 2
      vertex 5.77844 1.55449 0
    endloop
  endfacet
  facet normal 0.158742 0.98732 -0
    outer loop
      vertex 5.49544 1.59999 0
      vertex 5.49544 1.59999 2
      vertex 5.77844 1.55449 2
    endloop
  endfacet
  facet normal -0.0328185 0.999461 0
    outer loop
      vertex 5.37369 1.59599 0
      vertex 5.49544 1.59999 2
      vertex 5.49544 1.59999 0
    endloop
  endfacet
  facet normal -0.0328185 0.999461 0
    outer loop
      vertex 5.37369 1.59599 0
      vertex 5.37369 1.59599 2
      vertex 5.49544 1.59999 2
    endloop
  endfacet
  facet normal -0.0953242 0.995446 0
    outer loop
      vertex 5.24844 1.584 0
      vertex 5.37369 1.59599 2
      vertex 5.37369 1.59599 0
    endloop
  endfacet
  facet normal -0.0953242 0.995446 0
    outer loop
      vertex 5.24844 1.584 0
      vertex 5.24844 1.584 2
      vertex 5.37369 1.59599 2
    endloop
  endfacet
  facet normal -0.154115 0.988053 0
    outer loop
      vertex 5.12019 1.564 0
      vertex 5.24844 1.584 2
      vertex 5.24844 1.584 0
    endloop
  endfacet
  facet normal -0.154115 0.988053 0
    outer loop
      vertex 5.12019 1.564 0
      vertex 5.12019 1.564 2
      vertex 5.24844 1.584 2
    endloop
  endfacet
  facet normal -0.206379 0.978472 0
    outer loop
      vertex 4.98744 1.536 0
      vertex 5.12019 1.564 2
      vertex 5.12019 1.564 0
    endloop
  endfacet
  facet normal -0.206379 0.978472 0
    outer loop
      vertex 4.98744 1.536 0
      vertex 4.98744 1.536 2
      vertex 5.12019 1.564 2
    endloop
  endfacet
  facet normal -1 0 0
    outer loop
      vertex 4.98744 1.28 0
      vertex 4.98744 1.536 2
      vertex 4.98744 1.536 0
    endloop
  endfacet
  facet normal -1 0 0
    outer loop
      vertex 4.98744 1.28 0
      vertex 4.98744 1.28 2
      vertex 4.98744 1.536 2
    endloop
  endfacet
  facet normal 0.444065 -0.895995 0
    outer loop
      vertex 5.10043 1.336 0
      vertex 4.98744 1.28 2
      vertex 4.98744 1.28 0
    endloop
  endfacet
  facet normal 0.444065 -0.895995 0
    outer loop
      vertex 5.10043 1.336 0
      vertex 5.10043 1.336 2
      vertex 4.98744 1.28 2
    endloop
  endfacet
  facet normal 0.323438 -0.946249 0
    outer loop
      vertex 5.21744 1.37599 0
      vertex 5.10043 1.336 2
      vertex 5.10043 1.336 0
    endloop
  endfacet
  facet normal 0.323438 -0.946249 0
    outer loop
      vertex 5.21744 1.37599 0
      vertex 5.21744 1.37599 2
      vertex 5.10043 1.336 2
    endloop
  endfacet
  facet normal 0.19342 -0.981116 0
    outer loop
      vertex 5.33919 1.39999 0
      vertex 5.21744 1.37599 2
      vertex 5.21744 1.37599 0
    endloop
  endfacet
  facet normal 0.19342 -0.981116 0
    outer loop
      vertex 5.33919 1.39999 0
      vertex 5.33919 1.39999 2
      vertex 5.21744 1.37599 2
    endloop
  endfacet
  facet normal 0.0637105 -0.997968 0
    outer loop
      vertex 5.46443 1.40799 0
      vertex 5.33919 1.39999 2
      vertex 5.33919 1.39999 0
    endloop
  endfacet
  facet normal 0.0637105 -0.997968 0
    outer loop
      vertex 5.46443 1.40799 0
      vertex 5.46443 1.40799 2
      vertex 5.33919 1.39999 2
    endloop
  endfacet
  facet normal -0.152378 -0.988322 0
    outer loop
      vertex 5.64119 1.38074 0
      vertex 5.46443 1.40799 2
      vertex 5.46443 1.40799 0
    endloop
  endfacet
  facet normal -0.152378 -0.988322 0
    outer loop
      vertex 5.64119 1.38074 0
      vertex 5.64119 1.38074 2
      vertex 5.46443 1.40799 2
    endloop
  endfacet
  facet normal -0.525767 -0.850629 0
    outer loop
      vertex 5.77344 1.299 0
      vertex 5.64119 1.38074 2
      vertex 5.64119 1.38074 0
    endloop
  endfacet
  facet normal -0.525767 -0.850629 0
    outer loop
      vertex 5.77344 1.299 0
      vertex 5.77344 1.299 2
      vertex 5.64119 1.38074 2
    endloop
  endfacet
  facet normal -0.847551 -0.530713 0
    outer loop
      vertex 5.85594 1.16724 0
      vertex 5.77344 1.299 2
      vertex 5.77344 1.299 0
    endloop
  endfacet
  facet normal -0.847551 -0.530713 0
    outer loop
      vertex 5.85594 1.16724 0
      vertex 5.85594 1.16724 2
      vertex 5.77344 1.299 2
    endloop
  endfacet
  facet normal -0.98818 -0.153297 0
    outer loop
      vertex 5.88344 0.98999 0
      vertex 5.85594 1.16724 2
      vertex 5.85594 1.16724 0
    endloop
  endfacet
  facet normal -0.98818 -0.153297 0
    outer loop
      vertex 5.88344 0.98999 0
      vertex 5.88344 0.98999 2
      vertex 5.85594 1.16724 2
    endloop
  endfacet
  facet normal -1 0 0
    outer loop
      vertex 5.88344 0.959991 0
      vertex 5.88344 0.98999 2
      vertex 5.88344 0.98999 0
    endloop
  endfacet
  facet normal -1 0 0
    outer loop
      vertex 5.88344 0.959991 0
      vertex 5.88344 0.959991 2
      vertex 5.88344 0.98999 2
    endloop
  endfacet
  facet normal 0 1 0
    outer loop
      vertex 5.54044 0.959991 0
      vertex 5.88344 0.959991 2
      vertex 5.88344 0.959991 0
    endloop
  endfacet
  facet normal 0 1 0
    outer loop
      vertex 5.54044 0.959991 0
      vertex 5.54044 0.959991 2
      vertex 5.88344 0.959991 2
    endloop
  endfacet
  facet normal -0.104642 0.99451 0
    outer loop
      vertex 5.24344 0.928741 0
      vertex 5.54044 0.959991 2
      vertex 5.54044 0.959991 0
    endloop
  endfacet
  facet normal -0.104642 0.99451 0
    outer loop
      vertex 5.24344 0.928741 0
      vertex 5.24344 0.928741 2
      vertex 5.54044 0.959991 2
    endloop
  endfacet
  facet normal -0.402851 0.915266 0
    outer loop
      vertex 5.03044 0.834991 0
      vertex 5.24344 0.928741 2
      vertex 5.24344 0.928741 0
    endloop
  endfacet
  facet normal -0.402851 0.915266 0
    outer loop
      vertex 5.03044 0.834991 0
      vertex 5.03044 0.834991 2
      vertex 5.24344 0.928741 2
    endloop
  endfacet
  facet normal -0.771469 0.636267 0
    outer loop
      vertex 4.90219 0.679489 0
      vertex 5.03044 0.834991 2
      vertex 5.03044 0.834991 0
    endloop
  endfacet
  facet normal -0.771469 0.636267 0
    outer loop
      vertex 4.90219 0.679489 0
      vertex 4.90219 0.679489 2
      vertex 5.03044 0.834991 2
    endloop
  endfacet
  facet normal -0.981051 0.193749 0
    outer loop
      vertex 4.85944 0.462997 0
      vertex 4.90219 0.679489 2
      vertex 4.90219 0.679489 0
    endloop
  endfacet
  facet normal -0.981051 0.193749 0
    outer loop
      vertex 4.85944 0.462997 0
      vertex 4.85944 0.462997 2
      vertex 4.90219 0.679489 2
    endloop
  endfacet
  facet normal -0.984328 -0.176349 0
    outer loop
      vertex 4.89343 0.273239 0
      vertex 4.85944 0.462997 2
      vertex 4.85944 0.462997 0
    endloop
  endfacet
  facet normal -0.984328 -0.176349 0
    outer loop
      vertex 4.89343 0.273239 0
      vertex 4.89343 0.273239 2
      vertex 4.85944 0.462997 2
    endloop
  endfacet
  facet normal -0.822023 -0.569454 0
    outer loop
      vertex 4.99544 0.125992 0
      vertex 4.89343 0.273239 2
      vertex 4.89343 0.273239 0
    endloop
  endfacet
  facet normal -0.822023 -0.569454 0
    outer loop
      vertex 4.99544 0.125992 0
      vertex 4.99544 0.125992 2
      vertex 4.89343 0.273239 2
    endloop
  endfacet
  facet normal -0.507346 -0.861743 0
    outer loop
      vertex 5.15594 0.0314941 0
      vertex 4.99544 0.125992 2
      vertex 4.99544 0.125992 0
    endloop
  endfacet
  facet normal -0.507346 -0.861743 0
    outer loop
      vertex 5.15594 0.0314941 0
      vertex 5.15594 0.0314941 2
      vertex 4.99544 0.125992 2
    endloop
  endfacet
  facet normal -0.150068 -0.988676 0
    outer loop
      vertex 5.36343 0 0
      vertex 5.15594 0.0314941 2
      vertex 5.15594 0.0314941 0
    endloop
  endfacet
  facet normal -0.150068 -0.988676 0
    outer loop
      vertex 5.36343 0 0
      vertex 5.36343 0 2
      vertex 5.15594 0.0314941 2
    endloop
  endfacet
  facet normal 0.0913963 -0.995815 0
    outer loop
      vertex 5.53218 0.0154877 0
      vertex 5.36343 0 2
      vertex 5.36343 0 0
    endloop
  endfacet
  facet normal 0.0913963 -0.995815 0
    outer loop
      vertex 5.53218 0.0154877 0
      vertex 5.53218 0.0154877 2
      vertex 5.36343 0 2
    endloop
  endfacet
  facet normal 0.31474 -0.949178 0
    outer loop
      vertex 5.67244 0.0619965 0
      vertex 5.53218 0.0154877 2
      vertex 5.53218 0.0154877 0
    endloop
  endfacet
  facet normal 0.31474 -0.949178 0
    outer loop
      vertex 5.67244 0.0619965 0
      vertex 5.67244 0.0619965 2
      vertex 5.53218 0.0154877 2
    endloop
  endfacet
  facet normal 0.568561 -0.822641 0
    outer loop
      vertex 5.78819 0.141998 0
      vertex 5.67244 0.0619965 2
      vertex 5.67244 0.0619965 0
    endloop
  endfacet
  facet normal 0.568561 -0.822641 0
    outer loop
      vertex 5.78819 0.141998 0
      vertex 5.78819 0.141998 2
      vertex 5.67244 0.0619965 2
    endloop
  endfacet
  facet normal 0.767404 -0.641164 0
    outer loop
      vertex 5.88344 0.255997 0
      vertex 5.78819 0.141998 2
      vertex 5.78819 0.141998 0
    endloop
  endfacet
  facet normal 0.767404 -0.641164 0
    outer loop
      vertex 5.88344 0.255997 0
      vertex 5.88344 0.255997 2
      vertex 5.78819 0.141998 2
    endloop
  endfacet
  facet normal -1 0 0
    outer loop
      vertex 5.88344 0 0
      vertex 5.88344 0.255997 2
      vertex 5.88344 0.255997 0
    endloop
  endfacet
  facet normal -1 0 0
    outer loop
      vertex 5.88344 0 0
      vertex 5.88344 0 2
      vertex 5.88344 0.255997 2
    endloop
  endfacet
  facet normal 0 -1 0
    outer loop
      vertex 6.13943 0 0
      vertex 5.88344 0 2
      vertex 5.88344 0 0
    endloop
  endfacet
  facet normal 0 -1 0
    outer loop
      vertex 6.13943 0 0
      vertex 6.13943 0 2
      vertex 5.88344 0 2
    endloop
  endfacet
  facet normal 1 0 0
    outer loop
      vertex 6.13943 0.868988 0
      vertex 6.13943 0 2
      vertex 6.13943 0 0
    endloop
  endfacet
  facet normal 1 0 -0
    outer loop
      vertex 6.13943 0.868988 0
      vertex 6.13943 0.868988 2
      vertex 6.13943 0 2
    endloop
  endfacet
  facet normal 0.484783 0.874634 -0
    outer loop
      vertex 5.20044 0.266998 0
      vertex 5.20044 0.266998 2
      vertex 5.30194 0.210739 0
    endloop
  endfacet
  facet normal 0.484783 0.874634 0
    outer loop
      vertex 5.30194 0.210739 2
      vertex 5.30194 0.210739 0
      vertex 5.20044 0.266998 2
    endloop
  endfacet
  facet normal 0.813724 0.581251 -0
    outer loop
      vertex 5.13669 0.356247 0
      vertex 5.13669 0.356247 2
      vertex 5.20044 0.266998 0
    endloop
  endfacet
  facet normal 0.813724 0.581251 0
    outer loop
      vertex 5.20044 0.266998 2
      vertex 5.20044 0.266998 0
      vertex 5.13669 0.356247 2
    endloop
  endfacet
  facet normal 0.983551 0.180631 -0
    outer loop
      vertex 5.11543 0.471985 0
      vertex 5.11543 0.471985 2
      vertex 5.13669 0.356247 0
    endloop
  endfacet
  facet normal 0.983551 0.180631 0
    outer loop
      vertex 5.13669 0.356247 2
      vertex 5.13669 0.356247 0
      vertex 5.11543 0.471985 2
    endloop
  endfacet
  facet normal 0.979404 -0.201912 0
    outer loop
      vertex 5.14394 0.610245 0
      vertex 5.14394 0.610245 2
      vertex 5.11543 0.471985 0
    endloop
  endfacet
  facet normal 0.979404 -0.201912 0
    outer loop
      vertex 5.11543 0.471985 2
      vertex 5.11543 0.471985 0
      vertex 5.14394 0.610245 2
    endloop
  endfacet
  facet normal 0.727844 -0.685743 0
    outer loop
      vertex 5.22943 0.700989 0
      vertex 5.22943 0.700989 2
      vertex 5.14394 0.610245 0
    endloop
  endfacet
  facet normal 0.727844 -0.685743 0
    outer loop
      vertex 5.14394 0.610245 2
      vertex 5.14394 0.610245 0
      vertex 5.22943 0.700989 2
    endloop
  endfacet
  facet normal 0.29917 -0.9542 0
    outer loop
      vertex 5.38969 0.751236 0
      vertex 5.38969 0.751236 2
      vertex 5.22943 0.700989 0
    endloop
  endfacet
  facet normal 0.29917 -0.9542 0
    outer loop
      vertex 5.22943 0.700989 2
      vertex 5.22943 0.700989 0
      vertex 5.38969 0.751236 2
    endloop
  endfacet
  facet normal 0.0666681 -0.997775 0
    outer loop
      vertex 5.64044 0.76799 0
      vertex 5.64044 0.76799 2
      vertex 5.38969 0.751236 0
    endloop
  endfacet
  facet normal 0.0666681 -0.997775 0
    outer loop
      vertex 5.38969 0.751236 2
      vertex 5.38969 0.751236 0
      vertex 5.64044 0.76799 2
    endloop
  endfacet
  facet normal 0 -1 0
    outer loop
      vertex 5.88344 0.76799 0
      vertex 5.88344 0.76799 2
      vertex 5.64044 0.76799 0
    endloop
  endfacet
  facet normal 0 -1 0
    outer loop
      vertex 5.64044 0.76799 2
      vertex 5.64044 0.76799 0
      vertex 5.88344 0.76799 2
    endloop
  endfacet
  facet normal -1 0 0
    outer loop
      vertex 5.88344 0.714996 0
      vertex 5.88344 0.714996 2
      vertex 5.88344 0.76799 0
    endloop
  endfacet
  facet normal -1 -0 -0
    outer loop
      vertex 5.88344 0.76799 2
      vertex 5.88344 0.76799 0
      vertex 5.88344 0.714996 2
    endloop
  endfacet
  facet normal -0.989789 0.14254 0
    outer loop
      vertex 5.85269 0.501495 0
      vertex 5.85269 0.501495 2
      vertex 5.88344 0.714996 0
    endloop
  endfacet
  facet normal -0.989789 0.14254 0
    outer loop
      vertex 5.88344 0.714996 2
      vertex 5.88344 0.714996 0
      vertex 5.85269 0.501495 2
    endloop
  endfacet
  facet normal -0.874709 0.484649 0
    outer loop
      vertex 5.76044 0.334991 0
      vertex 5.76044 0.334991 2
      vertex 5.85269 0.501495 0
    endloop
  endfacet
  facet normal -0.874709 0.484649 0
    outer loop
      vertex 5.85269 0.501495 2
      vertex 5.85269 0.501495 0
      vertex 5.76044 0.334991 2
    endloop
  endfacet
  facet normal -0.6 0.8 0
    outer loop
      vertex 5.61743 0.227737 0
      vertex 5.61743 0.227737 2
      vertex 5.76044 0.334991 0
    endloop
  endfacet
  facet normal -0.6 0.8 0
    outer loop
      vertex 5.76044 0.334991 2
      vertex 5.76044 0.334991 0
      vertex 5.61743 0.227737 2
    endloop
  endfacet
  facet normal -0.191739 0.981446 0
    outer loop
      vertex 5.43443 0.191986 0
      vertex 5.43443 0.191986 2
      vertex 5.61743 0.227737 0
    endloop
  endfacet
  facet normal -0.191739 0.981446 0
    outer loop
      vertex 5.61743 0.227737 2
      vertex 5.61743 0.227737 0
      vertex 5.43443 0.191986 2
    endloop
  endfacet
  facet normal 0.140144 0.990131 -0
    outer loop
      vertex 5.30194 0.210739 0
      vertex 5.30194 0.210739 2
      vertex 5.43443 0.191986 0
    endloop
  endfacet
  facet normal 0.140144 0.990131 0
    outer loop
      vertex 5.43443 0.191986 2
      vertex 5.43443 0.191986 0
      vertex 5.30194 0.210739 2
    endloop
  endfacet
  facet normal 0.460821 -0.887493 0
    outer loop
      vertex 0.659988 -0.494995 0
      vertex 0.542999 -0.55574 2
      vertex 0.542999 -0.55574 0
    endloop
  endfacet
  facet normal 0.460821 -0.887493 0
    outer loop
      vertex 0.659988 -0.494995 0
      vertex 0.659988 -0.494995 2
      vertex 0.542999 -0.55574 2
    endloop
  endfacet
  facet normal 0.775875 -0.630887 0
    outer loop
      vertex 0.762238 -0.369247 0
      vertex 0.659988 -0.494995 2
      vertex 0.659988 -0.494995 0
    endloop
  endfacet
  facet normal 0.775875 -0.630887 0
    outer loop
      vertex 0.762238 -0.369247 0
      vertex 0.762238 -0.369247 2
      vertex 0.659988 -0.494995 2
    endloop
  endfacet
  facet normal 0.900762 -0.434312 0
    outer loop
      vertex 0.866989 -0.151993 0
      vertex 0.762238 -0.369247 2
      vertex 0.762238 -0.369247 0
    endloop
  endfacet
  facet normal 0.900762 -0.434312 0
    outer loop
      vertex 0.866989 -0.151993 0
      vertex 0.866989 -0.151993 2
      vertex 0.762238 -0.369247 2
    endloop
  endfacet
  facet normal 0.929647 -0.36845 0
    outer loop
      vertex 1.536 1.536 0
      vertex 0.866989 -0.151993 2
      vertex 0.866989 -0.151993 0
    endloop
  endfacet
  facet normal 0.929647 -0.36845 0
    outer loop
      vertex 1.536 1.536 0
      vertex 1.536 1.536 2
      vertex 0.866989 -0.151993 2
    endloop
  endfacet
  facet normal 0 1 0
    outer loop
      vertex 1.25999 1.536 0
      vertex 1.536 1.536 2
      vertex 1.536 1.536 0
    endloop
  endfacet
  facet normal 0 1 0
    outer loop
      vertex 1.25999 1.536 0
      vertex 1.25999 1.536 2
      vertex 1.536 1.536 2
    endloop
  endfacet
  facet normal -0.929968 0.367642 0
    outer loop
      vertex 0.802994 0.37999 0
      vertex 1.25999 1.536 2
      vertex 1.25999 1.536 0
    endloop
  endfacet
  facet normal -0.929968 0.367642 0
    outer loop
      vertex 0.802994 0.37999 0
      vertex 0.802994 0.37999 2
      vertex 1.25999 1.536 2
    endloop
  endfacet
  facet normal 0.928033 0.372499 0
    outer loop
      vertex 0.338989 1.536 0
      vertex 0.802994 0.37999 2
      vertex 0.802994 0.37999 0
    endloop
  endfacet
  facet normal 0.928033 0.372499 -0
    outer loop
      vertex 0.338989 1.536 0
      vertex 0.338989 1.536 2
      vertex 0.802994 0.37999 2
    endloop
  endfacet
  facet normal 0 1 0
    outer loop
      vertex 0.0639954 1.536 0
      vertex 0.338989 1.536 2
      vertex 0.338989 1.536 0
    endloop
  endfacet
  facet normal 0 1 0
    outer loop
      vertex 0.0639954 1.536 0
      vertex 0.0639954 1.536 2
      vertex 0.338989 1.536 2
    endloop
  endfacet
  facet normal -0.928434 -0.371496 0
    outer loop
      vertex 0.664993 0.0339966 0
      vertex 0.0639954 1.536 2
      vertex 0.0639954 1.536 0
    endloop
  endfacet
  facet normal -0.928434 -0.371496 0
    outer loop
      vertex 0.664993 0.0339966 0
      vertex 0.664993 0.0339966 2
      vertex 0.0639954 1.536 2
    endloop
  endfacet
  facet normal -0.93046 0.366393 0
    outer loop
      vertex 0.61499 -0.0929871 0
      vertex 0.664993 0.0339966 2
      vertex 0.664993 0.0339966 0
    endloop
  endfacet
  facet normal -0.93046 0.366393 0
    outer loop
      vertex 0.61499 -0.0929871 0
      vertex 0.61499 -0.0929871 2
      vertex 0.664993 0.0339966 2
    endloop
  endfacet
  facet normal -0.888632 0.458621 0
    outer loop
      vertex 0.535248 -0.247498 0
      vertex 0.61499 -0.0929871 2
      vertex 0.61499 -0.0929871 0
    endloop
  endfacet
  facet normal -0.888632 0.458621 0
    outer loop
      vertex 0.535248 -0.247498 0
      vertex 0.535248 -0.247498 2
      vertex 0.61499 -0.0929871 2
    endloop
  endfacet
  facet normal -0.794881 0.606765 0
    outer loop
      vertex 0.469986 -0.332993 0
      vertex 0.535248 -0.247498 2
      vertex 0.535248 -0.247498 0
    endloop
  endfacet
  facet normal -0.794881 0.606765 0
    outer loop
      vertex 0.469986 -0.332993 0
      vertex 0.469986 -0.332993 2
      vertex 0.535248 -0.247498 2
    endloop
  endfacet
  facet normal -0.529733 0.848164 0
    outer loop
      vertex 0.408737 -0.371246 0
      vertex 0.469986 -0.332993 2
      vertex 0.469986 -0.332993 0
    endloop
  endfacet
  facet normal -0.529733 0.848164 0
    outer loop
      vertex 0.408737 -0.371246 0
      vertex 0.408737 -0.371246 2
      vertex 0.469986 -0.332993 2
    endloop
  endfacet
  facet normal -0.1797 0.983722 0
    outer loop
      vertex 0.338989 -0.383987 0
      vertex 0.408737 -0.371246 2
      vertex 0.408737 -0.371246 0
    endloop
  endfacet
  facet normal -0.1797 0.983722 0
    outer loop
      vertex 0.338989 -0.383987 0
      vertex 0.338989 -0.383987 2
      vertex 0.408737 -0.371246 2
    endloop
  endfacet
  facet normal 0 1 0
    outer loop
      vertex 0.191986 -0.383987 0
      vertex 0.338989 -0.383987 2
      vertex 0.338989 -0.383987 0
    endloop
  endfacet
  facet normal 0 1 0
    outer loop
      vertex 0.191986 -0.383987 0
      vertex 0.191986 -0.383987 2
      vertex 0.338989 -0.383987 2
    endloop
  endfacet
  facet normal -1 0 0
    outer loop
      vertex 0.191986 -0.575989 0
      vertex 0.191986 -0.383987 2
      vertex 0.191986 -0.383987 0
    endloop
  endfacet
  facet normal -1 0 0
    outer loop
      vertex 0.191986 -0.575989 0
      vertex 0.191986 -0.575989 2
      vertex 0.191986 -0.383987 2
    endloop
  endfacet
  facet normal 0 -1 0
    outer loop
      vertex 0.391998 -0.575989 0
      vertex 0.191986 -0.575989 2
      vertex 0.191986 -0.575989 0
    endloop
  endfacet
  facet normal 0 -1 0
    outer loop
      vertex 0.391998 -0.575989 0
      vertex 0.391998 -0.575989 2
      vertex 0.191986 -0.575989 2
    endloop
  endfacet
  facet normal 0.132905 -0.991129 0
    outer loop
      vertex 0.542999 -0.55574 0
      vertex 0.391998 -0.575989 2
      vertex 0.391998 -0.575989 0
    endloop
  endfacet
  facet normal 0.132905 -0.991129 0
    outer loop
      vertex 0.542999 -0.55574 0
      vertex 0.542999 -0.55574 2
      vertex 0.391998 -0.575989 2
    endloop
  endfacet
endsolid OpenSCAD_Model
